<svg width="48" height="49" viewBox="0 0 48 49" fill="none" xmlns="http://www.w3.org/2000/svg">
    <path d="M2.025 7.364c0-2.881 1.915-4.796 4.797-4.796h34.365c2.882 0 4.797 1.915 4.797 4.796v6.146c0 6.72-2.398 10.65-6.62 10.65-7.297 0-16.125-9.118-23.522-9.118-5.664 0-10.561 3.739-13.817 11.9V7.364zm43.968 34.368c0 2.882-1.915 4.796-4.797 4.796H6.822c-2.882 0-4.797-1.914-4.797-4.796v-6.146c0-6.72 2.398-10.65 6.621-10.65 7.296 0 16.125 9.118 23.521 9.118 5.664 0 10.561-3.738 13.826-11.9v19.578zM6.722.552C2.69.553 0 3.243 0 7.274v34.56c0 4.03 2.69 6.72 6.722 6.72h34.556c4.032 0 6.722-2.69 6.722-6.72V7.272c0-4.03-2.69-6.72-6.722-6.72H6.722z" fill="#fff"/>
</svg>
