<svg width="48" height="49" viewBox="0 0 48 49" fill="none" xmlns="http://www.w3.org/2000/svg">
    <path d="M11.411 13.356a1.902 1.902 0 1 0 0-3.803 1.902 1.902 0 0 0 0 3.803zM36.135 21.82v9.033c0 1.997 1.48 3.519 3.423 3.519 1.924 0 3.423-1.522 3.423-3.46V21.82a2.378 2.378 0 0 1 2.378-2.378h2.377v11.221a8.178 8.178 0 0 1-16.356 0v-11.22h2.377a2.377 2.377 0 0 1 2.378 2.377z" fill="#fff"/>
    <path fill-rule="evenodd" clip-rule="evenodd" d="M25.2 12.215h2.377v24.249a2.377 2.377 0 0 1-2.378 2.377h-2.377V14.593a2.377 2.377 0 0 1 2.377-2.378z" fill="#fff"/>
    <path d="M4.755 12.215v9.027c1.504-1.363 3.424-2.18 5.515-2.18 4.832 0 8.748 4.364 8.748 9.747a12.572 12.572 0 0 1 0 .238c0 5.562-4.257 9.794-9.509 9.794-5.159 0-9.358-4.232-9.505-9.51H0V14.594a2.38 2.38 0 0 1 2.377-2.378h2.378zm4.659 11.221c-2.73 0-4.945 2.448-4.945 5.468s2.214 5.468 4.945 5.468c2.731 0 4.945-2.448 4.945-5.468s-2.214-5.468-4.945-5.468z" fill="#fff"/>
</svg>
