<svg width="48" height="49" viewBox="0 0 48 49" fill="none" xmlns="http://www.w3.org/2000/svg">
    <path fill-rule="evenodd" clip-rule="evenodd" d="M31.189 18.925h.322c.152 0 .288-.11.408-.328.273.27.547.405.822.405.157-.115.309-.351.456-.71 0-.342-.069-.59-.206-.745-.146-.163-.388-.245-.725-.245-.1.102-.23.297-.392.588-.13.233-.227.35-.29.35h-.395c-.046-.295-.15-.522-.313-.68a.631.631 0 0 0-.45-.198c-.14.077-.264.202-.373.375-.162.26-.242.578-.242.953.168.156.527.235 1.077.235-.136.258-.3.467-.49.625-.211.177-.515.345-.91.505.122.082.277.153.465.213.195.063.363.095.503.095.418-.49.663-.97.733-1.438zm-.536-.87c.077.081.139.173.185.275a.568.568 0 0 1-.26.052.916.916 0 0 1-.247-.035c-.114-.032-.18-.075-.198-.13a.557.557 0 0 1 .088-.19c.055-.083.106-.125.152-.125.092 0 .185.05.28.153zm2.168.352c0 .03-.001.062-.005.095-.333-.076-.565-.205-.695-.385a.494.494 0 0 1 .195-.29c.337.072.505.265.505.58z" fill="#fff"/>
    <path d="m12.605 17.661.313-.678a1.07 1.07 0 0 0-.403-.087c-.524 0-.91.432-1.156 1.296-.07.247-.106.416-.106.508.076.112.234.194.476.246.296.065.517.147.662.247-.173.106-.44.202-.802.287a3.863 3.863 0 0 1-.843.116c-.546 0-.82-.204-.82-.614 0-.247.07-.497.207-.75-.041-.067-.106-.098-.194-.091a3.12 3.12 0 0 0-.271.592c-.093.266-.14.493-.14.68 0 .295.096.518.287.669.176.137.417.205.724.205.664 0 1.311-.184 1.942-.553.147-.388.22-.701.22-.94 0-.102-.09-.187-.271-.257l-.507-.142c-.187-.052-.284-.11-.293-.17.176-.412.409-.617.699-.617.086 0 .178.017.276.053zM14.097 19.576c.181-.353.271-.63.271-.834 0-.167-.05-.361-.148-.581a1.38 1.38 0 0 0-.34-.493l-.357.678c.241.16.4.345.478.556-.053.177-.224.374-.512.592-.245.187-.523.35-.835.49.086.084.23.166.43.247.2.081.359.122.478.122.182-.18.36-.439.535-.777zM15.955 20.125l.417-.386-.401-.396-.424.38.408.402zM17.68 18.743c.12.12.251.18.39.18.099 0 .316-.041.652-.124a54.19 54.19 0 0 1 1.35-.32l.3-.64-.975.249c-.351-.148-.545-.386-.582-.717.188-.14.44-.21.755-.21.149 0 .273.017.373.053a.242.242 0 0 0 .07.018c.025 0 .023-.026-.008-.079-.188-.315-.43-.473-.724-.473-.186 0-.397.103-.631.308-.255.222-.383.45-.383.683 0 .232.104.41.31.534a3.47 3.47 0 0 1-.287.022H18.1a.447.447 0 0 1-.398-.203.78.78 0 0 1-.117-.444h-.22c0 .155-.04.295-.12.419a.468.468 0 0 1-.412.228h-.153a.446.446 0 0 1-.398-.203.78.78 0 0 1-.116-.444h-.22c0 .155-.04.295-.122.419a.468.468 0 0 1-.41.228c-.177 0-.294-.09-.352-.271a1.736 1.736 0 0 1-.05-.488v-.75c0-.3-.003-.498-.01-.591-.019-.258-.068-.448-.147-.572l-.473.488c.08.181.136.389.165.622.016.12.029.336.039.646.022.626.067 1.03.134 1.211.1.268.315.401.644.401h.075c.131 0 .262-.061.393-.185a.663.663 0 0 0 .22-.373c.028.14.098.266.21.378.12.12.25.18.39.18h.207c.13 0 .262-.061.393-.185a.663.663 0 0 0 .22-.373c.027.14.097.266.21.378z" fill="#fff"/>
    <path d="m17.794 16.93.357-.351-.38-.335-.331.332-.362-.317-.357.358.38.328.33-.328.363.312zM20.933 16.485c0-.405-.023-.715-.067-.932l-.613.523c.153.467.23 1.145.23 2.032l.002.955.262-.386c.124-.794.186-1.525.186-2.192z" fill="#fff"/>
    <path fill-rule="evenodd" clip-rule="evenodd" d="M26.33 18.925h.132c.242 0 .448-.17.62-.508.135.339.32.508.555.508.32 0 .527-.17.62-.51.022.135.08.251.176.35.1.107.215.16.347.16a.626.626 0 0 0 .365-.13c.114-.08.2-.178.258-.293.065-.158.11-.278.137-.36.059-.178.088-.3.088-.363 0-.11-.034-.246-.1-.41a1.044 1.044 0 0 0-.18-.317l-.385.505c.213.308.32.485.32.53-.119.102-.277.153-.475.153-.269 0-.403-.205-.403-.615h-.225c0 .145-.03.271-.093.38-.09.158-.236.237-.44.237-.306 0-.46-.206-.46-.617h-.222a.83.83 0 0 1-.083.367c-.08.165-.204.248-.372.248h-.253l.14.005h-.075c-.289 0-.433-.208-.433-.623h-.225a.76.76 0 0 1-.097.38.446.446 0 0 1-.413.243c-.162 0-.27-.068-.328-.203-.036-.087-.055-.225-.055-.415h-.225c0 .14-.028.265-.085.375a.407.407 0 0 1-.387.24c-.265 0-.398-.205-.398-.615h-.225a.747.747 0 0 1-.11.398c-.088.145-.21.217-.363.217h-.097v-.002h-.04c-.147 0-.252-.11-.315-.33a10.384 10.384 0 0 1-.115-.708c-.045-.312-.112-.532-.2-.66l-.298.445c.043.117.072.207.085.27-.38.142-.672.303-.875.485a8.246 8.246 0 0 0-.18.6c.17.235.517.353 1.043.353.096-.134.171-.299.225-.495.105.483.302.725.592.725h.133c.26 0 .458-.16.595-.478a.762.762 0 0 0 .158.303c.1.115.22.172.362.172.24 0 .429-.167.565-.502.074.336.244.505.51.505a.58.58 0 0 0 .433-.19.747.747 0 0 0 .198-.375c.025.145.089.273.192.385.114.12.24.18.38.18zm-4.252-1.378.11.555c-.066.008-.139.013-.217.013-.31 0-.515-.061-.613-.183.223-.202.463-.33.72-.385z" fill="#fff"/>
    <path d="M14.964 31.281h1.568v.457c0 .556.45 1.007 1.007 1.008h.002a.227.227 0 0 0 .227-.227v-2.344a.25.25 0 0 0-.25-.25h-3.457a.226.226 0 0 0-.225.226v.002c0 .623.505 1.128 1.128 1.128z" fill="#fff"/>
    <path d="M28.726 27.672c-.602.34-1.248-.094-1.209-1.156.657-1.628 1.325-3.625 1.611-4.501a.342.342 0 0 0-.325-.448h-1.305c-.311 0-.582.21-.66.51-.113.435-.287 1.102-.48 1.827-.426 1.59-.977 3.459-1.524 3.768-.54.305-1.113-.012-1.2-.843.723-1.667 1.438-3.886 1.729-4.819a.342.342 0 0 0-.327-.443h-1.313c-.31 0-.582.21-.66.51-.112.435-.286 1.102-.48 1.827-.425 1.59-.966 3.535-1.756 3.745-1.359.36-2.016-.514-1.99-1.65a85.12 85.12 0 0 0 1.406-3.984.342.342 0 0 0-.325-.448h-1.305c-.31 0-.582.21-.66.51-.112.435-.286 1.102-.48 1.827-.426 1.59-.977 3.459-1.524 3.768-.58.328-1.287-.14-1.316-1.415.622-1.576 1.236-3.412 1.508-4.242a.342.342 0 0 0-.325-.448H14.51c-.31 0-.582.21-.66.51-.112.435-.286 1.102-.48 1.827-.425 1.59-.977 3.459-1.523 3.768-.637.36-1.425-.237-1.305-1.808a86.552 86.552 0 0 0 1.353-3.844.342.342 0 0 0-.325-.448h-1.51c-.31 0-.581.21-.659.51-.112.435-.286 1.102-.48 1.827-.425 1.59-1.155 3.114-1.52 3.715-.575.947-1.353 1.726-2.237 2.115-1.44.635-3.388.416-3.79-.483-.942-2.098.475-4.23 1.367-5.573.338-.508.601-.904.632-1.142 0 0-.91-.216-1.19.158C.73 24.648-.156 26.917.024 28.5c.34 2.972 3.868 4.665 7.168 2.395 1.504-1.035 2.002-1.922 2.636-3.304.1-.218.203-.454.306-.702.03.601.232 1.38.601 1.794.357.4.914.487.994.488.942.015 1.711-.203 2.345-1.584.061-.134.124-.275.187-.422.068.547.262 1.166.577 1.518.356.4.914.487.993.488.942.015 1.711-.203 2.345-1.584.104-.227.211-.474.32-.733.078.612.42 1.45.804 1.805.605.562 1.415.523 1.606.513l.036-.001c.941.015 1.776-.437 2.345-1.584l.042-.088c-.003.416.157.86.393 1.184.315.433.914.487.994.488.942.015 1.711-.203 2.345-1.584.08-.174.16-.36.243-.553l-.02.063c-.166.51.016 1.153.33 1.586.315.433.915.487.994.488.942.015 1.712-.203 2.345-1.584.777-1.694 1.714-4.49 2.068-5.572a.342.342 0 0 0-.325-.448H31.39c-.31 0-.582.21-.66.51-.112.435-.286 1.102-.48 1.827-.426 1.59-.977 3.459-1.524 3.768z" fill="#fff"/>
    <path d="M13.076 29.926a.25.25 0 0 1 .25.25v.856a.25.25 0 0 1-.25.25h-2.814a1.128 1.128 0 0 1-1.129-1.13.226.226 0 0 1 .226-.226h3.717zM47.52 18.406a.714.714 0 0 1-.754.263c-.894-.149-2.559-.146-4.313.18-1.983.37-3.39 1.416-4.211 2.597 5.348-.56 4.315 3.262 3.215 4.995-1.493 2.352-3.808 2.809-5.09 2.821-.342.004-2.558-.22-3.15-2.074-.602-1.885-.068-3.72.546-5.558.548-1.636 1.141-2.866 2.333-4.816.242-.4.68-.64 1.147-.63l.061.001 1.612.035a.208.208 0 0 1 .153.345c-2.085 2.442-3.762 5.178-4.05 7.092-.278 1.84.63 3.663 2.678 3.627 2.756-.048 4.218-2.29 3.908-2.979-.667-1.482-3.53-1.37-4.875-1.215a.415.415 0 0 1-.408-.59c.536-1.124 1.205-2.125 2.09-3.02 1.403-1.417 3.506-2.192 5.108-2.703 1.217-.388 3.248-.393 4.103-.374a.385.385 0 0 1 .375.42c-.054.622-.2 1.152-.477 1.583zM7.789 21.72a.556.556 0 0 1 .067.509l-.457 1.255c-.21.575-.756.958-1.368.958h-.338a.904.904 0 0 1-.85-1.213l.267-.734a1.539 1.539 0 0 1 1.446-1.012h.778c.18 0 .35.088.455.237z" fill="#fff"/>
</svg>
