<svg width="48" height="49" viewBox="0 0 48 49" fill="none" xmlns="http://www.w3.org/2000/svg">
    <path d="M9.038 21.71c-2.13 0-4.025 1.08-5.09 2.938-1.044 1.824-1.073 4.062 0 5.881 1.039 1.763 3 2.696 5.01 2.696 6.214 0 10.247-6.317 13.514-11.433.746-1.167 1.451-2.272 2.133-3.225.382-.532.779-1.05 1.195-1.545.56-.669 1.157-1.3 1.8-1.878 2.381-2.145 5.39-3.576 9.534-3.59l.066-.001v7.014c-1.88 0-3.668.69-5.413 1.799a22.866 22.866 0 0 0-2.42 1.799c-1.838 1.544-3.515 3.259-5.193 4.974-1.792 1.832-3.585 3.665-5.574 5.29a27.44 27.44 0 0 1-1.898 1.425c-.473.323-.953.625-1.44.9-1.92 1.087-4.035 1.799-6.262 1.799a9.014 9.014 0 0 1-6.427-2.698A8.96 8.96 0 0 1 0 27.56c0-.94.144-1.846.412-2.698A9.006 9.006 0 0 1 9 18.568c2.404.006 4.684.698 6.802 1.798a25.58 25.58 0 0 1 2.798 1.706l.133.093c.038.027.084.055.135.085.055.034.116.07.18.114l.645.438.012.009-1.7 2.457c-2.552-1.853-5.727-3.559-8.967-3.559zM37.2 18.567v6.922c2.136.007 3.87 1.76 3.87 3.87 0 2.132-1.735 3.842-3.854 3.868H37.2h.006a.1.1 0 0 0-.034-.002h-.012v.003c-.236 0-.472-.015-.707-.036-3.193-.608-7.025-3.89-9.593-6.092l-.073-.062-2.215 2.213c3.87 3.41 8.984 7.274 14.38 7.302h.095a8.963 8.963 0 0 0 6.38-2.698A8.958 8.958 0 0 0 48 27.56a8.99 8.99 0 0 0-.412-2.698 9.01 9.01 0 0 0-8.541-6.295H37.2z" fill="#fff"/>
</svg>
