<svg width="48" height="49" viewBox="0 0 48 49" fill="none" xmlns="http://www.w3.org/2000/svg">
    <path fill-rule="evenodd" clip-rule="evenodd" d="M40.785 33.32A7.218 7.218 0 0 1 48 40.535a7.218 7.218 0 0 1-7.215 7.215 7.219 7.219 0 0 1-7.215-7.215 7.219 7.219 0 0 1 7.215-7.215zM20.135 7.503 12.238 47.75H0L20.135 7.503zm14.415-5.95c-2.012 10.17-5.766 29.147-8.655 43.773a6.776 6.776 0 0 1-5.193 2.424h-7.445l8.501-43.321a6.775 6.775 0 0 1 5.541-2.876h7.251zm1.02 0H48l-18.872 37.71-1.678 3.355c2.815-14.251 6.246-31.595 8.12-41.065zm-28.355 0a7.219 7.219 0 0 1 7.215 7.215 7.218 7.218 0 0 1-7.215 7.215A7.218 7.218 0 0 1 0 8.768a7.219 7.219 0 0 1 7.215-7.215z" fill="#fff"/>
</svg>
