<svg width="48" height="49" viewBox="0 0 48 49" fill="none" xmlns="http://www.w3.org/2000/svg">
    <path d="M35.084 8.446C27.187 7.268 22.61 6.726 14.63 6.553c18.544 3.142 20.544 4.877 32.725 15.44l.03.027c-4.706-6.346-8.573-10.168-12.302-13.574z" fill="#fff"/>
    <path d="M9.718 11.466c7.833-1.08 12.999-.78 20.895.398 4.596 3.959 11.916 11.838 14.7 19.119C35.103 20.098 28.277 14.61 9.718 11.466z" fill="#fff"/>
    <path d="M0 19.013c7.661-1.48 16.124-1.737 25.88-.61 8.192 8.772 12.104 16.16 14.888 23.441C30.558 30.96 17.756 22.586 0 19.013z" fill="#fff"/>
</svg>
