<svg width="48" height="49" viewBox="0 0 48 49" fill="none" xmlns="http://www.w3.org/2000/svg">
<path fill-rule="evenodd" clip-rule="evenodd" d="M24.4049 33.3757C19.5064 33.3757 15.5354 29.3946 15.5354 24.4837C15.5354 22.4209 16.2361 20.5221 17.4118 19.0135C17.7176 16.0046 19.8106 10.5527 30.9639 10.5527C46.3681 10.5527 47 21.7574 47 21.7574V45.2462C47 45.2462 46.5218 48.5527 44.1651 48.5527H19.1803L11 41.1343H37.7097V21.8945C37.7097 21.8945 35.8311 14.6474 27.3435 14.6474C24.5516 14.6474 22.5247 15.3296 21.0616 16.2451C22.0934 15.8238 23.2221 15.5917 24.4049 15.5917C29.3034 15.5917 33.2744 19.5728 33.2744 24.4837C33.2744 27.0526 32.1878 29.3671 30.4503 30.9904C29.8136 34.0696 27.1501 38.5527 17.0361 38.5527C1.63188 38.5527 1 27.3652 1 27.3652V3.85932C1 3.85932 1.47818 0.552734 3.83491 0.552734H28.8197L37 7.97113H10.2903V27.211C10.2903 27.211 12.1689 34.4581 20.6565 34.4581C23.1637 34.4581 25.0539 33.908 26.4729 33.1327C25.8094 33.2916 25.1169 33.3757 24.4049 33.3757Z" fill="white"/>
</svg>
