<svg width="48" height="49" viewBox="0 0 48 49" fill="none" xmlns="http://www.w3.org/2000/svg">
<path d="M31.2787 7.95672C31.2787 12.0348 28.0311 15.3607 24.0492 15.3607C20.0672 15.3607 16.8197 12.0348 16.8197 7.95672C16.8197 3.87868 20.0672 0.552734 24.0492 0.552734C28.0311 0.552734 31.2787 3.87868 31.2787 7.95672Z" fill="white"/>
<path d="M16.7213 17.1237C16.7213 20.1473 14.3131 22.6136 11.3608 22.6136C8.40821 22.6136 6 20.1473 6 17.1237C6 14.0999 8.40821 11.6335 11.3608 11.6335C14.3131 11.6335 16.7213 14.0999 16.7213 17.1237Z" fill="white"/>
<path d="M42 17.2244C42 20.248 39.592 22.7143 36.6395 22.7143C33.6869 22.7143 31.2787 20.248 31.2787 17.2244C31.2787 14.2006 33.6869 11.7342 36.6395 11.7342C39.592 11.7342 42 14.2006 42 17.2244Z" fill="white"/>
<path d="M24.0492 29.9673C27.0018 29.9673 29.4097 27.5009 29.4097 24.4773C29.4097 21.4535 27.0018 18.9872 24.0492 18.9872C21.0966 18.9872 18.6886 21.4535 18.6886 24.4773C18.6886 27.5009 21.0966 29.9673 24.0492 29.9673Z" fill="white"/>
<path d="M13.2295 33.5937C15.1527 33.5937 16.7213 31.9873 16.7213 30.0176C16.7213 28.048 15.1527 26.4415 13.2295 26.4415C11.3063 26.4415 9.73766 28.048 9.73766 30.0176C9.73766 31.9873 11.3063 33.5937 13.2295 33.5937Z" fill="white"/>
<path d="M38.4098 30.0176C38.4098 31.9873 36.8412 33.5937 34.9182 33.5937C32.995 33.5937 31.4264 31.9873 31.4264 30.0176C31.4264 28.048 32.995 26.4415 34.9182 26.4415C36.8412 26.4415 38.4098 28.048 38.4098 30.0176Z" fill="white"/>
<path d="M24 41.0481C25.9232 41.0481 27.4918 39.4416 27.4918 37.4719C27.4918 35.5023 25.9232 33.8958 24 33.8958C22.0768 33.8958 20.5082 35.5023 20.5082 37.4719C20.5082 39.4416 22.0768 41.0481 24 41.0481Z" fill="white"/>
<path d="M16.918 43.0122C16.918 44.0386 16.1007 44.8759 15.0985 44.8759C14.0962 44.8759 13.2787 44.0386 13.2787 43.0122C13.2787 41.9858 14.0962 41.1488 15.0985 41.1488C16.1007 41.1488 16.918 41.9858 16.918 43.0122Z" fill="white"/>
<path d="M33.1476 44.8759C34.1498 44.8759 34.9672 44.0386 34.9672 43.0122C34.9672 41.9858 34.1498 41.1488 33.1476 41.1488C32.1454 41.1488 31.3281 41.9858 31.3281 43.0122C31.3281 44.0386 32.1454 44.8759 33.1476 44.8759Z" fill="white"/>
<path d="M25.9181 46.689C25.9181 47.7154 25.1005 48.5527 24.0983 48.5527C23.0961 48.5527 22.2788 47.7154 22.2788 46.689C22.2788 45.6626 23.0961 44.8256 24.0983 44.8256C25.1005 44.8256 25.9181 45.6626 25.9181 46.689Z" fill="white"/>
</svg>
