<svg width="48" height="49" viewBox="0 0 48 49" fill="none" xmlns="http://www.w3.org/2000/svg">
    <path fill-rule="evenodd" clip-rule="evenodd" d="M6.122 42.43h16.2l3.2 6.123H0v-48h48v48H35.963l-3.2-6.123-9.748-18.706h8.192l10.67 20.366V26.66a17.908 17.908 0 0 1-3.47 8.68l-6.594-12.617H21.364l9.626 18.419c-.328.139-.661.268-.999.387l-9.828-18.806H12L22.322 42.43c-8.452-.783-15.218-7.375-16.2-15.769v15.77zm0-19.986c.965-8.25 7.519-14.804 15.77-15.769H6.121v15.769zM26.11 6.675c8.25.965 14.804 7.518 15.768 15.769V6.675H26.11zM13.65 23.725h5.907l12.958 24.828h-5.9L13.65 23.724z" fill="#fff"/>
</svg>
