<svg width="48" height="49" viewBox="0 0 48 49" fill="none" xmlns="http://www.w3.org/2000/svg">
    <path d="M12.816 31.156C-3.649 8.181 25.585-11.044 42.714 8.862 23.25-1.311 6.775 13.29 12.816 31.156z" fill="#fff"/>
    <path d="M31.52 35.119C9.961 53.374-11.44 25.657 7.012 6.978c-8.593 20.25 7.213 35.576 24.506 28.14z" fill="#fff"/>
    <path d="M34.49 16.748c18.564 21.307-8.72 43.224-27.655 25.035 20.338 8.278 35.359-7.823 27.656-25.035z" fill="#fff"/>
    <path d="M16.402 13.867c21.44-18.394 43.02 9.183 24.687 27.981 8.462-20.306-7.443-35.529-24.687-27.981z" fill="#fff"/>
    <path d="M33 24.553c0 4.957-4.043 9-9 9s-9-4.043-9-9 4.043-9 9-9 9 4.043 9 9z" fill="#fff"/>
</svg>
