<svg width="48" height="49" viewBox="0 0 48 49" fill="none" xmlns="http://www.w3.org/2000/svg">
    <path fill-rule="evenodd" clip-rule="evenodd" d="M25.9 3.153h2.824v5.5l4.99-.006 2.905 2.906h-1.74l-1.3 2.245 1.117.005.007 1.64 1.833.012-.008 2.458 1.874-.006-.02 3.475a2.435 2.435 0 0 1 1.338.798c.1.127.186.266.252.415l.023.054.014.037h.165a2.225 2.225 0 0 1 .814.213c.68.381 1.213.98 1.513 1.7.057.119.11.24.16.36l.03.076s.228.556.328.838c.105.248.187.505.246.768l-.636.2s-.337-.64-.853-.64h-3.71l-.64.986h2.222v1.63h1.429v1.836h-1.435v1.244h-2.27l-.005.814h-1.842l.009 9.253-7.822.008v3.63H25.94v2.95h-3.88v-2.941h-1.767V41.98l-7.822-.008.009-9.253h-1.843l-.006-.814H8.355V30.66H6.927v-1.854h1.428v-1.63h2.222l-.64-.986h-3.71c-.516 0-.853.64-.853.64l-.636-.2c.058-.263.14-.52.246-.768.1-.283.327-.838.327-.838l.03-.075c.05-.122.1-.243.16-.361.3-.72.834-1.319 1.514-1.7a2.166 2.166 0 0 1 .814-.213h.165l.015-.037.023-.054c.066-.149.15-.288.252-.415.065-.079.138-.151.216-.217.314-.283.697-.48 1.11-.57l-.018-3.474 1.873.006-.005-2.462 1.833-.011.007-1.641 1.117-.005-1.296-2.243h-1.74l2.9-2.907 4.99.006v-5.5H22.1v-2.6h3.8v2.6zm.99 41.658v-2.84h-1.768V43.6h-2.243v-1.628H21.11v2.839h1.764v2.942h2.25V44.81h1.765zm7.805-3.64-.001-8.9H13.306v8.9h21.389zm-3.523-1.068c.009.05.005.1-.011.148-.02.062-.047.122-.08.179a.66.66 0 0 1-.145.182.159.159 0 0 1-.093.055.258.258 0 0 1-.1-.062 9.968 9.968 0 0 0-.132-.107 1.05 1.05 0 0 1-.1-.086.111.111 0 0 1-.043-.07l.064-.136a8.44 8.44 0 0 1 .107-.22c.043-.067.085-.138.129-.213l.043-.062a.288.288 0 0 0 .043.034l.057.034c.072.053.14.113.2.179a.31.31 0 0 1 .064.144h-.003zm-5.356-.992c.322 0 .644-.03.96-.093.281-.055.557-.13.827-.224.244-.088.474-.208.686-.358.2-.138.38-.302.536-.488a75.4 75.4 0 0 0 .293-.385c.019-.024.024-.02.029-.014a.038.038 0 0 1 .007.027l-.007.076-.032.265a2.977 2.977 0 0 0-.025.358c-.006.178.024.356.089.523a.326.326 0 0 0 .325.206c.1 0 .197-.075.293-.223.113-.195.193-.408.236-.63l.018-.088a.484.484 0 0 0 .01-.083c0-.046-.011-.07-.035-.07-.024 0-.035.022-.046.063l-.032.11c-.052.142-.112.213-.18.213a.39.39 0 0 1-.221-.062.446.446 0 0 1-.157-.392v-.107c0-.083.007-.206.022-.368.016-.181.037-.361.064-.54l.15-.722.02-.106.168-.113.668-.506c.191-.124.382-.248.572-.374.165-.11.327-.222.486-.338.257-.188.45-.332.579-.43l.365-.288c.072-.059.142-.123.21-.193.087-.082.17-.167.248-.255.07-.082.135-.168.193-.258a.975.975 0 0 0 .136-.258.106.106 0 0 0 .014-.055c0 .008-.179.159-.536.454-.186.157-.375.312-.565.466-.205.162-.414.32-.63.473-.303.212-.608.422-.914.632a9.34 9.34 0 0 0-.847.678.87.87 0 0 0-.19.227 1.647 1.647 0 0 0-.087.17l-.032.063c-.06.113-.113.23-.157.35l-.1.393c-.05.181-.13.353-.236.509a1.717 1.717 0 0 1-.55.474 4.395 4.395 0 0 1-1.916.543 7.923 7.923 0 0 1-.65.02 1.387 1.387 0 0 1-.936-.205.393.393 0 0 1-.1-.237c-.007-.09-.018-.134-.032-.134-.038 0-.068.078-.09.234-.02.15-.03.302-.031.454a.581.581 0 0 0 .11.389.719.719 0 0 0 .419.182c.165.026.332.037.5.035l.1.01zM23.7 38.03v.007c.1-.098.16-.158.178-.18a1.05 1.05 0 0 0 .179-.284c.058-.145.1-.295.125-.448.03-.142.047-.286.053-.431v-.378c0-.132.008-.266.025-.4 0-.125.007-.2.007-.234v-.017a.946.946 0 0 0 .056-.034l.21-.144.512-.346c.2-.129.397-.259.592-.39.17-.114.337-.232.5-.354l.6-.452c.178-.138.305-.238.38-.3.075-.062.149-.131.222-.206.09-.088.177-.178.26-.272.076-.088.145-.182.208-.28a1.14 1.14 0 0 0 .15-.28.13.13 0 0 0 .017-.061c0 .009-.187.17-.561.48a35.03 35.03 0 0 1-.59.495c-.214.172-.432.338-.655.5-.316.222-.632.442-.95.66a7.167 7.167 0 0 0-.7.53.954.954 0 0 0-.174.2c-.048.074-.09.152-.127.233l-.012.028v.006l-.242.56a.502.502 0 0 0-.036.178 4.57 4.57 0 0 0-.007.27l.007.449a1.04 1.04 0 0 1-.071.428.664.664 0 0 1-.082.13.323.323 0 0 1-.082.077l-.043.02a.21.21 0 0 1-.1-.013 1.732 1.732 0 0 1-.072.1.31.31 0 0 1-.15.107.072.072 0 0 1-.086-.013 2.05 2.05 0 0 0-.093.094.255.255 0 0 1-.172.08c-.065 0-.13-.005-.193-.014-.105.071-.208.142-.308.214a.506.506 0 0 1-.286.08.466.466 0 0 1-.43-.207.643.643 0 0 1-.077-.341c0-.054 0-.14.014-.261.012-.144.029-.286.05-.428l.122-.816.029-.174a.316.316 0 0 0 .007-.107l-.03.013c-.042.084-.099.209-.17.374a4.77 4.77 0 0 0-.114.274c-.034.218-.076.534-.13.946-.052.412-.078.645-.078.7a1.594 1.594 0 0 0 .049.355c.05.207.237.355.45.354a.57.57 0 0 0 .473-.294c.133-.196.24-.294.322-.294l.1.01a.313.313 0 0 0 .082 0 .43.43 0 0 0 .139-.087c.04-.036.084-.07.129-.1a.241.241 0 0 1 .1-.03.193.193 0 0 0 .086-.027.794.794 0 0 1 .179-.131c.026-.011.08-.037.16-.077l.044-.034.005-.012zm-5.23-.778a1.733 1.733 0 0 1-.035.275c-.024.128-.048.24-.072.337l-.086.337a2.115 2.115 0 0 1-.232.495.51.51 0 0 1-.111.127 1.25 1.25 0 0 1-.193.113l-.257.1c-.055.017-.111.03-.168.04a1.137 1.137 0 0 1-.168.029c-.024 0-.038-.008-.043-.024a.072.072 0 0 1 .014-.058.73.73 0 0 1 .18-.171c.098-.074.194-.145.29-.213.11-.097.19-.173.243-.227.082-.086.154-.18.214-.282a.893.893 0 0 0 .06-.141c.027-.071.069-.187.126-.347l.086-.248c.01-.037.024-.082.043-.134.019-.052.043-.08.072-.08a.15.15 0 0 1 .036.07l.002.002zm-.685-1.915a.05.05 0 0 0-.007-.045.146.146 0 0 0-.05-.04.813.813 0 0 0-.25.1c-.092.047-.18.1-.265.16-.09.062-.165.117-.222.165-.13.114-.252.238-.365.369-.152.17-.28.361-.38.567-.078.147-.124.31-.135.476a.3.3 0 0 0 .057.194c.044.052.1.092.164.117a.544.544 0 0 0 .1.035c.029.006.076.02.143.039.066.019.1.048.1.087a.434.434 0 0 1-.075.22 1.372 1.372 0 0 1-.218.262 1.419 1.419 0 0 1-.95.366.946.946 0 0 1-.575-.152.487.487 0 0 1-.2-.411c.024-.257.094-.507.207-.74l.086-.18c.057-.121.1-.207.129-.26.052-.1.087-.17.1-.21.013-.041.039-.094.068-.16a.147.147 0 0 0 .014-.07c0-.04-.017-.058-.05-.058-.014 0-.032.017-.054.052l-.061.1-.164.318-.207.408c-.087.17-.16.345-.222.525a1.987 1.987 0 0 0-.115.674c0 .097.015.194.043.288a.83.83 0 0 0 .15.288.783.783 0 0 0 .665.272c.243.005.483-.058.693-.181.106-.062.204-.136.293-.22.085-.08.164-.167.236-.26.14-.2.25-.422.322-.656.075-.216.116-.443.122-.671a.311.311 0 0 0-.114-.285.283.283 0 0 0-.075-.04l-.09-.031-.128-.06a.175.175 0 0 1-.05-.11.388.388 0 0 1 .1-.168c.086-.104.182-.197.289-.28.088-.078.186-.143.293-.193a.601.601 0 0 1 .229-.065c.016 0 .032.006.046.016l.054.036c.029 0 .062-.026.1-.078.01-.013.037-.064.082-.152.037-.068.07-.137.1-.207.019-.05.033-.1.043-.152h-.006zm2.985 2.778-.1.254a1.488 1.488 0 0 1-.154.258.688.688 0 0 1-.146.158c-.068.038-.14.07-.214.093l-.15.055c-.077.024-.153.049-.23.076a.99.99 0 0 1-.228.048l-.03-.014c0-.032.087-.101.258-.206l.279-.192a1.778 1.778 0 0 0 .344-.293.576.576 0 0 0 .132-.213c0-.014.003-.028.007-.041l-.186.014a.3.3 0 0 1-.214-.08.193.193 0 0 1-.072-.174.594.594 0 0 1 .036-.131 3.54 3.54 0 0 1 .129-.275c.037-.077.08-.15.129-.22.062-.083.122-.124.179-.124a.33.33 0 0 1 .25.117.4.4 0 0 1 .107.282c0 .055-.005.11-.014.165l-.025.144a2.193 2.193 0 0 1-.032.148.84.84 0 0 1-.05.148l-.005.003zm-1.077-.917a1.751 1.751 0 0 1-.036.275c-.024.128-.048.24-.072.337l-.086.342a2.115 2.115 0 0 1-.232.495.526.526 0 0 1-.111.127c-.061.043-.126.08-.193.113l-.257.1c-.055.017-.111.03-.168.04a1.137 1.137 0 0 1-.168.029c-.024 0-.038-.008-.043-.024a.072.072 0 0 1 .014-.058.723.723 0 0 1 .182-.172c.098-.074.194-.145.29-.213.11-.096.19-.172.243-.227a1.54 1.54 0 0 0 .214-.282.903.903 0 0 0 .06-.141c.027-.072.069-.187.126-.347l.086-.248c.01-.037.024-.081.043-.134.019-.053.043-.08.072-.08.017.02.03.042.036.068zm11.07.544c0-.055 0-.144.014-.268.012-.148.029-.294.05-.44l.122-.84.029-.178a.323.323 0 0 0 .007-.11l-.03.014c-.042.087-.1.215-.171.385a3.9 3.9 0 0 0-.114.282 45.047 45.047 0 0 0-.208 1.689c-.006.178.024.356.089.523a.326.326 0 0 0 .325.206c.1 0 .198-.075.293-.223.113-.195.193-.408.236-.63l.018-.088a.484.484 0 0 0 .01-.083c0-.046-.011-.07-.035-.07-.024 0-.034.022-.046.063l-.032.11c-.053.142-.113.213-.18.213a.39.39 0 0 1-.221-.062.446.446 0 0 1-.157-.392v-.101zM18.8 35.696c.009.05.005.1-.011.148-.021.062-.048.122-.08.179a.66.66 0 0 1-.145.182.158.158 0 0 1-.093.055.255.255 0 0 1-.1-.062 3.08 3.08 0 0 0-.136-.107 1.035 1.035 0 0 1-.1-.086.111.111 0 0 1-.043-.07c.029-.059.05-.104.064-.136.048-.1.083-.174.107-.22.043-.07.086-.14.129-.213l.043-.062a.295.295 0 0 0 .043.035l.057.034c.072.053.14.113.2.179a.31.31 0 0 1 .065.144zm3.747-.914a.311.311 0 0 0-.064-.144 1.354 1.354 0 0 0-.2-.18l-.057-.033a.282.282 0 0 1-.043-.034l-.043.062a7.137 7.137 0 0 1-.13.213c-.023.046-.059.119-.106.22l-.064.137c.005.027.02.052.043.069.031.03.065.06.1.086.046.034.091.069.136.106a.25.25 0 0 0 .1.062.157.157 0 0 0 .093-.055.665.665 0 0 0 .147-.182c.032-.057.058-.117.079-.18a.29.29 0 0 0 .01-.147h-.001zm.736-.041c.009.05.005.1-.011.148-.021.062-.047.122-.08.179a.654.654 0 0 1-.145.182.157.157 0 0 1-.093.055.258.258 0 0 1-.1-.062 3.08 3.08 0 0 0-.136-.107 1.035 1.035 0 0 1-.1-.086.112.112 0 0 1-.043-.07c.029-.058.05-.105.064-.136.035-.074.07-.148.107-.22a1.65 1.65 0 0 1 .129-.213l.043-.062a.261.261 0 0 0 .043.034l.057.035c.072.053.14.113.2.179.034.041.056.09.066.144h-.001zm6.567-.051c.009.05.005.1-.011.148-.02.062-.047.122-.08.179a.666.666 0 0 1-.145.182.158.158 0 0 1-.093.055.257.257 0 0 1-.1-.062 3.08 3.08 0 0 0-.136-.107.986.986 0 0 1-.1-.086.111.111 0 0 1-.043-.07c.029-.059.05-.104.064-.136.048-.1.083-.174.107-.22.043-.07.086-.14.129-.213l.043-.062a.295.295 0 0 0 .043.035l.057.034c.072.053.14.112.2.179.034.041.056.09.065.144zm-6.94-.8a.31.31 0 0 0-.064-.144 1.312 1.312 0 0 0-.2-.18l-.057-.033a.261.261 0 0 1-.043-.034l-.043.062a9.975 9.975 0 0 1-.13.213 5.72 5.72 0 0 0-.106.22 3.785 3.785 0 0 1-.065.137c.005.027.02.052.043.069.029.028.063.057.1.09l.136.107a.256.256 0 0 0 .1.058.158.158 0 0 0 .093-.055.66.66 0 0 0 .146-.182c.032-.057.058-.117.079-.18a.292.292 0 0 0 .01-.147l.002-.001zm-3.35-2.41v-6.5l-2.8-2.8-6.23.004c-1.541 0-1.871.569-1.883 1.483-1.14-.575-2.048.288-2.6 1.725h6.925l3.959 6.088h2.63zm4.04-.004v-7.417l-2.785-2.026V11.602l-1.271-2.2-4.865-.008-1.1 1.1h1.708l1.87 3.239v7.71l3.2 3.2v6.833H23.6zm-7.624 0-3.44-5.288H10.91l3.43 5.288h1.637zm18.442-20.973-1.1-1.1h-4.862l-1.271 2.2v10.43L24.4 24.06v7.417h3.243l-.003-6.823 3.2-3.2v-7.711l1.87-3.24h1.708zm-3.35 20.973 3.96-6.088 6.926-.004c-.55-1.437-1.457-2.303-2.6-1.725-.011-.914-.342-1.483-1.884-1.483h-6.227l-2.8 2.8v6.5h2.626zm2.592 0 3.436-5.288h-1.63l-3.438 5.288h1.632zm3.807-1.431-.001-.91h-1.333l-.591.91h1.925zm-25.01 0-.59-.91h-1.333v.91h1.924zM25.08 3.953v-2.6h-2.158v2.6H20.1l-.01 4.8 1.525 2.636v10.236l1.985 1.444v-2.374l-.712-.518V5.389h2.224v14.789l-.712.518v2.374l1.985-1.44V11.393l1.524-2.64-.01-4.8h-2.82zm7.363 17.427v-7.242l1.639-2.84h-.907l-1.532 2.655v7.427h.8zm-18.5 0h.8v-2.385h-.8v2.385zm.888-10.081h-.907l1.639 2.839v7.242h.8v-7.427l-1.532-2.654zm18.432 10.08h.8v-2.384h-.8v2.385z" fill="#fff"/>
</svg>
