<svg width="48" height="49" viewBox="0 0 48 49" fill="none" xmlns="http://www.w3.org/2000/svg">
    <path fill-rule="evenodd" clip-rule="evenodd" d="M37.174 38.258a17.788 17.788 0 0 1-12.328 4.968A17.814 17.814 0 0 1 8.252 31.834a.424.424 0 0 0-.307-.267.424.424 0 0 0-.394.102l-7.409 6.76a.424.424 0 0 0-.142.308.424.424 0 0 0 .121.315 25.224 25.224 0 0 0 18.307 7.876A25.229 25.229 0 0 0 38.12 37.46a.062.062 0 1 0-.096-.08c-.272.296-.556.589-.85.878zm-9.426-23.493c7.585 2.193 12.844 9.187 12.844 17.083 0 4.067-1.396 8.014-3.953 11.177a.424.424 0 0 0-.079.4c.04.14.148.249.286.29l9.56 3.034a.436.436 0 0 0 .55-.292A25.221 25.221 0 0 0 48 39.277c0-12.408-9.156-23.065-21.422-24.933a.062.062 0 0 0-.073.061c0 .03.02.055.05.062.4.085.798.184 1.193.298zm-3.483 5.791c4.79-.78 9.312 2.474 10.093 7.264.781 4.79-2.474 9.313-7.263 10.094-4.79.78-9.313-2.474-10.094-7.264-.781-4.79 2.473-9.313 7.264-10.094zm-12.148 14.12a17.782 17.782 0 0 1-.519-4.265c0-9.754 8.027-17.781 17.782-17.781.924 0 1.847.072 2.76.215a.442.442 0 0 0 .495-.525l-2.152-9.794a.423.423 0 0 0-.195-.275.424.424 0 0 0-.334-.055C18.646 4.898 10.603 15.09 10.603 26.716c0 3.141.587 6.255 1.73 9.18.012.03.044.045.074.038a.062.062 0 0 0 .043-.08 18.185 18.185 0 0 1-.333-1.177z" fill="#fff"/>
</svg>
