<svg width="48" height="49" viewBox="0 0 48 49" fill="none" xmlns="http://www.w3.org/2000/svg">
    <path fill-rule="evenodd" clip-rule="evenodd" d="M20.278 4.303a20.219 20.219 0 0 1 13.774 5.39c-5.711 5.57-8.608 11.935-9.217 13.62-.091.278-.353.303-.506.042-2.168-5.22-7.785-9.145-13.176-9.001-.234.008-.33.258-.162.437 4.137 5.919 1.85 18.757 13.208 24.411.453.232.673.03.7-.287 1.605-13.858 11.647-28.153 22.594-31.737.065-.025.272-.054.41.09a.385.385 0 0 1 .056.43c-2.762 4.464-4.145 12.648-6.577 19.905-3.283 9.802-10.18 17.2-21.104 17.2C9.081 44.803 0 35.735 0 24.553s9.08-20.25 20.278-20.25z" fill="#fff"/>
</svg>
