<svg width="48" height="49" viewBox="0 0 48 49" fill="none" xmlns="http://www.w3.org/2000/svg">
    <path fill-rule="evenodd" clip-rule="evenodd" d="M25.671 47.86a2.363 2.363 0 0 1-3.342 0l-4.338-4.337h4.506c.931 0 1.824-.37 2.483-1.03l10.99-10.989.048 6.01L25.671 47.86zM9.525 36.906a3.506 3.506 0 0 0 2.479 1.027h15.544l-4.214 4.283H6.337v-8.498l3.188 3.188zm32.138 5.31h-8.498l3.188-3.188a3.506 3.506 0 0 0 1.026-2.478V21.005l4.284 4.214v16.996zM.693 26.224a2.363 2.363 0 0 1 0-3.342c1.777-1.779 4.337-4.338 4.337-4.338v4.505c0 .932.37 1.825 1.029 2.484l10.99 10.99-6.01.048L.692 26.224zM24 13.536c6.08 0 11.017 4.936 11.017 11.017 0 6.08-4.937 11.016-11.017 11.016-6.08 0-11.017-4.936-11.017-11.016S17.92 13.536 24 13.536zm23.308 9.346a2.363 2.363 0 0 1 0 3.342l-4.338 4.338v-4.506c0-.931-.37-1.825-1.029-2.483l-10.99-10.99 6.01-.049 10.347 10.348zM6.338 6.89h8.497l-3.188 3.188a3.506 3.506 0 0 0-1.026 2.479V28.1l-4.284-4.215V6.89zm23.671-1.307h-4.506c-.931 0-1.824.37-2.483 1.029l-10.99 10.99-.048-6.01L22.329 1.245a2.363 2.363 0 0 1 3.342 0l4.338 4.338zM41.663 6.89v8.498L38.475 12.2a3.506 3.506 0 0 0-2.479-1.027H20.452l4.214-4.283h16.997z" fill="#fff"/>
</svg>
