<svg width="48" height="49" viewBox="0 0 48 49" fill="none" xmlns="http://www.w3.org/2000/svg">
    <path fill-rule="evenodd" clip-rule="evenodd" d="M19.564 46.702a.443.443 0 0 1-.1.057.764.764 0 0 1-.153.051 1.693 1.693 0 0 1-.198.039 3.215 3.215 0 0 1-.353.034 10.137 10.137 0 0 1-.754.006 18.104 18.104 0 0 1-1.243-.087l-.017-.002-.017-.002.051.018.212.075a9.092 9.092 0 0 1 .37.14 2.138 2.138 0 0 1 .209.106.78.78 0 0 1 .13.104.41.41 0 0 1 .04.052.226.226 0 0 1 .03.114.273.273 0 0 1-.008.067.39.39 0 0 1-.04.098.949.949 0 0 1-.113.148 2.278 2.278 0 0 1-.212.189l-.005.003.802.088.288.032.05.005a6.378 6.378 0 0 0 .333.023c.27.011.541.002.81-.03a4.21 4.21 0 0 0 .691-.146 3.087 3.087 0 0 0 .437-.174 1.653 1.653 0 0 0 .14-.08 25.583 25.583 0 0 1-.556-.292 7.587 7.587 0 0 1-.318-.183 1.424 1.424 0 0 1-.208-.16 6.437 6.437 0 0 1-.297-.292zm7.372.912a.464.464 0 0 0-.061.064.1.1 0 0 0-.013.025.023.023 0 0 0-.002.013.493.493 0 0 0 .008.023.087.087 0 0 0 .013.018.312.312 0 0 0 .068.05.97.97 0 0 0 .148.059 1.586 1.586 0 0 0 .258.055 3.596 3.596 0 0 0 .315.036 9.985 9.985 0 0 0 .71.022 15.228 15.228 0 0 0 .934-.033l.184-.012.137-.009.027-.002a2.644 2.644 0 0 1 .303.002c.104.006.208.017.312.034a3.917 3.917 0 0 1 .444.096l.008.003-.028-.031-.029-.032a4.859 4.859 0 0 1-.2-.245 2.152 2.152 0 0 1-.145-.223.959.959 0 0 1-.047-.11.316.316 0 0 1-.01-.175.208.208 0 0 1 .038-.07.33.33 0 0 1 .066-.064.509.509 0 0 1 .113-.06 1.3 1.3 0 0 1 .217-.056c.052-.01.103-.015.154-.02.072-.007.145-.011.217-.014h.005a6.886 6.886 0 0 0-.393-.033 4.753 4.753 0 0 0-.604.006c-.196.012-.39.03-.585.053-.166.02-.332.042-.498.064l-.083.011-.138.017a3.643 3.643 0 0 1-.246.019.828.828 0 0 1-.095-.005l-.018-.002a.244.244 0 0 1-.109-.043 2.047 2.047 0 0 1-.376.309 1.818 1.818 0 0 1-.38.179 1.677 1.677 0 0 1-.62.08zm-1.742-1.612a1.723 1.723 0 0 1-.149.209l.005.01a1.434 1.434 0 0 0 .16.305.903.903 0 0 0 .29.269.67.67 0 0 0 .219.074 6.702 6.702 0 0 0 .359.059c.093.013.187.024.28.035l.27.032.186.022a10.369 10.369 0 0 1 .27.037 2.87 2.87 0 0 1 .222.045.731.731 0 0 1 .075.025.22.22 0 0 1 .089.062.14.14 0 0 1 .011.019l.012.042-.007.042-.023.036-.037.024-.021.008-.021.009-.013.005a1.462 1.462 0 0 0 .48-.208 2.025 2.025 0 0 0 .596-.631 2.64 2.64 0 0 0 .09-.157l.008-.016a.061.061 0 0 0-.006-.019.075.075 0 0 0-.034-.028.189.189 0 0 0-.01-.004l-.012-.005a.935.935 0 0 0-.245-.032h-.11c-.08.001-.16.005-.238.008l-.195.01-.058.003-.224.008a5.246 5.246 0 0 1-.467-.01l-.09-.008a10.116 10.116 0 0 1-.533-.065 13.49 13.49 0 0 1-1.13-.215zm-2.39-.31a12.876 12.876 0 0 1-1.858.294 5.175 5.175 0 0 1-.472-.003c-.125-.005-.249-.014-.373-.021l-.08-.005a7.38 7.38 0 0 0-.227-.008 2.001 2.001 0 0 0-.192.009.64.64 0 0 0-.108.025.197.197 0 0 0-.022.01.085.085 0 0 0-.032.03.068.068 0 0 0-.005.01.091.091 0 0 0-.005.025v.03a.449.449 0 0 0 .028.099c.017.04.038.078.06.115a1.346 1.346 0 0 0 .122.167h.001c.006.01.014.02.018.03l.002.005a6.521 6.521 0 0 0 .244.25 3.105 3.105 0 0 0 .212.184l.07.047.087.052.155.089-.003-.029.01-.04a.13.13 0 0 1 .02-.029.222.222 0 0 1 .096-.06.683.683 0 0 1 .109-.034 2.612 2.612 0 0 1 .25-.05 8.438 8.438 0 0 1 .346-.053l.26-.037a36.54 36.54 0 0 0 .338-.051 5.993 5.993 0 0 0 .304-.06 1.36 1.36 0 0 0 .11-.033.906.906 0 0 0 .182-.094 1.274 1.274 0 0 0 .42-.48c.02-.04.04-.08.057-.121l-.008-.015a3.007 3.007 0 0 1-.116-.249zm2.406-.2c.081-.214.152-.522.162-.571v-.001a5.541 5.541 0 0 0-.297-.235 8.42 8.42 0 0 0-.533-.33 1.275 1.275 0 0 0-.223-.084h-.004a.071.071 0 0 0-.026 0 .162.162 0 0 0-.046.019.477.477 0 0 0-.122.092.953.953 0 0 0-.075.08l-.007.01a.104.104 0 0 1-.129.015l-.012-.01a.798.798 0 0 0-.015-.011l-.018-.014a.894.894 0 0 0-.165-.098.489.489 0 0 0-.133-.04.365.365 0 0 0-.213.037.58.58 0 0 0-.07.041 8.364 8.364 0 0 0-.341.325 2.266 2.266 0 0 1-.178.165l-.005.004.008.037a5.834 5.834 0 0 0 .193.606s.258.512.295.56a.854.854 0 0 0 .087.097.506.506 0 0 0 .124.086.199.199 0 0 0 .02.008.1.1 0 0 0 .025.004.14.14 0 0 0 .046-.007.507.507 0 0 0 .054-.02l.058-.023a1.557 1.557 0 0 1 .16-.055.955.955 0 0 1 .272-.026c.028.003.056.01.084.017.04.01.079.023.117.037l.08.03a2.554 2.554 0 0 0 .142.044.54.54 0 0 0 .078.01.133.133 0 0 0 .055-.009.08.08 0 0 0 .01-.005l.014-.009a.936.936 0 0 0 .164-.142 2.207 2.207 0 0 0 .364-.633zm.278-.18a163.03 163.03 0 0 0 1.63.142 35.361 35.361 0 0 0 .588.041l.06.004.018.001a.922.922 0 0 1 .079.01 1.559 1.559 0 0 1 .342.107l.118.047c.057.023.113.044.17.062a.978.978 0 0 0 .196.041.974.974 0 0 0 .15.002c.12-.005.237-.02.355-.037l.165-.024a11.251 11.251 0 0 1 .428-.051 5.607 5.607 0 0 1 .49-.022h.03l.088.002h.01c.014 0 .026.001.039.004a.361.361 0 0 1 .137.06.763.763 0 0 1 .049.032l.039.027a.523.523 0 0 0 .089.048h.01c.02 0 .04 0 .06-.004a.149.149 0 0 0 .076-.037l.019-.016a.537.537 0 0 1 .038-.027.244.244 0 0 1 .139-.036.458.458 0 0 1 .148.036c.03.014.06.03.09.047l.06.036.026.015a.92.92 0 0 0 .069.035.387.387 0 0 0 .273.031.386.386 0 0 0 .079-.025.283.283 0 0 0 .12-.101c.017-.024.032-.05.047-.075l.01-.015a.354.354 0 0 1 .062-.074l.015-.011a1.133 1.133 0 0 1 .113-.074l.074-.044a.96.96 0 0 0 .224-.175.31.31 0 0 0 .018-.025.137.137 0 0 0 .015-.033.418.418 0 0 0 .011-.13 7.527 7.527 0 0 0-.001-.072v-.052a.427.427 0 0 1 .014-.09.256.256 0 0 1 .157-.18.246.246 0 0 1 .084-.018.426.426 0 0 1 .194.038 1.262 1.262 0 0 1 .103.045l.086.041.03.014a1.223 1.223 0 0 0 .127.05.325.325 0 0 0 .069.012.099.099 0 0 0 .054-.016.344.344 0 0 0 .063-.044 1.895 1.895 0 0 0 .132-.139c.025-.027.048-.056.072-.084.052-.061.105-.122.166-.175a.53.53 0 0 1 .383-.15c.026 0 .051 0 .077.002l.07.003a.609.609 0 0 0 .088-.003.081.081 0 0 0 .016-.004.04.04 0 0 0 .008-.005l.005-.004.007-.007a.276.276 0 0 0 .08-.228.166.166 0 0 0-.014-.046.084.084 0 0 0-.016-.024.033.033 0 0 0-.012-.008.028.028 0 0 0-.01-.001l-.025.001a2.828 2.828 0 0 1-.424-.01 2.51 2.51 0 0 1-.898-.265.251.251 0 0 1 .007-.005l-.007.005-.016.012c-.025.017-.05.034-.077.05a.561.561 0 0 1-.105.048.447.447 0 0 1-.26.008 1.694 1.694 0 0 1-.211-.075l-.132-.06a1.278 1.278 0 0 0-.205-.076.313.313 0 0 0-.044-.006.161.161 0 0 0-.046.002.091.091 0 0 0-.036.016.138.138 0 0 0-.024.022.181.181 0 0 0-.04.097.435.435 0 0 0-.007.056.874.874 0 0 0 0 .114l.004.076V44a2.157 2.157 0 0 1 0 .072.492.492 0 0 1-.057.224.295.295 0 0 1-.042.053.693.693 0 0 1-.15.12.953.953 0 0 1-.293.119.83.83 0 0 1-.307.013.667.667 0 0 1-.176-.052.243.243 0 0 1-.073-.055.455.455 0 0 1-.1-.175 1.892 1.892 0 0 1-.015-.042l-.02-.059a1.963 1.963 0 0 0-.025-.067.33.33 0 0 0-.018-.033 1.427 1.427 0 0 0-.292.074 7.273 7.273 0 0 0-.396.156l-.324.143-.259.116c-.208.093-.417.185-.63.27a7.294 7.294 0 0 1-.569.203l-.01.004-.028.004h-.021l-.045.002a27.116 27.116 0 0 0-.625.027 96.219 96.219 0 0 0-2.061.141l-.016.054zM14.722 42.38a3.385 3.385 0 0 0-.302-.023 2.27 2.27 0 0 0-.455.033 1.976 1.976 0 0 0-.606.214 2.654 2.654 0 0 0-.392.262 3.753 3.753 0 0 0-.158.135h-.002a7.174 7.174 0 0 1 .032-.003 1.03 1.03 0 0 1 .157-.007.565.565 0 0 1 .162.032l.026.011a2.98 2.98 0 0 1 .315.175c.09.054.178.11.266.165.099.063.197.127.295.192l.291.19c.28.182.56.363.846.535.177.107.356.211.539.31.187.102.378.198.573.286a5.74 5.74 0 0 0 .514.2 4.578 4.578 0 0 0 .533.132c.136.025.273.045.41.062.184.022.369.038.554.05.218.013.436.02.654.023.247.003.494 0 .74-.007a29.14 29.14 0 0 0 2.499-.192 13.343 13.343 0 0 1-.316-.11l-.015-.003a5.418 5.418 0 0 1-.056-.01l-.13-.02a45.637 45.637 0 0 1-1.594-.27 26.98 26.98 0 0 1-1.153-.244 17.856 17.856 0 0 1-1.065-.284c-.317-.096-.63-.203-.939-.324a8.999 8.999 0 0 1-.845-.388 5.397 5.397 0 0 1-.885-.581 4.25 4.25 0 0 1-.3-.272 1.514 1.514 0 0 1-.194-.269zm7.87 2.686-.008-.03a4.317 4.317 0 0 1-.041-.167v-.004c-.002-.003-.002-.007-.003-.01a.103.103 0 0 1 .038-.092l.012-.01.008-.005a1.198 1.198 0 0 0 .155-.134c.049-.047.095-.097.142-.147l.026-.027.023-.023a3.376 3.376 0 0 1-.108-.092 5.375 5.375 0 0 1-.425-.433c-.052-.058-.212-.24-.213-.243l-.067-.076-.051-.06a6.623 6.623 0 0 0-.398-.425 4.867 4.867 0 0 0-.436-.377l-.007-.005-.011-.013a.103.103 0 0 1 .062-.165c.008-.002.01-.001.017-.002h.009l.017.003a.1.1 0 0 1 .023.01l.015.008a5.107 5.107 0 0 1 .222.18c.093.08.183.165.27.253a7.4 7.4 0 0 1 .423.457l.05.056.001-.001.05-.028.13-.075.036-.021c.137-.078.275-.154.418-.22a2.3 2.3 0 0 1 .172-.07 1.344 1.344 0 0 1 .222-.059l.042-.005a2.64 2.64 0 0 1 .317-.019h.026a3.417 3.417 0 0 1 .27.013c.163.015.325.042.485.08a3.852 3.852 0 0 1 .945.361l.009.005a.868.868 0 0 1 .064-.043 1.25 1.25 0 0 1 .1-.055c.042-.022.085-.04.129-.06l.074-.032.039-.017a2.86 2.86 0 0 0 .296-.156c.161-.1.31-.217.452-.342l.014-.013.007-.005.014-.01a.105.105 0 0 1 .032-.01l.017-.001h.009l.017.004a.106.106 0 0 1 .055.037.104.104 0 0 1-.002.127l-.012.012-.03.026a3.363 3.363 0 0 1-.538.394c-.064.037-.13.07-.197.102-.064.03-.128.057-.193.086l-.027.012a1.294 1.294 0 0 0-.179.097 3.73 3.73 0 0 0-.1.089 2.092 2.092 0 0 0-.236.33 4.682 4.682 0 0 0-.21.389l-.001.002a5.078 5.078 0 0 1 .497.384l.002.002a.104.104 0 0 1 .033.097c0 .006-.002.011-.003.017v.004a1.67 1.67 0 0 0 .32-.196c.11-.083.213-.176.312-.272l.127-.125.16-.16c.057-.056.114-.113.173-.169.079-.075.159-.148.242-.217.087-.072.176-.14.27-.203.073-.05.148-.095.225-.136l.005-.03a4.226 4.226 0 0 0 .054-.537 3.848 3.848 0 0 0 0-.313 1.851 1.851 0 0 0-.017-.185.985.985 0 0 0-.045-.178.254.254 0 0 0-.026-.047.248.248 0 0 0-.05-.047.543.543 0 0 0-.176-.067 1.926 1.926 0 0 0-.391-.028c-.064 0-.128.003-.192.006-.083.004-.166.01-.25.016l-.254.02a11.99 11.99 0 0 1-.418.024 3.02 3.02 0 0 1-.316-.012 2.36 2.36 0 0 1-.61-.177l-.08-.033-.091-.038-.056-.023a5.662 5.662 0 0 0-.175-.067 1.893 1.893 0 0 0-.17-.051 1.152 1.152 0 0 0-.24-.034h-.015c-.015 0-.03 0-.045.002a1.153 1.153 0 0 0-.162.021 2.027 2.027 0 0 0-.204.053 4.375 4.375 0 0 0-.247.086l-.242.093-.064.025c-.106.04-.212.08-.32.113a2.364 2.364 0 0 1-.27.064c-.062.01-.124.014-.186.018a3.693 3.693 0 0 1-.213.004c-.094 0-.188-.004-.281-.008l-.252-.01-.093-.004a7.2 7.2 0 0 0-.246-.007 2.565 2.565 0 0 0-.265.012.796.796 0 0 0-.105.022.19.19 0 0 0-.036.015.075.075 0 0 0-.008.012.478.478 0 0 0-.028.084 2.305 2.305 0 0 0-.032.232 9.074 9.074 0 0 0-.016.397c-.003.172-.002.343-.002.515v.107c0 .124-.002.248-.009.372v.005a7.711 7.711 0 0 0 .29.156l.214.109a15.868 15.868 0 0 1 .39.205 8.37 8.37 0 0 1 1.036.68l.05.037.04.014zm9.586-1.685a.462.462 0 0 1 .11.015.909.909 0 0 1 .1.03c.045.017.09.037.134.056l.092.042.038.017a1.395 1.395 0 0 0 .183.065l.046.008a.24.24 0 0 0 .09-.01.472.472 0 0 0 .127-.07l.049-.035a.957.957 0 0 1 .059-.038l.01-.006.007-.004a.12.12 0 0 0 .049-.067.31.31 0 0 0 .016-.087.9.9 0 0 0 .005-.09l.002-.069v-.03l.008-.1a.905.905 0 0 1 .026-.14.708.708 0 0 1 .137-.262.618.618 0 0 1 .183-.148c.034-.02.07-.037.104-.055l.019-.01a.582.582 0 0 0 .07-.046.124.124 0 0 0 .042-.086.797.797 0 0 0 .004-.106l-.007-.106-.001-.033a.919.919 0 0 1 .005-.174c.008-.05.022-.1.046-.144a.534.534 0 0 1 .126-.149c.033-.028.067-.055.103-.08l.1-.07a3.553 3.553 0 0 0 .116-.088.659.659 0 0 0 .096-.101.198.198 0 0 0 .032-.094.895.895 0 0 0-.04-.356.853.853 0 0 0-.062-.144.373.373 0 0 0-.04-.058.186.186 0 0 0-.05-.04.093.093 0 0 0-.011-.004.074.074 0 0 0-.018-.003.368.368 0 0 0-.127.03 1.307 1.307 0 0 0-.168.078c-.06.03-.118.063-.177.095l-.049.026c-.047.025-.096.05-.145.071a1.012 1.012 0 0 1-.17.06l-.034.006a3.337 3.337 0 0 0-.37.114c-.078.03-.154.061-.23.094-.073.03-.146.062-.218.094a7.875 7.875 0 0 1-.337.135 1.869 1.869 0 0 1-.166.048.895.895 0 0 1-.255.007c-.05-.006-.101-.015-.152-.023a1.941 1.941 0 0 0-.095-.012.288.288 0 0 0-.064.005.12.12 0 0 0-.015.004l-.007.003-.005.003-.005.002a.016.016 0 0 0-.003.004l-.002.005-.003.005-.002.009a.608.608 0 0 0-.009.086v.085a2.823 2.823 0 0 1-.002.09.426.426 0 0 1-.05.188.25.25 0 0 1-.167.115.195.195 0 0 1-.1-.009.243.243 0 0 1-.075-.046.567.567 0 0 1-.047-.047l-.038-.043a.48.48 0 0 0-.071-.067.264.264 0 0 0-.188-.05.46.46 0 0 0-.042.004l-.013.001-.009.002-.005.001a.57.57 0 0 0-.127.072 1.072 1.072 0 0 0-.17.148.517.517 0 0 0-.058.08.535.535 0 0 0-.037.102.844.844 0 0 0-.022.142c-.004.046-.005.092-.007.138a3.013 3.013 0 0 1-.01.11.41.41 0 0 1-.016.068.26.26 0 0 1-.072.11.318.318 0 0 1-.26.084c-.037-.002-.074-.008-.11-.013l-.02-.002a.387.387 0 0 0-.187.017.416.416 0 0 0-.093.048l-.014.01a.204.204 0 0 0-.033.035.632.632 0 0 0-.06.117c-.016.04-.029.081-.041.122l-.04.138a2.17 2.17 0 0 1-.087.258 1 1 0 0 1-.106.194 1.156 1.156 0 0 1-.077.092 2.036 2.036 0 0 1-.206.2 2.465 2.465 0 0 1-.621.384 3.765 3.765 0 0 1-.241.095c-.127.047-.254.092-.381.136-.168.058-.337.114-.506.17-.26.085-.52.169-.78.251l-.007.002.184-.013a93.339 93.339 0 0 1 1.033-.065 40.224 40.224 0 0 1 .711-.031h.03l.03-.01a4.498 4.498 0 0 0 .321-.11c.112-.042.222-.086.332-.132.252-.105.5-.217.748-.328a48.04 48.04 0 0 1 .424-.185c.081-.034.163-.067.245-.097.07-.025.14-.049.212-.069a1.307 1.307 0 0 1 .205-.04h.023a.196.196 0 0 1 .077.018.199.199 0 0 1 .043.03.31.31 0 0 1 .082.127.785.785 0 0 1 .024.065l.02.058.008.024a.877.877 0 0 0 .03.073.254.254 0 0 0 .026.04.069.069 0 0 0 .034.023.568.568 0 0 0 .32.019.735.735 0 0 0 .36-.193.107.107 0 0 0 .01-.015.166.166 0 0 0 .015-.04.38.38 0 0 0 .008-.066 1.077 1.077 0 0 0 0-.084c0-.03-.002-.059-.003-.088l-.001-.029a2.132 2.132 0 0 1 0-.073.6.6 0 0 1 .045-.23.35.35 0 0 1 .142-.152.295.295 0 0 1 .153-.038h.008zm-18.18-3.654a3.768 3.768 0 0 1 .243.515 6.119 6.119 0 0 1 .204.636l.052.192.064.242a23.016 23.016 0 0 0 .114.407c.028.09.057.178.09.265.03.078.063.155.101.23.036.07.076.138.123.201a.997.997 0 0 0 .117.133 3.453 3.453 0 0 0 .266.234c.132.107.27.206.414.298.169.108.344.208.523.299.269.137.546.257.828.364.331.126.669.235 1.01.333.343.099.69.186 1.04.265a28.013 28.013 0 0 0 1.33.268l.015.002-.032-.015-.027-.014a5.752 5.752 0 0 1-.269-.147 4.984 4.984 0 0 1-.825-.61 6.66 6.66 0 0 1-.317-.303 9.735 9.735 0 0 1-.523-.584c-.168-.202-.33-.407-.493-.613l-.074-.092c-.145-.181-.291-.361-.447-.533a4.62 4.62 0 0 0-.554-.527 5.754 5.754 0 0 0-.055-.042l-.059-.043a7.364 7.364 0 0 0-1.104-.684 7.394 7.394 0 0 0-.283-.134c-.248-.11-.5-.208-.756-.3-.23-.083-.46-.161-.692-.238l-.025-.008c0 .001 0 .002.002.003zm17.435 1.418.022-.028.153-.204.025-.034a.229.229 0 0 0-.004-.006l-.029-.034-.027-.03-.01-.01a.726.726 0 0 1-.037-.047.378.378 0 0 1-.061-.126.593.593 0 0 1-.008-.118c.003-.053.01-.107.018-.16l.014-.096c.006-.041.011-.083.015-.125a1.002 1.002 0 0 0 .003-.152.312.312 0 0 0-.017-.071.101.101 0 0 0-.012-.022.067.067 0 0 0-.021-.018l-.018-.008a.324.324 0 0 0-.154-.026.282.282 0 0 0-.094.025.39.39 0 0 0-.068.04.596.596 0 0 0-.067.058 1.058 1.058 0 0 0-.076.084c-.03.037-.059.075-.087.114l-.07.097a2.62 2.62 0 0 1-.133.166.548.548 0 0 1-.152.115.428.428 0 0 1-.06.022.645.645 0 0 1-.186.03c-.055.002-.11-.001-.164-.003a2.45 2.45 0 0 0-.097.002.345.345 0 0 0-.059.01.24.24 0 0 0-.046.017.308.308 0 0 0-.078.06.667.667 0 0 0-.089.107l-.042.058-.019.025c-.02.026-.04.052-.062.076a.592.592 0 0 1-.138.113.674.674 0 0 1-.092.044c-.041.018-.082.034-.124.05l-.125.044a.592.592 0 0 0-.154.071.342.342 0 0 0-.07.064.316.316 0 0 0-.033.068.545.545 0 0 0-.026.116 3.963 3.963 0 0 0-.02.225c0 .034-.002.067-.004.1a3.5 3.5 0 0 1-.01.142 1.453 1.453 0 0 1-.033.195.332.332 0 0 1-.079.145.467.467 0 0 1-.07.062l-.087.059c-.006.004-.013.007-.019.012a.434.434 0 0 0-.18.215.5.5 0 0 0-.02.076c-.006.035-.01.07-.014.105l-.01.122-.006.099a8.573 8.573 0 0 1-.019.195 1.55 1.55 0 0 1-.02.117.838.838 0 0 1-.07.207l-.002.003-.03.033-.04.018-.007.002-.006.002a.16.16 0 0 0-.046.027.627.627 0 0 0-.082.096 1.468 1.468 0 0 0-.087.143l-.05.087-.017.03-.06.098a1.805 1.805 0 0 1-.16.214l.02-.007a13.147 13.147 0 0 0 .366-.135 3.197 3.197 0 0 0 .18-.078 2.326 2.326 0 0 0 .471-.3 1.86 1.86 0 0 0 .267-.27.663.663 0 0 0 .065-.11c.016-.034.03-.068.042-.102.015-.042.028-.085.041-.128l.039-.132.012-.041c.018-.062.038-.124.063-.183a.646.646 0 0 1 .078-.141.388.388 0 0 1 .133-.112.612.612 0 0 1 .228-.076.626.626 0 0 1 .178.005l.056.007c.02.002.042.005.063.005a.145.145 0 0 0 .037-.005.091.091 0 0 0 .025-.011.138.138 0 0 0 .021-.017l.005-.005a.03.03 0 0 0 .004-.005.06.06 0 0 0 .007-.014.378.378 0 0 0 .01-.06l.003-.051.004-.08a2.546 2.546 0 0 1 .013-.154.905.905 0 0 1 .066-.23.549.549 0 0 1 .072-.11.976.976 0 0 1 .192-.179 1.224 1.224 0 0 1 .165-.103.402.402 0 0 1 .114-.035.744.744 0 0 1 .086-.006h.015a.663.663 0 0 1 .109.012.451.451 0 0 1 .228.127l.045.047c.013.015.025.03.038.043a.486.486 0 0 0 .035.035h.001l.005-.001a.05.05 0 0 0 .012-.008.057.057 0 0 0 .012-.018.152.152 0 0 0 .011-.044.35.35 0 0 0 .003-.018l.001-.022a.965.965 0 0 0 .002-.076v-.079a.59.59 0 0 1 .015-.145l.004-.015a.271.271 0 0 1 .024-.054l.008-.012a.222.222 0 0 1 .02-.026l.002-.003.01-.01.009-.008a.202.202 0 0 1 .03-.02l.014-.009a.345.345 0 0 1 .014-.006l.006-.003.008-.011zm-11.717 2.698-.022-.062a25.197 25.197 0 0 1-.185-.548l-.119-.365c-.08-.245-.16-.488-.248-.73a12.125 12.125 0 0 0-.228-.58 5.603 5.603 0 0 0-.19-.386 3.075 3.075 0 0 0-.123-.204 1.349 1.349 0 0 0-.089-.112 2.112 2.112 0 0 0-.197-.196 3.686 3.686 0 0 0-.235-.19 6.374 6.374 0 0 0-.238-.168c-.15-.101-.304-.198-.456-.295a10.963 10.963 0 0 1-.223-.146 2.914 2.914 0 0 1-.137-.099 1.263 1.263 0 0 1-.097-.082.555.555 0 0 1-.079-.09l-.04-.061-.156-.243-.19-.3-.039-.062a9.787 9.787 0 0 0-.128-.197v.002a2.058 2.058 0 0 1 .01.265c-.001.135-.012.269-.02.402l-.002.038a2.67 2.67 0 0 0 0 .422c.007.066.018.131.035.195.017.065.04.129.07.19.037.08.094.15.143.225.035.054.096.174.17.26a8.928 8.928 0 0 1 .336.24l.067.05c.045.036.09.072.133.11.105.09.206.187.302.288.097.1.19.204.28.31.107.125.21.252.312.38l.255.32.076.095c.077.096.154.192.233.287.115.138.233.274.355.406.118.129.241.253.369.373.095.089.194.175.295.258zm11.98-2.704.01.001.084.014.03.005.072.008.042-.04.415-.415.112-.112c.166-.165.332-.328.502-.488a10.449 10.449 0 0 1 .428-.377 3.736 3.736 0 0 1 .295-.215c.04-.025.082-.048.125-.069a.71.71 0 0 1 .13-.047h.003l.026-.024.031-.027a9.86 9.86 0 0 1 .352-.292l.263-.213a26.566 26.566 0 0 0 .51-.426c.068-.059.135-.119.2-.181a2.67 2.67 0 0 0 .163-.17h.001l-.008-.018-.008-.017a1.146 1.146 0 0 1-.09-.403.89.89 0 0 1 .029-.239.448.448 0 0 1 .118-.2.345.345 0 0 1 .077-.05.47.47 0 0 1 .099-.024c.042-.006.085-.008.129-.008.055 0 .11.002.165.005.072.005.143.01.215.017l.185.018a5.11 5.11 0 0 0 .207.013l.03-.002a.845.845 0 0 0 .125-.018.286.286 0 0 0 .114-.058.257.257 0 0 0 .05-.069.59.59 0 0 0 .036-.082 1.276 1.276 0 0 0 .052-.211c.005-.039.008-.077.01-.116l.005-.077.001-.028a3.224 3.224 0 0 1 .02-.19l.008-.05.004-.03c.013-.102.023-.203.033-.304l.02-.222a6.793 6.793 0 0 1 .04-.351 1.241 1.241 0 0 1 .04-.157.298.298 0 0 1 .025-.052.18.18 0 0 1 .062-.06.8.8 0 0 1 .26-.098c.057-.012.115-.02.173-.028a1.795 1.795 0 0 0 .114-.023.321.321 0 0 0 .016-.005l.011-.004a.177.177 0 0 0 .028-.014.08.08 0 0 0 .02-.018.065.065 0 0 0 .008-.013.094.094 0 0 0 .006-.015l.003-.014.004-.023a3.307 3.307 0 0 0 .046-.368A4.921 4.921 0 0 0 37.99 34a2.275 2.275 0 0 0-.014-.2.867.867 0 0 0-.028-.129.153.153 0 0 0-.015-.032.51.51 0 0 0-.082-.008h-.009a.462.462 0 0 0-.09.01.392.392 0 0 0-.073.025.615.615 0 0 0-.191.145 1.483 1.483 0 0 0-.074.08l-.061.071a1.472 1.472 0 0 1-.102.108.528.528 0 0 1-.145.096.414.414 0 0 1-.05.016 2.172 2.172 0 0 1-.355.076l-.09.01-.03.005a1.05 1.05 0 0 0-.088.015.52.52 0 0 0-.22.111l-.03.026a2.237 2.237 0 0 1-.152.112c-.042.028-.085.053-.128.08l-.026.015a1.752 1.752 0 0 0-.266.205.597.597 0 0 0-.095.124.55.55 0 0 0-.016.032l-.017.036a.3.3 0 0 1-.142.158.616.616 0 0 1-.109.049c-.06.023-.122.041-.186.053a.834.834 0 0 1-.273.005c-.033-.004-.064-.01-.096-.015a.303.303 0 0 0-.124 0 .19.19 0 0 0-.051.023.489.489 0 0 0-.135.14.353.353 0 0 0-.052.144.927.927 0 0 0-.008.094l-.002.043-.002.023a.554.554 0 0 1-.067.25.501.501 0 0 1-.046.067.476.476 0 0 1-.102.1.378.378 0 0 1-.085.043l-.026.01-.008.003-.007.004-.003.003a.268.268 0 0 0-.028.07.186.186 0 0 0-.002.061.253.253 0 0 0 .044.105l.012.017a.65.65 0 0 0 .07.083l.066.07.016.016c.04.043.08.088.108.14a.343.343 0 0 1 .044.148.272.272 0 0 1-.017.099.658.658 0 0 1-.143.209 2.526 2.526 0 0 1-.051.052l-.072.072a2.779 2.779 0 0 0-.11.118 1.02 1.02 0 0 0-.042.057.455.455 0 0 0-.067.147.336.336 0 0 0-.008.057l-.001.037a4.699 4.699 0 0 1-.024.304 3.04 3.04 0 0 1-.053.316 2.126 2.126 0 0 1-.16.462 1.757 1.757 0 0 1-.136.227 3.185 3.185 0 0 1-.066.092l-.085.111-.025.033-.021.028a41.373 41.373 0 0 1-.86.995c-.208.229-.417.456-.628.681l-.016.018-.067.089zm.751-.122a6.874 6.874 0 0 1-.16.048l.252-.252c.176-.175.352-.35.533-.52a10.44 10.44 0 0 1 .44-.39 3.447 3.447 0 0 1 .29-.212 1.014 1.014 0 0 1 .15-.075.328.328 0 0 1 .047-.014l.009-.001.029-.009.024-.017a17.087 17.087 0 0 1 .366-.309l.056-.045.444-.36c.1-.082.197-.164.294-.247a6.498 6.498 0 0 0 .367-.344c.037-.04.073-.08.106-.122l.018-.036.003-.04-.012-.038-.004-.007a.883.883 0 0 1-.103-.505.44.44 0 0 1 .04-.132.15.15 0 0 1 .05-.056h.002a.391.391 0 0 1 .105-.014c.02-.002.04-.002.059-.002.052 0 .103.003.155.006.064.004.127.01.19.016l.168.015.132.012a2.2 2.2 0 0 0 .108.004.886.886 0 0 0 .264-.044.456.456 0 0 0 .172-.113.454.454 0 0 0 .05-.066.708.708 0 0 0 .066-.145 1.411 1.411 0 0 0 .073-.365l.005-.093a2.988 2.988 0 0 1 .02-.196l.008-.057.009-.064a7.993 7.993 0 0 0 .03-.302c.008-.073.014-.147.02-.22.007-.067.013-.133.021-.199a2.125 2.125 0 0 1 .034-.198.305.305 0 0 1 .014-.042l.002-.005a.465.465 0 0 1 .196-.071l.045-.008.033-.005.066-.01a2.409 2.409 0 0 0 .115-.02.45.45 0 0 0 .184-.085.293.293 0 0 0 .06-.075.29.29 0 0 0 .028-.075l.002-.008.014-.075.035.003a1.353 1.353 0 0 0 .336-.018 2.117 2.117 0 0 0 .354-.086 3.283 3.283 0 0 0 .229-.084l.035-.014a.031.031 0 0 1 .013-.001c.008 0 .017.002.024.005a.326.326 0 0 1 .129.1.457.457 0 0 1 .081.15l.004.016a.194.194 0 0 1-.002.098.136.136 0 0 1-.01.026l-.026.044a8.351 8.351 0 0 0-.125.226 2.759 2.759 0 0 0-.114.257.716.716 0 0 0-.045.349c0 .007 0 .014.002.021l.003.04-.007.006c-.042.045-.084.09-.125.137l-.139.154a6.214 6.214 0 0 1-.225.24.259.259 0 0 0-.045.084.458.458 0 0 0-.011.041l-.003.015-.01.046a.276.276 0 0 1-.011.045.402.402 0 0 1-.06-.024 1.61 1.61 0 0 1-.076-.04l-.061-.034a2.834 2.834 0 0 0-.135-.068.671.671 0 0 0-.027-.01l-.02-.007a.285.285 0 0 0-.149-.01.18.18 0 0 0-.105.076l-.008.012-.02.034a1.798 1.798 0 0 0-.114.23.848.848 0 0 0-.062.326.596.596 0 0 0 .12.338l.012.017.032.046a.783.783 0 0 1 .042.07.089.089 0 0 1 .008.026l.001.027.004.082-.001.058a.16.16 0 0 1-.01.043.176.176 0 0 1-.027.045.807.807 0 0 1-.089.083 4.135 4.135 0 0 1-.223.153l-.048.03a.279.279 0 0 0-.071.068.442.442 0 0 0-.062.188l-.003.026a2.326 2.326 0 0 0-.003.038l-.004.074a1.255 1.255 0 0 1-.008.08.512.512 0 0 1-.012.062.265.265 0 0 1-.021.057.18.18 0 0 1-.071.07.267.267 0 0 1-.055.016.498.498 0 0 1-.095.008c-.037 0-.074-.002-.11-.005a3.054 3.054 0 0 1-.157-.018l-.03-.005-.14-.02a1.187 1.187 0 0 0-.117-.011h-.01a.376.376 0 0 0-.052.004l-.013.002a5.474 5.474 0 0 0-.583.155 4.727 4.727 0 0 0-1.714 1.002c-.05.045-.1.09-.148.137l-.027.027-.047.046a2.094 2.094 0 0 1-.202.173 2.78 2.78 0 0 1-.218.15 3.49 3.49 0 0 1-.265.15l-.014.007c-.068.02-.135.043-.202.067a6.642 6.642 0 0 0-.28.114c-.016.006-.03.013-.045.02l-.154.065-.087.038zM27.7 39.93l-.083.04a9.056 9.056 0 0 1-.87.364 8.533 8.533 0 0 1-2.035.456 8.259 8.259 0 0 1-3.633-.468 9.013 9.013 0 0 1-.852-.36l-.066-.032h7.539zm4.08.801-.012-.014-.01-.01-.039-.044a.439.439 0 0 1-.032-.04.142.142 0 0 1-.018-.032.092.092 0 0 1-.004-.022.3.3 0 0 1-.001-.05l.045-.035c.114-.09.228-.183.34-.276a7.927 7.927 0 0 0 .34-.302 1.848 1.848 0 0 0 .099-.104 1.562 1.562 0 0 0 .167-.23 2.731 2.731 0 0 0 .169-.314 4.193 4.193 0 0 0 .344-1.121c.01-.07.017-.14.02-.21a1.498 1.498 0 0 0-.01-.271.53.53 0 0 0-.021-.078 3.103 3.103 0 0 0-.141-.32l-.077-.155a6.128 6.128 0 0 1-.117-.26.875.875 0 0 1-.03-.094.146.146 0 0 1 .035-.127.527.527 0 0 1 .064-.066l.071-.066a.747.747 0 0 0 .199-.28l.005-.013.003-.009a.12.12 0 0 1 .018-.036.175.175 0 0 1 .052-.044.77.77 0 0 1 .099-.044l.049-.016.087-.027a1.692 1.692 0 0 0 .13-.048.628.628 0 0 0 .178-.114.443.443 0 0 0 .114-.196.362.362 0 0 0 .01-.101.469.469 0 0 0-.018-.105.988.988 0 0 0-.028-.083c-.01-.024-.02-.048-.028-.073a.586.586 0 0 1-.048-.231.479.479 0 0 1 .035-.163 1.162 1.162 0 0 1 .068-.112 2.564 2.564 0 0 1 .154-.203l.105-.132a4.316 4.316 0 0 0 .199-.27.877.877 0 0 0 .128-.34l.014-.078.017-.1a2.382 2.382 0 0 1 .029-.138.559.559 0 0 1 .018-.057.276.276 0 0 1 .048-.081.192.192 0 0 1 .082-.056.34.34 0 0 1 .106-.02h.018a.12.12 0 0 1 .05.015c.01.007.02.015.028.024a.216.216 0 0 1 .03.045.431.431 0 0 1 .035.082l.01.025c.015.04.03.083.047.123.015.035.033.07.056.1a.497.497 0 0 0 .058.064 1.801 1.801 0 0 0 .1.087l.139.117a3.07 3.07 0 0 1 .165.154.482.482 0 0 1 .04.05l.002.006a1.081 1.081 0 0 1 .01.126 5.2 5.2 0 0 1 .008.3.815.815 0 0 0-.189.225.802.802 0 0 0-.024.05l-.016.035a.14.14 0 0 1-.023.036.118.118 0 0 1-.023.019 1.132 1.132 0 0 1-.219.08.64.64 0 0 1-.258.002l-.064-.01a.758.758 0 0 0-.092-.009.399.399 0 0 0-.228.065.684.684 0 0 0-.196.203.56.56 0 0 0-.08.221.97.97 0 0 0-.008.08l-.001.023-.005.083a.503.503 0 0 1-.011.079.28.28 0 0 1-.07.13.24.24 0 0 1-.047.044.168.168 0 0 1-.027.015l-.009.003-.053.021a.231.231 0 0 0-.098.088.478.478 0 0 0-.058.173.375.375 0 0 0 .035.208c.025.053.059.1.096.145a1.485 1.485 0 0 0 .096.105 2.624 2.624 0 0 1 .092.103c.01.014.02.029.028.045a.094.094 0 0 1 .012.043.082.082 0 0 1-.009.031.44.44 0 0 1-.06.088c-.02.026-.044.05-.068.074l-.024.025-.052.05c-.04.041-.08.082-.117.126a.936.936 0 0 0-.118.17.644.644 0 0 0-.045.12.523.523 0 0 0-.016.101v.01l-.003.059a4.945 4.945 0 0 1-.028.321c-.01.068-.02.136-.035.204a1.911 1.911 0 0 1-.12.384 1.572 1.572 0 0 1-.168.292 3.201 3.201 0 0 1-.078.105l-.042.054-.026.035-.03.041a7.29 7.29 0 0 1-.348.42 63.755 63.755 0 0 1-.975 1.078zM9.13 35.273a2.774 2.774 0 0 0-.544.057h-.006l.01.005.013.005.031.015a.59.59 0 0 1 .162.117 1.947 1.947 0 0 1 .181.218c.056.077.107.158.153.242.05.09.094.184.133.28.083.2.147.408.213.613a12.588 12.588 0 0 0 .084.251c.031.087.065.174.102.26a2.952 2.952 0 0 0 .228.422 2.401 2.401 0 0 0 .402.46 12.982 12.982 0 0 0 .41.369c.24.208.487.41.741.602.226.171.457.336.694.492.248.163.503.318.764.461.224.123.453.236.688.337a5.938 5.938 0 0 0 .587.215 5.66 5.66 0 0 0-.152-.438l-.03-.024a22.804 22.804 0 0 1-1.493-1.325c-.235-.23-.463-.466-.682-.71-.197-.221-.388-.449-.566-.685a7.458 7.458 0 0 1-.382-.553 5.162 5.162 0 0 1-.293-.536 3.776 3.776 0 0 1-.188-.486 1.371 1.371 0 0 1-.05-.33l-.001-.006-.01-.005a2.416 2.416 0 0 0-.43-.2 2.228 2.228 0 0 0-.757-.123h-.012zm4.697 4.571v-.001l-.005-.007-.002-.003-.002-.005-.001-.002-.002-.002-.003-.006-.004-.007a2.396 2.396 0 0 0-.145-.215l-.018-.04v-.042l.015-.036a3.9 3.9 0 0 1-.234-.762 6.58 6.58 0 0 1-.084-.505c-.026-.206-.046-.412-.068-.618l-.01-.093a9.85 9.85 0 0 0-.065-.5 4.931 4.931 0 0 0-.11-.517 3.883 3.883 0 0 0-.185-.523 3.593 3.593 0 0 0-.29-.534 31.474 31.474 0 0 0-.357-.554 12.946 12.946 0 0 0-.964-1.267 21.251 21.251 0 0 0-.42-.48l-.013-.014v.008a3.442 3.442 0 0 1-.002.268 4.762 4.762 0 0 1-.049.481c-.019.124-.04.248-.065.37-.026.136-.055.27-.082.406l-.015.073a8.662 8.662 0 0 0-.06.32c-.013.084-.025.17-.033.256a2.274 2.274 0 0 0-.01.25 1.484 1.484 0 0 0 .044.339 1.397 1.397 0 0 0 .045.136c.031.088.067.175.105.26.07.154.148.303.233.448.099.168.206.33.32.49.157.22.326.432.502.637.183.215.375.423.572.625.205.212.417.418.633.619.264.245.534.482.81.713l.014.026.008.013-.002-.002-.001-.003zm.858-.104-.01-.003a4.3 4.3 0 0 0 .138-.737c.018-.18.026-.362.026-.543 0-.222-.012-.444-.033-.666a8.17 8.17 0 0 0-.206-1.206 2.274 2.274 0 0 0-.058-.182 2.95 2.95 0 0 0-.145-.33c-.072-.142-.152-.279-.23-.417l-.032-.054a6.427 6.427 0 0 1-.137-.255 3.51 3.51 0 0 1-.207-.504 2.99 2.99 0 0 1-.028-.096l-.013-.05-.02-.067a19.686 19.686 0 0 0-.374-1.169 8.277 8.277 0 0 0-.113-.296v.002a1.027 1.027 0 0 1-.092.242 1.87 1.87 0 0 1-.142.237l-.056.085a2.408 2.408 0 0 0-.188.328 1.494 1.494 0 0 0-.087.25 1.758 1.758 0 0 0-.048.435 2.487 2.487 0 0 0 .03.369 34.143 34.143 0 0 1 .196.312 4.008 4.008 0 0 1 .258.502 3.865 3.865 0 0 1 .194.58c.047.183.082.369.11.556.024.169.043.339.061.508l.027.261.023.204c.015.13.032.26.053.388a5.367 5.367 0 0 0 .132.592 3.748 3.748 0 0 0 .167.454 46.835 46.835 0 0 1 .804.27zm13.408-.017h-8.33a9.803 9.803 0 0 1-1.052-.669h10.434a10.438 10.438 0 0 1-1.052.67zm1.327-.875H18.437c-.275-.213-.54-.44-.796-.677h12.577c-.256.238-.521.464-.797.677zm1.013-.883h-13.01a12.243 12.243 0 0 1-.44-.453l-.08-.088a13.492 13.492 0 0 1-.845-1.026l-.056-.077-.033-.045a14.53 14.53 0 0 1-.196-.274l-.008-.012a15.41 15.41 0 0 1-.51-.784l-.003-.006a16.488 16.488 0 0 1-.829-1.546l-.062-.131-.067-.149-.028-.062a18.488 18.488 0 0 1-.628-1.608l-.006-.017-.027-.08-.02-.062a24.463 24.463 0 0 1-.145-.457l-.022-.073-.027-.093-.052-.182a20.396 20.396 0 0 1-.499-2.239l-.005-.031a21.617 21.617 0 0 1-.22-1.826 22.462 22.462 0 0 1-.057-2.44l.004-.118.003-.076a22.203 22.203 0 0 1 .099-1.394l.013-.122a21.465 21.465 0 0 1 .23-1.58l.024-.122.02-.107a20.7 20.7 0 0 1 .277-1.217l.006-.021.018-.07a19.04 19.04 0 0 1 .114-.414l.006-.021a19.415 19.415 0 0 1 .688-1.972 17.653 17.653 0 0 1 .553-1.214l.044-.087.044-.086c.084-.162.17-.322.259-.481l.01-.018.037-.066c.042-.075.085-.149.128-.222l.009-.015c.166-.281.34-.557.523-.828l.002-.003a14.458 14.458 0 0 1 .47-.654l.017-.023a13.454 13.454 0 0 1 .364-.457l.028-.034a13.071 13.071 0 0 1 .53-.596l.029-.03a11.852 11.852 0 0 1 1.123-1.04l.086-.07.086-.067a10.59 10.59 0 0 1 1.394-.92l.11-.059.073-.038.058-.03a9.135 9.135 0 0 1 .875-.39l.025-.01.105-.04a8.716 8.716 0 0 1 1.266-.357l.152-.029a8.207 8.207 0 0 1 1.249-.129h.006l.195-.003h.055a9 9 0 0 1 .755.039 8.41 8.41 0 0 1 .496.063l.08.012.127.023a7.82 7.82 0 0 1 .5.108 8.61 8.61 0 0 1 1.66.596 9.451 9.451 0 0 1 .954.522l.06.038a10.281 10.281 0 0 1 .328.216c.438.3.853.634 1.244.994l.076.07.036.035a12.342 12.342 0 0 1 1.056 1.126 13.205 13.205 0 0 1 .38.48 14.664 14.664 0 0 1 1.004 1.5 16.503 16.503 0 0 1 .76 1.452c.162.348.312.702.451 1.06l.014.034a19.183 19.183 0 0 1 .777 2.504 20.83 20.83 0 0 1 .23 1.093 21.734 21.734 0 0 1 .356 3.832 22.508 22.508 0 0 1-.185 3.005 21.33 21.33 0 0 1-.518 2.642 19.692 19.692 0 0 1-.562 1.78l-.043.115-.011.03-.047.122-.05.127a17.856 17.856 0 0 1-.657 1.468l-.016.03a16.692 16.692 0 0 1-.96 1.65l-.031.049-.018.026-.049.072-.058.085-.009.013a14.407 14.407 0 0 1-.824 1.077l-.012.015a13.296 13.296 0 0 1-.305.347l-.08.088a12.623 12.623 0 0 1-.441.453zm7.322-10.457a6.187 6.187 0 0 0-.244-.358 3.243 3.243 0 0 0-.124-.158 1.949 1.949 0 0 0-.173-.18.932.932 0 0 0-.077-.062.533.533 0 0 0-.118-.061.197.197 0 0 0-.056-.01h-.003a.14.14 0 0 0-.055.013.326.326 0 0 0-.072.046.223.223 0 0 0-.06.088.39.39 0 0 0-.03.14.851.851 0 0 0-.002.096c0 .034.003.068.005.102l.012.137.002.03c.004.057.007.113.003.169a.451.451 0 0 1-.021.117.29.29 0 0 1-.031.064.242.242 0 0 1-.116.094 1.237 1.237 0 0 1-.18.067l-.112.03-.018.005a.494.494 0 0 0-.04.013.135.135 0 0 0-.038.02.102.102 0 0 0-.026.035.57.57 0 0 0-.028.097l.02.017a2.959 2.959 0 0 1 .171.16 1.569 1.569 0 0 1 .174.218.88.88 0 0 1 .08.16c.013.04.024.08.029.122a.5.5 0 0 1-.018.21.331.331 0 0 1-.135.173.538.538 0 0 1-.109.054c-.028.01-.057.02-.085.028l-.072.02a.87.87 0 0 0-.083.03.165.165 0 0 0-.011.006l-.007.005-.006.005-.003.003v.016l.002.017a.634.634 0 0 1-.065.358 2.239 2.239 0 0 1-.062.13 1.108 1.108 0 0 0-.059.142.538.538 0 0 0-.024.155.462.462 0 0 0 .012.085.546.546 0 0 0 .03.082c.019.047.04.094.06.14l.087.185.12.243c.078.157.158.313.238.469l.028.056.032.063a2.575 2.575 0 0 1 .047.104c.04.094.069.19.089.29.028.14.038.282.034.424a2.544 2.544 0 0 1-.042.377c-.018.099-.04.197-.066.294-.021.08-.044.159-.068.238l-.043.14a3.3 3.3 0 0 0-.06.234.492.492 0 0 0-.009.066l-.011.043c-.027.051-.058.1-.092.146a3.064 3.064 0 0 1-.375.41 6.381 6.381 0 0 1-.125.114 2.145 2.145 0 0 1 .006.12l.003.089.076-.048.064-.04a1.89 1.89 0 0 0 .18-.127l.037-.03.014-.011a.938.938 0 0 1 .114-.075l.004-.002.019-.04a20.069 20.069 0 0 1 .287-.553 6.479 6.479 0 0 1 .2-.34 2.289 2.289 0 0 1 .106-.147.648.648 0 0 1 .047-.053.328.328 0 0 1 .048-.04.192.192 0 0 1 .035-.018l.002-.003a.223.223 0 0 0 .022-.048.438.438 0 0 0 .02-.093 1.24 1.24 0 0 0 .01-.154c0-.062 0-.123-.004-.184a6.48 6.48 0 0 0-.107-.816 9.153 9.153 0 0 0-.1-.462l-.021-.086a5.08 5.08 0 0 1-.105-.556l-.025-.176a28.678 28.678 0 0 0-.022-.144 1.307 1.307 0 0 0-.037-.149.21.21 0 0 0-.02-.036l-.02-.038-.002-.044.016-.04a.467.467 0 0 1 .304-.203 1.04 1.04 0 0 1 .092-.017l.084-.011.021-.003a.967.967 0 0 0 .063-.014.12.12 0 0 0 .023-.01.022.022 0 0 0 .004-.004l.003-.004a1.467 1.467 0 0 0-.053-.064l-.061-.066a2.277 2.277 0 0 1-.145-.177.52.52 0 0 1-.098-.238.35.35 0 0 1 .013-.134.17.17 0 0 1 .089-.101c.019-.01.039-.02.058-.028l.013-.006a.349.349 0 0 0 .08-.057.337.337 0 0 0 .067-.094l.038-.07a1.556 1.556 0 0 1 .072-.114.597.597 0 0 1 .192-.173 2.171 2.171 0 0 1 .215-.108 4.34 4.34 0 0 1 .16-.064l.003-.006a.118.118 0 0 0 .009-.023.15.15 0 0 0 .002-.06.292.292 0 0 0-.023-.079.861.861 0 0 0-.033-.075l-.027-.058-.011-.024-.013-.03a.474.474 0 0 1-.041-.2.262.262 0 0 1 .032-.107zm-.808 6.49.075-.087c.181-.212.362-.424.535-.642.069-.086.136-.172.201-.26.068-.092.133-.184.196-.278.048-.074.095-.149.139-.226.036-.064.07-.13.1-.198.022-.049.041-.098.057-.149a.875.875 0 0 0 .037-.168v-.008l.006-.028.014-.024.015-.021a1.772 1.772 0 0 1 .24-.262 1.823 1.823 0 0 1 .245-.182 3.73 3.73 0 0 1 .114-.07l.115-.067c.041-.024.083-.05.122-.077a.848.848 0 0 0 .111-.088.552.552 0 0 0 .129-.191.344.344 0 0 0 .024-.13c0-.04-.006-.08-.015-.119a1.517 1.517 0 0 0-.043-.15l-.028-.081a1.422 1.422 0 0 1-.042-.145.545.545 0 0 1-.013-.11.351.351 0 0 1 .055-.192.562.562 0 0 1 .17-.166 1.133 1.133 0 0 1 .108-.066l.082-.044.103-.052.051-.027a1.439 1.439 0 0 0 .1-.06.325.325 0 0 0 .044-.037.126.126 0 0 0 .018-.023.04.04 0 0 0 .007-.019v-.012a.754.754 0 0 1 .013-.138 12.219 12.219 0 0 1 .076-.386l.05-.233.013-.059a15.929 15.929 0 0 0 .072-.366 3.003 3.003 0 0 0 .031-.248.62.62 0 0 0-.035-.25.242.242 0 0 0-.123-.154c-.026-.014-.053-.024-.08-.035a.38.38 0 0 1-.13-.082.756.756 0 0 1-.176-.237.989.989 0 0 1-.064-.175 1.484 1.484 0 0 1-.048-.288l-.01-.113-.007-.05a1.202 1.202 0 0 0-.021-.117.236.236 0 0 0-.02-.046.066.066 0 0 0-.013-.017.066.066 0 0 0-.038-.012h-.012a.368.368 0 0 0-.081.012.806.806 0 0 0-.25.106c-.04.026-.078.054-.115.084-.082.067-.155.142-.23.216l-.03.03a1.61 1.61 0 0 1-.23.19 2.896 2.896 0 0 1-.163.099l-.13.07-.032.019a1.195 1.195 0 0 0-.193.129.636.636 0 0 0-.105.115l-.002.004a.054.054 0 0 0-.006.012.07.07 0 0 0-.002.026.173.173 0 0 0 .011.05.374.374 0 0 0 .017.045l.016.037.035.075.014.03a.643.643 0 0 1 .058.211.348.348 0 0 1-.028.15.35.35 0 0 1-.046.076l-.02.019c-.009.004-.017.01-.025.013l-.012.005-.024.009-.034.013a3.441 3.441 0 0 0-.23.1.95.95 0 0 0-.084.05.481.481 0 0 0-.122.111.866.866 0 0 0-.05.082l-.038.068-.026.044a.677.677 0 0 1-.08.105.478.478 0 0 1-.126.092l-.058.027-.01.005a.104.104 0 0 0-.002.02c0 .024.007.048.016.07a.738.738 0 0 0 .117.177l.049.056.062.067a2.27 2.27 0 0 1 .066.077.328.328 0 0 1 .034.053.164.164 0 0 1 .018.082l-.002.014a.254.254 0 0 1-.048.118.219.219 0 0 1-.07.059.412.412 0 0 1-.157.046 1.464 1.464 0 0 1-.036.004l-.053.007-.023.004a1.158 1.158 0 0 0-.05.009.357.357 0 0 0-.12.046.241.241 0 0 0-.032.025c0 .004.002.007.003.01l.005.012a.797.797 0 0 1 .031.108l.022.114.019.13.02.136a40.095 40.095 0 0 1 .025.171 5.455 5.455 0 0 0 .072.36l.022.093.01.04a9.897 9.897 0 0 1 .147.737 6.772 6.772 0 0 1 .055.473 3.52 3.52 0 0 1 .006.37 1.185 1.185 0 0 1-.035.22.306.306 0 0 1-.09.15.206.206 0 0 1-.052.03l-.004.002a.729.729 0 0 0-.103.125l-.045.069a8.463 8.463 0 0 0-.233.405c-.052.097-.103.194-.152.292l-.013.025.05-.006.064-.008.033-.005a2.349 2.349 0 0 0 .162-.028c.031-.007.062-.014.093-.023zm.914-.574a2.137 2.137 0 0 0 .138-.218l.032-.056.045-.081.023-.04a1.977 1.977 0 0 1 .185-.273.623.623 0 0 1 .118-.102.813.813 0 0 1 .314-.11 2.17 2.17 0 0 1 .164-.027l.118-.015c.12-.017.24-.034.358-.068a1.216 1.216 0 0 0 .157-.058.166.166 0 0 0 .022-.014.096.096 0 0 0 .02-.02.073.073 0 0 0 .006-.012.276.276 0 0 0 .011-.046l.006-.049.002-.013a.341.341 0 0 1 .232-.302.618.618 0 0 1 .26-.03l.066.003.103.008a1.725 1.725 0 0 0 .176 0 .386.386 0 0 0 .064-.01.23.23 0 0 0 .045-.018l.003-.004a.177.177 0 0 0 .02-.038.647.647 0 0 0 .043-.13 1.791 1.791 0 0 0 .043-.216 3.002 3.002 0 0 0 .033-.479V31a.187.187 0 0 0-.031-.094.462.462 0 0 0-.078-.097 1.37 1.37 0 0 0-.032-.032l-.058-.056a1.106 1.106 0 0 1-.078-.082.464.464 0 0 1-.05-.073.27.27 0 0 1-.02-.241.353.353 0 0 1 .052-.092.508.508 0 0 1 .111-.114.873.873 0 0 1 .27-.132c.05-.016.102-.03.153-.042l.077-.018.075-.02a.7.7 0 0 0 .09-.034.125.125 0 0 0 .017-.012l.004-.01a.273.273 0 0 0 .029-.121.191.191 0 0 0-.01-.051.295.295 0 0 0-.027-.057c-.018-.03-.04-.06-.06-.088l-.011-.016a.517.517 0 0 1-.05-.092.307.307 0 0 1-.013-.14.295.295 0 0 1 .017-.062.363.363 0 0 1 .044-.079c.032-.044.07-.083.11-.121l.016-.018a.479.479 0 0 0 .04-.046.148.148 0 0 0 .02-.039l.003-.009a9.507 9.507 0 0 0 .113-.984 2.114 2.114 0 0 0 0-.131.324.324 0 0 0-.065-.01c-.025 0-.05 0-.074.003a1.372 1.372 0 0 0-.21.045 3.144 3.144 0 0 0-.56.25 2.747 2.747 0 0 1-.03.267 11.877 11.877 0 0 1-.074.385c-.022.108-.046.215-.07.322l-.011.056a7.516 7.516 0 0 0-.066.353.71.71 0 0 0-.006.067V29.555l-.002.02a.247.247 0 0 1-.027.089.393.393 0 0 1-.144.144.96.96 0 0 1-.089.054 2.95 2.95 0 0 1-.07.037l-.103.052a1.988 1.988 0 0 0-.13.072.75.75 0 0 0-.081.057.368.368 0 0 0-.054.054.2.2 0 0 0-.034.061.144.144 0 0 0-.004.038.656.656 0 0 0 .02.113c.007.027.016.053.025.08l.027.08c.015.046.03.093.042.14a.822.822 0 0 1 .027.193.559.559 0 0 1-.053.242.725.725 0 0 1-.163.23c-.041.04-.086.074-.133.106-.045.031-.092.06-.139.088l-.114.067a3.186 3.186 0 0 0-.137.084 1.496 1.496 0 0 0-.397.368l-.002.004-.002.016-.003.017a1.075 1.075 0 0 1-.054.206 2.758 2.758 0 0 1-.18.377 4.247 4.247 0 0 1-.143.226 6.57 6.57 0 0 1-.184.26c-.07.095-.143.188-.216.28l-.028.034a.619.619 0 0 1 .159-.022h.022zm-27.21-.043a3.306 3.306 0 0 0 0-.327l-.004-.004a6.963 6.963 0 0 1-.403-.454 10.647 10.647 0 0 1-.862-1.203 10.104 10.104 0 0 1-.387-.68 8.584 8.584 0 0 1-.31-.666 7.003 7.003 0 0 1-.221-.614 5.521 5.521 0 0 1-.205-.963 1.736 1.736 0 0 1-.01-.223 1.927 1.927 0 0 1 .036-.305 1.87 1.87 0 0 0-.868-.47 2.534 2.534 0 0 0-.356-.059 3.675 3.675 0 0 0-.482-.014h-.01l.01.007a.761.761 0 0 1 .14.12.409.409 0 0 1 .045.063l.032.052a2.462 2.462 0 0 1 .21.456c.031.09.058.18.081.271.027.105.05.211.07.318l.04.222.038.233a5.316 5.316 0 0 0 .1.508 2.788 2.788 0 0 0 .312.785c.013.025.029.05.044.073l.04.06a11.61 11.61 0 0 0 .355.502c.245.325.508.636.791.928.216.223.443.435.682.633.164.137.334.267.509.389a6.518 6.518 0 0 0 .584.362zm.568-.177c-.005-.093 0-.188.011-.28.015-.127.04-.252.072-.375.036-.148.08-.294.127-.439l.084-.255.066-.198.022-.067a18.3 18.3 0 0 0 .094-.292c.046-.148.089-.296.127-.446.038-.149.071-.298.098-.449a4.84 4.84 0 0 0 .06-.466 4.019 4.019 0 0 0-.136-1.405 3.483 3.483 0 0 0-.138-.396l-.09-.218a14.71 14.71 0 0 1-.052-.127 2.192 2.192 0 0 1-.161-.772 2.568 2.568 0 0 1 .023-.487l.026-.148.005-.03a2.406 2.406 0 0 0 .014-.1v-.002a1.825 1.825 0 0 1-.2.242l-.08.085a4.304 4.304 0 0 0-.162.185 1.688 1.688 0 0 0-.144.216 1.5 1.5 0 0 0-.055.108 1.949 1.949 0 0 0-.157.616c-.004.04-.008.08-.01.12a8.733 8.733 0 0 1 .104.288 4.34 4.34 0 0 1 .192.899c.017.16.027.32.031.48.005.188.002.376-.006.563a19.63 19.63 0 0 1-.02.384l-.02.321c-.013.201-.024.402-.029.603-.005.22-.002.44.014.659a5.083 5.083 0 0 0 .098.676c.027.123.06.245.097.365l.017.054.078.088zm-.386-.43c-.008-.008-.015-.018-.024-.026-.011-.01-.024-.017-.036-.025l-.042-.008-.042.01-.035.026-.013.024.012-.021a11.054 11.054 0 0 1-1.406-2.005 8.821 8.821 0 0 1-.269-.544 7.542 7.542 0 0 1-.205-.501 6.329 6.329 0 0 1-.153-.473 5.251 5.251 0 0 1-.156-.784 1.624 1.624 0 0 1-.009-.184c.002-.08.012-.16.025-.238.015-.086.034-.17.057-.255.025-.09.053-.18.084-.27a10.388 10.388 0 0 1 .142-.392c.096-.25.193-.5.277-.756a5.602 5.602 0 0 0 .17-.644l.015-.085.002-.01.027.043.1.167.214.35.197.328c.14.233.277.468.4.71a6.947 6.947 0 0 1 .395.933 4.112 4.112 0 0 1 .184.808c.02.154.032.31.038.464.006.177.005.354 0 .53a15.195 15.195 0 0 1-.027.52c-.014.235-.03.47-.04.706-.007.186-.01.372-.006.558.005.221.021.442.053.66.016.115.036.228.061.34l.01.044zm13.092-1.702a.067.067 0 0 1-.115 0l-.494-.869s-1.498.133-2.455-.012c-.553-.083-.937-.277-1.116-.496a.084.084 0 0 1 .088-.133c1.358.365 2.473-.078 2.65-.29-1.363-.75-3.672-3.832-2.894-6.785.5-1.897 1.546-2.906 2.135-3.343a.065.065 0 0 1 .09.092c-.387.488-.987 1.482-1.137 3.079-.362 3.834 2.48 5.709 2.48 5.709l-.178-8.626.81-.735a.117.117 0 0 1 .157 0l.81.735-.178 8.626s2.842-1.875 2.48-5.71c-.15-1.596-.75-2.59-1.136-3.078a.065.065 0 0 1 .089-.092c.589.437 1.635 1.446 2.135 3.343.778 2.953-1.53 6.034-2.893 6.785.176.212 1.292.655 2.649.29a.084.084 0 0 1 .088.133c-.179.22-.563.413-1.116.496-.957.145-2.455.012-2.455.012l-.494.869zm2.667-12.223a.065.065 0 0 0-.066.11c.69.607 2.346 2.233 2.81 4.198.526 2.227-.514 4.755-.946 5.666a.089.089 0 0 0 .136.108c.826-.698 2.955-2.878 2.035-6.18-.633-2.268-3.037-3.501-3.969-3.902zm-5.45 0a.065.065 0 0 1 .067.11c-.69.607-2.346 2.233-2.81 4.198-.526 2.227.515 4.755.946 5.666a.089.089 0 0 1-.136.108c-.826-.698-2.955-2.878-2.035-6.18.633-2.268 3.037-3.501 3.969-3.902zm16.254 2.229a2.348 2.348 0 0 1-.206-.103 1.06 1.06 0 0 1-.15-.11.468.468 0 0 1-.066-.076l-.025-.039a3.663 3.663 0 0 0-.104-.154 1.522 1.522 0 0 0-.13-.158.507.507 0 0 0-.063-.052.16.16 0 0 0-.03-.016.081.081 0 0 0-.029-.005.102.102 0 0 0-.045.012.416.416 0 0 0-.063.044.674.674 0 0 0-.076.076.202.202 0 0 0-.021.032.07.07 0 0 0-.01.032.139.139 0 0 0 .007.037l.013.03.024.048.041.078a2.617 2.617 0 0 1 .116.257.963.963 0 0 1 .055.239c.008.056.013.114.016.171.004.062.006.124.008.186l.006.19a11.545 11.545 0 0 0 .015.322l.004.045v.007a.304.304 0 0 1-.004.063.232.232 0 0 1-.058.11.323.323 0 0 1-.045.04c-.035.027-.073.047-.11.068a.394.394 0 0 0-.08.057.21.21 0 0 0-.053.076l.001.005a.756.756 0 0 0 .032.089l.033.07.032.066.011.023c.021.045.042.09.06.137a.642.642 0 0 1 .03.112.361.361 0 0 1-.01.167.747.747 0 0 1-.09.217 2.127 2.127 0 0 1-.024.041l-.04.064a1.045 1.045 0 0 0-.043.08.159.159 0 0 0-.013.044.092.092 0 0 0 .006.044.114.114 0 0 0 .041.053.27.27 0 0 0 .064.036.71.71 0 0 0 .072.028l.06.02.026.01.032.011a.376.376 0 0 1 .167.11.22.22 0 0 1 .043.096l.003.021a3.405 3.405 0 0 1 .024.229c.007.09.011.18.013.27l.003.25a3.246 3.246 0 0 0 .008.19.37.37 0 0 0 .013.06l.004.01.014.018.013.017a9.448 9.448 0 0 1 .329.474c.078.123.154.248.224.375.066.12.128.242.183.367a3.658 3.658 0 0 1 .208.603 3.047 3.047 0 0 1 .06.323v.005a1.06 1.06 0 0 1 .177-.12 12.315 12.315 0 0 0 .047-.549 3.555 3.555 0 0 0 .002-.27l-.002-.025v-.01a6.18 6.18 0 0 1 .002-.198l.007-.183c.005-.128.008-.256.007-.384a3.319 3.319 0 0 0-.03-.41 1.313 1.313 0 0 0-.047-.187.542.542 0 0 0-.126-.2 2.453 2.453 0 0 0-.066-.07l-.057-.059-.026-.026a2.433 2.433 0 0 1-.133-.155 1.29 1.29 0 0 1-.107-.168.538.538 0 0 1-.057-.199.383.383 0 0 1 .038-.186.53.53 0 0 1 .075-.11c.023-.028.047-.053.073-.078l.054-.053a1.395 1.395 0 0 0 .065-.068.363.363 0 0 0 .032-.045.205.205 0 0 0 .025-.064.171.171 0 0 0 .002-.04 3.256 3.256 0 0 0-.104-.202l-.072-.133a5.369 5.369 0 0 1-.167-.332 2.59 2.59 0 0 1-.052-.13 1.455 1.455 0 0 1-.096-.506.985.985 0 0 1 .063-.321.25.25 0 0 1 .069-.088.278.278 0 0 1 .08-.043.656.656 0 0 1 .074-.019l.051-.01a2.029 2.029 0 0 0 .072-.018.744.744 0 0 0 .186-.08h.003a.112.112 0 0 0 .002-.046.14.14 0 0 0-.04-.072.262.262 0 0 0-.029-.029.482.482 0 0 0-.09-.066 1.284 1.284 0 0 0-.122-.069l-.094-.049-.023-.012a1.363 1.363 0 0 1-.12-.075.267.267 0 0 1-.072-.085zm1.422-1.994h-.035l-.022.002a.154.154 0 0 0-.057.015.22.22 0 0 0-.08.071.643.643 0 0 0-.062.113 1.484 1.484 0 0 0-.074.218l-.034.117-.011.04a1.85 1.85 0 0 1-.062.175.742.742 0 0 1-.084.151l-.045.057-.046.058a14.815 14.815 0 0 0-.396.533 3.795 3.795 0 0 0-.176.285 1.007 1.007 0 0 0-.04.08l.02.015.028.018.072.04.087.045a2.79 2.79 0 0 1 .136.077l.042.027a.703.703 0 0 1 .108.09.421.421 0 0 1 .084.125.306.306 0 0 1-.007.252l-.001.002-.016.026c-.007.008-.015.013-.023.02l-.015.01a1.021 1.021 0 0 1-.324.13l-.07.015-.017.004a.426.426 0 0 0-.045.014.04.04 0 0 0-.01.006.038.038 0 0 0-.007.011.798.798 0 0 0-.019.472c.015.071.037.14.063.208.03.078.064.155.1.23.055.11.115.218.174.327a14.078 14.078 0 0 1 .084.158 3.01 3.01 0 0 1 .033.071l.01.03v.005a.445.445 0 0 1 0 .096.376.376 0 0 1-.054.15.634.634 0 0 1-.084.109c-.032.034-.067.066-.1.099l-.015.014a.63.63 0 0 0-.069.079.225.225 0 0 0-.034.07.164.164 0 0 0-.005.023.233.233 0 0 0 .018.111l.009.02a.58.58 0 0 0 .056.099c.028.042.06.082.093.12.026.03.053.059.08.087l.073.075a1.2 1.2 0 0 1 .197.257c.015.03.028.063.04.095a1.153 1.153 0 0 1 .054.24 3.774 3.774 0 0 1 .028.422c0 .1-.001.202-.004.303l-.01.238a6.159 6.159 0 0 0-.002.207l.002.026.001.021c.003.051.003.102.002.153a8.683 8.683 0 0 1-.036.523l-.002.012.045-.09.107-.218c.081-.165.162-.33.238-.499a6.91 6.91 0 0 0 .227-.566 3.016 3.016 0 0 0 .08-.289c.01-.054.019-.11.024-.165v-.008l.005-.024a3.342 3.342 0 0 1 .156-.387 6.482 6.482 0 0 1 .25-.473l.081-.146.032-.057c.05-.092.1-.185.146-.28a2.4 2.4 0 0 0 .096-.24.925.925 0 0 0 .04-.193.434.434 0 0 0-.032-.195.945.945 0 0 0-.037-.09 2.068 2.068 0 0 0-.065-.124l-.053-.092a.642.642 0 0 1-.115-.255.41.41 0 0 1-.009-.152.555.555 0 0 1 .032-.127.774.774 0 0 1 .055-.115c.036-.064.08-.124.122-.184l.015-.02a1.333 1.333 0 0 0 .052-.087.26.26 0 0 0 .02-.05.116.116 0 0 0 .005-.043.103.103 0 0 0-.005-.021l-.005-.013a.668.668 0 0 0-.12-.202l-.047-.06a5.096 5.096 0 0 1-.08-.11 1.299 1.299 0 0 1-.115-.215.7.7 0 0 1-.03-.137 1.396 1.396 0 0 1-.011-.162c0-.061.001-.123.004-.184.004-.073.01-.147.016-.22l.014-.17c.006-.087.013-.172.017-.259a4.077 4.077 0 0 0 .002-.322 1.983 1.983 0 0 0-.03-.253.684.684 0 0 0-.144-.32.483.483 0 0 0-.228-.142.8.8 0 0 0-.242-.033h-.014zm-28.383 2.437c-.018.117-.037.233-.057.35-.065.373-.134.744-.202 1.117l-.032.173c-.056.309-.11.618-.16.928-.04.258-.075.516-.103.775a10.34 10.34 0 0 0-.06.893c-.004.147-.003.293.002.44l.003.006a28.893 28.893 0 0 1 .325.548 4.82 4.82 0 0 1 .091-.368c.038-.132.081-.262.127-.39.055-.157.114-.312.176-.466.066-.166.135-.33.204-.494l.18-.428a53.521 53.521 0 0 0 .308-.753 23.1 23.1 0 0 0 .326-.865c.045-.129.087-.258.12-.39a2.658 2.658 0 0 0 .08-.562 3.53 3.53 0 0 0-.034-.609 7.804 7.804 0 0 0-.018-.128l-.025-.172a3.644 3.644 0 0 1-.037-.352 1.795 1.795 0 0 1 .011-.3v-.003l-.02.015-.02.015a4.85 4.85 0 0 1-.215.138l-.11.066-.032.02a7.17 7.17 0 0 0-.233.152c-.09.064-.176.133-.256.209a2.049 2.049 0 0 0-.336.41l-.003.025zm29.2-.427a10.985 10.985 0 0 0 .353-.29 3.988 3.988 0 0 0 .22-.206 1.004 1.004 0 0 0 .102-.139 2.267 2.267 0 0 0 .09-.166l.046-.09a3.2 3.2 0 0 1 .093-.165.666.666 0 0 1 .04-.057.321.321 0 0 1 .04-.04.164.164 0 0 1 .023-.018.071.071 0 0 1 .033-.01l.005.001a.145.145 0 0 1 .029.02.571.571 0 0 1 .108.14c.015.026.03.052.044.08.032.06.06.124.088.188a4.59 4.59 0 0 1 .25.836 1.529 1.529 0 0 1 .017.161v.043a.557.557 0 0 1-.027.163 1.646 1.646 0 0 1-.064.133l-.018.03-.071.126a8.69 8.69 0 0 0-.062.112l-.013.024a.668.668 0 0 0-.055.146.48.48 0 0 0 .021.275.854.854 0 0 0 .18.28l.043.049.073.08c.027.03.054.06.08.092a.543.543 0 0 1 .071.124.807.807 0 0 1 .023.078.961.961 0 0 1 .029.301.628.628 0 0 1-.042.173.285.285 0 0 1-.023.043.125.125 0 0 1-.022.026l-.01.008-.032.022a7.246 7.246 0 0 1-.073.05l-.113.073a4.178 4.178 0 0 0-.176.125.966.966 0 0 0-.07.061.558.558 0 0 0-.108.145.56.56 0 0 0-.057.235v.099c.002.04.003.078 0 .117a.378.378 0 0 1-.075.198 1.002 1.002 0 0 1-.32.277 1.42 1.42 0 0 1-.131.063l-.104.042-.105.04c-.05.02-.1.04-.15.063a.927.927 0 0 0-.286.213 2.29 2.29 0 0 0-.168.2c-.07.094-.135.19-.197.29-.075.118-.145.239-.215.36l-.05.09-.099.174-.06.108.092-.196a8.883 8.883 0 0 0 .269-.637 3.694 3.694 0 0 0 .103-.339c.016-.069.029-.139.037-.209l.002-.02.002-.02.001-.005.03-.085c.032-.089.07-.176.11-.261.06-.126.127-.25.194-.371l.033-.06.132-.234a5.3 5.3 0 0 0 .15-.29 2.51 2.51 0 0 0 .11-.274 1.096 1.096 0 0 0 .047-.28.585.585 0 0 0-.003-.067.883.883 0 0 0-.108-.319 2.022 2.022 0 0 0-.057-.106l-.052-.091a2.223 2.223 0 0 1-.07-.137.422.422 0 0 1-.017-.052.197.197 0 0 1-.006-.076.347.347 0 0 1 .02-.08.559.559 0 0 1 .038-.082c.021-.038.045-.073.07-.108l.05-.072c.024-.034.047-.068.067-.104a.541.541 0 0 0 .055-.152.305.305 0 0 0-.018-.157.803.803 0 0 0-.082-.163 1.463 1.463 0 0 0-.07-.098l-.053-.068a1.757 1.757 0 0 1-.116-.173 1.043 1.043 0 0 1-.022-.042c-.004-.007-.008-.015-.01-.023a.377.377 0 0 1-.02-.06.584.584 0 0 1-.01-.057l-.003-.028zM7.118 19.948a3.824 3.824 0 0 1 .033.378c.001.041 0 .083-.003.124l-.005.057c-.008.103-.018.205-.028.307l-.05.475-.011.113a8.943 8.943 0 0 0-.053.78 4.55 4.55 0 0 0 .04.653 3.786 3.786 0 0 0 .13.583 6.086 6.086 0 0 0 .302.81 5.306 5.306 0 0 0 .876 1.328 6.392 6.392 0 0 0 .553.548l-.005.019v.001l.005-.02a5.757 5.757 0 0 0 .08-.31c-.104-.237-.201-.478-.29-.722a11.21 11.21 0 0 1-.282-.87 9.14 9.14 0 0 1-.187-.813 7.118 7.118 0 0 1-.096-.744 5.312 5.312 0 0 1 .021-1.02v-.004a2.13 2.13 0 0 0-.1-.288 3.454 3.454 0 0 0-.403-.689 8.704 8.704 0 0 0-.19-.257l-.163-.213-.04-.053a14.482 14.482 0 0 1-.135-.18l.001.007zm1.929 5.47c.004-.04.008-.079.01-.118v-.007l.013-.041.028-.033.039-.019.043-.001.04.017.03.031a51.534 51.534 0 0 0 .364.604c.003-.365.03-.729.072-1.091.048-.419.115-.835.187-1.25l.1-.56.09-.483a75.237 75.237 0 0 0 .143-.811c.015-.093.03-.187.042-.28.018-.134.033-.269.041-.404a3.58 3.58 0 0 0-.05-.862 19.713 19.713 0 0 0-.114-.598l-.081-.377-.003.005a3.11 3.11 0 0 1-.122.198 4.084 4.084 0 0 1-.24.322c-.156.191-.325.37-.492.551l-.053.058a11.816 11.816 0 0 0-.214.239 4.586 4.586 0 0 0-.125.154 2.878 2.878 0 0 0-.184.262 1.983 1.983 0 0 0-.178.369 1.596 1.596 0 0 0-.082.37 4.916 4.916 0 0 0-.032.697c.005.168.017.335.035.501a8.627 8.627 0 0 0 .195 1.059 10.195 10.195 0 0 0 .354 1.13c.046.123.094.246.144.368zm29.038-5.54-.058-.089a7.006 7.006 0 0 0-.256-.367 3.558 3.558 0 0 0-.247-.285 1.73 1.73 0 0 0-.47-.343 1.23 1.23 0 0 0-.347-.102 2.028 2.028 0 0 0-.229-.024l-.02-.001-.062-.003a.704.704 0 0 1-.12-.016 1.182 1.182 0 0 1-.254-.128.682.682 0 0 1-.157-.162.939.939 0 0 1-.081-.147 2.04 2.04 0 0 1-.05-.121l-.028-.072-.016-.042a2.141 2.141 0 0 0-.027-.063.556.556 0 0 0-.109-.166.412.412 0 0 0-.123-.084.38.38 0 0 0-.13-.03c-.013 0-.028-.002-.042-.004a.208.208 0 0 1-.13-.05.384.384 0 0 1-.043-.044 1.256 1.256 0 0 1-.077-.103l-.014-.02c-.026-.037-.05-.075-.077-.111a2.497 2.497 0 0 0-.078-.107 1.397 1.397 0 0 0-.133-.148 1.037 1.037 0 0 0-.114-.094.3.3 0 0 1-.076-.172.462.462 0 0 1 .001-.138.522.522 0 0 1 .15-.294l.01-.01.01-.009c.008-.01.018-.02.024-.032a.103.103 0 0 0 .01-.039c0-.013-.004-.026-.006-.04l-.001-.003a.73.73 0 0 0-.109-.201 1.4 1.4 0 0 0-.138-.166l-.018-.02-.077-.08a1.493 1.493 0 0 1-.072-.083.563.563 0 0 1-.062-.094.19.19 0 0 1-.009-.04.545.545 0 0 1-.005-.058v-.017c-.002-.058-.001-.116-.01-.173a.412.412 0 0 0-.027-.09.38.38 0 0 0-.04-.063 1.041 1.041 0 0 0-.079-.094 1.851 1.851 0 0 1-.148-.17.432.432 0 0 1-.042-.076.103.103 0 0 1-.005-.022v-.016a.046.046 0 0 1 .008-.015.093.093 0 0 1 .029-.028.12.12 0 0 1 .034-.013.25.25 0 0 1 .06-.006c.032 0 .064.004.095.009a1.7 1.7 0 0 1 .169.04l.1.028c.045.012.09.024.137.032a.496.496 0 0 0 .103.005.399.399 0 0 0 .099-.027l.053-.021a.516.516 0 0 1 .059-.018h.002a2.066 2.066 0 0 1 .194.085 3.673 3.673 0 0 1 .482.279 2.358 2.358 0 0 1 .315.266 1.25 1.25 0 0 1 .122.15.191.191 0 0 1-.022.022.19.19 0 0 1-.035.022l-.012.006-.064.031a.29.29 0 0 0-.083.075.38.38 0 0 0-.063.166.872.872 0 0 0 .082.547.81.81 0 0 0 .34.342c.057.032.117.059.18.08a1.344 1.344 0 0 0 .281.062l.02.003c.005 0 .01.002.014.004a.028.028 0 0 1 .008.007.133.133 0 0 1 .014.03.256.256 0 0 1 .01.043.423.423 0 0 1 .005.05.929.929 0 0 1 .003.093v.155c0 .04 0 .08.002.119a.89.89 0 0 0 .012.101.545.545 0 0 0 .045.139.438.438 0 0 0 .027.046 1.219 1.219 0 0 0 .117.155 4.386 4.386 0 0 0 .367.378c.123.115.249.225.376.335l.05.043.128.108.024.02a.249.249 0 0 1 .027.035 1.182 1.182 0 0 1 .067.15c.012.037.024.073.034.11a3.976 3.976 0 0 1 .088.344c.033.15.062.3.091.452l.017.087zm-27.895-4.32a.103.103 0 0 1-.021-.073c.002-.022.01-.035.02-.054.002-.007.005-.013.009-.02l.018-.038a10.036 10.036 0 0 0 .138-.307 4.89 4.89 0 0 0 .157-.432 2.884 2.884 0 0 0 .077-.329l.009-.065a1.291 1.291 0 0 0-.026-.48.946.946 0 0 0-.154-.314 1.602 1.602 0 0 0-.219-.24 3.8 3.8 0 0 0-.29-.237l-.004-.003-.002.006a4.582 4.582 0 0 1-.109.304 5.842 5.842 0 0 1-.151.351l-.034.069-.024.047a9.666 9.666 0 0 0-.377.885c-.1.265-.188.534-.264.807a8.73 8.73 0 0 0-.171.723 6.744 6.744 0 0 0-.102.763 5.936 5.936 0 0 0-.009.59l.006.114c.02.269.065.537.152.792a2.552 2.552 0 0 0 .223.48c.06.1.128.196.2.287a4.14 4.14 0 0 0 .291.33l.004-.005a4.105 4.105 0 0 0 .203-.274 10.28 10.28 0 0 1-.029-.842c.001-.206.008-.412.022-.618.021-.324.059-.648.116-.969.051-.29.119-.576.206-.858.04-.131.085-.261.135-.39zm.372 3.907.004-.005a4.572 4.572 0 0 1 .13-.198 7.743 7.743 0 0 1 .268-.366l.059-.078c.096-.126.194-.252.289-.38l.12-.163c.136-.188.266-.382.381-.583.077-.134.147-.272.21-.413a3.428 3.428 0 0 0 .288-1.116v-.02c.079-.085.161-.167.25-.242a2.3 2.3 0 0 1 1.051-.527 3.35 3.35 0 0 1 .306-.054l.109-.014.044-.007-.007.014a14.981 14.981 0 0 1-.116.228l-.041.08-.227.433a16.11 16.11 0 0 0-.198.4l-.027.057-.068.142a9.47 9.47 0 0 1-.266.525c-.072.13-.15.258-.229.385l-.196.31-.085.131a2.216 2.216 0 0 1-.314.369c-.064.06-.13.118-.199.174-.08.064-.161.125-.245.184-.109.076-.22.149-.335.219a9.065 9.065 0 0 1-.37.213c-.192.106-.388.206-.586.302zm-.634-.553a2.217 2.217 0 0 0 .056-.123c.042-.1.062-.161.118-.164.05-.002.067.117.096.247l.058.27.04.184.029.134a4.824 4.824 0 0 1 .223-.346 8.144 8.144 0 0 1 .228-.312l.226-.296.06-.08c.121-.159.24-.32.352-.485.125-.185.241-.377.34-.577a3.72 3.72 0 0 0 .26-.687 3.23 3.23 0 0 0 .099-.65l.005-.122c.008-.156.014-.313.021-.47a41.189 41.189 0 0 1 .034-.606c.01-.135.021-.27.037-.403a5.65 5.65 0 0 1 .078-.497 3.94 3.94 0 0 1 .188-.632c.014-.035.028-.069.043-.102l.002-.005-.012.009c-.071.053-.143.106-.213.16-.057.042-.114.086-.17.13a7.615 7.615 0 0 0-.877.77 4.76 4.76 0 0 0-.261.3 3.997 3.997 0 0 0-.412.635 3.703 3.703 0 0 0-.093.196 5.353 5.353 0 0 0-.279.782c-.055.195-.1.394-.138.594a8.288 8.288 0 0 0-.099.685 9.527 9.527 0 0 0-.042 1.4l.003.061-.006.013-.001.002.007-.015zm25.714-5.787a.034.034 0 0 0-.013.003.152.152 0 0 0-.043.033.066.066 0 0 0-.008.016.265.265 0 0 0-.01.058.493.493 0 0 0 .004.087 1.525 1.525 0 0 0 .017.132l.015.1.004.03a3.785 3.785 0 0 1 .028.267 1.308 1.308 0 0 1-.003.131 7.705 7.705 0 0 1-.01.16l-.017.199a8.715 8.715 0 0 0-.017.28 3.594 3.594 0 0 0-.003.26l.005.004c.023.02.047.038.071.055l.088.064a4.362 4.362 0 0 1 .13.097 1.698 1.698 0 0 1 .153.138.775.775 0 0 1 .044.052.386.386 0 0 1 .074.161.218.218 0 0 1 .002.063.225.225 0 0 1-.036.103.303.303 0 0 1-.065.074.37.37 0 0 1-.07.048c-.018.01-.038.019-.058.028a.256.256 0 0 0-.01.005.08.08 0 0 0-.023.016.065.065 0 0 0-.009.011.154.154 0 0 0-.016.044.672.672 0 0 0 .046.429.602.602 0 0 0 .205.238.88.88 0 0 0 .293.128 1.263 1.263 0 0 0 .154.028l.025.003a.3.3 0 0 1 .073.022.23.23 0 0 1 .086.073.358.358 0 0 1 .061.168.665.665 0 0 1 .007.069 1.21 1.21 0 0 1 .003.131v.138a1.285 1.285 0 0 0 .013.18.323.323 0 0 0 .021.066l.01.018a.993.993 0 0 0 .072.1 3.725 3.725 0 0 0 .219.243c.077.079.157.154.239.229.114.105.232.207.35.308l.15.128a.271.271 0 0 1 .052.058.546.546 0 0 1 .069.127 2.427 2.427 0 0 1 .11.337c.026.106.05.211.073.318v-.031a2.903 2.903 0 0 1 .01-.246l.009-.078.005-.059a23.838 23.838 0 0 0 .055-.669 20.414 20.414 0 0 0 .04-.924 10.556 10.556 0 0 0-.009-.597 3.789 3.789 0 0 0-.022-.248 1.099 1.099 0 0 0-.027-.127.109.109 0 0 0-.021-.034.184.184 0 0 0-.04-.033.571.571 0 0 0-.059-.03l-.042-.02a.745.745 0 0 1-.056-.028.307.307 0 0 1-.067-.05.215.215 0 0 1-.055-.09.517.517 0 0 1-.023-.316 1.113 1.113 0 0 1 .106-.28l.04-.083a2.18 2.18 0 0 0 .04-.085l.027-.075a.362.362 0 0 0 .019-.119.231.231 0 0 0-.025-.095.2.2 0 0 0-.026-.036.616.616 0 0 0-.102-.083 1.092 1.092 0 0 0-.144-.078 2.687 2.687 0 0 0-.211-.09l-.168-.066-.044-.018a4.513 4.513 0 0 1-.228-.1 1.076 1.076 0 0 1-.16-.102.395.395 0 0 1-.046-.047.335.335 0 0 1-.057-.11.523.523 0 0 1-.02-.1 1.483 1.483 0 0 1-.007-.191 1.097 1.097 0 0 0-.007-.104.29.29 0 0 0-.01-.04.146.146 0 0 0-.012-.03.103.103 0 0 0-.025-.029.363.363 0 0 0-.068-.05.9.9 0 0 0-.146-.073 2.385 2.385 0 0 0-.101-.04c-.082-.03-.166-.058-.249-.086a.416.416 0 0 1-.337-.143.504.504 0 0 1-.08-.083c-.032-.037-.06-.078-.088-.117l-.017-.023a.836.836 0 0 0-.067-.08.144.144 0 0 0-.023-.016.048.048 0 0 0-.014-.006h-.003zm3.242 5.754.032-.311a24.849 24.849 0 0 1 .03-.257c.006-.051.013-.103.022-.154l.001-.006a.31.31 0 0 1 .061-.12.83.83 0 0 1 .09-.09l.043-.04a.723.723 0 0 0 .098-.101.288.288 0 0 0 .052-.103l.003-.016.002-.014.003-.019c.01-.056.022-.112.04-.166a1.005 1.005 0 0 1 .126-.268c.02-.03.042-.059.063-.088l.011-.017a.473.473 0 0 0 .051-.1.349.349 0 0 0 .01-.14.385.385 0 0 0-.016-.085 1.482 1.482 0 0 0-.124-.287 5.498 5.498 0 0 0-.066-.122l-.1-.175a42.788 42.788 0 0 1-.093-.17 1.36 1.36 0 0 1-.094-.204.594.594 0 0 1-.03-.112.396.396 0 0 1 .005-.143.294.294 0 0 1 .116-.174l.06-.042a.54.54 0 0 0 .032-.026v-.008a1.716 1.716 0 0 0-.023-.282 3.27 3.27 0 0 0-.114-.504 1.526 1.526 0 0 0-.088-.21.435.435 0 0 0-.057-.078l-.012-.01-.016-.014a.947.947 0 0 0-.114-.081.3.3 0 0 0-.095-.033.48.48 0 0 0-.038-.002l-.026-.001a.713.713 0 0 1-.06-.006.335.335 0 0 1-.154-.068.453.453 0 0 1-.045-.038.46.46 0 0 1-.084-.126.84.84 0 0 1-.04-.101 1.394 1.394 0 0 1-.048-.202 4.66 4.66 0 0 1-.02-.111l-.02-.125a3.317 3.317 0 0 0-.018-.105 1.013 1.013 0 0 0-.033-.128.183.183 0 0 0-.013-.026l-.008-.012a.411.411 0 0 0-.13-.11.612.612 0 0 0-.165-.068.408.408 0 0 0-.082-.01H37.8a.188.188 0 0 0-.04.003.07.07 0 0 0-.022.009.052.052 0 0 0-.005.01.372.372 0 0 0-.013.064 1.337 1.337 0 0 0-.006.077l-.004.079-.003.036a1.903 1.903 0 0 1-.021.177c-.01.05-.024.1-.043.147a.616.616 0 0 1-.127.194.406.406 0 0 1-.068.05.6.6 0 0 1-.136.057c-.039.012-.079.021-.118.03a2.258 2.258 0 0 0-.071.02.302.302 0 0 0-.05.025c.01.036.015.072.018.11.005.057.004.115.005.172v.021a.623.623 0 0 0 .017.127.145.145 0 0 0 .025.044.376.376 0 0 0 .079.059.972.972 0 0 0 .135.068l.1.042.209.082a21.695 21.695 0 0 1 .17.07 2.654 2.654 0 0 1 .207.102c.04.023.079.048.115.076a.49.49 0 0 1 .148.186.44.44 0 0 1 .016.291.925.925 0 0 1-.05.146c-.026.06-.056.117-.084.176l-.011.024a1.84 1.84 0 0 0-.053.125.473.473 0 0 0-.03.194.31.31 0 0 0 .025.091l.004.008a.723.723 0 0 0 .07.04l.037.017.013.007a1.154 1.154 0 0 1 .087.048.37.37 0 0 1 .091.09.3.3 0 0 1 .028.05.475.475 0 0 1 .026.08 1.175 1.175 0 0 1 .03.204l.01.11a10.173 10.173 0 0 1 .013.576 14.77 14.77 0 0 1-.032.887 21.124 21.124 0 0 1-.073.907l-.005.047a.548.548 0 0 1 .143-.173.385.385 0 0 1 .094-.051.364.364 0 0 1 .127-.022l.041-.001h.016l.05.001zm-15.015-.504s-.998.465-1.66.034c-.3-.195-.489-.736-.287-1.438a.073.073 0 0 1 .143.01c.047.336.196.81.663.938.758.207 1.02-.304 1.104-.579a.041.041 0 0 1 .078 0c.092.272.365.78 1.099.579.467-.128.616-.602.662-.937a.074.074 0 0 1 .144-.01c.202.701.013 1.242-.286 1.436-.642.419-1.599-.005-1.658-.032l-.002-.001zm.013-17.334.003.007a2.047 2.047 0 0 0 .24.404c.082.106.172.206.267.3a4.597 4.597 0 0 0 .453.381 5.66 5.66 0 0 0 .58.375c.154.088.311.172.47.25.21.105.424.2.64.29a12.863 12.863 0 0 0 .823.31c.02.008.04.015.061.021l.103.035a13.942 13.942 0 0 1 1.297.51 18.601 18.601 0 0 1 1.61.813 20.208 20.208 0 0 1 1.196.729 17.104 17.104 0 0 1 .862.61 3.653 3.653 0 0 1 .371.328c.125.123.243.254.355.39.126.153.245.311.36.473.115.163.225.33.332.499.137.215.269.433.4.651l.083.141c.13.218.258.437.39.654.097.16.195.319.296.476a13.467 13.467 0 0 0 .414.607 8.548 8.548 0 0 0 .265.344 5.432 5.432 0 0 0 .903.887 3.843 3.843 0 0 0 .613.376l.136.062.029.012.03.012-.003.003a2.035 2.035 0 0 1-.336.222c-.1.054-.202.102-.306.146-.118.05-.239.093-.36.133-.183.06-.368.113-.553.163l-.276.075c-.126.034-.252.07-.377.108a4.081 4.081 0 0 0-.31.114c-.08.033-.157.072-.23.118a.902.902 0 0 0-.183.155l-.01.012-.024.03a1.72 1.72 0 0 1-.166.176 4.206 4.206 0 0 1-.846.62 4.072 4.072 0 0 1-.389.193 3.38 3.38 0 0 1-.359.131l-.016.005a15.774 15.774 0 0 0-.837-1.221 14.238 14.238 0 0 0-.968-1.141 11.742 11.742 0 0 0-2.19-1.819 10.115 10.115 0 0 0-1.036-.574 9.226 9.226 0 0 0-.909-.376 8.467 8.467 0 0 0-2.73-.492h-.158a9.444 9.444 0 0 0-.616.024 8.475 8.475 0 0 0-2.215.474 9.233 9.233 0 0 0-1.506.69 10.06 10.06 0 0 0-.755.475 11.8 11.8 0 0 0-2.144 1.911 13.706 13.706 0 0 0-.693.845 14.931 14.931 0 0 0-.813 1.186l-.01.015-.002-.001a4.806 4.806 0 0 1-.335-.232 9.541 9.541 0 0 1-.857-.754 4.388 4.388 0 0 1-.185-.2l-.016-.02-.017-.02a.897.897 0 0 0-.075-.083 1.657 1.657 0 0 0-.167-.145 2.938 2.938 0 0 0-.207-.144 5.382 5.382 0 0 0-.205-.123 11.662 11.662 0 0 0-.291-.162l-.07-.038c-.147-.078-.294-.156-.44-.236-.182-.098-.361-.2-.536-.31a5.96 5.96 0 0 1-.313-.208 4.243 4.243 0 0 1-.275-.214h.003a.892.892 0 0 0 .213-.097c.059-.035.115-.074.17-.116a2.71 2.71 0 0 0 .208-.18c.075-.072.146-.146.216-.222.107-.116.21-.238.309-.361.106-.133.21-.268.312-.404.13-.176.258-.354.385-.533l.334-.48.127-.185c.207-.302.414-.605.623-.905.189-.27.38-.539.576-.803a18.208 18.208 0 0 1 .528-.673 9.16 9.16 0 0 1 .505-.552 4.523 4.523 0 0 1 .516-.442c.155-.12.311-.237.47-.352a11.26 11.26 0 0 1 1.499-.92c.338-.173.684-.33 1.036-.473a17.993 17.993 0 0 1 1.009-.377l.14-.048a27.887 27.887 0 0 0 .705-.255c.224-.086.447-.177.667-.274.164-.073.325-.149.484-.23a7.12 7.12 0 0 0 .61-.35 4.604 4.604 0 0 0 .44-.33 2.32 2.32 0 0 0 .575-.72 1.684 1.684 0 0 0 .072-.174V1.04l.001.001zm6.123 9.537c.218-.184.479-.25.57-.371 0 0 .26.194.202.398-.09.317-.626.333-.626.333.003-.107-.055-.23-.146-.36zm-12.784-3.99c.034.187.044.398.123.558.113.23.45.592.56.851.092.218.12.698.02.912-.454.975-1.076.957-1.26.977-.275.029-.448-.332-.574-.574-.126-.241-.192-.794-.23-.883-.036-.085-.039.186-.013.274.071.247.144 1.32.946 1.771.523.295 1.33-.382 1.398-1.076.029-.299.04-.89-.168-1.421-.244-.622-.683-1.182-.802-1.388zM31.52 9.422c-.214.375-.484.675-.867.583-.32-.39.41-1.275 1.08-2.145l.343-.285s-.049.12-.126.24c-.347.533-.9 1.126-.848 1.505.059.424.418.102.418.102zm-1.806-.34c-.136.268-.635.688-.904.539-.16-.16-.093-.508.123-.855.171-.276.425-.629.442-.711-.43.198-.774.482-1.558.401-1.025-.106-2.094-.537-2.832-1.084a.488.488 0 0 1-.216-.38c-.003-.252.358-.61.444-.673-.054.122-.087.232.008.38.246.386 1.492.982 2.508 1.252.588.157 1.109.203 1.476.06.406-.157.478-.338.695-.547.206-.196.458-.499.657-.545.4-.093 1.961.057 2.944.402l-.31.112s-.497-.142-1.076-.237c-.743-.121-1.595-.204-1.63-.166-.122.131-.33.342-.39.421-.384.508-.883 1.095-.825 1.473.07.446.444.158.444.158zm-13.07-.338c-.088-.296-.03-.563-.115-.713 0 0 .328-.117.514.05.288.262.048.741.048.741-.111-.064-.267-.083-.448-.078zm3.695-.192c-.055-.14.017-.598.128-.688.111-.09.414.057.524.14.118-.07.078-.468.171-.532.106-.07.41.03.464.165.053.133-.04.497-.154.583-.2.026-.376-.146-.496-.103-.045.115-.093.505-.179.564-.117-.053-.173-.123-.459-.129zm-.12-2.808c-.021.002-.009.189-.036.28-.054.178-.166.222-.222.422-.082.297.032.574-.044.85-.079.283-.343.636-.42.807a.391.391 0 0 0-.001.168c.189-.087.488-.346.545-.521.071-.217-.019-.626.026-.856.032-.162.192-.305.232-.447.038-.135.033-.31.017-.427-.014-.097-.077-.277-.098-.276zm3.774-2.725s-.112 1.016.276 1c.161-.007.148-.243.148-.243.3.161.204.684-.056.911-.1.088-.22.041-.36-.01 0 0-.187.404-.149.528.065.207.344.142.428.334.148.336.074.912-.055 1.286-.15.44-.545 1.124-1.318 1.139-.203.004-.889-.148-.81-1.275.076-1.094.447-1.618.447-1.618s.006.143-.058.326c-.1.287-.267.708-.253 1.06.015.345.164.655.492.743.392.104 1.199-.1 1.45-.693.156-.37.06-.417-.163-.483-.126-.037-.287-.05-.351-.232-.04-.115.008-.33.034-.469.04-.205.205-.473.184-.807-.029-.46.002-1.24.073-1.5.005-.017.031-.042.041.003zm-5.73 2.494c.01.208.021.533.08.734.094.324.368.882.47 1.147.033.087.07.265.11.416.003.01.022-.533-.086-.852-.094-.274-.268-.623-.369-.871-.072-.178-.204-.574-.204-.574zm2.515-1.483c-.013.225-.035.576.002.799.06.36.273.992.346 1.29.024.097.042.292.066.46.002.01.078-.572.004-.928-.064-.305-.2-.701-.274-.98-.053-.2-.144-.641-.144-.641zm9.163 1.91c.218-.184.479-.249.57-.371 0 0 .26.194.202.398-.09.318-.626.334-.626.334.003-.108-.055-.23-.146-.361zm-6.166-3.623c-.11.134-.07.42.064.413.144-.008.164-.104.197-.143.022.041.034.108.095.116.124.015.185-.217.173-.365-.001-.018-.05.169-.143.171-.054.002-.091-.071-.117-.126-.024.055-.092.159-.173.157-.05-.002-.093-.134-.096-.223z" fill="#fff"/>
</svg>
