<svg width="48" height="49" viewBox="0 0 48 49" fill="none" xmlns="http://www.w3.org/2000/svg">
    <path d="M23.184.81c.295-.172.545-.257.8-.257H24c.26.004.518.096.83.273L36.662 7.62a3.816 3.816 0 0 1 1.795 3.235v5.98l-14.554-8.37a.769.769 0 0 0-.367-.1.534.534 0 0 0-.254.061.471.471 0 0 0-.186.187.797.797 0 0 0-.088.392v9.565l-.088.011-.007.001-.095.013-.096.012-.013.002-.093.015-.092.014-.025.004-.095.017-.094.017-.005.001-.098.019-.096.02-.015.003-.093.02-.094.024-.008.001a8.785 8.785 0 0 0-1.7.596h-.003l-.086.042-.086.043-.013.005-.076.039-.077.04-.034.018-.075.04-.073.04-.026.014a5.521 5.521 0 0 0-.106.06l-.022.013-.02.012-.024.014-.076.045-.078.047-.01.007-.079.049-.078.05-.01.006a8.758 8.758 0 0 0-.935.696l-.002.001-.007.007-.07.06-.069.061-.01.01-.062.055-.062.056-.03.03-.06.056-.059.056-.022.021-.057.057-.057.058-.034.034-.05.051-.049.052-.048.051-.043.047-.043.047-.056.063-.04.046-.04.045-.042.05-.047.054-.045.054-.033.041-.047.059-.046.057-.026.035a8.208 8.208 0 0 0-.308.42l-.057.085-.057.084-.016.026-.069.106-.046.075-.05.082-.008.014v.001l-.046.076a2.613 2.613 0 0 0-.043.076l-.01.016-.003.007-.045.08-.028.05-.027.05-.044.084-.048.094-.046.092-.048.098-.04.087-.045.096-.032.072-.054.124-.036.09-.038.094-.03.075-.011.031-.005.014v.002l-.029.074c-.021.059-.04.109-.057.16l-.012.036-.03.09-.03.091-.028.093-.02.065-.018.064-.02.068-.008.032-.026.098-.023.09-.03.12-.019.085a4.05 4.05 0 0 0-.025.118l-.02.094-.022.118-.016.092-.02.116-.015.098-.017.117-.012.095-.013.116-.011.101-.01.117-.009.099-.007.11v.013l-.002.017-.005.076-.004.124v.021l-.003.074-.002.11-.001.109v.113l.003.114v.004l.003.11.006.114v.005l.006.107.008.113.01.113.01.107v.004c.014.146.034.294.056.442l.017.108.02.106v.006l.001.004.019.104.021.106v.003c.022.102.044.203.069.303l.015.06.015.06.001.004.028.106.03.104v.001c.011.041.024.082.036.122l.007.025.008.028.01.03v.004l.034.103.033.1.002.003.034.101.036.099h.001l.001.004.036.097.037.096.006.014.038.093.04.095.002.005.036.083-6.302 3.62V10.856c0-1.404.76-2.631 1.895-3.296l.065-.037L23.184.81z" fill="#fff"/>
    <path d="m24.995 11.3 20.583 11.822a3.82 3.82 0 0 1 1.922 3.281v13.5c.003.348-.05.61-.184.832-.133.222-.343.399-.653.578L34.83 48.11c-1.129.59-2.528.61-3.714-.071l-5.053-2.902-.152-.088.152-.087 14.412-8.267a.769.769 0 0 0 .27-.266.522.522 0 0 0 .074-.25.467.467 0 0 0-.07-.253.798.798 0 0 0-.297-.272l-8.25-4.739-.077-.044.035-.08.002-.008.038-.088.036-.089.039-.1.033-.086.008-.023.034-.091.032-.09.002-.004.031-.094.031-.092.005-.015.03-.091.027-.091.002-.007a8.828 8.828 0 0 0 .332-1.764v-.003l.007-.094.006-.096v-.014l.006-.085.004-.087.001-.038.003-.084.002-.112v-.198l-.002-.088-.002-.09v-.013l-.003-.091-.004-.093-.001-.012a9.04 9.04 0 0 0-.139-1.154v-.002l-.002-.01-.018-.09-.019-.09-.002-.013-.018-.081-.018-.082-.01-.04-.018-.08-.02-.08-.008-.029-.042-.155-.013-.046-.02-.07-.04-.133-.02-.06-.02-.062-.026-.079-.04-.116-.022-.06-.024-.068-.025-.066-.019-.049-.027-.07-.027-.067-.017-.04a8.544 8.544 0 0 0-.212-.476l-.09-.183h-.001v-.001l-.014-.025-.029-.057-.03-.056-.041-.077-.046-.083-.008-.015h-.001l-.044-.078-.053-.091-.005-.008-.047-.079-.03-.047-.03-.05-.05-.079-.058-.089-.057-.085-.062-.09-.054-.079-.063-.086-.047-.063-.012-.016-.069-.092-.06-.077-.062-.08-.072-.088-.01-.012-.052-.062-.11-.13-.026-.028-.062-.07-.065-.072-.067-.07-.094-.099-.05-.05-.023-.023-.072-.072-.067-.064-.09-.086-.063-.059a4.702 4.702 0 0 0-.09-.08l-.073-.065-.091-.077-.073-.061-.09-.075-.078-.061-.094-.074-.076-.058-.094-.07-.084-.06-.096-.067-.082-.056-.08-.052-.013-.01-.01-.007-.014-.008-.064-.042-.106-.067-.08-.05-.095-.057-.095-.055-.099-.056-.1-.055-.004-.001-.097-.053-.102-.052-.001-.001-.004-.001-.096-.049-.102-.05-.103-.048-.098-.045-.005-.002a9.405 9.405 0 0 0-.413-.172l-.1-.038-.104-.038H27l-.003-.002-.003-.001-.1-.036-.104-.035h-.003a10.802 10.802 0 0 0-.298-.094l-.059-.016-.06-.017-.004-.002-.106-.028-.105-.027h-.002l-.15-.037-.029-.006-.03-.007-.004-.001-.106-.023-.104-.022h-.003l-.105-.02-.104-.02h-.005l-.102-.017-.103-.016-.014-.002-.1-.014-.103-.013-.006-.001-.09-.01V11.3z" fill="#fff"/>
    <path d="m7.625 20.134-.01 16.724a.758.758 0 0 0 .097.366.48.48 0 0 0 .436.255.814.814 0 0 0 .385-.12l8.327-4.782.054.07.005.005.058.076.059.076.007.01.06.074.058.072.016.02.063.073.061.072.004.004.065.074.065.073.011.012.065.07.066.07.005.005a8.778 8.778 0 0 0 1.37 1.168h.001l.08.054.08.053.01.008.073.047.073.046.033.021.072.044.072.043.024.015c.031.019.068.04.107.061l.02.013.022.012.023.013.078.044.08.042.01.007.082.043.083.042.01.005a8.684 8.684 0 0 0 1.074.458h.002l.01.004.087.03.088.03.013.003.08.025.079.025.04.013.079.022.079.023.03.008.077.021.079.02.047.013.07.017.068.017.069.015.125.027.082.017.061.012.06.012.064.011.07.013.07.012.052.008.075.01.072.012.044.006c.17.023.344.04.519.054l.103.008.102.006v-.001h.002l.028.002.064.003.063.002.088.003.096.002h.018l.09.001H24.116l.093-.002.114-.003.095-.004.106-.005.103-.006.11-.008.095-.008.106-.01.078-.01.02-.001.115-.014.198-.027.097-.016.016-.002.015-.003h.001l.079-.014c.062-.01.115-.02.168-.03l.037-.008.092-.018.095-.02.095-.023.067-.016.065-.016.07-.017.03-.009.1-.026.089-.025.12-.035.082-.025.116-.037.093-.031.113-.04.088-.031.11-.041.093-.037.112-.044.088-.037.107-.046.094-.042.106-.049.091-.043.086-.042.014-.007.011-.006.015-.007.068-.034.112-.058.018-.01.065-.034.097-.053.096-.055.098-.057.098-.06h.002l.095-.059.097-.061h.001l.003-.003.09-.059.095-.063.093-.065.088-.062.004-.003c.12-.085.238-.175.356-.269l.085-.068.084-.07.001-.002.003-.002.003-.002.08-.069.084-.072.001-.002c.079-.069.155-.138.23-.21l.045-.042.044-.043.003-.003.078-.078.076-.076.002-.001.105-.111.021-.022.02-.022.002-.002.001-.001.075-.08.07-.08.002-.002.07-.08.068-.08v-.001l.003-.003.066-.079.065-.08.01-.012.062-.08.063-.081.003-.005.054-.073.079.045 6.224 3.575-.151.087L16.88 48.04a3.862 3.862 0 0 1-3.818.016l-.064-.038L1.31 41.305c-.304-.172-.505-.348-.632-.575-.126-.225-.176-.494-.177-.851L.5 26.288a3.821 3.821 0 0 1 1.92-3.164l5.205-2.99z" fill="#fff"/>
    <path d="M24 34.27a7 7 0 1 1 .002-14.002 7 7 0 0 1-.003 14.001z" fill="#fff"/>
</svg>
