<svg width="48" height="49" viewBox="0 0 48 49" fill="none" xmlns="http://www.w3.org/2000/svg">
    <path d="M29.351 5.854 24.056.553l-13.66 13.642c-2.046 2.085-4.43 1.862-6.891 1.632l-.516-.048c2.523 5.73 9.177 7.351 13.081 3.425l13.281-13.35z" fill="#fff"/>
    <path d="M5.295 19.262 18.631 32.56c3.921 3.91 2.302 10.57-3.422 13.095l.047-.514c.23-2.464.454-4.85-1.63-6.9L0 24.564l5.295-5.302z" fill="#fff"/>
    <path d="m23.978 48.553-5.296-5.301L31.963 29.9c3.905-3.926 10.56-2.304 13.08 3.426l-.512-.048c-2.462-.23-4.846-.454-6.893 1.632l-13.66 13.642z" fill="#fff"/>
    <path d="m48 24.53-5.295 5.301-13.336-13.296c-3.92-3.909-2.301-10.57 3.422-13.095l-.047.515c-.23 2.464-.454 4.85 1.63 6.9L48 24.528zM24 17.053a7.5 7.5 0 1 0 0 15c4.141 0 7.5-3.356 7.5-7.499a7.502 7.502 0 0 0-7.5-7.501z" fill="#fff"/>
</svg>
