<svg width="48" height="49" viewBox="0 0 48 49" fill="none" xmlns="http://www.w3.org/2000/svg">
    <path d="M30.015 21.44c0-3.375-2.695-6.114-6.015-6.114s-6.015 2.739-6.015 6.113c0 3.374 2.695 6.114 6.015 6.114s6.015-2.74 6.015-6.114zM40.854 14.243c-2.6.706-7.416 3.458-9.724 4.829.084.262.155.532.211.806.227.002.474.002.737.003h.1c2.865-.002 7.617-.109 9.97-.747 1.332-.362 2.123-1.751 1.766-3.1a2.507 2.507 0 0 0-2.39-1.877h-.016c-.216 0-.435.027-.654.086zM5.852 19.134c2.6.705 8.131.762 10.807.744a7.68 7.68 0 0 1 .211-.806c-2.309-1.371-7.125-4.123-9.724-4.829-1.332-.361-2.703.44-3.06 1.79-.357 1.35.434 2.739 1.766 3.1zM7.548 13.345c2.236 1.514 7.451 3.368 9.992 4.223.14-.24.293-.473.458-.696-1.753-2.051-5.437-6.222-7.674-7.736a2.48 2.48 0 0 0-3.466.698 2.553 2.553 0 0 0 .69 3.511zM37.618 9.052c-2.235 1.521-5.915 5.707-7.66 7.76.166.22.32.451.463.69 2.538-.861 7.75-2.727 9.983-4.247a2.553 2.553 0 0 0 .681-3.513 2.48 2.48 0 0 0-3.467-.69zM11.03 8.375c1.63 2.166 5.963 5.63 8.094 7.275.21-.182.43-.353.658-.512-1.002-2.519-3.149-7.667-4.778-9.832a2.478 2.478 0 0 0-3.501-.478 2.554 2.554 0 0 0-.473 3.547zM32.976 5.26c-1.636 2.172-3.794 7.344-4.793 9.854.226.155.443.322.651.5 2.127-1.64 6.48-5.112 8.115-7.282.836-1.11.625-2.7-.471-3.548a2.478 2.478 0 0 0-3.502.477zM15.852 4.85c.857 2.578 3.858 7.26 5.357 9.514.257-.105.52-.196.79-.272-.151-2.714-.554-8.28-1.41-10.857-.44-1.324-1.859-2.037-3.166-1.591-1.307.446-2.01 1.882-1.57 3.206zM27.408 3.235C26.552 5.812 26.15 11.377 26 14.092c.27.076.534.166.79.271 1.5-2.255 4.5-6.936 5.356-9.514.44-1.324-.265-2.76-1.572-3.206-1.307-.446-2.725.268-3.165 1.592zM21.501 3.084c0 2.72 1.37 8.123 2.081 10.745a7.504 7.504 0 0 1 .836 0c.71-2.622 2.08-8.026 2.08-10.745C26.499 1.687 25.38.553 24 .553c-1.379 0-2.499 1.134-2.499 2.531zM31.333 45.698a.987.987 0 0 1 .289.697v1.172a.987.987 0 0 1-.985.986H17.931a.984.984 0 0 1-.984-.986v-1.172a.986.986 0 0 1 .985-.986h12.705c.261 0 .512.104.696.29zM24.73 31.546s4.634-5.222 9.027-7.69c5.183-2.911 12.993-2.235 12.993-2.235s-6.212 1.872-9.958 7.364c-3.356 4.92-5.439 15.097-5.439 15.097s-3.135-7.64-6.623-12.536zM16.976 43.973h12.567c-.004-.01-5.25-10.359-8.828-14.871-7.378-9.301-19.465-7.3-19.465-7.3s6.419 2.65 9.743 6.91c1.756 2.25 2.892 6.336 3.59 9.776.644 3.177 2.393 5.485 2.393 5.485z" fill="#fff"/>
</svg>
