<svg width="48" height="49" viewBox="0 0 48 49" fill="none" xmlns="http://www.w3.org/2000/svg">
<path fill-rule="evenodd" clip-rule="evenodd" d="M5.97283 41.6912C4.15453 41.2509 2.40183 40.0922 1.03703 37.7517C-1.36707 33.6287 0.946326 29.5599 2.56393 26.7744C-2.39077 37.1072 4.30513 40.2689 12.2331 33.3099C12.2331 33.3099 21.9412 23.59 24.6541 20.8738C25.9084 19.618 27.7771 18.7856 29.6363 19.0021C32.411 19.3254 34.2759 20.9078 35.3979 21.3889C36.134 21.7045 36.8017 21.2432 36.5483 20.6316C36.2903 20.0089 35.7411 19.3446 34.7013 18.3035C31.6171 15.2148 27.8322 11.6133 27.8322 11.6133C25.6314 9.49537 24.7547 7.56707 24.875 5.67213C25.0657 2.66894 27.8554 0.881745 29.7377 0.802734C28.5942 2.16393 28.6931 3.32676 29.363 4.17404C29.363 4.17404 39.933 14.7588 40.1938 15.02C41.531 16.359 43.2504 21.9446 38.3612 23.404C37.7723 23.5797 37.1855 23.5684 36.5181 23.3753C34.7787 22.8719 32.1454 22.3932 30.3506 24.1583C27.112 27.3435 16.724 37.8461 15.8188 38.7104C14.9136 39.5748 12.1832 41.7221 8.28033 41.8998C9.21513 45.2091 13.7358 44.7738 19.0356 40.1218C19.0356 40.1218 28.7437 30.4019 31.4565 27.6859C32.7109 26.4299 34.5673 25.7859 36.4387 25.8141C37.811 25.8349 38.8101 26.2003 39.5722 26.7497C41.1198 27.8656 41.6719 28.9282 41.8946 30.113C40.0937 29.068 38.9479 29.2051 37.1531 30.9702C34.5552 33.5253 27.715 40.4032 25.1102 43.0246C25.1242 43.2999 25.2139 43.5476 25.4403 43.7207C26.2393 44.3317 28.0772 44.3436 28.9453 43.4745C32.0331 40.3829 36.7184 35.6919 38.4741 33.9342C39.7284 32.6782 41.3561 31.9354 43.2276 31.9636C44.5998 31.9844 45.1138 32.2949 45.8759 32.8444C47.4235 33.9602 47.7772 35.4103 48 36.5952C46.3746 35.4472 45.4823 35.9286 44.1706 37.2186C42.273 39.0849 38.1119 43.2577 34.9913 46.3933C33.9059 47.4839 31.0771 48.8877 27.8784 47.7546C26.0764 47.1162 24.8576 45.1981 24.0802 44.0717C23.8642 44.8502 13.4109 53.1013 7.37583 44.2112C6.78556 43.3417 6.36157 42.5431 5.97283 41.6912ZM9.79393 21.9037C9.49213 21.3527 9.32043 20.7204 9.32043 20.0482C9.32043 17.9142 11.0505 16.1817 13.1815 16.1817C15.3125 16.1817 17.0426 17.9142 17.0426 20.0482C17.0426 22.1822 15.3125 23.9147 13.1815 23.9147C12.5103 23.9147 11.8788 23.7427 11.3286 23.4405C11.6304 23.9915 11.8021 24.6239 11.8021 25.296C11.8021 27.43 10.072 29.1625 7.94103 29.1625C5.81003 29.1625 4.07993 27.43 4.07993 25.296C4.07993 23.162 5.81003 21.4295 7.94103 21.4295C8.61233 21.4295 9.24373 21.6015 9.79393 21.9037Z" fill="white"/>
</svg>
