<svg width="48" height="49" viewBox="0 0 48 49" fill="none" xmlns="http://www.w3.org/2000/svg">
<path fill-rule="evenodd" clip-rule="evenodd" d="M7.64991 35.5161C4.52029 31.9046 2.59442 27.2466 2.50337 22.145C2.29492 10.4705 11.7753 0.766841 23.6205 0.556089L24.0752 0.552734L24.3795 0.556089C36.2242 0.766841 45.7051 10.4705 45.4966 22.145C45.4056 27.2466 43.4797 31.9046 40.3501 35.5156C40.8858 35.8425 41.3497 36.3519 41.7048 37.0568C42.1082 37.8516 42.0862 38.7949 41.654 39.5586C40.9309 40.8571 40.1172 42.5617 39.4137 43.9954C38.9312 44.978 38.4927 45.8434 38.0571 46.4351C37.5717 47.0936 37.0312 47.497 36.5007 47.6862C35.1753 48.2501 33.8546 48.5349 32.5392 48.5526C32.4525 48.5536 32.3662 48.5483 32.2809 48.5359C30.3397 48.2611 29.2323 47.4162 28.757 46.2592C27.2049 45.647 25.6245 45.3149 24.0043 45.3135C24.0043 45.3135 23.9564 45.3135 23.9578 45.3135C22.3477 45.3206 20.7813 45.6523 19.2431 46.2587C18.7677 47.4162 17.6603 48.2611 15.7191 48.5359C15.6333 48.5483 15.547 48.5536 15.4608 48.5526C14.1454 48.5349 12.8247 48.2501 11.4993 47.6862C10.9688 47.497 10.4278 47.0936 9.94286 46.4351C9.5068 45.8434 9.06834 44.978 8.58627 43.9954C7.88281 42.5617 7.06913 40.8571 6.35178 39.5691C5.91284 38.7935 5.89225 37.8501 6.29238 37.0621C6.6489 36.3543 7.11369 35.8435 7.64991 35.5161ZM8.89056 35.8124C5.45858 32.2291 3.31656 27.4282 3.22216 22.1321C3.02042 10.85 12.1865 1.47604 23.6334 1.27293L24.0805 1.26958L24.3666 1.27293C35.8135 1.47604 44.9796 10.85 44.7778 22.1321C44.6834 27.4282 42.541 32.2291 39.109 35.8129C39.914 35.9362 40.5978 36.4566 41.0636 37.3809C41.3583 37.961 41.343 38.6497 41.0253 39.2107C40.2969 40.5187 39.4765 42.2358 38.7678 43.6805C38.3078 44.6176 37.8937 45.4458 37.4778 46.0107C37.0887 46.5388 36.6646 46.8719 36.2391 47.0181C34.9975 47.549 33.7612 47.8195 32.5297 47.8358C32.4803 47.8363 32.4309 47.8334 32.382 47.8262C30.622 47.5772 29.6497 46.8179 29.3267 45.7163C27.5906 44.9909 25.8214 44.598 24.0024 44.5966H23.9545C22.1489 44.6047 20.3946 44.9971 18.6728 45.7163C18.3498 46.8179 17.378 47.5772 15.618 47.8262C15.5691 47.8334 15.5197 47.8363 15.4703 47.8358C14.2383 47.8195 13.002 47.549 11.7604 47.0181C11.3354 46.8719 10.9113 46.5388 10.5222 46.0107C10.1063 45.4458 9.69224 44.6176 9.23174 43.68C8.52301 42.2358 7.70264 40.5187 6.97762 39.2165C6.65704 38.6501 6.64171 37.9615 6.93498 37.3842C7.40171 36.4571 8.086 35.9362 8.89056 35.8124Z" fill="white"/>
<path fill-rule="evenodd" clip-rule="evenodd" d="M23.9503 43.6415C21.8529 43.6511 19.8202 44.1414 17.8272 45.0418C17.7391 46.0582 16.958 46.6719 15.483 46.8812C14.3598 46.8659 13.2327 46.614 12.1004 46.1247C11.3917 45.911 10.8104 44.7235 10.0926 43.2611C9.37666 41.8021 8.54764 40.0683 7.81207 38.7474C7.64915 38.4592 7.641 38.1089 7.79099 37.814C8.22945 36.9433 8.94873 36.5959 9.78731 36.8076C10.0044 36.8621 10.1879 37.0069 10.291 37.2052C10.4141 37.4427 10.5727 37.7486 10.5727 37.7486C11.4698 38.0425 12.3845 38.2795 13.3377 38.3947L13.4556 38.2967C13.4297 38.2819 13.4052 38.2642 13.3808 38.2494C7.95681 34.842 4.30151 28.9065 4.18028 22.1161C3.98764 11.3572 12.7344 2.42344 23.6499 2.22941L24.0869 2.22607C24.1741 2.22655 24.2618 2.22798 24.349 2.22941C35.2651 2.42344 44.0118 11.3572 43.8191 22.1161C43.6979 28.9065 40.0426 34.842 34.6186 38.2494C34.5942 38.2642 34.5698 38.2819 34.5439 38.2967L34.6618 38.3947C35.6149 38.2795 36.5297 38.0425 37.4267 37.7486C37.4267 37.7486 37.5853 37.4427 37.7085 37.2052C37.8115 37.0069 37.995 36.8621 38.2121 36.8076C39.0507 36.5959 39.77 36.9433 40.2084 37.814C40.3584 38.1089 40.3503 38.4592 40.1874 38.7474C39.4518 40.0683 38.6228 41.8021 37.9069 43.2611C37.189 44.7235 36.6078 45.911 35.8991 46.1247C34.7667 46.614 33.6397 46.8659 32.5164 46.8812C31.0415 46.6719 30.2604 46.0582 30.1722 45.0418C28.1634 44.1342 26.1144 43.6434 23.9997 43.6415H23.9503ZM10.8617 38.5189C10.8617 38.5189 11.3869 39.9631 11.6691 40.6781C12.0347 41.6023 13.0535 44.0649 13.0535 44.0649C13.2921 44.648 13.7771 45.0886 12.5278 45.7438C12.5432 45.7877 12.558 45.8307 12.5743 45.8886C13.34 46.1385 14.032 46.3746 14.7499 46.3617C14.8361 46.3163 14.9238 46.2852 14.9971 46.2547L11.5747 39.2171C11.2148 38.4769 11.118 38.4377 10.8617 38.5189ZM37.1378 38.5189C37.1378 38.5189 36.6126 39.9631 36.3303 40.6781C35.9647 41.6023 34.9459 44.0649 34.9459 44.0649C34.7073 44.648 34.2223 45.0886 35.4716 45.7438C35.4563 45.7877 35.4414 45.8307 35.4251 45.8886C34.6594 46.1385 33.9674 46.3746 33.2496 46.3617C33.1633 46.3163 33.0756 46.2852 33.0023 46.2547L36.4247 39.2171C36.7846 38.4769 36.8814 38.4377 37.1378 38.5189ZM32.4886 37.7271C30.084 36.4258 27.0507 35.9125 23.9997 35.998L23.8962 35.9956C19.525 35.8919 15.2041 37.0227 12.732 39.9455C12.685 40.3287 14.9319 44.5935 15.4025 45.2114C15.611 45.4126 15.6848 45.4403 15.8616 45.4661C17.9341 43.7132 20.9607 42.971 23.9997 43.0131L24.0711 43.0121C27.0862 42.983 30.0812 43.7266 32.1379 45.4661C32.3147 45.4403 32.3885 45.4126 32.5969 45.2114C33.0675 44.5935 35.3144 40.3287 35.2675 39.9455C34.5161 39.0566 33.5937 38.334 32.5509 37.761C32.5342 37.7854 32.4996 37.8231 32.4469 37.8733C32.3094 38.0028 32.1575 38.1232 31.9912 38.2322C31.8235 38.3431 31.6529 38.431 31.4785 38.4989L31.0448 38.6771C30.8987 38.7211 30.7496 38.766 30.6001 38.8105C30.4511 38.8568 30.3016 38.895 30.1516 38.9266C30.1406 38.9294 30.1305 38.9323 30.1209 38.9347L29.9594 39.1751C29.8885 39.2879 29.8195 39.4007 29.752 39.5149L29.6417 39.7156C29.5617 39.8547 29.4903 39.998 29.429 40.1481C29.3672 40.2977 29.3101 40.4468 29.2565 40.5959L29.2555 40.5978C29.1875 40.7856 29.1611 40.9338 29.1755 41.0432C29.1903 41.1531 29.2522 41.2277 29.3619 41.2673C29.4012 41.2817 29.4386 41.2826 29.4731 41.2707C29.5071 41.2587 29.5392 41.2401 29.5684 41.2152C29.5981 41.1904 29.6255 41.1622 29.6499 41.1302C29.6748 41.0977 29.6959 41.068 29.7131 41.0408C29.7448 40.9959 29.7687 40.9782 29.7855 40.9882C29.8027 40.9978 29.8042 41.0226 29.7898 41.0623C29.751 41.1493 29.6993 41.2482 29.6346 41.3596C29.5699 41.4709 29.4975 41.5727 29.417 41.6654C29.337 41.7576 29.2526 41.8293 29.1649 41.88C29.0772 41.9306 28.9905 41.9407 28.9043 41.9096C28.8118 41.8762 28.748 41.8241 28.7135 41.7538C28.679 41.6836 28.6613 41.6052 28.6604 41.5192C28.6599 41.4332 28.6719 41.3466 28.6953 41.2601C28.7193 41.1732 28.7428 41.0986 28.7653 41.0355L28.7663 41.0351C28.8051 40.9366 28.8496 40.8353 28.899 40.7283C28.9488 40.6207 28.9972 40.5161 29.0423 40.4119C29.0653 40.3684 29.0758 40.3383 29.0739 40.3225C29.0715 40.3068 29.0408 40.3211 28.9809 40.3627C28.8175 40.4831 28.656 40.5858 28.4974 40.6738C28.3393 40.7603 28.1692 40.8286 27.9904 40.8797C27.7254 40.9567 27.4542 40.9949 27.1753 40.9935C26.8969 40.9925 26.6171 40.9615 26.3348 40.9013C26.1163 40.8554 25.8949 40.7961 25.6731 40.7216C25.4502 40.6475 25.2221 40.5548 24.9888 40.4453C24.8858 40.3971 24.7961 40.345 24.7175 40.2915C24.6404 40.237 24.5776 40.1744 24.5316 40.1013C24.4851 40.0281 24.4545 39.9426 24.4415 39.8446C24.4286 39.7467 24.4386 39.631 24.4717 39.4972C24.4942 39.4121 24.5263 39.3252 24.5666 39.2363C24.6049 39.1483 24.649 39.0642 24.6974 38.9844C24.7405 38.9132 24.7755 38.8831 24.8005 38.8917C24.8244 38.9008 24.8254 38.9486 24.8024 39.0327C24.7822 39.1115 24.7765 39.1842 24.7851 39.2511C24.7942 39.318 24.8225 39.3801 24.8694 39.4389C24.9873 39.5784 25.1287 39.6869 25.2935 39.7643C25.4589 39.8422 25.6251 39.9134 25.7929 39.9775C26.4 40.215 27.0713 40.344 27.805 40.3651C27.9535 40.3698 28.0997 40.3627 28.2425 40.3435C28.3867 40.324 28.5262 40.2867 28.6632 40.2312C28.8726 40.149 29.048 40.0358 29.188 39.891C29.3284 39.7447 29.3638 39.7166 29.4798 39.523C29.5042 39.4767 29.5315 39.437 29.5622 39.404L29.8598 39.0996C29.9106 39.0484 29.9637 38.9983 30.0188 38.949C30.0093 38.9419 30.0294 38.9132 30.0792 38.8621C30.1439 38.8066 30.2086 38.7498 30.2728 38.691C30.3375 38.6322 30.4099 38.5844 30.4889 38.5495C30.556 38.5218 30.6442 38.4864 30.7554 38.4439C30.8527 38.4066 31.3357 38.2356 31.4794 38.1782C31.7674 38.0621 32.0521 37.9345 32.3353 37.794L32.4886 37.7271ZM35.6484 45.3705C35.4807 45.2912 35.2325 45.156 35.2382 44.864C35.6067 44.7541 36.0749 44.733 36.2556 45.3194C36.0754 45.4518 35.7812 45.4331 35.6484 45.3705ZM12.351 45.3705C12.5187 45.2912 12.7669 45.156 12.7607 44.864C12.3927 44.7541 11.9245 44.733 11.7439 45.3194C11.924 45.4518 12.2183 45.4331 12.351 45.3705ZM9.66705 37.2549C8.81935 36.9878 8.18155 37.652 8.35166 38.3273L11.5345 44.8783C11.8517 44.4893 12.1651 44.4496 12.4756 44.431L9.66705 37.2549ZM38.3324 37.2549C39.1801 36.9878 39.8179 37.652 39.6478 38.3273L36.465 44.8783C36.1477 44.4893 35.8344 44.4496 35.5238 44.431L38.3324 37.2549ZM29.6192 43.1627C29.6374 43.113 29.716 43.0255 29.855 42.8998C29.9939 42.7741 30.0768 42.7163 30.1032 42.7259C30.1895 42.7569 30.258 42.8272 30.3083 42.9366C30.3581 43.0465 30.3691 43.1407 30.3404 43.22C30.314 43.2926 30.2436 43.371 30.1291 43.4551C30.0141 43.5388 29.9355 43.5732 29.8924 43.5579C29.8722 43.5507 29.819 43.4862 29.7313 43.3653C29.7012 43.3247 29.671 43.284 29.6408 43.2429C29.6182 43.2128 29.6111 43.1856 29.6192 43.1627ZM17.4506 43.2444C17.4482 43.2267 17.4817 43.1302 17.5517 42.9533C17.6216 42.777 17.6672 42.6871 17.6882 42.6838C17.7472 42.6742 17.8224 42.6996 17.9144 42.7598C18.0065 42.8238 18.0577 42.8883 18.0683 42.9543C18.0807 43.0308 18.0558 43.1345 17.9945 43.2649C17.9327 43.392 17.8843 43.4585 17.8498 43.4642C17.832 43.4666 17.8037 43.4561 17.7644 43.4322C17.7247 43.4083 17.6854 43.383 17.6456 43.3576C17.5996 43.34 17.557 43.3227 17.5167 43.306C17.4765 43.2888 17.4544 43.2683 17.4506 43.2444ZM16.9661 42.6537C16.9618 42.626 16.9977 42.517 17.0749 42.3268C17.1516 42.1371 17.2004 42.0401 17.221 42.0367C17.2666 42.03 17.3375 42.0506 17.4348 42.0993C17.5282 42.1486 17.5948 42.1987 17.6351 42.2494C17.6715 42.1653 17.7098 42.0807 17.7501 41.9961C17.8061 41.8766 17.8411 41.8164 17.855 41.814C17.9178 41.804 18.0002 41.8303 18.1028 41.8924C18.2068 41.9612 18.2642 42.032 18.2757 42.1051C18.2892 42.1882 18.2585 42.2981 18.1837 42.4343C18.1109 42.56 18.0553 42.6255 18.017 42.6317C17.9892 42.636 17.9413 42.6169 17.8742 42.5744C17.7783 42.5113 17.6998 42.4664 17.6389 42.4406C17.5421 42.7087 17.4539 42.8487 17.3739 42.8616C17.36 42.8635 17.2891 42.832 17.1607 42.767C17.0327 42.702 16.9676 42.6642 16.9661 42.6537ZM31.397 39.469C31.4013 39.4652 31.4056 39.4609 31.41 39.4571C31.4272 39.4408 31.4411 39.4308 31.4517 39.4269C31.4622 39.4236 31.467 39.4288 31.4656 39.4432C31.4641 39.458 31.4497 39.4862 31.4234 39.5287C31.2614 39.7997 31.11 40.0783 30.9686 40.3655C30.5891 41.1364 30.8651 40.571 30.6696 41.0537C30.6011 41.242 30.5747 41.3916 30.5891 41.5015C30.6039 41.6109 30.6658 41.686 30.7755 41.7252C30.8148 41.7395 30.8522 41.7404 30.8862 41.7285C30.9207 41.7165 30.9528 41.6984 30.982 41.6735C31.0117 41.6487 31.0391 41.62 31.064 41.588C31.0884 41.5555 31.1095 41.5259 31.1267 41.4986C31.1579 41.4537 31.1823 41.436 31.1991 41.4461C31.2164 41.4561 31.2178 41.4805 31.2034 41.5206C31.1646 41.6071 31.1129 41.7065 31.0482 41.8174C30.9835 41.9287 30.9111 42.031 30.8306 42.1232C30.7501 42.2155 30.6663 42.2872 30.5786 42.3383C30.4909 42.3885 30.4041 42.3985 30.3179 42.3674C30.2249 42.334 30.1617 42.2824 30.1272 42.2121C30.0927 42.1414 30.0749 42.0635 30.0744 41.977C30.0735 41.891 30.085 41.8045 30.109 41.718C30.1329 41.6315 30.1559 41.5565 30.1789 41.4938L30.1871 41.4862C30.2446 41.329 30.3346 41.1302 30.4564 40.8903C30.7314 40.3479 30.3227 41.1297 30.8608 40.1056C30.9073 40.0176 30.9638 39.9335 31.0309 39.8528C31.0697 39.8074 31.1172 39.7538 31.1723 39.6936L31.397 39.469ZM19.9088 39.9197C20.2059 39.88 20.4939 39.8293 20.7733 39.7672C21.0527 39.7056 21.3277 39.6176 21.5985 39.5034C21.839 39.4011 22.071 39.2817 22.2938 39.1455C22.5161 39.0088 22.7299 38.864 22.9335 38.7106C23.2206 38.4946 23.4889 38.268 23.7386 38.031C23.9877 37.794 24.2436 37.5555 24.5048 37.3151C24.5824 37.242 24.6605 37.1727 24.7396 37.1072C24.8182 37.0413 24.903 36.9796 24.994 36.9228C25.0784 36.8702 25.1383 36.8544 25.1737 36.8755C25.2092 36.8965 25.2106 36.9491 25.1776 37.0327C25.1555 37.0962 25.132 37.1622 25.1071 37.2305C25.0822 37.2984 25.053 37.3615 25.0194 37.4202C25.0031 37.4513 24.9849 37.4766 24.9648 37.4958C24.9447 37.5149 24.9183 37.534 24.8857 37.5536C24.8393 37.5784 24.7746 37.63 24.6902 37.707C24.6064 37.7844 24.4995 37.8853 24.3692 38.0085C24.2173 38.1538 24.0658 38.3015 23.9149 38.4516C23.7639 38.6016 23.6101 38.7498 23.453 38.8955C23.2958 39.0413 23.1362 39.1832 22.9747 39.3204C22.8128 39.4585 22.645 39.587 22.4711 39.707C21.7422 40.2174 20.9286 40.5433 20.0305 40.6852L19.4387 40.7655C19.2739 40.7861 19.1345 40.7932 19.019 40.7866C18.8925 40.778 18.7674 40.7641 18.6428 40.7445C18.5187 40.7249 18.3975 40.6943 18.2805 40.6523C18.235 40.6346 18.1986 40.6207 18.1722 40.6107C18.1454 40.6007 18.1214 40.5954 18.0999 40.5954C18.0788 40.5954 18.0587 40.604 18.04 40.6207C18.0213 40.6379 17.9973 40.6671 17.9681 40.7067C17.9418 40.7431 17.9144 40.7846 17.8862 40.832C17.8579 40.8793 17.8243 40.9361 17.7851 41.0026C17.7103 41.1177 17.6164 41.2047 17.5023 41.2635C17.3887 41.3223 17.2623 41.3414 17.1233 41.3208C17.0466 41.3079 16.9766 41.2941 16.9134 41.2793C16.8506 41.2645 16.7792 41.2668 16.7006 41.2864C16.6283 41.3046 16.5593 41.3299 16.4932 41.3615C16.4265 41.3935 16.3628 41.4394 16.3005 41.4991C16.2071 41.5846 16.1457 41.6238 16.116 41.6162C16.0863 41.6085 16.1016 41.5483 16.162 41.4355C16.2305 41.3036 16.3106 41.1756 16.403 41.0504C16.496 40.9256 16.6005 40.8128 16.7165 40.713C16.7759 40.6604 16.8406 40.6121 16.9101 40.5672C16.9795 40.5228 17.0548 40.4974 17.1362 40.4917C17.2033 40.4883 17.2704 40.495 17.3375 40.5132C17.4046 40.5309 17.4726 40.5433 17.5416 40.55C17.6178 40.5596 17.6854 40.551 17.7434 40.5237C17.8014 40.497 17.8531 40.4568 17.8982 40.4033C17.9504 40.3488 17.9964 40.2915 18.0371 40.2317C18.0774 40.172 18.1176 40.1123 18.1583 40.0525C18.2168 39.9722 18.2724 39.9182 18.3251 39.89C18.3778 39.8623 18.4574 39.8594 18.5647 39.8814C18.8072 39.9249 19.0333 39.9507 19.2432 39.9584C19.4531 39.966 19.6755 39.9531 19.9088 39.9197ZM30.1789 39.4432C30.1957 39.3968 30.2738 39.3108 30.4128 39.1851C30.5517 39.0599 30.6346 39.0016 30.6614 39.0112C30.7477 39.0422 30.8158 39.1125 30.8661 39.2224C30.9164 39.3318 30.9269 39.426 30.8982 39.5053C30.8718 39.5784 30.8019 39.6559 30.6878 39.738C30.5738 39.8202 30.4952 39.8537 30.4521 39.8379C30.4319 39.8312 30.3783 39.7667 30.2911 39.6458C30.2594 39.6085 30.2287 39.5694 30.1985 39.5283C30.177 39.4948 30.1708 39.4661 30.1789 39.4432ZM32.5404 37.135C32.9463 37.3075 34.0393 37.9608 33.9339 37.9287C33.9895 37.8939 34.1385 37.7988 34.1955 37.7634C39.4868 34.4745 43.0596 28.7077 43.177 22.1046C43.3639 11.6942 34.9004 3.05045 24.3376 2.86263L23.9997 2.85976C23.8871 2.85976 23.7745 2.86072 23.6619 2.86263C13.099 3.05045 4.63551 11.6942 4.82191 22.1046C4.93979 28.7077 8.51267 34.4745 13.8039 37.7634C13.8609 37.7988 13.9841 37.8776 14.0402 37.9125C14.0287 37.8767 15.0963 37.2621 15.2995 37.2119C15.1485 37.1804 15 37.1373 14.8553 37.0824C14.3444 36.8888 13.8959 36.5538 13.5241 36.1576C13.4421 36.0702 13.363 35.9794 13.2883 35.8853C13.2121 35.7897 13.1397 35.6912 13.0731 35.589L12.9965 35.4637C12.823 35.4097 12.6548 35.3419 12.4933 35.2578C12.0572 35.0308 11.6854 34.6939 11.3825 34.3096C11.3327 34.2461 11.2843 34.1811 11.2378 34.1146C11.1607 34.0047 11.0883 33.891 11.0212 33.7744C10.9681 33.6817 10.9182 33.5871 10.8737 33.4896L10.7955 33.3104C10.8281 33.3037 10.8597 33.2974 10.8923 33.2908C10.6235 33.1665 10.3705 33.0097 10.1462 32.8167C9.77343 32.496 9.48927 32.0831 9.28273 31.6396C9.24871 31.5665 9.21658 31.492 9.18639 31.4169C9.13656 31.2922 9.09247 31.1651 9.05413 31.036C9.02347 30.9338 8.99663 30.8301 8.97555 30.7254L8.94106 30.5328L9.1677 30.5405C8.80927 30.312 8.48488 30.0272 8.2357 29.6822C7.94818 29.2841 7.7675 28.8167 7.67022 28.3374C7.65441 28.2585 7.64053 28.1787 7.62855 28.0989C7.60938 27.9656 7.59597 27.8318 7.5883 27.6975C7.58255 27.5909 7.58062 27.4838 7.58494 27.3768L7.59596 27.1818C7.6549 27.1981 7.71432 27.2138 7.77326 27.2301C7.87054 27.2573 7.96637 27.2908 8.06077 27.3271C8.14415 27.3591 8.22706 27.394 8.30852 27.4313C8.2769 27.4107 8.24575 27.3897 8.21508 27.3682C8.14847 27.3223 8.08329 27.2745 8.01956 27.2248C7.63333 26.9237 7.29455 26.5543 7.0655 26.1195C6.83692 25.685 6.72383 25.1971 6.69508 24.7087C6.69029 24.6284 6.68789 24.5476 6.68741 24.4669C6.68693 24.3321 6.69267 24.1978 6.70417 24.064C6.71376 23.9574 6.72671 23.8514 6.74588 23.7457L6.78469 23.5541C6.84076 23.5785 6.8973 23.6024 6.95336 23.6267C7.04585 23.6674 7.13594 23.7142 7.22411 23.7634C7.33432 23.8246 7.53126 23.9474 7.52407 23.9402C7.46561 23.8843 7.40861 23.8265 7.3535 23.7672C7.01998 23.4093 6.74445 22.9907 6.58727 22.5252C6.43057 22.0602 6.39701 21.5603 6.44589 21.0743C6.45403 20.994 6.46458 20.9137 6.47704 20.8339C6.49812 20.7011 6.52496 20.5692 6.55802 20.4387C6.5839 20.335 6.61363 20.2323 6.64957 20.1314L6.71807 19.9484C6.76982 19.9809 6.82159 20.0138 6.87334 20.0463C6.95816 20.1013 7.0396 20.1615 7.11867 20.2241C7.22697 20.3092 7.33097 20.4 7.43112 20.4946C7.47185 20.5343 7.51258 20.5739 7.55235 20.615L7.55762 20.6026C7.48095 20.5032 7.40812 20.4005 7.34008 20.2948C7.29647 20.227 7.25429 20.1577 7.21452 20.0874C6.973 19.6621 6.80145 19.1914 6.75641 18.7025C6.71184 18.2136 6.79476 17.7199 6.95529 17.2583C6.98165 17.1818 7.01038 17.1063 7.04105 17.0313C7.09184 16.907 7.14887 16.7847 7.21068 16.6657C7.26052 16.5706 7.31324 16.4774 7.37122 16.3876L7.48 16.2251C7.52312 16.2691 7.56577 16.3125 7.60842 16.3565C7.67839 16.4291 7.74357 16.5066 7.80634 16.5859C7.81449 16.5959 7.82262 16.6065 7.83076 16.617C7.71528 16.2327 7.65778 15.8308 7.68558 15.4303C7.7196 14.9405 7.88013 14.4664 8.11253 14.0358C8.15087 13.9646 8.19112 13.8944 8.23377 13.8256C8.30373 13.7109 8.37943 13.5995 8.45994 13.4915C8.52367 13.406 8.59077 13.3219 8.66265 13.2425L8.79634 13.0996C8.83133 13.1493 8.86677 13.1995 8.90175 13.2497C8.95926 13.3329 9.01149 13.4194 9.06036 13.5073L9.06229 13.5106C9.04361 13.1379 9.0781 12.7622 9.18496 12.4038C9.32488 11.9336 9.58558 11.5054 9.90664 11.1355C9.95936 11.0748 10.0145 11.0151 10.0705 10.9568C10.1644 10.8602 10.2622 10.768 10.3643 10.6801C10.4457 10.6103 10.5296 10.5429 10.6168 10.4812L10.7783 10.3704L10.8717 10.5993C10.9206 10.3097 11.0045 10.0268 11.1305 9.76106C11.3408 9.3171 11.6643 8.9343 12.0376 8.61745C12.0994 8.56536 12.1627 8.51471 12.2274 8.46597C12.3347 8.38473 12.4459 8.30826 12.5599 8.23705C12.651 8.18018 12.7439 8.12666 12.8398 8.07887L13.0166 7.99428C13.031 8.05354 13.0458 8.11279 13.0602 8.17205C13.0832 8.2705 13.1 8.37039 13.1139 8.46979C13.1321 8.60599 13.1445 8.74362 13.1503 8.88077C13.1527 8.93764 13.1541 8.99451 13.1541 9.05138L13.1809 9.0404C13.2576 8.84876 13.3573 8.66668 13.4838 8.50276C13.5202 8.45497 13.5595 8.40862 13.6002 8.36465C13.8355 8.11089 14.1331 7.9202 14.4504 7.78448C14.6061 7.71805 14.7676 7.6631 14.9324 7.62583L15.1342 7.58472C15.1332 7.64875 15.1318 7.7128 15.1303 7.77683C15.1279 7.84947 15.1212 7.92212 15.1121 7.99428C15.1011 8.08461 15.0853 8.17445 15.0661 8.26333C14.9827 8.64087 14.827 9.00885 14.5773 9.30754C14.412 9.50539 14.2088 9.66835 13.9865 9.79882L13.9831 9.81028C14.0358 9.80503 14.0881 9.80073 14.1408 9.79691C14.2218 9.79165 14.3032 9.78878 14.3847 9.78782C14.4182 9.78735 14.4182 9.78734 14.4513 9.78734C14.5692 9.7883 14.6866 9.79261 14.804 9.80503L14.9985 9.82844C14.9775 9.89009 14.9569 9.95174 14.9348 10.0134C14.8984 10.1137 14.8557 10.2122 14.8102 10.3087C14.7556 10.4239 14.6957 10.5372 14.6315 10.6471C14.5912 10.7164 14.5491 10.7847 14.5045 10.8516C14.2309 11.266 13.883 11.6382 13.4589 11.903C13.3032 12 13.1383 12.0817 12.9677 12.1496C12.9519 12.2189 12.9337 12.2877 12.9141 12.356C12.8757 12.4879 12.8312 12.6184 12.7808 12.7465C12.7516 12.821 12.72 12.8951 12.6869 12.9677C12.4718 13.437 12.1699 13.8734 11.7693 14.2041C11.6284 14.3207 11.4765 14.4234 11.3178 14.5128C11.3169 14.5333 11.3155 14.5534 11.3145 14.5735C11.3059 14.7106 11.291 14.8478 11.2699 14.9835C11.2575 15.0628 11.2431 15.1417 11.2263 15.2196C11.119 15.7247 10.9196 16.216 10.601 16.626C10.4745 16.7885 10.3312 16.9371 10.1755 17.0714C10.1865 17.1407 10.1951 17.21 10.2018 17.2798C10.2157 17.4165 10.2229 17.5541 10.2234 17.6917C10.2238 17.7716 10.2224 17.8518 10.2186 17.9316C10.1932 18.4473 10.0748 18.9639 9.82613 19.4189C9.7207 19.6124 9.59323 19.7926 9.44947 19.9598L9.49931 20.0659C9.54148 20.1577 9.57743 20.2523 9.61001 20.3479C9.65506 20.4779 9.69386 20.6098 9.72645 20.7436C9.74562 20.8215 9.7624 20.8999 9.77725 20.9782C9.87213 21.4858 9.87644 22.0158 9.73987 22.5161C9.68045 22.734 9.59515 22.9443 9.49068 23.1441L9.54965 23.231C9.60571 23.3152 9.65601 23.4026 9.70393 23.4915C9.76862 23.6129 9.82806 23.7371 9.88173 23.8642C9.91287 23.9378 9.94211 24.0124 9.96894 24.0879C10.1434 24.5739 10.232 25.0963 10.1769 25.6119C10.1266 26.0803 9.96126 26.5309 9.73125 26.94L9.59946 27.1594C9.6191 27.178 9.63829 27.1966 9.65745 27.2157C9.67039 27.1861 9.68285 27.157 9.69627 27.1283C9.75185 27.0059 9.81272 26.886 9.87933 26.7689C9.93204 26.6757 9.98856 26.5844 10.0499 26.497L10.1644 26.3383C10.2056 26.3837 10.2469 26.4291 10.2881 26.4745C10.3551 26.5495 10.4175 26.6294 10.4774 26.7106C10.5588 26.8215 10.635 26.9367 10.7059 27.0547C10.7471 27.123 10.7869 27.1928 10.8243 27.264C11.0653 27.7204 11.2268 28.2251 11.2445 28.7436C11.2493 28.8783 11.2445 29.0126 11.2311 29.1464L11.2431 29.1178C11.2934 29.1522 11.3442 29.1866 11.3945 29.221C11.4774 29.2788 11.557 29.3419 11.6341 29.4074C11.7391 29.4963 11.8402 29.5904 11.9365 29.6889C11.9926 29.7457 12.0472 29.8045 12.0999 29.8652C12.4411 30.2532 12.7157 30.7068 12.8537 31.2067C12.8795 31.2994 12.9002 31.3926 12.9169 31.4867C12.9989 31.5206 13.0789 31.5589 13.158 31.5995C13.2811 31.6621 13.4009 31.7304 13.5174 31.804C13.5849 31.847 13.6515 31.892 13.7172 31.9383C14.1302 32.2327 14.4959 32.6026 14.7451 33.0466C14.7963 33.1388 14.8428 33.2329 14.8845 33.3299C14.9454 33.3476 15.0057 33.3672 15.0656 33.3882C15.196 33.4332 15.3244 33.4848 15.45 33.5421C15.5228 33.5751 15.5951 33.6105 15.6661 33.6477C16.1247 33.8872 16.5449 34.2117 16.8545 34.6284C17.1401 35.0131 17.3265 35.4642 17.4348 35.9283C17.453 36.0066 17.4688 36.085 17.4827 36.1639C17.4889 36.1978 17.4942 36.2317 17.4995 36.2657L17.5095 36.2623C19.271 35.6301 21.0182 35.3524 23.6236 35.3486C23.7486 35.3438 23.8742 35.3405 23.9997 35.339L24.3759 35.3486C27.2966 35.3529 29.1386 35.7013 31.1306 36.507C31.1066 36.4267 31.0865 36.3455 31.0697 36.2633C30.9936 35.8948 30.9844 35.5068 31.0841 35.1421C31.1838 34.777 31.3894 34.4473 31.6429 34.1687C31.7559 34.0439 31.8796 33.9273 32.0137 33.825L32.18 33.7041C32.2054 33.7629 32.2313 33.8217 32.2567 33.88C32.2845 33.9474 32.3089 34.0157 32.331 34.085C32.3583 34.172 32.3813 34.2595 32.4009 34.3483C32.4325 34.4936 32.4536 34.6422 32.4618 34.7918C32.5087 34.7651 32.5562 34.7402 32.6046 34.7168C32.5346 34.3584 32.5289 33.9823 32.6262 33.6281C32.7258 33.2635 32.9309 32.9333 33.1844 32.6547C33.298 32.5299 33.4216 32.4133 33.5558 32.3111L33.7221 32.1902C33.7475 32.2489 33.7729 32.3077 33.7983 32.3665C33.8265 32.4334 33.851 32.5022 33.8725 32.5715C33.8999 32.658 33.9233 32.746 33.9425 32.8349C33.9741 32.9801 33.9952 33.1287 34.0033 33.2778C34.0105 33.2735 34.0182 33.2697 34.0254 33.2654C33.9617 32.9185 33.9597 32.5562 34.0532 32.2145C34.1533 31.8494 34.3584 31.5197 34.6119 31.2411C34.7255 31.1163 34.8486 30.9997 34.9828 30.8975L35.1491 30.7765L35.2526 31.0203C35.2589 30.9505 35.2684 30.8807 35.2823 30.8119C35.3552 30.4406 35.5358 30.097 35.7682 29.8002C35.8722 29.6678 35.9872 29.5426 36.1132 29.4308L36.2704 29.2984L36.3826 29.5154C36.3811 29.4657 36.3816 29.4155 36.384 29.3653C36.4022 28.9878 36.5311 28.6212 36.718 28.2944C36.8014 28.1481 36.8967 28.0076 37.0055 27.8791L37.1416 27.7252C37.1794 27.7768 37.2168 27.8289 37.2547 27.8805C37.2969 27.9398 37.3352 28.0014 37.3716 28.0645C37.4171 28.1429 37.4588 28.2241 37.4972 28.3063C37.5594 28.4415 37.6126 28.582 37.6529 28.7259C37.6797 28.7015 37.7075 28.6781 37.7353 28.6547C37.5475 28.368 37.4075 28.0449 37.3587 27.7041C37.305 27.3295 37.3615 26.9457 37.4833 26.5897C37.5374 26.4301 37.6045 26.2743 37.6869 26.1271L37.7914 25.9503C37.8379 25.9942 37.8848 26.0377 37.9313 26.0817C37.984 26.1319 38.0338 26.1854 38.0813 26.2404C38.1407 26.3087 38.1973 26.3804 38.2505 26.454C38.3372 26.5749 38.4158 26.703 38.4829 26.8368L38.5193 26.7899C38.2912 26.5257 38.1081 26.2184 38.0152 25.8805C37.915 25.5159 37.9232 25.1278 37.9989 24.7594C38.0329 24.5945 38.0799 24.4315 38.1431 24.2752L38.2241 24.087C38.2763 24.1242 38.3281 24.162 38.3798 24.1997C38.4383 24.2428 38.4944 24.2896 38.5485 24.3383C38.6166 24.399 38.6813 24.4626 38.7431 24.5295C38.7666 24.5543 38.8058 24.5988 38.8087 24.6021C38.8087 24.6026 38.8092 24.6026 38.8087 24.6021C38.698 24.4654 38.6031 24.3168 38.5289 24.1572C38.3702 23.8136 38.3147 23.4294 38.329 23.0533C38.3353 22.885 38.3544 22.7168 38.3918 22.5524L38.4407 22.3531C38.4982 22.3818 38.5557 22.4105 38.6132 22.4392C38.6717 22.4693 38.7292 22.5022 38.7852 22.5376C38.7517 22.496 38.72 22.4535 38.6903 22.4091C38.4785 22.0956 38.3621 21.7252 38.3156 21.352C38.295 21.1847 38.2873 21.0155 38.2974 20.8473L38.3137 20.6428C38.3751 20.6619 38.4364 20.681 38.4977 20.7001C38.5672 20.7226 38.6348 20.7489 38.7019 20.7775C38.7852 20.8134 38.8672 20.8535 38.9472 20.897C39.0785 20.9677 39.205 21.049 39.3238 21.1402C39.3282 21.1192 39.3329 21.0977 39.3377 21.0767C39.0852 20.94 38.8537 20.7632 38.6693 20.5434C38.4258 20.2533 38.2715 19.8968 38.1867 19.5302C38.1489 19.3663 38.1235 19.1986 38.1158 19.0303L38.1115 18.8253C38.1742 18.8377 38.237 18.8506 38.2998 18.8631C38.3573 18.8755 38.4143 18.8903 38.4704 18.907C38.456 18.8941 38.4417 18.8812 38.4273 18.8679C38.1517 18.6084 37.9567 18.2724 37.8292 17.9183C37.7722 17.7596 37.7276 17.5962 37.7003 17.4299L37.6716 17.2268C37.7353 17.232 37.7995 17.2373 37.8633 17.2425C37.9356 17.2492 38.008 17.2602 38.0794 17.2736C38.0947 17.2765 38.11 17.2793 38.1249 17.2822C38.1005 17.2664 38.0765 17.2497 38.0525 17.2325C37.7459 17.0103 37.5091 16.7015 37.3376 16.3665C37.2609 16.2165 37.1957 16.0602 37.1474 15.8987L37.0927 15.7008C37.1612 15.698 37.2298 15.6941 37.2983 15.6918L37.4603 15.6932C37.4377 15.6841 37.4152 15.6745 37.3932 15.6645C37.0482 15.5068 36.7554 15.2511 36.5206 14.9563C36.4156 14.8244 36.3207 14.6839 36.2412 14.5352L36.1487 14.3522C36.2153 14.3355 36.2814 14.3183 36.348 14.3025C36.4238 14.2853 36.5603 14.2562 36.5603 14.2562C36.51 14.2385 36.4602 14.2189 36.4113 14.1969C36.0898 14.054 35.8094 13.828 35.578 13.5656C35.4663 13.4394 35.3643 13.3037 35.2771 13.1594L35.1755 12.9811C35.2411 12.9611 35.3063 12.9405 35.3724 12.9214C35.3993 12.9137 35.4261 12.9066 35.4534 12.9004C35.1208 12.7527 34.8338 12.5152 34.599 12.2404C34.4897 12.1123 34.3896 11.9752 34.3052 11.8289L34.2065 11.6492L34.3536 11.6067C34.0129 11.4509 33.7221 11.1995 33.4882 10.9094C33.3823 10.7785 33.2865 10.6385 33.206 10.4903L33.1125 10.3078C33.126 10.304 33.1207 10.3054 33.1312 10.3025C32.8753 10.1706 32.6463 9.98758 32.4493 9.77922C32.3334 9.6564 32.2265 9.5245 32.135 9.38304L32.0272 9.20813C32.0919 9.18615 32.1566 9.16321 32.2217 9.14218C32.3233 9.11016 32.4268 9.08484 32.5313 9.06525C32.6904 9.03514 32.8519 9.01794 33.0133 9.01412H33.1365C33.08 8.89273 33.033 8.76656 32.9947 8.63897C32.9463 8.47744 32.9099 8.31208 32.8916 8.14434L32.8734 7.94028C32.9372 7.94888 33.0004 7.95749 33.0641 7.96561C33.136 7.9766 33.2079 7.99093 33.2783 8.00814C33.367 8.02964 33.4547 8.05545 33.5409 8.0846C33.7154 8.14434 33.8859 8.21985 34.0455 8.31352C34.0503 8.13335 34.0743 7.95367 34.114 7.77828C34.1509 7.61388 34.2013 7.45186 34.2674 7.29703L34.3527 7.11017C34.404 7.14888 34.4547 7.18758 34.506 7.22629C34.5635 7.27074 34.6186 7.31854 34.6718 7.36776C34.7384 7.42989 34.8022 7.49488 34.8626 7.56274C35.129 7.86047 35.3413 8.21554 35.4323 8.60646C35.4376 8.62987 35.4539 8.66237 35.4539 8.66237L35.5023 8.56584L35.5957 8.39763C35.6436 8.44016 35.6916 8.48269 35.7395 8.52522C35.7932 8.57397 35.8444 8.62606 35.8938 8.67958C35.9551 8.74649 36.0136 8.81673 36.0687 8.8889C36.2891 9.17802 36.4611 9.51112 36.5354 9.86811L36.6365 9.67169C36.6854 9.71279 36.7347 9.75389 36.7836 9.79498C36.8392 9.84277 36.8915 9.89297 36.9423 9.94506C37.0055 10.0105 37.0659 10.0789 37.1229 10.1496C37.3184 10.3924 37.4794 10.6681 37.5743 10.9654L37.7205 11.0839C37.7765 11.1302 37.8297 11.1799 37.8815 11.2311C37.9457 11.2951 38.007 11.3625 38.0655 11.4323C38.3214 11.7391 38.5212 12.1008 38.5988 12.4946C38.6012 12.5056 38.6031 12.5166 38.6051 12.5276L38.6443 12.4583C38.6918 12.5008 38.7397 12.5434 38.7871 12.5864C38.8408 12.6356 38.8916 12.6877 38.9405 12.7417C39.0014 12.8091 39.0593 12.8793 39.114 12.952C39.354 13.2712 39.5352 13.643 39.5927 14.0401C39.6286 14.2891 39.6162 14.5429 39.5692 14.7895L39.5697 14.7881C39.6334 14.6848 39.7038 14.5854 39.7805 14.4917L39.9147 14.3364C39.953 14.3876 39.9914 14.4392 40.0297 14.4903C40.0724 14.5491 40.1116 14.6103 40.149 14.6729C40.1955 14.7508 40.2381 14.8311 40.2774 14.9133C40.449 15.2736 40.5534 15.6731 40.5309 16.0741C40.5252 16.1735 40.5123 16.2714 40.4926 16.3684L40.6445 16.2318C40.6761 16.2877 40.7078 16.3431 40.7389 16.399C40.7739 16.4631 40.805 16.5285 40.8338 16.5955C40.8697 16.6786 40.9023 16.7637 40.9306 16.8502C41.0552 17.2291 41.1074 17.6387 41.0336 18.0334C41.013 18.1429 40.9838 18.2504 40.9459 18.3551L41.024 18.2953L41.1812 18.1849C41.2061 18.2437 41.2306 18.303 41.255 18.3618C41.2823 18.4296 41.3058 18.4984 41.3264 18.5677C41.3523 18.6552 41.3743 18.7431 41.3925 18.832C41.4716 19.2234 41.4749 19.6363 41.3556 20.0196C41.3034 20.1868 41.2291 20.3465 41.1385 20.496L41.266 20.4167L41.4337 20.3226C41.4524 20.3842 41.4706 20.4454 41.4888 20.5065C41.509 20.5763 41.5253 20.6475 41.5387 20.7187C41.5554 20.8081 41.5679 20.898 41.5765 20.9883C41.6144 21.3854 41.5751 21.7969 41.4165 22.1658C41.3192 22.3919 41.1807 22.5974 41.0159 22.7804L41.0221 22.777C41.1366 22.7116 41.256 22.6537 41.3786 22.6055L41.5717 22.5347C41.5804 22.5983 41.5885 22.6619 41.5966 22.7249C41.6053 22.7971 41.6096 22.8698 41.6115 22.9424C41.6139 23.0332 41.612 23.124 41.6062 23.2148C41.5799 23.6129 41.475 24.0124 41.2588 24.3512C41.1223 24.5658 40.9454 24.7517 40.7461 24.9099C40.8558 24.8712 40.9675 24.8387 41.081 24.8148L41.2833 24.7766C41.2809 24.8406 41.279 24.9046 41.2766 24.9682C41.2732 25.0408 41.2655 25.1135 41.2555 25.1852C41.243 25.275 41.2262 25.3644 41.2056 25.4528C41.1141 25.8413 40.9454 26.2188 40.6766 26.5175C40.4327 26.7895 40.1164 26.9897 39.78 27.1278C39.6986 27.1613 39.6162 27.1918 39.5318 27.2176C39.5318 27.2482 39.5309 27.2788 39.5299 27.3094C39.6914 27.2286 39.862 27.166 40.0359 27.1187C40.1989 27.0748 40.3661 27.0427 40.5343 27.0289L40.7399 27.016C40.7293 27.0791 40.7193 27.1421 40.7087 27.2057C40.6963 27.2769 40.6799 27.3481 40.6608 27.4179C40.6368 27.5058 40.6091 27.5923 40.5774 27.6774C40.4385 28.0511 40.2233 28.4043 39.9195 28.6676C39.6435 28.907 39.3042 29.0666 38.953 29.1617C38.8447 29.1914 38.7339 29.2153 38.6228 29.232C38.6137 29.2841 38.6031 29.3357 38.5912 29.3873C38.7646 29.339 38.9443 29.3094 39.124 29.296C39.1863 29.2912 39.2491 29.2888 39.3119 29.2879C39.3353 29.2874 39.3588 29.2874 39.3823 29.2874L39.6435 29.3032L39.8347 29.3276C39.8112 29.3921 39.7882 29.4566 39.7637 29.5206C39.7019 29.6774 39.6238 29.8279 39.5352 29.9708C39.3358 30.2905 39.0747 30.5782 38.7502 30.7746C38.4258 30.9711 38.0492 31.069 37.673 31.0977C37.6093 31.1025 37.5446 31.1053 37.4804 31.1063C37.4746 31.1221 37.4684 31.1374 37.4622 31.1531C37.559 31.1407 37.6577 31.1345 37.7554 31.1326L37.9442 31.1359C38.0497 31.1412 38.1551 31.1522 38.2595 31.1689L38.5164 31.222L38.7014 31.274C38.6688 31.3342 38.6367 31.3945 38.6031 31.4542C38.5197 31.6004 38.4201 31.7381 38.3113 31.8671C38.0679 32.1543 37.7674 32.4014 37.4181 32.5486C37.1493 32.6614 36.8589 32.713 36.5675 32.7187C36.6806 32.7283 36.7927 32.744 36.9039 32.766C37.0161 32.7885 37.1277 32.8167 37.2365 32.8535L37.4301 32.9233C37.3932 32.9806 37.3567 33.0389 37.3189 33.0958C37.2245 33.2358 37.1157 33.3658 36.9978 33.4862C36.7343 33.7553 36.4166 33.9799 36.0572 34.1013C35.9019 34.1538 35.7414 34.1863 35.5789 34.2021C35.5737 34.2007 35.7284 34.2399 35.8089 34.2671L36.0025 34.3369C35.9656 34.3947 35.9292 34.4525 35.8914 34.5099C35.797 34.6494 35.6882 34.7794 35.5703 34.8998C35.3063 35.1689 34.989 35.3935 34.6297 35.5149C34.2703 35.6363 33.8812 35.6511 33.5079 35.5976C33.4293 35.5861 33.3507 35.5722 33.2731 35.5545C33.2606 35.5837 33.2472 35.6119 33.2338 35.6401L33.3929 35.6367C33.575 35.6387 33.7561 35.6583 33.9348 35.6936C34.047 35.7161 34.1586 35.7443 34.2674 35.7806L34.461 35.8504C34.4236 35.9082 34.3877 35.966 34.3498 36.0234C34.2554 36.1634 34.1466 36.2934 34.0283 36.4138C33.7647 36.6829 33.447 36.907 33.0881 37.0289C32.9108 37.0886 32.7268 37.1225 32.5404 37.135ZM16.0269 36.8692C15.6704 36.7627 15.3287 36.6054 15.0273 36.3866C14.6789 36.1338 14.3924 35.8054 14.1633 35.4427C13.9122 35.4604 13.6625 35.5015 13.4191 35.5641L13.4105 35.566C13.5226 35.7204 13.6462 35.8661 13.7785 36.0028C13.8274 36.054 13.8782 36.1032 13.9295 36.1514C14.2548 36.4544 14.6353 36.7053 15.0589 36.8468C15.2904 36.9237 15.5314 36.9682 15.7739 36.9858C15.7547 36.9949 15.9239 36.9161 16.0269 36.8692ZM31.8671 36.8C31.9313 36.8129 31.9955 36.8229 32.0602 36.831C32.3889 36.8716 32.7306 36.853 33.0426 36.7364C33.3052 36.6384 33.54 36.4774 33.7432 36.2862C33.7877 36.2442 33.8309 36.2007 33.8725 36.1557L34.0014 36.0062C33.9454 35.9918 33.8884 35.9799 33.8313 35.9694C33.6861 35.9431 33.5385 35.9287 33.3905 35.9268C33.3804 35.9268 33.3699 35.9268 33.3598 35.9268C33.2568 35.9278 33.1537 35.935 33.0522 35.9502C32.9975 36.0286 32.9371 36.1037 32.8715 36.1739C32.6218 36.4401 32.3013 36.6336 31.962 36.7651L31.8671 36.8ZM17.0207 36.4463C16.9048 36.1911 16.7644 35.9469 16.5962 35.7223C16.4294 35.4986 16.2354 35.2951 16.0125 35.1264C15.7547 34.9314 15.4615 34.7875 15.1553 34.6862C14.9976 34.6341 14.8361 34.593 14.6732 34.562C14.4614 34.5218 14.2462 34.4984 14.0306 34.4908H14.0224C14.0234 34.4931 14.0239 34.496 14.0248 34.4989C14.0962 34.6943 14.1815 34.8845 14.2807 35.0676C14.3593 35.2124 14.447 35.3524 14.5438 35.4857C14.7326 35.7457 14.9578 35.9808 15.2204 36.1672C15.4619 36.3388 15.7322 36.4673 16.0135 36.5605C16.1596 36.6088 16.3087 36.6475 16.4596 36.6776L16.6388 36.6016C16.4558 36.4778 16.2765 36.3483 16.0983 36.2179C15.897 36.0669 15.6972 35.9134 15.5036 35.7519C15.3091 35.5909 15.1183 35.425 14.9372 35.2444L14.9382 35.2434C15.172 35.3471 15.3953 35.4661 15.6153 35.5899C15.8357 35.7132 16.0508 35.8446 16.2641 35.978C16.4754 36.1142 16.6858 36.2518 16.8904 36.3976C16.9206 36.4191 16.9508 36.4406 16.981 36.4621L17.0207 36.4463ZM31.8743 36.4874C31.8848 36.4831 31.8954 36.4788 31.9064 36.4745C32.2126 36.3493 32.5011 36.1658 32.7158 35.9115C32.896 35.6979 33.0215 35.4422 33.1039 35.177C33.1221 35.1182 33.1384 35.059 33.1528 34.9997L33.1911 34.8057L33.0023 34.8654C32.9443 34.886 32.8873 34.9084 32.8308 34.9328C32.5596 35.0508 32.3046 35.2152 32.1058 35.436C31.9074 35.6568 31.7717 35.9278 31.6836 36.2093C31.6807 36.2198 31.6774 36.2303 31.674 36.2408C31.7559 36.1447 31.8412 36.052 31.928 35.9598C32.0444 35.8398 32.1628 35.7218 32.2888 35.61C32.4143 35.4972 32.5447 35.3892 32.6885 35.2922L32.6894 35.2931C32.6166 35.4504 32.5303 35.5957 32.4393 35.7371C32.3482 35.879 32.2505 36.0148 32.1503 36.1486C32.0607 36.2638 31.9701 36.378 31.8743 36.4874ZM32.1738 34.9806C32.1771 34.8334 32.1652 34.6857 32.1412 34.5414C32.1311 34.4807 32.1192 34.4205 32.1048 34.3613L32.0526 34.1706L31.9102 34.3082C31.8681 34.3522 31.8269 34.398 31.7876 34.4449C31.5978 34.6714 31.4435 34.9323 31.3654 35.2186C31.2873 35.5044 31.2873 35.8074 31.3352 36.0984C31.3443 36.1524 31.3683 36.2532 31.3683 36.2532C31.3697 36.2485 31.3712 36.2432 31.3721 36.2384C31.4694 35.8747 31.6357 35.524 31.8891 35.242C31.974 35.1474 32.0679 35.0618 32.1685 34.9844L32.1738 34.9806ZM17.1731 36.0955C17.1343 35.9053 17.0816 35.718 17.0136 35.5359C16.9163 35.275 16.7869 35.025 16.6201 34.8014C16.428 34.5424 16.1869 34.3216 15.921 34.139C15.7787 34.041 15.6292 33.9536 15.4744 33.8757C15.288 33.782 15.0949 33.7027 14.8965 33.6377L14.8883 33.6348C14.8888 33.6382 14.8888 33.6406 14.8888 33.6434C14.9022 33.8513 14.9305 34.0578 14.9746 34.2614C14.9799 34.2862 14.9856 34.3111 14.9913 34.3354C15.3546 34.4291 15.7053 34.572 16.0197 34.7765C16.094 34.8248 16.1659 34.8764 16.2349 34.9309C16.4328 35.0872 16.6096 35.2683 16.7658 35.4652C16.9215 35.6616 17.0567 35.8738 17.1731 36.0955ZM33.4087 35.2864C33.4729 35.2989 33.5371 35.3089 33.6018 35.317C33.9305 35.3577 34.2722 35.339 34.5846 35.2224C34.8467 35.1249 35.082 34.9634 35.2847 34.7727C35.3293 34.7307 35.3724 34.6867 35.4141 34.6418L35.543 34.4922C35.4793 34.4759 35.4146 34.4626 35.3494 34.4516C35.2114 34.4277 35.072 34.4148 34.932 34.4133H34.9014C34.7983 34.4138 34.6958 34.4215 34.5942 34.4368C34.5391 34.5151 34.4792 34.5897 34.4131 34.6599C34.1634 34.9266 33.8433 35.1202 33.5036 35.2511C33.4724 35.2635 33.4408 35.275 33.4087 35.2864ZM13.4048 35.2678C13.4896 35.2473 13.6789 35.2105 13.6952 35.2076C13.3329 35.0499 12.9931 34.8382 12.7075 34.5644C12.397 34.2666 12.1584 33.902 11.9815 33.5111C11.9245 33.5072 11.8675 33.5049 11.811 33.5034C11.7707 33.5025 11.7304 33.502 11.6907 33.502C11.544 33.5029 11.3979 33.5111 11.2517 33.5264L11.2187 33.5302C11.2326 33.5555 11.2464 33.5808 11.2603 33.6057C11.4396 33.9211 11.6576 34.216 11.9159 34.4721C12.12 34.6743 12.3505 34.852 12.6045 34.9878C12.8551 35.1216 13.1268 35.2124 13.4048 35.2678ZM14.4101 34.2279C14.2496 33.9115 14.0421 33.6181 13.7799 33.3773C13.5571 33.1718 13.2989 33.0064 13.0252 32.8764C12.7023 32.7235 12.3568 32.6174 12.0055 32.5543L11.9724 32.5491C11.9734 32.5514 11.9739 32.5543 11.9744 32.5572C12.018 32.7608 12.0759 32.961 12.1493 33.1555C12.2072 33.3099 12.2748 33.4604 12.3525 33.6057C12.4991 33.8814 12.6836 34.1386 12.9093 34.355C13.1354 34.5715 13.4 34.7455 13.6817 34.8817C13.757 34.918 13.8336 34.9514 13.9113 34.983C13.8681 34.8908 13.8279 34.7976 13.7905 34.7029C13.757 34.6164 13.7018 34.4506 13.7037 34.4559C13.5552 34.3072 13.4086 34.1562 13.2667 34.0004C13.0961 33.8145 12.9299 33.6238 12.7756 33.4207L12.7765 33.4193C12.9936 33.5546 13.1987 33.7027 13.3995 33.8556C13.5476 33.9675 13.6918 34.0831 13.8346 34.2007L13.9467 34.1988C14.1015 34.2002 14.2563 34.2102 14.4101 34.2279ZM33.46 34.9557C33.7618 34.8305 34.0455 34.6485 34.2573 34.3976C34.4375 34.1844 34.563 33.9287 34.6459 33.663C34.6642 33.6047 34.68 33.5455 34.6943 33.4857L34.7332 33.2922L34.5439 33.3515C34.4864 33.372 34.4289 33.3945 34.3728 33.4188C34.1016 33.5369 33.8462 33.7013 33.6478 33.9221C33.5002 34.086 33.3871 34.2781 33.3028 34.4812L33.4614 34.4544L33.4695 34.4463C33.586 34.3259 33.7043 34.2078 33.8308 34.096C33.9564 33.9837 34.0867 33.8752 34.23 33.7782L34.2314 33.7792C34.1586 33.9364 34.0719 34.0817 33.9808 34.2231C33.8903 34.3655 33.792 34.5013 33.6919 34.6346C33.619 34.7287 33.5453 34.8219 33.4686 34.9127C33.4657 34.9271 33.4628 34.9414 33.46 34.9557ZM32.9587 34.573C33.0593 34.2642 33.2132 33.9703 33.4307 33.728C33.5175 33.632 33.6128 33.545 33.7154 33.4666C33.7187 33.3194 33.7067 33.1722 33.6828 33.0274C33.6732 32.9667 33.6607 32.907 33.6468 32.8473L33.5941 32.6571L33.4523 32.7942C33.4096 32.8387 33.3684 32.8841 33.3291 32.9314C33.1394 33.1574 32.9851 33.4188 32.907 33.7046C32.8289 33.9909 32.8289 34.2934 32.8768 34.5849L32.8796 34.6007L32.9587 34.573ZM14.5931 33.3911C14.5548 33.306 14.5117 33.2229 14.4642 33.1421C14.3061 32.8735 14.0996 32.6351 13.8667 32.4282C13.5935 32.1854 13.284 31.9837 12.9562 31.8231L12.9485 31.8198C12.9481 31.8227 12.9481 31.8255 12.9476 31.8284C12.9318 32.0425 12.9318 32.258 12.949 32.4726C12.9505 32.4908 12.9524 32.5094 12.9538 32.5276C13.3645 32.6958 13.7488 32.9314 14.0627 33.2454C14.2941 33.4767 14.4844 33.7457 14.6372 34.0339L14.6066 33.7744C14.597 33.6678 14.5931 33.3911 14.5931 33.3911ZM34.8798 33.881C34.9292 33.8896 34.9795 33.8972 35.0293 33.9034C35.3581 33.944 35.6997 33.9254 36.0121 33.8088C36.2742 33.7113 36.5095 33.5498 36.7122 33.3591C36.7568 33.317 36.7999 33.2731 36.8416 33.2282L36.9705 33.0786C36.9068 33.0623 36.8421 33.0489 36.7769 33.0379C36.6389 33.0141 36.4995 33.0011 36.3596 32.9997C36.3495 32.9997 36.3389 32.9997 36.3289 32.9997C36.2259 33.0002 36.1233 33.0078 36.0217 33.0227C35.9666 33.1015 35.9067 33.1761 35.8406 33.2463C35.5909 33.513 35.2708 33.7065 34.9311 33.8375C34.9172 33.8427 34.9033 33.8485 34.8894 33.8532C34.886 33.8623 34.8827 33.8714 34.8798 33.881ZM34.9833 32.9443C35.0724 32.8544 35.163 32.7665 35.2584 32.6824C35.3834 32.5701 35.5138 32.4616 35.6575 32.3646L35.659 32.3655C35.5856 32.5228 35.4994 32.6681 35.4083 32.8095C35.3178 32.9515 35.2196 33.0872 35.1194 33.221C35.0859 33.264 35.0528 33.3065 35.0188 33.3491C35.0106 33.3988 35.001 33.4475 34.9905 33.4967C35.2536 33.3744 35.4975 33.2062 35.6848 32.9839C35.865 32.7703 35.9906 32.5151 36.0735 32.2494C36.0912 32.1906 36.1075 32.1319 36.1219 32.0721L36.1602 31.8786L35.9714 31.9378C35.9134 31.9584 35.8564 31.9808 35.8003 32.0052C35.5286 32.1233 35.2737 32.2877 35.0753 32.5084C34.9478 32.6499 34.8467 32.8119 34.7667 32.9839L34.9833 32.9443ZM11.5761 33.2133C11.1592 32.9472 10.7836 32.6069 10.5138 32.1902C10.2804 31.8293 10.1314 31.4198 10.049 30.9988C9.81655 30.9276 9.57695 30.8774 9.33544 30.8477L9.30236 30.8439C9.30332 30.8463 9.3038 30.8492 9.30476 30.8521C9.35891 31.0528 9.42841 31.2497 9.51227 31.4403C9.5784 31.5909 9.65411 31.7376 9.73941 31.8786C9.90089 32.1457 10.0993 32.3923 10.3365 32.5964C10.5679 32.7957 10.8339 32.9519 11.1142 33.0714C11.245 33.1268 11.523 33.2153 11.523 33.2153C11.5407 33.2143 11.5584 33.2138 11.5761 33.2133ZM34.4092 33.0915C34.5099 32.8076 34.6565 32.539 34.8582 32.3144C34.9445 32.2184 35.0403 32.1314 35.1429 32.053C35.1462 31.9058 35.1342 31.7586 35.1103 31.6138C35.1002 31.5531 35.0883 31.4934 35.0744 31.4337L35.0216 31.243L34.8798 31.3806C34.8372 31.425 34.7959 31.4704 34.7566 31.5173C34.5669 31.7438 34.4126 32.0047 34.3345 32.291C34.2593 32.5653 34.2564 32.8549 34.2985 33.135L34.4092 33.0915ZM12.2619 32.3101C12.2485 32.2509 12.2341 32.1926 12.2178 32.1343C12.1426 31.8662 12.0352 31.6062 11.8886 31.3687C11.7185 31.0943 11.4971 30.8544 11.2479 30.6499C11.1142 30.5405 10.9724 30.4406 10.8253 30.3498C10.6475 30.2408 10.4615 30.1452 10.2694 30.0635L10.2617 30.0607C10.2617 30.0635 10.2617 30.0659 10.2617 30.0688C10.2569 30.2771 10.2675 30.485 10.2943 30.6915C10.3154 30.8549 10.3465 31.0169 10.3882 31.1761C10.4707 31.4862 10.5957 31.7868 10.773 32.0549C10.9412 32.3082 11.153 32.5304 11.3893 32.7216C11.5163 32.8248 11.787 32.9949 11.787 32.9949C11.7597 32.9065 11.7357 32.8172 11.7141 32.7273C11.7031 32.681 11.6926 32.6341 11.683 32.5873C11.6466 32.5309 11.6102 32.474 11.5738 32.4176C11.441 32.2045 11.3102 31.9894 11.1875 31.7691C11.0644 31.5493 10.9465 31.3256 10.843 31.0924L10.8439 31.0915C11.0241 31.2731 11.1899 31.4638 11.3505 31.6583C11.5062 31.8461 11.6543 32.0387 11.7999 32.2332L11.6289 32.2184L11.8119 32.2341C11.9125 32.2437 12.0127 32.2595 12.1119 32.2786C12.1622 32.2881 12.212 32.2986 12.2619 32.3101ZM36.3495 32.3426L36.3231 32.4219C36.3418 32.4234 36.36 32.4243 36.3787 32.4253C36.7094 32.442 37.0486 32.399 37.3515 32.2599C37.6059 32.1438 37.8288 31.9655 38.0171 31.7605C38.0588 31.7156 38.0986 31.6688 38.1369 31.621L38.2548 31.4623C38.1196 31.4384 37.9831 31.4265 37.8465 31.4231C37.8225 31.4227 37.7986 31.4227 37.7746 31.4227C37.6165 31.4246 37.4578 31.4408 37.304 31.4752C37.2547 31.5574 37.2005 31.6368 37.1402 31.7113C36.9284 31.9727 36.6528 32.1768 36.3533 32.3292L36.3495 32.3426ZM12.6605 31.7667C12.6452 31.6038 12.6165 31.4418 12.5729 31.2841C12.4852 30.9653 12.3347 30.6666 12.1469 30.3957C12.0529 30.2599 11.9494 30.1309 11.8387 30.009C11.6988 29.8547 11.5474 29.7108 11.3859 29.5789L11.3792 29.5737C11.3782 29.5766 11.3773 29.5794 11.3763 29.5818C11.3135 29.7801 11.2656 29.9832 11.2331 30.1887C11.2292 30.2141 11.2254 30.2389 11.222 30.2642C11.5829 30.5218 11.9029 30.8387 12.1363 31.2162C12.3587 31.5751 12.4991 31.9794 12.5762 32.3933C12.6021 32.4014 12.6275 32.409 12.6534 32.4176C12.651 32.3856 12.6495 32.3541 12.6481 32.3221C12.6428 32.1878 12.6433 32.053 12.65 31.9192C12.6524 31.8681 12.6558 31.8174 12.6605 31.7667ZM36.4736 31.7099L36.4453 31.9417C36.6451 31.8131 36.8253 31.6535 36.9653 31.4609C37.1296 31.2349 37.236 30.971 37.2993 30.7001C37.3132 30.6403 37.3251 30.5806 37.3347 30.5199L37.3592 30.324L37.1751 30.3971C37.1191 30.4215 37.0635 30.4482 37.0089 30.4764C36.7472 30.6136 36.5043 30.7961 36.3227 31.0308C36.1866 31.2062 36.0878 31.4064 36.0184 31.6167C36.0706 31.6009 36.1238 31.5866 36.1765 31.5742L36.1832 31.5665C36.2905 31.4384 36.4003 31.3118 36.5182 31.1909C36.6346 31.07 36.7568 30.9524 36.8934 30.8454L36.8943 30.8463C36.833 31.0083 36.7573 31.1593 36.6768 31.307C36.614 31.4231 36.5464 31.5359 36.477 31.6468L36.4736 31.7099ZM35.6805 31.7405C35.7577 31.4217 35.8904 31.1135 36.0922 30.853C36.1703 30.7527 36.2575 30.6604 36.3519 30.5758L36.3567 30.5715C36.35 30.4248 36.327 30.2786 36.2925 30.1357C36.2781 30.0764 36.2618 30.0172 36.2431 29.9589L36.177 29.773C36.1765 29.7734 36.1765 29.7734 36.176 29.7739C36.131 29.8212 36.0874 29.87 36.0452 29.9201C36.0064 29.9675 35.9685 30.0157 35.9326 30.0654C35.7601 30.3053 35.6254 30.5768 35.5679 30.8673C35.5109 31.1584 35.5329 31.4609 35.6024 31.7476C35.6043 31.7562 35.6063 31.7644 35.6087 31.773C35.6321 31.762 35.6561 31.751 35.6805 31.7405ZM25.6285 28.5892C26.9185 29.0599 28.2981 29.2726 29.6873 29.2052C28.0556 29.7338 26.3861 29.7964 24.8201 29.4676L24.8072 29.7897L23.9997 30.8979L23.1923 29.7897L23.1793 29.4676C21.6133 29.7964 19.9433 29.7338 18.3122 29.2052C19.7009 29.2726 21.081 29.0599 22.3709 28.5892C20.2582 27.4858 18.5594 25.5885 17.7635 23.1479C16.5842 19.5312 17.6993 15.5618 20.5912 13.0815C17.4487 17.7176 18.58 23.9794 23.0883 27.243L22.7749 19.5149V13.4356C23.2632 13.2019 23.6849 12.8487 23.9997 12.4096C24.3145 12.8487 24.7362 13.2019 25.224 13.4356V19.5149L24.9111 27.243C29.4189 23.9794 30.5508 17.7176 27.4082 13.0815C30.3001 15.5618 31.4152 19.5312 30.2359 23.1479C29.44 25.5885 27.7412 27.4858 25.6285 28.5892ZM37.5714 30.8129C37.616 30.811 37.6601 30.8076 37.7042 30.8033C38.0339 30.7722 38.363 30.68 38.6429 30.4989C38.8777 30.3469 39.0718 30.1385 39.2285 29.9082C39.263 29.8575 39.2956 29.8059 39.3267 29.7529L39.4202 29.5789C39.3924 29.578 39.3651 29.578 39.3373 29.578C39.2822 29.5785 39.227 29.5799 39.1719 29.5837C38.9371 29.599 38.7014 29.6444 38.4814 29.729L38.479 29.7347C38.4431 29.8212 38.4014 29.9058 38.3535 29.9866C38.1675 30.3006 37.8968 30.5591 37.594 30.7603L37.5825 30.7679C37.5791 30.7828 37.5753 30.798 37.5714 30.8129ZM8.56488 27.892C8.53996 27.8771 8.51458 27.8628 8.48919 27.8485C8.29511 27.74 8.09193 27.6473 7.883 27.5708L7.87484 27.5679C7.87484 27.5708 7.87486 27.5737 7.87534 27.5765C7.88109 27.7844 7.90266 27.9918 7.94003 28.1964C7.96926 28.3584 8.00856 28.519 8.0584 28.6757C8.15376 28.973 8.28887 29.2587 8.4724 29.5125C8.65066 29.7596 8.87303 29.9732 9.11789 30.1543C9.26405 30.2623 9.41882 30.3593 9.57887 30.4454C9.56066 30.4267 9.54197 30.4076 9.52376 30.389C9.18497 30.0353 8.90272 29.621 8.73931 29.1579C8.59603 28.7531 8.54667 28.3202 8.56488 27.892ZM10.4079 29.8069C10.4275 29.3992 10.382 28.9868 10.2416 28.6021C10.1347 28.3096 9.97468 28.0377 9.78348 27.7921C9.55874 27.5044 9.29088 27.2501 8.99713 27.0332L8.9904 27.0284C8.98992 27.0308 8.98896 27.0337 8.988 27.0365C8.93529 27.2377 8.89746 27.4427 8.87493 27.6497C8.85768 27.8131 8.85001 27.978 8.85385 28.1429C8.86103 28.4544 8.9099 28.767 9.01389 29.0614C9.11835 29.3562 9.27649 29.6301 9.46673 29.8776C9.56305 30.0028 9.66751 30.1213 9.77869 30.2337C9.8429 30.2982 9.90856 30.3603 9.9766 30.4205L9.97181 30.3158C9.88028 30.0879 9.79786 29.8566 9.71735 29.6248C9.63733 29.3863 9.56066 29.1474 9.49261 28.9046C9.42409 28.6623 9.36132 28.4177 9.31532 28.1668L9.31628 28.1663C9.4495 28.3842 9.5664 28.6083 9.67661 28.8348C9.78826 29.0609 9.89081 29.2903 9.99 29.5211C10.012 29.5732 10.0336 29.6253 10.0552 29.6774L10.1779 29.7175C10.2555 29.7438 10.3321 29.7739 10.4079 29.8069ZM37.6591 30.1333L37.6486 30.3584C37.8489 30.193 38.0233 29.9947 38.1441 29.7644C38.2735 29.5168 38.3405 29.2401 38.3635 28.9629C38.3688 28.9022 38.3717 28.8406 38.3727 28.7794L38.3679 28.5825L38.1968 28.681C38.1446 28.7135 38.0937 28.7479 38.0439 28.7842C37.8048 28.9577 37.5911 29.1732 37.4454 29.4318C37.3357 29.6267 37.2667 29.8418 37.2288 30.0621L37.3654 30.0157L37.3855 29.9818C37.4727 29.8394 37.5633 29.6984 37.662 29.5617C37.7602 29.425 37.8638 29.2912 37.9831 29.1656L37.984 29.166C37.9471 29.3352 37.8944 29.4958 37.836 29.654C37.7828 29.8007 37.7219 29.9436 37.6582 30.0855L37.6591 30.1333ZM36.9164 30.1978C36.949 29.8805 37.0347 29.5675 37.1914 29.2893C37.2552 29.1766 37.3295 29.0709 37.4128 28.9725C37.3841 28.8282 37.3404 28.6867 37.2853 28.5505C37.2628 28.4936 37.2379 28.4377 37.2111 28.3828L37.1186 28.2083L37.0093 28.3727C36.9777 28.4253 36.9475 28.4788 36.9192 28.5333C36.7832 28.7952 36.6892 29.0834 36.6754 29.3792C36.661 29.6736 36.7261 29.9675 36.8349 30.2399L36.9164 30.1978ZM10.7385 29.9655C10.7855 29.8399 10.8262 29.7113 10.8588 29.5813C10.9292 29.3027 10.9652 29.0145 10.9522 28.7269C10.9383 28.4138 10.866 28.1051 10.7543 27.8131C10.6216 27.4647 10.4347 27.1378 10.2109 26.8401L10.1908 26.8138C10.1893 26.8162 10.1879 26.8186 10.1865 26.821C10.0791 26.9993 9.98473 27.1856 9.90518 27.3778C9.8956 27.4012 9.88603 27.4251 9.87693 27.449C10.1678 27.783 10.405 28.1653 10.5444 28.5868C10.6882 29.0212 10.726 29.4858 10.6911 29.9407C10.6848 29.9374 10.7169 29.9541 10.7385 29.9655ZM38.7378 28.9151C38.802 28.9018 38.8653 28.8855 38.928 28.8669C39.2457 28.7742 39.5515 28.6212 39.7915 28.3909C39.9933 28.1973 40.1447 27.956 40.2549 27.7003C40.2789 27.6444 40.3009 27.5871 40.3215 27.5292L40.38 27.341L40.1859 27.3801C40.1265 27.3945 40.0671 27.4112 40.0086 27.4294C39.8265 27.4867 39.6492 27.5646 39.4868 27.6654C39.4676 27.7591 39.4422 27.8518 39.4101 27.9426C39.2874 28.2858 39.0703 28.5906 38.8116 28.8454C38.7871 28.8693 38.7632 28.8927 38.7378 28.9151ZM38.4177 28.2365C38.4311 28.1978 38.445 28.1591 38.4589 28.1204C38.5178 27.9641 38.5796 27.8083 38.6506 27.6559C38.721 27.503 38.7977 27.3519 38.8907 27.2062L38.8921 27.2067C38.8878 27.3797 38.8662 27.5474 38.8389 27.7132C38.8125 27.8795 38.7766 28.043 38.7383 28.2055C38.7119 28.3077 38.6851 28.4095 38.6554 28.5108L38.6602 28.5849C38.8839 28.3517 39.0689 28.0745 39.1624 27.7634C39.2429 27.4963 39.2558 27.2119 39.2261 26.9352C39.2194 26.8745 39.2108 26.8138 39.1997 26.7536L39.158 26.5605L39.0085 26.6901C38.9635 26.7316 38.9199 26.7751 38.8782 26.82C38.676 27.0356 38.5073 27.2874 38.4134 27.5689C38.3372 27.7973 38.3118 28.0396 38.3218 28.28L38.4273 28.2327L38.4177 28.2365ZM38.0406 28.4358C38.0104 28.1137 38.0343 27.7844 38.1369 27.4767C38.1781 27.3543 38.2313 27.2368 38.2941 27.124C38.2385 26.9878 38.1685 26.8573 38.0889 26.734C38.0559 26.6824 38.0209 26.6318 37.984 26.583L37.8599 26.4291L37.7842 26.6117C37.7631 26.669 37.7435 26.7268 37.7262 26.7856C37.6424 27.0685 37.605 27.3696 37.6471 27.663C37.6893 27.956 37.8101 28.2337 37.9701 28.4817L38.0406 28.4358ZM30.4329 27.372C30.4271 27.3801 30.4214 27.3883 30.4156 27.3949C34.2051 25.211 35.5018 20.378 33.3109 16.6002C32.2366 14.7474 30.4564 13.4079 28.3738 12.8884C32.9544 16.3211 33.8764 22.8062 30.4329 27.372ZM14.688 16.6002C12.4976 20.378 13.7943 25.211 17.5838 27.3949C17.5781 27.3883 17.5723 27.3801 17.5665 27.372C14.1231 22.8062 15.0446 16.3211 19.6252 12.8884C17.5431 13.4079 15.7624 14.7474 14.688 16.6002ZM8.9885 26.6752C9.04696 26.7116 9.15047 26.7847 9.14568 26.7818C9.26883 26.3015 9.30621 25.7921 9.19792 25.3056C9.1337 25.0179 9.02061 24.7422 8.8759 24.486C8.6962 24.1687 8.46857 23.8781 8.21028 23.621L8.18679 23.5976C8.18584 23.6005 8.18442 23.6028 8.18346 23.6057C8.10296 23.7974 8.03635 23.9952 7.98507 24.1969C7.94434 24.3565 7.91367 24.5185 7.89403 24.6819C7.85761 24.9916 7.86193 25.308 7.92374 25.6143C7.98508 25.9206 8.10293 26.2141 8.25675 26.486C8.33774 26.6294 8.4288 26.767 8.528 26.8989C8.57544 26.962 8.62478 27.0236 8.67605 27.0843L8.69714 26.9988C8.63772 26.7574 8.5879 26.5142 8.54046 26.2705C8.49493 26.0234 8.45228 25.7758 8.41969 25.5259C8.38567 25.2764 8.35835 25.0251 8.3478 24.7704L8.34927 24.7699C8.45038 25.0045 8.53422 25.2425 8.61185 25.4824C8.69044 25.7218 8.75897 25.9637 8.8251 26.206C8.86295 26.3512 8.89985 26.4965 8.93483 26.6423L8.9885 26.6752ZM7.64387 24.3933C7.45363 24.2413 7.24904 24.1075 7.03532 23.9914L7.00607 23.9756C7.00607 23.9785 7.00558 23.9813 7.0051 23.9842C6.98114 24.1978 6.97348 24.4134 6.98258 24.6284C6.98929 24.7856 7.0056 24.9429 7.03195 25.0982C7.08562 25.4145 7.18338 25.7247 7.33624 26.0081C7.47665 26.2686 7.66163 26.5032 7.87247 26.7106C8.00185 26.8382 8.14127 26.9558 8.2879 27.0633C8.27209 27.0423 8.2563 27.0212 8.24096 26.9997C7.95536 26.6026 7.73494 26.1524 7.63814 25.6712C7.55332 25.2502 7.56576 24.8148 7.64387 24.3933ZM39.5357 26.9104C39.5975 26.8889 39.6583 26.865 39.7178 26.8387C40.0216 26.7068 40.3062 26.5175 40.5151 26.259C40.691 26.0416 40.8108 25.7835 40.8879 25.5163C40.9047 25.4576 40.92 25.3978 40.933 25.3381L40.9675 25.1436L40.7796 25.2071C40.7221 25.2286 40.6656 25.2525 40.6095 25.2779C40.4365 25.3577 40.2702 25.4566 40.1217 25.577C40.115 25.6726 40.1011 25.7677 40.0805 25.8614C40.0019 26.2174 39.8246 26.5472 39.5999 26.832C39.5788 26.8583 39.5577 26.8846 39.5357 26.9104ZM9.41449 26.9065C9.51465 26.7402 9.60331 26.5668 9.67711 26.3871C9.78589 26.1214 9.86206 25.8408 9.88986 25.5546C9.92005 25.2425 9.89177 24.9271 9.82276 24.6217C9.74034 24.2585 9.60091 23.9082 9.42169 23.5823L9.4054 23.5536C9.40348 23.5555 9.40157 23.5579 9.40013 23.5598C9.26883 23.7218 9.14904 23.8924 9.04314 24.0721C9.0302 24.0941 9.01772 24.1161 9.00526 24.1381C9.2463 24.5099 9.42743 24.9218 9.50554 25.3582C9.59036 25.8294 9.55635 26.3159 9.44614 26.7804C9.43608 26.8224 9.42552 26.8645 9.41449 26.9065ZM38.78 26.5056C38.7124 26.195 38.6966 25.8709 38.7589 25.5584C38.7843 25.4318 38.8221 25.308 38.8705 25.1885C38.7982 25.0604 38.7129 24.9395 38.6185 24.8272C38.5787 24.7799 38.5375 24.7345 38.4953 24.6905L38.3525 24.5529L38.3008 24.7436C38.2864 24.8033 38.2744 24.8635 38.2648 24.9237C38.2169 25.2148 38.2174 25.5178 38.296 25.8036C38.3741 26.087 38.527 26.3455 38.7143 26.5701L38.78 26.5056ZM39.4532 26.5419C39.6286 26.2948 39.7618 26.0148 39.8121 25.7151C39.8586 25.4394 39.8356 25.156 39.7714 24.8855C39.757 24.8258 39.7407 24.7665 39.7225 24.7082L39.6569 24.5218L39.5246 24.669C39.4853 24.7159 39.4479 24.7641 39.4115 24.8138C39.2385 25.0533 39.1029 25.3242 39.0449 25.6148C39.0004 25.8361 39.0023 26.064 39.0358 26.2872L39.1475 26.2074C39.1513 26.1907 39.1552 26.1734 39.159 26.1567C39.1978 25.9942 39.2395 25.8322 39.2913 25.6721C39.3416 25.5116 39.3986 25.3519 39.4729 25.1957L39.4743 25.1962C39.4916 25.3682 39.4915 25.5374 39.4853 25.7051C39.48 25.8733 39.4647 26.0401 39.447 26.206C39.4384 26.2743 39.4293 26.3431 39.4192 26.411L39.4532 26.5419ZM40.1979 24.9252C40.2549 24.8936 40.311 24.8602 40.3661 24.8248C40.6435 24.6451 40.8932 24.4114 41.0571 24.1223C41.1951 23.8795 41.2708 23.6052 41.3034 23.329C41.3101 23.2678 41.3154 23.2067 41.3182 23.1455L41.3202 22.9481L41.1457 23.0413C41.0925 23.0724 41.0403 23.1049 40.9895 23.1393C40.8319 23.2463 40.6838 23.3711 40.5573 23.514C40.5659 23.6095 40.5683 23.7051 40.563 23.8012C40.5439 24.1653 40.4231 24.519 40.2482 24.8372C40.2319 24.8669 40.2151 24.896 40.1979 24.9252ZM38.871 24.6757C38.9242 24.7417 38.975 24.8095 39.0219 24.8798C39.0277 24.8702 39.0335 24.8602 39.0392 24.8506C38.9803 24.7952 38.9242 24.7369 38.871 24.6757ZM39.7154 24.0779C39.7249 23.9665 39.7369 23.8547 39.7532 23.7429C39.7772 23.5766 39.8069 23.4098 39.8548 23.2435C39.9003 23.4103 39.9291 23.5775 39.9501 23.7443C39.9727 23.9111 39.9851 24.0779 39.9947 24.2447C39.9995 24.3723 40.0033 24.4999 40.0024 24.6275C40.0057 24.6384 40.0091 24.6494 40.0124 24.6609L40.0177 24.6504C40.1715 24.3584 40.2741 24.0325 40.2746 23.7003C40.275 23.4212 40.2061 23.145 40.0982 22.8889C40.0743 22.832 40.0489 22.7766 40.0211 22.7216L39.9257 22.5486L39.8193 22.7154C39.7887 22.7684 39.759 22.822 39.7316 22.8769C39.5999 23.1412 39.5107 23.4308 39.5011 23.7271C39.4959 23.892 39.515 24.0564 39.5534 24.2165C39.5668 24.204 39.7154 24.0779 39.7154 24.0779ZM39.319 24.4616C39.2429 24.2212 39.2017 23.9699 39.2098 23.7175C39.2141 23.5885 39.2314 23.4604 39.2591 23.3347C39.1671 23.22 39.0627 23.1144 38.951 23.0193C38.9045 22.9792 38.8562 22.941 38.8068 22.9046L38.6443 22.7923L38.6237 22.9887C38.6199 23.0499 38.618 23.1111 38.618 23.1723C38.6185 23.4676 38.6688 23.7663 38.7934 24.0353C38.8926 24.2494 39.0363 24.4396 39.204 24.6055L39.319 24.4616ZM8.78102 23.6741C8.82223 23.6253 8.862 23.5761 8.90082 23.5254C9.17156 23.1732 9.38528 22.7713 9.48495 22.3369C9.5506 22.0497 9.56689 21.7519 9.54628 21.4585C9.52041 21.0948 9.43989 20.7355 9.31722 20.3928L9.30572 20.3618C9.30381 20.3637 9.30141 20.3656 9.29949 20.3675C9.14375 20.5061 8.99857 20.6561 8.86584 20.8167C8.84954 20.8363 8.83372 20.8559 8.81743 20.876C8.99665 21.2807 9.10975 21.7161 9.11789 22.1596C9.12652 22.638 9.01533 23.1135 8.83276 23.5541C8.81647 23.5942 8.79923 23.6344 8.78102 23.6741ZM6.86998 20.3995L6.86758 20.4076C6.81151 20.6079 6.77078 20.8124 6.74538 21.0189C6.72526 21.1823 6.7152 21.3472 6.71663 21.5116C6.71951 21.8236 6.7636 22.1367 6.86375 22.433C6.96342 22.7292 7.11724 23.0055 7.30413 23.2554C7.40284 23.3878 7.51067 23.513 7.62568 23.631C7.63143 23.6373 7.64244 23.6478 7.64244 23.6478C7.63094 23.6253 7.61946 23.6028 7.60795 23.5804C7.38944 23.1431 7.2428 22.6638 7.22411 22.1735C7.20734 21.7443 7.2888 21.3161 7.43256 20.9128C7.26867 20.7331 7.08849 20.5677 6.89633 20.4196L6.86998 20.3995ZM8.52703 23.5292C8.60418 23.3548 8.66887 23.1746 8.71822 22.9907C8.79346 22.7135 8.83421 22.4258 8.82606 22.1386C8.81696 21.8251 8.74986 21.5154 8.643 21.221C8.58645 21.0652 8.51889 20.9137 8.44221 20.7665C8.34302 20.5758 8.22849 20.3928 8.10054 20.2198L8.09575 20.2126C8.09383 20.215 8.09242 20.2174 8.09098 20.2198C7.97693 20.4024 7.87725 20.5935 7.79292 20.7914C7.72775 20.9438 7.67214 21.1006 7.62758 21.2602C7.5442 21.5618 7.5006 21.8757 7.51641 22.1888C7.53126 22.4917 7.59981 22.7909 7.70523 23.0752C7.76178 23.2272 7.82836 23.3754 7.90359 23.5192L8.00759 23.2932L8.03298 23.2449C8.02771 23.1326 8.02339 23.0198 8.01956 22.9075C8.01429 22.6561 8.01142 22.4052 8.01909 22.1534C8.02532 21.9015 8.03777 21.6492 8.06796 21.3959H8.06939C8.13217 21.643 8.17673 21.892 8.21555 22.141C8.25484 22.3895 8.28457 22.6389 8.31092 22.8889C8.32578 23.0432 8.33967 23.1976 8.35117 23.3519L8.52703 23.5292ZM40.461 22.9008C40.5127 22.8611 40.5625 22.8191 40.6109 22.7751C40.8563 22.5539 41.0652 22.2834 41.1807 21.9718C41.2775 21.7099 41.3087 21.427 41.2962 21.1493C41.2933 21.0881 41.2885 21.027 41.2814 20.9663L41.2521 20.7708L41.0945 20.8908C41.047 20.9295 41.001 20.9701 40.956 21.0122C40.8175 21.1426 40.6915 21.2894 40.5894 21.4509C40.6133 21.5436 40.6311 21.6377 40.6412 21.7338C40.6809 22.096 40.6186 22.4645 40.4964 22.8062C40.4854 22.8382 40.4734 22.8698 40.461 22.9008ZM39.5381 22.6208C39.4144 22.3852 39.3262 22.1309 39.2922 21.8666C39.2755 21.7386 39.2716 21.6095 39.2793 21.481C39.17 21.3825 39.0498 21.2951 38.9242 21.2186C38.872 21.1866 38.8183 21.1565 38.7637 21.1283L38.5849 21.0437L38.5964 21.2406C38.6022 21.3018 38.6103 21.3625 38.6204 21.4232C38.6683 21.7142 38.7661 22.0009 38.9319 22.247C39.0713 22.4535 39.2563 22.626 39.4614 22.767L39.5381 22.6208ZM40.1797 22.4067C40.2108 22.4588 40.2405 22.5123 40.2688 22.5663C40.3527 22.2796 40.3881 21.9761 40.3402 21.6803C40.2961 21.4045 40.1835 21.1426 40.0359 20.907C40.0033 20.8549 39.9693 20.8043 39.9329 20.7546L39.8112 20.5988L39.7331 20.7804C39.711 20.8373 39.6904 20.8951 39.6722 20.9539C39.5845 21.2353 39.5428 21.5355 39.5812 21.8299C39.6032 22.0033 39.6535 22.1715 39.7225 22.3321L39.8509 22.1711C39.8414 22.0497 39.8342 21.9278 39.8328 21.805C39.8289 21.6373 39.8318 21.4681 39.8524 21.296H39.8538C39.9252 21.4533 39.9794 21.6138 40.0273 21.7749C40.0762 21.9359 40.115 22.0989 40.1509 22.2619C40.161 22.3101 40.1706 22.3579 40.1797 22.4067ZM40.4816 20.8497C40.5285 20.8048 40.5741 20.7575 40.6177 20.7092C40.8386 20.4635 41.0183 20.173 41.1007 19.8514C41.1702 19.5809 41.1716 19.296 41.1299 19.0212C41.1213 18.9606 41.1098 18.9003 41.0964 18.8406L41.047 18.6495L40.9028 18.7847C40.8596 18.8282 40.818 18.8736 40.7777 18.9199C40.6531 19.0643 40.5434 19.2234 40.4586 19.3945C40.4921 19.4839 40.5194 19.5761 40.5396 19.6698C40.6167 20.0263 40.5927 20.3995 40.507 20.7517C40.4993 20.7847 40.4907 20.8172 40.4816 20.8497ZM39.492 20.5997C39.3651 20.3962 39.2668 20.1754 39.2112 19.9422C39.182 19.8184 39.1652 19.6922 39.159 19.5661L39.1585 19.5594C39.0397 19.4729 38.9113 19.3983 38.7785 19.3352C38.7229 19.3089 38.6664 19.2846 38.6094 19.2621L38.4225 19.1962L38.4546 19.3911C38.4666 19.4509 38.481 19.5106 38.4972 19.5699C38.5754 19.8542 38.7018 20.1295 38.8926 20.357C39.0397 20.5324 39.2218 20.6753 39.4197 20.7895L39.492 20.5997ZM39.5956 18.6289C39.574 18.6906 39.5543 18.7527 39.5371 18.8158C39.5208 18.8745 39.5069 18.9343 39.4949 18.9945C39.4369 19.2836 39.4264 19.5866 39.4949 19.8753C39.5289 20.0177 39.5817 20.1548 39.6478 20.2853L39.7489 20.119L39.7949 20.1629C39.7743 20.0511 39.7561 19.9383 39.7427 19.8246C39.7221 19.6578 39.7072 19.4891 39.7096 19.3161L39.7106 19.3156C39.7982 19.4652 39.8687 19.6191 39.9329 19.7744C39.9985 19.9297 40.0541 20.0874 40.1068 20.2461C40.1504 20.3847 40.1931 20.5242 40.2286 20.6652C40.231 20.6542 40.2333 20.6432 40.2362 20.6318C40.3076 20.3097 40.321 19.9684 40.2348 19.6478C40.162 19.3782 40.023 19.1297 39.8514 18.9104C39.8136 18.8621 39.7743 18.8148 39.7335 18.7694L39.596 18.627L39.5956 18.6289ZM9.90808 17.2726C9.90808 17.2726 9.65601 17.4499 9.5228 17.5235C9.45379 17.5618 9.38382 17.5986 9.31242 17.633C9.38909 18.0612 9.39677 18.5032 9.30332 18.929C9.20078 19.3964 8.98274 19.8332 8.70337 20.2203C8.67797 20.2557 8.65163 20.2906 8.62528 20.325C8.67655 20.2872 8.72687 20.2485 8.77622 20.2079C9.12076 19.9273 9.4217 19.5857 9.61961 19.1857C9.74995 18.9214 9.83474 18.6361 9.88266 18.3455C9.94064 17.9914 9.94641 17.6291 9.90808 17.2726ZM8.401 20.1391L8.40437 20.1348C8.71201 19.7314 8.95065 19.2655 9.03931 18.7632C9.09154 18.465 9.09152 18.1591 9.0527 17.8595C9.00718 17.5058 8.90944 17.1589 8.77239 16.8301L8.75943 16.7995C8.75752 16.8014 8.7556 16.8033 8.7532 16.8052C8.60513 16.952 8.46809 17.1092 8.3435 17.276C8.24479 17.4084 8.15421 17.5465 8.07323 17.6898C7.92084 17.9622 7.80394 18.2561 7.74308 18.563C7.6827 18.8693 7.67934 19.1852 7.71719 19.4949C7.73684 19.6583 7.76848 19.8203 7.80921 19.9799C7.81783 20.0129 7.82692 20.0459 7.83603 20.0784L7.96972 19.88C7.99799 19.7209 8.02963 19.5622 8.06173 19.4041C8.11444 19.1584 8.17005 18.9133 8.2357 18.67C8.29991 18.4268 8.37083 18.184 8.459 17.9446H8.46044C8.46379 18.1997 8.44988 18.4521 8.42975 18.703C8.41059 18.9543 8.38136 19.2038 8.34973 19.4528C8.32577 19.6239 8.30085 19.795 8.27258 19.9651L8.401 20.1391ZM7.5236 16.6992L7.51931 16.7063C7.41867 16.8889 7.33145 17.0781 7.25909 17.2731C7.20159 17.4275 7.15366 17.5856 7.11724 17.7462C7.04728 18.0502 7.01806 18.3651 7.04681 18.6762C7.07508 18.9873 7.16134 19.2917 7.28497 19.578C7.35014 19.7295 7.42634 19.8757 7.51068 20.0177C7.51403 20.0229 7.51738 20.0287 7.52074 20.0344L7.52407 20.0396C7.51784 20.0143 7.51161 19.989 7.50538 19.9637C7.38942 19.4686 7.36021 18.9477 7.46947 18.4487C7.55716 18.0483 7.72919 17.6707 7.95249 17.3276C7.83126 17.1078 7.68844 16.8994 7.52887 16.7059L7.5236 16.6992ZM39.2376 18.8105C39.0938 18.6279 38.975 18.4258 38.895 18.2069C38.8513 18.0874 38.8197 17.9646 38.7986 17.8399L38.7977 17.8337C38.6693 17.761 38.5332 17.7023 38.3937 17.655C38.3358 17.6354 38.2768 17.6177 38.2174 17.6024L38.0243 17.5584L38.0789 17.7486C38.0981 17.8064 38.1191 17.8643 38.1422 17.9211C38.2528 18.1945 38.4115 18.453 38.6276 18.6566C38.7919 18.8115 38.9865 18.9309 39.1935 19.0212L39.2376 18.8105ZM40.2635 18.9601C40.3047 18.9099 40.344 18.8578 40.3819 18.8048C40.5721 18.5348 40.7164 18.2256 40.7605 17.8963C40.7974 17.6196 40.7657 17.3367 40.6924 17.0686C40.6761 17.0093 40.6579 16.951 40.6378 16.8927L40.5659 16.7087L40.4389 16.8602C40.4011 16.9085 40.3647 16.9582 40.3306 17.0088C40.2238 17.167 40.1332 17.3376 40.0695 17.5173C40.1131 17.6024 40.1509 17.6908 40.1821 17.7816C40.3004 18.1266 40.3206 18.4999 40.2774 18.8602C40.2731 18.8937 40.2688 18.9266 40.2635 18.9601ZM40.0043 18.637C40.0177 18.3512 39.9837 18.0616 39.8768 17.7955C39.7728 17.5364 39.6056 17.3056 39.4096 17.1078C39.3665 17.0643 39.3214 17.0222 39.2754 16.9816L39.1226 16.8564L39.0862 17.0504C39.0771 17.1111 39.0699 17.1718 39.0651 17.233C39.0416 17.5274 39.067 17.8289 39.1686 18.1075C39.2146 18.2322 39.275 18.3508 39.3464 18.4621L39.402 18.3302L39.4844 18.1567L39.4575 18.2131C39.4403 18.152 39.424 18.0903 39.4091 18.0287C39.3684 17.8652 39.3344 17.6994 39.3162 17.5274L39.3176 17.5269C39.4221 17.665 39.5098 17.8098 39.5922 17.9565C39.6751 18.1032 39.7489 18.2533 39.8203 18.4043C39.8294 18.4253 39.839 18.4463 39.8485 18.4674L40.0043 18.637ZM38.7962 17.0198C38.6525 16.8698 38.5279 16.7025 38.4321 16.5176C38.3731 16.4048 38.3262 16.2867 38.2893 16.1658L38.2873 16.1596C38.1508 16.1042 38.0084 16.0631 37.8642 16.0339C37.8038 16.022 37.743 16.0119 37.6821 16.0038L37.4852 15.9852L37.5638 16.1663C37.5901 16.2217 37.6184 16.2762 37.6486 16.3297C37.7933 16.5869 37.9835 16.8234 38.2241 16.9978C38.3894 17.1178 38.5758 17.2062 38.7704 17.2683L38.7867 17.0906C38.7896 17.0671 38.7929 17.0432 38.7962 17.0198ZM9.96508 16.8688C10.1208 16.7364 10.2631 16.5892 10.3868 16.4268C10.577 16.1773 10.7189 15.8939 10.8209 15.5976C10.9417 15.2454 11.0078 14.8746 11.0265 14.5032L11.0279 14.4698C11.0251 14.4707 11.0227 14.4717 11.0198 14.4726C10.8229 14.5415 10.6312 14.6246 10.4467 14.7221C10.4242 14.7341 10.4016 14.746 10.3791 14.7584C10.3887 15.201 10.3264 15.6464 10.163 16.0588C10.001 16.4693 9.74612 16.8387 9.44231 17.1579L9.65745 17.0265C9.75042 16.9735 9.96508 16.8688 9.96508 16.8688ZM39.885 17.091C39.92 17.0356 39.9521 16.9792 39.9827 16.9219C40.1375 16.6299 40.241 16.3044 40.2425 15.9723C40.2439 15.6932 40.1758 15.4165 40.069 15.1599C40.045 15.1035 40.0196 15.0475 39.9923 14.9931L39.8974 14.8196L39.7906 14.9859C39.7594 15.0385 39.7302 15.0925 39.7024 15.1469C39.6166 15.3171 39.5486 15.4977 39.5083 15.6846C39.563 15.7634 39.6118 15.8461 39.654 15.9321C39.8155 16.2595 39.8835 16.627 39.8859 16.9897C39.8864 17.0232 39.8859 17.0571 39.885 17.091ZM9.1591 17.0322C9.27171 16.9195 9.37761 16.8005 9.47489 16.6743C9.65075 16.4468 9.79882 16.1964 9.90185 15.9278C10.014 15.6349 10.071 15.3233 10.0854 15.0103C10.1021 14.6385 10.0614 14.2643 9.97517 13.902L9.96701 13.87C9.96462 13.8719 9.96271 13.8734 9.96031 13.8753C9.79068 13.9962 9.62966 14.1295 9.48015 14.2748C9.36179 14.3895 9.25013 14.5113 9.14758 14.6404C8.94776 14.8918 8.78149 15.1713 8.67272 15.4743C8.57017 15.7601 8.51889 16.0626 8.50691 16.3651C8.50308 16.4573 8.50309 16.5491 8.50644 16.6409C8.56442 16.5821 8.62479 16.5252 8.68661 16.4702L8.85145 16.3326L8.85671 16.3426L8.86151 16.3302C8.95303 16.0961 9.04697 15.8633 9.15048 15.6334C9.25302 15.4031 9.3618 15.1752 9.48735 14.9525L9.48829 14.9529C9.45139 15.2052 9.39725 15.4523 9.33687 15.697C9.27793 15.9417 9.20942 16.1835 9.13802 16.4244C9.10735 16.5247 9.07571 16.6246 9.0436 16.724C9.05031 16.7393 9.05653 16.7546 9.06276 16.7704C9.09774 16.8564 9.12987 16.9438 9.1591 17.0322ZM39.5917 16.8784C39.5759 16.5682 39.5054 16.2571 39.3531 15.9847C39.2165 15.741 39.0215 15.5331 38.8015 15.362C38.7531 15.3243 38.7033 15.2884 38.6525 15.254L38.4848 15.1493L38.4738 15.3462C38.4723 15.4074 38.4733 15.469 38.4762 15.5302C38.4901 15.8246 38.5538 16.1209 38.6908 16.3842C38.7416 16.4827 38.8025 16.5759 38.871 16.6628L38.9563 16.4019L38.9735 16.4129C38.9549 16.367 38.9362 16.3216 38.9189 16.2753C38.8576 16.1185 38.8025 15.9589 38.7627 15.7902L38.7637 15.7897C38.8854 15.913 38.9908 16.0454 39.0914 16.1806C39.1926 16.3154 39.285 16.455 39.3746 16.5959C39.412 16.6566 39.4489 16.7168 39.4849 16.7785L39.5917 16.8784ZM9.08625 14.2633C9.00431 14.0344 8.90081 13.8136 8.78005 13.6029L8.76327 13.5742C8.76135 13.5766 8.75992 13.579 8.758 13.5809C8.62526 13.7505 8.50498 13.9297 8.40004 14.1176C8.32289 14.2552 8.25343 14.3971 8.19449 14.5434C8.07708 14.8325 7.99751 15.1388 7.97595 15.4504C7.95439 15.762 7.9908 16.076 8.067 16.3785C8.10725 16.5381 8.15855 16.6953 8.21941 16.8483C8.22276 16.8564 8.22562 16.864 8.22897 16.8722C8.22945 16.876 8.22514 16.8239 8.22274 16.7947C8.18728 16.2872 8.24191 15.7687 8.42975 15.2932C8.58022 14.9118 8.81071 14.5668 9.08625 14.2633ZM38.1815 15.3763C37.9711 15.2444 37.7789 15.0824 37.6232 14.8889C37.5432 14.7895 37.4737 14.6834 37.4133 14.572C37.4133 14.572 37.3045 14.5486 37.2513 14.5424C37.177 14.5338 37.1023 14.5295 37.0271 14.5271C36.9993 14.5266 36.971 14.5266 36.9427 14.5266C36.8905 14.5276 36.8388 14.5295 36.7865 14.5328L36.5896 14.5534C36.648 14.6452 36.7127 14.7331 36.7822 14.8172C36.9935 15.0714 37.2547 15.2917 37.5614 15.4208C37.7598 15.5044 37.972 15.5493 38.1862 15.5656L38.1815 15.3763ZM38.6515 13.1192C38.6386 13.1551 38.514 13.7864 38.513 13.8595C38.582 13.9264 38.6463 13.9981 38.7052 14.0741C38.9285 14.3632 39.0675 14.7097 39.1422 15.0647C39.1494 15.0977 39.1556 15.1307 39.1614 15.1642C39.1844 15.103 39.205 15.0413 39.2237 14.9792C39.3171 14.6624 39.354 14.3231 39.2898 13.9971C39.2357 13.7233 39.1144 13.4657 38.9587 13.2354C38.9242 13.1842 38.8883 13.135 38.8504 13.0863L38.7229 12.9352L38.6515 13.1192ZM38.8346 15.026C38.7584 14.7207 38.6266 14.4253 38.4201 14.1849C38.2385 13.9728 38.0056 13.8074 37.7564 13.6832C37.7013 13.6554 37.6457 13.6301 37.5887 13.6067L37.4037 13.5369L37.4315 13.7324C37.4425 13.7926 37.4555 13.8523 37.4703 13.9121C37.5427 14.1979 37.6639 14.476 37.8503 14.7068C37.9524 14.8335 38.0722 14.9443 38.2035 15.0404L38.2394 14.8306C38.1747 14.7407 38.112 14.6495 38.0525 14.5553C37.9615 14.4134 37.8757 14.2676 37.8029 14.1104L37.8043 14.1094C37.9476 14.2069 38.0774 14.3154 38.2025 14.4287C38.3285 14.5405 38.4469 14.659 38.5629 14.7795C38.6156 14.8363 38.6678 14.8932 38.7196 14.951C38.7584 14.9749 38.7967 15.0002 38.8346 15.026ZM10.2713 13.8896C10.2981 14.0072 10.3446 14.2409 10.3446 14.2409C10.715 13.9943 11.0471 13.6832 11.2824 13.3037C11.4377 13.0533 11.5493 12.7771 11.625 12.4927C11.7185 12.14 11.7587 11.774 11.7535 11.4103L11.753 11.3768C11.7501 11.3783 11.7477 11.3792 11.7448 11.3802C11.5527 11.4619 11.3667 11.557 11.1889 11.666C11.0485 11.752 10.9129 11.8466 10.7845 11.9503C10.5416 12.1467 10.3235 12.3761 10.1534 12.639C9.98281 12.9013 9.86207 13.1933 9.78205 13.4949C9.76624 13.5551 9.75185 13.6153 9.73891 13.676L9.94832 13.5336L10.1328 13.4237L10.1596 13.5025C10.2924 13.3061 10.4275 13.1111 10.5708 12.9204C10.7208 12.7178 10.877 12.519 11.0476 12.3293L11.049 12.3298C10.9575 12.5682 10.8506 12.7971 10.7385 13.0227C10.6273 13.2492 10.5075 13.47 10.3853 13.6898C10.3475 13.7558 10.3096 13.8222 10.2708 13.8882L10.2713 13.8896ZM11.3121 14.0879C11.315 14.1491 11.3159 14.1749 11.3159 14.1749C11.4386 14.0965 11.5551 14.0086 11.6638 13.9111C11.8953 13.7032 12.0879 13.4547 12.2451 13.1871C12.4258 12.8793 12.5618 12.5453 12.6548 12.2007L12.6567 12.1926C12.6543 12.1931 12.6515 12.1936 12.6486 12.1936C12.4344 12.2189 12.2221 12.2605 12.0141 12.3183C11.9964 12.3231 11.9787 12.3283 11.9609 12.3336C11.8737 12.767 11.7151 13.1885 11.4659 13.5556C11.2953 13.8065 11.0869 14.0292 10.854 14.2232C10.9422 14.1912 11.0318 14.1615 11.1224 14.1367L11.3121 14.0879ZM37.156 13.8404C36.9782 13.7305 36.8148 13.5981 36.6754 13.4423C36.5896 13.3458 36.5134 13.2416 36.4468 13.1312C36.3581 13.1192 36.269 13.1125 36.1794 13.1106C36.1597 13.1106 36.1396 13.1102 36.12 13.1102C35.9546 13.1116 35.7898 13.1288 35.6273 13.1594L35.6259 13.1599C35.6892 13.2483 35.7582 13.3329 35.832 13.4131C36.0557 13.6564 36.3279 13.8633 36.6408 13.9766C36.8258 14.0435 37.0204 14.0779 37.2163 14.0875L37.2159 14.0851C37.1948 14.0129 37.156 13.8404 37.156 13.8404ZM10.807 11.5694C10.8018 11.5264 10.7955 11.4839 10.7888 11.4413C10.7563 11.2358 10.7078 11.0332 10.6451 10.8349L10.6422 10.8268C10.6403 10.8287 10.6379 10.8301 10.636 10.832C10.3532 11.0633 10.0988 11.3309 9.88889 11.6292C9.70488 11.8915 9.55586 12.1792 9.46433 12.4865C9.3752 12.7861 9.34165 13.1006 9.3498 13.4122C9.35459 13.5771 9.37043 13.7415 9.3963 13.9039C9.39774 13.9125 9.39916 13.9211 9.4006 13.9297L9.41163 13.8519C9.48447 13.3687 9.64116 12.8932 9.90855 12.4808C10.1429 12.1204 10.4563 11.817 10.807 11.5694ZM38.33 13.168C38.3588 12.9343 38.352 12.6963 38.2945 12.4674C38.2265 12.1964 38.0923 11.9455 37.9246 11.7228C37.8877 11.6741 37.8489 11.6263 37.8091 11.5799L37.674 11.4351L37.6122 11.6225C37.5949 11.6812 37.5796 11.741 37.5661 11.8007C37.5254 11.9866 37.5048 12.1787 37.512 12.3694L37.5163 12.3732C37.5868 12.4354 37.6529 12.5018 37.7142 12.5735C37.9519 12.8507 38.1091 13.19 38.2016 13.5407C38.2088 13.5675 38.2155 13.5943 38.2217 13.6205L38.2298 13.6268C38.2337 13.6148 38.2423 13.5804 38.2423 13.5804C38.2605 13.4409 38.2907 13.3027 38.33 13.168ZM36.3873 12.1047C36.3979 12.1692 36.4103 12.2332 36.4252 12.2968C36.4391 12.3565 36.4549 12.4158 36.4731 12.4746C36.5599 12.7565 36.6955 13.0275 36.8929 13.2492C36.9576 13.3214 37.0285 13.3878 37.1037 13.4485L37.0999 13.1599L37.1469 13.1704C37.1267 13.1431 37.1066 13.1154 37.087 13.0872C36.9892 12.9505 36.8958 12.8091 36.8153 12.6557L36.8162 12.6547C36.9643 12.745 37.0999 12.8468 37.2307 12.9529C37.362 13.0585 37.4861 13.1709 37.6083 13.2855L37.6356 13.3118C37.6749 13.3271 37.7138 13.3434 37.7526 13.3601C37.7871 13.3759 37.8216 13.3916 37.8561 13.4084C37.7636 13.1474 37.627 12.9004 37.4354 12.6987C37.2427 12.4961 37.0022 12.3431 36.7467 12.2313C36.6907 12.2065 36.6337 12.184 36.5757 12.1635L36.3869 12.1032L36.3873 12.1047ZM35.0902 11.7945C35.0269 11.7955 34.9637 11.7983 34.9004 11.8036L34.6541 11.8356C34.7159 11.925 34.7835 12.011 34.8559 12.0922C35.0753 12.3393 35.3441 12.5505 35.6556 12.6695C35.854 12.745 36.0653 12.7828 36.2776 12.7928L36.1933 12.5553C36.0092 12.4397 35.8411 12.3001 35.6987 12.1357C35.6154 12.0392 35.5425 11.9355 35.4783 11.826L35.4754 11.8208C35.4333 11.8141 35.2138 11.7792 35.0902 11.7945ZM26.0857 12.3178C25.4095 12.7919 24.4751 12.6304 23.9997 11.9556C23.5244 12.6304 22.5899 12.7919 21.9138 12.3178C21.3464 11.9207 21.1274 11.1866 21.3848 10.5439C21.5295 11.3094 22.2694 11.8136 23.037 11.6683C23.4415 11.5928 23.7937 11.3443 23.9997 10.9888C24.2058 11.3443 24.558 11.5928 24.9619 11.6683C25.7301 11.8136 26.47 11.3094 26.6147 10.5439C26.872 11.1866 26.653 11.9207 26.0857 12.3178ZM37.3711 11.4179C37.3639 11.3405 37.352 11.264 37.3342 11.1881C37.271 10.9161 37.1407 10.6628 36.9772 10.4378C36.9408 10.3881 36.9035 10.3398 36.8637 10.293L36.7314 10.1458L36.6662 10.3322C36.648 10.3909 36.6317 10.4497 36.6174 10.5095C36.5737 10.6949 36.5493 10.8865 36.5532 11.0772C36.6241 11.1412 36.6911 11.2105 36.7525 11.2846C36.9571 11.5321 37.0985 11.8265 37.189 12.1333C37.2005 12.1405 37.212 12.1477 37.2235 12.1548C37.2336 11.9752 37.2643 11.7959 37.3098 11.6225C37.327 11.556 37.3711 11.4179 37.3711 11.4179ZM35.4338 10.7933C35.4429 10.8583 35.4543 10.9223 35.4682 10.9864C35.4807 11.0461 35.496 11.1054 35.5128 11.1642C35.5952 11.448 35.7256 11.7214 35.9197 11.946C35.9738 12.0091 36.0328 12.0674 36.095 12.1219C36.0864 12.064 36.0797 12.0053 36.0754 11.947L36.0644 11.7419L36.0879 11.7462C36.0026 11.6206 35.9221 11.491 35.8521 11.3515L35.8531 11.3505C35.9997 11.4433 36.1334 11.5474 36.2623 11.6559C36.3255 11.709 36.3874 11.763 36.4482 11.8189L36.7261 11.9092C36.7549 11.9202 36.7836 11.9312 36.8119 11.9431C36.728 11.7467 36.6164 11.5627 36.4712 11.405C36.2824 11.1991 36.0442 11.0418 35.7908 10.9262C35.7352 10.9004 35.6781 10.877 35.6206 10.855L35.4333 10.7919L35.4338 10.7933ZM12.8221 11.8877L12.8412 11.8872C12.9859 11.8308 13.1259 11.7634 13.2591 11.6841C13.5365 11.5188 13.7804 11.3013 13.9889 11.0557C14.0962 10.9295 14.1945 10.7957 14.2845 10.6562C14.401 10.4755 14.5031 10.2853 14.5903 10.0889L14.5941 10.0813L14.3881 10.0779C14.3119 10.0793 14.2357 10.0817 14.16 10.087C14.0679 10.0927 13.9759 10.1018 13.8844 10.1138C13.732 10.5295 13.5106 10.9214 13.2083 11.2464C12.9265 11.5489 12.5824 11.7878 12.2125 11.9709L12.5024 11.9197C12.6083 11.9044 12.7152 11.893 12.8221 11.8877ZM12.0376 11.7329C12.1416 11.6832 12.2436 11.6287 12.3424 11.5694C12.5815 11.4261 12.8043 11.2531 12.9946 11.049C13.2145 10.8129 13.3875 10.5357 13.5188 10.2418C13.5864 10.0908 13.6429 9.93454 13.6899 9.77588C13.7512 9.56943 13.7958 9.35868 13.8245 9.14553L13.8255 9.13693C13.8226 9.13789 13.8197 9.13837 13.8173 9.13932C13.6151 9.19046 13.4162 9.25593 13.2241 9.33669C13.0717 9.40073 12.9236 9.47336 12.7808 9.55652C12.5106 9.71327 12.2599 9.90682 12.0515 10.1405C11.8483 10.368 11.6873 10.6304 11.5632 10.908C11.5215 11.0022 11.4837 11.0973 11.4496 11.1943C11.4755 11.1818 11.5014 11.1699 11.5278 11.158C11.625 11.114 11.7247 11.0729 11.8258 11.038L11.9121 11.0098C12.0774 10.8311 12.2456 10.6538 12.4205 10.4822C12.6002 10.3054 12.7847 10.1324 12.9831 9.97086L12.984 9.97182C12.857 10.1931 12.7162 10.4034 12.571 10.6093C12.4262 10.8158 12.2743 11.016 12.1196 11.2143C12.0937 11.2468 12.0683 11.2789 12.0424 11.3114C12.0443 11.3615 12.0453 11.4117 12.0453 11.4619C12.0457 11.5522 12.0429 11.6425 12.0376 11.7329ZM35.2804 11.3935C35.0188 11.2511 34.7787 11.0662 34.5904 10.8354C34.5084 10.735 34.437 10.627 34.3757 10.5138C34.323 10.5042 34.2698 10.4965 34.2161 10.4908C34.1418 10.4827 34.0671 10.4789 33.9918 10.4774L33.7762 10.4827L33.5544 10.5066C33.6138 10.5979 33.679 10.6853 33.7489 10.7685C33.9617 11.0218 34.2243 11.2401 34.5319 11.3677C34.714 11.4428 34.9071 11.4858 35.1031 11.504L35.325 11.5111C35.3092 11.4724 35.2943 11.4332 35.2804 11.3935ZM12.8613 9.18281C12.8685 8.94004 12.8527 8.69679 12.8173 8.45688L12.8125 8.42439C12.8101 8.42582 12.8077 8.42726 12.8053 8.42869C12.6256 8.53431 12.4536 8.6533 12.2916 8.78472C12.1636 8.88842 12.0419 9.00025 11.9284 9.11972C11.7075 9.35293 11.5172 9.61721 11.3825 9.90921C11.2551 10.185 11.1774 10.4822 11.1391 10.7828C11.1171 10.9548 11.1075 11.1288 11.1094 11.3023L11.1324 11.2268C11.2848 10.7412 11.5254 10.2781 11.8737 9.90348C12.1536 9.60336 12.4938 9.36537 12.8613 9.18281ZM35.6599 10.5601C35.5876 10.4038 35.496 10.2566 35.383 10.1257C35.1994 9.91494 34.966 9.7515 34.7159 9.6282C34.6608 9.60144 34.6048 9.57611 34.5477 9.5527L34.3623 9.48484L34.3915 9.67981C34.4025 9.74003 34.4159 9.79976 34.4313 9.85902C34.5055 10.1448 34.6287 10.422 34.8161 10.6519C34.9186 10.7771 35.0384 10.8865 35.1697 10.9811C35.1491 10.876 35.1343 10.7689 35.1266 10.6619C35.0892 10.6084 35.0528 10.5539 35.0173 10.4989C34.9253 10.3575 34.8386 10.2122 34.7653 10.0554L34.7662 10.0545C34.91 10.151 35.0408 10.259 35.1668 10.3709C35.197 10.3976 35.2263 10.4244 35.2555 10.4511C35.2555 10.4511 35.243 10.4487 35.3063 10.4607C35.3777 10.475 35.4481 10.4932 35.5181 10.5142C35.5655 10.5281 35.613 10.5439 35.6599 10.5601ZM36.2158 10.8239C36.2886 10.5333 36.3112 10.2275 36.2513 9.93263C36.1957 9.65927 36.0725 9.40265 35.9149 9.17278C35.8804 9.1226 35.8439 9.07289 35.8056 9.0251L35.6777 8.87456L35.6072 9.05904C35.5871 9.11686 35.5694 9.17563 35.5536 9.23489C35.5047 9.41888 35.475 9.60957 35.474 9.80025C35.474 9.80025 35.6087 9.93931 35.6671 10.0134C35.8324 10.2246 35.9527 10.4674 36.0351 10.7221C36.0965 10.7536 36.1568 10.7876 36.2158 10.8239ZM34.1931 10.0836C33.9516 9.96655 33.7278 9.81267 33.5419 9.61865C33.4542 9.52641 33.3756 9.42654 33.3061 9.32044L33.3028 9.31518L33.1111 9.3042C33.0958 9.30372 33.0804 9.30371 33.0651 9.30371C32.8701 9.30515 32.6755 9.32856 32.4848 9.37158H32.4833C32.5495 9.45807 32.6218 9.54027 32.698 9.61817C32.93 9.85377 33.2089 10.0511 33.5256 10.1539C33.5798 10.1711 33.6344 10.1859 33.6895 10.1983C33.7604 10.1921 33.8318 10.1883 33.9027 10.1869C33.9339 10.1864 33.9655 10.1864 33.9966 10.1869C34.0757 10.1883 34.1548 10.1926 34.2338 10.2007L34.1931 10.0836ZM34.5832 9.25449C34.4993 9.10682 34.3977 8.96918 34.2765 8.84971C34.0771 8.65377 33.8313 8.50897 33.5721 8.40575C33.5151 8.38329 33.4571 8.36226 33.3986 8.34362L33.2084 8.2901L33.2529 8.48221C33.2688 8.54147 33.2865 8.60025 33.3066 8.65807C33.4034 8.93716 33.5477 9.20336 33.7528 9.41794C33.8563 9.52594 33.9727 9.61912 34.0987 9.69893L34.0973 9.69129C34.081 9.5981 34.069 9.50396 34.0623 9.40933V9.40264C34.0211 9.35246 33.9804 9.3018 33.9411 9.24971C33.8385 9.11638 33.7408 8.97827 33.655 8.82773L33.6559 8.82678C33.8074 8.91185 33.9459 9.00886 34.08 9.11065L34.0872 9.11638L34.2439 9.14984C34.3153 9.16609 34.3853 9.18663 34.4543 9.20909C34.4979 9.22343 34.5405 9.23825 34.5832 9.25449ZM35.1501 9.54266C35.2109 9.22869 35.2157 8.89894 35.1271 8.58926C35.0499 8.32116 34.9066 8.07457 34.7317 7.85808C34.6934 7.81029 34.6532 7.76393 34.6115 7.71901L34.472 7.57898L34.4159 7.76871C34.4006 7.82749 34.3877 7.88771 34.3767 7.94792C34.3422 8.13526 34.3278 8.32785 34.3417 8.51805C34.4155 8.57874 34.4859 8.64422 34.5506 8.71543C34.7456 8.92762 34.8913 9.17994 34.9958 9.44756C35.048 9.47767 35.0997 9.50921 35.1501 9.54266ZM14.1346 8.96488C14.1288 9.06572 14.1168 9.16609 14.1015 9.26549C14.0957 9.30468 14.089 9.34385 14.0823 9.38304C14.1945 9.29463 14.2975 9.19428 14.3861 9.0815C14.5591 8.86119 14.676 8.60073 14.7494 8.33168C14.7656 8.27242 14.7795 8.2122 14.7915 8.15198L14.8236 7.95604C14.8227 7.95652 14.8222 7.95653 14.8212 7.95653C14.7589 7.9766 14.6966 7.99858 14.6358 8.02248C14.5788 8.04494 14.5222 8.06978 14.4666 8.09607C14.1988 8.22367 13.9486 8.39762 13.7579 8.62606C13.6846 8.71351 13.6209 8.80766 13.5658 8.90659L13.5749 8.90419C13.6918 8.86979 13.8106 8.83967 13.9309 8.81673L13.9855 8.80718C14.1039 8.6944 14.2266 8.58496 14.3626 8.48652L14.3636 8.48698C14.298 8.64182 14.2199 8.78663 14.136 8.92714L14.1346 8.96488Z" fill="white"/>
</svg>
