<svg width="48" height="49" viewBox="0 0 48 49" fill="none" xmlns="http://www.w3.org/2000/svg">
<path fill-rule="evenodd" clip-rule="evenodd" d="M15.1109 44.2726C15.229 44.1864 15.3452 44.0981 15.4584 44.0058C15.6995 43.8094 15.9282 43.5973 16.1395 43.369C16.2379 43.2627 16.3325 43.153 16.4229 43.0397C16.4952 42.949 16.5646 42.8558 16.6333 42.7623C16.7498 42.6034 16.8626 42.4416 16.9714 42.2772C17.276 41.8171 17.5501 41.3367 17.7937 40.8414C17.9108 40.6034 18.0203 40.3619 18.1238 40.1176C18.1443 40.0689 18.1646 40.02 18.1846 39.9712C18.1913 39.9548 18.2045 39.9222 18.2045 39.9222C18.3989 40.1217 18.5976 40.317 18.8012 40.5071C19.3244 40.9957 19.8768 41.4526 20.4512 41.8793C20.6643 42.0377 20.8804 42.1917 21.0994 42.3418C21.2189 42.4238 21.3389 42.5049 21.4607 42.5834C21.6244 42.6888 21.7913 42.7894 21.9607 42.8855C22.3363 43.0986 22.7241 43.2896 23.1192 43.4634C23.2825 43.5353 23.4473 43.6036 23.6128 43.6703C23.6687 43.6924 23.7247 43.7145 23.7808 43.7364C22.9629 45.5349 21.5448 47.0861 20.0993 48.3027C18.2027 47.1208 16.3946 45.7628 15.1109 44.2726ZM4.1528 36.1705C4.2662 36.2141 4.3802 36.2553 4.4956 36.2927C4.7383 36.3714 4.9861 36.4351 5.2374 36.4799C5.3529 36.5005 5.4691 36.5171 5.5858 36.5295C5.6926 36.5407 5.7997 36.548 5.9069 36.5541C6.0495 36.5623 6.1923 36.5675 6.3351 36.5697C6.7884 36.577 7.2422 36.5541 7.6924 36.5011C7.8879 36.4781 8.0824 36.4486 8.2763 36.415C8.3591 36.3999 8.359 36.3999 8.4417 36.3842C8.3995 36.5984 8.3609 36.8131 8.328 37.0289C8.256 37.502 8.2083 37.9789 8.1842 38.4568C8.171 38.7179 8.1649 38.9793 8.1658 39.2406C8.1664 39.4437 8.171 39.6466 8.1859 39.8492C8.2183 40.2899 8.2919 40.7258 8.3919 41.1559C8.4062 41.2158 8.4209 41.2756 8.436 41.3354C8.5621 41.3182 8.6878 41.2987 8.8129 41.2751C9.0781 41.2249 9.3403 41.1584 9.5962 41.072C9.7149 41.0321 9.8323 40.9878 9.9478 40.939C10.0402 40.8999 10.1315 40.8578 10.2223 40.8153C10.3488 40.7559 10.4742 40.6942 10.5983 40.63C11.1759 40.3318 11.7255 39.9822 12.244 39.59C12.3054 39.5432 12.3664 39.4959 12.427 39.4481C12.4874 39.4 12.5474 39.3515 12.6071 39.3026C12.6803 39.5657 12.7587 39.8274 12.845 40.0866C13.0355 40.6587 13.2595 41.2196 13.5141 41.7662C13.5993 41.9492 13.688 42.1306 13.7801 42.3105C13.8359 42.4195 13.8924 42.5284 13.9517 42.6355C14.0279 42.7736 14.1082 42.9094 14.1922 43.0429C14.4272 43.4162 14.6909 43.77 14.9722 44.1095C15.0181 44.1641 15.0644 44.2186 15.1109 44.2726C13.7875 45.2233 12.1477 45.7814 10.6257 46.0976C9.6845 44.5904 8.8459 42.9381 8.436 41.3354C7.5641 41.4478 6.6481 41.3987 5.7584 41.2521C5.2163 41.164 4.6805 41.0405 4.1681 40.8957C3.9591 39.3414 3.8854 37.6641 4.1528 36.1705ZM23.7808 43.7364C23.8526 43.5761 23.9212 43.4143 23.9838 43.2503C24.1173 42.9008 24.2272 42.5422 24.3081 42.1768C24.3485 41.9946 24.3817 41.8109 24.4071 41.6259C24.43 41.4593 24.446 41.2917 24.4603 41.1241C24.4783 40.9139 24.4917 40.7033 24.5005 40.4924C24.5277 39.8469 24.5123 39.1996 24.4538 38.556C24.4278 38.2697 24.3927 37.9844 24.3502 37.7001C24.3378 37.6194 24.3248 37.5389 24.3114 37.4584L24.381 37.4773L24.4509 37.496C24.7849 37.5844 25.1205 37.666 25.4579 37.7398C26.3091 37.9263 27.17 38.0667 28.0353 38.1678C28.342 38.2037 28.6492 38.2345 28.9568 38.2607C29.16 38.2779 29.3634 38.294 29.567 38.3055C29.8208 38.3197 30.075 38.3271 30.3291 38.3284C30.9138 38.3314 31.4985 38.3023 32.0806 38.2484C32.3536 38.223 32.6258 38.1916 32.8978 38.1567C33.3328 40.5721 32.8979 43.1419 32.1644 45.4035C30.9606 45.3034 29.7715 45.1653 28.6277 44.9789C26.8766 44.695 25.2258 44.2949 23.7808 43.7364ZM12.9871 38.9707C13.2157 38.7615 13.4352 38.5425 13.6474 38.3164C13.9113 38.0353 14.1641 37.7434 14.4048 37.4421C14.5956 37.2031 14.7791 36.9579 14.9508 36.7047C15.1104 36.4692 15.2603 36.2266 15.3851 35.9707C15.3981 35.943 15.4109 35.9155 15.4233 35.8876C15.5263 36.154 15.6531 36.4106 15.7878 36.6621C15.9551 36.9747 16.1364 37.2797 16.3271 37.5785C16.5742 37.9654 16.8378 38.342 17.1188 38.7051C17.3409 38.992 17.5741 39.2703 17.8218 39.5353L17.7219 39.7814L17.7025 39.8285C17.5915 40.096 17.473 40.3602 17.3452 40.6199C17.1185 41.0807 16.8646 41.5281 16.583 41.9573C16.4699 42.1298 16.3524 42.2994 16.2304 42.4657C16.1321 42.5996 16.0318 42.7318 15.9241 42.8582C15.7257 43.0912 15.5074 43.3052 15.2764 43.5055C15.2468 43.5308 15.2173 43.556 15.1872 43.5807C14.9291 43.2571 14.692 42.9151 14.4828 42.5577C14.3916 42.4019 14.3072 42.2424 14.225 42.0818C14.1277 41.8919 14.0344 41.7001 13.9449 41.5064C13.7217 41.0227 13.5231 40.5277 13.3514 40.0232C13.266 39.7724 13.1881 39.5191 13.1155 39.2643L13.0674 39.0913L12.9871 38.9707ZM18.4061 39.4127L18.4086 39.4056C18.549 39.0095 18.6702 38.6066 18.7712 38.1986C18.9374 37.5274 19.0489 36.8421 19.0989 36.1522C19.1206 35.8531 19.1297 35.5537 19.1285 35.2539C19.128 35.2045 19.1273 35.155 19.1265 35.1055C19.4426 35.3157 19.7635 35.5184 20.0911 35.7102C20.5933 36.0041 21.1101 36.2731 21.64 36.5132C22.1862 36.7608 22.746 36.9775 23.3157 37.1641C23.4695 37.2145 23.6241 37.2625 23.7793 37.3085L23.8282 37.6003L23.8376 37.6586C23.8779 37.9126 23.912 38.1674 23.9386 38.4232C24.007 39.083 24.0284 39.7477 24.0034 40.4104C23.9942 40.6548 23.9786 40.899 23.9568 41.1426C23.9382 41.3501 23.9154 41.5571 23.8801 41.7625C23.8026 42.2148 23.6763 42.6591 23.5108 43.0869L23.4776 43.0728C23.3212 43.0057 23.1656 42.9368 23.0116 42.8645C22.69 42.7135 22.3745 42.5495 22.0682 42.3694C21.9544 42.3025 21.842 42.2335 21.7311 42.1621C21.595 42.0743 21.461 41.9833 21.3277 41.8913C21.0626 41.7084 20.8017 41.5192 20.5456 41.3239C19.8894 40.8231 19.2653 40.2806 18.683 39.6953C18.5902 39.6014 18.498 39.5071 18.4061 39.4127ZM8.9746 36.2671C9.4761 36.1406 9.9672 35.9716 10.4446 35.7731C10.6867 35.6724 10.9255 35.5635 11.1598 35.4456C11.4788 35.2851 11.789 35.1076 12.0842 34.9062C12.1281 34.8756 12.128 34.8757 12.1716 34.8446C12.1363 35.1335 12.1247 35.4245 12.1243 35.7153C12.1238 36.0486 12.1381 36.382 12.1628 36.7143C12.1914 37.0987 12.2342 37.482 12.2924 37.863C12.3389 38.1677 12.3956 38.4708 12.4658 38.7707L12.2549 38.944C12.0603 39.1027 11.861 39.2554 11.6562 39.4006C11.2703 39.6744 10.8666 39.9232 10.4481 40.1437C10.3038 40.2197 10.1579 40.2923 10.0103 40.3616C9.8815 40.422 9.752 40.4805 9.6192 40.5316C9.3595 40.6313 9.0904 40.7086 8.8177 40.7636L8.8166 40.7581C8.7511 40.4276 8.7027 40.0941 8.6808 39.7577C8.6695 39.585 8.6663 39.4119 8.6657 39.2389C8.6651 39.0493 8.6683 38.8596 8.6753 38.67C8.6914 38.237 8.7274 37.8048 8.7839 37.3751C8.8116 37.1651 8.8448 36.956 8.8816 36.7475C8.8924 36.6886 8.9034 36.6297 8.9146 36.5708L8.9746 36.2671ZM15.7234 35.2772C16.1532 34.3242 16.4213 33.3333 16.5049 32.3504C17.0162 33.2114 17.7309 34.0109 18.6198 34.7227L18.6278 35.1867C18.6291 35.3051 18.6291 35.4236 18.6268 35.542C18.6211 35.8301 18.6038 36.118 18.5755 36.4048C18.5126 37.0435 18.3954 37.6765 18.2297 38.2964C18.1659 38.5353 18.0944 38.7719 18.0168 39.0066L17.9966 38.9838C17.923 38.8996 17.8502 38.815 17.7789 38.729C17.5804 38.4897 17.3912 38.2427 17.2099 37.9902C17.0041 37.7035 16.8084 37.4094 16.6231 37.109C16.4737 36.8668 16.331 36.6202 16.1982 36.3684C16.0911 36.1654 15.9902 35.959 15.9047 35.746L15.7234 35.2772ZM12.7249 34.4393C13.476 33.8457 14.1234 33.145 14.6336 32.3568C14.6405 33.3051 14.8233 34.2738 15.1661 35.2356L14.9584 35.7021L14.9511 35.7182C14.8607 35.9109 14.7522 36.0942 14.6368 36.2727C14.5091 36.4705 14.3726 36.6623 14.231 36.8501C14.0266 37.1211 13.8113 37.3839 13.5871 37.6387C13.3641 37.8922 13.1322 38.1381 12.8905 38.3739L12.8888 38.3659C12.7685 37.761 12.691 37.148 12.6514 36.5325C12.6353 36.2819 12.6255 36.0309 12.6244 35.7797C12.6233 35.5341 12.6306 35.2884 12.6526 35.0437C12.6572 34.9977 12.6571 34.9978 12.6622 34.9518L12.7249 34.4393ZM38.6892 27.3134C41.0905 29.3007 42.7487 32.0785 43.866 34.8657C40.0817 36.4576 36.2746 37.7171 32.8978 38.1567L32.8897 38.1117C32.8446 37.8724 32.7919 37.6347 32.7294 37.3992C32.6048 36.9307 32.4433 36.4717 32.2418 36.0307C32.1725 35.8788 32.0984 35.7291 32.0196 35.5819C31.9428 35.4384 31.8617 35.2974 31.7794 35.157C31.6005 34.8519 31.4123 34.5523 31.215 34.2588C30.814 33.6623 30.376 33.0908 29.9044 32.5486C29.6812 32.2919 29.4501 32.0424 29.2128 31.7989C29.1622 31.7473 29.1113 31.696 29.0602 31.6448C29.4672 31.5396 29.8723 31.427 30.2749 31.3059C31.1965 31.0287 32.1056 30.7104 33.001 30.3576C33.478 30.1695 33.9512 29.9716 34.4204 29.7645C34.6418 29.6668 34.8628 29.5678 35.0819 29.4647C35.3041 29.3602 35.5242 29.2513 35.7423 29.1385C36.6642 28.6615 37.5474 28.1133 38.3986 27.5195C38.4957 27.4513 38.5926 27.3826 38.6892 27.3134ZM28.4919 31.784L28.7571 32.0495L28.8065 32.0993L28.8557 32.1495C29.0863 32.386 29.3107 32.6284 29.5275 32.8776C30.0174 33.441 30.4702 34.037 30.8814 34.6604C31.0436 34.9064 31.1993 35.1565 31.3483 35.4107C31.4273 35.5454 31.5053 35.6809 31.579 35.8187C31.6394 35.9315 31.6968 36.0459 31.7513 36.1617C31.9865 36.6617 32.1656 37.1866 32.2957 37.7236L32.261 37.7273C32.0363 37.75 31.8115 37.7703 31.5862 37.7858C31.0804 37.8209 30.5731 37.8353 30.0661 37.8238C29.8917 37.8199 29.7174 37.8128 29.5432 37.8024C29.3617 37.7914 29.1803 37.777 28.9991 37.7616C28.5891 37.7267 28.1797 37.6832 27.7716 37.6307C27.0066 37.5324 26.2455 37.4019 25.4925 37.2346C25.1866 37.1666 24.8823 37.0921 24.5794 37.0119C24.4646 36.9812 24.3499 36.9502 24.2353 36.9191C24.1668 36.5444 24.0683 36.1751 23.9542 35.812C23.7703 35.2262 23.5443 34.6536 23.2911 34.0946C23.137 33.7546 22.9725 33.4189 22.7939 33.0911C22.7299 32.9738 22.664 32.8574 22.595 32.743C22.5297 32.6346 22.462 32.5272 22.3857 32.4262C22.3728 32.4096 22.3597 32.3931 22.3461 32.377L22.4161 32.3816L22.4864 32.386C22.8245 32.4055 23.1631 32.4159 23.5018 32.415C24.1264 32.4132 24.7509 32.3771 25.3722 32.3144C26.203 32.2304 27.0288 32.0981 27.8461 31.9275C28.0621 31.8824 28.2773 31.8344 28.4919 31.784ZM19.0961 34.4845C19.0064 33.3476 18.7324 32.2812 18.2745 31.3461C19.225 31.8298 20.3557 32.1549 21.6329 32.3095L21.9714 32.7088L21.9762 32.7148C21.9824 32.7225 21.9824 32.7225 21.9884 32.7303C22.043 32.8027 22.0919 32.8793 22.1394 32.9565C22.2028 33.0595 22.263 33.1644 22.3215 33.2702C22.4779 33.5526 22.6224 33.8418 22.7589 34.1344C22.9435 34.5302 23.1132 34.9332 23.2649 35.3428C23.4361 35.8056 23.5847 36.2772 23.6927 36.7589L23.6426 36.7431C23.3881 36.6621 23.1352 36.5764 22.8846 36.4836C22.4803 36.334 22.0821 36.1679 21.6913 35.9857C21.2567 35.783 20.8315 35.5604 20.4164 35.3203C20.1958 35.1926 19.9784 35.0596 19.7631 34.9232C19.6909 34.877 19.619 34.8305 19.5473 34.7837C19.3966 34.6845 19.2462 34.5846 19.0961 34.4845ZM2.4061 29.5555C2.6822 29.8733 2.9797 30.1719 3.3081 30.4354C3.4042 30.5126 3.5027 30.5866 3.6037 30.6572C3.6808 30.711 3.7594 30.7627 3.8384 30.8137C3.9616 30.8932 4.0864 30.9703 4.2127 31.0449C4.5834 31.2637 4.967 31.4606 5.3614 31.6331C5.5668 31.7229 5.7753 31.8052 5.9858 31.8823C6.0642 31.9104 6.0642 31.9104 6.1428 31.9377C5.9994 32.1288 5.8604 32.3229 5.7276 32.5216C5.4568 32.9267 5.2098 33.3477 4.9868 33.7811C4.9016 33.9467 4.8199 34.1141 4.7417 34.2831C4.7002 34.3728 4.6593 34.4629 4.6209 34.554C4.5782 34.6553 4.5382 34.7578 4.5007 34.8612C4.366 35.2324 4.2649 35.6145 4.1855 36.0012C4.1743 36.0575 4.1634 36.1139 4.1528 36.1705C2.8771 35.6806 1.6494 34.7717 0.5926 33.8018C0.9916 32.3321 1.5686 30.7882 2.4061 29.5555ZM6.6357 32.1145C6.7938 32.1624 6.9541 32.2033 7.1156 32.2387C7.3538 32.2908 7.5945 32.3312 7.8362 32.3627C8.1153 32.3989 8.3959 32.4232 8.6769 32.4371C9.0172 32.4539 9.3582 32.4552 9.6986 32.4391C9.7463 32.4366 9.794 32.4337 9.8417 32.4306C9.886 32.4274 9.9303 32.4239 9.9746 32.4201L9.9413 32.4743C9.8302 32.6571 9.7238 32.8426 9.6233 33.0316C9.3864 33.4773 9.1802 33.9392 9.0033 34.412C8.8606 34.7932 8.7369 35.1817 8.6316 35.5751C8.6069 35.667 8.5834 35.7592 8.5609 35.8517L8.2678 35.9074C8.0575 35.9457 7.8464 35.9786 7.634 36.0036C7.2058 36.054 6.7741 36.0758 6.343 36.0689C6.2071 36.0668 6.0712 36.0618 5.9355 36.054C5.8063 36.0466 5.6772 36.0372 5.5488 36.021C5.2721 35.9859 4.9983 35.9248 4.7319 35.8421L4.7331 35.837C4.8101 35.5151 4.9039 35.1976 5.0246 34.8891C5.0878 34.7274 5.1595 34.5692 5.2334 34.4122C5.3097 34.2503 5.3893 34.0901 5.4722 33.9316C5.6623 33.5685 5.87 33.2147 6.0952 32.8724C6.19 32.7283 6.2883 32.5867 6.3888 32.4465C6.4392 32.3773 6.4392 32.3774 6.4901 32.3085L6.6357 32.1145ZM10.6125 32.3369C11.4956 32.1862 12.3447 31.8891 13.1205 31.4474C12.6948 32.277 12.4064 33.1977 12.2544 34.1715L11.8409 34.4656C11.4689 34.7246 11.0688 34.9412 10.6582 35.1322C10.1588 35.3644 9.6417 35.5579 9.1128 35.7112L9.1145 35.7049C9.2556 35.1833 9.4274 34.6706 9.6362 34.1722C9.7732 33.8452 9.9255 33.5247 10.0937 33.2127C10.1712 33.069 10.2523 32.9277 10.3362 32.7877C10.4276 32.6371 10.5199 32.4869 10.6125 32.3369ZM9.729 29.3811C10.5609 29.7089 11.4246 29.8805 12.2866 29.8763C11.5472 30.4107 10.8875 31.0951 10.3271 31.8869L9.8904 31.9246L9.8493 31.9278C9.6025 31.9458 9.3549 31.9518 9.1074 31.9491C8.85 31.9463 8.5927 31.9341 8.3363 31.9125C8.0654 31.8896 7.7952 31.8562 7.5274 31.8093C7.3436 31.777 7.1604 31.7391 6.9799 31.6913L6.9854 31.6848C7.082 31.5719 7.1802 31.4604 7.2808 31.3511C7.5207 31.0906 7.7729 30.8413 8.0371 30.6057C8.2792 30.3897 8.5312 30.1851 8.7929 29.9935C8.9212 29.8996 9.052 29.8095 9.1845 29.7218C9.234 29.6896 9.2836 29.6576 9.3334 29.6261C9.4649 29.5438 9.5969 29.4624 9.729 29.3811ZM23.2856 28.5124L23.8168 28.7229C23.9803 28.7891 24.1427 28.8574 24.3036 28.9296C24.6601 29.0895 25.0095 29.2652 25.3509 29.4552C26.0362 29.8365 26.6897 30.2747 27.3064 30.7593C27.5575 30.9564 27.8019 31.1617 28.041 31.3733L28.0157 31.3789C27.019 31.5964 26.0105 31.7604 24.9937 31.8465C24.4972 31.8886 23.9988 31.9127 23.5004 31.9141C23.2409 31.9148 22.9815 31.9085 22.7223 31.8969C22.6536 31.8935 22.5848 31.8899 22.5161 31.886C22.3339 31.8747 22.1517 31.8628 21.9696 31.8506C21.2353 30.8864 20.3761 30.1036 19.4326 29.5482C20.6267 29.4465 21.9275 29.0984 23.2856 28.5124ZM6.334 27.0077L6.3501 27.025C6.6368 27.328 6.9398 27.6157 7.2591 27.8841C7.5966 28.1679 7.9523 28.4302 8.3253 28.6653C8.4973 28.7738 8.6731 28.8758 8.8519 28.9727C8.905 29.001 8.9583 29.029 9.0119 29.0565C9.0653 29.0836 9.1189 29.1102 9.1728 29.1366L9.12 29.169C8.9434 29.2794 8.7698 29.3943 8.6002 29.5153C8.2008 29.7999 7.8223 30.1137 7.466 30.4509C7.1789 30.7226 6.9062 31.0094 6.6483 31.3091C6.588 31.3791 6.5287 31.4499 6.4701 31.5214L6.2303 31.4379C6.0298 31.3663 5.8312 31.2897 5.6354 31.206C5.259 31.045 4.8927 30.8607 4.5384 30.6554C4.3933 30.5713 4.2502 30.4836 4.1092 30.3926C3.9817 30.3103 3.8562 30.2254 3.7352 30.1338C3.5241 29.9738 3.3267 29.7973 3.1389 29.6106C3.1086 29.5801 3.0785 29.5494 3.0487 29.5185C3.2417 29.2643 3.4508 29.0223 3.6802 28.8004C3.8046 28.68 3.9357 28.5671 4.0691 28.4569C4.2168 28.3348 4.3676 28.2166 4.5214 28.1023C4.8233 27.878 5.1364 27.6688 5.4596 27.4766C5.6306 27.3749 5.8045 27.2786 5.9804 27.1859C6.0556 27.147 6.0555 27.147 6.131 27.1087L6.334 27.0077ZM29.6159 24.3341L30.0993 24.4102L30.1824 24.4235C30.5743 24.488 30.9646 24.5613 31.3529 24.6452C32.2691 24.843 33.1735 25.0953 34.0605 25.3988C34.4024 25.5158 34.7418 25.6404 35.0783 25.7725C35.2422 25.8368 35.4059 25.9023 35.5678 25.9718C35.718 26.0362 35.8667 26.104 36.0138 26.1751C36.4037 26.3637 36.7821 26.5756 37.1476 26.808C37.3299 26.924 37.5087 27.0454 37.6847 27.1708C37.7397 27.2105 37.7945 27.2504 37.849 27.2907L37.8262 27.3062L37.7689 27.3451C37.0239 27.8475 36.2541 28.3132 35.4545 28.7235C35.2611 28.8227 35.0661 28.9188 34.8694 29.0112C34.6539 29.1125 34.4366 29.21 34.2188 29.3062C33.8164 29.4837 33.411 29.6545 33.0027 29.818C32.2304 30.1273 31.4476 30.4105 30.6552 30.6636C30.2536 30.7919 29.8495 30.9118 29.4432 31.0245C29.3304 31.0554 29.2174 31.0859 29.1042 31.1158C28.9482 31.1567 28.792 31.1972 28.6359 31.2375C28.6038 31.2076 28.5715 31.1778 28.5391 31.1483C28.1428 30.7866 27.7292 30.4442 27.2994 30.1234C26.6049 29.6052 25.8677 29.1435 25.0946 28.7524C24.7648 28.5855 24.4284 28.4328 24.0868 28.292C24.0306 28.2692 23.9743 28.2467 23.9179 28.2243C24.202 28.0873 24.4831 27.9446 24.7605 27.7946C25.4869 27.4019 26.1896 26.9655 26.8694 26.4966C27.6469 25.9605 28.3949 25.3816 29.1147 24.7699C29.2834 24.6265 29.4504 24.4811 29.6159 24.3341ZM2.4061 29.5555C1.4261 28.4147 0.6306 26.8685 0 25.3149C0.9779 24.0721 2.1835 22.8354 3.5183 22.0631L3.5076 22.0205C3.0575 20.2161 2.9467 18.0407 3.0065 15.8918C3.5968 15.6036 4.2168 15.3444 4.8565 15.128C5.9099 14.7758 7.0016 14.5541 8.0606 14.5728C7.9437 15.2229 7.8571 15.8785 7.8258 16.5386C7.818 16.702 7.8136 16.8656 7.8129 17.0292C7.8123 17.1759 7.8151 17.3224 7.8186 17.4691C7.8242 17.7077 7.8335 17.9464 7.8466 18.1847C7.8967 19.0972 8.004 20.0063 8.1787 20.9034C8.1973 20.997 8.2165 21.0906 8.2363 21.184C7.9888 21.1641 7.7408 21.1523 7.4925 21.1501C6.9724 21.1454 6.452 21.1807 5.9371 21.2544C5.7626 21.2794 5.5887 21.3089 5.4156 21.3427C5.3157 21.3622 5.2159 21.3825 5.1168 21.4062C5.0072 21.4323 4.8986 21.4624 4.791 21.4958C4.5162 21.5813 4.2486 21.6894 3.9892 21.8138C3.865 21.8733 3.743 21.9371 3.6222 22.0033C3.5701 22.0323 3.5702 22.0323 3.5183 22.0617C3.6452 22.5549 3.8004 23.0408 4.0013 23.5092C4.0592 23.6441 4.1207 23.7774 4.1863 23.9089C4.2356 24.0076 4.2872 24.1051 4.3394 24.2024C4.4201 24.3525 4.5034 24.5012 4.5892 24.6485C4.8375 25.0743 5.1076 25.4873 5.3998 25.884C5.5494 26.0871 5.7054 26.2851 5.8659 26.4795C5.9068 26.5282 5.9444 26.5736 5.9859 26.6217C5.7738 26.7271 5.5644 26.8376 5.3589 26.9556C4.9263 27.2038 4.5101 27.4807 4.1133 27.7829C3.9784 27.8858 3.8457 27.9915 3.7153 28.1001C3.6398 28.1629 3.5648 28.2263 3.4917 28.2919C3.4107 28.3646 3.3318 28.4395 3.255 28.5167C2.979 28.7937 2.7318 29.097 2.5041 29.4148C2.4711 29.4615 2.4384 29.5083 2.4061 29.5555ZM10.2912 26.0758C10.8763 26.8752 11.5561 27.5267 12.312 27.9967C11.428 28.1015 10.5443 28.393 9.7001 28.8367L9.3397 28.6608L9.2892 28.6358L9.2389 28.6103C8.9834 28.4786 8.7345 28.3351 8.4933 28.1786C7.8848 27.7832 7.3269 27.3125 6.8208 26.7927L6.8592 26.7769C7.0918 26.6825 7.3274 26.5957 7.5664 26.5188C8.1135 26.3428 8.6769 26.2154 9.2476 26.1467C9.3755 26.1313 9.5041 26.1225 9.6325 26.1133C9.7224 26.1073 9.8124 26.1018 9.9024 26.0966L10.2912 26.0758ZM22.6123 24.5683L23.1891 24.466C23.3958 24.4297 23.6027 24.3943 23.8099 24.3606C23.971 24.3344 24.1323 24.309 24.294 24.2871C24.4566 24.2649 24.62 24.2472 24.7833 24.2308C26.1658 24.0922 27.5629 24.1095 28.9439 24.2572L28.8875 24.3057C28.5717 24.5752 28.2517 24.8396 27.9253 25.0961C27.021 25.8069 26.0731 26.464 25.0787 27.042C24.7166 27.2525 24.3481 27.4512 23.974 27.6395C23.9136 27.6694 23.8532 27.6992 23.7926 27.7288L23.2582 27.9866C22.0033 27.5739 20.7529 27.3875 19.5673 27.4338C20.6303 26.7192 21.6599 25.7525 22.6123 24.5683ZM8.0606 14.5728C8.5033 12.1191 9.5184 9.36333 10.733 6.67149C12.723 6.93175 14.8222 7.5672 16.4367 8.9053C18.301 6.16357 20.9577 3.40221 23.844 0.802734C25.515 2.80984 26.9759 5.32497 27.4994 8.22798C29.5678 7.03734 31.8978 6.04696 34.3542 5.22158C35.9713 4.6783 37.6397 4.20726 39.32 3.79642C39.1121 7.56038 38.3996 11.5576 36.7703 15.1463C40.6102 15.2256 44.4792 16.3551 48 17.8919C45.1883 21.5124 42.0343 24.902 38.6892 27.3134L38.6457 27.2775L38.602 27.2419C38.3539 27.0411 38.0995 26.8483 37.8375 26.666C37.374 26.3436 36.8885 26.0528 36.384 25.7995C36.1975 25.7058 36.0084 25.6171 35.8171 25.5339C35.6333 25.4541 35.4472 25.3794 35.2607 25.3062C34.889 25.1602 34.5137 25.0232 34.1354 24.8953C33.3412 24.6268 32.5334 24.3985 31.7159 24.2126C31.3467 24.1287 30.9755 24.0541 30.6029 23.9871C30.5178 23.9721 30.4327 23.9575 30.3476 23.9431C30.2627 23.9291 30.1779 23.9155 30.0929 23.9022L30.1638 23.8363C30.4999 23.5226 30.8303 23.2029 31.1541 22.8764C31.9084 22.1156 32.6281 21.3204 33.3134 20.4966C33.6377 20.1068 33.9542 19.7105 34.263 19.3083C34.4087 19.1186 34.5533 18.9279 34.6941 18.7345C34.8427 18.5302 34.9871 18.3229 35.1274 18.113C35.5114 17.5382 35.8645 16.943 36.1879 16.332C36.3505 16.0248 36.505 15.7136 36.6533 15.3994C36.6927 15.3152 36.7317 15.2308 36.7703 15.1463L36.7029 15.145L36.6356 15.1439C36.2774 15.139 35.9192 15.1423 35.5612 15.1562C34.8718 15.1829 34.1838 15.2466 33.5018 15.3507C33.2384 15.391 32.976 15.4371 32.7148 15.4895C32.4756 15.5375 32.2375 15.5908 31.9997 15.6454C31.5578 15.747 31.1177 15.8568 30.6798 15.9748C29.8054 16.2105 28.9399 16.4793 28.0867 16.7831C27.693 16.9233 27.3023 17.0715 26.9141 17.2262C26.8262 17.2615 26.7385 17.2971 26.6508 17.333C26.5639 17.3689 26.4771 17.405 26.3904 17.4414L26.4182 17.3575C26.548 16.962 26.6698 16.5641 26.7818 16.1632C27.0437 15.2256 27.2552 14.2738 27.4155 13.3134C27.4819 12.9156 27.5395 12.5164 27.5883 12.1161C27.6125 11.9171 27.6354 11.7179 27.6532 11.5182C27.6715 11.313 27.6845 11.1074 27.6922 10.9015C27.7134 10.3321 27.6939 9.76134 27.6359 9.19462C27.6045 8.88867 27.5614 8.58412 27.5088 8.28118C27.5057 8.26345 27.5025 8.24572 27.4994 8.22798C27.2252 8.38767 26.953 8.55046 26.6841 8.71887C26.1385 9.06058 25.6053 9.42253 25.0898 9.80843C24.846 9.99095 24.6062 10.1788 24.3711 10.3724C24.2014 10.5121 24.0348 10.6554 23.8685 10.7991C23.6113 11.0212 23.3568 11.2465 23.1052 11.4751C22.387 12.1276 21.6923 12.8063 21.0262 13.5124C20.7331 13.8231 20.446 14.1395 20.1641 14.4606C20.0859 14.5503 20.008 14.6402 19.9304 14.7305C19.854 14.8199 19.778 14.9097 19.7024 14.9998L19.6858 14.9322C19.6072 14.617 19.521 14.3037 19.4252 13.9932C19.2059 13.2824 18.9397 12.5858 18.6255 11.9115C18.4978 11.6374 18.3622 11.3671 18.2185 11.1011C18.1482 10.9709 18.0767 10.8413 18.001 10.7143C17.9313 10.5973 17.8581 10.4825 17.7814 10.37C17.5631 10.0497 17.317 9.74842 17.0478 9.46952C16.8917 9.30783 16.7278 9.15425 16.5578 9.00729C16.5177 8.97292 16.4773 8.93896 16.4367 8.9053C16.2867 9.1275 16.1392 9.3512 15.9961 9.57781C15.6796 10.0789 15.382 10.5922 15.1101 11.1191C14.9951 11.342 14.8847 11.5672 14.7796 11.7949C14.7021 11.9627 14.6275 12.1319 14.5537 12.3014C14.4418 12.5586 14.333 12.8171 14.2276 13.077C13.937 13.7936 13.6717 14.5206 13.4359 15.2571C13.336 15.569 13.2419 15.8826 13.1526 16.1977C13.126 16.2924 13.0998 16.3873 13.074 16.4821C13.0551 16.5528 13.0362 16.6233 13.0178 16.6939C13.0117 16.7173 12.9995 16.7642 12.9995 16.7642L12.9584 16.7295C12.7521 16.5564 12.5406 16.3897 12.3228 16.2313C11.9007 15.9243 11.4569 15.6471 10.9952 15.4039C10.755 15.2773 10.5099 15.1598 10.2606 15.0522C10.1452 15.0023 10.029 14.9535 9.9111 14.9095C9.8019 14.8686 9.6911 14.8318 9.5793 14.7987C9.2732 14.7082 8.9588 14.6468 8.6417 14.611C8.4918 14.594 8.3415 14.5835 8.1908 14.5767C8.1258 14.5744 8.1256 14.5745 8.0606 14.5728ZM9.96 25.5919C9.7308 25.6042 9.5013 25.6172 9.2729 25.6401C9.1357 25.6538 8.999 25.6732 8.8628 25.6947C8.2158 25.7968 7.5801 25.968 6.9666 26.1973C6.7969 26.2606 6.629 26.3287 6.4629 26.4009L6.3599 26.2891C6.2059 26.1078 6.0561 25.9232 5.9122 25.7338C5.6076 25.3327 5.3272 24.9133 5.0705 24.48C4.97 24.3104 4.873 24.1386 4.7797 23.965C4.6929 23.8035 4.6091 23.6408 4.5328 23.4741C4.3612 23.0995 4.2204 22.7101 4.1056 22.3144L4.1074 22.3135C4.4067 22.1651 4.7158 22.0372 5.0372 21.9448C5.208 21.8958 5.3819 21.8589 5.5564 21.8256C5.751 21.7886 5.9467 21.7573 6.1432 21.7319C6.5743 21.6761 7.009 21.6488 7.4436 21.6506C7.6504 21.6515 7.857 21.6595 8.0634 21.6732C8.1605 21.6802 8.2577 21.6876 8.3548 21.6954C8.3774 21.7886 8.4009 21.8815 8.4253 21.9744C8.6728 22.9158 9.0062 23.8377 9.4505 24.7045C9.586 24.9687 9.7325 25.2267 9.8887 25.4792C9.9123 25.5168 9.9361 25.5543 9.96 25.5919C9.9467 25.5714 9.9206 25.5742 9.8848 25.5944L9.96 25.5919ZM10.5554 25.595L10.3465 25.2675C10.2085 25.0478 10.0782 24.8235 9.9569 24.594C9.6396 23.9934 9.3796 23.3633 9.1666 22.7185C9.063 22.405 8.9697 22.0877 8.8882 21.7677L8.9207 21.7729C9.0931 21.8018 9.2649 21.8343 9.4356 21.8724C9.7928 21.9523 10.1453 22.0537 10.4899 22.1773C10.8282 22.2984 11.1589 22.4407 11.479 22.6041C11.6279 22.6801 11.774 22.7611 11.9182 22.8456C11.9718 22.8775 11.9717 22.8774 12.0251 22.9099L12.3916 23.1362C12.5134 24.3008 12.7927 25.3456 13.2235 26.2336C12.4096 25.8452 11.5052 25.6352 10.5554 25.595ZM19.8952 21.9678L20.4181 21.5344C20.6834 21.3168 20.9533 21.1052 21.229 20.9011C21.9681 20.3535 22.7429 19.8547 23.5414 19.3986C23.9512 19.1645 24.3675 18.9418 24.7891 18.7298C24.9698 18.6389 25.1517 18.5503 25.3342 18.463C25.3975 18.433 25.4608 18.4031 25.5242 18.3733C25.15 19.3383 24.7182 20.2812 24.2315 21.1944C23.812 21.9815 23.3521 22.7493 22.8248 23.4691C22.7737 23.5376 22.7738 23.5376 22.7221 23.6058L22.305 24.1488C20.9134 24.4943 19.6624 25.0063 18.5959 25.666C19.1949 24.5731 19.6339 23.3214 19.8952 21.9678ZM12.862 22.8689L12.8372 22.4122C12.8271 22.2039 12.8208 21.9955 12.8196 21.787C12.8159 21.1422 12.8554 20.4974 12.9276 19.8569C13.0089 19.1356 13.1319 18.4192 13.2879 17.7104L13.2942 17.7167C13.4554 17.8786 13.6123 18.0445 13.7635 18.2158C14.0467 18.5369 14.3109 18.8749 14.554 19.2276C14.7946 19.5767 15.0146 19.9402 15.2119 20.3157C15.3155 20.5131 15.4121 20.7139 15.5036 20.9171L15.7271 21.4232C15.2288 22.6949 14.9359 23.913 14.8604 25.0407C14.3587 24.1994 13.6764 23.4661 12.862 22.8689ZM16.2293 21.3792L16.4748 20.9455L16.5297 20.8476C16.7895 20.3813 17.0489 19.9149 17.3157 19.4527C17.6264 18.9144 17.9456 18.381 18.2776 17.8558C18.6376 17.2864 19.013 16.7267 19.4114 16.1833C19.4226 16.1682 19.4338 16.1529 19.445 16.1378L19.4463 16.1455C19.5848 16.9606 19.6519 17.7875 19.6695 18.6137C19.6771 18.9759 19.6747 19.3385 19.6606 19.7006C19.6448 20.1055 19.6136 20.5096 19.5606 20.9114C19.5553 20.9489 19.5501 20.9864 19.5446 21.0239C19.509 21.2579 19.4713 21.4916 19.433 21.7253C18.3524 22.7071 17.48 23.7435 16.8426 24.7976C16.8498 23.6561 16.6401 22.4973 16.2293 21.3792ZM23.0663 23.979C23.139 23.8844 23.2107 23.7896 23.2808 23.6931C23.5362 23.342 23.7744 22.9782 24.001 22.6078C24.2574 22.1888 24.4988 21.7606 24.7279 21.3259C25.2285 20.3761 25.6724 19.3952 26.0531 18.3911C26.0926 18.2868 26.1313 18.1822 26.1693 18.0773L26.6694 17.8674L26.7549 17.8319C27.1612 17.6642 27.5705 17.504 27.9832 17.3529C28.9755 16.9896 29.9854 16.675 31.0071 16.4059C31.4075 16.3005 31.8097 16.202 32.2135 16.1104C32.3919 16.0699 32.5704 16.0302 32.7496 15.9935C32.9396 15.9547 33.1303 15.9191 33.3216 15.887C34.1991 15.7392 35.0887 15.66 35.9784 15.6455L35.9635 15.6753C35.5694 16.4592 35.1296 17.2197 34.6369 17.9457C34.524 18.1122 34.4084 18.2768 34.29 18.4393C34.1518 18.6294 34.0097 18.8166 33.8667 19.003C33.6049 19.344 33.3374 19.6807 33.0643 20.0127C32.3481 20.8836 31.5931 21.7227 30.7993 22.5235C30.5027 22.8226 30.2003 23.1159 29.8933 23.4042C29.747 23.5408 29.6004 23.677 29.4537 23.813C29.1947 23.7798 28.9351 23.751 28.675 23.7271C27.3085 23.6012 25.9285 23.6006 24.5638 23.7502C24.4514 23.7625 24.339 23.7754 24.2269 23.7907C23.9936 23.8223 23.7612 23.8607 23.5289 23.8993C23.3747 23.9253 23.2203 23.9518 23.0663 23.979ZM8.7599 21.2423L8.7137 21.0248L8.7024 20.9706C8.5248 20.1047 8.4131 19.2267 8.3569 18.3446C8.3381 18.0491 8.3254 17.7533 8.3184 17.4573C8.3127 17.2115 8.3106 16.9658 8.3188 16.72C8.3342 16.258 8.3798 15.7981 8.4428 15.3404C8.4544 15.2594 8.4664 15.1786 8.4789 15.0977C8.832 15.132 9.1815 15.1972 9.52 15.3043C9.705 15.3627 9.8846 15.4351 10.0626 15.5121C10.2527 15.5942 10.4402 15.6823 10.6249 15.7761C11.0538 15.9936 11.467 16.242 11.8615 16.5172C12.0585 16.6546 12.2502 16.7992 12.4378 16.9492C12.4912 16.9922 12.5443 17.0357 12.597 17.0796C12.6871 17.1551 12.7769 17.2311 12.8666 17.3071C12.8477 17.3878 12.8293 17.4685 12.8113 17.5493C12.6593 18.2333 12.5371 18.924 12.452 19.6196C12.3741 20.2569 12.3273 20.8985 12.3203 21.5406C12.3173 21.8133 12.3224 22.0858 12.334 22.3582C12.3366 22.4113 12.3393 22.4643 12.3422 22.5173C12.1348 22.3891 11.9231 22.2686 11.706 22.1577C11.2055 21.9023 10.6806 21.6955 10.1415 21.5375C9.745 21.4213 9.3409 21.3314 8.9327 21.2675C8.8752 21.2585 8.8176 21.2501 8.7599 21.2423ZM20.0244 21.1921L20.0271 21.1755C20.1027 20.694 20.1412 20.2071 20.1602 19.7202C20.1802 19.2081 20.1778 18.695 20.156 18.1831C20.1336 17.6579 20.0909 17.1334 20.0224 16.6123C19.9778 16.2732 19.9224 15.9353 19.8507 15.601L20.141 15.2555L20.1969 15.1893C20.4649 14.8739 20.738 14.5631 21.0171 14.2575C21.6973 13.5133 22.4102 12.7992 23.1494 12.1139C23.4923 11.7959 23.841 11.4841 24.1949 11.1785C24.3265 11.0649 24.4581 10.9513 24.5915 10.8399C24.7536 10.7045 24.9179 10.572 25.0844 10.4423C25.4918 10.1249 25.9117 9.82375 26.341 9.53694C26.5785 9.37815 26.8192 9.22448 27.0617 9.0735C27.0797 9.06248 27.0977 9.05137 27.1157 9.04035L27.1215 9.08963C27.149 9.33307 27.1703 9.57701 27.1835 9.82165C27.2055 10.2285 27.2062 10.6365 27.1854 11.0435C27.1771 11.2051 27.1654 11.3665 27.1503 11.5276C27.1337 11.7038 27.1133 11.8797 27.0919 12.0555C27.0514 12.3882 27.0047 12.7203 26.9517 13.0513C26.8004 13.9968 26.5986 14.9341 26.3472 15.858C26.2322 16.2811 26.1059 16.7008 25.9706 17.1178C25.9059 17.3148 25.8406 17.5117 25.7752 17.7085C25.5933 17.7896 25.4123 17.8724 25.2322 17.9572C23.921 18.5749 22.6528 19.2892 21.4622 20.1175C21.0801 20.3832 20.7073 20.6616 20.3427 20.9511C20.2885 20.9945 20.2344 21.0382 20.1805 21.082C20.1272 21.1257 20.074 21.1696 20.0209 21.2135C20.0266 21.2087 20.0275 21.2015 20.0244 21.1921ZM13.4185 17.1403L13.5015 16.8207C13.5816 16.516 13.6664 16.2124 13.7568 15.9106C13.9864 15.1442 14.2495 14.3881 14.5406 13.643C14.6802 13.2856 14.8264 12.9307 14.9787 12.5785C15.1304 12.2274 15.2876 11.8787 15.4589 11.5367C15.7817 10.8924 16.1455 10.27 16.5347 9.66377L16.5583 9.68671C16.6636 9.79039 16.7659 9.89709 16.8643 10.0074C17.0627 10.2301 17.2455 10.4665 17.4105 10.715C17.5444 10.9165 17.6638 11.1266 17.7788 11.3395C17.8963 11.5572 18.0084 11.7779 18.1149 12.0013C18.4446 12.6926 18.7217 13.4091 18.9475 14.1412C19.0339 14.421 19.1122 14.7032 19.1841 14.9871C19.226 15.1547 19.2672 15.3224 19.3082 15.4901C18.917 15.9944 18.5513 16.5185 18.2007 17.0517C17.6113 17.9481 17.0662 18.8723 16.5385 19.8061C16.3556 20.1317 16.1755 20.4589 15.9915 20.7839C15.8656 20.4987 15.7296 20.2185 15.5808 19.9447C15.2552 19.3458 14.8742 18.7772 14.4453 18.2476C14.1783 17.9178 13.8927 17.6031 13.5904 17.3056C13.5337 17.2499 13.4764 17.1948 13.4185 17.1403Z" fill="white"/>
</svg>
