<svg width="48" height="49" viewBox="0 0 48 49" fill="none" xmlns="http://www.w3.org/2000/svg">
<path d="M35.6347 7.31897L34.3083 6.52306L24.0389 0.552734L3.5 12.4934V36.3743L10.9503 40.807L22.4974 33.8709L15.1518 29.6004V19.2671L35.6347 7.31897Z" fill="white"/>
<path d="M12.3653 41.7865L13.6918 42.5824L23.9611 48.5527L44.5 36.6122V12.7312L37.0499 8.29848L25.5027 15.2346L32.8484 19.5051V29.8383L12.3653 41.7865Z" fill="white"/>
<path d="M31 24.5527C31 28.4082 27.8555 31.5527 23.9999 31.5527C20.1445 31.5527 17 28.4082 17 24.5527C17 20.6972 20.1445 17.5527 23.9999 17.5527C27.8555 17.5527 31 20.6972 31 24.5527Z" fill="white"/>
</svg>
