<svg width="48" height="49" viewBox="0 0 48 49" fill="none" xmlns="http://www.w3.org/2000/svg">
<path d="M14.1858 16.9685V23.8334C20.0284 19.5884 26.2096 17.618 33.0137 17.4894L33.727 17.4759V23.9233C36.1924 21.995 38.6578 19.6007 41.1234 16.6571L41.085 0.619141C32.9508 10.3982 24.1383 16.6472 14.1858 16.9685Z" fill="white"/>
<path d="M21.2283 42.5234C21.2283 45.8441 23.9367 48.5525 27.2574 48.5525C30.5784 48.5525 33.2868 45.8441 33.2868 42.5234C33.2868 39.2024 30.5784 36.494 27.2574 36.494C23.9367 36.494 21.2283 39.2024 21.2283 42.5234Z" fill="white"/>
<path d="M33.027 32.2031V18.1892C24.048 18.359 15.069 21.7937 6.08936 32.5145L6.12776 48.5525C14.262 38.7734 23.0748 32.5244 33.027 32.2031Z" fill="white"/>
</svg>
