<svg width="48" height="49" viewBox="0 0 48 49" fill="none" xmlns="http://www.w3.org/2000/svg">
<path fill-rule="evenodd" clip-rule="evenodd" d="M37.4955 48.5527C35.1265 46.7114 32.5995 45.4659 29.5271 44.0591L15.3283 37.7185C11.761 36.1141 9.39556 33.9748 9.39556 30.3751C9.39556 26.876 11.0738 25.182 13.2553 23.7903L14.0437 23.2913C13.5013 23.8875 13.1575 24.4863 13.1575 25.6298C13.1575 27.8349 15.0321 28.5812 17.018 29.4769L33.5368 36.824C36.4103 38.0691 39.0399 40.2112 39.0399 43.8588C39.0399 45.864 38.284 47.6582 37.4955 48.5527ZM14.5313 38.9208L8.56396 42.5167C8.71146 45.5683 11.2679 48.0965 14.3382 48.0965C15.5247 48.0965 16.655 47.6589 17.901 46.9097L23.8332 43.119L14.5313 38.9208ZM13.8994 8.15193C11.3209 9.74233 9.68716 11.9018 9.68716 15.202C9.68716 18.7862 11.9135 20.8376 15.479 22.4292L33.1351 30.2765C35.2197 31.2197 35.873 32.3343 35.873 33.7306C35.873 34.5264 35.4245 35.3255 34.7849 35.874L35.8203 35.2186C38.0413 33.824 39.4358 31.9303 39.4358 28.9302C39.4358 25.0831 36.9058 22.9736 33.7845 21.579L16.6023 13.9443C14.9231 13.1979 13.2501 12.3563 13.2501 10.313C13.2501 9.45423 13.5041 8.74773 13.8994 8.15193ZM28.7607 28.8512C30.1839 29.4853 31.6044 30.1252 33.0206 30.7748C33.1369 30.8296 33.2526 30.8855 33.3667 30.9449C33.4721 30.9997 33.5763 31.0569 33.6788 31.117C34.3117 31.4874 34.9165 31.984 35.1919 32.6841C35.2745 32.894 35.3255 33.1152 35.3511 33.3391C35.3744 33.5443 35.3843 33.756 35.3563 33.9611C35.3228 34.2067 35.2394 34.4441 35.1249 34.6633C34.9797 34.9413 34.7845 35.1866 34.5592 35.4038C34.469 35.4867 34.3783 35.5691 34.2871 35.6511L25.4127 31.6758L27.0099 30.7724C28.3495 30.026 28.7825 29.5691 28.7825 29.0719C28.7825 28.9944 28.7756 28.9211 28.7607 28.8512ZM14.5178 23.5096L23.447 27.4777L21.1128 28.8239C20.4714 29.2223 20.0247 29.5826 20.0247 30.0816C20.0247 30.151 20.0348 30.2188 20.0543 30.2851C18.9864 29.8097 17.9191 29.3329 16.8528 28.8537C16.6144 28.7462 16.3758 28.6388 16.1397 28.5262C15.9994 28.4594 15.8598 28.391 15.7217 28.3197C15.6159 28.2651 15.5109 28.2089 15.4072 28.1505C14.8245 27.8221 14.2428 27.4088 13.9248 26.8026C13.8713 26.7006 13.8259 26.5944 13.789 26.4852C13.7238 26.2926 13.6854 26.0915 13.6686 25.889C13.643 25.5795 13.6575 25.2603 13.7124 24.9545C13.7507 24.7419 13.814 24.5339 13.9085 24.3393C13.9787 24.1946 14.0658 24.0605 14.1609 23.9311C14.2133 23.8627 14.2675 23.7961 14.3234 23.7305C14.388 23.6567 14.4528 23.583 14.5178 23.5096ZM35.9081 9.55133L24.974 16.194L34.3812 20.3922L35.522 19.7367C37.6449 18.5287 38.8391 16.8403 38.8391 14.3872C38.8391 12.0961 37.3855 10.4114 35.9081 9.55133ZM14.8996 7.53513L26.2201 0.552734C27.6971 1.39793 29.1335 3.11413 29.1335 5.40633C29.1335 7.85963 27.9061 9.49793 25.834 10.7559L21.2708 13.5369C20.8666 13.7834 20.323 14.1825 20.323 14.7946C20.323 14.8969 20.3456 14.9957 20.3872 15.0912C19.0883 14.514 17.7908 13.9335 16.4958 13.3475C16.3441 13.2777 16.1926 13.2075 16.0427 13.1339C15.8969 13.0623 15.7529 12.9876 15.6102 12.91C15.4963 12.8482 15.3843 12.7827 15.2742 12.7143C14.7537 12.3913 14.2602 11.9804 13.9883 11.4192C13.9309 11.3005 13.8839 11.1768 13.8479 11.05C13.7796 10.8101 13.7514 10.5611 13.7508 10.3121C13.75 10.0261 13.7835 9.73923 13.8537 9.46183C13.9423 9.11143 14.0921 8.78353 14.2843 8.47833L14.8996 7.53513Z" fill="white"/>
</svg>
