<svg width="48" height="49" viewBox="0 0 48 49" fill="none" xmlns="http://www.w3.org/2000/svg">
<path d="M31.8103 48.5519H47.5V8.67632C42.014 -4.28833 22.5335 0.910712 21.1418 6.16985C25.9597 3.47894 29.9696 2.93487 31.8103 7.20507V48.5519Z" fill="white"/>
<path d="M16.1897 0.553434H0.5V40.4291C5.98602 53.3938 25.4665 48.1948 26.8581 42.9356C22.0401 45.6265 18.0304 46.1706 16.1897 41.9003V0.553434Z" fill="white"/>
<path d="M31.6847 24.5527C31.6847 28.757 28.2326 32.1859 23.9999 32.1859C19.7674 32.1859 16.3152 28.757 16.3152 24.5527C16.3152 20.3485 19.7674 16.9194 23.9999 16.9194C28.2326 16.9194 31.6847 20.3485 31.6847 24.5527Z" fill="white"/>
</svg>
