<svg width="48" height="49" viewBox="0 0 48 49" fill="none" xmlns="http://www.w3.org/2000/svg">
<path d="M23.1957 36.3598C23.2306 35.8521 23.0106 35.3686 22.6232 35.0601C20.6298 34.7746 18.833 33.8768 17.4298 32.5637C16.9452 32.4517 16.4275 32.5817 16.0512 32.9274L15.9699 33.0021C14.3338 34.5052 10.7347 37.8117 9.08462 39.3387C8.59762 39.7861 8.49452 40.515 8.83842 41.0798C9.49117 42.13 9.97058 43.0772 10.3938 43.9134C11.2784 45.6612 11.9173 46.9236 13.3804 47.6265C14.8435 48.3293 16.2287 48.0395 18.1467 47.6381C19.0643 47.4462 20.1039 47.2286 21.3322 47.0821C21.9883 46.9978 22.4933 46.4619 22.5387 45.8023C22.7036 43.5226 23.0473 38.5202 23.1957 36.3598Z" fill="white"/>
<path d="M31.9526 32.9169C31.5758 32.5718 31.058 32.4424 30.5735 32.5551C29.1719 33.8701 27.3762 34.7702 25.3834 35.0583C24.9964 35.3673 24.7771 35.8511 24.8126 36.3587L24.8133 36.3678C24.9649 38.533 25.3144 43.5241 25.4821 45.8004C25.5283 46.4599 26.0341 46.9951 26.6902 47.0785C27.9187 47.2234 28.9585 47.4396 29.8763 47.6304C31.7949 48.0292 33.1807 48.3173 34.6428 47.6125C36.1049 46.9076 36.7422 45.6444 37.6245 43.8955C38.0466 43.0588 38.5247 42.1109 39.1761 41.0598C39.5193 40.4946 39.4152 39.7658 38.9276 39.319C37.2689 37.7882 33.6432 34.466 32.0145 32.9736L31.9526 32.9169Z" fill="white"/>
<path d="M15.042 31.6647C15.4614 31.375 15.7024 30.9007 15.7014 30.4049C14.8637 28.9796 14.3833 27.3197 14.3833 25.5485C14.3833 25.2926 14.3933 25.039 14.4131 24.7881C14.1979 24.3417 13.7743 24.02 13.2708 23.9418L13.2204 23.934C11.0532 23.5975 6.15546 22.8369 3.91202 22.4968C3.25842 22.3953 2.62412 22.7693 2.39692 23.3902C1.98263 24.5552 1.5408 25.5205 1.15079 26.3726C0.335514 28.1538 -0.253311 29.4403 0.109316 31.0218C0.472143 32.6033 1.56281 33.505 3.07287 34.7534C3.79526 35.3506 4.61364 36.0272 5.49422 36.8955C5.96932 37.3555 6.70332 37.416 7.24742 37.0401C9.11661 35.7586 13.1873 32.9461 14.9944 31.6976L15.042 31.6647Z" fill="white"/>
<path d="M34.7211 23.9277C34.2177 24.0066 33.7946 24.3288 33.58 24.7754C33.6004 25.0305 33.6108 25.2883 33.6108 25.5485C33.6108 27.3152 33.1328 28.9711 32.2991 30.394C32.2987 30.8898 32.5404 31.3637 32.9601 31.6529L33.006 31.6845C34.8139 32.9301 38.8903 35.7386 40.7618 37.018C41.3064 37.3932 42.0403 37.3317 42.5148 36.8711C43.3943 36.0015 44.2118 35.3239 44.9335 34.7257C46.4418 33.4753 47.5313 32.5723 47.8919 30.9903C48.2525 29.4084 47.662 28.1227 46.8444 26.3427C46.4533 25.4911 46.0101 24.5263 45.5943 23.3618C45.3663 22.7412 44.7314 22.368 44.078 22.4703C41.8175 22.8161 36.8615 23.5924 34.7211 23.9277Z" fill="white"/>
<path d="M13.629 22.3658C14.1161 22.5125 14.6362 22.4059 15.023 22.0973C15.7344 20.2524 16.9993 18.6813 18.6138 17.5879C18.8298 17.1409 18.8176 16.6085 18.5643 16.1656L18.5191 16.0864C17.4209 14.166 14.9842 9.90499 13.858 7.95201C13.5298 7.37798 12.8416 7.1156 12.2143 7.3253C11.0449 7.72813 10.0144 7.98491 9.10477 8.21157C7.20328 8.68538 5.82992 9.02759 4.81922 10.2973C3.80863 11.567 3.78363 12.9814 3.74901 14.9397C3.73244 15.8766 3.71368 16.9381 3.58372 18.1677C3.52032 18.8258 3.93072 19.4371 4.56412 19.6278C6.75132 20.2949 11.5545 21.7412 13.629 22.3658Z" fill="white"/>
<path d="M29.4174 16.1585C29.1647 16.6017 29.1532 17.1341 29.3697 17.5807C30.9858 18.6721 32.2527 20.2417 32.9665 22.0855C33.3538 22.3936 33.874 22.4994 34.3609 22.3522L34.5176 22.3048C36.6674 21.6543 41.2893 20.2559 43.4222 19.6022C44.0553 19.4107 44.4649 18.7988 44.4006 18.1408C44.269 16.9113 44.2489 15.8499 44.2311 14.913C44.1939 12.9547 44.167 11.5403 43.1547 10.272C42.1423 9.00368 40.7686 8.66326 38.8665 8.19195C37.9566 7.96647 36.9257 7.71104 35.7557 7.30971C35.1281 7.10091 34.4403 7.36418 34.1128 7.93862C32.9735 9.92049 30.49 14.277 29.4174 16.1585Z" fill="white"/>
<path d="M20.0336 15.4574C20.222 15.9296 20.6291 16.2699 21.1113 16.3805C22.0223 16.0938 22.9918 15.9393 23.997 15.9393C25.0023 15.9393 25.9717 16.0938 26.8828 16.3805C27.365 16.2699 27.7721 15.9296 27.9605 15.4574C28.7631 13.4459 30.6213 8.78852 31.4608 6.66231C31.7058 6.0483 31.4828 5.34663 30.9281 4.9865C29.8845 4.32257 29.0418 3.67639 28.298 3.10601C26.7432 1.91382 25.6203 1.05273 23.997 1.05273C22.3737 1.0528 21.2508 1.91389 19.696 3.1061C18.9522 3.67646 18.1095 4.32259 17.066 4.9865C16.5113 5.34663 16.2882 6.0483 16.5333 6.66231C17.3727 8.78852 19.231 13.4459 20.0336 15.4574Z" fill="white"/>
<path d="M31.5177 25.5599C31.5177 21.4091 28.1478 18.0392 23.997 18.0392C19.8462 18.0392 16.4763 21.4091 16.4763 25.5599C16.4763 29.7107 19.8462 33.0806 23.997 33.0806C28.1478 33.0806 31.5177 29.7107 31.5177 25.5599Z" fill="white"/>
</svg>
