<svg width="48" height="49" viewBox="0 0 48 49" fill="none" xmlns="http://www.w3.org/2000/svg">
<path fill-rule="evenodd" clip-rule="evenodd" d="M41.7143 48.5527H7.2133V43.1267L7.8885 42.3348C6.09 40.7041 4.5397 38.8046 3.3011 36.7001L12.2228 41.8088H13.2086L2.4243 35.0693C2.079 34.3629 1.7674 33.6371 1.4916 32.8939L14.3061 41.8088H14.9841L0.9712 31.3272C0.7144 30.4541 0.5059 29.5604 0.3489 28.6495L15.9862 41.8088H16.6947L0.0755 26.4668C0.0254 25.8354 0 25.197 0 24.5527C0 24.4112 0.0012 24.2699 0.0038 24.1291L17.3741 41.8088H17.866L0.1062 22.2833C0.1901 21.3901 0.3231 20.511 0.5024 19.649L18.5175 41.8088H18.9664L0.9878 17.7216C1.2105 16.9712 1.469 16.2362 1.7613 15.5183L19.46 41.8088H19.8787L2.6415 13.6029C3.0286 12.85 3.4544 12.1201 3.9163 11.4158L20.3529 41.8088H20.7362L16.516 33.0889C16.4709 33.0673 16.4262 33.0451 16.3816 33.0224C16.1626 32.9058 15.9534 32.7728 15.774 32.5998C15.6046 32.4365 15.4661 32.2446 15.3504 32.0403C15.2024 31.7792 15.0894 31.4999 14.959 31.23C14.9183 31.1502 14.8771 31.0715 14.8324 30.994C14.8068 30.9513 14.7849 30.919 14.7478 30.8864C14.6896 30.8393 14.6276 30.7974 14.5692 30.7506C14.5134 30.7024 14.4573 30.6509 14.4191 30.5869C14.388 30.5348 14.3689 30.478 14.3486 30.421L14.3472 30.4206C14.3051 30.3967 14.2702 30.3733 14.2426 30.3323C14.2167 30.2939 14.2019 30.2485 14.2001 30.2022C14.1986 30.1627 14.2056 30.1635 14.2074 30.1242C14.2078 30.1142 14.2049 30.1043 14.2054 30.0943C14.2074 30.0502 14.2114 30.0468 14.2244 30.0054C14.233 29.9435 14.2428 29.882 14.2542 29.8205C14.2668 29.762 14.2807 29.7077 14.3096 29.6551C14.3921 29.505 14.551 29.4138 14.7027 29.3421L12.1154 23.9963C12.0941 23.9897 12.0742 23.9833 12.0317 23.9696C11.7682 23.8785 11.4903 23.7612 11.3156 23.5325C11.2715 23.4747 11.2334 23.4141 11.2024 23.3483C11.1656 23.2703 11.1397 23.1876 11.1222 23.1033C11.1015 23.0035 11.094 22.9019 11.091 22.8002C11.088 22.7015 11.0943 22.6014 11.0817 22.5031C11.0804 22.4953 11.0812 22.4954 11.0767 22.4889C11.0593 22.4655 11.0408 22.4442 11.0217 22.4218C10.9384 22.3302 10.8522 22.2415 10.7699 22.1489C10.704 22.0707 10.6414 21.99 10.5914 21.9004C10.5137 21.761 10.4682 21.6047 10.4734 21.4444C10.4758 21.3726 10.4907 21.3035 10.5111 21.235C10.5487 21.1293 10.5883 21.0244 10.626 20.9188L5.1798 9.66563C5.6712 9.04543 6.1925 8.45003 6.7417 7.88163L8.3019 11.5583C8.3045 11.4428 8.311 11.3249 8.3331 11.2117C8.4055 10.8394 8.6837 10.5289 9.037 10.3976C9.168 10.3489 9.3199 10.3197 9.4587 10.3499C9.5589 10.3717 9.6523 10.4107 9.7439 10.4566C9.8276 10.4986 9.9075 10.5472 9.9836 10.6011L8.4018 6.31823C8.968 5.83333 9.557 5.37443 10.167 4.94323L12.2798 11.6041C12.3481 11.5454 12.4143 11.4845 12.4805 11.4234C12.7114 11.2039 12.9328 10.975 13.1622 10.7539C13.3207 10.606 13.4893 10.4489 13.685 10.3474L11.921 3.81373C12.6393 3.39413 13.3813 3.01083 14.1446 2.66623L16.2207 12.3323C16.2372 12.3162 16.2535 12.3 16.2698 12.2835C16.3249 12.2242 16.3773 12.1631 16.422 12.0955C16.4595 12.0388 16.4929 11.9786 16.5172 11.915C16.572 11.7714 16.5777 11.6169 16.5745 11.4649C16.5662 11.2841 16.544 11.1045 16.5327 10.9239C16.5259 10.7616 16.5261 10.5919 16.5923 10.4402C16.6913 10.2131 16.9356 10.0953 17.1608 10.0281C17.2059 10.0146 17.2519 10.003 17.2979 9.99283C17.3695 9.97693 17.4419 9.96473 17.5146 9.95503L17.532 9.95273L16.1758 1.85913C16.8688 1.61993 17.576 1.41163 18.2959 1.23593L19.3398 9.89553C19.4695 9.88993 19.5445 9.88743 19.7234 9.88093C19.986 9.87293 20.2486 9.86573 20.5113 9.86213C20.6942 9.85953 20.8795 9.86363 21.0622 9.85753C21.0954 9.85523 21.1285 9.85253 21.1616 9.84963L20.4984 0.806834C21.2663 0.694334 22.046 0.618334 22.8357 0.580634L23.1103 11.8925C23.1313 11.9139 23.1509 11.937 23.169 11.9621C23.2153 12.0266 23.2441 12.1051 23.2694 12.1795C23.332 12.3635 23.3592 12.5578 23.3746 12.7508C23.3813 12.8347 23.3857 12.9188 23.3888 13.0029C23.3939 13.137 23.3972 13.2712 23.4044 13.4053C23.4104 13.4896 23.4178 13.5737 23.426 13.6579C23.4497 13.878 23.4752 14.0978 23.4964 14.3182C23.501 14.3715 23.5053 14.4247 23.5092 14.478L23.5142 14.4761C23.5568 14.4575 23.5978 14.4367 23.6383 14.414C23.8073 14.3146 23.9585 14.189 24.1064 14.061C24.2414 13.9441 24.3743 13.8248 24.5106 13.7094C24.5837 13.6492 24.5834 13.6495 24.6578 13.5905C24.7346 13.5324 24.8129 13.4761 24.8936 13.4242L25.2202 0.583334C25.9908 0.622034 26.7518 0.697034 27.5016 0.806834L26.6057 13.0228C26.9705 12.9883 27.3378 12.965 27.7041 12.987C27.896 12.9985 28.0905 13.0219 28.2773 13.0718L29.7041 1.23593C30.4241 1.41173 31.1314 1.62003 31.8242 1.85913L29.7719 14.1065C29.9303 14.0959 30.0888 14.0869 30.2473 14.0791C30.391 14.0734 30.4528 14.0702 30.5969 14.0673C30.7913 14.0634 30.9865 14.0627 31.1806 14.0765C31.2531 14.0817 31.3269 14.0881 31.3997 14.1001L33.8554 2.66623C34.6186 3.01083 35.3606 3.39413 36.079 3.81373L33.0335 15.0939C33.0578 15.1045 33.0819 15.1158 33.1059 15.1273C33.2201 15.1818 33.3307 15.2427 33.4383 15.3094C33.7587 15.5079 34.0406 15.7807 34.22 16.1142C34.235 16.1421 34.2492 16.1703 34.2627 16.1989L37.833 4.94323C38.443 5.37443 39.032 5.83343 39.5982 6.31823L33.9197 21.6936C33.9747 21.7941 34.0097 21.9048 34.0179 22.0208C34.0232 22.0966 34.0135 22.169 34.0038 22.2439C33.9964 22.3011 33.9906 22.3585 33.985 22.4159C33.9751 22.5411 33.9752 22.5406 33.9679 22.6658C33.9393 23.3859 33.9916 24.1046 34.0707 24.82L41.2583 7.88163C41.8074 8.44993 42.3288 9.04533 42.8202 9.66563L35.2859 25.2333C35.5086 25.3279 35.7083 25.467 35.8468 25.672C35.897 25.7464 35.9374 25.8273 35.9663 25.9123C35.9977 26.0048 36.0152 26.1016 36.0162 26.1993C36.0168 26.2519 36.0126 26.3044 36.004 26.3561L44.0837 11.4158C44.5455 12.12 44.9713 12.8499 45.3585 13.6029L35.4111 29.8803C35.4821 29.9381 35.557 29.9912 35.6332 30.0423C35.8089 30.1565 35.9908 30.2606 36.1675 30.3732C36.1838 30.384 36.2002 30.3949 36.2164 30.4059L46.2387 15.5183C46.531 16.2361 46.7894 16.9712 47.0122 17.7216L36.9276 31.2326C36.9465 31.2861 36.9623 31.3408 36.9754 31.3962C37.0293 31.6242 37.0295 31.8573 37.0502 32.0896C37.1277 32.127 37.21 32.1548 37.2894 32.1878L37.3001 32.1927L47.4976 19.649C47.6769 20.5111 47.8099 21.3902 47.8938 22.2833L35.6208 35.7765C35.619 35.8178 35.6178 35.8591 35.6171 35.9003C35.6152 36.0185 35.6176 36.1366 35.6254 36.2542L35.657 36.2511C35.7561 36.2432 35.7557 36.2433 35.8551 36.2373C35.9565 36.2335 35.9561 36.2327 36.0572 36.2326C36.0726 36.2326 36.0881 36.2331 36.1036 36.2336L47.9962 24.1291L47.9979 24.2348C47.9993 24.3406 48 24.4466 48 24.5527C48 25.197 47.9746 25.8354 47.9245 26.4668L36.8749 36.6672C36.8706 36.6969 36.8656 36.726 36.8613 36.754C36.8519 36.8331 36.8501 37.0131 36.8471 37.0915C36.841 37.2515 36.8358 37.4114 36.8299 37.5714C36.8249 37.6431 36.8167 37.7065 36.7881 37.7723C36.7828 37.7846 36.7765 37.7961 36.7693 37.8069L47.6511 28.6495L47.621 28.8201C47.4679 29.6722 47.2696 30.5087 47.0288 31.3272L33.0159 41.8088H33.6939L46.5084 32.8939L46.4562 33.033C46.1935 33.7277 45.8994 34.4071 45.5757 35.0693L34.7914 41.8088H35.7772L44.6989 36.7001L44.6498 36.783C43.5404 38.6509 42.1849 40.3557 40.628 41.8525L41.7143 43.1267V48.5527ZM41.1143 43.7267H7.8133V47.9527H41.1143V43.7267ZM30.9607 46.6288C30.9607 46.7578 30.9042 46.9341 30.7913 47.1577C30.6827 47.3728 30.5715 47.5373 30.4575 47.6512C30.3833 47.6512 30.2839 47.6254 30.1591 47.5738C30.0344 47.5222 29.9452 47.4701 29.8914 47.4174C30.086 47.3281 30.2597 47.2244 30.4123 47.1061C30.5919 46.9674 30.6983 46.8422 30.7317 46.7304C30.6833 46.596 30.5838 46.4782 30.4333 46.3772L30.6559 45.9466C30.7354 46.0154 30.8061 46.1197 30.8679 46.2594C30.9298 46.3992 30.9607 46.5223 30.9607 46.6288ZM40.552 47.2174L40.2923 47.4625L40.0375 47.2077L40.302 46.9658L40.552 47.2174ZM33.1507 47.1948L32.8911 47.44L32.6363 47.1851L32.9008 46.9432L33.1507 47.1948ZM12.4322 44.6565H12.7824V46.1559C12.7824 46.3519 12.7697 46.5027 12.7444 46.6082C12.7104 46.7461 12.6487 46.8568 12.5592 46.9403C12.4698 47.0237 12.3519 47.0655 12.2055 47.0655C12.0338 47.0655 11.9016 47.0001 11.809 46.8692C11.7164 46.7383 11.6698 46.5463 11.669 46.2932L12.0001 46.2415C12.0041 46.3772 12.0187 46.4731 12.0441 46.5291C12.0821 46.6142 12.1398 46.6567 12.2174 46.6567C12.2957 46.6567 12.3511 46.6263 12.3836 46.5654C12.416 46.5046 12.4322 46.3783 12.4322 46.1866V44.6565ZM14.7256 47.0251H14.3433L14.1914 46.4871H13.4958L13.3522 47.0251H12.9794L13.6572 44.6565H14.0288L14.7256 47.0251ZM11.4731 45.0572H10.5342V45.5823H11.4078V45.9814H10.5342V46.626H11.5063V47.0251H10.1828V44.6565H11.4731V45.0572ZM15.2645 47.0251H14.9131V44.6565H15.6526C15.8386 44.6565 15.9737 44.6778 16.058 44.7203C16.1423 44.7629 16.2098 44.8385 16.2604 44.9473C16.311 45.0561 16.3364 45.1805 16.3364 45.3206C16.3364 45.4983 16.298 45.645 16.2212 45.7608C16.1445 45.8766 16.0297 45.9496 15.877 45.9798C15.953 46.0401 16.0157 46.1063 16.0651 46.1785C16.1146 46.2506 16.1813 46.3788 16.2651 46.563L16.4776 47.0251H16.0574L15.8034 46.5097C15.7132 46.3255 15.6515 46.2094 15.6182 46.1615C15.585 46.1136 15.5498 46.0807 15.5126 46.063C15.4754 46.0452 15.4164 46.0363 15.3357 46.0363H15.2645V47.0251ZM18.2368 47.0251H17.8546L17.7026 46.4871H17.007L16.8634 47.0251H16.4907L17.1685 44.6565H17.54L18.2368 47.0251ZM19.501 45.0572H18.9858V47.0251H18.6345V45.0572H18.1181V44.6565H19.501V45.0572ZM20.9966 47.0251H20.4043V44.6565H21.0999C21.2376 44.6565 21.3403 44.6643 21.4079 44.6799C21.4756 44.6956 21.5361 44.7281 21.5896 44.7777C21.643 44.8272 21.6875 44.8932 21.7231 44.9756C21.7587 45.058 21.7765 45.1504 21.7765 45.2527C21.7765 45.3636 21.7546 45.4654 21.7106 45.5581C21.6667 45.6507 21.6072 45.7202 21.532 45.7665C21.638 45.8085 21.7195 45.8801 21.7765 45.9814C21.8335 46.0826 21.862 46.2016 21.862 46.3384C21.862 46.4461 21.8436 46.5509 21.8068 46.6527C21.77 46.7545 21.7197 46.8358 21.656 46.8966C21.5923 46.9575 21.5138 46.9949 21.4204 47.0089C21.3619 47.0176 21.2206 47.0229 20.9966 47.0251ZM23.728 47.0251H23.3458L23.1938 46.4871H22.4982L22.3546 47.0251H21.9819L22.6597 44.6565H23.0312L23.728 47.0251ZM24.2444 47.0251H23.9179V44.6565H24.2598L24.972 46.2383V44.6565H25.2984V47.0251H24.9459L24.2444 45.4805V47.0251ZM26.0261 47.0251H25.6747V44.6565H26.0261V45.7083L26.7359 44.6565H27.2084L26.5531 45.5791L27.244 47.0251H26.7893L26.311 45.9135L26.0261 46.3093V47.0251ZM9.9561 45.0572H9.4409V47.0251H9.0896V45.0572H8.5732V44.6565H9.9561V45.0572ZM38.2667 46.6997H38.1619C38.0426 46.6997 37.9292 46.6578 37.8216 46.5739C37.7625 46.5277 37.6862 46.4444 37.5926 46.324C37.4991 46.2035 37.4244 46.1213 37.3685 46.0772C37.3749 46.1159 37.3781 46.1562 37.3781 46.1982C37.3781 46.253 37.3722 46.311 37.3604 46.3723C37.2647 46.51 37.1094 46.6035 36.8943 46.6529C36.7589 46.6841 36.5729 46.6997 36.3363 46.6997C36.0149 46.6997 35.7982 46.6771 35.6864 46.632C35.523 46.5664 35.4413 46.4277 35.4413 46.2159C35.4413 46.0256 35.5074 45.8267 35.6396 45.6192C35.6902 45.6149 35.7224 45.6326 35.7364 45.6724C35.674 45.7746 35.6429 45.8729 35.6429 45.9675C35.6429 46.103 35.7197 46.1896 35.8735 46.2272C35.9606 46.2487 36.1417 46.2594 36.417 46.2594C36.6707 46.2594 36.8562 46.2498 36.9733 46.2304C37.0787 46.2132 37.1685 46.1783 37.2427 46.1256C37.118 45.917 36.9008 45.7423 36.5911 45.6015C36.5976 45.3832 36.6148 45.1999 36.6427 45.0515C37.1083 44.7892 37.555 44.6118 37.9829 44.5193L37.7894 44.9354C37.6389 44.972 37.4443 45.0392 37.2056 45.137C37.0153 45.2144 36.8777 45.2762 36.7927 45.3225C36.9615 45.3859 37.155 45.502 37.3733 45.6708C37.455 45.7342 37.5555 45.8272 37.6749 45.9498C37.7824 46.0605 37.8609 46.1336 37.9103 46.1691C37.992 46.2283 38.0775 46.2578 38.1668 46.2578H38.3313C38.5646 46.2578 38.6812 46.2229 38.6812 46.153C38.6812 46.1046 38.6205 45.9982 38.499 45.8337L38.7473 45.495C38.8699 45.6584 38.9312 45.8294 38.9312 46.0079C38.8936 46.2358 38.8419 46.3906 38.7764 46.4723C38.6549 46.6239 38.485 46.6997 38.2667 46.6997ZM39.902 46.6997H39.7972C39.5919 46.6997 39.458 46.6148 39.3956 46.4449C39.3537 46.3299 39.3258 46.0734 39.3118 45.6756C39.3053 45.4789 39.2973 45.3423 39.2876 45.266C39.2693 45.1176 39.2349 44.9859 39.1844 44.8709L39.4795 44.5612C39.529 44.6397 39.5596 44.7607 39.5714 44.9241C39.5757 44.9832 39.5779 45.1085 39.5779 45.2999V45.7756C39.5779 45.9175 39.5881 46.0208 39.6085 46.0853C39.6451 46.2003 39.7182 46.2578 39.8279 46.2578H39.9666C40.1999 46.2578 40.3165 46.2229 40.3165 46.153C40.3165 46.1046 40.2558 45.9982 40.1343 45.8337L40.3826 45.495C40.5052 45.6584 40.5665 45.8294 40.5665 46.0079C40.5289 46.2358 40.4772 46.3906 40.4117 46.4723C40.2902 46.6239 40.1203 46.6997 39.902 46.6997ZM29.7689 45.9401C29.7689 45.9907 29.7382 46.0815 29.6769 46.2127C29.6157 46.3438 29.5657 46.425 29.527 46.4562C29.4797 46.4938 29.3318 46.5411 29.0835 46.5981C28.7878 46.6658 28.5142 46.6997 28.2626 46.6997C27.925 46.6997 27.6928 46.6336 27.5659 46.5013C27.4853 46.4175 27.4449 46.2933 27.4449 46.1288C27.4449 45.9052 27.5089 45.6945 27.6369 45.4966C27.6422 45.4956 27.6481 45.495 27.6546 45.495C27.7019 45.495 27.7347 45.5133 27.753 45.5498C27.6874 45.7047 27.6546 45.8229 27.6546 45.9046C27.6546 46.1423 27.9105 46.2611 28.4222 46.2611C28.8867 46.2611 29.2506 46.2057 29.5141 46.0949C29.4689 45.9778 29.4098 45.8702 29.3367 45.7724L29.5818 45.4402C29.6312 45.5015 29.6759 45.5902 29.7156 45.7063C29.7511 45.8095 29.7689 45.8874 29.7689 45.9401ZM32.046 46.6997H31.8251C31.6197 46.6997 31.4859 46.6148 31.4235 46.4449C31.3816 46.3299 31.3536 46.0734 31.3397 45.6756C31.3332 45.4789 31.3251 45.3423 31.3155 45.266C31.2972 45.1176 31.2628 44.9859 31.2122 44.8709L31.5074 44.5612C31.5568 44.6397 31.5875 44.7607 31.5993 44.9241C31.6036 44.9832 31.6058 45.1085 31.6058 45.2999V45.7756C31.6058 45.9175 31.616 46.0208 31.6364 46.0853C31.6729 46.2003 31.7461 46.2578 31.8557 46.2578H32.117C32.2922 46.2578 32.4358 46.2401 32.5476 46.2046C32.6239 46.181 32.7674 46.1164 32.9782 46.0111C32.5685 45.8498 32.3374 45.7692 32.2847 45.7692C32.2374 45.7692 32.1992 45.7842 32.1702 45.8143C32.1444 45.8401 32.1089 45.896 32.0638 45.9821C32.0466 45.9896 32.031 45.9933 32.017 45.9933C31.988 45.9933 31.9649 45.9788 31.9476 45.9498C32.0208 45.7595 32.0767 45.6283 32.1154 45.5563C32.1874 45.4208 32.2568 45.3531 32.3234 45.3531C32.3664 45.3531 32.514 45.4095 32.7661 45.5224C33.0182 45.6353 33.2018 45.6918 33.3168 45.6918C33.4437 45.6918 33.6415 45.666 33.9103 45.6144L33.7394 46.0046C33.5985 46.0197 33.4824 46.0369 33.391 46.0562C33.4555 46.1906 33.5803 46.2578 33.7652 46.2578H34.1071C34.3404 46.2578 34.457 46.2229 34.457 46.153C34.457 46.1046 34.3963 45.9982 34.2748 45.8337L34.5232 45.495C34.6457 45.6584 34.707 45.8294 34.707 46.0079C34.6694 46.2358 34.6178 46.3906 34.5522 46.4723C34.4307 46.6239 34.2608 46.6997 34.0426 46.6997H33.9087C33.727 46.6997 33.5824 46.6454 33.4749 46.5368C33.3889 46.4497 33.3142 46.31 33.2507 46.1175C32.9067 46.3605 32.7019 46.5003 32.6363 46.5368C32.4417 46.6454 32.2449 46.6997 32.046 46.6997ZM21.0394 45.9927H20.7557V46.626H21.0809C21.2075 46.626 21.2879 46.6212 21.3219 46.6115C21.3741 46.5986 21.4167 46.567 21.4495 46.517C21.4823 46.4669 21.4988 46.3998 21.4988 46.3158C21.4988 46.2447 21.4861 46.1844 21.4608 46.1349C21.4354 46.0853 21.3988 46.0492 21.351 46.0266C21.3031 46.004 21.1993 45.9927 21.0394 45.9927ZM23.0811 46.088L22.8413 45.2091L22.6063 46.088H23.0811ZM14.0786 46.088L13.8389 45.2091L13.6038 46.088H14.0786ZM17.5899 46.088L17.3501 45.2091L17.1151 46.088H17.5899ZM15.5387 45.0572H15.2645V45.6582H15.5244C15.693 45.6582 15.7982 45.6485 15.8402 45.6292C15.8821 45.6098 15.915 45.5764 15.9387 45.529C15.9625 45.4816 15.9743 45.4223 15.9743 45.3513C15.9743 45.2715 15.9587 45.2072 15.9274 45.1582C15.8962 45.1092 15.8521 45.0782 15.7951 45.0653C15.7666 45.0599 15.6811 45.0572 15.5387 45.0572ZM20.9575 45.0507H20.7557V45.5985H20.986C21.1229 45.5985 21.2079 45.5958 21.2412 45.5904C21.3013 45.5807 21.3486 45.5524 21.383 45.5056C21.4174 45.4587 21.4347 45.397 21.4347 45.3206C21.4347 45.2473 21.4198 45.1878 21.3901 45.142C21.3605 45.0962 21.3163 45.0685 21.2578 45.0588C21.223 45.0534 21.1229 45.0507 20.9575 45.0507ZM28.5755 45.2692L28.3368 45.495L28.1029 45.2579L28.3464 45.0402L28.5755 45.2692ZM29.1657 45.2386L28.927 45.4628L28.6932 45.2273L28.9383 45.008L29.1657 45.2386ZM38.9554 45.0176L38.6957 45.2628L38.4409 45.008L38.7054 44.7661L38.9554 45.0176ZM34.936 45.0306L34.7135 45.2531L34.4877 45.0547L34.2813 45.2628L34.0442 45.0547L34.2667 44.8273L34.4925 45.0289L34.6989 44.8177L34.936 45.0306ZM21.5093 41.8088L20.2583 38.4215L20.2294 38.4167L20.1397 38.3998C20.096 38.3876 20.0585 38.3741 20.0234 38.344C19.9447 38.2767 19.9156 38.1644 19.9516 38.0673C19.9676 38.024 19.9938 37.994 20.026 37.962L20.0739 37.9222L19.6619 36.8065C19.6222 36.8328 19.5793 36.854 19.5338 36.8717C19.4745 36.8947 19.4128 36.9113 19.3503 36.9229C19.3181 36.9289 19.2861 36.9333 19.2535 36.9364C19.195 36.942 19.1329 36.9429 19.0711 36.9372L21.1383 41.8088H21.5093ZM21.8608 41.8088H22.1792L21.293 38.5265C21.1313 38.5186 20.97 38.5077 20.8089 38.4925L21.8608 41.8088ZM22.5516 41.8088H22.87L22.3236 38.5484L22.1768 38.5474L21.8504 38.5442L22.5516 41.8088ZM23.187 41.8088H23.5054L23.2668 38.5554L23.2139 38.5558C23.0741 38.5541 22.9342 38.5528 22.7944 38.5518L23.187 41.8088ZM24.1715 41.8088L24.2552 38.5204C24.1383 38.5946 24.0079 38.5732 23.8776 38.5525C23.8488 38.5494 23.8196 38.5506 23.7905 38.5503L23.7572 38.5501L23.8363 41.8088H24.1715ZM24.813 41.8088L25.3568 37.2979C25.3481 37.3214 25.3392 37.3449 25.3297 37.3681C25.3069 37.4183 25.2831 37.4675 25.2525 37.5133C25.1497 37.6669 25.0027 37.79 24.8565 37.9C24.8303 37.9188 24.8038 37.9372 24.7772 37.9554L24.4946 41.8088H24.813ZM25.4484 41.8088L26.6675 36.1329C26.6394 36.1938 26.6113 36.2548 26.5823 36.3155C26.5467 36.3865 26.5468 36.3862 26.5096 36.4559C26.3868 36.6683 26.2315 36.8948 25.9803 36.9599C25.9673 36.9632 25.9543 36.9661 25.9411 36.9684L25.13 41.8088H25.4484ZM25.8208 41.8088H26.1392L27.5309 37.4213C27.5086 37.4049 27.4883 37.3862 27.4709 37.3643C27.4364 37.3211 27.4145 37.2679 27.3989 37.2154C27.3634 37.0954 27.3669 36.9686 27.3847 36.8459C27.389 36.8168 27.3957 36.7785 27.4014 36.7496C27.4144 36.6845 27.4288 36.6197 27.4406 36.5544C27.461 36.4196 27.4761 36.2839 27.4905 36.1483C27.5069 35.9791 27.5193 35.8096 27.5182 35.6394C27.5179 35.6032 27.5172 35.567 27.5158 35.5308L25.8208 41.8088ZM26.4907 41.8088H26.8617L28.4781 37.9995C28.4506 37.9944 28.4236 37.9872 28.3971 37.9766C28.2852 37.9321 28.1996 37.8396 28.1635 37.7246C28.146 37.6688 28.1417 37.6111 28.1398 37.553L28.1393 37.5348C28.1169 37.5318 28.0944 37.5293 28.0719 37.5274L26.4907 41.8088ZM27.2638 41.8088H27.6471L29.5537 38.2833C29.4244 38.2796 29.2954 38.269 29.1679 38.2444C29.1143 38.2341 29.0598 38.2231 29.0079 38.2051L27.2638 41.8088ZM28.54 41.8088L30.9316 38.2562C30.7167 38.2595 30.5018 38.2598 30.287 38.2651L28.1213 41.8088H28.54ZM29.4825 41.8088L32.424 38.1906L32.4067 38.1917C32.1728 38.2056 31.9389 38.2188 31.7049 38.2298L29.0336 41.8088H29.4825ZM30.6259 41.8088L34.3038 38.0654C34.1648 38.0744 34.0257 38.0828 33.8867 38.0922L33.4899 38.1193L30.134 41.8088H30.6259ZM32.0138 41.8088L36.6634 37.896C36.5916 37.9316 36.5047 37.9453 36.4307 37.9506C36.4127 37.9519 36.3946 37.9527 36.3764 37.9531C36.3418 37.954 36.3059 37.9533 36.2713 37.9519C36.221 37.9499 36.1768 37.9463 36.1253 37.9423C36.0638 37.9374 36.0027 37.9314 35.941 37.9298C35.84 37.9316 35.739 37.9406 35.6383 37.948C35.5828 37.9526 35.5274 37.9573 35.472 37.9623L31.3053 41.8088H32.0138ZM19.697 36.1735C19.7031 36.1729 19.7092 36.1724 19.7154 36.172C19.7564 36.1725 19.7561 36.1724 19.7972 36.1758C19.8089 36.1775 19.8206 36.1794 19.8322 36.1816L19.8355 36.1822C19.8465 36.1844 19.8575 36.1867 19.8684 36.1892L19.8732 36.1903C19.8838 36.1928 19.8944 36.1955 19.9048 36.1983L19.9166 36.2016L19.9281 36.2051L19.9435 36.2096L19.9554 36.2135L19.9657 36.2171L19.9789 36.2215L19.9936 36.2268L20.0139 36.2346L20.0314 36.2416L20.0485 36.2488L20.0686 36.2576L20.0827 36.264L20.1054 36.2748C20.1878 36.3146 20.2668 36.3628 20.3429 36.4139C20.4794 36.5054 20.614 36.6067 20.7175 36.7356C20.9344 37.0056 20.9908 37.3618 20.8958 37.6917C20.8653 37.7973 20.8237 37.8965 20.7588 37.9855L20.7577 37.9868C20.8904 38.0005 21.0232 38.0109 21.156 38.0189L21.174 38.02L21.2899 38.0263L21.3222 38.0278L21.4425 38.033L21.5852 38.0379L21.7307 38.0417L21.8389 38.0441C21.9725 38.0457 22.1061 38.0468 22.2398 38.0478L22.734 38.0513C22.8948 38.0524 23.0555 38.0538 23.2162 38.0558L23.3589 38.0546L23.6164 38.0512L23.6266 38.0511C23.6833 38.0505 23.74 38.0501 23.7967 38.0503C23.8704 38.0519 23.8701 38.0489 23.9431 38.0566L23.9613 38.0595C23.9714 38.0272 23.9827 37.9962 23.9956 37.9649C24.0252 37.9056 24.0606 37.8549 24.1114 37.8118C24.1655 37.7707 24.2203 37.7308 24.276 37.6917L24.4188 37.5953L24.4899 37.5466L24.5604 37.4971C24.6017 37.466 24.6418 37.4341 24.6812 37.4006L24.7216 37.3634L24.7415 37.3446L24.7613 37.3251L24.7806 37.3051L24.7892 37.2956L24.7991 37.2844L24.8074 37.2744L24.8165 37.2631L24.8292 37.2463L24.8367 37.2354C24.8626 37.1966 24.8792 37.1512 24.8949 37.1076C24.9143 37.0538 24.933 36.9999 24.9534 36.9464C24.9731 36.8991 24.973 36.8995 24.9949 36.8531C25.0285 36.7916 25.0644 36.7335 25.1133 36.6828C25.2054 36.5873 25.3242 36.5289 25.4525 36.5036L25.4748 36.4995C25.4832 36.498 25.4918 36.4967 25.5004 36.4956C25.6113 36.4808 25.7238 36.4944 25.8344 36.4797C25.85 36.477 25.8659 36.4742 25.8794 36.4657L25.8963 36.4521L25.9128 36.4374L25.9182 36.4323L25.9338 36.4167L25.9485 36.4006L25.9627 36.3837L25.9766 36.3661L25.9814 36.3598L25.9945 36.3416L26.0065 36.324L26.0255 36.2943L26.0393 36.2712L26.0533 36.2471L26.0627 36.2304C26.0767 36.2053 26.09 36.1801 26.103 36.1558C26.1779 36.0064 26.2442 35.8529 26.3177 35.7029C26.3606 35.6206 26.4087 35.5414 26.452 35.4594C26.5037 35.3616 26.5533 35.2628 26.6067 35.1659C26.6371 35.1142 26.6682 35.0634 26.7021 35.0139C26.7401 34.9613 26.7799 34.9105 26.8245 34.8633C26.8629 34.8227 26.9039 34.7847 26.9473 34.7496L26.9681 34.7335L26.9826 34.7222L26.9986 34.7104L27.0188 34.696L27.0297 34.6885L27.0558 34.671L27.0585 34.6693C27.0701 34.6617 27.0818 34.6543 27.0936 34.6471C27.2563 34.5471 27.4562 34.4477 27.6479 34.5233C27.691 34.5404 27.7314 34.5683 27.7662 34.5985L27.7672 34.5994C27.8032 34.6307 27.8344 34.6673 27.8606 34.7071C27.9004 34.7676 27.9281 34.8355 27.9475 34.905C27.9842 35.0359 27.99 35.1722 28.0014 35.3068C28.013 35.4438 28.0197 35.5804 28.0179 35.718C28.0163 35.8371 28.0096 35.956 27.9996 36.0747L27.9993 36.0788L27.9989 36.0826C27.9967 36.109 27.9943 36.1354 27.9918 36.1617C27.9886 36.194 27.9853 36.2264 27.9818 36.2587L27.9783 36.2893L27.9731 36.3361L27.9702 36.36L27.9685 36.3748L27.9659 36.3949L27.9627 36.4217L27.9572 36.4649L27.9549 36.4838L27.9405 36.5926C27.9259 36.7021 27.8972 36.809 27.8796 36.918C27.8756 36.9483 27.8727 36.978 27.8716 37.0086L27.8717 37.0138C27.9461 37.0207 28.0211 37.0222 28.0956 37.0271L28.1342 37.0307L28.1613 37.0336L28.1941 37.0377L28.2113 37.0402L28.2267 37.0426L28.2495 37.0467C28.2852 37.0534 28.3202 37.0624 28.3544 37.075C28.4763 37.1198 28.5726 37.2107 28.6135 37.3351C28.6321 37.3918 28.6371 37.4507 28.6388 37.51L28.6862 37.5091L28.6955 37.509L28.7191 37.5089L28.7521 37.5094C28.855 37.5169 28.9474 37.5437 29.0303 37.6066C29.0547 37.6252 29.0773 37.646 29.0992 37.6674C29.1209 37.6887 29.1417 37.7141 29.1673 37.7312L29.1828 37.736L29.1984 37.7402L29.2295 37.7473C29.2518 37.7518 29.2744 37.7555 29.2965 37.7595C29.477 37.7876 29.6595 37.7897 29.8422 37.7839L29.8837 37.7826L29.9459 37.7801L30.1986 37.7683L30.2636 37.7657C30.2847 37.765 30.306 37.7643 30.3271 37.7638L30.3286 37.7637C30.5206 37.7618 30.7126 37.7607 30.9047 37.7576C31.0375 37.7542 31.1702 37.7501 31.3029 37.7452L31.4497 37.7396L31.494 37.7378L31.6807 37.7298L31.6991 37.7289L31.8715 37.7207L31.9101 37.7188L32.131 37.7072C32.372 37.6929 32.6129 37.6776 32.8539 37.6618L33.3959 37.6258L34.4455 37.5551C34.5819 37.5449 34.7181 37.5326 34.8542 37.5195C34.991 37.5065 35.1277 37.4927 35.2644 37.4797L35.3111 37.4752L35.37 37.4698L35.4093 37.466L35.4554 37.4619L35.4698 37.4606C35.5131 37.4568 35.5564 37.453 35.5997 37.4495C35.7 37.4422 35.8002 37.4358 35.9006 37.4305L35.9274 37.4303H35.9364L35.9543 37.4306L35.9723 37.431L36.0079 37.4324L36.0438 37.4344C36.1389 37.4402 36.2338 37.4507 36.3291 37.4533H36.3329C36.336 37.2689 36.347 37.0842 36.3541 36.8999L36.3618 36.7239C36.3146 36.7268 36.2675 36.7304 36.2202 36.7329L36.173 36.735C36.1387 36.7348 36.1045 36.7343 36.0703 36.7338L36.019 36.7334C36.0019 36.7333 35.9847 36.7333 35.9676 36.7334L35.9174 36.7356L35.8689 36.7382L35.7711 36.7447L35.7233 36.7486L35.6678 36.7532L35.6153 36.7581C35.456 36.7731 35.297 36.7918 35.1375 36.8072C35.0395 36.8154 35.0399 36.8154 34.9416 36.8218C34.858 36.8253 34.7747 36.8278 34.691 36.8271L34.6658 36.8264L34.6511 36.8261L34.6479 36.8259C34.639 36.8257 34.6291 36.8252 34.611 36.8241C34.5159 36.8143 34.4265 36.7878 34.3393 36.7491C34.2387 36.7045 34.1451 36.6458 34.0442 36.6016C34.0165 36.5908 33.9901 36.583 33.9611 36.5756L33.9361 36.5709L33.911 36.5667L33.9012 36.5652L33.8858 36.563L33.8608 36.5597L33.8419 36.5575L33.8098 36.554L33.7586 36.5493C33.692 36.5436 33.6253 36.5392 33.559 36.5318C33.5023 36.5237 33.5028 36.5237 33.4468 36.5134C33.3861 36.4991 33.3268 36.4833 33.2692 36.459C33.2082 36.4333 33.1498 36.4031 33.0929 36.3703L33.0889 36.368C33.073 36.3589 33.0572 36.3495 33.0414 36.3399L33.0396 36.3388L33.0077 36.3191L32.9948 36.311L32.99 36.308L32.9839 36.3041L32.9718 36.2964L32.9582 36.2875L32.9394 36.2755L32.9088 36.2553L32.9007 36.2501L32.8916 36.2441L32.8891 36.2424L32.8126 36.1919L32.7712 36.1649L32.7459 36.1485L32.7331 36.1404L32.687 36.1116C32.6407 36.0852 32.5942 36.0601 32.5453 36.0386L32.5234 36.0301L32.5177 36.028L32.5061 36.024L32.483 36.0165L32.4745 36.0138C32.407 35.9936 32.338 35.982 32.2669 35.9713C32.1882 35.9595 32.1091 35.9501 32.0299 35.9426C31.9297 35.933 31.8288 35.9256 31.7276 35.9213L31.7195 35.921L31.6625 35.9191L31.6496 35.9187L31.6043 35.9178L31.5888 35.9176L31.5421 35.9173L31.5303 35.9172L31.4721 35.9178L31.4628 35.918L31.4151 35.9191L31.3962 35.9198L31.3574 35.9214L31.337 35.9224L31.2795 35.9259L31.2226 35.9304L31.1573 35.9368L31.138 35.939L31.0894 35.9448L31.0713 35.947L31.0076 35.9556L30.9107 35.9698C30.823 35.983 30.7356 35.9968 30.6479 36.0083C30.5697 36.0173 30.57 36.0172 30.4913 36.0246C30.3388 36.0351 30.1867 36.0383 30.0348 36.0186C29.9151 36.003 29.8048 35.976 29.6998 35.9146L29.6825 35.9042L29.6781 35.9014L29.6756 35.8999L29.6721 35.8977L29.6655 35.8935L29.6608 35.8903L29.6518 35.8845L29.6363 35.8737L29.6322 35.871L29.6307 35.8699C29.6211 35.8631 29.6115 35.8561 29.602 35.8489L29.5999 35.8473L29.5951 35.8436L29.5834 35.8347L29.5724 35.8259L29.5682 35.8227L29.5655 35.8204L29.5613 35.8171L29.5541 35.8111L29.5372 35.7973L29.5235 35.7856L29.5179 35.781L29.5125 35.7763L29.5066 35.7713L29.4944 35.7606L29.4752 35.744L29.4461 35.7183C29.4133 35.6894 29.3806 35.6605 29.3471 35.6328C29.2143 35.5295 29.0712 35.4402 28.936 35.3401C28.9214 35.3287 28.9069 35.3171 28.8926 35.3054L28.8808 35.2958L28.8697 35.2866L28.867 35.2844C28.8572 35.2763 28.8476 35.2681 28.8379 35.2598L28.8323 35.2549L28.8113 35.2364L28.8084 35.2337L28.8055 35.2311L28.7851 35.2124L28.7792 35.2069L28.7743 35.2023L28.7684 35.1966L28.7594 35.188L28.7504 35.179L28.744 35.1727L28.7399 35.1685L28.7343 35.1628L28.7145 35.1421L28.7124 35.1399C28.7034 35.1303 28.6946 35.1204 28.6858 35.1104C28.6774 35.1007 28.6691 35.0909 28.6609 35.081L28.6587 35.0784L28.6532 35.0715L28.642 35.0577L28.6366 35.0506L28.6326 35.0457L28.6281 35.0396L28.6211 35.0305L28.6127 35.019L28.6076 35.0122L28.6047 35.0082L28.6009 35.0029L28.5835 34.978L28.5825 34.9766C28.5754 34.966 28.5683 34.9553 28.5614 34.9446L28.5605 34.9432L28.5563 34.9364L28.5444 34.9174L28.5411 34.9119L28.5385 34.9077L28.5341 34.9L28.5269 34.888L28.5215 34.8783L28.5175 34.8715L28.5144 34.8657L28.5102 34.8583L28.5022 34.8432L28.4977 34.8348L28.496 34.8316L28.4942 34.8281L28.4802 34.8004L28.4788 34.7976L28.4775 34.7948L28.4642 34.7667L28.4627 34.7633L28.4611 34.7598L28.457 34.7503L28.4504 34.7355L28.4473 34.7281L28.4444 34.7215L28.4412 34.7134L28.4372 34.7039L28.4327 34.6922L28.4289 34.6827L28.4268 34.6772L28.4248 34.672L28.4184 34.6544L28.4144 34.6435L28.4136 34.641L28.4132 34.6399C28.3998 34.6017 28.388 34.5627 28.3778 34.5234C28.3295 34.3376 28.314 34.1456 28.2833 33.9565C28.2753 33.9136 28.2664 33.8714 28.2557 33.8291C28.2377 33.7699 28.2174 33.7106 28.1774 33.6622C28.1418 33.6191 28.0937 33.591 28.0419 33.572L28.018 33.5639L28.0162 33.5634L27.9929 33.5568L27.9887 33.5557L27.9661 33.5504L27.9356 33.5443C27.8943 33.5369 27.8525 33.5325 27.8107 33.5315L27.7856 33.5314C27.7688 33.5315 27.7521 33.5323 27.7353 33.5336C27.5648 33.547 27.406 33.6159 27.2553 33.6922L27.1845 33.7302C27.0295 33.8149 26.8787 33.9071 26.7237 33.9916C26.6237 34.0436 26.5211 34.0896 26.4166 34.1305L26.4154 34.131L26.4126 34.1321L26.3992 34.1372L26.374 34.1469L26.3669 34.1495L26.3595 34.1523L26.3468 34.1569L26.3311 34.1627L26.3175 34.1675L26.3061 34.1717L26.2972 34.1748L26.2881 34.178L26.266 34.1855L26.2524 34.1902L26.2481 34.1917C26.2323 34.197 26.2164 34.2022 26.2006 34.2073L26.1984 34.208L26.1859 34.2119L26.1578 34.2208L26.1511 34.2228L26.1442 34.225L26.1308 34.229L26.114 34.2341L26.1011 34.2379L26.0897 34.2413L26.0798 34.2441L26.0701 34.2469L26.0497 34.2526L26.035 34.2568L26.0295 34.2583L26.026 34.2593L25.9881 34.2695L25.98 34.2717L25.9635 34.2759L25.9375 34.2827L25.9326 34.2839L25.9249 34.2859L25.9079 34.2901L25.893 34.2938L25.8875 34.2951C25.8599 34.3018 25.8323 34.3083 25.8047 34.3145L25.8037 34.3148L25.8014 34.3153L25.7584 34.3248L25.7141 34.3342L25.7025 34.3367C25.4813 34.3825 25.2572 34.416 25.0347 34.4444C25.0137 34.4471 24.9927 34.4498 24.9718 34.4524C24.8972 34.4617 24.8226 34.4706 24.7479 34.4795C24.7147 34.4834 24.6812 34.4873 24.6476 34.4909L24.6453 34.4911L24.629 34.4928L24.6024 34.4955L24.5983 34.4958L24.5936 34.4963L24.5768 34.4978L24.5535 34.4998L24.548 34.5003L24.5418 34.5008L24.5252 34.5019L24.5044 34.5035L24.4975 34.5038L24.4898 34.5044L24.4738 34.5051L24.4554 34.5061L24.4471 34.5064L24.4378 34.5068L24.4226 34.5072L24.4063 34.5077L24.3967 34.5078L24.3858 34.508L24.3716 34.5079L24.3573 34.508C24.211 34.5072 24.0664 34.4868 23.9298 34.4277C23.8271 34.3832 23.7364 34.323 23.653 34.2536L23.6489 34.2502L23.6369 34.2401L23.6244 34.2292L23.6205 34.2259L23.6182 34.2238C23.5986 34.2065 23.5794 34.1888 23.5605 34.1706L23.5577 34.1679L23.5536 34.1639L23.544 34.1546L23.5309 34.1416L23.5215 34.1322L23.5152 34.1257L23.497 34.1072L23.4832 34.0926L23.4774 34.0866L23.4732 34.0821C23.4606 34.0687 23.4481 34.0552 23.4357 34.0417L23.4341 34.04L23.4284 34.0336L23.4091 34.0124L23.4011 34.0034L23.3914 33.9927L23.3553 33.9518L23.3518 33.9479L23.3502 33.946L23.3492 33.9449L23.2846 33.8713L23.2496 33.8317L23.2289 33.8084L23.219 33.7974L23.1806 33.7553C23.1485 33.7224 23.1156 33.6906 23.0812 33.66L23.0597 33.6426L23.0523 33.637L23.0378 33.626L23.0285 33.6194L23.0155 33.6101L23.005 33.6031L22.9928 33.5949L22.9811 33.5876L22.9697 33.5804L22.9568 33.5727L22.9463 33.5666L22.9318 33.5585L22.9226 33.5534L22.9061 33.5448C22.7091 33.4428 22.4812 33.4003 22.2652 33.3593L22.1208 33.3319L22.1064 33.3291C22.0631 33.3209 22.0199 33.3125 21.9766 33.3038C21.8929 33.2856 21.8098 33.2664 21.7271 33.244C21.7122 33.2397 21.6974 33.2353 21.6827 33.2307L21.6792 33.2296L21.6686 33.2262L21.6476 33.2195L21.6386 33.2165L21.6318 33.2143L21.6222 33.211L21.6082 33.2063L21.5943 33.2013L21.5847 33.198L21.5779 33.1955L21.5692 33.1924L21.5493 33.185L21.5381 33.1809L21.5343 33.1794L21.5305 33.178L21.4972 33.165L21.4919 33.1629L21.4848 33.16L21.4538 33.1473L21.4506 33.1459L21.4461 33.144L21.4159 33.131C21.2746 33.0692 21.1392 32.9949 21.0089 32.9096C20.8548 32.8086 20.7099 32.6952 20.5688 32.577L20.565 32.5739L20.5576 32.5677L20.5257 32.5408L20.5132 32.5302L20.5097 32.5272L20.5035 32.522L20.458 32.483L20.4557 32.4811L20.3727 32.4092L20.3481 32.3878L20.3435 32.3839L20.3426 32.3831L20.2378 32.2918L20.1286 32.1976L20.0385 32.1226L20.006 32.0957L19.9488 32.0486L19.7589 31.8928L19.7107 31.8531L19.6025 31.7642L19.5857 31.7502L19.5739 31.7405L19.5151 31.6916L19.5016 31.6803L19.4818 31.6639L19.4541 31.6405L19.428 31.6186L19.3902 31.5867C19.2249 31.4439 19.0622 31.2983 18.9077 31.1438C18.8145 31.0507 18.7201 30.9573 18.644 30.8493C18.514 30.6644 18.4295 30.4503 18.3677 30.2341C18.2859 29.9481 18.2419 29.6514 18.2147 29.3555C18.2053 29.253 18.2053 29.1499 18.1982 29.0473C18.1939 29.0042 18.189 28.9616 18.1802 28.9193C18.1704 28.8793 18.159 28.8349 18.1284 28.8053C18.1172 28.7961 18.1055 28.7903 18.0916 28.7868C18.0493 28.7789 18.005 28.7867 17.9633 28.7939C17.8991 28.8048 17.8355 28.8182 17.7711 28.8283C17.7475 28.8309 17.7242 28.8333 17.701 28.8349L17.6963 28.8353L17.6853 28.836L17.6789 28.8364L17.6762 28.8365C17.6668 28.8371 17.6574 28.8375 17.6479 28.8377C17.6001 28.837 17.5529 28.8341 17.5058 28.8245C17.4435 28.8117 17.3815 28.788 17.3221 28.7674C17.1662 28.7133 17.0116 28.6383 16.9097 28.5036C16.8463 28.4196 16.8173 28.3161 16.7735 28.2218L16.7672 28.2094C16.7406 28.1986 16.7134 28.1896 16.6848 28.1858L16.6732 28.1847L16.6702 28.1845L16.6596 28.1843L16.6485 28.1848L16.6336 28.1864L16.6189 28.1895L16.6145 28.1906L16.6037 28.1938L16.6 28.195L16.5863 28.2003L16.5832 28.2017L16.5727 28.2066L16.5682 28.2089L16.5585 28.2142L16.5548 28.2162L16.5429 28.2236L16.5238 28.2368L16.5211 28.2388L16.5028 28.2529C16.4841 28.268 16.4663 28.2842 16.4491 28.2998C16.3742 28.3745 16.3068 28.4557 16.2345 28.5328C16.1319 28.6367 16.0239 28.7355 15.9243 28.8424C15.901 28.8686 15.8786 28.8951 15.857 28.9228C15.8226 28.9706 15.7907 29.02 15.7594 29.0699L15.7436 29.0954L15.726 29.1237L15.6974 29.17L15.6826 29.1937L15.6739 29.2077L15.6708 29.2126L15.6662 29.2199L15.6492 29.2463L15.6383 29.2634L15.6358 29.2671L15.6343 29.2694L15.632 29.2728L15.62 29.2909L15.6014 29.3182C15.5739 29.356 15.5457 29.3927 15.516 29.4288C15.4765 29.4737 15.4371 29.5174 15.3893 29.5537C15.3133 29.6115 15.2259 29.6533 15.1395 29.6931C15.0976 29.7124 15.0554 29.7311 15.0134 29.7502L14.9884 29.7615L14.9261 29.7905L14.9209 29.7929C14.8971 29.8043 14.8734 29.8159 14.8499 29.828C14.82 29.8447 14.7911 29.862 14.7639 29.8829C14.7564 29.8893 14.7565 29.889 14.7495 29.8959C14.742 29.9305 14.7361 29.9652 14.7303 30.0002L14.7248 30.0371C14.7432 30.0678 14.7585 30.0994 14.7734 30.1319C14.7996 30.1952 14.8186 30.2614 14.8456 30.3243C14.8634 30.3462 14.886 30.3638 14.9079 30.3813C14.962 30.4223 15.0174 30.4614 15.0702 30.5041C15.104 30.5338 15.1037 30.5336 15.1361 30.5651C15.1701 30.6024 15.1698 30.6022 15.2012 30.6418C15.2345 30.6914 15.2646 30.7424 15.2944 30.7942C15.4413 31.0593 15.5581 31.3388 15.6895 31.6116C15.7284 31.688 15.7678 31.7634 15.8107 31.8376C15.8961 31.979 15.9926 32.1126 16.1098 32.2286L16.1335 32.2514L16.1401 32.2577L16.1636 32.2792C16.3457 32.4421 16.5636 32.5619 16.7845 32.6633L16.8701 32.7019L16.8968 32.7137L16.9469 32.7357L17.0719 32.7898L17.2195 32.8529L17.224 32.8549C17.2694 32.8743 17.3148 32.8939 17.3601 32.9137L17.3646 32.9157C17.4223 32.9409 17.4797 32.9665 17.5368 32.9929C17.6015 33.0238 17.6656 33.0556 17.7293 33.0885C17.8274 33.1415 17.9259 33.1949 18.0149 33.2626C18.2029 33.4057 18.3615 33.5884 18.5049 33.7749C18.5298 33.8072 18.5544 33.8399 18.5785 33.8731L18.5928 33.8926L18.6017 33.9052L18.6124 33.9201L18.6252 33.9385L18.6353 33.9528L18.648 33.9714C18.658 33.9862 18.6679 34.0011 18.6777 34.0161L18.6963 34.045L18.7114 34.0691C18.7204 34.0837 18.7292 34.0983 18.7378 34.113L18.7533 34.1397L18.7711 34.1718L18.782 34.1921L18.7954 34.2179L18.8064 34.2399C18.8113 34.2499 18.8161 34.2599 18.8209 34.2701C18.882 34.4008 18.9257 34.539 18.9566 34.6798C18.9602 34.6964 18.9636 34.7129 18.9669 34.7295L18.9746 34.7704L18.9775 34.7864L18.9824 34.8158L18.9863 34.84L18.9895 34.8614L18.9941 34.8936L19.0013 34.9506L19.0069 35.0013L19.0111 35.0445C19.0265 35.2103 19.0315 35.377 19.0361 35.5432C19.0402 35.6937 19.0497 35.8437 19.0551 35.994C19.0591 36.1055 19.0542 36.217 19.0594 36.3285C19.0621 36.3634 19.0642 36.3986 19.0719 36.4328C19.1533 36.4555 19.2489 36.4361 19.3274 36.4143C19.3406 36.41 19.3401 36.4101 19.353 36.4054L19.3603 36.4025C19.367 36.3854 19.3745 36.3687 19.3832 36.3525C19.4009 36.3247 19.4182 36.2972 19.4435 36.2752C19.4491 36.2703 19.4547 36.2657 19.4605 36.2613L19.4746 36.2507L19.489 36.2409L19.5047 36.2312L19.5207 36.2224L19.537 36.2144L19.5536 36.2071L19.5705 36.2006L19.5876 36.1948L19.6051 36.1898L19.6228 36.1853L19.6459 36.1805L19.6629 36.1777L19.6802 36.1753L19.697 36.1735ZM20.3715 37.1135L20.4383 37.324C20.431 37.2501 20.4089 37.1786 20.3715 37.1135ZM15.4132 13.2782C15.3424 13.2484 15.2651 13.2311 15.1923 13.2192L15.1428 13.2119L15.1266 13.2099L15.0928 13.206L15.0739 13.2041L15.0424 13.2013L15.0229 13.1998L14.9911 13.1978L14.9724 13.1968L14.9372 13.1955L14.922 13.195L14.8723 13.1943H14.8596L14.8222 13.1946L14.8016 13.195L14.7721 13.1959L14.7491 13.1967L14.7222 13.198L14.6978 13.1993L14.6469 13.2026L14.6268 13.2042C14.5868 13.2074 14.5469 13.2112 14.5071 13.2156L14.4609 13.2209C14.4185 13.226 14.3762 13.2316 14.3343 13.2376L14.2916 13.2444C14.3081 13.1193 14.3228 12.9941 14.3368 12.8686L14.3445 12.7898L14.3523 12.7072L14.3619 12.6016L14.3681 12.5292L14.3715 12.4883L14.3805 12.3729C14.3877 12.26 14.3945 12.1472 14.3986 12.0341C14.4013 11.9581 14.4032 11.8812 14.4037 11.8052C14.4042 11.7312 14.4035 11.6559 14.4012 11.5819C14.3986 11.4996 14.3956 11.4529 14.3894 11.3712C14.3775 11.2176 14.3571 11.0543 14.2947 10.912C14.2619 10.8374 14.2126 10.7654 14.13 10.7449C14.1042 10.7411 14.0817 10.7407 14.0558 10.7429L14.0384 10.7465L14.0328 10.7478L14.0213 10.7507L14.0147 10.7526L14.0044 10.7556L13.9976 10.7578L13.9876 10.7612L13.9809 10.7636L13.9709 10.7674L13.9646 10.7699L13.954 10.7743L13.9485 10.7767L13.9342 10.7833L13.9327 10.784L13.906 10.7976L13.9026 10.7995L13.8798 10.8125L13.8601 10.8246L13.8499 10.831L13.8235 10.8486L13.8209 10.8504L13.7907 10.872C13.6895 10.9459 13.5977 11.0314 13.5062 11.1168C13.3068 11.3089 13.1135 11.5071 12.915 11.7002C12.8218 11.7888 12.7279 11.8763 12.6313 11.9613C12.5512 12.0318 12.4684 12.0995 12.3834 12.164C12.3169 12.2145 12.2487 12.2629 12.1786 12.3083C12.1273 12.3415 12.0751 12.3731 12.0216 12.4026C11.8535 12.4952 11.6721 12.5684 11.4815 12.5975C11.445 12.6031 11.4082 12.6071 11.3715 12.6089L11.3347 12.6098C11.2858 12.6099 11.2369 12.6054 11.1886 12.5942C11.1084 12.5756 11.0332 12.5405 10.9649 12.4949C10.8122 12.3931 10.6939 12.2452 10.5871 12.0984L10.5408 12.0337L10.536 12.0269L10.5334 12.0232L10.5238 12.0093C10.423 11.8654 10.3276 11.7175 10.2265 11.5738C10.1709 11.4977 10.1141 11.4234 10.0547 11.3502C9.9131 11.1838 9.7546 11.0313 9.5616 10.9256C9.5198 10.9027 9.4768 10.8821 9.4327 10.864C9.41 10.8547 9.3863 10.8435 9.3615 10.8406C9.3111 10.8346 9.2581 10.8489 9.2113 10.8663C9.1098 10.9041 9.0173 10.9696 8.9475 11.0522C8.8932 11.1164 8.8527 11.192 8.8317 11.2736C8.8191 11.3224 8.8142 11.3728 8.8099 11.4229C8.802 11.5152 8.7999 11.608 8.801 11.7007C8.8047 12.003 8.8406 12.3051 8.8909 12.6029C8.9293 12.8297 8.9767 13.0553 9.0346 13.2781L9.0396 13.2967L9.0633 13.3845L9.0666 13.3965L9.0916 13.4841L9.0951 13.4961L9.1171 13.5692L9.124 13.5916L9.1507 13.6756C9.2071 13.849 9.2708 14.0205 9.3478 14.1858L9.3742 14.2409L9.3831 14.2587L9.4017 14.2956L9.4242 14.3379L9.4281 14.3449L9.4536 14.39L9.4688 14.4156L9.4747 14.4251C9.4874 14.4459 9.5006 14.4665 9.5143 14.4866L9.5335 14.5143L9.5507 14.5379L9.568 14.5608L9.5852 14.5826C9.5957 14.5957 9.6064 14.6085 9.6174 14.621L9.6459 14.9267L9.6548 15.0193L9.6596 15.0698L9.674 15.2129C9.7181 15.591 9.7707 15.9869 9.9472 16.33C9.9908 16.4146 10.0441 16.493 10.1005 16.5695C10.1773 16.6737 10.2568 16.7755 10.3383 16.876L10.4406 17.001L10.4614 17.0263L10.5148 17.0907L10.6771 17.286L10.6987 17.3119L10.7536 17.378L10.7903 17.4224C10.8242 17.4634 10.8579 17.5046 10.8915 17.5458C10.9879 17.6668 11.0823 17.7887 11.175 17.9125C11.2366 17.9973 11.2975 18.0826 11.3557 18.1699C11.4139 18.2571 11.4725 18.3415 11.505 18.4418C11.544 18.5626 11.5571 18.6911 11.561 18.8173C11.5657 18.9664 11.5565 19.1158 11.5402 19.264L11.5392 19.2734L11.5391 19.2748L11.5388 19.2771L11.5311 19.3424C11.4706 19.8266 11.349 20.3039 11.2031 20.7689C11.1594 20.9082 11.1129 21.0467 11.0633 21.184C11.0353 21.2615 10.9981 21.3382 10.9789 21.4185C10.9764 21.4327 10.9746 21.4465 10.9736 21.4609C10.9744 21.6031 11.0601 21.7173 11.1481 21.8218C11.2448 21.9306 11.3477 22.0335 11.4422 22.1443C11.4752 22.1859 11.5086 22.2284 11.5321 22.2764C11.5709 22.3557 11.5804 22.4445 11.586 22.5314C11.5907 22.6405 11.5892 22.7497 11.594 22.8588L11.597 22.894L11.5977 22.9008L11.6014 22.9342C11.6085 22.9918 11.6201 23.0487 11.6414 23.1033C11.6703 23.1776 11.7162 23.2376 11.7723 23.2872C11.7935 23.306 11.8162 23.3233 11.84 23.3394L11.8658 23.356L11.8924 23.3717L11.9193 23.3864L11.9437 23.3989L11.9504 23.4021L11.9804 23.4161L11.9904 23.4206L12.0255 23.4356L12.0626 23.4502L12.0722 23.4539L12.0901 23.4605L12.1275 23.474L12.1419 23.479L12.1898 23.4953C12.2477 23.5146 12.2744 23.5221 12.3332 23.5399C12.5516 23.6025 12.7718 23.6583 12.9901 23.721C13.015 23.7284 13.0399 23.7359 13.0647 23.7436L13.1308 23.7641L13.1476 23.7695L13.2008 23.7867L13.2259 23.795L13.2449 23.8015L13.2704 23.8101L13.2874 23.816L13.3037 23.8217L13.3203 23.8276L13.3398 23.8345L13.3607 23.8422L13.3812 23.8496L13.3947 23.8548L13.4087 23.8599L13.4334 23.8695L13.458 23.879L13.4793 23.8875C13.5231 23.905 13.5667 23.9234 13.6099 23.9429C13.7428 24.0027 13.872 24.0711 13.9942 24.1507C14.0633 24.1957 14.1301 24.2442 14.194 24.2964C14.2454 24.3383 14.2965 24.3813 14.3376 24.4339C14.4754 24.6103 14.5009 24.8495 14.5057 25.0656C14.5068 25.1168 14.5064 25.1686 14.5054 25.2198C14.5038 25.3009 14.5004 25.3679 14.4971 25.4525C14.4927 25.5657 14.4922 25.5653 14.4896 25.6785C14.4892 25.7488 14.4905 25.8184 14.4943 25.8886C14.5067 26.0351 14.5342 26.2008 14.654 26.3004C14.6971 26.3362 14.7494 26.3534 14.7969 26.3816C14.8215 26.3996 14.8211 26.3993 14.8441 26.4193C14.9323 26.5093 14.9858 26.623 15.0261 26.7413C15.0672 26.8623 15.0957 26.9882 15.1163 27.1142C15.1642 27.4063 15.1861 27.7021 15.1925 27.9984L15.1941 28.085L15.1944 28.1128V28.1362L15.1948 28.1826L15.1947 28.2082L15.1948 28.2243L15.1946 28.2469L15.1945 28.2801L15.194 28.3358L15.1937 28.3543L15.1935 28.3776L15.1926 28.421L15.1922 28.4472L15.1919 28.4602L15.1916 28.4751L15.1901 28.532L15.1895 28.5585L15.1892 28.5652C15.1883 28.6 15.1871 28.6349 15.1859 28.6697L15.1814 28.7638L15.3084 28.8517L15.3669 28.7578C15.3866 28.7265 15.4064 28.6954 15.4268 28.6646L15.4496 28.6335L15.4729 28.6031L15.4925 28.5784C15.5018 28.5666 15.5114 28.5549 15.5212 28.5433C15.6407 28.4088 15.7763 28.2905 15.8992 28.1594C15.951 28.1014 16.0021 28.0431 16.0553 27.9865C16.1051 27.9368 16.1553 27.888 16.2114 27.8454C16.2475 27.818 16.2855 27.7932 16.3251 27.7718L16.342 27.7629L16.3591 27.7544L16.3769 27.746L16.3939 27.7386L16.4116 27.7314L16.4287 27.7249L16.4538 27.7163L16.4656 27.7126L16.4817 27.7079L16.5067 27.7015L16.521 27.6982L16.536 27.6952L16.5609 27.691L16.5778 27.6886L16.5915 27.6872C16.5998 27.6863 16.608 27.6856 16.6163 27.6851C16.6274 27.6844 16.6386 27.6839 16.6497 27.6838L16.6832 27.6842C16.7055 27.685 16.7277 27.6869 16.7499 27.6898C16.8114 27.6979 16.8718 27.7139 16.9298 27.7358C16.9923 27.7593 17.0527 27.787 17.1027 27.8318C17.1733 27.895 17.217 27.9834 17.2529 28.0693C17.2715 28.1137 17.2862 28.1624 17.3106 28.2043C17.322 28.2172 17.3362 28.2267 17.3505 28.236C17.394 28.2611 17.4404 28.2791 17.4877 28.2956C17.5033 28.3009 17.5212 28.3078 17.5399 28.3145L17.5599 28.3214L17.585 28.3291C17.5948 28.3318 17.6046 28.3341 17.6141 28.3358C17.6328 28.3379 17.6512 28.3377 17.67 28.3365C17.7588 28.3266 17.8459 28.3061 17.9342 28.2924C17.9757 28.2879 18.0156 28.2844 18.0572 28.2835C18.1182 28.2849 18.178 28.2907 18.2368 28.3078C18.276 28.3192 18.3141 28.3345 18.35 28.3539C18.3902 28.3757 18.4278 28.4018 18.4619 28.4323C18.6098 28.5644 18.6637 28.7523 18.6902 28.9419C18.7024 29.0649 18.7034 29.1883 18.7128 29.3114C18.741 29.5913 18.7793 29.8722 18.8618 30.1419C18.9137 30.3114 18.9831 30.4771 19.0949 30.616C19.1234 30.6481 19.1528 30.6793 19.1827 30.7101L19.2612 30.7902L19.3303 30.8572L19.4003 30.9232L19.4285 30.9493L19.471 30.9884L19.501 31.0155L19.5425 31.0529L19.573 31.0799L19.6149 31.1169L19.6448 31.143L19.6881 31.1806L19.7164 31.2049L19.7625 31.2443L19.7875 31.2655L19.8305 31.3018L19.8906 31.352L19.992 31.4364L20.0174 31.4573C20.1619 31.5767 20.3075 31.6953 20.4515 31.8158C20.6108 31.952 20.7677 32.0908 20.9282 32.2254C21.0514 32.3255 21.1781 32.4232 21.3117 32.5091L21.3629 32.5413L21.4147 32.5721L21.4672 32.6016L21.4934 32.6157L21.5201 32.6295L21.547 32.6429L21.5741 32.6559L21.6014 32.6685L21.6289 32.6806L21.6566 32.6923L21.6846 32.7036L21.7127 32.7143L21.7411 32.7246L21.7883 32.7405L21.8357 32.7553L21.8549 32.7609L21.8834 32.769L21.9042 32.7746L21.9313 32.7817L21.9534 32.7873L21.9789 32.7936L22.0028 32.7992L22.0256 32.8044L22.0528 32.8105L22.1035 32.8213C22.2534 32.8522 22.405 32.8764 22.554 32.9071C22.621 32.9224 22.6874 32.938 22.7538 32.9557C22.7977 32.9683 22.8414 32.9816 22.8848 32.9963L22.9064 33.0036L22.944 33.017L22.9814 33.031L23.0185 33.0458L23.0446 33.0568L23.0749 33.0701L23.0915 33.0778L23.1048 33.084L23.1274 33.095L23.1345 33.0986L23.1634 33.1135C23.1742 33.1192 23.1849 33.1251 23.1954 33.1311L23.2214 33.1461L23.2322 33.1526L23.2496 33.1634L23.266 33.1739L23.2774 33.1814L23.2992 33.1963L23.3048 33.2002L23.3317 33.2199L23.3527 33.236L23.371 33.2506C23.3822 33.2596 23.3932 33.2688 23.404 33.2782L23.4135 33.2864L23.4254 33.2971L23.4429 33.3127L23.4526 33.3216L23.4635 33.332L23.478 33.3457L23.4906 33.3579L23.5 33.3674L23.5123 33.3796L23.5277 33.3952L23.5459 33.4141L23.564 33.4332L23.579 33.4493L23.6115 33.485L23.6349 33.5112C23.7128 33.5985 23.7883 33.6887 23.8684 33.7736C23.9 33.8053 23.9323 33.8357 23.9663 33.8649C24.023 33.9105 24.0838 33.954 24.1531 33.9784C24.2194 34.0017 24.2911 34.0079 24.3609 34.0085L24.4094 34.008L24.4491 34.0064L24.489 34.0039L24.5289 34.0006L24.569 33.9967L24.6089 33.9924L24.6894 33.9829C24.7628 33.9742 24.8361 33.9654 24.9094 33.9563L24.9973 33.945L25.072 33.9349C25.2843 33.9058 25.4959 33.8702 25.7047 33.8229C25.7291 33.8173 25.7535 33.8116 25.7778 33.8057L25.8248 33.794L25.8618 33.7845L25.9056 33.7727L25.9499 33.7604L25.994 33.7475L26.0369 33.7343L26.0821 33.7198L26.127 33.7046L26.147 33.6976L26.1718 33.6887L26.1915 33.6815L26.2163 33.6722L26.2357 33.6647L26.2607 33.6548L26.2797 33.6472L26.305 33.6366L26.3233 33.6289L26.3495 33.6174L26.3666 33.6098L26.4096 33.5899L26.4522 33.5692C26.6468 33.468 26.8319 33.3498 27.0261 33.2478C27.1293 33.1955 27.2349 33.1476 27.3441 33.1104L27.3663 33.1029L27.4016 33.0918L27.4371 33.0814L27.4729 33.072L27.5089 33.0634L27.5464 33.0556C27.5581 33.0533 27.57 33.0511 27.5819 33.0491L27.6118 33.0445L27.6421 33.0405L27.6727 33.0372L27.6911 33.0355L27.7035 33.0345L27.731 33.0328C27.7541 33.0316 27.7773 33.0309 27.8006 33.0309H27.8033L27.8284 33.0311L27.8599 33.0321L27.8787 33.0331L27.8914 33.0339L27.9188 33.0361C27.9426 33.0382 27.9663 33.041 27.9898 33.0445L28.0168 33.0488L28.0478 33.0545L28.0786 33.0611L28.1039 33.0673C28.128 33.0733 28.1518 33.0802 28.1753 33.088C28.3024 33.1297 28.4197 33.1956 28.5143 33.2901C28.564 33.3397 28.6064 33.3963 28.6412 33.4572C28.6837 33.5317 28.714 33.6104 28.7369 33.6917L28.742 33.71L28.7481 33.7336C28.751 33.7451 28.7537 33.7566 28.7563 33.7682C28.7598 33.7837 28.7631 33.7993 28.7663 33.8149L28.7739 33.8543L28.7767 33.8703L28.7809 33.8951L28.7865 33.9302L28.7938 33.9789L28.8049 34.0593L28.8094 34.0931L28.82 34.1705L28.826 34.2121L28.8302 34.24L28.8326 34.2549L28.8408 34.3034C28.8505 34.3503 28.8614 34.3963 28.8743 34.4424L28.8827 34.4672L28.8916 34.4917L28.9011 34.5159L28.9112 34.5398L28.9219 34.5635L28.9332 34.5868L28.945 34.6098L28.9575 34.6325L28.9705 34.6548L28.9842 34.6768L28.9984 34.6984L29.0133 34.7196L29.0288 34.7403L29.045 34.7607L29.0617 34.7806L29.0799 34.8009C29.1284 34.8534 29.1831 34.8984 29.2392 34.9425C29.3665 35.0367 29.4992 35.1233 29.6269 35.217L29.663 35.246L29.6984 35.2758L29.7161 35.2911C29.7425 35.3139 29.7685 35.3371 29.7949 35.36L29.8055 35.3692L29.8405 35.3991L29.8752 35.4277L29.9105 35.4552C29.9366 35.4733 29.9627 35.4909 29.9925 35.5026C30.0265 35.5142 30.0638 35.5181 30.0992 35.5227L30.1255 35.5258L30.1518 35.5284L30.178 35.5304L30.2041 35.5319L30.2298 35.5329L30.2527 35.5334L30.3009 35.5336L30.3191 35.5333C30.5814 35.5278 30.8405 35.4725 31.1001 35.4402C31.181 35.432 31.1807 35.4321 31.262 35.4261C31.2902 35.4247 31.3184 35.4235 31.3466 35.4226L31.3625 35.422C31.3897 35.4211 31.4169 35.4204 31.4441 35.42L31.4887 35.4193L31.5442 35.4191C31.5727 35.4191 31.6014 35.4193 31.6299 35.4198L31.6441 35.4201C31.6721 35.4206 31.7 35.4213 31.7279 35.4222L31.7392 35.4226C31.7983 35.4247 31.8573 35.4277 31.9162 35.4317L31.923 35.4321C31.9534 35.4342 31.9837 35.4365 32.014 35.4391C32.0651 35.4434 32.1163 35.4484 32.1674 35.4542C32.348 35.4745 32.5328 35.4969 32.7033 35.5631L32.745 35.5801L32.7859 35.5985L32.8022 35.6064L32.8133 35.6117L32.8262 35.6181L32.8513 35.6311L32.8658 35.6388L32.8887 35.6514L32.905 35.6605L32.9257 35.6724L32.9437 35.683L32.9623 35.6942L32.982 35.7062L32.9986 35.7166L33.0346 35.7394L33.0732 35.7644L33.0952 35.7787L33.1706 35.8285L33.2473 35.8786L33.2838 35.9019L33.321 35.925L33.3571 35.9452L33.3951 35.9654C33.4172 35.9769 33.4397 35.9878 33.4626 35.9979C33.5141 36.0185 33.5676 36.0279 33.6223 36.0358C33.734 36.0483 33.8462 36.0539 33.9578 36.0675C34.0213 36.0774 34.0837 36.0897 34.1446 36.1078L34.1675 36.1147L34.1792 36.1185L34.2014 36.1263L34.204 36.1273C34.2144 36.1311 34.2248 36.1351 34.2351 36.1394C34.3409 36.183 34.4385 36.2439 34.5422 36.2921C34.5649 36.3017 34.5874 36.3104 34.6109 36.3177C34.6244 36.321 34.6375 36.3242 34.6513 36.3256C34.6806 36.3273 34.7101 36.3277 34.7395 36.3275L34.8277 36.3262C34.9283 36.3219 35.0285 36.3143 35.1287 36.305C35.0964 35.8425 35.1306 35.3754 35.2205 34.9206C35.2242 34.9018 35.228 34.8832 35.2319 34.8645L35.2426 34.8148L35.2544 34.7621L35.26 34.7383C35.2788 34.6585 35.2995 34.5793 35.3224 34.5006C35.3587 34.376 35.3989 34.2533 35.4573 34.1371C35.5835 33.8859 35.7706 33.672 35.9587 33.4657C36.02 33.3984 36.0819 33.3316 36.1427 33.2639C36.1692 33.2344 36.194 33.2032 36.2231 33.1762C36.2371 33.1648 36.2513 33.1555 36.2672 33.1471C36.3581 33.1061 36.4593 33.1213 36.5539 33.1405L36.5607 33.1419C36.6694 33.1669 36.7758 33.2013 36.8847 33.2255C36.9214 33.2326 36.9629 33.2409 37.0031 33.2405L37.0165 33.2401C37.043 33.2384 37.0687 33.2324 37.0917 33.219C37.1285 33.1975 37.1592 33.1627 37.1832 33.1279C37.2385 33.0474 37.2683 32.9439 37.2598 32.8462C37.256 32.8031 37.244 32.7585 37.2166 32.7241C37.2001 32.7033 37.1799 32.6916 37.1572 32.6782C37.0969 32.6478 37.0347 32.6237 36.9719 32.5989C36.9289 32.5817 36.8864 32.564 36.8441 32.5453C36.8033 32.5256 36.7644 32.5049 36.7257 32.4812C36.687 32.4547 36.6499 32.4254 36.623 32.3865C36.5806 32.3254 36.5677 32.2491 36.5571 32.1771C36.5421 32.0524 36.5382 31.9268 36.5291 31.8016L36.5266 31.7699L36.5232 31.7307L36.5177 31.6766C36.5007 31.5514 36.4751 31.4273 36.4208 31.3124L36.4102 31.291L36.4066 31.2841L36.399 31.2699L36.3945 31.2619L36.3871 31.2491L36.3823 31.241L36.3746 31.2285L36.3697 31.2208L36.3612 31.2078L36.3566 31.201L36.3455 31.1851L36.3431 31.1817L36.3291 31.1628L36.3247 31.1571L36.3146 31.1443L36.3088 31.1372L36.2996 31.126L36.2933 31.1186L36.2841 31.108L36.2776 31.1007L36.2719 31.0944L36.2451 31.0659L36.2438 31.0646L36.2158 31.037L36.2127 31.034L36.1839 31.0074L36.1795 31.0034L36.162 30.9882L36.1408 30.9702L36.1245 30.9568L36.1039 30.9403L36.0865 30.9267L36.0664 30.9115L36.048 30.8978L36.0296 30.8844C35.9992 30.8624 35.9683 30.8412 35.9372 30.8206L35.9287 30.8149C35.9006 30.7963 35.8725 30.7782 35.8446 30.7604C35.6822 30.6602 35.5176 30.5635 35.3576 30.4595C35.2729 30.4027 35.1899 30.3433 35.1106 30.2796L35.107 30.2768L35.0997 30.2708L35.083 30.2573L35.0725 30.2485L35.066 30.2431L35.0602 30.2382L35.0504 30.23L35.0335 30.2153L35.0257 30.2086L35.0227 30.2059C35.0105 30.1952 34.9983 30.1842 34.9863 30.1733L34.9852 30.1722L34.9556 30.1444L34.9511 30.14L34.9476 30.1367L34.9402 30.1294L34.9251 30.1146L34.9161 30.1054L34.9099 30.0993L34.9041 30.0933L34.8952 30.0842L34.8806 30.0686L34.8731 30.0607L34.8701 30.0574C34.859 30.0455 34.8481 30.0334 34.8374 30.0211C34.7298 29.8978 34.6365 29.7611 34.5652 29.6137C34.5585 29.5997 34.552 29.5857 34.5457 29.5716L34.5445 29.5691L34.544 29.5679C34.5381 29.5544 34.5323 29.5409 34.5268 29.5273L34.5254 29.5241L34.5245 29.522C34.5191 29.5086 34.5138 29.4951 34.5088 29.4816L34.5077 29.4788L34.5068 29.4762L34.5037 29.468L34.4978 29.451L34.4914 29.4331L34.4893 29.4265L34.4866 29.4187L34.4812 29.4012L34.4766 29.3872L34.4745 29.3799L34.4711 29.3691L34.4661 29.3508L34.4632 29.3409L34.4614 29.334L34.4572 29.3191L34.4524 29.2997L34.4511 29.2944L34.4499 29.2896L34.4448 29.2688L34.4402 29.2476L34.4339 29.2182C34.352 28.8123 34.405 28.3811 34.4717 27.975C34.489 27.8691 34.4973 27.8259 34.5191 27.7038C34.5255 27.6731 34.5329 27.6432 34.5417 27.6131C34.6006 27.4372 34.7072 27.2876 34.829 27.1491C34.9607 26.9993 35.107 26.8631 35.2433 26.7177C35.2847 26.6718 35.2844 26.6722 35.3243 26.6255C35.4409 26.4793 35.5559 26.3022 35.5026 26.1065C35.4906 26.0623 35.4733 26.02 35.4502 25.9805C35.4217 25.9319 35.3852 25.8883 35.3437 25.8502C35.2818 25.7935 35.2094 25.749 35.1338 25.7131C35.1216 25.7073 35.1094 25.7017 35.0971 25.6964L35.0677 25.6841L35.0392 25.6728L35.0321 25.6701L35.0064 25.6607L34.996 25.6571L34.972 25.6489L34.9596 25.6449L34.9366 25.6378L34.9228 25.6337L34.9007 25.6273L34.8856 25.6232L34.8642 25.6175L34.8282 25.6086L34.7917 25.6003L34.775 25.5968L34.7538 25.5925L34.737 25.5893L34.7158 25.5853L34.699 25.5823L34.6775 25.5787L34.6611 25.576L34.639 25.5726L34.6232 25.5702L34.6001 25.5669L34.5853 25.5649L34.5099 25.5557L34.4607 25.5506L34.4444 25.5491L34.4114 25.5461L34.362 25.5423L34.3413 25.5409L34.3125 25.5391L34.2913 25.5379L34.2629 25.5365L34.2414 25.5356L34.2132 25.5346L34.1916 25.5339L34.1634 25.5332L34.1419 25.5327L34.1133 25.5324L34.0921 25.5322H34.0441L34.0164 25.5325L33.996 25.5327L33.9476 25.5338L33.9149 25.5348L33.8996 25.5353L33.8647 25.5367L33.8526 25.5372L33.8145 25.5391L33.807 25.5395L33.7643 25.542L33.7317 25.5441C33.7145 25.5453 33.6972 25.5466 33.68 25.5479L33.6614 25.5496C33.6008 25.1431 33.5534 24.7345 33.5182 24.325C33.4821 23.9055 33.4583 23.4844 33.4586 23.0633C33.4587 22.9989 33.4594 22.9345 33.4609 22.8701L33.4625 22.8039L33.4656 22.7174L33.4667 22.6917L33.4683 22.6555L33.4695 22.6311L33.4706 22.6116L33.472 22.5846L33.4743 22.5447L33.4763 22.5138L33.4807 22.4517C33.4826 22.4251 33.4847 22.3987 33.4869 22.3722C33.4924 22.3079 33.4997 22.2437 33.5079 22.1797C33.5125 22.1445 33.5181 22.1112 33.5195 22.076C33.5188 22.0557 33.5168 22.0367 33.5132 22.0167C33.4701 21.846 33.3053 21.7386 33.1662 21.6497C33.1369 21.6309 33.1074 21.6125 33.0779 21.5939C33.0194 21.5569 32.9612 21.5201 32.9038 21.4813C32.8632 21.4524 32.8635 21.4527 32.824 21.4226C32.8154 21.4154 32.8067 21.4082 32.7981 21.4007L32.7951 21.3982L32.7901 21.3937L32.7782 21.3834L32.7719 21.3775L32.7667 21.3729L32.7582 21.3648L32.756 21.3628L32.7551 21.362C32.7486 21.3557 32.7422 21.3494 32.7359 21.3428L32.7345 21.3415L32.7329 21.3397C32.7244 21.3308 32.7162 21.3218 32.7083 21.3124L32.7043 21.3077L32.7035 21.3067L32.7012 21.304L32.6972 21.2988L32.695 21.2959L32.6934 21.2938L32.6897 21.289L32.6869 21.2851L32.686 21.2839L32.6841 21.2812C32.664 21.253 32.6475 21.2225 32.6363 21.1888C32.6094 21.1082 32.624 21.0227 32.646 20.9426C32.6995 20.7478 32.8141 20.5714 32.9304 20.4092C32.9817 20.3377 33.0353 20.2679 33.0898 20.1989C33.1478 20.1253 33.2022 20.0589 33.2626 19.9847C33.3605 19.8644 33.4586 19.7443 33.5541 19.6221C33.6091 19.5499 33.6628 19.4771 33.7152 19.403C33.836 19.2236 33.9536 19.0341 34.009 18.8227C34.0674 18.5993 34.0968 18.3696 34.1055 18.139L34.1077 18.063L34.108 18.0382L34.1085 17.9867L34.1084 17.9574L34.108 17.9102L34.1074 17.8795L34.1061 17.833L34.105 17.8024L34.1028 17.7547L34.1013 17.7258L34.0978 17.6724L34.0962 17.6494L34.09 17.5742L34.0879 17.5534L34.0823 17.4986L34.0787 17.4676L34.0733 17.4231L34.0688 17.3891L34.063 17.3478L34.0577 17.3122L34.0515 17.273L34.0455 17.2362L34.0388 17.1988L34.0319 17.1608L34.0254 17.1272C34.0183 17.0908 34.0107 17.0546 34.0027 17.0185C33.9904 16.9633 33.977 16.9083 33.9626 16.8536C33.9048 16.6347 33.8326 16.4153 33.7039 16.2269C33.5503 16.0018 33.3347 15.8263 33.101 15.6896C33.0325 15.6495 32.9621 15.6127 32.8905 15.5785C32.8511 15.5597 32.8117 15.5408 32.7703 15.5269C32.7097 15.5065 32.6469 15.4949 32.5838 15.485C32.4234 15.4642 32.2618 15.456 32.1011 15.4381C31.9909 15.4223 31.8511 15.408 31.7728 15.3181C31.7311 15.2701 31.708 15.2097 31.6874 15.1505C31.6572 15.0523 31.6329 14.9526 31.6021 14.8546C31.5777 14.7863 31.5491 14.7159 31.495 14.6654L31.4838 14.6557L31.48 14.6527L31.4721 14.6469L31.4674 14.6437L31.46 14.6389L31.4548 14.6359L31.4474 14.6318L31.442 14.629L31.4343 14.6254L31.4289 14.6229L31.4207 14.6196L31.4155 14.6175L31.4064 14.6143L31.4019 14.6127L31.3882 14.6086L31.3847 14.6076L31.3744 14.6049L31.353 14.6002L31.3356 14.597L31.3239 14.5949L31.3064 14.5923L31.2943 14.5906L31.2669 14.587C31.1555 14.5727 31.0428 14.5684 30.9306 14.5663C30.5726 14.5594 30.2141 14.5768 29.8566 14.6015L29.687 14.6137L29.4994 14.628L29.4309 14.6338C29.41 14.5989 29.388 14.565 29.3655 14.5311C29.3223 14.4694 29.2774 14.4098 29.2309 14.3506C29.0573 14.1396 28.8596 13.9494 28.634 13.7943C28.5373 13.7278 28.4357 13.6633 28.3278 13.6163L28.3023 13.6057L28.2943 13.6025L28.2763 13.5955L28.2676 13.5923L28.2488 13.5856L28.2419 13.5832L28.2166 13.5748L28.2112 13.5731C28.1241 13.5457 28.0341 13.5273 27.9442 13.5137C27.7597 13.4857 27.5724 13.478 27.386 13.4788C27.1068 13.4799 26.8281 13.501 26.5504 13.5304L26.5142 13.5343L26.4013 13.5469L26.2508 13.5648C26.111 13.5819 25.9714 13.6009 25.8313 13.6165C25.7736 13.6229 25.7163 13.6274 25.659 13.6358C25.6222 13.6426 25.5862 13.6508 25.55 13.6604C25.3053 13.7345 25.0947 13.8792 24.8974 14.0386C24.693 14.2037 24.5012 14.3837 24.2999 14.5526C24.2327 14.6073 24.2329 14.6071 24.1646 14.6604C23.988 14.7919 23.8065 14.9081 23.5967 14.978L23.5593 14.9891L23.5229 14.9986L23.5226 15.0074C23.5171 15.1507 23.5026 15.2985 23.4712 15.4418C23.4642 15.5027 23.457 15.5636 23.4497 15.6245C23.4373 15.7143 23.4255 15.804 23.4096 15.8933C23.399 15.9532 23.387 16.0128 23.3724 16.0719C23.3594 16.1248 23.3444 16.1772 23.326 16.2285C23.3001 16.3005 23.2665 16.3727 23.2205 16.4346L23.2127 16.4451L23.2063 16.4529L23.205 16.4546L23.203 16.4569L23.1956 16.466L23.1906 16.4714L23.1885 16.4738L23.1846 16.4779L23.1773 16.4859L23.1735 16.4896L23.1711 16.4921L23.1653 16.4976L23.158 16.5048L23.1535 16.5087L23.1519 16.5101C23.1462 16.5152 23.1404 16.5201 23.1343 16.5248L23.1333 16.5257L23.132 16.5266C23.1261 16.5313 23.12 16.5358 23.1137 16.5401L23.1044 16.5463L23.1033 16.547L23.1022 16.5478L23.0967 16.5512L23.0928 16.5536L23.0913 16.5545L23.0844 16.5584L23.0808 16.5605L23.0685 16.567C23.0377 16.5826 23.0049 16.594 22.9712 16.6015C22.9488 16.6066 22.9272 16.61 22.9062 16.6109L22.8937 16.6111C22.8521 16.6108 22.813 16.5996 22.7754 16.5702C22.7341 16.5379 22.7016 16.4939 22.674 16.4499C22.6611 16.4295 22.6488 16.4088 22.6367 16.388C22.5365 16.4282 22.4329 16.4597 22.3278 16.4842C22.077 16.5426 21.8199 16.5595 21.5632 16.5662C21.3822 16.569 21.2014 16.5666 21.0204 16.565C20.8651 16.5636 20.7097 16.5673 20.5544 16.5628C20.4307 16.5572 20.308 16.5455 20.1849 16.5311C20.0944 16.5188 20.0041 16.505 19.9139 16.4906C19.9009 16.4917 19.888 16.4927 19.875 16.4936C19.8338 16.4965 19.7924 16.4987 19.751 16.4996L19.7097 16.5002C19.5445 16.5006 19.3809 16.4796 19.2282 16.4094C19.2059 16.3992 19.1841 16.3882 19.1627 16.3766C19.1091 16.3708 19.0555 16.3664 19.0017 16.3646C18.8764 16.3604 18.7509 16.37 18.6256 16.3707C18.5705 16.3696 18.5164 16.3668 18.4616 16.3616C18.3942 16.3525 18.3273 16.339 18.2654 16.3099C18.2101 16.2839 18.161 16.2458 18.1152 16.2059C18.0504 16.1494 17.991 16.0862 17.9348 16.0213C17.8094 15.8766 17.6916 15.7256 17.5643 15.5826C17.5266 15.5417 17.4883 15.5019 17.4487 15.4629C17.3265 15.3496 17.1907 15.2438 17.0194 15.2298L16.9977 15.2292L16.8851 15.1952C16.8566 15.1978 16.8281 15.2002 16.7995 15.2024L16.7875 15.2034L16.7385 15.2068C16.7055 15.2082 16.6725 15.2094 16.6395 15.2097H16.6065C16.5625 15.2093 16.5185 15.2071 16.4747 15.2017C16.4041 15.193 16.3338 15.1766 16.2691 15.1464C16.1747 15.1021 16.1057 15.03 16.0535 14.9447L15.7214 14.8447C15.6633 14.7082 15.5952 14.5762 15.5368 14.4399C15.5146 14.3851 15.4935 14.3301 15.477 14.2733C15.4446 14.1615 15.426 14.0444 15.409 13.9294C15.3776 13.718 15.3598 13.4891 15.4132 13.2782ZM17.6673 33.6289L18.5405 35.6867C18.5388 35.6435 18.5374 35.6003 18.5362 35.5571C18.5332 35.45 18.5294 35.3432 18.5241 35.2362C18.5182 35.1504 18.5114 35.0653 18.5011 34.98C18.4794 34.8237 18.4478 34.6686 18.386 34.5227C18.3088 34.3402 18.186 34.1749 18.0627 34.0214C17.9497 33.8806 17.8255 33.7344 17.6739 33.6332L17.6673 33.6289ZM17.0859 18.6668C18.3095 19.1961 19.2934 20.1398 19.5493 21.9111C19.779 21.9237 19.9788 22.003 20.1655 22.1481C20.0502 22.3862 19.9572 22.6346 19.8879 22.8904H19.1132C18.9459 23.6239 18.9459 24.3857 19.1132 25.1192H19.8879C19.9832 25.4707 20.1231 25.8085 20.3043 26.1244L19.7565 26.6722C20.1569 27.3092 20.6956 27.8479 21.3326 28.2483L21.8804 27.7005C22.1963 27.8817 22.5341 28.0216 22.8856 28.1168V28.8916C23.6191 29.0588 24.3809 29.0588 25.1144 28.8916V28.1168C25.4659 28.0216 25.8037 27.8817 26.1196 27.7005L27.3526 28.9335C26.3971 29.5851 25.2427 29.9662 24 29.9662C20.7098 29.9662 18.0386 27.295 18.0386 24.0048C18.0386 23.5493 18.0793 23.0751 18.1011 22.5755C18.1202 22.1387 17.976 21.4017 17.5779 21.0034C16.8799 20.3048 16.1724 19.8416 16.1724 19.8416L17.0859 18.6668ZM30.9141 29.3428C29.6905 28.8135 28.7066 27.8698 28.4507 26.0985C28.221 26.0858 28.0212 26.0066 27.8345 25.8615C27.9498 25.6234 28.0428 25.375 28.1121 25.1192H28.8868C29.0541 24.3857 29.0541 23.6239 28.8868 22.8904H28.1121C28.0168 22.5389 27.8769 22.2011 27.6957 21.8852L28.2435 21.3374C27.8431 20.7004 27.3044 20.1617 26.6674 19.7613L26.1196 20.3091C25.8037 20.1279 25.4659 19.988 25.1144 19.8927V19.118C24.3809 18.9507 23.6191 18.9507 22.8856 19.118V19.8927C22.5341 19.988 22.1963 20.1279 21.8804 20.3091L20.6474 19.0761C21.6029 18.4245 22.7573 18.0434 24 18.0434C27.2902 18.0434 29.9614 20.7146 29.9614 24.0048C29.9614 24.4603 29.9207 24.9345 29.8989 25.4341C29.8798 25.8709 30.024 26.6079 30.4221 27.0062C31.1201 27.7048 31.8276 28.168 31.8276 28.168L30.9141 29.3428ZM35.6434 27.0229C35.5148 27.1668 35.371 27.2997 35.2425 27.4371C35.2065 27.4771 35.1715 27.5175 35.1377 27.5594C35.0901 27.6226 35.0442 27.687 35.0189 27.7626C34.9993 27.8298 34.9904 27.9081 34.9792 27.9719C34.9684 28.0335 34.9618 28.0766 34.9519 28.1382C34.941 28.2106 34.9301 28.2846 34.9207 28.3593L35.6434 27.0229ZM24.8122 19.9216C24.276 19.8149 23.724 19.8149 23.1878 19.9216L23.2077 20.5559C22.8231 20.6443 22.456 20.7964 22.1215 21.0058L21.6871 20.5432C21.2325 20.847 20.8422 21.2373 20.5384 21.6919L21.0011 22.1263C20.7916 22.4607 20.6395 22.8279 20.5511 23.2125L19.9168 23.1926C19.8102 23.7288 19.8102 24.2808 19.9168 24.817L20.5511 24.7971C20.6395 25.1817 20.7916 25.5488 21.0011 25.8833L20.5384 26.3177C20.8422 26.7723 21.2325 27.1626 21.6871 27.4664L22.1215 27.0037C22.456 27.2132 22.8231 27.3653 23.2077 27.4537L23.1878 28.088C23.724 28.1946 24.276 28.1946 24.8122 28.088L24.7923 27.4537C25.1769 27.3653 25.544 27.2132 25.8785 27.0037L26.3129 27.4664C26.7675 27.1626 27.1578 26.7723 27.4616 26.3177L26.9989 25.8833C27.2084 25.5488 27.3605 25.1817 27.4489 24.7971L28.0832 24.817C28.1898 24.2808 28.1898 23.7288 28.0832 23.1926L27.4489 23.2125C27.3605 22.8279 27.2084 22.4607 26.9989 22.1263L27.4616 21.6919C27.1578 21.2373 26.7675 20.847 26.3129 20.5432L25.8785 21.0058C25.544 20.7964 25.1769 20.6443 24.7923 20.5559L24.8122 19.9216ZM23.8196 21.7359V21.3598H24.1804V21.7346C24.5959 21.6567 24.7831 21.3363 24.7778 21.3628C24.7096 21.6846 24.5512 22.033 24.1804 22.1198V22.892C24.9224 22.8078 25.2555 22.2449 25.2465 22.289C25.1308 22.8269 24.8529 23.4119 24.1804 23.5037V24.2057C25.0926 24.1248 25.5017 23.4775 25.4908 23.5276C25.3504 24.1382 25.0104 24.8031 24.1804 24.891V25.7393C25.3463 25.6548 25.8687 24.8027 25.8549 24.8676C25.6683 25.7042 25.1974 26.6203 24 26.6248C22.7999 26.6285 22.3296 25.7059 22.1516 24.8639C22.1402 24.8032 22.6545 25.6609 23.8196 25.7402V24.8926C22.9838 24.8119 22.6433 24.1407 22.5091 23.5247C22.5001 23.4778 22.9045 24.132 23.8196 24.207V23.5055C23.1422 23.4197 22.8641 22.8291 22.7535 22.2864C22.746 22.2451 23.0753 22.8141 23.8196 22.8933V22.1217C23.4459 22.0379 23.2874 21.686 23.2222 21.3612C23.2178 21.3363 23.4029 21.6603 23.8196 21.7359ZM13.8679 24.6751L14.0021 24.9914C13.9995 24.949 13.995 24.9067 13.9871 24.8648C13.9794 24.824 13.9692 24.7808 13.9462 24.7456C13.9259 24.718 13.8959 24.6962 13.8679 24.6751ZM18.5064 15.8629C18.5215 15.8652 18.5366 15.8665 18.5521 15.868C18.6858 15.875 18.8196 15.8651 18.9534 15.8638C19.0192 15.8648 19.0187 15.8648 19.0842 15.8682C19.4434 15.9001 19.796 15.9684 20.1522 16.0221C20.2469 16.035 20.3413 16.046 20.4365 16.055C20.5125 16.0606 20.5883 16.0641 20.6645 16.065C20.9606 16.0636 21.2567 16.0709 21.5528 16.0663C21.7545 16.061 21.9566 16.0499 22.1549 16.0101C22.2778 15.9854 22.399 15.9497 22.513 15.8971C22.6324 15.842 22.7593 15.7679 22.842 15.6633C22.9058 15.5826 22.9445 15.4844 22.9704 15.3856C23.0114 15.2293 23.0232 15.0657 23.025 14.9047C23.026 14.8167 23.0235 14.7287 23.0189 14.6408C23.0142 14.5483 23.0065 14.456 22.9985 14.3637C22.9716 14.0843 22.936 13.8058 22.9118 13.5262C22.896 13.3065 22.8936 13.0863 22.8815 12.8664C22.8763 12.7926 22.8698 12.7194 22.8615 12.6459C22.8469 12.5425 22.8298 12.4397 22.7961 12.3406C22.7853 12.3089 22.7752 12.2668 22.7528 12.2409C22.7365 12.2245 22.7175 12.2117 22.6983 12.199C22.6756 12.1852 22.6527 12.1723 22.6293 12.1598C22.5126 12.1017 22.3934 12.0489 22.2774 11.9893C22.1295 11.9094 21.9889 11.8178 21.8726 11.6949C21.7664 11.5828 21.6883 11.4485 21.614 11.3141C21.5294 11.1612 21.4572 11.0016 21.4023 10.8355C21.3523 10.6843 21.3182 10.5296 21.2883 10.3735L21.2844 10.3401C21.2669 10.3417 21.2493 10.3433 21.2317 10.3449L21.1982 10.348L21.1892 10.3488L21.1658 10.351L21.1566 10.3517L21.1373 10.3533L21.1278 10.3541L21.0881 10.3569C20.9845 10.3604 20.8808 10.3586 20.7771 10.3593C20.5499 10.3609 20.4863 10.3626 20.259 10.3665L20.1739 10.3686L20.1608 10.369L20.1516 10.3692L20.0037 10.3735L19.9566 10.375L19.9368 10.3756L19.9289 10.3759C19.8962 10.3769 19.8635 10.378 19.8308 10.3791L19.8294 10.3792L19.821 10.3795L19.7485 10.382L19.7316 10.3827L19.7221 10.383L19.6294 10.3865L19.6148 10.387L19.6023 10.3875L19.5784 10.3884L19.5074 10.3912L19.505 10.3913C19.47 10.3927 19.4351 10.3941 19.4001 10.3956C19.2328 10.4024 19.0654 10.4097 18.898 10.4169C18.5934 10.4252 18.2887 10.4133 17.9841 10.4207C17.8615 10.425 17.7374 10.4308 17.6146 10.4455C17.5889 10.4485 17.5633 10.452 17.5377 10.4559L17.5359 10.4561L17.5343 10.4564L17.5237 10.4581L17.5163 10.4592L17.5152 10.4594L17.5131 10.4598L17.5046 10.4612L17.4968 10.4625L17.4947 10.4629L17.4919 10.4634L17.4847 10.4647L17.4773 10.466L17.4742 10.4666L17.4708 10.4672L17.4645 10.4684L17.4578 10.4697L17.4538 10.4705L17.4497 10.4713L17.4384 10.4736L17.4334 10.4747L17.4287 10.4756L17.4241 10.4766L17.419 10.4777L17.413 10.4791L17.4077 10.4802L17.4039 10.4811L17.3996 10.4821L17.3926 10.4837L17.3868 10.4851L17.3838 10.4858L17.3804 10.4866L17.3722 10.4887L17.366 10.4902L17.3637 10.4908L17.3611 10.4914L17.3516 10.4939L17.3437 10.496L17.342 10.4965L17.3304 10.4997L17.3245 10.5013C17.3179 10.5032 17.3105 10.5053 17.3038 10.5073C17.238 10.527 17.1726 10.5516 17.1136 10.5873C17.0941 10.5991 17.0675 10.6124 17.0546 10.6324C17.044 10.6508 17.0404 10.673 17.0368 10.6937C17.0247 10.7779 17.0299 10.8634 17.0352 10.948L17.0368 10.9674C17.0418 11.0304 17.0476 11.0934 17.0532 11.1564C17.0598 11.23 17.0662 11.3035 17.071 11.3773C17.072 11.3982 17.0728 11.4192 17.0733 11.4402C17.0801 11.6778 17.0614 11.9157 16.9668 12.137C16.9227 12.2402 16.8651 12.3378 16.7994 12.4287C16.7244 12.5324 16.6373 12.6252 16.5456 12.7141L16.5327 12.726L16.5283 12.73L16.52 12.7376L16.4971 12.7583L16.4942 12.7609L16.4672 12.7849L16.4408 12.8079L16.4268 12.82L16.4147 12.8304L16.398 12.8448L16.3411 12.8931C16.2624 12.9598 16.1836 13.0262 16.1081 13.0966C16.0332 13.1695 15.9567 13.2495 15.9155 13.3474C15.8652 13.4673 15.8766 13.617 15.8892 13.7418C15.8969 13.819 15.909 13.8958 15.923 13.9721C15.9345 14.0352 15.9453 14.0989 15.9653 14.1599C15.9912 14.2388 16.0274 14.3139 16.0625 14.389L16.0826 14.4313L17.0781 14.7312L17.0467 14.7303C17.0948 14.7343 17.0944 14.7342 17.1422 14.7407C17.188 14.7493 17.1877 14.7492 17.2329 14.7601C17.3026 14.7804 17.3696 14.8049 17.4345 14.8376C17.6489 14.946 17.8191 15.112 17.976 15.2918L18.0007 15.3203L18.0251 15.3489L18.049 15.3773L18.0721 15.4049L18.0919 15.4288C18.1182 15.4606 18.1443 15.4925 18.1705 15.5243L18.2125 15.5752L18.2495 15.6196L18.2723 15.6465L18.2969 15.6753L18.3198 15.7017L18.3412 15.7258C18.3742 15.7615 18.4076 15.7961 18.4436 15.8287C18.4542 15.8376 18.4692 15.8545 18.4834 15.8585C18.4911 15.8603 18.4987 15.8617 18.5064 15.8629ZM22.8382 0.580534C23.2231 0.562034 23.6105 0.552734 24 0.552734C24.4089 0.552734 24.8162 0.563034 25.2202 0.583334L22.8382 0.580534Z" fill="white"/>
</svg>
