<svg width="48" height="49" viewBox="0 0 48 49" fill="none" xmlns="http://www.w3.org/2000/svg">
<path fill-rule="evenodd" clip-rule="evenodd" d="M42.917 19.1442C44.1329 21.7846 44.811 24.7226 44.811 27.8176C44.811 30.289 44.3786 32.6603 43.5854 34.86C43.265 34.8086 42.9363 34.7819 42.6015 34.7819C39.1955 34.7819 36.4302 37.5451 36.4302 40.9486C36.4302 42.0188 36.7036 43.0256 37.1845 43.9032C33.9799 46.5298 29.9776 48.2197 25.5981 48.5527V43.0561C33.3104 42.2564 39.3322 35.7342 39.3322 27.8176C39.3322 25.7196 38.9092 23.7194 38.1438 21.898L42.917 19.1442ZM5.01765 19.2871L9.79567 22.0437C9.06854 23.826 8.66774 25.7754 8.66774 27.8176C8.66774 35.6267 14.5273 42.0791 22.0887 43.0202V48.5265C17.8318 48.1386 13.9436 46.4671 10.8155 43.9032C11.2963 43.0256 11.5697 42.0188 11.5697 40.9486C11.5697 37.5451 8.80444 34.7819 5.39843 34.7819C5.06358 34.7819 4.73494 34.8086 4.4145 34.86C3.62132 32.6603 3.189 30.289 3.189 27.8176C3.189 24.7784 3.84278 21.8906 5.01765 19.2871ZM5.39843 36.3035C7.96402 36.3035 10.047 38.3849 10.047 40.9486C10.047 43.5122 7.96402 45.5936 5.39843 45.5936C2.83294 45.5936 0.75 43.5122 0.75 40.9486C0.75 38.3849 2.83294 36.3035 5.39843 36.3035ZM42.6015 36.3035C45.1671 36.3035 47.25 38.3849 47.25 40.9486C47.25 43.5122 45.1671 45.5936 42.6015 45.5936C40.0359 45.5936 37.953 43.5122 37.953 40.9486C37.953 38.3849 40.0359 36.3035 42.6015 36.3035ZM17.5532 35.4705C17.9656 36.2577 18.4452 37.01 18.988 37.7139C19.617 38.5297 20.3311 39.2805 21.12 39.9436C21.5045 40.2667 21.9068 40.5688 22.3247 40.8471C19.3986 40.4745 16.7715 39.139 14.7722 37.1689C15.6171 36.506 16.5406 35.9431 17.5136 35.4887L17.5532 35.4705ZM30.471 35.4817L30.4864 35.4887C31.4594 35.9431 32.3828 36.506 33.2277 37.1689C31.237 39.1306 28.6238 40.4632 25.7126 40.8423C26.1279 40.5652 26.5278 40.2648 26.91 39.9436C27.7877 39.2059 28.5727 38.3596 29.2513 37.436C29.7065 36.8166 30.1139 36.1622 30.471 35.4817ZM24.4037 34.0781C24.9782 34.0944 25.5509 34.137 26.1208 34.2141C27.3693 34.383 28.5974 34.7044 29.7657 35.1757C29.3556 35.95 28.8767 36.6883 28.3334 37.3761C27.7298 38.1403 27.0465 38.8421 26.293 39.4597C25.7034 39.9429 25.0708 40.3741 24.4037 40.7428V34.0781ZM23.5962 34.0781V40.726C22.9402 40.3611 22.3177 39.9356 21.7371 39.4597C20.9836 38.8421 20.3002 38.1403 19.6966 37.3761C19.151 36.6853 18.6704 35.9437 18.259 35.1657C19.4199 34.6999 20.6394 34.3818 21.8791 34.2141C22.449 34.137 23.0217 34.0944 23.5962 34.0781ZM37.1389 28.2211C37.0412 31.4549 35.7712 34.3964 33.7396 36.6353C32.8353 35.9183 31.844 35.3106 30.7982 34.8222C31.7611 32.7571 32.2692 30.4945 32.323 28.2211H37.1389ZM10.861 28.2211H15.7071C15.7607 30.4901 16.2671 32.7483 17.2271 34.8105L17.2017 34.8222C16.156 35.3106 15.1646 35.9183 14.2603 36.6353C12.2288 34.3964 10.9588 31.4549 10.861 28.2211ZM31.5564 28.2211C31.5028 30.3894 31.0158 32.5469 30.0949 34.515C28.8539 34.0091 27.5479 33.6647 26.2197 33.4849C25.6169 33.4034 25.0113 33.3587 24.4037 33.3421V28.2211H31.5564ZM23.5962 28.2211V33.3421C22.9886 33.3587 22.383 33.4034 21.7803 33.4849C20.4611 33.6635 19.1638 34.0044 17.9304 34.5048C17.0126 32.5394 16.5271 30.3857 16.4737 28.2211H23.5962ZM10.861 27.4141C10.9588 24.1802 12.2289 21.2387 14.2605 18.9997C15.1722 19.7222 16.1717 20.3329 17.2274 20.824C16.2678 22.8861 15.7609 25.1445 15.7072 27.4141H10.861ZM16.4737 27.4141C16.5274 25.249 17.0132 23.0952 17.9306 21.13C18.3867 21.3153 18.8517 21.4788 19.323 21.62C20.7088 22.0353 22.1501 22.2588 23.5962 22.2938V27.4141H16.4737ZM32.3231 27.4141C32.2695 25.1404 31.761 22.8777 30.7975 20.8123C31.8439 20.3233 32.8349 19.7166 33.7394 18.9997C35.7711 21.2387 37.0412 24.1802 37.1389 27.4141H32.3231ZM24.4037 22.2938C25.8499 22.2588 27.2912 22.0353 28.677 21.62C29.1571 21.4762 29.6305 21.3092 30.0947 21.1197C31.0152 23.0876 31.5026 25.2452 31.5563 27.4141H24.4037V22.2938ZM23.5962 14.9089V21.5578C22.2216 21.523 20.8518 21.31 19.5345 20.9152C19.103 20.786 18.6772 20.6371 18.2591 20.4691C18.2811 20.4273 18.3034 20.3857 18.326 20.3441C18.6961 19.6599 19.1203 19.0047 19.5953 18.3886C20.2561 17.5317 21.0159 16.7502 21.8617 16.0744C22.4064 15.639 22.9868 15.2478 23.5962 14.9089ZM24.4037 14.8923C25.0242 15.235 25.6147 15.6318 26.1684 16.0744C27.0141 16.7502 27.7739 17.5317 28.4347 18.3886C28.9099 19.0047 29.334 19.6599 29.7042 20.3441C29.7248 20.3823 29.7453 20.4206 29.7656 20.4591C29.3395 20.6312 28.9054 20.7834 28.4654 20.9152C27.1482 21.31 25.7783 21.523 24.4037 21.5578V14.8923ZM22.3242 14.7882C21.9534 15.035 21.5952 15.3005 21.2508 15.5828C20.3651 16.3088 19.571 17.1447 18.8826 18.0592C18.3892 18.7147 17.95 19.4106 17.5678 20.1364L17.5534 20.164C16.5654 19.7059 15.6287 19.1376 14.7725 18.4661C16.7716 16.4962 19.3984 15.1608 22.3242 14.7882ZM25.7134 14.7931C28.6242 15.1723 31.2369 16.5047 33.2274 18.4661C32.3782 19.1321 31.4499 19.6966 30.4707 20.1527C30.0597 19.3697 29.5823 18.6214 29.0421 17.921C28.413 17.1052 27.699 16.3544 26.91 15.6914C26.528 15.3703 26.1285 15.07 25.7134 14.7931ZM6.72571 16.2233C9.45542 12.172 13.5743 9.13153 18.3976 7.78553C19.3773 9.89783 21.5186 11.3644 24 11.3644C26.4814 11.3644 28.6227 9.89783 29.6024 7.78553C34.3741 9.11713 38.4563 12.1071 41.1861 16.0935L36.4229 18.8415C33.6362 14.9983 29.1081 12.4967 24 12.4967C18.8354 12.4967 14.2639 15.0538 11.4853 18.9692L6.72571 16.2233ZM24 0.552734C26.5655 0.552734 28.6485 2.63413 28.6485 5.19773C28.6485 7.76143 26.5655 9.84283 24 9.84283C21.4345 9.84283 19.3515 7.76143 19.3515 5.19773C19.3515 2.63413 21.4345 0.552734 24 0.552734Z" fill="white"/>
</svg>
