<svg width="48" height="49" viewBox="0 0 48 49" fill="none" xmlns="http://www.w3.org/2000/svg">
<path fill-rule="evenodd" clip-rule="evenodd" d="M33.9411 48.5527H14.0589L0 34.4938V14.6116L14.0589 0.552734H33.9411L48 14.6116V34.4938L33.9411 48.5527ZM31.0416 41.5527L41 31.5943V17.5111L31.0416 7.55273H16.9584L7 17.5111V31.5943L16.9584 41.5527H31.0416ZM16.893 24.5527L28.6352 36.3567L23.9392 41.0527L12.1971 29.3105L12.196 29.3116L7.5 24.5527L13.3119 18.8038H22.7038L16.893 24.5527ZM34.6881 30.3016H25.2962L31.107 24.5527L19.3648 12.7487L24.0608 8.05273L35.8029 19.7949L35.804 19.7938L40.5 24.5527L34.6881 30.3016Z" fill="white"/>
</svg>
