<svg width="48" height="49" viewBox="0 0 48 49" fill="none" xmlns="http://www.w3.org/2000/svg">
<path fill-rule="evenodd" clip-rule="evenodd" d="M7.64991 35.5161C4.52029 31.9046 2.59442 27.2466 2.50337 22.145C2.29492 10.4705 11.7753 0.766841 23.6205 0.556089L24.0752 0.552734L24.3795 0.556089C36.2242 0.766841 45.7051 10.4705 45.4966 22.145C45.4056 27.2466 43.4797 31.9046 40.3501 35.5156C40.8858 35.8425 41.3497 36.3519 41.7048 37.0568C42.1082 37.8516 42.0862 38.7949 41.654 39.5586C40.9309 40.8571 40.1172 42.5617 39.4137 43.9954C38.9312 44.978 38.4927 45.8434 38.0571 46.4351C37.5717 47.0936 37.0312 47.497 36.5007 47.6862C35.1753 48.2501 33.8546 48.5349 32.5392 48.5526C32.4525 48.5536 32.3662 48.5483 32.2809 48.5359C30.3397 48.2611 29.2323 47.4162 28.757 46.2592C27.2049 45.647 25.6245 45.3149 24.0043 45.3135C24.0043 45.3135 23.9564 45.3135 23.9578 45.3135C22.3477 45.3206 20.7813 45.6523 19.2431 46.2587C18.7677 47.4162 17.6603 48.2611 15.7191 48.5359C15.6333 48.5483 15.547 48.5536 15.4608 48.5526C14.1454 48.5349 12.8247 48.2501 11.4993 47.6862C10.9688 47.497 10.4278 47.0936 9.94286 46.4351C9.5068 45.8434 9.06834 44.978 8.58627 43.9954C7.88281 42.5617 7.06913 40.8571 6.35178 39.5691C5.91284 38.7935 5.89225 37.8501 6.29238 37.0621C6.6489 36.3543 7.11369 35.8435 7.64991 35.5161ZM8.89056 35.8124C5.45858 32.2291 3.31656 27.4282 3.22216 22.1321C3.02042 10.85 12.1865 1.47604 23.6334 1.27293L24.0805 1.26958L24.3666 1.27293C35.8135 1.47604 44.9796 10.85 44.7778 22.1321C44.6834 27.4282 42.541 32.2291 39.109 35.8129C39.914 35.9362 40.5978 36.4566 41.0636 37.3809C41.3583 37.961 41.343 38.6497 41.0253 39.2107C40.2969 40.5187 39.4765 42.2358 38.7678 43.6805C38.3078 44.6176 37.8937 45.4458 37.4778 46.0107C37.0887 46.5388 36.6646 46.8719 36.2391 47.0181C34.9975 47.549 33.7612 47.8195 32.5297 47.8358C32.4803 47.8363 32.4309 47.8334 32.382 47.8262C30.622 47.5772 29.6497 46.8179 29.3267 45.7163C27.5906 44.9909 25.8214 44.598 24.0024 44.5966H23.9545C22.1489 44.6047 20.3946 44.9971 18.6728 45.7163C18.3498 46.8179 17.378 47.5772 15.618 47.8262C15.5691 47.8334 15.5197 47.8363 15.4703 47.8358C14.2383 47.8195 13.002 47.549 11.7604 47.0181C11.3354 46.8719 10.9113 46.5388 10.5222 46.0107C10.1063 45.4458 9.69224 44.6176 9.23174 43.68C8.52301 42.2358 7.70264 40.5187 6.97762 39.2165C6.65704 38.6501 6.64171 37.9615 6.93498 37.3842C7.40171 36.4571 8.086 35.9362 8.89056 35.8124Z" fill="#E95B00"/>
<path fill-rule="evenodd" clip-rule="evenodd" d="M23.9504 43.642C21.853 43.6516 19.8203 44.1419 17.8273 45.0422C17.7391 46.0587 16.9581 46.6723 15.4831 46.8817C14.3599 46.8664 13.2328 46.6145 12.1005 46.1251C11.3918 45.9115 10.8105 44.724 10.0927 43.2616C9.37675 41.8026 8.54773 40.0688 7.81217 38.7479C7.64924 38.4597 7.64109 38.1094 7.79108 37.8145C8.22954 36.9438 8.94882 36.5964 9.78741 36.8081C10.0045 36.8626 10.188 37.0074 10.291 37.2057C10.4142 37.4432 10.5728 37.7491 10.5728 37.7491C11.4698 38.043 12.3846 38.28 13.3377 38.3952L13.4556 38.2972C13.4298 38.2824 13.4053 38.2647 13.3809 38.2499C7.9569 34.8425 4.3016 28.907 4.18037 22.1166C3.98773 11.3577 12.7345 2.42393 23.65 2.2299L24.087 2.22656C24.1742 2.22704 24.2619 2.22847 24.3491 2.2299C35.2652 2.42393 44.0119 11.3577 43.8192 22.1166C43.698 28.907 40.0427 34.8425 34.6187 38.2499C34.5943 38.2647 34.5699 38.2824 34.544 38.2972L34.6619 38.3952C35.615 38.28 36.5298 38.043 37.4268 37.7491C37.4268 37.7491 37.5854 37.4432 37.7086 37.2057C37.8116 37.0074 37.9951 36.8626 38.2122 36.8081C39.0508 36.5964 39.7701 36.9438 40.2085 37.8145C40.3585 38.1094 40.3504 38.4597 40.1874 38.7479C39.4519 40.0688 38.6229 41.8026 37.9069 43.2616C37.1891 44.724 36.6079 45.9115 35.8992 46.1251C34.7668 46.6145 33.6397 46.8664 32.5165 46.8817C31.0416 46.6723 30.2605 46.0587 30.1723 45.0422C28.1635 44.1347 26.1145 43.6439 23.9998 43.642H23.9504ZM10.8618 38.5194C10.8618 38.5194 11.387 39.9636 11.6692 40.6786C12.0348 41.6028 13.0536 44.0654 13.0536 44.0654C13.2922 44.6485 13.7772 45.0891 12.5279 45.7443C12.5432 45.7882 12.5581 45.8312 12.5744 45.8891C13.3401 46.139 14.0321 46.3751 14.7499 46.3622C14.8362 46.3168 14.9239 46.2857 14.9972 46.2551L11.5748 39.2176C11.2149 38.4774 11.1181 38.4382 10.8618 38.5194ZM37.1378 38.5194C37.1378 38.5194 36.6127 39.9636 36.3304 40.6786C35.9648 41.6028 34.946 44.0654 34.946 44.0654C34.7074 44.6485 34.2224 45.0891 35.4717 45.7443C35.4564 45.7882 35.4415 45.8312 35.4252 45.8891C34.6595 46.139 33.9675 46.3751 33.2497 46.3622C33.1634 46.3168 33.0757 46.2857 33.0024 46.2551L36.4248 39.2176C36.7847 38.4774 36.8815 38.4382 37.1378 38.5194ZM32.4887 37.7276C30.0841 36.4263 27.0508 35.913 23.9998 35.9985L23.8963 35.9961C19.5251 35.8924 15.2042 37.0231 12.7321 39.946C12.6851 40.3292 14.932 44.594 15.4026 45.2119C15.6111 45.4131 15.6849 45.4408 15.8617 45.4666C17.9342 43.7137 20.9608 42.9715 23.9998 43.0136L24.0712 43.0126C27.0863 42.9835 30.0813 43.7271 32.138 45.4666C32.3148 45.4408 32.3886 45.4131 32.597 45.2119C33.0676 44.594 35.3145 40.3292 35.2675 39.946C34.5162 39.0571 33.5938 38.3345 32.551 37.7615C32.5343 37.7859 32.4997 37.8236 32.447 37.8738C32.3095 38.0033 32.1576 38.1237 31.9913 38.2327C31.8236 38.3436 31.653 38.4315 31.4786 38.4994L31.0449 38.6776C30.8988 38.7216 30.7497 38.7665 30.6002 38.811C30.4512 38.8573 30.3017 38.8955 30.1517 38.9271C30.1407 38.9299 30.1306 38.9328 30.121 38.9352L29.9595 39.1756C29.8886 39.2884 29.8196 39.4012 29.7521 39.5154L29.6418 39.7161C29.5618 39.8551 29.4904 39.9985 29.4291 40.1486C29.3673 40.2982 29.3102 40.4473 29.2566 40.5964L29.2556 40.5983C29.1876 40.7861 29.1612 40.9342 29.1756 41.0437C29.1904 41.1536 29.2522 41.2281 29.362 41.2678C29.4013 41.2821 29.4386 41.2831 29.4732 41.2712C29.5072 41.2592 29.5393 41.2406 29.5685 41.2157C29.5982 41.1909 29.6255 41.1627 29.65 41.1306C29.6749 41.0981 29.696 41.0685 29.7132 41.0413C29.7448 40.9964 29.7688 40.9787 29.7856 40.9887C29.8028 40.9983 29.8043 41.0231 29.7899 41.0628C29.7511 41.1498 29.6993 41.2487 29.6347 41.36C29.57 41.4714 29.4976 41.5732 29.4171 41.6659C29.3371 41.7581 29.2527 41.8298 29.165 41.8805C29.0773 41.9311 28.9906 41.9412 28.9043 41.9101C28.8119 41.8766 28.7481 41.8246 28.7136 41.7543C28.6791 41.6841 28.6614 41.6057 28.6604 41.5197C28.66 41.4336 28.6719 41.3471 28.6954 41.2606C28.7194 41.1737 28.7429 41.0991 28.7654 41.036L28.7664 41.0356C28.8052 40.9371 28.8497 40.8358 28.8991 40.7287C28.9489 40.6212 28.9973 40.5166 29.0424 40.4124C29.0654 40.3689 29.0759 40.3388 29.074 40.323C29.0716 40.3072 29.0409 40.3216 28.981 40.3632C28.8176 40.4836 28.6561 40.5863 28.4975 40.6743C28.3394 40.7608 28.1693 40.8291 27.9905 40.8802C27.7255 40.9572 27.4543 40.9954 27.1754 40.994C26.897 40.993 26.6172 40.962 26.3349 40.9017C26.1164 40.8559 25.895 40.7966 25.6731 40.7221C25.4503 40.648 25.2222 40.5553 24.9889 40.4458C24.8858 40.3976 24.7962 40.3455 24.7176 40.292C24.6405 40.2375 24.5777 40.1749 24.5317 40.1017C24.4852 40.0286 24.4546 39.9431 24.4416 39.8451C24.4287 39.7472 24.4387 39.6315 24.4718 39.4977C24.4943 39.4126 24.5264 39.3256 24.5667 39.2368C24.605 39.1488 24.6491 39.0647 24.6975 38.9849C24.7406 38.9137 24.7756 38.8836 24.8005 38.8922C24.8245 38.9013 24.8254 38.9491 24.8024 39.0332C24.7823 39.112 24.7766 39.1847 24.7852 39.2516C24.7943 39.3185 24.8226 39.3806 24.8695 39.4394C24.9874 39.5789 25.1288 39.6874 25.2936 39.7648C25.459 39.8427 25.6252 39.9139 25.7929 39.978C26.4001 40.2155 27.0714 40.3445 27.8051 40.3655C27.9536 40.3703 28.0998 40.3631 28.2426 40.344C28.3868 40.3244 28.5263 40.2872 28.6633 40.2317C28.8727 40.1495 29.0481 40.0363 29.188 39.8915C29.3284 39.7452 29.3639 39.717 29.4798 39.5235C29.5043 39.4771 29.5316 39.4375 29.5623 39.4045L29.8599 39.1001C29.9107 39.0489 29.9638 38.9988 30.0189 38.9495C30.0094 38.9424 30.0295 38.9137 30.0793 38.8626C30.144 38.8071 30.2087 38.7503 30.2729 38.6915C30.3376 38.6327 30.41 38.5849 30.489 38.55C30.5561 38.5223 30.6443 38.4869 30.7555 38.4444C30.8528 38.4071 31.3358 38.236 31.4795 38.1787C31.7675 38.0626 32.0522 37.935 32.3354 37.7945L32.4887 37.7276ZM35.6485 45.371C35.4808 45.2917 35.2326 45.1565 35.2383 44.8645C35.6068 44.7545 36.075 44.7335 36.2557 45.3199C36.0755 45.4523 35.7813 45.4336 35.6485 45.371ZM12.3511 45.371C12.5188 45.2917 12.767 45.1565 12.7608 44.8645C12.3928 44.7545 11.9246 44.7335 11.744 45.3199C11.9241 45.4523 12.2183 45.4336 12.3511 45.371ZM9.66714 37.2554C8.81945 36.9883 8.18164 37.6525 8.35176 38.3278L11.5345 44.8788C11.8518 44.4898 12.1652 44.4501 12.4757 44.4315L9.66714 37.2554ZM38.3325 37.2554C39.1802 36.9883 39.818 37.6525 39.6479 38.3278L36.4651 44.8788C36.1478 44.4898 35.8345 44.4501 35.5239 44.4315L38.3325 37.2554ZM29.6193 43.1631C29.6375 43.1134 29.7161 43.026 29.8551 42.9003C29.994 42.7746 30.0769 42.7168 30.1033 42.7264C30.1895 42.7574 30.2581 42.8277 30.3084 42.9371C30.3582 43.047 30.3692 43.1412 30.3405 43.2205C30.3141 43.2931 30.2437 43.3715 30.1292 43.4556C30.0142 43.5393 29.9356 43.5737 29.8924 43.5584C29.8723 43.5512 29.8191 43.4867 29.7314 43.3658C29.7012 43.3251 29.671 43.2845 29.6409 43.2434C29.6183 43.2133 29.6112 43.1861 29.6193 43.1631ZM17.4507 43.2449C17.4483 43.2272 17.4818 43.1306 17.5518 42.9538C17.6217 42.7775 17.6673 42.6876 17.6883 42.6843C17.7473 42.6747 17.8225 42.7001 17.9145 42.7603C18.0065 42.8243 18.0578 42.8888 18.0684 42.9548C18.0808 43.0312 18.0559 43.1349 17.9946 43.2654C17.9327 43.3925 17.8843 43.459 17.8498 43.4647C17.8321 43.4671 17.8038 43.4566 17.7645 43.4327C17.7248 43.4088 17.6855 43.3835 17.6457 43.3581C17.5997 43.3404 17.5571 43.3232 17.5168 43.3065C17.4765 43.2893 17.4545 43.2688 17.4507 43.2449ZM16.9662 42.6542C16.9619 42.6265 16.9978 42.5175 17.075 42.3273C17.1517 42.1376 17.2005 42.0406 17.2211 42.0372C17.2667 42.0305 17.3376 42.0511 17.4348 42.0998C17.5283 42.1491 17.5949 42.1992 17.6352 42.2499C17.6716 42.1658 17.7099 42.0812 17.7502 41.9966C17.8062 41.8771 17.8412 41.8169 17.8551 41.8145C17.9179 41.8045 18.0003 41.8308 18.1029 41.8929C18.2068 41.9617 18.2643 42.0324 18.2758 42.1056C18.2893 42.1887 18.2586 42.2986 18.1838 42.4348C18.111 42.5605 18.0554 42.626 18.0171 42.6322C17.9893 42.6365 17.9414 42.6174 17.8743 42.5748C17.7784 42.5118 17.6999 42.4668 17.639 42.441C17.5422 42.7091 17.454 42.8492 17.374 42.8621C17.3601 42.864 17.2892 42.8324 17.1608 42.7674C17.0328 42.7025 16.9676 42.6647 16.9662 42.6542ZM31.3971 39.4695C31.4014 39.4657 31.4057 39.4614 31.41 39.4575C31.4273 39.4413 31.4412 39.4312 31.4518 39.4274C31.4623 39.4241 31.4671 39.4293 31.4656 39.4437C31.4642 39.4585 31.4498 39.4867 31.4235 39.5292C31.2615 39.8002 31.1101 40.0788 30.9687 40.366C30.5892 41.1369 30.8652 40.5715 30.6697 41.0542V41.0547C30.6012 41.243 30.5748 41.3921 30.5892 41.502C30.604 41.6114 30.6659 41.6865 30.7756 41.7256C30.8149 41.74 30.8523 41.7409 30.8863 41.729C30.9208 41.717 30.9529 41.6989 30.9821 41.674C31.0118 41.6492 31.0392 41.6205 31.0641 41.5885C31.0885 41.556 31.1096 41.5264 31.1268 41.4991C31.158 41.4542 31.1824 41.4365 31.1992 41.4465C31.2165 41.4566 31.2179 41.481 31.2035 41.5211C31.1647 41.6076 31.1129 41.707 31.0483 41.8179C30.9836 41.9292 30.9112 42.0315 30.8307 42.1237C30.7502 42.2159 30.6663 42.2876 30.5787 42.3388C30.491 42.389 30.4042 42.399 30.318 42.3679C30.225 42.3345 30.1617 42.2829 30.1272 42.2126C30.0927 42.1419 30.075 42.064 30.0745 41.9775C30.0736 41.8915 30.0851 41.805 30.1091 41.7185C30.133 41.632 30.156 41.5569 30.179 41.4943L30.1871 41.4867C30.2446 41.3295 30.3347 41.1307 30.4565 40.8908C30.7315 40.3483 30.3228 41.1302 30.8609 40.106C30.9074 40.0181 30.9639 39.934 31.031 39.8532C31.0698 39.8078 31.1173 39.7543 31.1724 39.6941L31.3971 39.4695ZM19.9089 39.9201C20.206 39.8805 20.494 39.8298 20.7734 39.7677C21.0528 39.706 21.3278 39.6181 21.5986 39.5039C21.8391 39.4016 22.0711 39.2822 22.2939 39.146C22.5162 39.0093 22.73 38.8645 22.9336 38.7111C23.2206 38.4951 23.489 38.2685 23.7387 38.0315C23.9878 37.7945 24.2437 37.556 24.5049 37.3156C24.5825 37.2425 24.6606 37.1732 24.7397 37.1077C24.8183 37.0418 24.9031 36.9801 24.9941 36.9233C25.0785 36.8707 25.1384 36.8549 25.1738 36.8759C25.2093 36.897 25.2107 36.9495 25.1777 37.0332C25.1556 37.0967 25.1321 37.1627 25.1072 37.231C25.0823 37.2989 25.0531 37.362 25.0195 37.4207C25.0032 37.4518 24.985 37.4771 24.9649 37.4963C24.9448 37.5154 24.9184 37.5345 24.8858 37.5541C24.8394 37.5789 24.7746 37.6305 24.6903 37.7075C24.6065 37.7849 24.4996 37.8857 24.3693 38.009C24.2174 38.1543 24.0659 38.302 23.915 38.452C23.764 38.6021 23.6102 38.7502 23.453 38.896C23.2959 39.0418 23.1363 39.1837 22.9748 39.3209C22.8129 39.459 22.6451 39.5875 22.4712 39.7075C21.7423 40.2179 20.9286 40.5438 20.0306 40.6857L19.4388 40.766C19.274 40.7866 19.1346 40.7937 19.0191 40.787C18.8926 40.7784 18.7675 40.7646 18.6429 40.745C18.5188 40.7254 18.3976 40.6948 18.2806 40.6528C18.2351 40.6351 18.1987 40.6212 18.1723 40.6112C18.1455 40.6011 18.1215 40.5959 18.1 40.5959C18.0789 40.5959 18.0588 40.6045 18.0401 40.6212C18.0214 40.6384 17.9974 40.6676 17.9682 40.7072C17.9419 40.7436 17.9145 40.7851 17.8863 40.8324C17.858 40.8798 17.8244 40.9366 17.7851 41.003C17.7104 41.1182 17.6165 41.2052 17.5024 41.264C17.3888 41.3228 17.2624 41.3419 17.1234 41.3213C17.0467 41.3084 16.9767 41.2946 16.9135 41.2798C16.8507 41.2649 16.7793 41.2673 16.7007 41.2869C16.6284 41.3051 16.5594 41.3304 16.4932 41.362C16.4266 41.394 16.3629 41.4398 16.3006 41.4996C16.2072 41.5851 16.1458 41.6243 16.1161 41.6167C16.0864 41.609 16.1017 41.5488 16.1621 41.436C16.2306 41.3041 16.3107 41.1761 16.4031 41.0508C16.4961 40.9261 16.6006 40.8133 16.7166 40.7134C16.776 40.6609 16.8407 40.6126 16.9101 40.5677C16.9796 40.5233 17.0549 40.4979 17.1363 40.4922C17.2034 40.4888 17.2705 40.4955 17.3376 40.5137C17.4047 40.5314 17.4727 40.5438 17.5417 40.5505C17.6179 40.56 17.6855 40.5514 17.7435 40.5242C17.8015 40.4974 17.8532 40.4573 17.8982 40.4038C17.9505 40.3493 17.9965 40.292 18.0372 40.2322C18.0775 40.1725 18.1177 40.1127 18.1584 40.053C18.2169 39.9727 18.2725 39.9187 18.3252 39.8905C18.3779 39.8628 18.4575 39.8599 18.5648 39.8819C18.8073 39.9254 19.0334 39.9512 19.2433 39.9588C19.4532 39.9665 19.6756 39.9536 19.9089 39.9201ZM30.179 39.4437C30.1958 39.3973 30.2739 39.3113 30.4128 39.1856C30.5518 39.0604 30.6347 39.0021 30.6615 39.0117C30.7478 39.0427 30.8158 39.113 30.8662 39.2229C30.9165 39.3323 30.927 39.4265 30.8983 39.5058C30.8719 39.5789 30.802 39.6563 30.6879 39.7385C30.5739 39.8207 30.4953 39.8542 30.4522 39.8384C30.432 39.8317 30.3784 39.7672 30.2911 39.6463C30.2595 39.609 30.2288 39.5698 30.1986 39.5287C30.1771 39.4953 30.1709 39.4666 30.179 39.4437ZM32.5405 37.1354C32.9463 37.308 34.0394 37.9613 33.934 37.9292C33.9896 37.8943 34.1386 37.7992 34.1956 37.7639C39.4868 34.475 43.0597 28.7082 43.1771 22.1051C43.364 11.6946 34.9005 3.05093 24.3376 2.86312L23.9998 2.86025C23.8872 2.86025 23.7746 2.86121 23.662 2.86312C13.0991 3.05093 4.6356 11.6946 4.822 22.1051C4.93988 28.7082 8.51276 34.475 13.804 37.7639C13.861 37.7992 13.9842 37.8781 14.0402 37.913C14.0287 37.8771 15.0964 37.2626 15.2996 37.2124C15.1486 37.1808 15.0001 37.1378 14.8554 37.0829C14.3445 36.8893 13.896 36.5543 13.5241 36.1581C13.4422 36.0707 13.3631 35.9799 13.2884 35.8857C13.2122 35.7902 13.1398 35.6917 13.0732 35.5895L12.9966 35.4642C12.8231 35.4102 12.6549 35.3424 12.4934 35.2583C12.0573 35.0313 11.6855 34.6944 11.3826 34.3101C11.3328 34.2466 11.2844 34.1816 11.2379 34.1151C11.1608 34.0052 11.0884 33.8915 11.0213 33.7749C10.9681 33.6822 10.9183 33.5875 10.8738 33.4901L10.7956 33.3108C10.8282 33.3042 10.8598 33.2979 10.8924 33.2912C10.6236 33.167 10.3706 33.0102 10.1463 32.8172C9.77352 32.4965 9.48936 32.0836 9.28282 31.6401C9.2488 31.567 9.21667 31.4924 9.18648 31.4174C9.13665 31.2927 9.09256 31.1656 9.05423 31.0365C9.02356 30.9343 8.99672 30.8306 8.97564 30.7259L8.94115 30.5333L9.16779 30.5409C8.80936 30.3125 8.48497 30.0277 8.23579 29.6827C7.94827 29.2846 7.76759 28.8172 7.67031 28.3379C7.6545 28.259 7.64062 28.1792 7.62864 28.0994C7.60947 27.9661 7.59606 27.8322 7.58839 27.698C7.58264 27.5914 7.58072 27.4843 7.58503 27.3773L7.59605 27.1823C7.655 27.1985 7.71441 27.2143 7.77335 27.2306C7.87063 27.2578 7.96646 27.2913 8.06086 27.3276C8.14424 27.3596 8.22715 27.3945 8.30861 27.4318C8.27699 27.4112 8.24584 27.3902 8.21517 27.3687C8.14856 27.3228 8.08338 27.275 8.01965 27.2253C7.63342 26.9242 7.29464 26.5548 7.06559 26.1199C6.83701 25.6855 6.72392 25.1976 6.69517 24.7092C6.69038 24.6289 6.68798 24.5481 6.68751 24.4674C6.68703 24.3326 6.69276 24.1983 6.70426 24.0645C6.71385 23.9579 6.7268 23.8518 6.74597 23.7462L6.78478 23.5546C6.84085 23.579 6.89739 23.6029 6.95345 23.6272C7.04594 23.6679 7.13603 23.7147 7.2242 23.7639C7.33441 23.8251 7.53135 23.9479 7.52416 23.9407C7.4657 23.8848 7.4087 23.827 7.35359 23.7677C7.02007 23.4098 6.74454 22.9911 6.58736 22.5257C6.43067 22.0607 6.3971 21.5608 6.44598 21.0748C6.45412 20.9945 6.46467 20.9142 6.47713 20.8344C6.49821 20.7016 6.52505 20.5696 6.55811 20.4392C6.58399 20.3355 6.61372 20.2327 6.64966 20.1319L6.71816 19.9489C6.76991 19.9814 6.82168 20.0143 6.87343 20.0468C6.95825 20.1018 7.0397 20.162 7.11876 20.2246C7.22706 20.3097 7.33106 20.4005 7.43121 20.4951C7.47195 20.5348 7.51267 20.5744 7.55245 20.6155L7.55771 20.6031C7.48104 20.5037 7.40821 20.4009 7.34017 20.2953C7.29656 20.2275 7.25438 20.1582 7.21461 20.0879C6.97309 19.6626 6.80155 19.1919 6.7565 18.703C6.71194 18.2141 6.79486 17.7204 6.95538 17.2588C6.98174 17.1823 7.01047 17.1068 7.04114 17.0318C7.09193 16.9075 7.14896 16.7852 7.21078 16.6662C7.26061 16.5711 7.31333 16.4779 7.37132 16.3881L7.48009 16.2256C7.52322 16.2695 7.56587 16.313 7.60851 16.357C7.67848 16.4296 7.74366 16.5071 7.80643 16.5864C7.81458 16.5964 7.82271 16.6069 7.83085 16.6175C7.71537 16.2332 7.65788 15.8313 7.68567 15.4308C7.71969 14.941 7.88022 14.4669 8.11263 14.0363C8.15096 13.9651 8.19121 13.8949 8.23386 13.8261C8.30382 13.7114 8.37953 13.6 8.46003 13.492C8.52376 13.4065 8.59087 13.3224 8.66275 13.243L8.79644 13.1001C8.83142 13.1498 8.86686 13.2 8.90185 13.2502C8.95935 13.3333 9.01158 13.4198 9.06046 13.5078L9.06239 13.5111C9.0437 13.1384 9.07819 12.7627 9.18505 12.4043C9.32497 11.9341 9.58568 11.5059 9.90674 11.136C9.95945 11.0753 10.0145 11.0155 10.0706 10.9572C10.1645 10.8607 10.2623 10.7685 10.3643 10.6805C10.4458 10.6108 10.5297 10.5434 10.6169 10.4817L10.7784 10.3709L10.8718 10.5998C10.9207 10.3102 11.0045 10.0273 11.1306 9.76155C11.3409 9.31758 11.6644 8.93479 12.0377 8.61794C12.0995 8.56585 12.1628 8.5152 12.2274 8.46646C12.3348 8.38521 12.446 8.30875 12.56 8.23754C12.6511 8.18067 12.744 8.12715 12.8399 8.07936L13.0167 7.99477C13.0311 8.05403 13.0459 8.11328 13.0603 8.17254C13.0833 8.27099 13.1001 8.37087 13.114 8.47028C13.1322 8.60648 13.1446 8.7441 13.1504 8.88126C13.1528 8.93813 13.1542 8.995 13.1542 9.05187L13.181 9.04089C13.2577 8.84925 13.3574 8.66717 13.4839 8.50325C13.5203 8.45546 13.5596 8.40911 13.6003 8.36514C13.8356 8.11138 14.1332 7.92069 14.4504 7.78496C14.6062 7.71854 14.7677 7.66359 14.9325 7.62632L15.1343 7.5852C15.1333 7.64924 15.1319 7.71328 15.1304 7.77732C15.128 7.84996 15.1213 7.92261 15.1122 7.99477C15.1012 8.08509 15.0854 8.17493 15.0662 8.26382C14.9828 8.64136 14.8271 9.00934 14.5774 9.30802C14.4121 9.50587 14.2089 9.66884 13.9866 9.79931L13.9832 9.81077C14.0359 9.80552 14.0882 9.80122 14.1409 9.7974C14.2219 9.79214 14.3033 9.78927 14.3848 9.78831C14.4183 9.78783 14.4183 9.78783 14.4514 9.78783C14.5693 9.78879 14.6867 9.7931 14.8041 9.80552L14.9986 9.82893C14.9776 9.89058 14.9569 9.95222 14.9349 10.0139C14.8985 10.1142 14.8558 10.2127 14.8103 10.3092C14.7557 10.4244 14.6958 10.5377 14.6316 10.6476C14.5913 10.7169 14.5491 10.7852 14.5046 10.8521C14.231 11.2665 13.8831 11.6387 13.459 11.9035C13.3032 12.0005 13.1384 12.0822 12.9678 12.1501C12.952 12.2194 12.9338 12.2882 12.9142 12.3565C12.8758 12.4884 12.8312 12.6189 12.7809 12.747C12.7517 12.8215 12.7201 12.8956 12.687 12.9682C12.4719 13.4375 12.1699 13.8738 11.7693 14.2045C11.6285 14.3212 11.4765 14.4239 11.3179 14.5133C11.317 14.5338 11.3156 14.5539 11.3146 14.574C11.306 14.7111 11.2911 14.8483 11.27 14.984C11.2576 15.0633 11.2432 15.1422 11.2264 15.2201C11.1191 15.7252 10.9197 16.2165 10.6011 16.6265C10.4746 16.789 10.3313 16.9376 10.1756 17.0719C10.1866 17.1412 10.1952 17.2105 10.2019 17.2803C10.2158 17.417 10.223 17.5546 10.2235 17.6922C10.2239 17.772 10.2225 17.8523 10.2187 17.9321C10.1933 18.4478 10.0749 18.9644 9.82622 19.4193C9.72079 19.6129 9.59332 19.7931 9.44957 19.9603L9.4994 20.0664C9.54157 20.1582 9.57752 20.2528 9.61011 20.3484C9.65515 20.4784 9.69396 20.6103 9.72654 20.7441C9.74571 20.822 9.76249 20.9003 9.77734 20.9787C9.87222 21.4862 9.87654 22.0162 9.73997 22.5166C9.68055 22.7345 9.59524 22.9448 9.49078 23.1446L9.54974 23.2315C9.6058 23.3156 9.6561 23.4031 9.70402 23.492C9.76871 23.6134 9.82815 23.7376 9.88182 23.8647C9.91296 23.9383 9.9422 24.0129 9.96903 24.0884C10.1435 24.5744 10.2321 25.0968 10.177 25.6124C10.1267 26.0807 9.96135 26.5314 9.73134 26.9405L9.59955 27.1598C9.61919 27.1785 9.63838 27.1971 9.65755 27.2162C9.67048 27.1866 9.68294 27.1574 9.69636 27.1288C9.75194 27.0064 9.81281 26.8865 9.87942 26.7694C9.93213 26.6762 9.98865 26.5849 10.05 26.4975L10.1645 26.3388C10.2057 26.3842 10.2469 26.4296 10.2882 26.475C10.3552 26.55 10.4175 26.6299 10.4774 26.7111C10.5589 26.822 10.6351 26.9371 10.706 27.0552C10.7472 27.1235 10.787 27.1933 10.8244 27.2645C11.0654 27.7209 11.2269 28.2256 11.2446 28.7441C11.2494 28.8788 11.2446 29.0131 11.2312 29.1469L11.2432 29.1183C11.2935 29.1527 11.3443 29.1871 11.3946 29.2215C11.4775 29.2793 11.5571 29.3424 11.6342 29.4079C11.7392 29.4967 11.8403 29.5909 11.9366 29.6893C11.9926 29.7462 12.0473 29.805 12.1 29.8657C12.4412 30.2537 12.7158 30.7073 12.8538 31.2071C12.8796 31.2999 12.9002 31.393 12.917 31.4872C12.999 31.5211 13.079 31.5593 13.1581 31.6C13.2812 31.6626 13.401 31.7309 13.5174 31.8045C13.585 31.8475 13.6516 31.8924 13.7173 31.9388C14.1303 32.2332 14.496 32.6031 14.7451 33.047C14.7964 33.1393 14.8429 33.2334 14.8846 33.3304C14.9455 33.3481 15.0058 33.3677 15.0657 33.3887C15.1961 33.4337 15.3245 33.4853 15.45 33.5426C15.5229 33.5756 15.5952 33.611 15.6662 33.6482C16.1247 33.8877 16.545 34.2122 16.8545 34.6289C17.1401 35.0136 17.3265 35.4647 17.4348 35.9288C17.4531 36.0071 17.4689 36.0855 17.4828 36.1644C17.489 36.1983 17.4943 36.2322 17.4995 36.2661L17.5096 36.2628C19.2711 35.6306 21.0183 35.3529 23.6236 35.3491C23.7487 35.3443 23.8743 35.3409 23.9998 35.3395L24.376 35.3491C27.2966 35.3534 29.1387 35.7018 31.1307 36.5075C31.1067 36.4272 31.0866 36.346 31.0698 36.2638C30.9936 35.8953 30.9845 35.5072 31.0842 35.1426C31.1839 34.7775 31.3895 34.4478 31.6429 34.1691C31.756 34.0444 31.8797 33.9278 32.0138 33.8255L32.1801 33.7046C32.2055 33.7634 32.2314 33.8222 32.2568 33.8805C32.2846 33.9479 32.309 34.0162 32.3311 34.0855C32.3584 34.1725 32.3814 34.2599 32.401 34.3488C32.4326 34.4941 32.4537 34.6427 32.4619 34.7923C32.5088 34.7655 32.5563 34.7407 32.6047 34.7173C32.5347 34.3589 32.529 33.9828 32.6263 33.6286C32.7259 33.264 32.931 32.9338 33.1845 32.6552C33.2981 32.5304 33.4217 32.4138 33.5559 32.3116L33.7222 32.1906C33.7476 32.2494 33.773 32.3082 33.7984 32.367C33.8266 32.4339 33.8511 32.5027 33.8726 32.572C33.9 32.6585 33.9234 32.7464 33.9426 32.8353C33.9742 32.9806 33.9953 33.1292 34.0034 33.2783C34.0106 33.274 34.0183 33.2702 34.0255 33.2659C33.9618 32.919 33.9598 32.5567 34.0533 32.215C34.1534 31.8499 34.3585 31.5202 34.612 31.2415C34.7256 31.1168 34.8487 31.0002 34.9829 30.8979L35.1492 30.777L35.2527 31.0208C35.2589 30.951 35.2685 30.8812 35.2824 30.8124C35.3552 30.4411 35.5359 30.0975 35.7683 29.8007C35.8723 29.6683 35.9873 29.5431 36.1133 29.4313L36.2705 29.2989L36.3826 29.5159C36.3812 29.4662 36.3817 29.416 36.3841 29.3658C36.4023 28.9883 36.5312 28.6217 36.7181 28.2948C36.8015 28.1486 36.8968 28.0081 37.0056 27.8795L37.1417 27.7257C37.1795 27.7773 37.2169 27.8294 37.2548 27.881C37.2969 27.9402 37.3353 28.0019 37.3717 28.065C37.4172 28.1433 37.4589 28.2246 37.4972 28.3068C37.5595 28.442 37.6127 28.5825 37.653 28.7264C37.6798 28.702 37.7076 28.6786 37.7354 28.6552C37.5476 28.3684 37.4076 28.0454 37.3588 27.7046C37.3051 27.33 37.3616 26.9462 37.4833 26.5902C37.5375 26.4306 37.6046 26.2748 37.687 26.1276L37.7915 25.9508C37.838 25.9947 37.8849 26.0382 37.9314 26.0822C37.9841 26.1324 38.0339 26.1859 38.0814 26.2408C38.1408 26.3092 38.1974 26.3809 38.2505 26.4545C38.3373 26.5754 38.4159 26.7034 38.4829 26.8373L38.5194 26.7904C38.2913 26.5261 38.1082 26.2189 38.0152 25.881C37.9151 25.5164 37.9232 25.1283 37.999 24.7598C38.033 24.595 38.08 24.432 38.1432 24.2757L38.2242 24.0874C38.2764 24.1247 38.3282 24.1625 38.3799 24.2002C38.4384 24.2432 38.4945 24.2901 38.5486 24.3388C38.6167 24.3995 38.6813 24.4631 38.7432 24.53C38.7666 24.5548 38.8059 24.5993 38.8088 24.6026C38.8093 24.6031 38.8088 24.6031 38.8088 24.6026C38.6981 24.4659 38.6032 24.3173 38.529 24.1577C38.3703 23.8141 38.3148 23.4299 38.3291 23.0538C38.3354 22.8855 38.3545 22.7173 38.3919 22.5529L38.4408 22.3536C38.4983 22.3823 38.5558 22.411 38.6133 22.4397C38.6718 22.4698 38.7292 22.5027 38.7853 22.5381C38.7518 22.4965 38.7201 22.454 38.6904 22.4096C38.4786 22.0961 38.3622 21.7257 38.3157 21.3524C38.2951 21.1852 38.2874 21.016 38.2975 20.8478L38.3138 20.6432C38.3751 20.6624 38.4365 20.6815 38.4978 20.7006C38.5673 20.723 38.6349 20.7493 38.702 20.778C38.7853 20.8139 38.8673 20.854 38.9473 20.8975C39.0786 20.9682 39.2051 21.0495 39.3239 21.1407C39.3282 21.1197 39.333 21.0982 39.3378 21.0772C39.0853 20.9405 38.8538 20.7637 38.6693 20.5438C38.4259 20.2538 38.2716 19.8972 38.1868 19.5307C38.149 19.3668 38.1236 19.199 38.1159 19.0308L38.1116 18.8258C38.1743 18.8382 38.2371 18.8511 38.2999 18.8636C38.3574 18.876 38.4144 18.8908 38.4705 18.9075C38.4561 18.8946 38.4418 18.8817 38.4274 18.8683C38.1518 18.6088 37.9568 18.2729 37.8293 17.9188C37.7723 17.7601 37.7277 17.5967 37.7004 17.4303L37.6717 17.2272C37.7354 17.2325 37.7996 17.2378 37.8634 17.243C37.9357 17.2497 38.0081 17.2607 38.0795 17.2741C38.0948 17.2769 38.1101 17.2798 38.125 17.2827C38.1005 17.2669 38.0766 17.2502 38.0526 17.233C37.7459 17.0108 37.5092 16.702 37.3377 16.367C37.261 16.217 37.1958 16.0607 37.1474 15.8992L37.0928 15.7013C37.1613 15.6984 37.2299 15.6946 37.2984 15.6922L37.4604 15.6937C37.4378 15.6846 37.4153 15.675 37.3933 15.665C37.0482 15.5073 36.7555 15.2516 36.5207 14.9568C36.4157 14.8249 36.3208 14.6844 36.2413 14.5357L36.1488 14.3527C36.2154 14.336 36.2815 14.3188 36.3481 14.303C36.4238 14.2858 36.5604 14.2566 36.5604 14.2566C36.5101 14.239 36.4603 14.2194 36.4114 14.1974C36.0899 14.0545 35.8095 13.8284 35.5781 13.5661C35.4664 13.4399 35.3644 13.3042 35.2771 13.1599L35.1756 12.9816C35.2412 12.9615 35.3064 12.941 35.3725 12.9219C35.3994 12.9142 35.4262 12.9071 35.4535 12.9009C35.1209 12.7532 34.8339 12.5157 34.5991 12.2409C34.4898 12.1128 34.3897 11.9756 34.3053 11.8294L34.2066 11.6497L34.3537 11.6072C34.013 11.4514 33.7222 11.2 33.4883 10.9099C33.3824 10.779 33.2866 10.639 33.2061 10.4908L33.1126 10.3083C33.1261 10.3044 33.1208 10.3059 33.1313 10.303C32.8754 10.1711 32.6464 9.98807 32.4494 9.77971C32.3335 9.65689 32.2266 9.52498 32.1351 9.38353L32.0273 9.20862C32.092 9.18664 32.1566 9.1637 32.2218 9.14267C32.3234 9.11065 32.4269 9.08533 32.5314 9.06574C32.6905 9.03563 32.8519 9.01843 33.0134 9.0146H33.1366C33.08 8.89322 33.0331 8.76705 32.9947 8.63945C32.9463 8.47793 32.9099 8.31257 32.8917 8.14483L32.8735 7.94077C32.9372 7.94937 33.0005 7.95798 33.0642 7.9661C33.1361 7.97709 33.208 7.99142 33.2784 8.00863C33.3671 8.03013 33.4548 8.05594 33.541 8.08509C33.7155 8.14483 33.886 8.22034 34.0456 8.31401C34.0504 8.13384 34.0744 7.95415 34.1141 7.77877C34.151 7.61437 34.2014 7.45235 34.2675 7.29751L34.3528 7.11066C34.404 7.14937 34.4548 7.18807 34.5061 7.22678C34.5636 7.27123 34.6187 7.31903 34.6719 7.36825C34.7385 7.43038 34.8023 7.49536 34.8626 7.56323C35.1291 7.86095 35.3414 8.21603 35.4324 8.60695C35.4377 8.63036 35.454 8.66286 35.454 8.66286L35.5024 8.56633L35.5958 8.39811C35.6437 8.44065 35.6917 8.48318 35.7396 8.52571C35.7932 8.57446 35.8445 8.62655 35.8939 8.68007C35.9552 8.74698 36.0137 8.81722 36.0688 8.88938C36.2892 9.17851 36.4612 9.51161 36.5355 9.8686L36.6366 9.67218C36.6855 9.71328 36.7348 9.75437 36.7837 9.79547C36.8393 9.84326 36.8916 9.89345 36.9424 9.94555C37.0056 10.011 37.066 10.0793 37.123 10.1501C37.3185 10.3928 37.4795 10.6686 37.5744 10.9658L37.7205 11.0844C37.7766 11.1307 37.8298 11.1804 37.8816 11.2316C37.9458 11.2956 38.0071 11.363 38.0656 11.4328C38.3215 11.7396 38.5213 12.1013 38.5989 12.4951C38.6013 12.5061 38.6032 12.5171 38.6051 12.5281L38.6444 12.4588C38.6919 12.5013 38.7398 12.5439 38.7872 12.5869C38.8409 12.6361 38.8917 12.6882 38.9406 12.7422C39.0014 12.8096 39.0594 12.8798 39.1141 12.9525C39.3541 13.2717 39.5352 13.6435 39.5927 14.0406C39.6287 14.2896 39.6163 14.5434 39.5693 14.79L39.5698 14.7885C39.6335 14.6853 39.7039 14.5859 39.7806 14.4922L39.9148 14.3369C39.9531 14.3881 39.9915 14.4397 40.0298 14.4908C40.0724 14.5496 40.1117 14.6108 40.1491 14.6734C40.1956 14.7513 40.2382 14.8316 40.2775 14.9138C40.4491 15.2741 40.5535 15.6736 40.531 16.0746C40.5253 16.174 40.5123 16.2719 40.4927 16.3689L40.6446 16.2323C40.6762 16.2882 40.7078 16.3436 40.739 16.3995C40.774 16.4636 40.8051 16.529 40.8339 16.5959C40.8698 16.6791 40.9024 16.7642 40.9307 16.8507C41.0553 17.2296 41.1075 17.6392 41.0337 18.0339C41.0131 18.1434 40.9839 18.2509 40.946 18.3556L41.0241 18.2958L41.1813 18.1854C41.2062 18.2442 41.2307 18.3035 41.2551 18.3623C41.2824 18.4301 41.3059 18.4989 41.3265 18.5682C41.3524 18.6557 41.3744 18.7436 41.3926 18.8325C41.4717 19.2239 41.475 19.6368 41.3557 20.0201C41.3035 20.1873 41.2292 20.347 41.1386 20.4965L41.2661 20.4172L41.4338 20.3231C41.4525 20.3847 41.4707 20.4459 41.4889 20.507C41.5091 20.5768 41.5254 20.648 41.5388 20.7192C41.5555 20.8086 41.568 20.8984 41.5766 20.9888C41.6145 21.3859 41.5752 21.7974 41.4166 22.1663C41.3193 22.3923 41.1808 22.5978 41.016 22.7809L41.0222 22.7775C41.1367 22.7121 41.2561 22.6542 41.3787 22.606L41.5718 22.5352C41.5804 22.5988 41.5886 22.6623 41.5967 22.7254C41.6054 22.7976 41.6097 22.8702 41.6116 22.9429C41.614 23.0337 41.6121 23.1245 41.6063 23.2153C41.58 23.6134 41.475 24.0129 41.2589 24.3517C41.1224 24.5663 40.9455 24.7522 40.7462 24.9104C40.8559 24.8717 40.9676 24.8392 41.0811 24.8153L41.2834 24.7771C41.281 24.8411 41.279 24.9051 41.2767 24.9687C41.2733 25.0413 41.2656 25.114 41.2556 25.1856C41.2431 25.2755 41.2263 25.3649 41.2057 25.4533C41.1142 25.8418 40.9455 26.2193 40.6767 26.518C40.4328 26.7899 40.1165 26.9902 39.7801 27.1283C39.6987 27.1617 39.6163 27.1923 39.5319 27.2181C39.5319 27.2487 39.5309 27.2793 39.53 27.3099C39.6915 27.2291 39.8621 27.1665 40.036 27.1192C40.199 27.0752 40.3662 27.0432 40.5344 27.0294L40.74 27.0165C40.7294 27.0795 40.7194 27.1426 40.7088 27.2062C40.6964 27.2774 40.68 27.3486 40.6609 27.4184C40.6369 27.5063 40.6091 27.5928 40.5775 27.6779C40.4386 28.0516 40.2234 28.4048 39.9196 28.6681C39.6435 28.9075 39.3043 29.0671 38.953 29.1622C38.8447 29.1919 38.734 29.2158 38.6229 29.2325C38.6138 29.2846 38.6032 29.3362 38.5913 29.3878C38.7647 29.3395 38.9444 29.3099 39.1241 29.2965C39.1864 29.2917 39.2492 29.2893 39.3119 29.2884C39.3354 29.2879 39.3589 29.2879 39.3824 29.2879L39.6436 29.3037L39.8347 29.328C39.8113 29.3926 39.7883 29.4571 39.7638 29.5211C39.702 29.6779 39.6239 29.8284 39.5352 29.9713C39.3359 30.291 39.0747 30.5787 38.7503 30.7751C38.4259 30.9715 38.0493 31.0695 37.6731 31.0982C37.6094 31.103 37.5447 31.1058 37.4805 31.1068C37.4747 31.1226 37.4685 31.1378 37.4623 31.1536H37.4632C37.56 31.1412 37.6578 31.135 37.7555 31.1331L37.9443 31.1364C38.0497 31.1417 38.1552 31.1527 38.2596 31.1694L38.5165 31.2224L38.7015 31.2745C38.6689 31.3347 38.6368 31.395 38.6032 31.4547C38.5198 31.6009 38.4202 31.7386 38.3114 31.8676C38.068 32.1548 37.7675 32.4019 37.4182 32.5491C37.1494 32.6618 36.859 32.7135 36.5676 32.7192C36.6807 32.7288 36.7928 32.7445 36.904 32.7665C37.0161 32.789 37.1278 32.8172 37.2366 32.854L37.4301 32.9237C37.3933 32.9811 37.3568 33.0394 37.319 33.0963C37.2246 33.2363 37.1158 33.3663 36.9979 33.4867C36.7344 33.7558 36.4167 33.9804 36.0573 34.1018C35.902 34.1543 35.7415 34.1868 35.579 34.2026C35.5738 34.2012 35.7285 34.2403 35.809 34.2676L36.0026 34.3374C35.9657 34.3952 35.9293 34.453 35.8915 34.5104C35.7971 34.6499 35.6883 34.7799 35.5704 34.9003C35.3064 35.1694 34.9891 35.394 34.6297 35.5154C34.2703 35.6368 33.8812 35.6516 33.508 35.598C33.4294 35.5866 33.3508 35.5727 33.2732 35.555C33.2607 35.5842 33.2473 35.6124 33.2339 35.6406L33.3929 35.6372C33.575 35.6391 33.7562 35.6587 33.9349 35.6941C34.0471 35.7166 34.1587 35.7448 34.2675 35.7811L34.4611 35.8509C34.4237 35.9087 34.3878 35.9665 34.3499 36.0239C34.2555 36.1639 34.1467 36.2939 34.0284 36.4143C33.7648 36.6834 33.4471 36.9075 33.0882 37.0293C32.9109 37.0891 32.7269 37.123 32.5405 37.1354ZM16.027 36.8697C15.6705 36.7632 15.3288 36.6059 15.0274 36.3871C14.679 36.1342 14.3925 35.8059 14.1634 35.4432C13.9123 35.4609 13.6626 35.502 13.4192 35.5646L13.4106 35.5665C13.5227 35.7209 13.6463 35.8666 13.7786 36.0033C13.8275 36.0544 13.8783 36.1037 13.9295 36.1519C14.2549 36.4549 14.6354 36.7058 15.059 36.8473C15.2905 36.9242 15.5315 36.9687 15.774 36.9863C15.7548 36.9954 15.924 36.9166 16.027 36.8697ZM31.8672 36.8004C31.9314 36.8133 31.9956 36.8234 32.0603 36.8315C32.389 36.8721 32.7307 36.8535 33.0427 36.7369C33.3053 36.6389 33.5401 36.4779 33.7432 36.2867C33.7878 36.2446 33.831 36.2011 33.8726 36.1562L34.0015 36.0067C33.9455 35.9923 33.8885 35.9804 33.8314 35.9699C33.6862 35.9436 33.5386 35.9292 33.3906 35.9273C33.3805 35.9273 33.37 35.9273 33.3599 35.9273C33.2569 35.9283 33.1538 35.9354 33.0522 35.9507C32.9976 36.0291 32.9372 36.1041 32.8716 36.1744C32.6219 36.4406 32.3014 36.6341 31.9621 36.7656L31.8672 36.8004ZM17.0208 36.4468C16.9049 36.1916 16.7645 35.9474 16.5963 35.7228C16.4295 35.4991 16.2354 35.2955 16.0126 35.1268C15.7548 34.9319 15.4615 34.788 15.1553 34.6867C14.9977 34.6346 14.8362 34.5935 14.6733 34.5624C14.4615 34.5223 14.2463 34.4989 14.0307 34.4912H14.0225C14.0235 34.4936 14.024 34.4965 14.0249 34.4994C14.0963 34.6948 14.1816 34.885 14.2808 35.0681C14.3594 35.2129 14.4471 35.3529 14.5439 35.4862C14.7327 35.7462 14.9579 35.9813 15.2205 36.1677C15.462 36.3393 15.7323 36.4678 16.0136 36.561C16.1597 36.6093 16.3088 36.648 16.4597 36.6781L16.6389 36.6021C16.4558 36.4783 16.2766 36.3488 16.0984 36.2184C15.8971 36.0673 15.6973 35.9139 15.5037 35.7524C15.3092 35.5914 15.1184 35.4255 14.9373 35.2449L14.9383 35.2439C15.1721 35.3476 15.3954 35.4666 15.6154 35.5904C15.8358 35.7137 16.0509 35.8451 16.2642 35.9785C16.4755 36.1147 16.6859 36.2523 16.8905 36.398C16.9207 36.4196 16.9509 36.4411 16.9811 36.4626L17.0208 36.4468ZM31.8744 36.4879C31.8849 36.4836 31.8955 36.4793 31.9065 36.475C32.2127 36.3498 32.5012 36.1663 32.7159 35.912C32.896 35.6984 33.0216 35.4427 33.104 35.1775C33.1222 35.1187 33.1385 35.0595 33.1529 35.0002L33.1912 34.8062L33.0024 34.8659C32.9444 34.8865 32.8874 34.9089 32.8309 34.9333C32.5596 35.0513 32.3047 35.2157 32.1058 35.4365C31.9075 35.6573 31.7718 35.9283 31.6837 36.2098C31.6808 36.2203 31.6774 36.2308 31.6741 36.2413C31.756 36.1452 31.8413 36.0525 31.9281 35.9603C32.0445 35.8403 32.1629 35.7223 32.2889 35.6105C32.4144 35.4977 32.5448 35.3897 32.6885 35.2927L32.6895 35.2936C32.6167 35.4509 32.5304 35.5961 32.4394 35.7376C32.3483 35.8795 32.2506 36.0153 32.1504 36.1491C32.0608 36.2642 31.9702 36.3784 31.8744 36.4879ZM32.1739 34.9811C32.1772 34.8339 32.1653 34.6862 32.1413 34.5419C32.1312 34.4812 32.1193 34.421 32.1049 34.3617L32.0526 34.1711L31.9103 34.3087C31.8682 34.3526 31.827 34.3985 31.7877 34.4454C31.5979 34.6719 31.4436 34.9328 31.3655 35.2191C31.2874 35.5049 31.2874 35.8078 31.3353 36.0989C31.3444 36.1529 31.3684 36.2537 31.3684 36.2537C31.3698 36.2489 31.3712 36.2437 31.3722 36.2389C31.4695 35.8752 31.6357 35.5245 31.8892 35.2425C31.9741 35.1479 32.068 35.0623 32.1686 34.9849L32.1739 34.9811ZM17.1732 36.096C17.1344 35.9058 17.0817 35.7185 17.0137 35.5364C16.9164 35.2755 16.787 35.0255 16.6202 34.8019C16.4281 34.5429 16.187 34.3221 15.9211 34.1395C15.7788 34.0415 15.6292 33.9541 15.4745 33.8762C15.2881 33.7825 15.0949 33.7032 14.8966 33.6382L14.8884 33.6353C14.8889 33.6387 14.8889 33.6411 14.8889 33.6439C14.9023 33.8518 14.9306 34.0583 14.9747 34.2619C14.98 34.2867 14.9857 34.3116 14.9914 34.3359C15.3547 34.4296 15.7054 34.5725 16.0198 34.777C16.0941 34.8253 16.166 34.8769 16.235 34.9314C16.4329 35.0877 16.6097 35.2688 16.7659 35.4657C16.9216 35.6621 17.0568 35.8743 17.1732 36.096ZM33.4088 35.2869C33.473 35.2994 33.5372 35.3094 33.6019 35.3175C33.9306 35.3582 34.2723 35.3395 34.5847 35.2229C34.8468 35.1254 35.0821 34.9639 35.2848 34.7732C35.3294 34.7311 35.3725 34.6872 35.4142 34.6423L35.5431 34.4927C35.4794 34.4764 35.4147 34.4631 35.3495 34.4521C35.2115 34.4282 35.0721 34.4153 34.9321 34.4138H34.9015C34.7984 34.4143 34.6959 34.4219 34.5943 34.4372C34.5392 34.5156 34.4793 34.5902 34.4132 34.6604C34.1635 34.9271 33.8434 35.1206 33.5037 35.2516C33.4725 35.264 33.4409 35.2755 33.4088 35.2869ZM13.4048 35.2683C13.4897 35.2477 13.679 35.211 13.6952 35.2081C13.333 35.0504 12.9932 34.8387 12.7076 34.5648C12.3971 34.2671 12.1584 33.9025 11.9816 33.5116C11.9246 33.5077 11.8676 33.5053 11.8111 33.5039C11.7708 33.503 11.7305 33.5025 11.6908 33.5025C11.5441 33.5034 11.398 33.5116 11.2518 33.5269L11.2188 33.5307C11.2327 33.556 11.2465 33.5813 11.2604 33.6062C11.4397 33.9216 11.6577 34.2165 11.916 34.4726C12.1201 34.6748 12.3506 34.8525 12.6046 34.9882C12.8552 35.1221 13.1269 35.2129 13.4048 35.2683L13.4034 35.2688L13.4048 35.2683ZM14.4102 34.2284C14.2496 33.912 14.0422 33.6186 13.78 33.3777C13.5572 33.1722 13.2989 33.0069 13.0253 32.8769C12.7023 32.724 12.3569 32.6179 12.0056 32.5548L11.9725 32.5495C11.9735 32.5519 11.974 32.5548 11.9745 32.5577C12.0181 32.7613 12.076 32.9615 12.1494 33.156C12.2073 33.3104 12.2749 33.4609 12.3525 33.6062C12.4992 33.8819 12.6837 34.139 12.9094 34.3555C13.1355 34.572 13.4001 34.746 13.6818 34.8822C13.7571 34.9185 13.8337 34.9519 13.9114 34.9835C13.8682 34.8912 13.828 34.7981 13.7906 34.7034C13.757 34.6169 13.7019 34.4511 13.7038 34.4564C13.5553 34.3077 13.4087 34.1567 13.2668 34.0009C13.0962 33.815 12.93 33.6243 12.7757 33.4212L12.7766 33.4198C12.9937 33.555 13.1988 33.7032 13.3996 33.8561C13.5476 33.9679 13.6919 34.0836 13.8347 34.2012L13.9468 34.1992C14.1016 34.2007 14.2564 34.2107 14.4102 34.2284ZM33.46 34.9562C33.7619 34.831 34.0456 34.6489 34.2574 34.3981C34.4376 34.1849 34.5631 33.9292 34.646 33.6635C34.6642 33.6052 34.6801 33.546 34.6944 33.4862L34.7333 33.2927L34.544 33.3519C34.4865 33.3725 34.429 33.3949 34.3729 33.4193C34.1017 33.5374 33.8463 33.7018 33.6479 33.9225C33.5003 34.0865 33.3872 34.2786 33.3029 34.4817L33.4615 34.4549L33.4696 34.4468C33.5861 34.3264 33.7044 34.2083 33.8309 34.0965C33.9565 33.9842 34.0868 33.8757 34.2301 33.7787L34.2315 33.7797C34.1587 33.9369 34.072 34.0822 33.9809 34.2236C33.8903 34.366 33.7921 34.5018 33.692 34.6351C33.6191 34.7292 33.5453 34.8224 33.4687 34.9132C33.4658 34.9276 33.4629 34.9419 33.46 34.9562ZM32.9588 34.5734C33.0594 34.2647 33.2133 33.9708 33.4308 33.7285C33.5176 33.6325 33.6129 33.5455 33.7155 33.4671C33.7188 33.3199 33.7068 33.1727 33.6829 33.0279C33.6733 32.9672 33.6608 32.9075 33.6469 32.8477L33.5942 32.6576L33.4524 32.7947C33.4097 32.8392 33.3685 32.8846 33.3292 32.9319C33.1395 33.1579 32.9852 33.4193 32.9071 33.7051C32.8289 33.9914 32.829 34.2939 32.8769 34.5854L32.8797 34.6012L32.9588 34.5734ZM14.5932 33.3916C14.5549 33.3065 14.5118 33.2234 14.4643 33.1426C14.3062 32.874 14.0997 32.6356 13.8668 32.4286C13.5936 32.1859 13.2841 31.9842 12.9563 31.8236L12.9486 31.8203C12.9482 31.8231 12.9482 31.826 12.9477 31.8289C12.9319 32.043 12.9319 32.2585 12.9491 32.4731C12.9506 32.4912 12.9525 32.5099 12.9539 32.528C13.3646 32.6963 13.7489 32.9319 14.0628 33.2458C14.2942 33.4771 14.4844 33.7462 14.6373 34.0344L14.6067 33.7749C14.5971 33.6683 14.5932 33.3916 14.5932 33.3916ZM34.8799 33.8815C34.9293 33.8901 34.9796 33.8977 35.0294 33.9039C35.3581 33.9445 35.6998 33.9259 36.0122 33.8093C36.2743 33.7118 36.5096 33.5503 36.7123 33.3596C36.7569 33.3175 36.8 33.2736 36.8417 33.2286L36.9706 33.0791C36.9069 33.0628 36.8422 33.0494 36.777 33.0384C36.639 33.0145 36.4996 33.0016 36.3597 33.0002C36.3496 33.0002 36.339 33.0002 36.329 33.0002C36.2259 33.0007 36.1234 33.0083 36.0218 33.0231C35.9667 33.102 35.9068 33.1766 35.8407 33.2468C35.591 33.5135 35.2709 33.707 34.9312 33.838C34.9173 33.8432 34.9034 33.8489 34.8895 33.8537C34.8861 33.8628 34.8828 33.8719 34.8799 33.8815ZM34.9834 32.9448C35.0725 32.8549 35.1631 32.767 35.2585 32.6829C35.3835 32.5706 35.5139 32.4621 35.6576 32.3651L35.6591 32.366C35.5857 32.5233 35.4995 32.6685 35.4084 32.81C35.3179 32.9519 35.2196 33.0877 35.1195 33.2215C35.086 33.2645 35.0529 33.307 35.0189 33.3495C35.0107 33.3993 35.0011 33.448 34.9906 33.4972C35.2537 33.3749 35.4976 33.2067 35.6849 32.9844C35.8651 32.7708 35.9907 32.5156 36.0736 32.2499C36.0913 32.1911 36.1076 32.1323 36.122 32.0726L36.1603 31.8791L35.9715 31.9383C35.9135 31.9589 35.8565 31.9813 35.8004 32.0057C35.5287 32.1237 35.2738 32.2881 35.0754 32.5089C34.9479 32.6504 34.8468 32.8124 34.7668 32.9844L34.9834 32.9448ZM11.5762 33.2138C11.1593 32.9476 10.7836 32.6074 10.5139 32.1906C10.2805 31.8298 10.1315 31.4203 10.0491 30.9993C9.81665 30.9281 9.57704 30.8779 9.33553 30.8482L9.30245 30.8444C9.30341 30.8468 9.30389 30.8497 9.30485 30.8525C9.359 31.0533 9.4285 31.2501 9.51236 31.4408C9.57849 31.5914 9.6542 31.7381 9.7395 31.8791C9.90099 32.1462 10.0994 32.3928 10.3366 32.5969C10.568 32.7961 10.834 32.9524 11.1143 33.0719C11.2451 33.1273 11.523 33.2157 11.523 33.2157C11.5408 33.2148 11.5585 33.2143 11.5762 33.2138ZM34.4093 33.092C34.51 32.8081 34.6566 32.5395 34.8583 32.3149C34.9446 32.2188 35.0404 32.1319 35.143 32.0535C35.1463 31.9063 35.1343 31.7591 35.1104 31.6143C35.1003 31.5536 35.0884 31.4939 35.0745 31.4341L35.0217 31.2435L34.8799 31.3811C34.8373 31.4255 34.796 31.4709 34.7567 31.5178C34.567 31.7443 34.4127 32.0052 34.3346 32.2915C34.2593 32.5658 34.2565 32.8554 34.2986 33.1355L34.4093 33.092ZM12.262 32.3106C12.2485 32.2513 12.2342 32.193 12.2179 32.1347C12.1427 31.8666 12.0353 31.6067 11.8887 31.3691C11.7186 31.0948 11.4972 30.8549 11.248 30.6504C11.1143 30.5409 10.9725 30.4411 10.8253 30.3503C10.6476 30.2413 10.4616 30.1457 10.2695 30.064L10.2618 30.0611C10.2618 30.064 10.2618 30.0664 10.2618 30.0693C10.257 30.2776 10.2675 30.4855 10.2944 30.692C10.3155 30.8554 10.3466 31.0174 10.3883 31.1766C10.4707 31.4867 10.5958 31.7873 10.7731 32.0554C10.9413 32.3087 11.1531 32.5309 11.3894 32.7221C11.5163 32.8253 11.7871 32.9954 11.7871 32.9954C11.7598 32.907 11.7358 32.8177 11.7142 32.7278C11.7032 32.6815 11.6927 32.6346 11.6831 32.5878C11.6467 32.5314 11.6103 32.4745 11.5739 32.4181C11.4411 32.205 11.3103 31.9899 11.1876 31.7696C11.0645 31.5498 10.9466 31.3261 10.8431 31.0929L10.844 31.092C11.0242 31.2736 11.19 31.4643 11.3505 31.6588C11.5063 31.8466 11.6543 32.0392 11.8 32.2337L11.629 32.2188L11.812 32.2346C11.9126 32.2442 12.0128 32.26 12.112 32.2791C12.1623 32.2886 12.2121 32.2991 12.262 32.3106ZM36.3496 32.3431L36.3232 32.4224C36.3419 32.4239 36.3601 32.4248 36.3788 32.4258C36.7095 32.4425 37.0487 32.3995 37.3516 32.2604C37.606 32.1443 37.8289 31.966 38.0172 31.761C38.0589 31.7161 38.0986 31.6693 38.137 31.6215L38.2548 31.4628C38.1197 31.4389 37.9831 31.427 37.8466 31.4236C37.8226 31.4232 37.7987 31.4231 37.7747 31.4231C37.6166 31.4251 37.4579 31.4413 37.3041 31.4757C37.2548 31.5579 37.2006 31.6372 37.1402 31.7118C36.9284 31.9732 36.6529 32.1773 36.3534 32.3297L36.3496 32.3431ZM12.6606 31.7672C12.6453 31.6043 12.6166 31.4423 12.573 31.2846C12.4853 30.9658 12.3348 30.6671 12.147 30.3962C12.053 30.2604 11.9495 30.1314 11.8388 30.0095C11.6989 29.8552 11.5475 29.7113 11.386 29.5794L11.3793 29.5742C11.3783 29.577 11.3774 29.5799 11.3764 29.5823C11.3136 29.7806 11.2657 29.9837 11.2331 30.1892C11.2293 30.2145 11.2255 30.2394 11.2221 30.2647C11.583 30.5223 11.903 30.8392 12.1364 31.2167C12.3587 31.5756 12.4992 31.9799 12.5763 32.3938C12.6022 32.4019 12.6276 32.4095 12.6535 32.4181C12.6511 32.3861 12.6496 32.3546 12.6482 32.3225C12.6429 32.1883 12.6434 32.0535 12.6501 31.9197C12.6525 31.8685 12.6558 31.8179 12.6606 31.7672ZM36.4737 31.7104L36.4454 31.9421C36.6452 31.8136 36.8254 31.654 36.9653 31.4614C37.1297 31.2353 37.2361 30.9715 37.2994 30.7006C37.3132 30.6408 37.3252 30.5811 37.3348 30.5204L37.3593 30.3245L37.1752 30.3976C37.1192 30.422 37.0636 30.4487 37.009 30.4769C36.7473 30.6141 36.5044 30.7966 36.3227 31.0313C36.1867 31.2067 36.0879 31.4069 36.0185 31.6172C36.0707 31.6014 36.1239 31.5871 36.1766 31.5746L36.1833 31.567C36.2906 31.4389 36.4004 31.3123 36.5183 31.1914C36.6347 31.0705 36.7569 30.9529 36.8935 30.8458L36.8944 30.8468C36.8331 31.0088 36.7574 31.1598 36.6769 31.3075C36.6141 31.4236 36.5465 31.5364 36.4771 31.6473L36.4737 31.7104ZM35.6806 31.741C35.7578 31.4222 35.8905 31.114 36.0922 30.8535C36.1704 30.7531 36.2576 30.6609 36.352 30.5763L36.3568 30.572C36.3501 30.4253 36.3271 30.2791 36.2926 30.1362C36.2782 30.0769 36.2619 30.0177 36.2432 29.9594L36.1771 29.7735C36.1766 29.7739 36.1766 29.7739 36.1761 29.7744C36.1311 29.8217 36.0875 29.8705 36.0453 29.9206C36.0065 29.9679 35.9686 30.0162 35.9327 30.0659C35.7602 30.3058 35.6255 30.5773 35.568 30.8678C35.511 31.1589 35.533 31.4614 35.6025 31.7481C35.6044 31.7567 35.6064 31.7648 35.6088 31.7734C35.6322 31.7625 35.6562 31.7515 35.6806 31.741ZM25.6286 28.5897C26.9186 29.0604 28.2982 29.2731 29.6874 29.2057C28.0557 29.7343 26.3862 29.7969 24.8202 29.4681L24.8072 29.7902L23.9998 30.8984L23.1924 29.7902L23.1794 29.4681C21.6134 29.7969 19.9434 29.7343 18.3122 29.2057C19.7009 29.2731 21.081 29.0604 22.371 28.5897C20.2583 27.4862 18.5595 25.589 17.7636 23.1484C16.5843 19.5317 17.6994 15.5623 20.5913 13.082C17.4488 17.718 18.5801 23.9799 23.0884 27.2435L22.775 19.5154V13.4361C23.2633 13.2024 23.685 12.8492 23.9998 12.41C24.3146 12.8492 24.7363 13.2024 25.2241 13.4361V19.5154L24.9112 27.2435C29.419 23.9799 30.5508 17.718 27.4083 13.082C30.3002 15.5623 31.4153 19.5317 30.236 23.1484C29.4401 25.589 27.7413 27.4862 25.6286 28.5897ZM37.5715 30.8134C37.6161 30.8114 37.6602 30.8081 37.7043 30.8038C38.0339 30.7727 38.3631 30.6805 38.643 30.4994C38.8778 30.3474 39.0719 30.139 39.2286 29.9087C39.2631 29.858 39.2957 29.8064 39.3268 29.7534L39.4202 29.5794C39.3925 29.5785 39.3652 29.5785 39.3374 29.5785C39.2823 29.579 39.2271 29.5804 39.172 29.5842C38.9372 29.5995 38.7015 29.6449 38.4815 29.7295L38.4791 29.7352C38.4432 29.8217 38.4015 29.9063 38.3536 29.9871C38.1676 30.301 37.8969 30.5596 37.5941 30.7608L37.5826 30.7684C37.5792 30.7832 37.5754 30.7985 37.5715 30.8134ZM8.56497 27.8925C8.54005 27.8776 8.51467 27.8633 8.48928 27.849C8.2952 27.7405 8.09202 27.6478 7.88309 27.5713L7.87493 27.5684C7.87493 27.5713 7.87495 27.5742 7.87543 27.577C7.88118 27.7849 7.90275 27.9923 7.94012 28.1969C7.96935 28.3589 8.00865 28.5195 8.05849 28.6762C8.15385 28.9735 8.28896 29.2592 8.47249 29.513C8.65075 29.7601 8.87312 29.9737 9.11799 30.1548C9.26414 30.2628 9.41891 30.3598 9.57896 30.4459C9.56075 30.4272 9.54206 30.4081 9.52385 30.3895C9.18506 30.0358 8.90281 29.6215 8.7394 29.1584C8.59612 28.7536 8.54676 28.3206 8.56497 27.8925ZM10.408 29.8074C10.4276 29.3997 10.3821 28.9873 10.2417 28.6026C10.1348 28.3101 9.97477 28.0382 9.78357 27.7926C9.55883 27.5049 9.29097 27.2506 8.99722 27.0337L8.99049 27.0289C8.99002 27.0313 8.98905 27.0341 8.9881 27.037C8.93539 27.2382 8.89755 27.4432 8.87502 27.6502C8.85777 27.8136 8.8501 27.9785 8.85394 28.1433C8.86113 28.4549 8.91 28.7675 9.01398 29.0619C9.11844 29.3567 9.27658 29.6306 9.46682 29.8781C9.56314 30.0033 9.6676 30.1218 9.77878 30.2341C9.84299 30.2987 9.90865 30.3608 9.9767 30.421L9.9719 30.3163C9.88037 30.0884 9.79795 29.8571 9.71744 29.6253C9.63742 29.3868 9.56075 29.1479 9.49271 28.9051C9.42418 28.6628 9.36141 28.4181 9.31541 28.1672L9.31637 28.1668C9.44959 28.3847 9.56649 28.6088 9.6767 28.8353C9.78836 29.0614 9.8909 29.2908 9.99009 29.5216C10.0121 29.5737 10.0337 29.6258 10.0553 29.6779L10.1779 29.718C10.2556 29.7443 10.3322 29.7744 10.408 29.8074ZM37.6592 30.1338L37.6487 30.3589C37.849 30.1935 38.0234 29.9952 38.1442 29.7648C38.2736 29.5173 38.3406 29.2406 38.3636 28.9634C38.3689 28.9027 38.3718 28.8411 38.3727 28.7799L38.3679 28.583L38.1969 28.6815C38.1446 28.714 38.0938 28.7484 38.044 28.7847C37.8049 28.9582 37.5912 29.1737 37.4455 29.4322C37.3358 29.6272 37.2668 29.8423 37.2289 30.0626L37.3655 30.0162L37.3856 29.9823C37.4728 29.8399 37.5634 29.6989 37.6621 29.5622C37.7603 29.4255 37.8638 29.2917 37.9832 29.166L37.9841 29.1665C37.9472 29.3357 37.8945 29.4963 37.836 29.6545C37.7829 29.8012 37.722 29.9441 37.6583 30.086L37.6592 30.1338ZM36.9165 30.1983C36.9491 29.881 37.0348 29.568 37.1915 29.2898C37.2552 29.177 37.3295 29.0714 37.4129 28.973C37.3842 28.8287 37.3405 28.6872 37.2854 28.551C37.2629 28.4941 37.238 28.4382 37.2112 28.3833L37.1187 28.2088L37.0094 28.3732C36.9778 28.4258 36.9476 28.4793 36.9193 28.5338C36.7832 28.7957 36.6893 29.0838 36.6754 29.3797C36.6611 29.674 36.7262 29.968 36.835 30.2404L36.9165 30.1983ZM10.7386 29.966C10.7856 29.8403 10.8263 29.7118 10.8589 29.5818C10.9293 29.3032 10.9652 29.015 10.9523 28.7273C10.9384 28.4143 10.8661 28.1056 10.7544 27.8136C10.6217 27.4652 10.4348 27.1383 10.211 26.8406L10.1909 26.8143C10.1894 26.8167 10.188 26.8191 10.1866 26.8215C10.0792 26.9997 9.98482 27.1861 9.90527 27.3782C9.89569 27.4017 9.88612 27.4255 9.87702 27.4494C10.1679 27.7835 10.4051 28.1658 10.5445 28.5873C10.6883 29.0217 10.7261 29.4862 10.6912 29.9412C10.6849 29.9379 10.717 29.9546 10.7386 29.966ZM38.7379 28.9156C38.8021 28.9022 38.8654 28.886 38.9281 28.8674C39.2458 28.7747 39.5516 28.6217 39.7916 28.3914C39.9934 28.1978 40.1448 27.9565 40.255 27.7008C40.279 27.6449 40.301 27.5876 40.3216 27.5297L40.3801 27.3414L40.186 27.3806C40.1266 27.395 40.0672 27.4117 40.0087 27.4299C39.8266 27.4872 39.6493 27.5651 39.4869 27.6659C39.4677 27.7596 39.4423 27.8523 39.4102 27.9431C39.2875 28.2862 39.0704 28.5911 38.8117 28.8459C38.7872 28.8697 38.7633 28.8932 38.7379 28.9156ZM38.4178 28.237C38.4312 28.1983 38.4451 28.1596 38.459 28.1209C38.5179 27.9646 38.5797 27.8088 38.6507 27.6564C38.7211 27.5034 38.7978 27.3524 38.8907 27.2067L38.8922 27.2072C38.8879 27.3802 38.8663 27.5479 38.839 27.7137C38.8126 27.88 38.7767 28.0435 38.7384 28.206C38.712 28.3082 38.6852 28.41 38.6554 28.5113L38.6602 28.5854C38.884 28.3522 39.069 28.075 39.1625 27.7639C39.243 27.4968 39.2559 27.2124 39.2262 26.9357C39.2195 26.875 39.2109 26.8143 39.1998 26.7541L39.1581 26.561L39.0086 26.6905C38.9636 26.7321 38.92 26.7756 38.8783 26.8205C38.6761 27.0361 38.5074 27.2879 38.4135 27.5694C38.3373 27.7978 38.3119 28.0401 38.3219 28.2805L38.4274 28.2332L38.4178 28.237ZM38.0407 28.4363C38.0105 28.1142 38.0344 27.7849 38.137 27.4772C38.1782 27.3548 38.2314 27.2373 38.2942 27.1245C38.2386 26.9883 38.1686 26.8578 38.089 26.7345C38.056 26.6829 38.021 26.6322 37.9841 26.5835L37.86 26.4296L37.7843 26.6122C37.7632 26.6695 37.7436 26.7273 37.7263 26.7861C37.6425 27.069 37.6051 27.3701 37.6472 27.6635C37.6894 27.9565 37.8102 28.2342 37.9702 28.4822L38.0407 28.4363ZM30.433 27.3725C30.4272 27.3806 30.4215 27.3887 30.4157 27.3954C34.2052 25.2114 35.5019 20.3785 33.311 16.6007C32.2367 14.7479 30.4565 13.4084 28.3739 12.8889C32.9545 16.3216 33.8765 22.8067 30.433 27.3725ZM14.6881 16.6007C12.4977 20.3785 13.7944 25.2114 17.5839 27.3954C17.5781 27.3887 17.5724 27.3806 17.5666 27.3725C14.1232 22.8067 15.0447 16.3216 19.6253 12.8889C17.5432 13.4084 15.7625 14.7479 14.6881 16.6007ZM8.98859 26.6757C9.04706 26.7121 9.15056 26.7852 9.14577 26.7823C9.26892 26.302 9.3063 25.7926 9.19801 25.3061C9.13379 25.0184 9.02071 24.7426 8.87599 24.4865C8.69629 24.1692 8.46866 23.8786 8.21037 23.6215L8.18689 23.5981C8.18593 23.6009 8.18451 23.6033 8.18355 23.6062C8.10305 23.7978 8.03644 23.9957 7.98517 24.1974C7.94443 24.357 7.91376 24.519 7.89412 24.6824C7.8577 24.9921 7.86202 25.3085 7.92383 25.6148C7.98517 25.9211 8.10303 26.2146 8.25685 26.4865C8.33783 26.6299 8.4289 26.7675 8.52809 26.8994C8.57553 26.9625 8.62487 27.0241 8.67614 27.0848L8.69723 26.9993C8.63781 26.7579 8.58799 26.5147 8.54055 26.2709C8.49503 26.0239 8.45237 25.7763 8.41979 25.5264C8.38576 25.2769 8.35844 25.0256 8.34789 24.7708L8.34936 24.7704C8.45047 25.005 8.53431 25.243 8.61194 25.4829C8.69053 25.7223 8.75906 25.9641 8.82519 26.2064C8.86304 26.3517 8.89994 26.497 8.93492 26.6428L8.98859 26.6757ZM7.64396 24.3938C7.45372 24.2418 7.24913 24.108 7.03541 23.9919L7.00616 23.9761C7.00616 23.979 7.00567 23.9818 7.00519 23.9847C6.98123 24.1983 6.97357 24.4138 6.98267 24.6289C6.98938 24.7861 7.00569 24.9433 7.03204 25.0987C7.08571 25.415 7.18347 25.7252 7.33634 26.0086C7.47674 26.269 7.66172 26.5037 7.87256 26.7111C8.00194 26.8387 8.14136 26.9562 8.288 27.0638C8.27218 27.0427 8.25639 27.0217 8.24105 27.0002C7.95545 26.6031 7.73503 26.1529 7.63823 25.6717C7.55341 25.2506 7.56585 24.8153 7.64396 24.3938ZM39.5357 26.9109C39.5976 26.8894 39.6584 26.8654 39.7178 26.8392C40.0216 26.7073 40.3063 26.518 40.5152 26.2595C40.6911 26.042 40.8109 25.784 40.888 25.5168C40.9048 25.458 40.9201 25.3983 40.9331 25.3386L40.9676 25.1441L40.7797 25.2076C40.7222 25.2291 40.6657 25.253 40.6096 25.2784C40.4366 25.3582 40.2703 25.4571 40.1218 25.5775C40.1151 25.6731 40.1012 25.7682 40.0806 25.8619C40.002 26.2179 39.8247 26.5477 39.5999 26.8325C39.5789 26.8588 39.5578 26.8851 39.5357 26.9109ZM9.41459 26.907C9.51474 26.7407 9.6034 26.5673 9.6772 26.3876C9.78598 26.1219 9.86215 25.8413 9.88995 25.5551C9.92014 25.243 9.89186 24.9276 9.82285 24.6222C9.74043 24.259 9.601 23.9087 9.42178 23.5828L9.40549 23.5541C9.40357 23.556 9.40166 23.5584 9.40022 23.5603C9.26893 23.7223 9.14913 23.8929 9.04323 24.0726C9.03029 24.0946 9.01781 24.1166 9.00535 24.1386C9.24639 24.5104 9.42752 24.9223 9.50563 25.3586C9.59045 25.8298 9.55645 26.3164 9.44623 26.7809C9.43617 26.8229 9.42561 26.865 9.41459 26.907ZM38.78 26.5061C38.7125 26.1954 38.6967 25.8714 38.759 25.5589C38.7844 25.4322 38.8222 25.3085 38.8706 25.189C38.7983 25.0609 38.713 24.94 38.6186 24.8277C38.5788 24.7804 38.5376 24.735 38.4954 24.691L38.3526 24.5534L38.3009 24.7441C38.2865 24.8038 38.2745 24.864 38.2649 24.9242C38.217 25.2153 38.2175 25.5183 38.2961 25.804C38.3742 26.0874 38.527 26.346 38.7144 26.5706L38.78 26.5061ZM39.4533 26.5424C39.6287 26.2953 39.7619 26.0153 39.8122 25.7156C39.8587 25.4399 39.8357 25.1565 39.7715 24.886C39.7571 24.8263 39.7408 24.767 39.7226 24.7087L39.657 24.5223L39.5247 24.6695C39.4854 24.7164 39.448 24.7646 39.4116 24.8143C39.2386 25.0537 39.103 25.3247 39.045 25.6153C39.0005 25.8365 39.0024 26.0645 39.0359 26.2877L39.1476 26.2079C39.1514 26.1911 39.1553 26.1739 39.1591 26.1572C39.1979 25.9947 39.2396 25.8327 39.2914 25.6726C39.3417 25.5121 39.3987 25.3524 39.473 25.1962L39.4744 25.1966C39.4917 25.3687 39.4916 25.5379 39.4854 25.7056C39.4801 25.8738 39.4648 26.0406 39.4471 26.2064C39.4385 26.2748 39.4293 26.3436 39.4193 26.4115L39.4533 26.5424ZM40.198 24.9257C40.255 24.8941 40.3111 24.8607 40.3662 24.8253C40.6436 24.6456 40.8933 24.4119 41.0572 24.1228C41.1952 23.88 41.2709 23.6057 41.3035 23.3295C41.3102 23.2683 41.3155 23.2072 41.3183 23.146L41.3203 22.9486L41.1458 23.0418C41.0926 23.0729 41.0404 23.1054 40.9896 23.1398C40.832 23.2468 40.6839 23.3715 40.5574 23.5144C40.566 23.61 40.5684 23.7056 40.5631 23.8017C40.544 24.1658 40.4232 24.5195 40.2483 24.8377C40.232 24.8674 40.2152 24.8965 40.198 24.9257ZM38.8711 24.6762C38.9243 24.7422 38.9751 24.81 39.022 24.8803C39.0278 24.8707 39.0335 24.8607 39.0393 24.8511C38.9804 24.7957 38.9243 24.7374 38.8711 24.6762ZM39.7154 24.0784C39.725 23.967 39.737 23.8552 39.7533 23.7434C39.7772 23.577 39.8069 23.4103 39.8549 23.244H39.8558C39.9014 23.4107 39.9292 23.578 39.9502 23.7448C39.9728 23.9116 39.9852 24.0784 39.9948 24.2452C39.9996 24.3728 40.0034 24.5003 40.0025 24.6279C40.0058 24.6389 40.0092 24.6499 40.0125 24.6614L40.0178 24.6509C40.1716 24.3589 40.2742 24.033 40.2747 23.7008C40.2751 23.4217 40.2061 23.1455 40.0983 22.8894C40.0744 22.8325 40.049 22.777 40.0212 22.7221L39.9258 22.5491L39.8194 22.7159C39.7887 22.7689 39.759 22.8225 39.7317 22.8774C39.6 23.1417 39.5108 23.4313 39.5012 23.7276C39.496 23.8925 39.5151 24.0569 39.5535 24.2169C39.5669 24.2045 39.7154 24.0784 39.7154 24.0784ZM39.3191 24.4621C39.2429 24.2217 39.2018 23.9704 39.2099 23.718C39.2142 23.589 39.2314 23.4609 39.2592 23.3352C39.1672 23.2205 39.0628 23.1149 38.9511 23.0198C38.9046 22.9797 38.8563 22.9414 38.8069 22.9051L38.6444 22.7928L38.6238 22.9892C38.62 23.0504 38.6181 23.1116 38.6181 23.1727C38.6186 23.4681 38.6689 23.7668 38.7935 24.0358C38.8927 24.2499 39.0364 24.4401 39.2041 24.606L39.3191 24.4621ZM8.78111 23.6745C8.82232 23.6258 8.86209 23.5766 8.90091 23.5259C9.17165 23.1737 9.38537 22.7718 9.48504 22.3374C9.55069 22.0502 9.56698 21.7524 9.54638 21.459C9.5205 21.0953 9.43998 20.736 9.31731 20.3933L9.30581 20.3622C9.3039 20.3642 9.3015 20.3661 9.29958 20.368C9.14385 20.5066 8.99867 20.6566 8.86593 20.8172C8.84964 20.8368 8.83382 20.8564 8.81752 20.8765C8.99674 21.2812 9.10984 21.7166 9.11799 22.1601C9.12661 22.6385 9.01542 23.114 8.83285 23.5546C8.81656 23.5947 8.79932 23.6349 8.78111 23.6745ZM6.87007 20.4L6.86767 20.4081C6.81161 20.6084 6.77087 20.8129 6.74547 21.0194C6.72535 21.1828 6.71529 21.3477 6.71672 21.5121C6.7196 21.8241 6.76369 22.1371 6.86384 22.4334C6.96351 22.7297 7.11734 23.006 7.30422 23.2559C7.40294 23.3883 7.51076 23.5135 7.62577 23.6315C7.63152 23.6377 7.64253 23.6482 7.64253 23.6482C7.63103 23.6258 7.61955 23.6033 7.60805 23.5809C7.38953 23.1436 7.24289 22.6643 7.2242 22.1739C7.20743 21.7448 7.28889 21.3166 7.43265 20.9133L7.43312 20.9128C7.26923 20.7331 7.08858 20.5682 6.89642 20.4201L6.87007 20.4ZM8.52712 23.5297C8.60427 23.3553 8.66896 23.1751 8.71832 22.9911C8.79355 22.714 8.8343 22.4263 8.82615 22.1391C8.81705 21.8256 8.74995 21.5159 8.64309 21.2215C8.58655 21.0657 8.51898 20.9142 8.44231 20.767C8.34311 20.5763 8.22858 20.3933 8.10063 20.2203L8.09584 20.2131C8.09392 20.2155 8.09251 20.2179 8.09107 20.2203C7.97702 20.4029 7.87735 20.594 7.79301 20.7919C7.72784 20.9443 7.67224 21.1011 7.62767 21.2607C7.54429 21.5622 7.50069 21.8762 7.5165 22.1892C7.53136 22.4922 7.5999 22.7914 7.70532 23.0757C7.76187 23.2277 7.82845 23.3759 7.90368 23.5197L8.00769 23.2937L8.03307 23.2454C8.0278 23.1331 8.02348 23.0203 8.01965 22.908C8.01438 22.6566 8.01151 22.4057 8.01918 22.1539C8.02541 21.902 8.03786 21.6497 8.06805 21.3964H8.06949C8.13226 21.6435 8.17682 21.8925 8.21564 22.1414C8.25493 22.39 8.28466 22.6394 8.31101 22.8894C8.32587 23.0437 8.33976 23.1981 8.35126 23.3524L8.52712 23.5297ZM40.4611 22.9013C40.5128 22.8616 40.5626 22.8196 40.611 22.7756C40.8564 22.5543 41.0653 22.2839 41.1808 21.9723C41.2776 21.7104 41.3088 21.4275 41.2963 21.1498C41.2934 21.0886 41.2886 21.0275 41.2814 20.9668L41.2522 20.7713L41.0946 20.8913C41.0471 20.93 41.0011 20.9706 40.9561 21.0127C40.8176 21.1431 40.6915 21.2898 40.5895 21.4514C40.6134 21.5441 40.6312 21.6382 40.6412 21.7343C40.681 22.0965 40.6187 22.465 40.4965 22.8067C40.4855 22.8387 40.4735 22.8702 40.4611 22.9013ZM39.5381 22.6213C39.4145 22.3857 39.3263 22.1314 39.2923 21.8671C39.2755 21.7391 39.2717 21.61 39.2794 21.4815C39.1701 21.383 39.0498 21.2956 38.9243 21.2191C38.8721 21.1871 38.8184 21.157 38.7638 21.1288L38.585 21.0442L38.5965 21.2411C38.6023 21.3023 38.6104 21.363 38.6205 21.4236C38.6684 21.7147 38.7662 22.0014 38.932 22.2475C39.0714 22.454 39.2564 22.6265 39.4615 22.7675L39.5381 22.6213ZM40.1798 22.4072C40.2109 22.4593 40.2406 22.5128 40.2689 22.5668C40.3528 22.28 40.3882 21.9766 40.3403 21.6808C40.2962 21.405 40.1836 21.1431 40.036 20.9075C40.0034 20.8554 39.9694 20.8048 39.933 20.7551L39.8113 20.5993L39.7332 20.7809C39.7111 20.8377 39.6905 20.8956 39.6723 20.9544C39.5846 21.2358 39.5429 21.536 39.5813 21.8303C39.6033 22.0038 39.6536 22.172 39.7226 22.3326L39.851 22.1716C39.8415 22.0502 39.8343 21.9283 39.8328 21.8055C39.829 21.6377 39.8319 21.4686 39.8525 21.2965H39.8539C39.9253 21.4538 39.9795 21.6143 40.0274 21.7754C40.0763 21.9364 40.1151 22.0994 40.151 22.2624C40.1611 22.3106 40.1707 22.3584 40.1798 22.4072ZM40.4817 20.8502C40.5286 20.8053 40.5742 20.7579 40.6178 20.7097C40.8387 20.464 41.0184 20.1735 41.1008 19.8518C41.1703 19.5814 41.1717 19.2965 41.13 19.0217C41.1214 18.961 41.1099 18.9008 41.0965 18.8411L41.0471 18.6499L40.9029 18.7852C40.8597 18.8287 40.8181 18.8741 40.7778 18.9204C40.6532 19.0648 40.5435 19.2239 40.4587 19.395C40.4922 19.4843 40.5195 19.5766 40.5396 19.6703C40.6168 20.0268 40.5928 20.4 40.5071 20.7522C40.4994 20.7852 40.4908 20.8177 40.4817 20.8502ZM39.4921 20.6002C39.3652 20.3966 39.2669 20.1759 39.2113 19.9426C39.1821 19.8189 39.1653 19.6927 39.1591 19.5665L39.1586 19.5599C39.0398 19.4734 38.9113 19.3988 38.7786 19.3357C38.723 19.3094 38.6665 19.2851 38.6094 19.2626L38.4226 19.1967L38.4547 19.3916C38.4666 19.4514 38.481 19.5111 38.4973 19.5704C38.5754 19.8547 38.7019 20.13 38.8926 20.3575C39.0398 20.5329 39.2219 20.6757 39.4198 20.79L39.4921 20.6002ZM39.5956 18.6294C39.5741 18.691 39.5544 18.7532 39.5372 18.8162C39.5209 18.875 39.507 18.9348 39.495 18.995C39.437 19.2841 39.4265 19.5871 39.495 19.8757C39.529 20.0182 39.5818 20.1553 39.6479 20.2858L39.749 20.1195L39.795 20.1634C39.7744 20.0516 39.7562 19.9388 39.7428 19.8251C39.7222 19.6583 39.7073 19.4896 39.7097 19.3166L39.7106 19.3161C39.7983 19.4657 39.8688 19.6196 39.933 19.7749C39.9986 19.9302 40.0542 20.0879 40.1069 20.2466C40.1505 20.3852 40.1932 20.5247 40.2287 20.6657C40.231 20.6547 40.2334 20.6437 40.2363 20.6323C40.3077 20.3102 40.3211 19.9689 40.2349 19.6483C40.162 19.3787 40.0231 19.1302 39.8515 18.9109C39.8137 18.8626 39.7744 18.8153 39.7336 18.7699L39.5961 18.6275L39.5956 18.6294ZM9.90817 17.2731C9.90817 17.2731 9.65611 17.4504 9.52289 17.524C9.45389 17.5623 9.38391 17.599 9.31251 17.6334C9.38918 18.0616 9.39686 18.5037 9.30342 18.9295C9.20087 19.3969 8.98283 19.8337 8.70346 20.2208C8.67806 20.2561 8.65172 20.291 8.62537 20.3255C8.67664 20.2877 8.72696 20.249 8.77631 20.2084C9.12085 19.9278 9.42179 19.5861 9.6197 19.1861C9.75004 18.9219 9.83483 18.6366 9.88275 18.346C9.94074 17.9919 9.9465 17.6296 9.90817 17.2731ZM8.4011 20.1395L8.40446 20.1352C8.7121 19.7319 8.95075 19.266 9.0394 18.7637C9.09163 18.4655 9.09161 18.1596 9.05279 17.86C9.00727 17.5063 8.90953 17.1594 8.77248 16.8306L8.75953 16.8C8.75761 16.8019 8.75569 16.8038 8.7533 16.8057C8.60523 16.9524 8.46819 17.1097 8.3436 17.2765C8.24488 17.4088 8.1543 17.547 8.07332 17.6903C7.92093 17.9627 7.80403 18.2566 7.74317 18.5634C7.68279 18.8698 7.67943 19.1857 7.71729 19.4953C7.73693 19.6588 7.76857 19.8208 7.8093 19.9804C7.81792 20.0134 7.82701 20.0463 7.83612 20.0788L7.96981 19.8805C7.99808 19.7214 8.02972 19.5627 8.06182 19.4045C8.11453 19.1589 8.17014 18.9137 8.23579 18.6705C8.3 18.4272 8.37092 18.1845 8.45909 17.945H8.46053C8.46388 18.2002 8.44997 18.4526 8.42985 18.7035C8.41068 18.9548 8.38145 19.2043 8.34982 19.4533C8.32587 19.6244 8.30094 19.7955 8.27267 19.9656L8.4011 20.1395ZM7.5237 16.6996L7.5194 16.7068C7.41877 16.8894 7.33154 17.0786 7.25918 17.2736C7.20168 17.428 7.15375 17.5861 7.11733 17.7467C7.04737 18.0507 7.01815 18.3656 7.0469 18.6767C7.07517 18.9878 7.16143 19.2922 7.28506 19.5785C7.35023 19.73 7.42643 19.8762 7.51077 20.0182C7.51412 20.0234 7.51748 20.0292 7.52083 20.0349L7.52416 20.0401C7.51793 20.0148 7.5117 19.9895 7.50547 19.9642C7.38951 19.4691 7.3603 18.9481 7.46956 18.4492C7.55725 18.0487 7.72928 17.6712 7.95258 17.3281C7.83135 17.1083 7.68853 16.8999 7.52896 16.7063L7.5237 16.6996ZM39.2377 18.811C39.0939 18.6284 38.9751 18.4263 38.895 18.2074C38.8514 18.0879 38.8198 17.9651 38.7987 17.8404L38.7978 17.8342C38.6693 17.7615 38.5333 17.7028 38.3938 17.6554C38.3358 17.6358 38.2769 17.6182 38.2175 17.6029L38.0244 17.5589L38.079 17.7491C38.0981 17.8069 38.1192 17.8648 38.1422 17.9216C38.2529 18.195 38.4115 18.4535 38.6277 18.6571C38.792 18.8119 38.9866 18.9314 39.1936 19.0217L39.2377 18.811ZM40.2636 18.9606C40.3048 18.9104 40.3441 18.8583 40.382 18.8053C40.5722 18.5353 40.7165 18.2261 40.7605 17.8968C40.7974 17.6201 40.7658 17.3372 40.6925 17.0691C40.6762 17.0098 40.658 16.9515 40.6379 16.8932L40.566 16.7092L40.439 16.8607C40.4012 16.909 40.3647 16.9587 40.3307 17.0093C40.2239 17.1675 40.1333 17.3381 40.0695 17.5178C40.1132 17.6029 40.151 17.6913 40.1822 17.7821C40.3005 18.1271 40.3207 18.5004 40.2775 18.8607C40.2732 18.8941 40.2689 18.9271 40.2636 18.9606ZM40.0044 18.6375C40.0178 18.3517 39.9838 18.0621 39.8769 17.7959C39.7729 17.5369 39.6057 17.3061 39.4097 17.1082C39.3666 17.0648 39.3215 17.0227 39.2755 16.9821L39.1227 16.8569L39.0863 17.0509C39.0772 17.1116 39.07 17.1723 39.0652 17.2335C39.0417 17.5278 39.0671 17.8294 39.1687 18.108C39.2147 18.2327 39.2751 18.3513 39.3465 18.4626L39.4021 18.3307L39.4845 18.1572L39.4576 18.2136C39.4404 18.1525 39.4241 18.0908 39.4092 18.0291C39.3685 17.8657 39.3345 17.6999 39.3163 17.5278L39.3177 17.5274C39.4222 17.6655 39.5099 17.8103 39.5923 17.957C39.6752 18.1037 39.749 18.2538 39.8204 18.4048C39.8295 18.4258 39.8391 18.4468 39.8486 18.4679L40.0044 18.6375ZM38.7963 17.0203C38.6526 16.8703 38.528 16.703 38.4321 16.518C38.3732 16.4053 38.3263 16.2872 38.2894 16.1663L38.2874 16.1601C38.1509 16.1047 38.0085 16.0636 37.8643 16.0344C37.8039 16.0225 37.7431 16.0124 37.6822 16.0043L37.4853 15.9857L37.5639 16.1668C37.5902 16.2222 37.6185 16.2767 37.6487 16.3302C37.7934 16.5873 37.9836 16.8239 38.2242 16.9983C38.3895 17.1183 38.5759 17.2067 38.7705 17.2688L38.7868 17.091C38.7896 17.0676 38.793 17.0437 38.7963 17.0203ZM9.96517 16.8693C10.1209 16.7369 10.2632 16.5897 10.3869 16.4272C10.5771 16.1778 10.7189 15.8944 10.821 15.5981C10.9418 15.2459 11.0079 14.875 11.0266 14.5037L11.028 14.4703C11.0252 14.4712 11.0228 14.4722 11.0199 14.4731C10.823 14.5419 10.6313 14.6251 10.4468 14.7226C10.4242 14.7345 10.4017 14.7465 10.3792 14.7589C10.3888 15.2014 10.3265 15.6468 10.1631 16.0593C10.0011 16.4698 9.74621 16.8392 9.4424 17.1584L9.65755 17.027C9.75051 16.974 9.96517 16.8693 9.96517 16.8693ZM39.8851 17.0915C39.9201 17.0361 39.9522 16.9797 39.9828 16.9224C40.1376 16.6304 40.2411 16.3049 40.2425 15.9728C40.244 15.6937 40.1759 15.417 40.0691 15.1603C40.0451 15.104 40.0197 15.048 39.9924 14.9936L39.8975 14.8201L39.7907 14.9864C39.7595 15.0389 39.7303 15.093 39.7025 15.1474C39.6167 15.3176 39.5487 15.4982 39.5084 15.6851C39.5631 15.7639 39.6119 15.8466 39.6541 15.9326C39.8156 16.26 39.8836 16.6275 39.886 16.9902C39.8865 17.0237 39.886 17.0576 39.8851 17.0915ZM9.1592 17.0327C9.27181 16.92 9.37771 16.801 9.47498 16.6748C9.65085 16.4473 9.79891 16.1969 9.90194 15.9283C10.0141 15.6354 10.0711 15.3238 10.0855 15.0108C10.1022 14.639 10.0615 14.2648 9.97526 13.9025L9.9671 13.8705C9.96471 13.8724 9.9628 13.8739 9.96041 13.8758C9.79077 13.9967 9.62975 14.13 9.48025 14.2753C9.36189 14.39 9.25022 14.5118 9.14767 14.6409C8.94785 14.8922 8.78158 15.1718 8.67281 15.4748C8.57026 15.7606 8.51898 16.0631 8.507 16.3656C8.50317 16.4578 8.50318 16.5496 8.50653 16.6413C8.56452 16.5826 8.62488 16.5257 8.6867 16.4707L8.85154 16.3331L8.8568 16.3431L8.8616 16.3307C8.95313 16.0965 9.04706 15.8638 9.15057 15.6339C9.25311 15.4036 9.36189 15.1756 9.48744 14.9529L9.48838 14.9534C9.45148 15.2057 9.39734 15.4528 9.33696 15.6975C9.27802 15.9422 9.20951 16.184 9.13811 16.4249C9.10744 16.5252 9.0758 16.6251 9.0437 16.7245C9.0504 16.7398 9.05662 16.7551 9.06285 16.7708C9.09783 16.8569 9.12996 16.9443 9.1592 17.0327ZM39.5918 16.8789C39.576 16.5687 39.5055 16.2576 39.3532 15.9852C39.2166 15.7415 39.0215 15.5336 38.8016 15.3625C38.7532 15.3247 38.7034 15.2889 38.6526 15.2545L38.4849 15.1498L38.4739 15.3467C38.4724 15.4079 38.4734 15.4695 38.4762 15.5307C38.4901 15.8251 38.5539 16.1214 38.6909 16.3847C38.7417 16.4832 38.8026 16.5763 38.8711 16.6633L38.9564 16.4024L38.9736 16.4134C38.9549 16.3675 38.9363 16.3221 38.919 16.2758C38.8577 16.119 38.8026 15.9594 38.7628 15.7907L38.7638 15.7902C38.8855 15.9135 38.9909 16.0459 39.0915 16.1811C39.1926 16.3159 39.2851 16.4554 39.3747 16.5964C39.4121 16.6571 39.449 16.7173 39.4849 16.779L39.5918 16.8789ZM9.08634 14.2638C9.0044 14.0349 8.9009 13.8141 8.78015 13.6034L8.76336 13.5747C8.76144 13.5771 8.76001 13.5795 8.75809 13.5814C8.62536 13.751 8.50507 13.9302 8.40013 14.1181C8.32298 14.2557 8.25352 14.3976 8.19458 14.5439C8.07718 14.833 7.9976 15.1393 7.97604 15.4509C7.95448 15.7625 7.9909 16.0765 8.06709 16.379C8.10734 16.5386 8.15864 16.6958 8.2195 16.8487C8.22285 16.8569 8.22571 16.8645 8.22906 16.8726C8.22954 16.8765 8.22523 16.8244 8.22283 16.7952C8.18737 16.2877 8.242 15.7692 8.42985 15.2937C8.58031 14.9123 8.8108 14.5673 9.08634 14.2638ZM38.1815 15.3768C37.9712 15.2449 37.779 15.0829 37.6233 14.8894C37.5432 14.79 37.4738 14.6839 37.4134 14.5725C37.4134 14.5725 37.3046 14.5491 37.2514 14.5429C37.1771 14.5343 37.1024 14.53 37.0271 14.5276C36.9994 14.5271 36.9711 14.5271 36.9428 14.5271C36.8906 14.5281 36.8388 14.53 36.7866 14.5333L36.5897 14.5539C36.6481 14.6456 36.7128 14.7336 36.7823 14.8177C36.9936 15.0719 37.2548 15.2922 37.5615 15.4213C37.7599 15.5049 37.9721 15.5498 38.1863 15.5661L38.1815 15.3768ZM38.6516 13.1197C38.6387 13.1556 38.5141 13.7869 38.5131 13.86C38.5821 13.9269 38.6463 13.9986 38.7053 14.0746C38.9286 14.3637 39.0676 14.7102 39.1423 15.0652C39.1495 15.0982 39.1557 15.1312 39.1615 15.1646C39.1845 15.1035 39.2051 15.0418 39.2238 14.9797C39.3172 14.6629 39.3541 14.3235 39.2899 13.9976C39.2358 13.7238 39.1145 13.4662 38.9588 13.2359C38.9243 13.1847 38.8884 13.1355 38.8505 13.0868L38.723 12.9357L38.6516 13.1197ZM38.8347 15.0265C38.7585 14.7212 38.6267 14.4258 38.4202 14.1854C38.2386 13.9732 38.0057 13.8079 37.7565 13.6836C37.7014 13.6559 37.6458 13.6306 37.5888 13.6072L37.4038 13.5374L37.4316 13.7329C37.4426 13.7931 37.4556 13.8528 37.4704 13.9126C37.5428 14.1983 37.664 14.4765 37.8504 14.7073C37.9525 14.8339 38.0723 14.9448 38.2036 15.0409L38.2395 14.8311C38.1748 14.7412 38.112 14.65 38.0526 14.5558C37.9616 14.4139 37.8758 14.2681 37.803 14.1109L37.8044 14.1099C37.9477 14.2074 38.0775 14.3159 38.2026 14.4292C38.3286 14.541 38.447 14.6595 38.563 14.7799C38.6157 14.8368 38.6679 14.8937 38.7197 14.9515C38.7585 14.9754 38.7968 15.0007 38.8347 15.0265ZM10.2714 13.8901C10.2982 14.0077 10.3447 14.2413 10.3447 14.2413C10.7151 13.9948 11.0472 13.6836 11.2825 13.3042C11.4377 13.0538 11.5494 12.7776 11.6251 12.4932C11.7186 12.1405 11.7588 11.7744 11.7535 11.4108L11.7531 11.3773C11.7502 11.3788 11.7478 11.3797 11.7449 11.3807C11.5528 11.4624 11.3668 11.5575 11.189 11.6664C11.0486 11.7525 10.913 11.8471 10.7846 11.9508C10.5417 12.1472 10.3236 12.3766 10.1535 12.6394C9.98291 12.9018 9.86217 13.1938 9.78214 13.4953C9.76633 13.5556 9.75194 13.6158 9.739 13.6765L9.94841 13.5341L10.1329 13.4241L10.1597 13.503C10.2925 13.3066 10.4276 13.1116 10.5709 12.9209C10.7209 12.7183 10.8771 12.5195 11.0477 12.3298L11.0491 12.3302C10.9576 12.5687 10.8507 12.7976 10.7386 13.0232C10.6274 13.2497 10.5076 13.4705 10.3854 13.6903C10.3476 13.7563 10.3097 13.8227 10.2709 13.8887L10.2714 13.8901ZM11.3122 14.0884C11.3151 14.1496 11.316 14.1754 11.316 14.1754C11.4387 14.097 11.5552 14.0091 11.6639 13.9116C11.8954 13.7037 12.088 13.4552 12.2452 13.1876C12.4259 12.8798 12.5619 12.5458 12.6549 12.2012L12.6568 12.1931C12.6544 12.1936 12.6515 12.194 12.6487 12.194C12.4345 12.2194 12.2222 12.261 12.0142 12.3188C11.9965 12.3236 11.9788 12.3288 11.961 12.3341C11.8738 12.7675 11.7152 13.189 11.466 13.556C11.2954 13.8069 11.087 14.0296 10.8541 14.2237C10.9423 14.1917 11.0319 14.162 11.1224 14.1372L11.3122 14.0884ZM37.1561 13.8409C36.9783 13.731 36.8149 13.5986 36.6754 13.4428C36.5897 13.3463 36.5135 13.2421 36.4468 13.1317C36.3582 13.1197 36.2691 13.113 36.1795 13.1111C36.1598 13.1111 36.1397 13.1106 36.1201 13.1106C35.9547 13.1121 35.7899 13.1293 35.6274 13.1599L35.626 13.1603C35.6893 13.2488 35.7583 13.3333 35.8321 13.4136C36.0558 13.6569 36.328 13.8638 36.6409 13.9771C36.8259 14.044 37.0204 14.0784 37.2164 14.0879L37.216 14.0856C37.1949 14.0134 37.1561 13.8409 37.1561 13.8409ZM10.8071 11.5699C10.8019 11.5269 10.7956 11.4844 10.7889 11.4418C10.7563 11.2363 10.7079 11.0337 10.6452 10.8354L10.6423 10.8273C10.6404 10.8292 10.638 10.8306 10.6361 10.8325C10.3533 11.0638 10.0989 11.3314 9.88898 11.6296C9.70497 11.892 9.55595 12.1797 9.46442 12.487C9.37529 12.7866 9.34174 13.1011 9.34989 13.4127C9.35468 13.5775 9.37052 13.742 9.39639 13.9044C9.39783 13.913 9.39926 13.9216 9.40069 13.9302L9.41172 13.8523C9.48456 13.3692 9.64125 12.8937 9.90864 12.4813C10.143 12.1209 10.4564 11.8175 10.8071 11.5699ZM38.3301 13.1685C38.3589 12.9348 38.3521 12.6968 38.2946 12.4679C38.2266 12.1969 38.0924 11.946 37.9247 11.7233C37.8878 11.6746 37.849 11.6268 37.8092 11.5804L37.6741 11.4356L37.6122 11.623C37.595 11.6817 37.5797 11.7415 37.5662 11.8012C37.5255 11.9871 37.5049 12.1792 37.5121 12.3699L37.5164 12.3737C37.5869 12.4359 37.653 12.5023 37.7143 12.574C37.952 12.8512 38.1092 13.1905 38.2017 13.5412C38.2089 13.568 38.2156 13.5948 38.2218 13.621L38.2299 13.6272C38.2338 13.6153 38.2424 13.5809 38.2424 13.5809C38.2606 13.4414 38.2908 13.3032 38.3301 13.1685ZM36.3874 12.1051C36.398 12.1697 36.4104 12.2337 36.4253 12.2973C36.4392 12.357 36.455 12.4163 36.4732 12.475C36.56 12.757 36.6956 13.028 36.893 13.2497C36.9577 13.3219 37.0286 13.3883 37.1038 13.449L37.1 13.1603L37.1469 13.1709C37.1268 13.1436 37.1067 13.1159 37.087 13.0877C36.9893 12.951 36.8959 12.8096 36.8154 12.6562L36.8163 12.6552C36.9644 12.7455 37.1 12.8473 37.2308 12.9534C37.3621 13.059 37.4862 13.1713 37.6084 13.286L37.6357 13.3123C37.675 13.3276 37.7138 13.3439 37.7527 13.3606C37.7872 13.3764 37.8217 13.3921 37.8562 13.4088C37.7637 13.1479 37.6271 12.9009 37.4354 12.6992C37.2428 12.4966 37.0022 12.3436 36.7468 12.2318C36.6908 12.2069 36.6337 12.1845 36.5758 12.1639L36.3869 12.1037L36.3874 12.1051ZM35.0902 11.795C35.027 11.796 34.9637 11.7988 34.9005 11.8041L34.6542 11.8361C34.716 11.9255 34.7836 12.0115 34.8559 12.0927C35.0754 12.3398 35.3442 12.551 35.6557 12.67C35.8541 12.7455 36.0654 12.7833 36.2777 12.7933L36.1934 12.5558C36.0093 12.4402 35.8412 12.3006 35.6988 12.1362C35.6155 12.0397 35.5426 11.936 35.4784 11.8265L35.4755 11.8213C35.4334 11.8146 35.2139 11.7797 35.0902 11.795ZM26.0857 12.3183C25.4096 12.7924 24.4752 12.6308 23.9998 11.9561C23.5244 12.6308 22.59 12.7924 21.9139 12.3183C21.3465 11.9212 21.1275 11.1871 21.3849 10.5443C21.5296 11.3099 22.2694 11.8141 23.0371 11.6688C23.4416 11.5933 23.7938 11.3448 23.9998 10.9893C24.2059 11.3448 24.5581 11.5933 24.962 11.6688C25.7302 11.8141 26.4701 11.3099 26.6148 10.5443C26.8721 11.1871 26.6531 11.9212 26.0857 12.3183ZM37.3712 11.4184C37.364 11.341 37.3521 11.2645 37.3343 11.1885C37.2711 10.9166 37.1407 10.6633 36.9773 10.4382C36.9409 10.3885 36.9035 10.3403 36.8638 10.2935L36.7315 10.1463L36.6663 10.3326C36.6481 10.3914 36.6318 10.4502 36.6174 10.5099C36.5738 10.6954 36.5494 10.887 36.5532 11.0777C36.6242 11.1417 36.6912 11.211 36.7526 11.2851C36.9572 11.5326 37.0986 11.827 37.1891 12.1338C37.2006 12.141 37.2121 12.1482 37.2236 12.1553C37.2337 11.9756 37.2644 11.7964 37.3099 11.623C37.3271 11.5565 37.3712 11.4184 37.3712 11.4184ZM35.4339 10.7938C35.443 10.8588 35.4544 10.9228 35.4683 10.9869C35.4808 11.0466 35.4961 11.1059 35.5129 11.1647C35.5953 11.4485 35.7257 11.7219 35.9197 11.9465C35.9739 12.0096 36.0328 12.0679 36.0951 12.1224C36.0865 12.0645 36.0798 12.0058 36.0755 11.9474L36.0645 11.7424L36.0879 11.7467C36.0026 11.621 35.9221 11.4915 35.8522 11.352L35.8531 11.351C35.9998 11.4437 36.1335 11.5479 36.2624 11.6564C36.3256 11.7095 36.3874 11.7635 36.4483 11.8194L36.7262 11.9097C36.755 11.9207 36.7837 11.9317 36.812 11.9436C36.7281 11.7472 36.6165 11.5632 36.4713 11.4055C36.2825 11.1995 36.0443 11.0423 35.7908 10.9267C35.7353 10.9008 35.6782 10.8774 35.6207 10.8555L35.4334 10.7924L35.4339 10.7938ZM12.8221 11.8882L12.8413 11.8877C12.986 11.8313 13.1259 11.7639 13.2592 11.6846C13.5366 11.5192 13.7805 11.3018 13.989 11.0562C14.0963 10.93 14.1946 10.7962 14.2846 10.6566C14.4011 10.476 14.5032 10.2858 14.5904 10.0894L14.5942 10.0817L14.3881 10.0784C14.312 10.0798 14.2358 10.0822 14.16 10.0875C14.068 10.0932 13.976 10.1023 13.8845 10.1142C13.7321 10.53 13.5107 10.9219 13.2084 11.2469C12.9266 11.5494 12.5825 11.7883 12.2126 11.9713L12.5025 11.9202C12.6084 11.9049 12.7153 11.8935 12.8221 11.8882ZM12.0377 11.7334C12.1417 11.6837 12.2437 11.6292 12.3425 11.5699C12.5816 11.4265 12.8044 11.2535 12.9946 11.0495C13.2146 10.8134 13.3876 10.5362 13.5189 10.2423C13.5864 10.0913 13.643 9.93503 13.6899 9.77637C13.7513 9.56992 13.7959 9.35916 13.8246 9.14602L13.8256 9.13742C13.8227 9.13837 13.8198 9.13885 13.8174 9.13981C13.6152 9.19094 13.4163 9.25641 13.2242 9.33718C13.0718 9.40122 12.9237 9.47385 12.7809 9.55701C12.5107 9.71376 12.26 9.90731 12.0516 10.141C11.8484 10.3685 11.6874 10.6308 11.5633 10.9085C11.5216 11.0026 11.4837 11.0977 11.4497 11.1948C11.4756 11.1823 11.5015 11.1704 11.5278 11.1584C11.6251 11.1145 11.7248 11.0734 11.8259 11.0385L11.9122 11.0103C12.0775 10.8316 12.2457 10.6543 12.4206 10.4827C12.6003 10.3059 12.7848 10.1329 12.9832 9.97134L12.9841 9.97231C12.8571 10.1936 12.7162 10.4038 12.5711 10.6098C12.4263 10.8163 12.2744 11.0165 12.1196 11.2148C12.0938 11.2473 12.0684 11.2793 12.0425 11.3118C12.0444 11.362 12.0454 11.4122 12.0454 11.4624C12.0458 11.5527 12.043 11.643 12.0377 11.7334ZM35.2805 11.394C35.0189 11.2516 34.7788 11.0667 34.5905 10.8359C34.5085 10.7355 34.4371 10.6275 34.3758 10.5142C34.3231 10.5047 34.2699 10.497 34.2162 10.4913C34.1419 10.4832 34.0672 10.4793 33.9919 10.4779L33.7763 10.4832L33.5545 10.5071C33.6139 10.5983 33.679 10.6858 33.749 10.769C33.9618 11.0222 34.2244 11.2406 34.532 11.3682C34.7141 11.4433 34.9072 11.4863 35.1032 11.5044L35.3251 11.5116C35.3093 11.4729 35.2944 11.4337 35.2805 11.394ZM12.8614 9.1833C12.8686 8.94053 12.8528 8.69727 12.8173 8.45737L12.8125 8.42488C12.8102 8.42631 12.8077 8.42774 12.8054 8.42918C12.6257 8.53479 12.4536 8.65379 12.2917 8.78521C12.1637 8.88891 12.042 9.00073 11.9285 9.12021C11.7075 9.35342 11.5173 9.6177 11.3826 9.9097C11.2552 10.1854 11.1775 10.4827 11.1392 10.7833C11.1172 10.9553 11.1076 11.1293 11.1095 11.3028L11.1325 11.2273C11.2849 10.7417 11.5254 10.2786 11.8738 9.90397C12.1537 9.60385 12.4939 9.36586 12.8614 9.1833ZM35.66 10.5606C35.5877 10.4043 35.4961 10.2571 35.383 10.1262C35.1995 9.91543 34.9661 9.75199 34.716 9.62869C34.6609 9.60193 34.6048 9.5766 34.5478 9.55319L34.3624 9.48532L34.3916 9.6803C34.4026 9.74052 34.416 9.80025 34.4314 9.85951C34.5056 10.1453 34.6288 10.4225 34.8162 10.6523C34.9187 10.7775 35.0385 10.887 35.1698 10.9816C35.1492 10.8765 35.1344 10.7694 35.1267 10.6624V10.6619C35.0893 10.6084 35.0529 10.5544 35.0174 10.4994C34.9254 10.358 34.8387 10.2127 34.7654 10.0559L34.7663 10.055C34.9101 10.1515 35.0409 10.2595 35.1669 10.3713C35.1971 10.3981 35.2264 10.4249 35.2556 10.4516C35.2556 10.4516 35.2431 10.4492 35.3064 10.4612C35.3778 10.4755 35.4482 10.4937 35.5182 10.5147C35.5656 10.5286 35.6131 10.5443 35.66 10.5606ZM37.5744 10.9658L37.571 10.963L37.5744 10.9663V10.9658ZM36.2159 10.8244C36.2887 10.5338 36.3113 10.228 36.2514 9.93312C36.1958 9.65976 36.0726 9.40313 35.9149 9.17327C35.8804 9.12309 35.844 9.07338 35.8057 9.02559L35.6777 8.87505L35.6073 9.05952C35.5872 9.11735 35.5695 9.17612 35.5536 9.23538C35.5048 9.41937 35.4751 9.61006 35.4741 9.80074C35.4741 9.80074 35.6088 9.9398 35.6672 10.0139C35.8325 10.2251 35.9528 10.4679 36.0352 10.7226C36.0966 10.7541 36.1569 10.7881 36.2159 10.8244ZM34.1932 10.0841C33.9517 9.96704 33.7279 9.81316 33.542 9.61914C33.4543 9.5269 33.3757 9.42702 33.3062 9.32093L33.3029 9.31567L33.1112 9.30468C33.0958 9.30421 33.0805 9.3042 33.0652 9.3042C32.8702 9.30564 32.6756 9.32905 32.4849 9.37206H32.4834C32.5496 9.45856 32.6219 9.54076 32.6981 9.61865C32.93 9.85426 33.209 10.0516 33.5257 10.1544C33.5799 10.1716 33.6345 10.1864 33.6896 10.1988C33.7605 10.1926 33.8319 10.1888 33.9028 10.1874C33.934 10.1869 33.9656 10.1869 33.9967 10.1874C34.0758 10.1888 34.1549 10.1931 34.2339 10.2012L34.1932 10.0841ZM34.5833 9.25498C34.4994 9.10731 34.3978 8.96967 34.2766 8.8502C34.0772 8.65426 33.8314 8.50946 33.5722 8.40624C33.5152 8.38378 33.4572 8.36275 33.3987 8.34411L33.2085 8.29058L33.253 8.4827C33.2688 8.54196 33.2866 8.60073 33.3067 8.65856C33.4035 8.93765 33.5477 9.20385 33.7528 9.41843C33.8563 9.52643 33.9728 9.61961 34.0988 9.69942L34.0974 9.69178C34.0811 9.59859 34.0691 9.50445 34.0624 9.40982V9.40313C34.0212 9.35295 33.9805 9.30229 33.9412 9.2502C33.8386 9.11686 33.7408 8.97876 33.6551 8.82822L33.656 8.82727C33.8075 8.91234 33.9459 9.00935 34.0801 9.11114L34.0873 9.11687L34.244 9.15033C34.3154 9.16657 34.3854 9.18712 34.4544 9.20958C34.498 9.22392 34.5406 9.23873 34.5833 9.25498ZM35.1501 9.54315C35.211 9.22917 35.2158 8.89943 35.1272 8.58975C35.05 8.32165 34.9067 8.07506 34.7318 7.85857C34.6935 7.81078 34.6532 7.76442 34.6116 7.7195L34.4721 7.57947L34.416 7.7692C34.4007 7.82798 34.3878 7.88819 34.3768 7.94841C34.3423 8.13574 34.3279 8.32833 34.3418 8.51854C34.4156 8.57923 34.486 8.64471 34.5507 8.71592C34.7457 8.92811 34.8914 9.18043 34.9959 9.44805C35.0481 9.47816 35.0998 9.5097 35.1501 9.54315ZM14.1347 8.96537C14.1289 9.0662 14.1169 9.16658 14.1016 9.26598C14.0958 9.30517 14.0891 9.34434 14.0824 9.38353C14.1946 9.29512 14.2976 9.19477 14.3862 9.08198C14.5592 8.86167 14.6761 8.60122 14.7494 8.33216C14.7657 8.27291 14.7796 8.21269 14.7916 8.15247L14.8237 7.95653C14.8228 7.95701 14.8223 7.95701 14.8213 7.95701C14.759 7.97709 14.6967 7.99907 14.6359 8.02296C14.5789 8.04543 14.5223 8.07027 14.4667 8.09656C14.1989 8.22415 13.9487 8.39811 13.758 8.62655C13.6847 8.714 13.621 8.80815 13.5659 8.90707L13.5749 8.90468C13.6919 8.87027 13.8107 8.84016 13.931 8.81722L13.9856 8.80767C14.104 8.69489 14.2266 8.58545 14.3627 8.48701L14.3637 8.48747C14.298 8.64231 14.22 8.78712 14.1361 8.92762L14.1347 8.96537Z" fill="#4E4E4E"/>
</svg>
