<svg width="48" height="49" viewBox="0 0 48 49" fill="none" xmlns="http://www.w3.org/2000/svg">
    <path fill-rule="evenodd" clip-rule="evenodd" d="M.01 23.324c.288-2.448 5.377-8.244 10.938-13.211 5.75-5.137 14.22-9.538 16.704-9.56 2.393-.021 7.252 5.61 12.233 11.45 1.365 1.6 3.265 3.88 5.028 6.04 1.54 1.885 3.044 3.647 3.086 5.192.075 2.83-2.783 3.13-15.991 14.533-4.274 3.69-8.427 7.553-11.007 9.877a3.518 3.518 0 0 1-5.092-.396c-2.294-2.826-5.731-7.084-7.775-9.726C4.834 33.257-.251 25.538.01 23.324zm15.933 22.409.162.099a3.62 3.62 0 0 0 4.17-.276 693.039 693.039 0 0 1 6.056-4.878c4.165-3.293 16.953-13.267 16.953-13.267-3.388 2.64-17.26 15.223-23.27 19.818a2.693 2.693 0 0 1-3.788-.967c-.095-.173-.19-.35-.283-.53zm-.458-2.145.248.152a3.62 3.62 0 0 0 4.068-.197l20.66-15.57c-3.366 2.623-15.284 13.005-20.893 17.144a2.693 2.693 0 0 1-3.782-.964 23.14 23.14 0 0 1-.3-.565zm-.508-2.142.308.188a3.62 3.62 0 0 0 3.99-.14l18.409-13.122c-3.34 2.604-13.414 10.955-18.612 14.638a2.694 2.694 0 0 1-3.773-.962 27.937 27.937 0 0 1-.322-.602zm-.396-2.013.341.209a3.62 3.62 0 0 0 3.946-.109L34.276 28.9c-3.328 2.593-11.063 8.87-15.645 12.012a2.695 2.695 0 0 1-3.731-.894c-.105-.188-.214-.381-.319-.585zM1.851 20.47l-.346.856a3.601 3.601 0 0 0 .154 3.036 209.004 209.004 0 0 0 2.678 4.89c1.8 3.175 7.653 11.75 7.653 11.75-2.13-2.813-4.332-5.643-6.426-8.658-1.598-2.3-3.13-4.79-4.712-7.675A2.684 2.684 0 0 1 .55 23c.088-.637.245-1.23 1.301-2.531zm12.352 16.827.504.266a3.62 3.62 0 0 0 3.598-.124L30.946 29.6c-3.282 2.558-8.723 6.654-12.684 9.22a2.694 2.694 0 0 1-3.713-.889c-.114-.203-.232-.412-.346-.634zm-11.144-17.6-.359.99a3.602 3.602 0 0 0 .168 2.843 104.1 104.1 0 0 0 2.676 4.95c1.486 2.558 5.513 8.994 5.513 8.994-2.13-2.814-2.192-2.888-4.286-5.902-1.605-2.312-3.017-4.696-4.588-7.581a2.682 2.682 0 0 1-.319-1.477c.05-.744.048-1.406 1.195-2.817zM13.655 35.1l.346.233a3.621 3.621 0 0 0 3.747.174l9.714-5.285a156.62 156.62 0 0 1-9.637 6.554 2.697 2.697 0 0 1-3.745-.895 25.514 25.514 0 0 1-.425-.78zM4.469 18.928l-.358.99a3.6 3.6 0 0 0 .168 2.843c.62 1.22 1.41 3.032 2.491 4.894 1.486 2.56 4.97 8.711 4.97 8.711C9.664 33.517 9.234 32.72 7.3 29.6c-1.486-2.398-2.15-3.318-3.657-6.107-.269-.495-.49-1.405-.418-1.964.086-.686.158-1.266 1.243-2.601zm8.728 14.036.335.23a3.62 3.62 0 0 0 3.397.37l7.306-2.94-6.901 4.093a2.696 2.696 0 0 1-3.68-.918c-.154-.272-.31-.55-.457-.835zM5.92 18.124s-.209.454-.358.99c-.305 1.094-.279 1.985.064 2.788.538 1.26 1.038 2.206 2.058 4.179 1.385 2.679 4.306 8.5 4.306 8.5-2.076-2.85-5.388-9.102-6.896-11.89-.268-.496-.49-1.406-.417-1.965.085-.686.158-1.266 1.243-2.601zm23.603-7.472a1.68 1.68 0 0 0-2.211-1.185L12.1 14.982a1.794 1.794 0 0 0-1.16 1.974L13.27 31.3c.094.58.438 1.09.94 1.396a2.019 2.019 0 0 0 1.675.195l15.82-5.15a2.054 2.054 0 0 0 1.363-2.435l-3.545-14.655zM7.476 17.195c-.218.447-.39.951-.512 1.495-.184.826-.14 1.565.202 2.368.538 1.26.866 1.977 1.795 3.994a675.53 675.53 0 0 1 2.779 6.143C9.49 27.776 8.195 24.95 6.687 22.16c-.269-.496-.542-1.72-.47-2.28.086-.685.174-1.352 1.26-2.686zm1.608-.87c-.218.447-.39.95-.512 1.495-.184.826-.04 1.53.203 2.368.409 1.409 2.79 8.184 2.79 8.184-2.1-4.109-2.225-4.644-3.36-7.149-.233-.514-.51-1.637-.437-2.196.085-.686.231-1.368 1.316-2.703zm23.967 11.33.23-.334c.684-.997.933-2.376.548-3.522-.976-2.907-2-6.604-2-6.604s2.533 5.45 2.89 6.453c.496 1.402.433 2.787-.832 3.551-.272.154-.55.31-.836.456zm1.954-.244.23-.334c.685-.997.984-2.417.504-3.526-1.225-2.829-4.793-10.667-4.793-10.667s5.373 9.44 5.736 10.44c.64 1.767.425 2.867-.84 3.631-.273.154-.55.309-.837.456zm2.001-.252.23-.334c.685-.996.974-2.553.504-3.526-1.558-3.226-6.794-12.852-6.794-12.852s7.307 11.255 7.737 12.626c.563 1.793.31 2.735-.84 3.63-.247.193-.55.31-.837.457zm2.074-.218.23-.334c.684-.997.982-2.627.503-3.527-1.835-3.45-9.363-15.459-9.363-15.459s9.832 13.776 10.392 15.215c.683 1.751.224 2.753-.926 3.649-.247.192-.55.309-.836.456zm1.878-.232.23-.335c.684-.996 1.035-2.656.503-3.526C38.956 18.38 30.45 5.812 30.45 5.812c1.192 1.274 10.518 13.351 12.27 16.792.854 1.675.224 2.753-.926 3.649-.247.192-.55.308-.836.456zm2.188-.309.23-.334c.685-.997.954-3.043.354-3.866-3.445-4.726-13.28-17.887-13.28-17.887 1.863 1.833 12.078 14.48 14.459 17.982.666.98.223 2.754-.926 3.649-.247.192-.55.309-.837.456zM30.125 2.736a5.382 5.382 0 0 0-.074-.056c.008-.001.033.018.074.056 2.769 2.153 14.632 15.63 16.784 19.24.628 1.055.223 2.754-.926 3.649-.247.192-.551.309-.837.456l.23-.334c.685-.997 1.061-2.632.438-3.62-2.985-4.726-14.64-18.408-15.69-19.39zM10.7 15.49c-.218.448-.377.826-.498 1.37-.184.825-.162 1.429 0 2.286.378 2.012.854 5.05.854 5.05-.87-2.766-.924-2.931-1.26-4.047-.161-.54-.525-1.464-.453-2.023.086-.686.142-1.284 1.357-2.636zm-4.496.176C12.26 8.372 24.225.879 27.462.993c.98.035 1.711.996 1.711.996s-.898-.384-1.71-.389c-3.43-.018-14.987 7.424-21.258 14.065zm1.97-.966c5.4-5.835 16.05-12.749 19.287-12.635.98.035 1.586.89 1.586.89s-.773-.279-1.586-.283C24.034 2.653 14.716 8.857 8.174 14.7zm1.16-.152C14.66 9.298 24.54 3.033 27.462 3.103c1.115.027 1.463.876 1.463.876s-.65-.264-1.463-.269C24.332 3.693 15.87 9.31 9.335 14.547zm1.722-.571c5.053-4.691 13.82-9.889 16.458-9.713 1.112.074 1.462.875 1.462.875s-.65-.254-1.462-.268c-2.63-.045-9.723 4.24-16.458 9.106zm2.14-.754c5.454-4.206 12.254-7.926 14.318-7.843 1.114.045 1.462.875 1.462.875s-.652-.212-1.462-.268c-1.483-.103-7.675 2.938-14.318 7.236zm2.746-.8c4.81-3.231 9.508-5.79 11.572-5.706 1.114.045 1.462.757 1.462.757s-.587-.129-1.515-.143c-1.485-.023-5.335 1.72-11.519 5.091zm2.668-.61c3.312-2.173 7.11-3.775 8.904-3.775 1.114 0 1.462.756 1.462.756s-.59-.214-1.515-.143c-1.84.142-5.013 1.466-8.85 3.163z" fill="url(#a)"/>
    <defs>
        <linearGradient id="a" x1="48" y1="23.342" x2="0" y2="23.342" gradientUnits="userSpaceOnUse">
            <stop stop-color="#007773"/>
            <stop offset="1" stop-color="#0ED068"/>
        </linearGradient>
    </defs>
</svg>
