<svg width="48" height="49" viewBox="0 0 48 49" fill="none" xmlns="http://www.w3.org/2000/svg">
<path fill-rule="evenodd" clip-rule="evenodd" d="M24 33.5527C27.3115 33.5527 30 36.2412 30 39.5528C30 42.8642 27.3115 45.5527 24 45.5527C20.6885 45.5527 18 42.8642 18 39.5528C18 36.2412 20.6885 33.5527 24 33.5527ZM43.3688 32.0222H4.63139C1.71992 28.7736 0 24.7669 0 20.4341C0 16.3509 1.52747 12.5573 4.14019 9.41491H17.4267C12.6687 11.4771 9.40335 15.7069 9.40335 20.585C9.40335 24.5943 11.6091 28.1657 15.0366 30.4556H32.9634C36.3909 28.1656 38.5966 24.5943 38.5966 20.585C38.5966 15.7069 35.3313 11.4771 30.5733 9.41491H43.8598C46.4724 12.5573 48 16.3509 48 20.4341C48 24.7668 46.28 28.7735 43.3688 32.0222ZM25.4242 26.16H11.9724C17.084 24.213 20.6523 19.8222 20.6523 14.7228C20.6523 9.84466 17.3869 5.61483 12.6289 3.55273H25.9154C28.5282 6.69521 30.0556 10.4888 30.0556 14.5719C30.0556 18.9046 28.3358 22.9113 25.4242 26.16Z" fill="#173576"/>
</svg>
