<svg width="48" height="49" viewBox="0 0 48 49" fill="none" xmlns="http://www.w3.org/2000/svg">
    <path d="m42.467 10.334 5.53-2.074V4.777l-5.772 2.888 5.772-4.638V.553h-2.305l-5.168 5.602L43.96.553h-3.25l-2.924 5.335a8.86 8.86 0 0 1 4.682 4.446zM47.997 19.794l-5.4-2.268c.365-.86.598-1.792.674-2.774a8.788 8.788 0 0 0-.606-3.962l5.332-1.289v2.328l-3.181.862 3.18.609v2.334l-2.512.098 2.513.93v3.132zM0 26.394l25.901-10.146a8.861 8.861 0 0 0 3.495 5.06L13.35 48.549H6.59l14.39-20.868L0 48.553V38.088l17.972-14.066L0 33.062v-6.668zM18.561 48.55l11.337-26.914a8.792 8.792 0 0 0 3.888 1.245 8.823 8.823 0 0 0 2.685-.203l6.825 25.871h-5.294l-3.639-17.445-.239 17.445h-5.406l1.255-17.093-4.861 17.093h-6.55zM37.14 22.494l10.81 25.949.047.106V36.501l-5.804-10.007 5.804 5.385v-4.133l-3.632-4.86 3.632 1.806V21.51l-5.677-3.395a8.867 8.867 0 0 1-5.18 4.378zM39.354.553 37.369 5.73a8.829 8.829 0 0 0-2.226-.463 8.794 8.794 0 0 0-3.643.484l-1.255-5.2h2.576l.596 2.215.084-2.214h2.367l-.172 2.85.882-2.85h2.776zM31.053 5.925 28.949.553h-3.055l1.12 2.51-2.021-2.51h-4.035l3.335 3.649-5.144-3.65h-7.95L26.88 9.545a8.874 8.874 0 0 1 4.172-3.619zM5.743.553l20.879 9.454a8.805 8.805 0 0 0-.964 3.389c-.061.79-.015 1.564.124 2.308L0 22.64v-6.122l16.846-2.269L0 13.173V8.117l18.023 2.341L0 5.268V.553h5.743z" fill="#F29200"/>
</svg>
