<svg width="48" height="49" viewBox="0 0 48 49" fill="none" xmlns="http://www.w3.org/2000/svg">
<path fill-rule="evenodd" clip-rule="evenodd" d="M26.1324 0.552734L13.8283 8.14177C13.4335 8.73672 13.1798 9.44234 13.1798 10.3C13.1798 12.3405 14.8506 13.181 16.5275 13.9264L22.2238 16.4561C21.2905 16.008 20.2433 15.4715 20.2433 14.7755C20.2433 14.1643 20.7861 13.7657 21.1897 13.5195L25.7468 10.7422C27.8162 9.48593 29.0419 7.84988 29.0419 5.39981C29.0419 3.11072 27.6075 1.39683 26.1324 0.552734ZM27.482 27.7777C28.3846 28.1911 28.6914 28.5172 28.6914 29.0337C28.6914 29.5303 28.259 29.9866 26.9211 30.732L25.3262 31.6342L34.6857 35.8267C35.3245 35.279 35.7724 34.48 35.7724 33.6862C35.7724 32.29 35.1216 31.1787 33.0381 30.2367L27.482 27.7777ZM8.5 42.4605L14.4593 38.8694L23.7487 43.0619L17.8245 46.8476C16.5802 47.5958 15.4514 48.0329 14.2665 48.0329C11.2003 48.0329 8.6473 45.5081 8.5 42.4605Z" fill="#80B0D5"/>
<path fill-rule="evenodd" clip-rule="evenodd" d="M24.8881 16.1728L35.8076 9.53906C37.2831 10.398 38.7347 12.0804 38.7347 14.3684C38.7347 16.8183 37.5421 18.5045 35.422 19.7108L34.2827 20.3654L24.8881 16.1728ZM13.0923 25.6016C13.0923 24.4597 13.427 23.8619 13.9686 23.2665L23.3633 27.4414L21.0321 28.7858C20.3916 29.1837 19.9454 29.5435 19.9454 30.0418C19.9454 30.5809 20.5601 31.0278 21.3827 31.404L16.9483 29.4404C16.8635 29.4022 16.779 29.3642 16.6948 29.3264C14.8084 28.4799 13.0923 27.7097 13.0923 25.6016Z" fill="#A2D993"/>
<path d="M13.8281 8.1416C11.2531 9.72982 9.62158 11.8864 9.62158 15.1822C9.62158 18.7616 11.8449 20.8103 15.4056 22.3998L33.038 30.2365C35.1198 31.1785 35.7722 32.2916 35.7722 33.686C35.7722 34.4808 35.3243 35.2788 34.6856 35.8265L35.7197 35.172C37.9376 33.7792 39.3303 31.8881 39.3303 28.892C39.3303 25.05 36.8036 22.9434 33.6865 21.5507L16.5273 13.9263C14.8505 13.1809 13.1796 12.3404 13.1796 10.2998C13.1796 9.44217 13.4333 8.73655 13.8281 8.1416Z" fill="#086DA9"/>
<path d="M37.3927 48.4883C35.027 46.6494 32.5033 45.4056 29.435 44.0007L15.2553 37.6686C11.6928 36.0663 9.33057 33.9299 9.33057 30.335C9.33057 26.8406 11.0065 25.1488 13.185 23.759L13.9724 23.2607C13.4308 23.8561 13.0874 24.4541 13.0874 25.596C13.0874 27.7982 14.9595 28.5436 16.9427 29.438L33.4394 36.7752C36.309 38.0187 38.9351 40.1579 38.9351 43.8006C38.9351 45.8032 38.1802 47.595 37.3927 48.4883" fill="#35AF3B"/>
</svg>
