<svg width="48" height="49" viewBox="0 0 48 49" fill="none" xmlns="http://www.w3.org/2000/svg">
<path fill-rule="evenodd" clip-rule="evenodd" d="M37.1744 38.2583C33.8627 41.4445 29.4415 43.2261 24.8459 43.2261C17.5069 43.2261 10.8889 38.6825 8.25192 31.8337C8.20182 31.6984 8.08592 31.5976 7.94502 31.5669C7.80512 31.5315 7.65642 31.5698 7.55122 31.6685L0.142316 38.4298C0.0544163 38.5079 0.0030163 38.6192 0.000416301 38.7367C-0.0047837 38.854 0.0389163 38.9683 0.121116 39.0521C4.88082 44.0778 11.506 46.9282 18.4279 46.9282C26.0847 46.9282 33.339 43.4404 38.1206 37.4602C38.1301 37.449 38.1353 37.4347 38.1353 37.42C38.1353 37.3858 38.1072 37.3577 38.073 37.3577C38.0547 37.3577 38.0372 37.3658 38.0254 37.3798C37.753 37.6762 37.4693 37.969 37.1744 38.2583ZM27.7481 14.7655C35.3329 16.9581 40.5915 23.9522 40.5915 31.8476C40.5915 35.9151 39.1958 39.8621 36.6388 43.0254C36.5461 43.1365 36.5165 43.2877 36.5605 43.4255C36.5999 43.5645 36.7079 43.6741 36.8463 43.7155L46.406 46.749C46.4483 46.7622 46.4924 46.7689 46.5367 46.7689C46.7296 46.7689 46.9008 46.6416 46.9564 46.4568C47.6485 44.1263 48 41.7079 48 39.2768C48 26.8692 38.8436 16.2126 26.5775 14.3443C26.5463 14.3388 26.5158 14.3582 26.5076 14.3887C26.5061 14.3941 26.5054 14.3997 26.5054 14.4053C26.5054 14.4346 26.5257 14.4602 26.5542 14.467C26.955 14.5517 27.3529 14.6512 27.7481 14.7655ZM12.1173 34.6766C11.7725 33.2811 11.5982 31.8489 11.5982 30.4114C11.5982 20.6568 19.625 12.6299 29.3797 12.6299C30.3042 12.6299 31.2273 12.702 32.1405 12.8455C32.1618 12.8487 32.1833 12.8502 32.2047 12.8502C32.4463 12.8502 32.645 12.6515 32.645 12.4099C32.645 12.3799 32.642 12.35 32.6359 12.3206L30.483 2.52589C30.459 2.41119 30.3885 2.31149 30.2883 2.25069C30.1894 2.18659 30.0681 2.16659 29.9538 2.19569C18.6456 4.89839 10.6028 15.0899 10.6028 26.7167C10.6028 29.8574 11.1897 32.9707 12.3332 35.8959C12.3449 35.9251 12.3767 35.9415 12.4073 35.934C12.4343 35.927 12.4533 35.9025 12.4533 35.8746C12.4533 35.8674 12.4521 35.8603 12.4496 35.8536C12.3268 35.4683 12.2146 35.0724 12.1173 34.6766Z" fill="#832D6A"/>
<path d="M31.8124 11.7636L29.9221 3.1692C29.9086 3.1029 29.8679 3.0453 29.8099 3.0105C29.7526 2.9742 29.6824 2.9641 29.6172 2.9829C19.0726 5.7342 11.5667 15.1984 11.2896 26.0926C11.2883 26.1248 11.3126 26.1528 11.3446 26.1561C11.3759 26.1612 11.406 26.1405 11.4124 26.1095C13.5872 17.0512 22.2871 10.981 31.5393 12.0663C31.5491 12.0675 31.5589 12.0681 31.5687 12.0681C31.7057 12.0681 31.8185 11.9553 31.8185 11.8183C31.8185 11.7999 31.8164 11.7816 31.8124 11.7636Z" fill="url(#paint0_radial_39_561)"/>
<path d="M37.7419 43.2795L46.1289 45.9403C46.1532 45.948 46.1786 45.9518 46.2041 45.9518C46.3163 45.9518 46.4157 45.8768 46.4464 45.7689C49.3292 35.2634 44.8865 24.0371 35.5954 18.3493C35.5862 18.3444 35.576 18.3418 35.5655 18.3418C35.5307 18.3418 35.502 18.3705 35.502 18.4054C35.502 18.4215 35.5082 18.4371 35.5192 18.4488C42.2744 24.8624 43.181 35.4301 37.617 42.9005C37.5687 42.9655 37.5553 43.0503 37.581 43.127C37.6074 43.2005 37.6672 43.2571 37.7419 43.2795Z" fill="url(#paint1_radial_39_561)"/>
<path d="M7.48569 32.6575L0.986987 38.5847C0.935287 38.6294 0.905287 38.6942 0.90434 38.7625C0.903087 38.8303 0.929087 38.8959 0.976387 38.9446C8.63319 46.6985 20.5812 48.4659 30.155 43.2608C30.1841 43.2458 30.1963 43.21 30.1825 43.1804C30.1708 43.1513 30.1386 43.1356 30.1085 43.1444C21.176 45.7901 11.5687 41.2912 7.88159 32.7358C7.85099 32.6614 7.78479 32.6072 7.70589 32.5919C7.62609 32.5735 7.54239 32.5985 7.48569 32.6575Z" fill="url(#paint2_radial_39_561)"/>
<path fill-rule="evenodd" clip-rule="evenodd" d="M24.2643 20.5561C29.0543 19.7752 33.5771 23.03 34.3581 27.82C35.139 32.6099 31.8842 37.1328 27.0943 37.9137C22.3043 38.6947 17.7814 35.4399 17.0005 30.6499C16.2195 25.86 19.4743 21.3371 24.2643 20.5561Z" fill="#FAA61A"/>
<path fill-rule="evenodd" clip-rule="evenodd" d="M33.2945 26.4155C31.7411 22.2117 27.067 20.0598 22.8631 21.6132C18.6592 23.1666 16.5074 27.8408 18.0608 32.0446C19.6142 36.2485 24.2883 38.4003 28.4922 36.8469C32.696 35.2935 34.8479 30.6194 33.2945 26.4155Z" fill="url(#paint3_radial_39_561)"/>
<defs>
<radialGradient id="paint0_radial_39_561" cx="0" cy="0" r="1" gradientUnits="userSpaceOnUse" gradientTransform="translate(18.5001 12.5524) rotate(-27.4744) scale(14.089 15.191)">
<stop stop-color="#EC008C" stop-opacity="0.407843"/>
<stop offset="1" stop-color="#621A4F"/>
</radialGradient>
<radialGradient id="paint1_radial_39_561" cx="0" cy="0" r="1" gradientUnits="userSpaceOnUse" gradientTransform="translate(46.0001 34.5526) rotate(-92.7263) scale(10.5119 55.1984)">
<stop stop-color="#EC008C" stop-opacity="0.407843"/>
<stop offset="1" stop-color="#621A4F"/>
</radialGradient>
<radialGradient id="paint2_radial_39_561" cx="0" cy="0" r="1" gradientUnits="userSpaceOnUse" gradientTransform="translate(13.0001 44.053) rotate(19.179) scale(12.1758 11.458)">
<stop stop-color="#EC008C" stop-opacity="0.407843"/>
<stop offset="1" stop-color="#621A4F"/>
</radialGradient>
<radialGradient id="paint3_radial_39_561" cx="0" cy="0" r="1" gradientUnits="userSpaceOnUse" gradientTransform="translate(21.9706 24.9747) rotate(180) scale(11.9031)">
<stop stop-color="#FFE293"/>
<stop offset="1" stop-color="#FAA61A"/>
</radialGradient>
</defs>
</svg>
