<svg width="48" height="49" viewBox="0 0 48 49" fill="none" xmlns="http://www.w3.org/2000/svg">
    <path fill-rule="evenodd" clip-rule="evenodd" d="M41.714 48.553h-34.5v-5.426l.674-.792A24.135 24.135 0 0 1 3.301 36.7l8.922 5.109h.986l-10.785-6.74a23.84 23.84 0 0 1-.932-2.175l12.814 8.915h.678L.971 31.327A23.837 23.837 0 0 1 .35 28.65l15.637 13.16h.709L.075 26.467a24.197 24.197 0 0 1-.071-2.338l17.37 17.68h.492L.106 22.283c.084-.893.217-1.772.396-2.634l18.015 22.16h.45L.986 17.722c.223-.75.482-1.486.774-2.204l17.699 26.29h.419L2.64 13.604c.388-.753.813-1.483 1.275-2.187l16.437 30.393h.383l-4.22-8.72a6.207 6.207 0 0 1-.134-.067 2.662 2.662 0 0 1-.608-.422 2.442 2.442 0 0 1-.424-.56c-.148-.26-.26-.54-.391-.81a5.185 5.185 0 0 0-.127-.236.411.411 0 0 0-.084-.108c-.058-.047-.12-.089-.179-.135a.7.7 0 0 1-.15-.164c-.031-.052-.05-.109-.07-.166h-.002a.283.283 0 0 1-.104-.089.251.251 0 0 1-.043-.13c-.001-.04.006-.039.007-.078l-.002-.03c.002-.044.006-.047.02-.089.008-.061.018-.123.03-.184a.588.588 0 0 1 .055-.166c.082-.15.241-.241.393-.313l-2.588-5.346a7.716 7.716 0 0 1-.083-.026c-.264-.091-.542-.209-.716-.438a1.018 1.018 0 0 1-.194-.429c-.02-.1-.028-.201-.031-.303-.003-.099.003-.199-.01-.297 0-.008 0-.008-.004-.014-.018-.024-.036-.045-.055-.067-.084-.092-.17-.18-.252-.273a1.599 1.599 0 0 1-.179-.249.881.881 0 0 1-.118-.456.828.828 0 0 1 .038-.209l.115-.316L5.18 9.666a24.162 24.162 0 0 1 1.562-1.784l1.56 3.676a2.06 2.06 0 0 1 .031-.346c.072-.373.35-.683.704-.814a.772.772 0 0 1 .422-.048c.1.022.193.06.285.107.084.042.164.09.24.144L8.402 6.318a24.102 24.102 0 0 1 1.765-1.375l2.113 6.661c.068-.059.134-.12.2-.18.231-.22.453-.449.682-.67.159-.148.327-.305.523-.407l-1.764-6.533c.718-.42 1.46-.803 2.224-1.148l2.076 9.666.049-.049c.055-.059.107-.12.152-.188a.935.935 0 0 0 .095-.18c.055-.144.06-.298.058-.45-.009-.18-.031-.36-.042-.541-.007-.162-.007-.332.06-.484.098-.227.343-.345.568-.412a2.563 2.563 0 0 1 .354-.073l.017-.002-1.356-8.094c.693-.24 1.4-.447 2.12-.623l1.044 8.66a47.045 47.045 0 0 1 1.171-.033c.183-.003.369 0 .551-.005l.1-.008-.664-9.043A24.024 24.024 0 0 1 22.836.58l.274 11.312a.601.601 0 0 1 .16.287c.062.184.09.378.105.57.006.085.01.169.014.253.005.134.008.268.015.402.006.085.014.169.022.253.024.22.05.44.07.66.005.053.01.107.013.16l.005-.002c.043-.019.084-.04.124-.062.17-.1.32-.225.468-.353.135-.117.268-.236.405-.352.073-.06.072-.06.147-.118.077-.059.155-.115.236-.167L25.22.584c.77.038 1.532.113 2.282.223l-.896 12.216a7.134 7.134 0 0 1 1.098-.036c.192.011.386.035.573.085l1.427-11.836c.72.176 1.427.384 2.12.623l-2.052 12.248c.158-.011.317-.02.475-.028.144-.006.206-.009.35-.012a6.42 6.42 0 0 1 .584.01c.072.005.146.011.219.023l2.455-11.434c.764.345 1.506.728 2.224 1.148l-3.046 11.28c.025.01.049.022.073.033.114.055.225.116.332.182a2.186 2.186 0 0 1 .825.89l3.57-11.256c.61.431 1.199.89 1.765 1.375L33.92 21.694c.055.1.09.21.098.327.005.076-.005.148-.014.223a5.51 5.51 0 0 0-.019.172c-.01.125-.01.125-.017.25-.029.72.024 1.439.103 2.154l7.187-16.938c.55.568 1.07 1.163 1.562 1.784l-7.534 15.567c.223.095.422.234.56.439.051.074.091.155.12.24a.923.923 0 0 1 .038.444l8.08-14.94c.461.704.887 1.434 1.274 2.187L35.412 29.88c.071.058.146.111.222.162.176.114.358.219.534.331a5.2 5.2 0 0 1 .05.033l10.022-14.888c.292.718.55 1.453.773 2.204l-10.084 13.51c.019.054.034.109.047.164.054.228.054.461.075.694.078.037.16.065.24.098l.01.005 10.198-12.544c.179.862.312 1.741.396 2.634L35.62 35.776a4.663 4.663 0 0 0 .004.478l.032-.003.198-.014c.102-.004.101-.004.202-.004h.047L47.996 24.13l.002.106a24.03 24.03 0 0 1-.073 2.232l-11.05 10.2-.014.087c-.01.08-.01.26-.014.338l-.017.48a.582.582 0 0 1-.042.2.217.217 0 0 1-.019.035l10.882-9.158-.03.171a23.784 23.784 0 0 1-.592 2.507L33.016 41.81h.678l12.814-8.915-.052.139a23.828 23.828 0 0 1-.88 2.036L34.79 41.81h.986L44.7 36.7l-.05.083a24.124 24.124 0 0 1-4.021 5.07l1.086 1.274v5.426zm-.6-4.826h-33.3v4.226h33.3v-4.226zm-10.153 2.902c0 .129-.057.305-.17.529-.108.215-.22.38-.334.493a.839.839 0 0 1-.298-.077.861.861 0 0 1-.268-.157 2.65 2.65 0 0 0 .521-.31c.18-.14.286-.265.32-.377a.732.732 0 0 0-.299-.353l.223-.43c.08.068.15.173.212.312.062.14.093.263.093.37zm9.591.588-.26.245-.255-.254.265-.242.25.251zm-7.401-.022-.26.245-.255-.255.265-.242.25.252zm-20.719-2.538h.35v1.499c0 .196-.012.347-.038.452a.656.656 0 0 1-.185.332.498.498 0 0 1-.353.126.457.457 0 0 1-.397-.197c-.093-.13-.14-.323-.14-.576l.331-.051a.824.824 0 0 0 .044.287c.038.085.096.128.173.128.079 0 .134-.03.167-.092.032-.06.048-.187.048-.378v-1.53zm2.294 2.368h-.383l-.152-.538h-.695l-.144.538h-.373l.678-2.368h.372l.697 2.368zm-3.253-1.968h-.939v.525h.874v.4h-.874v.644h.972v.4h-1.323v-2.37h1.29v.401zm3.791 1.968h-.35v-2.368h.739c.186 0 .32.02.405.063a.457.457 0 0 1 .202.227c.051.11.076.233.076.374a.78.78 0 0 1-.115.44.512.512 0 0 1-.344.219c.076.06.139.126.188.199.05.072.116.2.2.384l.213.462h-.42l-.255-.515c-.09-.184-.152-.3-.185-.349a.283.283 0 0 0-.105-.098.435.435 0 0 0-.177-.027h-.072v.99zm2.973 0h-.382l-.152-.538h-.696l-.144.538h-.372l.678-2.368h.371l.697 2.368zm1.264-1.968h-.515v1.968h-.352v-1.968h-.516v-.4h1.383v.4zm1.496 1.968h-.593v-2.368h.696c.138 0 .24.007.308.023a.395.395 0 0 1 .182.098c.053.05.098.115.133.198a.692.692 0 0 1 .053.277c0 .11-.021.212-.065.305a.475.475 0 0 1-.179.209.474.474 0 0 1 .244.214c.058.102.086.22.086.357a.918.918 0 0 1-.055.315.623.623 0 0 1-.151.244.422.422 0 0 1-.236.112c-.058.009-.2.014-.423.016zm2.731 0h-.382l-.152-.538h-.696l-.143.538h-.373l.678-2.368h.371l.697 2.368zm.516 0h-.326v-2.368h.342l.712 1.581v-1.581h.326v2.368h-.352l-.702-1.544v1.544zm1.782 0h-.351v-2.368h.351v1.051l.71-1.051h.472l-.655.922.691 1.446h-.455l-.478-1.111-.285.395v.716zm-16.07-1.968h-.515v1.968H9.09v-1.968h-.517v-.4h1.383v.4zm28.31 1.643h-.104a.545.545 0 0 1-.34-.126 1.51 1.51 0 0 1-.23-.25 1.526 1.526 0 0 0-.224-.247.922.922 0 0 1-.008.295c-.095.138-.25.231-.466.28a2.605 2.605 0 0 1-.558.048c-.321 0-.538-.023-.65-.068-.163-.066-.245-.204-.245-.416 0-.19.066-.39.199-.597.05-.004.082.014.096.053a.567.567 0 0 0-.093.296c0 .135.077.222.23.26.088.02.269.031.544.031.254 0 .44-.01.556-.029a.635.635 0 0 0 .27-.104c-.125-.209-.342-.384-.652-.524.007-.219.024-.402.052-.55.465-.263.912-.44 1.34-.533l-.194.416c-.15.037-.345.104-.583.202-.19.077-.328.14-.413.185.169.064.362.18.58.349.082.063.183.156.302.279.107.11.186.184.235.22a.43.43 0 0 0 .257.088h.164c.234 0 .35-.035.35-.105 0-.048-.06-.155-.182-.32l.248-.338a.843.843 0 0 1 .184.513c-.037.228-.09.383-.155.464a.616.616 0 0 1-.51.228zm1.636 0h-.105c-.205 0-.339-.085-.401-.255-.042-.115-.07-.372-.084-.77a5.19 5.19 0 0 0-.024-.409 1.408 1.408 0 0 0-.104-.395l.296-.31c.049.079.08.2.091.363.005.06.007.184.007.376v.476c0 .141.01.245.03.31.037.114.11.172.22.172h.139c.233 0 .35-.035.35-.105 0-.048-.061-.155-.183-.32l.249-.338a.843.843 0 0 1 .183.513c-.037.228-.089.383-.154.464a.616.616 0 0 1-.51.228zm-10.133-.76c0 .05-.03.142-.092.273-.061.13-.111.212-.15.243-.047.038-.195.085-.444.142-.295.068-.569.102-.82.102-.338 0-.57-.066-.697-.199-.08-.084-.121-.208-.121-.372 0-.224.064-.434.192-.632a.095.095 0 0 1 .018-.002c.047 0 .08.018.098.055a1.01 1.01 0 0 0-.098.355c0 .237.255.356.767.356.465 0 .829-.055 1.092-.166a1.344 1.344 0 0 0-.177-.323l.245-.332c.05.062.094.15.134.266a.798.798 0 0 1 .053.234zm2.277.76h-.22c-.206 0-.34-.085-.402-.255-.042-.115-.07-.372-.084-.77a5.241 5.241 0 0 0-.024-.409 1.405 1.405 0 0 0-.104-.395l.295-.31c.05.079.08.2.092.363.005.06.007.184.007.376v.476c0 .141.01.245.03.31.037.114.11.172.22.172h.261c.175 0 .319-.018.43-.053a3.6 3.6 0 0 0 .431-.194c-.41-.161-.64-.242-.693-.242a.152.152 0 0 0-.115.045.782.782 0 0 0-.106.168.118.118 0 0 1-.047.011c-.029 0-.052-.014-.07-.043.074-.19.13-.322.168-.394.072-.135.142-.203.208-.203.043 0 .191.056.443.17.252.112.436.169.55.169.128 0 .325-.026.594-.078l-.17.39c-.142.016-.258.033-.349.052.065.135.19.202.374.202h.342c.233 0 .35-.035.35-.105 0-.048-.06-.155-.182-.32l.248-.338a.843.843 0 0 1 .184.513c-.038.228-.09.383-.155.464a.616.616 0 0 1-.51.228h-.133a.583.583 0 0 1-.434-.163c-.086-.087-.16-.227-.224-.42-.344.244-.55.383-.615.42a1.2 1.2 0 0 1-.59.163zm-11.007-.707h-.283v.633h.325c.127 0 .207-.005.24-.014a.21.21 0 0 0 .128-.095.363.363 0 0 0 .05-.201.394.394 0 0 0-.038-.181.233.233 0 0 0-.11-.108c-.048-.023-.152-.034-.312-.034zm2.042.095-.24-.879-.235.879h.475zm-9.002 0-.24-.879-.235.879h.475zm3.51 0-.239-.879-.235.879h.475zm-2.05-1.03h-.274v.6h.26c.168 0 .273-.01.315-.029a.208.208 0 0 0 .099-.1.394.394 0 0 0 .035-.178.354.354 0 0 0-.047-.193.205.205 0 0 0-.132-.093 2.172 2.172 0 0 0-.256-.008zm5.418-.007h-.201v.547h.23c.137 0 .222-.002.255-.008a.21.21 0 0 0 .142-.084.306.306 0 0 0 .052-.185.323.323 0 0 0-.045-.179.186.186 0 0 0-.132-.083 3.017 3.017 0 0 0-.3-.008zm7.619.218-.24.226-.233-.237.243-.218.23.23zm.59-.03-.239.224-.234-.236.245-.219.228.23zm9.79-.221-.26.245-.255-.255.264-.242.25.252zm-4.02.013-.222.222-.226-.198-.207.208-.237-.208.223-.228.225.202.207-.211.237.213zm-13.427-3.222-1.25-3.387-.03-.005-.09-.017a.283.283 0 0 1-.116-.056.252.252 0 0 1-.071-.277.284.284 0 0 1 .074-.105l.048-.04-.412-1.115a.67.67 0 0 1-.128.065 1.024 1.024 0 0 1-.28.064.982.982 0 0 1-.183.001l2.067 4.872h.371zm.352 0h.318l-.886-3.282a10.72 10.72 0 0 1-.484-.035l1.052 3.317zm.69 0h.319l-.546-3.26-.147-.002-.327-.003.702 3.265zm.636 0h.318l-.238-3.254h-.053l-.42-.003.393 3.257zm.985 0 .083-3.289c-.117.075-.247.053-.377.032-.03-.003-.058-.001-.087-.002h-.034l.08 3.259h.335zm.641 0 .544-4.511a1.009 1.009 0 0 1-.104.215c-.103.154-.25.277-.396.387a4.327 4.327 0 0 1-.08.055l-.282 3.854h.318zm.635 0 1.22-5.676-.086.182c-.035.072-.035.071-.072.14-.123.213-.279.44-.53.505a.526.526 0 0 1-.039.008l-.811 4.84h.318zm.373 0h.318l1.392-4.388a.311.311 0 0 1-.06-.057.437.437 0 0 1-.072-.149.864.864 0 0 1-.014-.37c.004-.028.01-.066.016-.095.013-.066.028-.13.04-.196.02-.134.035-.27.05-.406a4.943 4.943 0 0 0 .025-.617l-1.695 6.278zm.67 0h.37l1.617-3.81a.4.4 0 0 1-.315-.275.637.637 0 0 1-.023-.171v-.018a1.388 1.388 0 0 0-.068-.008L26.49 41.81zm.773 0h.383l1.907-3.526a2.393 2.393 0 0 1-.386-.039 1.15 1.15 0 0 1-.16-.039l-1.744 3.604zm1.276 0 2.392-3.553c-.215.004-.43.004-.645.01l-2.166 3.543h.419zm.943 0 2.941-3.618h-.017c-.234.015-.468.028-.702.039l-2.671 3.579h.449zm1.143 0 3.678-3.744-.417.027-.397.027-3.356 3.69h.492zm1.388 0 4.65-3.913a.64.64 0 0 1-.288.057c-.034.001-.07 0-.105-.001-.05-.002-.094-.006-.146-.01-.061-.005-.122-.01-.184-.012-.101.002-.202.01-.303.018l-.166.014-4.167 3.847h.709zm-12.317-5.636a.548.548 0 0 1 .018-.001c.041 0 .041 0 .082.004a.823.823 0 0 1 .035.006h.003a1.2 1.2 0 0 1 .033.007l.005.001.032.008.012.004.011.003.015.005.012.004.01.003.014.005.015.005.02.008.017.007.018.007.02.009.014.006.022.01c.083.04.162.089.238.14.136.091.271.193.375.322.216.27.273.626.178.956a.924.924 0 0 1-.137.294h-.001c.132.015.265.025.398.033l.018.001.116.006.032.002.12.005.143.005.146.004.108.002.4.004.495.003.482.005.143-.001.257-.004H23.796c.074 0 .074-.002.147.006l.018.002c.01-.032.022-.063.035-.094.03-.06.065-.11.115-.153a5.41 5.41 0 0 1 .165-.12l.143-.097.07-.048.071-.05c.042-.031.082-.063.121-.096l.04-.038.02-.018.02-.02.02-.02.008-.01.01-.01.008-.01.01-.012.012-.017.008-.01a.585.585 0 0 0 .058-.128l.058-.162c.02-.047.02-.046.042-.093a.77.77 0 0 1 .118-.17.636.636 0 0 1 .34-.18l.022-.004a.525.525 0 0 1 .025-.003c.111-.015.224-.002.334-.016a.121.121 0 0 0 .045-.014l.017-.014.017-.015.005-.005.016-.015.014-.016.015-.017.014-.018.004-.006.013-.018.012-.018.02-.03.013-.023.014-.024.01-.017.04-.074c.075-.15.141-.303.215-.453.043-.082.09-.162.134-.244.052-.097.101-.196.155-.293a1.474 1.474 0 0 1 .218-.303c.038-.04.079-.078.122-.113l.021-.017.015-.01.016-.013.02-.014.01-.008.027-.017.002-.002.036-.022c.162-.1.362-.2.554-.124a.425.425 0 0 1 .118.075l.001.001a.525.525 0 0 1 .094.108c.04.06.067.129.087.198.036.13.042.267.053.402a4.211 4.211 0 0 1-.001.768v.004l-.001.004a6.832 6.832 0 0 1-.017.176l-.004.03-.005.047-.003.024-.002.015-.002.02-.003.027-.006.043-.002.019-.014.109c-.015.11-.044.216-.061.325a.946.946 0 0 0-.008.09v.006c.074.007.15.008.224.013l.038.004.027.003.033.004.017.002.016.003.023.004c.035.006.07.015.104.028a.417.417 0 0 1 .26.26.612.612 0 0 1 .025.175h.047l.01-.001h.056a.503.503 0 0 1 .347.158c.022.022.043.047.068.064l.016.005.015.004.032.007.067.013c.18.028.363.03.545.024l.042-.001.062-.003.253-.012.065-.002.063-.002h.002l.576-.006.398-.013.147-.005.044-.002.187-.008.018-.001.172-.008.04-.002.22-.012.723-.045.542-.036.578-.04.472-.03.408-.036.41-.04.047-.005.059-.005.04-.004.045-.004.015-.001.13-.011c.1-.008.2-.014.3-.02h.054l.018.001.036.001.036.002c.095.006.19.017.285.02h.004c.003-.185.014-.37.021-.554l.008-.176-.142.009-.047.002-.103-.001h-.102l-.05.002-.05.002-.097.007-.048.004-.055.004-.053.005c-.159.015-.318.034-.477.05l-.196.014a4.986 4.986 0 0 1-.251.005h-.04l-.003-.001c-.009 0-.019 0-.037-.002a.89.89 0 0 1-.272-.075c-.1-.044-.194-.103-.295-.147a.696.696 0 0 0-.083-.026l-.025-.005-.025-.004-.01-.002-.015-.002-.01-.001-.015-.002-.02-.003-.031-.003-.051-.005c-.067-.005-.134-.01-.2-.017-.057-.008-.056-.008-.112-.019a1.1 1.1 0 0 1-.354-.143l-.004-.002a2.11 2.11 0 0 1-.048-.028l-.001-.001-.032-.02-.013-.008-.005-.003-.006-.004-.012-.008-.014-.008-.019-.012-.03-.02-.008-.006-.01-.006-.002-.002-.076-.05-.042-.027-.025-.017-.013-.008-.046-.028a1.528 1.528 0 0 0-.142-.073l-.022-.009-.005-.002-.012-.004-.023-.008-.008-.002a1.494 1.494 0 0 0-.208-.043 5.715 5.715 0 0 0-.54-.05h-.008l-.056-.002h-.013l-.046-.001H31.462l-.047.001h-.019l-.039.002-.02.001-.058.004-.056.004-.066.007-.019.002-.049.006-.018.002-.063.009-.097.014c-.088.013-.175.027-.263.038-.078.01-.078.01-.157.017-.152.01-.304.013-.456-.006a.862.862 0 0 1-.335-.104l-.017-.01-.005-.004-.002-.001-.004-.002-.006-.005-.005-.003-.01-.005-.015-.011-.004-.003-.001-.001a1.104 1.104 0 0 1-.029-.021l-.002-.002-.005-.003-.012-.01-.01-.008-.005-.003-.003-.003-.004-.003-.007-.006-.017-.014-.014-.011-.005-.005-.006-.005-.005-.005-.013-.01-.019-.017-.029-.026c-.033-.029-.065-.058-.099-.085-.133-.104-.276-.193-.411-.293a2.441 2.441 0 0 1-.043-.035l-.012-.01-.011-.008-.003-.003a2.227 2.227 0 0 1-.03-.024l-.005-.005-.02-.019-.004-.002-.003-.003-.02-.019-.006-.005-.005-.005-.006-.005-.009-.009-.009-.009-.006-.006-.004-.005-.006-.005-.02-.02-.002-.003a1.263 1.263 0 0 1-.051-.059l-.002-.003-.006-.007-.011-.013-.005-.007-.004-.005-.005-.006-.007-.01-.008-.011-.005-.007-.003-.004-.004-.005-.017-.025-.002-.001a2.206 2.206 0 0 1-.02-.032l-.002-.002-.004-.007-.012-.019-.003-.005-.003-.004-.004-.008-.007-.012-.006-.01-.004-.007-.003-.005-.004-.008-.008-.015-.004-.008-.002-.003-.002-.004-.014-.028-.001-.002-.002-.003-.013-.028-.001-.004-.002-.003-.004-.01-.007-.014-.003-.008-.003-.007-.003-.008-.004-.01-.004-.01-.004-.01-.002-.006-.002-.005-.007-.018-.004-.01v-.004a1.462 1.462 0 0 1-.036-.117c-.049-.185-.064-.377-.095-.567a2.048 2.048 0 0 0-.027-.127.467.467 0 0 0-.079-.167.31.31 0 0 0-.135-.09l-.024-.008h-.002l-.023-.007-.004-.001-.023-.006-.03-.006a.82.82 0 0 0-.125-.012h-.025c-.017 0-.034 0-.05.002-.171.013-.33.082-.48.158l-.072.038c-.155.085-.305.177-.46.262-.1.052-.203.098-.307.139h-.002l-.002.001-.014.005-.025.01-.007.003-.008.002-.012.005-.016.006-.014.005-.01.004-.01.003-.009.003-.022.008-.014.004-.004.002-.047.015-.003.001-.012.004-.028.009-.007.002-.007.002-.013.004-.017.005-.013.004-.011.003-.01.003-.01.003-.02.006-.015.004-.006.001-.003.001-.038.01-.008.003-.017.004-.026.007h-.004l-.008.003-.017.004-.015.004-.006.001a4.952 4.952 0 0 1-.082.02H25.8l-.043.01-.044.01-.011.002c-.222.045-.446.079-.668.107l-.063.008a41.443 41.443 0 0 1-.324.039h-.003l-.016.002-.027.002h-.004l-.004.001-.017.002-.024.002h-.011l-.017.002-.02.002h-.015l-.016.001-.019.001H24.437l-.014.001H24.396l-.01.001H24.357c-.146 0-.29-.021-.427-.08a1.143 1.143 0 0 1-.277-.174l-.004-.004-.012-.01-.013-.01-.003-.004-.003-.002a1.807 1.807 0 0 1-.057-.053l-.003-.003-.004-.004-.01-.01-.013-.012-.01-.01-.006-.006-.018-.019-.014-.014-.006-.006-.004-.005a4.72 4.72 0 0 1-.037-.04l-.002-.002-.006-.006-.019-.022-.008-.009-.01-.01-.036-.041-.003-.004-.002-.002v-.001l-.065-.074-.035-.04-.021-.023-.01-.01-.038-.043a1.944 1.944 0 0 0-.1-.095l-.021-.017-.008-.006-.014-.011-.01-.007-.012-.009-.011-.007-.012-.008-.012-.007-.011-.008-.013-.007-.01-.006-.015-.008-.01-.006-.016-.008c-.197-.102-.425-.145-.64-.186l-.145-.027-.015-.003a5.083 5.083 0 0 1-.424-.098l-.003-.001-.01-.004-.021-.007-.01-.002-.006-.003-.01-.003-.014-.005-.014-.005-.01-.003-.006-.002-.009-.004-.02-.007-.01-.004-.005-.002-.003-.001-.034-.013-.005-.002-.007-.003-.031-.013-.003-.001-.005-.002-.03-.013a2.768 2.768 0 0 1-.407-.221 4.709 4.709 0 0 1-.44-.333l-.004-.003-.007-.006-.032-.027-.013-.01-.003-.004-.007-.005-.045-.039-.002-.002-.083-.072-.025-.021-.005-.004-.105-.092-.11-.094-.09-.075-.032-.027-.057-.047-.19-.156-.048-.04-.108-.089-.017-.014-.012-.01-.059-.048-.013-.012-.02-.016-.028-.024-.026-.021-.038-.032a8.983 8.983 0 0 1-.482-.443c-.094-.093-.188-.187-.264-.295a2.034 2.034 0 0 1-.276-.615 4.788 4.788 0 0 1-.153-.879c-.01-.102-.01-.205-.017-.308a1.22 1.22 0 0 0-.018-.128c-.01-.04-.021-.084-.052-.114a.09.09 0 0 0-.036-.018c-.043-.008-.087 0-.129.007-.064.01-.128.024-.192.034a1.725 1.725 0 0 1-.07.007h-.005l-.01.001h-.01a.662.662 0 0 1-.17-.011c-.063-.013-.125-.037-.184-.058-.156-.054-.31-.129-.412-.263-.064-.084-.093-.188-.137-.282l-.006-.013a.338.338 0 0 0-.082-.023l-.012-.001h-.025l-.014.001-.015.003-.005.002-.01.003-.004.001-.014.005-.003.002-.01.005-.005.002-.01.005-.003.002-.012.008-.02.013-.002.002-.018.014c-.019.015-.037.031-.054.047-.075.075-.142.156-.215.233-.102.104-.21.202-.31.31a1.617 1.617 0 0 0-.067.08 2.775 2.775 0 0 0-.098.147l-.015.025-.018.029-.029.046-.014.024-.01.014-.002.005-.005.007-.017.026-.01.017-.003.004-.002.002-.002.004-.012.018-.019.027a2.341 2.341 0 0 1-.085.11.885.885 0 0 1-.127.126c-.076.058-.163.1-.25.14l-.126.056-.025.012-.062.029-.005.002a.696.696 0 0 0-.157.09c-.008.006-.007.006-.014.013a2.15 2.15 0 0 0-.02.104l-.005.037c.018.03.034.062.048.095.027.063.046.13.073.192.017.022.04.04.062.057.054.041.11.08.162.123.034.03.034.03.066.061.034.037.034.037.065.077.034.05.064.1.093.152.147.265.264.545.396.818.038.076.078.151.12.226.086.141.183.275.3.39l.024.023.006.007.024.021c.182.163.4.283.62.384l.086.039.027.012.05.022.125.054.148.063.004.002.136.059.005.002c.057.025.115.05.172.077.065.03.129.063.192.096.098.053.197.106.286.174.188.143.346.325.49.512.025.032.05.065.073.098l.015.02.009.012.01.015.013.018.01.015.013.018.03.045.018.029.015.024.027.044.015.027.018.032.011.02.013.026.011.022.015.03a1.956 1.956 0 0 1 .146.46l.008.04.002.016.005.03.004.024.003.021.005.033.007.057.006.05.004.044c.015.165.02.332.025.498.004.15.014.3.02.451.003.111-.002.223.003.334.003.035.005.07.013.105a.499.499 0 0 0 .255-.019l.026-.009.007-.002a.46.46 0 0 1 .023-.05c.018-.028.035-.056.06-.078a.313.313 0 0 1 .017-.014l.015-.01.014-.01.016-.01.016-.009.016-.008.017-.007.017-.006.017-.006.017-.005.018-.005.023-.005.017-.002.017-.003.017-.002zm.675.94.066.211a.524.524 0 0 0-.066-.21zm-4.959-23.835a.982.982 0 0 0-.22-.059l-.05-.007-.016-.002-.034-.004-.02-.002-.03-.003-.02-.001-.032-.002-.019-.001-.035-.002H14.772l-.023.002-.027.001-.024.001-.051.004-.02.001-.12.012-.046.005c-.043.005-.085.01-.127.017l-.042.006.045-.375.008-.08.007-.082.01-.105.006-.073.003-.04.01-.116a12.353 12.353 0 0 0 .023-.568 5.938 5.938 0 0 0-.015-.434 1.426 1.426 0 0 0-.094-.459c-.033-.075-.082-.147-.165-.167a.307.307 0 0 0-.074-.002l-.018.003-.005.002-.012.003-.006.002-.01.003-.007.002-.01.003-.007.003-.01.003-.006.003-.011.004-.006.003-.014.006-.001.001-.027.014-.003.002-.023.012-.02.013-.01.006-.027.018-.002.001-.03.022c-.101.074-.193.16-.285.245-.2.192-.393.39-.591.583-.093.089-.187.176-.284.261a4.414 4.414 0 0 1-.452.347 2.598 2.598 0 0 1-.157.095c-.168.092-.35.165-.54.194-.037.006-.074.01-.11.012h-.037a.639.639 0 0 1-.37-.114 1.568 1.568 0 0 1-.378-.397l-.046-.064-.005-.007-.003-.004-.01-.014c-.1-.144-.195-.292-.296-.435a5.546 5.546 0 0 0-.172-.224 1.79 1.79 0 0 0-.493-.424 1.28 1.28 0 0 0-.13-.062c-.022-.01-.046-.02-.07-.023a.331.331 0 0 0-.15.025.643.643 0 0 0-.264.186.56.56 0 0 0-.116.222.905.905 0 0 0-.022.149 2.86 2.86 0 0 0-.009.278c.004.302.04.604.09.902.038.227.086.452.144.675l.005.019.023.087.004.012.025.088.003.012.022.073.007.023.027.084c.056.173.12.345.197.51l.026.055.01.018.018.037.022.042.004.007.026.045.015.026.006.01c.012.02.026.04.04.06l.018.028.018.024.017.023.017.022.032.038.029.306.009.092.005.05.014.144c.044.378.097.774.273 1.117.044.085.097.163.154.24.076.104.156.206.237.306l.103.125.02.025.054.065.162.195.022.026.055.066.036.044.102.124a7.815 7.815 0 0 1 .464.624c.058.087.116.171.149.272.039.12.052.25.056.375.005.15-.005.299-.02.447l-.002.01v.003l-.008.065c-.06.485-.182.962-.328 1.427-.044.14-.09.278-.14.415-.028.078-.065.154-.084.235a.402.402 0 0 0-.005.042c0 .142.086.256.174.36.097.11.2.212.294.323a.745.745 0 0 1 .09.132c.039.08.048.169.054.255.005.11.003.219.008.328l.003.035v.007l.004.033a.696.696 0 0 0 .04.17.472.472 0 0 0 .131.183.655.655 0 0 0 .068.052l.026.017.026.016.027.014.025.013.006.003.03.014.01.005.035.015.038.014.01.004.017.006.037.014.015.005.048.016c.058.02.084.027.143.045.219.063.439.118.657.181l.075.023.066.02.017.006.053.017.025.008.019.006.025.01.017.005.017.006.016.006.02.006.02.008.021.008.014.005.014.005.024.01.025.009.021.008a3.233 3.233 0 0 1 .515.264c.07.045.136.093.2.145a.89.89 0 0 1 .144.138c.137.176.163.415.168.632v.154c-.002.08-.006.148-.009.233-.004.113-.005.112-.007.226 0 .07 0 .14.004.21.013.146.04.312.16.411.043.036.095.053.143.082.024.018.024.017.047.037a.83.83 0 0 1 .182.322c.041.121.07.247.09.373.048.292.07.588.077.884l.001.087V28.378l-.001.043v.026l-.001.013v.015l-.002.057v.033l-.004.105-.005.094.127.088.059-.094.06-.093.023-.031.023-.03.02-.026.028-.035c.12-.134.255-.252.378-.384.052-.058.103-.116.156-.172.05-.05.1-.099.156-.142a.883.883 0 0 1 .114-.073l.017-.01.017-.008.018-.008.017-.007.018-.008.017-.006.025-.009.012-.003.016-.005.025-.006.014-.004.015-.003.025-.004.017-.002.014-.002a.518.518 0 0 1 .058-.003h.033a.711.711 0 0 1 .247.052.533.533 0 0 1 .173.096c.07.063.114.151.15.237.018.045.033.093.058.135a.188.188 0 0 0 .04.032c.043.025.09.043.137.06l.052.018.02.007.025.008.03.007a.316.316 0 0 0 .055 0c.089-.01.176-.03.264-.044a.694.694 0 0 1 .303.015.577.577 0 0 1 .225.125c.148.132.202.32.228.51.012.123.013.246.023.37.028.28.066.56.149.83.052.17.121.335.233.474.028.032.058.063.088.094l.078.08.07.067.07.066.027.026.043.04.03.026.041.038.031.027.042.037.03.026.043.038.028.024.046.04.026.02.043.037.06.05.101.084.025.021c.145.12.29.238.434.359.16.136.317.275.477.41.123.1.25.197.384.283l.05.032.053.031.052.03.026.014.027.014.027.013.027.013.027.013.028.012.028.011.028.012.028.01.028.01.047.017.048.014.019.006.028.008.021.006.027.007.022.005.026.007.024.005.023.005.027.006.05.011c.15.031.302.055.451.086a2.911 2.911 0 0 1 .33.09l.022.007.038.013.037.014.037.015.027.01.03.014.017.008.013.006.022.011.008.004.028.015.032.017.026.015.011.007.018.01.016.01.011.008.022.015.006.004.027.02.02.016.019.015.033.027.01.008.011.011.018.016.01.009.01.01.015.014.013.012.009.01.012.012.016.015.018.02.018.018.015.016.032.036.024.026c.078.087.153.178.233.263.032.031.064.062.098.09a.65.65 0 0 0 .187.114c.066.024.138.03.208.03h.048l.04-.002.04-.002.04-.003.04-.004.04-.005.08-.01.22-.026.088-.011.075-.01a7.43 7.43 0 0 0 .706-.13l.047-.011.037-.01.044-.011.044-.013.044-.012.043-.014.045-.014.045-.015.02-.007.025-.01.02-.007.024-.009.02-.007.025-.01.019-.008.025-.01.018-.008.026-.012.018-.007.043-.02.042-.02c.195-.102.38-.22.574-.322.103-.052.209-.1.318-.138l.022-.007.036-.011.035-.01.036-.01.036-.009.037-.007.036-.007.03-.005.03-.003.03-.004.02-.002h.011l.028-.002.07-.002H27.828l.032.001.019.001h.012l.028.003.07.008.028.005.03.005.032.007.025.006a.85.85 0 0 1 .41.223c.05.05.092.106.127.167.043.075.073.153.096.235l.005.018.006.024a1.338 1.338 0 0 1 .018.08l.008.04.003.016.004.025.006.035.007.049.01.08.005.034.011.077.006.042.004.028.003.015.008.048c.01.047.02.093.033.14l.009.024.009.025.01.024.01.024.01.023.011.024.012.023.012.023.014.022.013.022.014.021.015.022.016.02.016.02.017.02.018.02c.048.053.103.098.16.143.127.094.26.18.387.274l.036.029.035.03.018.015.079.069.01.01.035.03.035.028.035.027a.406.406 0 0 0 .082.048c.034.011.072.015.107.02l.026.003.027.002.026.002.026.002h.026l.023.001h.066c.262-.005.521-.06.781-.093.081-.008.08-.008.162-.014.028-.001.056-.003.085-.003l.015-.001.082-.002h.2l.084.002h.011l.177.01h.007a5.485 5.485 0 0 1 .244.022c.181.02.366.043.536.11l.042.016.04.019.017.007.011.006.013.006.025.013.015.008.023.012.016.01.02.011.019.011.018.011.02.012.017.01.036.023.038.025.022.015.076.05.076.05.037.023.037.023.036.02.038.02c.022.012.045.023.068.033.051.02.105.03.16.038.111.012.223.018.335.032.063.01.126.022.187.04l.022.007.012.003.022.008.003.001a.74.74 0 0 1 .031.012c.106.044.203.105.307.153.023.01.045.018.069.026a.294.294 0 0 0 .04.008l.088.002.089-.002c.1-.004.2-.012.3-.021a5.264 5.264 0 0 1 .104-1.44l.01-.05.012-.053.006-.024c.019-.08.04-.159.062-.237.037-.125.077-.248.135-.364.127-.251.314-.465.502-.671l.184-.202c.026-.03.051-.06.08-.088a.263.263 0 0 1 .044-.029c.091-.04.192-.026.287-.006h.007c.108.026.215.06.324.084.036.008.078.016.118.015h.014a.169.169 0 0 0 .075-.021.305.305 0 0 0 .091-.091.442.442 0 0 0 .077-.282.227.227 0 0 0-.043-.122c-.017-.02-.037-.032-.06-.046-.06-.03-.122-.054-.185-.08a1.338 1.338 0 0 1-.246-.118.383.383 0 0 1-.103-.094.484.484 0 0 1-.066-.209c-.015-.125-.019-.25-.028-.375l-.002-.032-.004-.04-.005-.053a1.23 1.23 0 0 0-.097-.365l-.01-.021-.004-.007-.008-.014-.005-.008-.007-.013-.005-.008-.007-.012-.005-.008-.009-.013-.004-.007-.011-.016-.003-.003-.014-.02-.004-.005-.01-.013-.006-.007-.01-.011-.006-.007-.009-.011-.006-.007-.006-.007-.027-.028-.001-.001-.028-.028-.003-.003-.03-.027-.004-.004-.017-.015-.021-.018-.017-.013-.02-.017-.017-.013-.02-.015-.019-.014-.018-.014a2.712 2.712 0 0 0-.093-.063l-.008-.006a5.95 5.95 0 0 0-.084-.055c-.163-.1-.327-.197-.487-.3a3.556 3.556 0 0 1-.247-.18l-.004-.003-.007-.006-.017-.014-.01-.009-.007-.005-.006-.005-.01-.008-.017-.015-.007-.006-.003-.003a2.818 2.818 0 0 1-.037-.033l-.03-.029-.005-.004-.003-.003-.008-.008-.015-.014-.009-.01-.006-.006-.006-.006-.009-.009-.014-.015-.008-.008-.003-.004a1.845 1.845 0 0 1-.324-.486l-.002-.002v-.001a1.591 1.591 0 0 1-.017-.04l-.002-.004v-.002a1.53 1.53 0 0 1-.016-.04l-.001-.003-.001-.003-.003-.008-.006-.017-.007-.018-.002-.006-.002-.008-.006-.018-.004-.014-.002-.007-.004-.01-.005-.02-.003-.01-.002-.006-.004-.015-.005-.02v-.005l-.002-.004-.005-.021-.005-.021-.006-.03c-.082-.406-.029-.837.038-1.243.017-.106.025-.15.047-.271.007-.03.014-.06.023-.09a1.37 1.37 0 0 1 .287-.465c.132-.15.278-.286.414-.431.042-.046.041-.046.081-.093.117-.146.232-.323.179-.518a.517.517 0 0 0-.16-.257.846.846 0 0 0-.246-.154l-.03-.012-.028-.011-.007-.003-.026-.01-.01-.003-.024-.008-.012-.004-.023-.007-.014-.004-.022-.007-.015-.004-.022-.006-.036-.008-.036-.009-.017-.003-.021-.005-.017-.003-.021-.004-.017-.003-.021-.003-.017-.003-.022-.003-.016-.003-.023-.003-.015-.002-.075-.01-.05-.004-.016-.002-.033-.003-.049-.004-.02-.001-.03-.002-.02-.001-.03-.002h-.02l-.029-.001-.021-.001h-.029l-.021-.001h-.194l-.033.002H33.9l-.035.002h-.012l-.038.002h-.008l-.043.003-.032.002a8.982 8.982 0 0 0-.052.004l-.019.002c-.06-.407-.108-.816-.143-1.225a14.603 14.603 0 0 1-.057-1.455l.002-.066.003-.087v-.025l.002-.037.001-.024.002-.02.001-.026.002-.04.002-.031.005-.062a6.907 6.907 0 0 1 .027-.272c.005-.035.01-.069.011-.104 0-.02-.002-.04-.006-.06-.043-.17-.208-.277-.347-.366l-.088-.056c-.059-.037-.117-.074-.174-.113l-.08-.058-.026-.022-.003-.003-.005-.004-.012-.01-.006-.006-.005-.005-.009-.008-.002-.002v-.001a.695.695 0 0 1-.02-.02h-.002l-.001-.002a.577.577 0 0 1-.025-.028l-.004-.004v-.001l-.003-.003-.004-.005-.002-.003-.002-.002-.003-.005-.003-.004-.001-.001-.002-.003a.348.348 0 0 1-.048-.092.423.423 0 0 1 .01-.246c.053-.195.168-.372.284-.534.052-.071.105-.141.16-.21.058-.074.112-.14.173-.214.098-.12.196-.24.291-.363.055-.072.109-.145.161-.219.121-.18.239-.369.294-.58.058-.224.088-.453.096-.684l.003-.076v-.183l-.002-.047-.001-.03-.002-.048-.002-.03-.003-.053-.002-.023-.006-.075-.002-.02-.006-.055-.003-.031-.006-.045-.004-.034-.006-.041-.005-.036-.007-.039-.006-.037-.006-.037-.007-.038-.007-.034a4.362 4.362 0 0 0-.062-.273 2 2 0 0 0-.26-.627c-.153-.225-.368-.4-.602-.537a2.835 2.835 0 0 0-.21-.111c-.04-.02-.08-.038-.12-.052a1.13 1.13 0 0 0-.187-.042c-.16-.02-.322-.029-.483-.047-.11-.016-.25-.03-.328-.12a.498.498 0 0 1-.086-.168c-.03-.098-.054-.197-.085-.295a.462.462 0 0 0-.107-.19l-.011-.01-.004-.002-.008-.006-.005-.003-.007-.005-.005-.003-.008-.004-.005-.003-.008-.004-.005-.002-.008-.003-.005-.002-.01-.004-.004-.001-.014-.004-.003-.001-.01-.003-.022-.005-.017-.003-.012-.002-.018-.003-.012-.001-.027-.004a3.097 3.097 0 0 0-.336-.02c-.358-.008-.717.01-1.074.034l-.17.013-.188.014-.068.006a2.62 2.62 0 0 0-.2-.283 2.921 2.921 0 0 0-.597-.557 1.864 1.864 0 0 0-.306-.178l-.026-.01-.008-.004-.018-.007-.008-.003-.02-.006-.006-.003-.025-.008-.006-.002a1.774 1.774 0 0 0-.267-.06 3.618 3.618 0 0 0-.558-.034 8.25 8.25 0 0 0-.836.051l-.036.004-.113.013-.15.018c-.14.017-.28.036-.42.052-.057.006-.115.01-.172.019a1.454 1.454 0 0 0-.109.024c-.245.075-.455.22-.653.379-.204.165-.396.345-.597.514l-.135.107a2.03 2.03 0 0 1-.568.318l-.038.011-.036.01v.008c-.006.144-.02.292-.052.435l-.021.182c-.013.09-.024.18-.04.27-.011.06-.023.119-.038.178a1.58 1.58 0 0 1-.046.157.799.799 0 0 1-.105.206l-.008.01-.007.008-.001.002-.002.002-.007.009-.005.005-.002.003-.004.004-.008.008-.003.004-.003.002-.006.006-.007.007-.005.004-.001.001a.311.311 0 0 1-.018.015l-.002.002a.308.308 0 0 1-.018.013l-.01.006v.001h-.002l-.005.004-.004.003h-.002l-.007.004-.003.003-.012.006a.415.415 0 0 1-.163.044h-.012a.186.186 0 0 1-.119-.04.461.461 0 0 1-.101-.121 1.953 1.953 0 0 1-.037-.062c-.1.04-.204.072-.31.096-.25.059-.507.075-.764.082-.18.003-.362 0-.543-.001-.155-.001-.31.002-.466-.002a5.2 5.2 0 0 1-.64-.072 2.545 2.545 0 0 1-.163.009h-.041a1.13 1.13 0 0 1-.547-.123 2.17 2.17 0 0 0-.161-.012c-.126-.005-.251.005-.376.006a2.189 2.189 0 0 1-.164-.01.665.665 0 0 1-.197-.051.664.664 0 0 1-.15-.104 1.85 1.85 0 0 1-.18-.185c-.126-.144-.243-.295-.37-.438a3.436 3.436 0 0 0-.116-.12c-.123-.113-.258-.22-.43-.233h-.021l-.113-.035a6.044 6.044 0 0 1-.086.007l-.011.001-.05.004a2.974 2.974 0 0 1-.098.003h-.034c-.044 0-.088-.003-.131-.008a.682.682 0 0 1-.206-.056.505.505 0 0 1-.215-.201l-.333-.1c-.058-.137-.126-.269-.184-.405a1.73 1.73 0 0 1-.128-.51c-.031-.212-.05-.44.004-.652zm2.254 20.35.873 2.059a4.983 4.983 0 0 0-.04-.707 1.797 1.797 0 0 0-.114-.457 2.188 2.188 0 0 0-.323-.502 1.83 1.83 0 0 0-.39-.388l-.006-.004zm-.581-14.961c1.224.53 2.207 1.473 2.463 3.244.23.013.43.092.617.237a4.257 4.257 0 0 0-.278.742h-.775a5.011 5.011 0 0 0 0 2.23h.775c.095.35.235.688.416 1.004l-.547.548c.4.637.939 1.176 1.576 1.576l.547-.547c.316.18.654.32 1.006.416v.775a5.014 5.014 0 0 0 2.228 0v-.775c.352-.095.69-.235 1.006-.416l1.233 1.232A5.93 5.93 0 0 1 24 29.966a5.964 5.964 0 0 1-5.961-5.961c0-.456.04-.93.062-1.43.02-.436-.125-1.173-.523-1.572-.698-.698-1.406-1.161-1.406-1.161l.914-1.175zm13.828 10.676c-1.224-.53-2.207-1.473-2.463-3.244a1.071 1.071 0 0 1-.617-.238c.116-.238.209-.486.278-.742h.775a5.011 5.011 0 0 0 0-2.229h-.775a4.261 4.261 0 0 0-.416-1.005l.547-.548a5.012 5.012 0 0 0-1.576-1.576l-.547.548a4.261 4.261 0 0 0-1.006-.416v-.775a5.011 5.011 0 0 0-2.228 0v.775c-.352.095-.69.235-1.006.416l-1.233-1.233A5.93 5.93 0 0 1 24 18.043a5.964 5.964 0 0 1 5.961 5.962c0 .455-.04.93-.062 1.43-.02.436.125 1.173.523 1.571a9.915 9.915 0 0 0 1.406 1.162l-.914 1.175zm4.73-2.32c-.13.144-.273.277-.401.414-.037.04-.072.08-.105.122a.729.729 0 0 0-.12.204c-.019.067-.028.145-.039.209l-.027.166c-.011.073-.022.147-.031.221l.722-1.336zm-10.832-7.101a4.162 4.162 0 0 0-1.624 0l.02.634c-.385.088-.752.24-1.086.45l-.435-.463a4.165 4.165 0 0 0-1.149 1.149l.463.434a3.54 3.54 0 0 0-.45 1.086l-.634-.02a4.165 4.165 0 0 0 0 1.625l.634-.02c.089.385.24.752.45 1.086l-.463.435c.304.454.695.845 1.15 1.148l.434-.462c.334.21.701.361 1.086.45l-.02.634a4.165 4.165 0 0 0 1.624 0l-.02-.634a3.54 3.54 0 0 0 1.086-.45l.435.462a4.165 4.165 0 0 0 1.149-1.148l-.463-.435a3.54 3.54 0 0 0 .45-1.086l.634.02a4.165 4.165 0 0 0 0-1.624l-.634.02a3.54 3.54 0 0 0-.45-1.087l.463-.434a4.165 4.165 0 0 0-1.15-1.149l-.434.463a3.543 3.543 0 0 0-1.086-.45l.02-.634zm-.992 1.814v-.376h.36v.375c.416-.078.603-.399.598-.372-.068.322-.227.67-.598.757v.772c.742-.084 1.076-.647 1.067-.603-.116.538-.394 1.123-1.067 1.215v.702c.913-.081 1.322-.729 1.31-.678-.14.61-.48 1.275-1.31 1.363v.848c1.166-.084 1.689-.936 1.675-.871-.187.836-.658 1.752-1.855 1.757-1.2.003-1.67-.92-1.848-1.761-.012-.06.502.797 1.668.876v-.847c-.836-.081-1.177-.752-1.31-1.368-.01-.047.394.607 1.31.682v-.701c-.678-.086-.956-.677-1.067-1.22-.007-.04.322.528 1.067.607v-.771c-.374-.084-.533-.436-.598-.76-.004-.026.18.298.598.374zm-9.952 2.94.134.315a1.019 1.019 0 0 0-.015-.126.328.328 0 0 0-.04-.12c-.021-.027-.051-.049-.08-.07zm4.638-8.813.046.005c.134.007.268-.003.401-.004.066 0 .066 0 .131.004.36.032.712.1 1.068.154a3.691 3.691 0 0 0 .512.043c.297-.001.593.006.889.001.201-.005.404-.016.602-.056a1.61 1.61 0 0 0 .358-.113.893.893 0 0 0 .329-.234.75.75 0 0 0 .128-.277c.041-.157.053-.32.055-.481a4.148 4.148 0 0 0-.006-.264 7.785 7.785 0 0 0-.02-.277c-.027-.28-.063-.558-.087-.838-.016-.22-.018-.44-.03-.66a5.247 5.247 0 0 0-.02-.22 1.664 1.664 0 0 0-.066-.305c-.01-.032-.02-.074-.043-.1a.336.336 0 0 0-.055-.042 1.422 1.422 0 0 0-.069-.04c-.116-.057-.236-.11-.352-.17a1.575 1.575 0 0 1-.404-.294 1.822 1.822 0 0 1-.259-.38 2.815 2.815 0 0 1-.326-.941l-.004-.034-.052.005-.034.003h-.009l-.023.003h-.01l-.019.002-.01.001-.039.003c-.104.003-.207.002-.31.002-.228.002-.292.004-.519.008l-.085.002h-.023l-.147.005-.047.001h-.028l-.098.004h-.01l-.073.003h-.016l-.01.001-.093.004h-.027l-.024.001-.07.003h-.003l-.105.005-.502.02c-.305.01-.61-.003-.914.005a4.413 4.413 0 0 0-.446.035h-.004l-.01.002-.008.001h-.003l-.008.002-.008.002h-.005l-.007.002-.008.001h-.003l-.003.001-.006.001-.007.002h-.004l-.004.001-.012.003h-.005l-.004.002h-.005l-.005.002-.006.001-.005.001-.004.001-.004.001-.007.002-.006.001h-.003l-.004.002-.008.002-.006.001h-.002l-.003.001-.01.003-.007.002h-.002l-.012.004-.005.001-.021.006a.82.82 0 0 0-.19.08c-.02.012-.047.025-.06.045-.01.019-.014.041-.017.062-.012.084-.007.17-.002.254l.002.02.016.188a9.044 9.044 0 0 1 .02.284c.007.238-.012.476-.106.697-.044.103-.102.2-.168.292a2.183 2.183 0 0 1-.253.285l-.013.012-.005.004-.008.008-.023.02-.003.003-.027.024-.026.023-.014.012-.012.01-.017.015-.057.048c-.079.067-.157.133-.233.204a.802.802 0 0 0-.193.25c-.05.12-.038.27-.026.395.008.077.02.154.034.23.011.063.022.127.042.188.026.079.062.154.098.229l.02.042.995.3h-.031c.048.003.047.003.095.01.046.008.046.008.09.02.07.02.138.044.203.077.214.108.384.274.541.454l.025.028.024.029.024.028.023.028.02.024.079.095.041.051.038.045.022.027.025.028.023.027.021.024c.033.035.067.07.103.103.01.009.025.025.04.03a.31.31 0 0 0 .022.004zM22.838.58a24.2 24.2 0 0 1 2.382.002L22.838.581z" fill="#2F4A98"/>
</svg>
