<svg width="48" height="49" viewBox="0 0 48 49" fill="none" xmlns="http://www.w3.org/2000/svg">
<path fill-rule="evenodd" clip-rule="evenodd" d="M24.0381 3.49011C26.4812 3.49011 28.4641 5.4937 28.4641 7.96526C28.4641 10.4371 26.481 12.4407 24.0381 12.4407C21.5912 12.4407 19.608 10.4371 19.608 7.96526C19.608 5.4937 21.5912 3.49011 24.0381 3.49011ZM34.3442 0.552734C36.7917 0.552734 38.7735 2.5566 38.7735 5.02816C38.7737 7.5 36.7917 9.50386 34.344 9.50386C31.9005 9.50386 29.9174 7.5 29.9174 5.02816C29.9174 2.5566 31.9008 0.552734 34.3442 0.552734ZM14.593 8.06904C17.0389 8.06904 19.0214 10.0734 19.0214 12.5461C19.0214 15.0171 17.0389 17.0212 14.593 17.0212C12.1475 17.0212 10.1646 15.0171 10.1646 12.5461C10.1646 10.0734 12.1475 8.06904 14.593 8.06904ZM24.0105 28.9937C24.3038 28.9797 27.2563 28.8634 29.0713 29.7782C29.7359 30.1129 29.8043 30.5443 29.8032 31.0009C29.8021 33.1239 24.0673 36.1554 23.5035 36.4429C16.2413 40.1484 6 40.7785 6 40.7785L6.09625 48.5527C10.478 47.9455 18.3834 47.0518 27.9233 41.8832C32.6418 39.3266 37.7485 35.1181 36.796 29.0943C35.8756 23.2829 29.7893 21.6454 24.0576 21.8964L23.9901 28.9685C23.6997 28.9829 20.7453 29.0994 18.93 28.1849C18.2651 27.8502 18.1981 27.4191 18.1981 26.962C18.1987 24.8386 23.933 21.8072 24.4973 21.5205C31.7603 17.8141 42 17.1841 42 17.1841L41.904 9.40956C37.5209 10.0182 29.6166 10.911 20.0775 16.0793C15.3582 18.6357 10.2531 22.8445 11.2064 28.8683C12.1265 34.681 18.2129 36.3171 23.9429 36.0657L24.0105 28.9937Z" fill="#D8262C"/>
</svg>
