<svg width="48" height="49" viewBox="0 0 48 49" fill="none" xmlns="http://www.w3.org/2000/svg">
<path fill-rule="evenodd" clip-rule="evenodd" d="M31.268 25.5549C31.268 21.5214 27.9908 18.2441 24.0076 18.2441C19.974 18.2441 16.6968 21.4709 16.6968 25.5045C16.6968 29.5381 19.974 32.7649 23.9572 32.8153C28.0412 32.8658 31.268 29.5885 31.268 25.5549Z" fill="#CDCCCC"/>
<path d="M21.6884 16.2774C21.033 16.4791 20.3775 16.0757 20.1254 15.4707L16.4952 6.34479C16.3439 5.94139 16.4952 5.48759 16.8481 5.23549L21.4363 1.90779C22.9993 0.748186 25.1169 0.748186 26.6295 1.90779L31.2177 5.28589C31.5707 5.48759 31.6715 5.94139 31.5707 6.34479L27.9404 15.4707C27.6883 16.1262 27.0329 16.4791 26.327 16.3278C25.6211 16.1262 24.8144 16.0253 24.0077 16.0253C23.2514 16.0253 22.4447 16.1262 21.6884 16.2774Z" fill="#51B5D1"/>
<path d="M29.7556 17.9917C31.016 18.9497 32.0244 20.2101 32.6295 21.6219C32.932 22.2269 33.7387 22.5799 34.3437 22.3782L43.6714 19.5547C44.0747 19.4539 44.3268 19.0001 44.3268 18.5967L44.1251 12.8993C44.0243 10.9834 42.7134 9.36989 40.8983 8.86569L35.4025 7.35309C34.9488 7.25229 34.5454 7.40359 34.3437 7.75649L29.4026 16.2774C29.1505 16.7312 29.2514 17.5883 29.7556 17.9917Z" fill="#51B5D1"/>
<path d="M13.6213 22.4286L4.24322 19.7059C3.83992 19.5043 3.58782 19.1513 3.63822 18.748L3.83992 13.0506C3.89032 11.1346 5.20122 9.52119 6.96592 8.96659L12.4616 7.40359C12.865 7.30269 13.2683 7.45399 13.5204 7.80689L18.4616 16.2774C18.8145 16.832 18.6632 17.6387 18.159 18.0421C16.8986 19.0001 15.9406 20.2606 15.2851 21.7227C14.9826 22.3278 14.2263 22.6303 13.6213 22.4286Z" fill="#51B5D1"/>
<path d="M47.6041 28.0756L45.3352 22.8824C45.184 22.479 44.7806 22.2269 44.3772 22.3278L34.6967 23.8908C33.9908 23.9916 33.4866 24.5967 33.537 25.3025V25.605C33.537 27.1176 33.1841 28.5798 32.5286 29.8403C32.2261 30.4453 32.4278 31.2016 32.9824 31.5546L41.1 37.0503C41.4529 37.3024 41.9571 37.252 42.2596 36.9495L46.4949 33.168C47.957 31.8571 48.4108 29.8403 47.6041 28.0756Z" fill="#51B5D1"/>
<path d="M14.428 25.5546C14.428 27.0672 14.8313 28.5294 15.4868 29.7899C15.7389 30.4453 15.5876 31.2016 14.9826 31.605L6.91552 37.1007C6.51212 37.3528 6.10882 37.3024 5.75582 36.9999L1.52062 33.2688C0.0584186 32.0083 -0.395381 29.9411 0.360919 28.1764L2.62982 22.9832C2.78112 22.6303 3.18442 22.4286 3.58782 22.4286L13.2683 23.9412C13.9742 24.042 14.4784 24.6471 14.428 25.3529V25.5546Z" fill="#51B5D1"/>
<path d="M31.974 32.815C31.4698 32.3613 30.7135 32.3613 30.1589 32.7646C28.9993 33.773 27.5875 34.4789 26.0245 34.8318C25.369 34.9327 24.8649 35.5881 24.9153 36.294L25.722 46.0754C25.7724 46.4788 26.1253 46.8317 26.5287 46.8821L32.1757 47.8401C34.0412 48.193 35.9067 47.2351 36.8143 45.5208L39.4361 40.4788C39.6378 40.1259 39.5874 39.6217 39.2849 39.3192L31.974 32.815Z" fill="#51B5D1"/>
<path d="M22.0414 34.8823C20.4783 34.5293 19.0162 33.8234 17.8565 32.8655C17.3523 32.4117 16.5456 32.5125 16.0918 32.9159L8.83142 39.6217C8.52892 39.9242 8.47852 40.378 8.68022 40.7309L11.3524 45.7729C12.2599 47.4367 14.1759 48.3443 16.0414 47.9913L21.6884 46.983C22.0918 46.8821 22.3943 46.5292 22.4447 46.1258L23.1506 36.3444C23.201 35.6385 22.6968 34.9831 22.0414 34.8823Z" fill="#51B5D1"/>
</svg>
