<svg width="48" height="49" viewBox="0 0 48 49" fill="none" xmlns="http://www.w3.org/2000/svg">
<path fill-rule="evenodd" clip-rule="evenodd" d="M16.437 8.9339L16.4368 8.9337C18.3011 6.1969 20.9577 3.4405 23.844 0.845703C25.515 2.8492 26.9759 5.3598 27.4994 8.2576C29.5678 7.0691 31.8978 6.0805 34.3542 5.2566C35.9713 4.7143 37.6397 4.2441 39.32 3.834C39.1121 7.5912 38.3996 11.5812 36.7703 15.1635V15.1636L36.7704 15.1635C40.6103 15.2426 44.4792 16.3701 48 17.9041C45.1882 21.5181 42.0341 24.9016 38.6891 27.3086L38.689 27.3088L38.6892 27.3087C41.0904 29.2922 42.7487 32.0651 43.866 34.8474C40.0817 36.4365 36.2745 37.6938 32.8978 38.1325L32.8973 38.1327L32.8979 38.1326C33.3329 40.5437 32.8979 43.1087 32.1644 45.3663C30.9606 45.2664 29.7715 45.1285 28.6277 44.9424C26.8766 44.6591 25.2259 44.2595 23.7809 43.702L23.7795 43.7016L23.7809 43.7021C22.963 45.4973 21.5448 47.0459 20.0993 48.2603C18.2027 47.0805 16.3945 45.7248 15.1109 44.2374L15.1105 44.237L15.111 44.2376C13.7876 45.1866 12.1477 45.7435 10.6257 46.0591C9.6845 44.5546 8.8458 42.9053 8.4359 41.3055C7.564 41.4177 6.6481 41.3687 5.7584 41.2223C5.2163 41.1344 4.6805 41.0111 4.1681 40.8666C3.9591 39.3151 3.8854 37.641 4.1528 36.1501V36.1495L4.1527 36.15C2.877 35.661 1.6494 34.7536 0.5926 33.7854C0.9916 32.3183 1.5686 30.7772 2.4061 29.5467L2.4062 29.5466C1.4262 28.4078 0.6306 26.8646 0 25.3138C0.9779 24.0732 2.1835 22.8388 3.5183 22.0678L3.5076 22.0253C3.0575 20.2242 2.9467 18.0527 3.0065 15.9076C3.5968 15.62 4.2168 15.3612 4.8565 15.1452C5.9099 14.7936 7.0016 14.5723 8.0606 14.591H8.0608C8.5035 12.1418 9.5184 9.3909 10.733 6.7039C12.723 6.9637 14.8222 7.598 16.4367 8.9337L16.437 8.9339Z" fill="#7DCDF1"/>
<path fill-rule="evenodd" clip-rule="evenodd" d="M19.7024 15.0175V15.0174C20.9038 13.5857 22.3445 12.1241 24.0252 10.6898C25.0647 9.79131 26.2363 8.98821 27.4993 8.25781C27.7031 9.38951 27.7614 10.5648 27.6308 11.7673C27.4165 13.7535 26.9871 15.6696 26.3903 17.4547V17.4547C28.2324 16.6794 30.2894 16.0247 32.519 15.5467C33.909 15.2513 35.3328 15.1325 36.7702 15.1638C36.1542 16.5149 35.4117 17.7942 34.5303 18.9664C33.1092 20.8577 31.6054 22.5063 30.0928 23.9038C31.901 24.1842 33.7643 24.69 35.6062 25.4437C36.7368 25.9075 37.7623 26.5438 38.6891 27.3089C37.451 28.1972 36.1884 28.9523 34.9009 29.5401C32.8426 30.4795 30.8809 31.1654 29.0601 31.6325V31.6326L29.0602 31.6325C30.1503 32.7173 31.1311 33.9826 31.9315 35.4028C32.4116 36.2498 32.7237 37.1735 32.8978 38.1327C31.6408 38.297 30.4354 38.3493 29.2994 38.2636C27.461 38.1284 25.7943 37.8401 24.3113 37.4357C24.529 38.7185 24.5745 40.0627 24.4298 41.4106C24.3437 42.2022 24.113 42.9709 23.7807 43.7024C22.88 43.354 22.0514 42.9474 21.3228 42.4612C20.1209 41.661 19.0827 40.7967 18.2111 39.9006L18.2044 39.895L18.211 39.9018C17.7888 40.9449 17.2294 41.9428 16.5367 42.8595C16.1402 43.3907 15.6529 43.8459 15.1108 44.2376C14.6107 43.6612 14.1844 43.0572 13.8568 42.427C13.3035 41.3746 12.8925 40.3154 12.607 39.2766V39.2765C11.845 39.904 11.0014 40.4347 10.0952 40.8449C9.57411 41.0852 9.01481 41.2291 8.43591 41.3057C8.27281 40.6683 8.17651 40.0344 8.16761 39.4123C8.14991 38.3562 8.24691 37.3322 8.44191 36.3634V36.3632L8.44181 36.3634C7.56171 36.5345 6.65051 36.5895 5.73521 36.5217C5.20331 36.4828 4.67291 36.3517 4.15271 36.1501C4.26371 35.5467 4.42901 34.9668 4.66411 34.4365C5.07191 33.5232 5.57011 32.6804 6.14271 31.9249V31.9248C5.30461 31.6374 4.47851 31.2318 3.69001 30.7056C3.22721 30.3964 2.80041 30.0034 2.40601 29.547C2.75061 29.0426 3.13661 28.5897 3.57281 28.2144C4.32841 27.5661 5.14141 27.0333 5.98581 26.6183L5.98601 26.6181L5.98581 26.6182C5.34321 25.8699 4.75421 25.0034 4.24251 24.0205C3.93841 23.4381 3.69961 22.7792 3.51821 22.0666C4.07121 21.7506 4.64291 21.512 5.22591 21.3877C6.23721 21.1713 7.25101 21.1094 8.23621 21.1905C7.98211 20.0052 7.83621 18.6982 7.81461 17.2841C7.79811 16.4322 7.88931 15.5289 8.06061 14.5911C8.75591 14.6055 9.42971 14.7268 10.0594 14.9854C11.1378 15.4243 12.1249 16.0355 12.9995 16.7787L12.9999 16.7789L12.9996 16.7786C13.3864 15.2834 13.9425 13.6842 14.6918 12.0111C15.1511 10.9826 15.7422 9.95571 16.4366 8.93391C17.088 9.46961 17.6508 10.1152 18.0835 10.8819C18.815 12.1758 19.3521 13.579 19.7023 15.0174L19.7024 15.0175Z" fill="#00AAE7"/>
<path fill-rule="evenodd" clip-rule="evenodd" d="M15.9915 20.7938C15.9686 20.8457 16.0145 20.8464 15.9915 20.7938L15.9923 20.792L15.9915 20.7903C16.7981 18.9612 18.0391 16.9966 19.7024 15.0166C20.2045 17.1072 20.3006 19.2396 20.0208 21.2192C19.9835 21.2503 19.9811 21.2877 20.0047 21.3311C20.0102 21.2939 20.0156 21.2566 20.0209 21.2192C21.7084 19.8152 23.8596 18.5165 26.3903 17.4538C25.55 19.9644 24.3957 22.1845 23.0666 23.9797L23.0663 23.9798H23.0666C23.4716 23.8993 23.885 23.8338 24.3111 23.7807C26.1003 23.56 28.0557 23.5868 30.0928 23.9038C28.0092 25.8242 25.8978 27.2706 23.9179 28.2174C25.7201 28.9233 27.4936 30.077 29.0603 31.6317C27.0364 32.1497 25.1632 32.3949 23.5018 32.4005C23.1045 32.4013 22.7185 32.3881 22.3461 32.3626L22.346 32.3625V32.3625L22.3461 32.3626C23.3058 33.7921 23.9903 35.5323 24.3111 37.4345C22.2384 36.8655 20.4909 36.0562 19.1266 35.0864V35.0854L19.1265 35.0862C19.1592 36.6636 18.8492 38.3192 18.211 39.8997C16.9589 38.6159 16.0216 37.2417 15.4233 35.8669V35.8669V35.8669C15.441 35.8337 15.3993 35.8115 15.4233 35.8669V35.8669V35.8669C14.7374 37.1487 13.7739 38.3176 12.607 39.2757C12.1901 37.743 12.0473 36.2303 12.1716 34.8259L12.1717 34.8258H12.1716V34.8259C11.0659 35.5777 9.78954 36.1028 8.44174 36.3626C8.73694 34.9053 9.26004 33.5562 9.97464 32.4056C10.018 32.4017 10.0057 32.3554 9.97474 32.4056C9.72084 32.4284 9.46804 32.4406 9.21154 32.4406C8.19294 32.4431 7.15634 32.2728 6.14264 31.9241C7.01164 30.7704 8.04564 29.816 9.17284 29.128C8.02574 28.5742 6.94164 27.7235 5.98584 26.6174C7.02014 26.1083 8.09844 25.7816 9.16244 25.6502C9.42734 25.6161 9.69394 25.5973 9.96014 25.5897C9.98954 25.6355 10.0163 25.588 9.96004 25.5897C9.19344 24.3985 8.60194 22.9091 8.23844 21.1899C9.73424 21.3158 11.1434 21.7749 12.3422 22.5206V22.5207C12.345 22.5719 12.3866 22.5483 12.3422 22.5207V22.5206V22.5206C12.2452 20.8354 12.4562 18.8889 12.9995 16.7779C14.3047 17.889 15.3278 19.2755 15.9915 20.7903L15.9907 20.7921L15.9915 20.7938Z" fill="#006FBA"/>
<path fill-rule="evenodd" clip-rule="evenodd" d="M20.0239 21.1964C20.0229 21.204 20.0219 21.2117 20.0208 21.2193C18.6658 22.3477 17.5918 23.5601 16.8426 24.7969C16.8511 23.4551 16.5588 22.0893 15.9915 20.7939C15.3317 22.293 14.9485 23.7275 14.8604 25.0396C14.2553 24.0267 13.3876 23.1707 12.3422 22.5208C12.4208 23.9332 12.7177 25.1896 13.2235 26.2303C12.2411 25.7623 11.1269 25.5538 9.95995 25.5898C9.94675 25.5693 9.92065 25.572 9.88475 25.5923C9.90985 25.5914 9.93495 25.5905 9.96005 25.5898C10.6144 26.6105 11.4088 27.4297 12.312 27.9903C11.2421 28.1169 10.1724 28.5167 9.17285 29.1281C10.1724 29.6135 11.2307 29.8716 12.2866 29.8665C11.3859 30.5162 10.6034 31.3883 9.97465 32.4057V32.4057C11.086 32.3054 12.1595 31.981 13.1205 31.4348C12.5978 32.4514 12.2822 33.6051 12.1717 34.8259C13.16 34.1568 14.002 33.3165 14.6336 32.3425C14.6421 33.5034 14.915 34.695 15.4233 35.867C16.0292 34.733 16.4032 33.5287 16.5049 32.3361C17.11 33.3533 18 34.2845 19.1265 35.0863L19.1266 35.0862C19.0992 33.7193 18.8149 32.4352 18.2745 31.3337C19.3984 31.9046 20.774 32.2541 22.346 32.3626C21.5355 31.1573 20.5424 30.1911 19.4326 29.539C20.8109 29.4218 22.3312 28.9769 23.9178 28.2175C22.4434 27.6405 20.9606 27.3741 19.5673 27.4284C20.8016 26.6002 21.9908 25.4325 23.0666 23.9799L23.0665 23.9798C21.3679 24.3158 19.8535 24.8871 18.5959 25.6638C19.3047 24.3728 19.7895 22.8601 20.0209 21.2193C20.0269 21.2143 20.0276 21.2066 20.0239 21.1964Z" fill="white"/>
</svg>
