<svg width="48" height="49" viewBox="0 0 48 49" fill="none" xmlns="http://www.w3.org/2000/svg">
    <path fill-rule="evenodd" clip-rule="evenodd" d="M31.52 35.119C9.961 53.374-11.44 25.657 7.012 6.978c-8.593 20.25 7.213 35.576 24.506 28.14zm2.97-18.371c18.564 21.307-8.72 43.224-27.655 25.035 20.338 8.278 35.359-7.823 27.656-25.035zm-18.088-2.881c21.44-18.394 43.02 9.183 24.687 27.981 8.462-20.306-7.443-35.529-24.687-27.981zm-3.586 17.29C-3.649 8.18 25.585-11.044 42.714 8.861 23.25-1.311 6.775 13.29 12.816 31.156z" fill="#4C2A93"/>
    <path fill-rule="evenodd" clip-rule="evenodd" d="M24 33.553c4.957 0 9-4.043 9-9s-4.043-9-9-9-9 4.043-9 9 4.043 9 9 9z" fill="#F10B7C"/>
</svg>
