<svg width="48" height="49" viewBox="0 0 48 49" fill="none" xmlns="http://www.w3.org/2000/svg">
    <path fill-rule="evenodd" clip-rule="evenodd" d="M23.184.81 11.497 7.523l-.065.037a3.818 3.818 0 0 0-1.895 3.296V34.5l6.302-3.62-.036-.082-.002-.006-.04-.095-.038-.093-.005-.014-.038-.096-.036-.096-.001-.005h-.001l-.036-.099-.034-.1-.001-.004-.034-.1-.033-.104v-.002l-.002-.002-.009-.029-.008-.028a10.31 10.31 0 0 1-.043-.147v-.001l-.03-.104-.028-.106v-.005l-.016-.06-.015-.058a8.859 8.859 0 0 1-.068-.304v-.002l-.022-.108-.02-.103v-.01l-.02-.107-.017-.106a8.379 8.379 0 0 1-.056-.443v-.004l-.01-.107-.01-.113-.008-.113-.006-.107v-.005l-.006-.114-.003-.11v-.003l-.002-.115-.001-.113v-.11l.003-.11.002-.073.001-.021.005-.124.004-.076.001-.017.001-.012.007-.111.019-.216.01-.101.014-.116.012-.095.017-.117.015-.098.02-.116.016-.092.022-.118.02-.094c.01-.053.018-.087.025-.118l.02-.085.029-.12.023-.09.026-.098.009-.032.019-.068.018-.064.02-.065.029-.093.029-.092.03-.09.012-.034.057-.16.028-.075v-.002l.006-.013.04-.107.039-.094.036-.09.054-.124.032-.072.044-.096.04-.087.049-.099.046-.09.048-.095.044-.083.027-.05.027-.05.046-.08.004-.008.053-.092.045-.076v-.001l.008-.015.05-.081.047-.075.067-.106.017-.025.056-.085.058-.085c.099-.144.202-.285.308-.42l.071-.092.048-.058.033-.042.045-.054.046-.054.043-.05.04-.046.04-.045.056-.063.043-.047.043-.047.048-.051.05-.052.049-.051.034-.034.057-.058.057-.057.022-.02.059-.057.06-.056.03-.03.061-.056.063-.056.01-.009.068-.06.071-.061.008-.007h.001a5.472 5.472 0 0 1 .252-.208 8.75 8.75 0 0 1 .683-.489l.01-.006.078-.05.078-.05.011-.006.078-.047.076-.045.023-.014.021-.012.022-.012c.038-.023.074-.043.106-.06l.026-.015.073-.04.075-.04.034-.018.077-.04.076-.038.012-.006.087-.043.086-.04.003-.002a7.22 7.22 0 0 1 .46-.2c.4-.161.815-.295 1.24-.396l.008-.002.094-.022.093-.02.015-.004.096-.02.098-.019h.005l.094-.018.095-.017.025-.004.092-.015.093-.013.012-.003.097-.012.094-.013h.008l.088-.012V9.006c0-.164.033-.294.088-.392a.471.471 0 0 1 .186-.187.534.534 0 0 1 .254-.061c.12 0 .247.034.367.1l14.554 8.37v-5.98a3.816 3.816 0 0 0-1.795-3.235L24.831.826c-.312-.177-.57-.27-.83-.273h-.018c-.254 0-.504.085-.799.257zm1.81 17.73.09.01h.007l.102.014.101.014.014.003.103.015.102.017h.004l.105.02.105.02h.003l.104.022.106.023.005.001.03.007.028.006.15.037h.002l.105.027.106.028.003.001.001.001.06.017.059.016c.099.03.199.06.298.093l.003.001.103.035.1.036h.003l.004.003h.002l.103.038.101.038h.001c.141.055.278.113.412.172l.005.002.098.045.102.048.102.05.097.048.004.002h.001l.102.053.097.052.002.002.102.055.1.056.094.055.094.057.081.05.106.067.064.042.013.008.01.008.014.008.08.053.082.056.096.068.084.06.094.07.076.057.094.074.077.062.092.074.072.06.09.078.073.064.09.081.064.059.09.086.067.064.072.072.074.073.046.049.046.05.068.07.064.072.064.07.024.029c.036.04.071.08.111.129l.05.061.002.001.01.011.072.089.063.08.06.076.068.093.012.016.047.063.062.086.056.079.06.09.058.085.058.09.05.078.03.05.03.047.047.08.005.007.053.091.044.077v.001l.009.015.046.083.041.078.03.055.03.056.012.026.002.001.045.09.045.093c.076.158.147.316.212.475l.017.04.027.069.027.07.044.114.024.067.022.061.02.057.02.059.026.08.02.06.02.06.04.135.02.069.013.046.042.155.007.03.02.08.019.078.01.041.019.081.017.082.002.014.02.09.017.09.002.01v.002a7.746 7.746 0 0 1 .054.32c.041.277.07.555.085.833v.012l.005.093.003.091v.013l.002.09.002.088v.198l-.002.112-.003.084-.001.038-.01.172v.013l-.006.097-.007.093v.004a10.72 10.72 0 0 1-.057.497c-.06.425-.151.849-.275 1.266l-.002.008-.028.091-.029.091-.005.015-.03.092-.032.094-.002.005-.032.089-.034.091-.008.023-.033.087-.035.087-.004.012-.037.089-.037.088-.002.007-.035.081.077.044 8.25 4.739a.796.796 0 0 1 .298.272c.05.083.071.17.069.254a.522.522 0 0 1-.074.25.769.769 0 0 1-.27.265l-14.412 8.267-.152.087.152.087 5.053 2.903a3.856 3.856 0 0 0 3.714.071l11.831-6.796c.31-.18.52-.356.653-.578.134-.222.188-.484.185-.832v-13.5a3.82 3.82 0 0 0-1.922-3.281L24.995 11.3v7.24zM2.42 23.124A3.821 3.821 0 0 0 .5 26.288l.001 13.59c.002.357.05.627.177.852.126.226.328.403.632.575l11.688 6.713.064.038a3.862 3.862 0 0 0 3.818-.016l20.432-11.735.15-.087-6.223-3.575-.079-.045-.053.073-.004.005-.063.081-.063.08-.009.01-.065.082-.066.079-.002.003-.069.081-.07.08-.002.003-.07.079-.074.08-.002.001-.002.002-.02.022-.02.022-.107.11-.001.002-.075.076-.079.078-.002.002h-.001l-.044.044-.044.042a8.476 8.476 0 0 1-.231.211l-.001.001-.083.072-.081.07h-.002l-.004.003-.001.002-.084.07-.084.068a8.849 8.849 0 0 1-.357.27l-.003.002-.089.062-.093.065-.095.063-.09.059-.003.002h-.001l-.097.062-.094.058-.002.001-.1.06-.097.057-.096.055-.097.053-.065.034-.018.01-.112.058-.068.034-.015.007-.01.005-.015.008-.086.042-.197.092-.093.042-.196.083-.112.044-.092.036-.111.042-.088.031-.114.04-.092.03c-.051.018-.084.027-.116.038l-.082.025-.12.035-.09.025-.098.026-.032.009-.069.017-.065.016-.067.016-.095.022-.095.02-.092.02-.037.006c-.053.011-.106.021-.168.031l-.079.013h-.001l-.015.003c-.03.005-.062.011-.113.018l-.101.015-.097.013-.115.014-.02.002-.078.008-.106.01-.096.01-.11.007-.102.006-.106.005-.095.004-.114.003-.093.002H23.896l-.096-.003-.088-.003-.127-.005-.028-.002h-.002l-.102-.005-.103-.008a8.583 8.583 0 0 1-.52-.054l-.043-.006-.072-.01-.075-.013-.053-.007-.069-.012-.07-.012-.064-.012-.06-.012-.06-.012-.083-.017-.125-.027-.07-.015-.067-.017-.07-.017-.047-.012-.079-.02-.078-.022-.03-.008-.078-.023-.079-.022-.04-.013-.08-.024-.08-.026-.012-.004-.088-.03-.088-.03-.01-.002a6.355 6.355 0 0 1-.307-.115 8.686 8.686 0 0 1-.767-.343l-.011-.006-.082-.042-.082-.043-.012-.007-.079-.042-.078-.044-.023-.013-.022-.012-.02-.013a5.57 5.57 0 0 1-.107-.06l-.024-.015-.072-.044-.072-.044-.106-.067-.072-.047-.011-.007-.08-.054-.08-.053-.002-.001a8.431 8.431 0 0 1-.404-.297 8.774 8.774 0 0 1-.965-.87l-.005-.006-.066-.07-.065-.07-.011-.012-.065-.073-.065-.074-.003-.004-.063-.072-.062-.074-.015-.02-.06-.071-.058-.074-.008-.009-.06-.077-.057-.076-.005-.005-.054-.07-8.327 4.783a.813.813 0 0 1-.385.12.48.48 0 0 1-.436-.256.758.758 0 0 1-.096-.366l.009-16.724-5.206 2.99z" fill="#BA0B22"/>
    <path fill-rule="evenodd" clip-rule="evenodd" d="M17 27.27a7 7 0 1 0 14.001-.002A7 7 0 0 0 17 27.27z" fill="#FFC730"/>
</svg>
