<svg width="48" height="49" viewBox="0 0 48 49" fill="none" xmlns="http://www.w3.org/2000/svg">
<path d="M9.29032 7.97113H36L27.8197 0.552734H2.83491C0.478179 0.552734 0 3.85932 0 3.85932V27.3652C0 27.3652 0.631878 38.5527 16.0361 38.5527C31.4402 38.5527 29.5617 28.1533 29.5617 28.1533C29.5617 28.1533 28.1442 34.4581 19.6565 34.4581C11.1689 34.4581 9.29032 27.211 9.29032 27.211V7.97113Z" fill="#007D3D"/>
<path d="M36.7097 41.1343H10L18.1803 48.5527H43.1651C45.5218 48.5527 46 45.2462 46 45.2462V21.7574C46 21.7574 45.3681 10.5527 29.9639 10.5527C14.5598 10.5527 16.4383 20.9522 16.4383 20.9522C16.4383 20.9522 17.8558 14.6474 26.3435 14.6474C34.8311 14.6474 36.7097 21.8945 36.7097 21.8945V41.1343Z" fill="#007D3D"/>
<path d="M23.4047 33.3758C28.3031 33.3758 32.2742 29.3947 32.2742 24.4838C32.2742 19.5729 28.3031 15.5918 23.4047 15.5918C18.5062 15.5918 14.5352 19.5729 14.5352 24.4838C14.5352 29.3947 18.5062 33.3758 23.4047 33.3758Z" fill="#FFF400"/>
</svg>
