<svg width="48" height="49" viewBox="0 0 48 49" fill="none" xmlns="http://www.w3.org/2000/svg">
    <path fill-rule="evenodd" clip-rule="evenodd" d="M27.023.76c11.757 1.488 20.9 11.567 20.9 23.713 0 13.165-10.742 23.902-23.912 23.902C10.84 48.375.099 37.638.099 24.473c0-3.423.726-6.682 2.032-9.63l1.236 1.588.072.089s.235.277.514.518c.256.218.583.414.814.51.176.07.35.13.534.166.81.159 1.64.15 2.24.122.478-.021.819-.048.819-.048 3.124-.146 4.32 1.262 5.133 2.22.745.876 8.036 10.588 8.036 10.588l3.625-3.629s-3.044-3.88-4.394-5.619c-1.51-1.943-2.603-3.34-3.27-3.904-1.458-1.228-4.683-1.374-5.42-1.5 0 0-2.722-.333-4.346-1.998a9.175 9.175 0 0 1-.648-.739l-2.332-2.863A24.138 24.138 0 0 1 6.68 8.03l2.515 3.239c.491.626.759.989 1.255 1.483 1.262 1.26 3.047 1.43 3.047 1.43 3.72.67 5.753.846 6.932 2.212 1.415 1.638 1.689 2.013 2.872 3.538.435.561 3.856 5.032 3.856 5.032l3.512-3.52s-2.249-2.896-3.555-4.613c-.64-.84-1.652-2.153-2.398-2.689-1.54-1.102-2.91-.938-4.306-1.086-1.2-.128-2.305-.153-3.744-.837 0 0-.622-.138-1.906-1.792-1.285-1.651-1.645-2.13-1.645-2.13L10.36 4.866a23.986 23.986 0 0 1 2.539-1.548l2.715 3.52 1.356 1.768c1.954 2.494 3.217 2.522 4.52 2.675 2.065.245 4.01.114 5.693 1.382.973.734 1.482 1.512 2.182 2.413 1.058 1.361 3.337 4.325 3.337 4.325l3.516-3.52s-2.024-2.615-2.81-3.609c-.261-.329-.71-.745-1.373-1.175-1.05-.683-2.097-.893-4.783-1.289-2.686-.396-3.56-.862-4.828-2.25-.607-.663-.943-1.134-1.351-1.66l-3.517-4.44a23.705 23.705 0 0 1 3.378-.69l2.396 3.307c.805.975 1.522 2.245 3.564 3.154 2.457 1.094 4.313.838 5.996 1.273 0 0 .458.111.963.333.535.236.883.588 1.218.966.556.627 1.043 1.24 1.155 1.383l2.085 2.6 3.475-3.478s-.802-1.025-1.438-1.83c-.394-.497-.566-.676-.896-.878a3.47 3.47 0 0 0-1.032-.422c-.506-.118-1.195-.205-2.385-.253-3.133-.125-4.29-.374-6.284-2.76l-1.48-1.794-1.248-1.61z" fill="#14763E"/>
</svg>
