<svg width="48" height="49" viewBox="0 0 48 49" fill="none" xmlns="http://www.w3.org/2000/svg">
<path d="M24.0562 0.552734L29.3514 5.85395L16.07 19.2045C12.1662 23.1303 5.51193 21.5086 2.98928 15.7791C3.16135 15.7944 3.33312 15.8105 3.50452 15.8266C5.96623 16.0571 8.34974 16.2804 10.3953 14.1951L24.0562 0.552734Z" fill="#029A4C"/>
<path d="M5.29521 19.2625L0 24.5645L13.6269 38.2401C15.7102 40.2891 15.4868 42.6759 15.2561 45.1399C15.2401 45.3109 15.224 45.4824 15.2087 45.6541C20.9326 43.1294 22.5523 36.4684 18.6306 32.559L5.29521 19.2625Z" fill="#029A4C"/>
<path d="M18.6822 43.2519L23.9782 48.5527L37.6379 34.9108C39.6848 32.8248 42.0692 33.0485 44.5308 33.2794C44.7014 33.2954 44.8723 33.3115 45.0435 33.3268C42.5221 27.5968 35.8677 25.9752 31.9632 29.901L18.6822 43.2519Z" fill="#029A4C"/>
<path d="M42.7048 29.8313L48 24.5293L34.3731 10.8541C32.29 8.80539 32.5132 6.4186 32.7435 3.95519C32.7595 3.78384 32.7756 3.61212 32.7909 3.44012C27.0678 5.96444 25.4481 12.6263 29.3694 16.5353L42.7048 29.8313Z" fill="#029A4C"/>
<path fill-rule="evenodd" clip-rule="evenodd" d="M16.5 24.5543C16.5 20.4127 19.8583 17.0527 24.0006 17.0527C28.1413 17.0527 31.5 20.4127 31.5 24.5543C31.5 28.6971 28.1413 32.0527 24.0002 32.0527C19.8583 32.0527 16.5 28.6951 16.5 24.5543" fill="#EB8C30"/>
</svg>
