<svg width="48" height="49" viewBox="0 0 48 49" fill="none" xmlns="http://www.w3.org/2000/svg">
<path d="M14.1858 16.9685V30.9824C23.1648 30.8126 32.1438 27.3779 41.1234 16.6571L41.085 0.619141C32.9508 10.3982 24.1383 16.6472 14.1858 16.9685Z" fill="#1F1F48"/>
<path d="M33.2868 42.5234C33.2868 45.8441 30.5784 48.5525 27.2574 48.5525C23.9367 48.5525 21.2283 45.8441 21.2283 42.5234C21.2283 39.2024 23.9367 36.494 27.2574 36.494C30.5784 36.494 33.2868 39.2024 33.2868 42.5234Z" fill="#1F1F48"/>
<path fill-rule="evenodd" clip-rule="evenodd" d="M33.027 18.1895V32.2034C23.0748 32.5247 14.262 38.7737 6.12776 48.5528L6.08936 32.5148C15.069 21.794 24.048 18.3593 33.027 18.1895Z" fill="#AFB2AE"/>
</svg>
