<svg width="48" height="49" viewBox="0 0 48 49" fill="none" xmlns="http://www.w3.org/2000/svg">
    <path fill-rule="evenodd" clip-rule="evenodd" d="M31.511 18.925h-.322c-.07.468-.315.948-.733 1.438-.14 0-.308-.032-.503-.095a1.835 1.835 0 0 1-.465-.213c.395-.16.699-.328.91-.505.19-.158.354-.367.49-.625-.55 0-.909-.079-1.077-.235 0-.375.08-.693.242-.953.109-.173.233-.298.373-.375.165 0 .315.066.45.198.163.158.268.385.313.68h.395c.063 0 .16-.117.29-.35.162-.29.292-.486.392-.588.337 0 .579.082.726.245.136.155.205.403.205.745-.147.359-.299.595-.456.71-.275 0-.549-.135-.822-.405-.12.219-.256.328-.408.328zm-18.593-1.942-.313.678a.814.814 0 0 0-.276-.053c-.29 0-.523.205-.698.617.008.06.106.118.292.17l.507.142c.18.07.271.155.271.257 0 .239-.073.552-.22.94-.63.369-1.278.553-1.942.553-.306 0-.548-.068-.724-.205-.191-.151-.287-.374-.287-.668 0-.188.047-.415.14-.681a3.12 3.12 0 0 1 .271-.592c.088-.007.153.024.194.092a1.553 1.553 0 0 0-.206.749c0 .41.273.614.82.614.225 0 .506-.038.842-.116.362-.085.63-.18.802-.287-.145-.1-.366-.182-.662-.247-.241-.052-.4-.134-.476-.246 0-.092.035-.26.106-.508.247-.864.632-1.296 1.156-1.296.127 0 .262.03.403.087zm1.45 1.76c0 .203-.09.48-.271.833-.174.338-.352.597-.535.777-.12 0-.279-.04-.479-.122-.2-.081-.343-.163-.429-.246.312-.141.59-.304.835-.49.288-.22.459-.416.512-.593-.077-.211-.237-.397-.478-.556l.357-.678c.127.108.24.273.34.493.099.22.149.414.149.581zm2.004.996-.416.386-.41-.401.425-.381.4.396zm1.699-.816c-.14 0-.27-.06-.39-.18a.726.726 0 0 1-.21-.378.663.663 0 0 1-.22.373c-.131.124-.262.185-.393.185h-.207c-.14 0-.27-.06-.39-.18a.725.725 0 0 1-.21-.378.663.663 0 0 1-.22.373c-.13.124-.262.185-.393.185h-.075c-.329 0-.544-.133-.643-.401-.068-.181-.113-.585-.135-1.211a8.048 8.048 0 0 0-.039-.646 2.186 2.186 0 0 0-.165-.622l.473-.488c.08.124.128.314.147.572.007.093.01.29.01.592v.749c0 .224.017.386.05.488.058.18.176.271.351.271a.468.468 0 0 0 .412-.228.748.748 0 0 0 .121-.42h.22c0 .182.039.33.116.445.09.136.223.203.399.203h.152a.468.468 0 0 0 .411-.228.747.747 0 0 0 .122-.42h.22c0 .182.038.33.116.445.09.136.222.203.398.203h.192c.046 0 .142-.007.287-.023a.588.588 0 0 1-.31-.533c0-.233.127-.461.382-.683.234-.205.445-.308.63-.308.296 0 .537.158.725.473.03.053.034.079.008.079a.242.242 0 0 1-.07-.018 1.123 1.123 0 0 0-.373-.053c-.315 0-.567.07-.755.21.037.33.23.57.582.717l.975-.25-.3.64c-.34.075-.79.182-1.35.32-.336.084-.553.125-.651.125zm.08-2.344-.357.35-.362-.312-.331.328-.38-.328.357-.358.362.317.33-.332.38.335zm2.715-1.026c.044.216.067.527.067.932 0 .667-.062 1.398-.186 2.192l-.262.386-.002-.955c0-.887-.077-1.565-.23-2.032l.613-.523zm5.596 3.372h-.133a.513.513 0 0 1-.38-.18.743.743 0 0 1-.192-.385.747.747 0 0 1-.198.375.58.58 0 0 1-.432.19c-.267 0-.437-.169-.51-.505-.137.335-.326.502-.566.502a.464.464 0 0 1-.362-.172.762.762 0 0 1-.158-.303c-.136.319-.335.478-.595.478h-.133c-.29 0-.487-.242-.592-.725a1.511 1.511 0 0 1-.225.495c-.525 0-.873-.118-1.043-.353.068-.255.128-.455.18-.6.203-.182.495-.343.875-.485a2.071 2.071 0 0 0-.085-.27l.298-.445c.088.128.155.348.2.66.06.413.098.65.115.708.063.22.168.33.315.33h.04v.002h.098c.153 0 .274-.072.362-.217a.747.747 0 0 0 .11-.398h.225c0 .41.133.615.398.615.177 0 .306-.08.387-.24a.807.807 0 0 0 .086-.375h.224c0 .19.019.328.055.415.057.135.166.203.328.203.183 0 .321-.081.413-.243a.76.76 0 0 0 .097-.38h.225c0 .415.145.623.433.623h.075l-.14-.005h.253c.168 0 .292-.083.372-.248a.83.83 0 0 0 .083-.367h.222c0 .411.154.617.46.617.204 0 .35-.079.44-.237a.756.756 0 0 0 .093-.38h.225c0 .41.134.615.403.615.198 0 .357-.051.475-.153 0-.045-.107-.222-.32-.53l.385-.505c.06.063.12.169.18.317.067.164.1.3.1.41 0 .064-.03.185-.088.363a5.659 5.659 0 0 1-.137.36.797.797 0 0 1-.258.293.626.626 0 0 1-.365.13.463.463 0 0 1-.347-.16.638.638 0 0 1-.175-.35c-.094.34-.3.51-.62.51-.236 0-.42-.17-.556-.508-.171.339-.378.508-.62.508zm-4.274-.823-.11-.555a1.556 1.556 0 0 0-.72.385c.098.122.303.183.613.183.078 0 .15-.005.217-.013zm8.65.228a1.023 1.023 0 0 0-.184-.275c-.096-.102-.189-.153-.28-.153-.047 0-.098.042-.153.125a.557.557 0 0 0-.088.19c.019.055.085.099.198.13a.916.916 0 0 0 .247.035.568.568 0 0 0 .26-.052zm1.978.172a.936.936 0 0 0 .005-.095c0-.315-.168-.508-.505-.58a.494.494 0 0 0-.195.29c.13.18.362.308.695.385z" fill="#313C4C"/>
    <path fill-rule="evenodd" clip-rule="evenodd" d="M16.532 31.281h-1.568a1.128 1.128 0 0 1-1.128-1.128v-.002c0-.124.1-.225.225-.225h3.458a.25.25 0 0 1 .25.25v2.343a.227.227 0 0 1-.228.227h-.002a1.008 1.008 0 0 1-1.007-1.008v-.457zm10.985-4.765c-.04 1.062.607 1.496 1.21 1.156.546-.309 1.097-2.178 1.523-3.768.194-.725.368-1.392.48-1.826.078-.3.35-.51.66-.51l1.305-.001a.342.342 0 0 1 .325.448c-.354 1.082-1.29 3.878-2.068 5.572-.633 1.38-1.403 1.599-2.345 1.584-.08-.001-.679-.055-.993-.488-.315-.433-.497-1.077-.331-1.586l.02-.063c-.082.194-.163.379-.243.553-.634 1.38-1.403 1.599-2.345 1.584-.08-.001-.679-.055-.994-.488a2.071 2.071 0 0 1-.393-1.184l-.042.088c-.569 1.147-1.404 1.599-2.345 1.584-.08-.001-.983.1-1.642-.512-.384-.356-.726-1.193-.805-1.805-.108.26-.215.506-.319.733-.634 1.38-1.403 1.599-2.345 1.584-.08-.001-.637-.089-.993-.488-.315-.352-.509-.97-.577-1.518-.063.147-.126.288-.187.422-.634 1.38-1.403 1.599-2.345 1.584-.08-.001-.637-.089-.994-.488-.369-.413-.572-1.193-.6-1.794-.104.248-.207.485-.307.702-.634 1.381-1.132 2.269-2.636 3.304-3.3 2.27-6.828.577-7.168-2.395-.18-1.582.706-3.852 2.16-5.8.28-.375 1.19-.159 1.19-.159-.114.867-3.297 3.822-2 6.715.403.899 2.35 1.118 3.791.483.884-.39 1.662-1.168 2.237-2.115.365-.601 1.095-2.126 1.52-3.715.194-.725.368-1.392.48-1.826.078-.301.35-.511.66-.511h1.509a.342.342 0 0 1 .325.448 86.552 86.552 0 0 1-1.353 3.844c-.12 1.57.668 2.168 1.305 1.808.546-.309 1.098-2.178 1.523-3.768.194-.725.368-1.392.48-1.826.079-.3.35-.51.66-.51l1.306-.001a.342.342 0 0 1 .325.448c-.272.83-.886 2.666-1.508 4.242.03 1.275.736 1.743 1.316 1.415.547-.309 1.098-2.178 1.524-3.768.194-.725.368-1.392.48-1.826.078-.3.35-.51.66-.51l1.305-.001a.342.342 0 0 1 .325.448 85.12 85.12 0 0 1-1.406 3.984c-.026 1.136.631 2.01 1.99 1.65.79-.21 1.33-2.155 1.756-3.745.194-.725.368-1.392.48-1.826.078-.3.35-.51.66-.51l1.313-.001a.342.342 0 0 1 .327.443c-.291.933-1.006 3.152-1.729 4.82.087.83.66 1.147 1.2.842.547-.309 1.098-2.178 1.523-3.768.194-.725.369-1.392.481-1.826.078-.3.349-.51.66-.51l1.305-.001a.342.342 0 0 1 .325.448c-.286.876-.954 2.873-1.61 4.5zm-14.192 3.66a.25.25 0 0 0-.249-.25H9.359a.226.226 0 0 0-.226.225v.002c0 .623.506 1.128 1.129 1.128h2.814a.25.25 0 0 0 .25-.25v-.856zm33.44-11.507c.283.075.581-.03.756-.263.277-.431.423-.96.477-1.582a.385.385 0 0 0-.375-.421c-.855-.02-2.886-.014-4.103.374-1.602.511-3.705 1.286-5.108 2.703-.885.895-1.554 1.896-2.09 3.02a.416.416 0 0 0 .408.59c1.345-.154 4.208-.267 4.875 1.215.31.69-1.152 2.93-3.908 2.979-2.048.036-2.956-1.788-2.679-3.627.29-1.914 1.966-4.65 4.051-7.093a.209.209 0 0 0-.153-.344l-1.673-.036c-.467-.01-.905.23-1.147.63-1.192 1.95-1.785 3.18-2.333 4.816-.614 1.837-1.148 3.673-.546 5.558.592 1.854 2.808 2.078 3.15 2.074 1.282-.012 3.597-.47 5.09-2.82 1.1-1.734 2.133-5.556-3.215-4.996.82-1.18 2.228-2.228 4.211-2.596 1.754-.327 3.419-.33 4.313-.18zm-38.91 3.56a.556.556 0 0 0-.521-.746h-.778c-.647 0-1.224.405-1.446 1.012l-.266.733a.904.904 0 0 0 .85 1.214h.337c.612 0 1.159-.383 1.368-.958l.457-1.255z" fill="#FDB816"/>
</svg>
