<svg width="48" height="49" viewBox="0 0 48 49" fill="none" xmlns="http://www.w3.org/2000/svg">
    <path fill-rule="evenodd" clip-rule="evenodd" d="M16.275 11.12c-.67.745-.872 1.185-.908 1.971-.04.906.011 1.045 1.007 2.716.793 1.329.96 1.442 1.542 1.044l.694-.475c1.062-.73 2.483-1.285 3.849-1.504 1.182-.19 1.195-.225.736-2.072-.391-1.581-.479-1.78-1.025-2.333-.741-.75-1.792-1.04-3.131-.865-1.086.143-1.96.623-2.764 1.517zm8.572 1.59c-.494 1.911-.475 1.97.717 2.162a9.864 9.864 0 0 1 4.384 1.877c.492.378.895.364 1.163-.042 1.667-2.52 1.936-3.7 1.13-4.949-1.051-1.625-2.694-2.39-4.625-2.152-1.576.196-2.197.892-2.769 3.103zm-15.48 9.254c.437.928 1.022 1.29 2.809 1.743 1.873.473 1.994.44 2.13-.56.211-1.544.856-3.108 1.83-4.434.623-.849.577-.943-.894-1.823-1.808-1.08-2.391-1.233-3.404-.888-2.178.742-3.467 3.85-2.471 5.962zm23.415-5.074c-1.465.876-1.52.984-.907 1.811a10.035 10.035 0 0 1 1.844 4.475c.141.97.257.998 2.112.533 2.069-.518 2.749-1.055 3.047-2.403.65-2.938-1.752-5.979-4.237-5.364-.405.1-.649.224-1.86.948zM9.938 26.382c-2.512 2.524.462 7.845 3.735 6.68.397-.14 2.562-1.408 2.691-1.575.223-.288.161-.582-.232-1.11-.94-1.263-1.627-2.934-1.83-4.455-.128-.97-.28-1.012-2.051-.555-1.621.417-1.793.492-2.313 1.015zm23.785-.5a10.05 10.05 0 0 1-1.856 4.53c-.61.83-.562.922.967 1.833 2.286 1.362 3.231 1.348 4.72-.07 2.007-1.911 1.905-5.407-.184-6.339-.241-.107-2.887-.816-3.015-.807-.016 0-.103.034-.192.073-.267.116-.371.3-.44.78zm-17.858 8.26c-.868 1.512-.69 2.735.587 4.027 1.935 1.958 5.306 1.812 6.277-.272.14-.301.783-2.76.783-2.993-.001-.358-.263-.543-.914-.647-1.64-.262-3.154-.886-4.406-1.815-.47-.348-.769-.435-1.035-.3-.113.058-.677.93-1.292 2zm9.646.098c-1.124.166-1.147.236-.681 2.081.396 1.565.503 1.806 1.037 2.336 2.139 2.122 6.802.187 6.81-2.824.001-.76-.287-1.4-1.49-3.31-.346-.548-.681-.596-1.234-.172-1.242.953-2.91 1.662-4.442 1.889z" fill="#FF7F31"/>
    <path d="M24 .553c-6.162 0-11.267 4.564-12.114 10.494A17.963 17.963 0 0 1 24 6.36c4.658 0 8.907 1.774 12.114 4.687C35.267 5.117 30.163.553 24 .553zM10.511 12.436a18.181 18.181 0 0 0-4.6 12.117c0 4.652 1.74 8.899 4.6 12.117C4.574 35.83 0 30.72 0 24.553c0-6.169 4.573-11.277 10.511-12.117zM48 24.553c0-6.169-4.573-11.277-10.511-12.117a18.18 18.18 0 0 1 4.6 12.117 18.18 18.18 0 0 1-4.6 12.117C43.427 35.83 48 30.72 48 24.553z" fill="#37389A"/>
    <path fill-rule="evenodd" clip-rule="evenodd" d="M23.22 15.58c-5.642.421-9.498 6.15-7.827 11.628 2.24 7.34 12.176 8.652 16.22 2.141 3.919-6.307-.969-14.324-8.394-13.769zm.069 13.8c.047.124.035 2.204-.014 2.234-.14.088-1.81-2.123-1.716-2.274.051-.084 1.697-.046 1.73.04zm6.424-.027c.127.205-1.494 1.466-2.536 1.973-.815.396-.853.382-.456-.17.375-.522.775-1.18.953-1.57l.13-.285h.939c.599 0 .95.019.97.052zm-9.8-.052h-.81c-.652 0-.81.013-.81.068 0 .318 2.433 2.125 2.86 2.125.066 0-.003-.126-.402-.724-.236-.353-.52-.828-.633-1.056l-.205-.413zm5.517 0h-.718v1.02c0 .797.013 1.014.062.993.189-.082 1.461-1.873 1.4-1.971-.013-.023-.348-.042-.744-.042zm-2.136-3.975c.015.062.021.662.014 1.333l-.014 1.222-2.46.026-.126-.415c-.23-.754-.472-2.11-.398-2.23.018-.029.6-.048 1.493-.048h1.464l.027.112zm-4.979 2.58c.563 0 1.023-.017 1.023-.038 0-.02-.066-.3-.147-.62a13.568 13.568 0 0 1-.312-1.834l-.013-.175-1.123-.013c-.618-.008-1.138.002-1.157.02-.143.144.179 1.513.54 2.298l.166.361h1.023zm8.573 0 .16-.546c.204-.702.342-1.388.36-1.797l.015-.324-1.321-.013c-.727-.007-1.338.002-1.356.02-.019.02-.034.625-.034 1.347v1.312h2.176zm3.834 0 .179-.428c.275-.66.607-2.013.54-2.202-.026-.07-2.525-.094-2.566-.024-.012.02-.038.183-.057.36-.059.566-.227 1.526-.327 1.878a4.344 4.344 0 0 0-.097.378c0 .02.524.037 1.164.037h1.164zm-7.434-6.85c.017.044.03.659.03 1.367 0 .709-.013 1.323-.03 1.367-.035.093-2.922.122-2.98.03-.119-.194.446-2.68.637-2.802.13-.083 2.31-.047 2.343.039zm-4.918-.078H17.4l-.194.386c-.345.69-.735 2.168-.639 2.42.03.08.13.085 1.165.073l1.132-.013.058-.524c.069-.623.182-1.197.35-1.778.067-.235.111-.458.097-.495-.021-.055-.219-.07-.998-.07zm8.491.2c.224.458.648 2.412.568 2.62-.024.061-.228.07-1.36.059l-1.332-.013-.013-1.37c-.008-.754-.003-1.399.01-1.434.02-.05.248-.061 1.034-.05l1.008.013.085.174zm4.592 2.666-.016-.2c-.049-.6-.358-1.688-.645-2.268l-.184-.373-2.276-.027.027.138c.015.076.086.362.156.637.118.458.219 1.031.314 1.794l.038.299h2.586zm-8.134-5.359c0 .544-.014 1.025-.03 1.069-.035.09-1.58.12-1.635.032-.081-.131 1.495-2.195 1.618-2.12.026.017.047.463.047 1.019zm5.326 1.147c.587 0 .899-.018.92-.054.114-.184-1.511-1.442-2.343-1.814l-.032-.015c-.454-.203-.672-.301-.71-.253-.035.043.082.21.308.532l.017.025c.215.307.518.787.672 1.069l.281.51h.887zm-8.661 0 .18-.36c.165-.328.779-1.293.947-1.487.038-.044.068-.105.068-.138 0-.09-.035-.076-.632.236-.837.438-2.222 1.55-2.126 1.705.015.025.373.044.795.044h.768zm5.093-1.546c.434.529 1.042 1.452.99 1.505-.025.024-.334.038-.688.03l-.642-.013-.015-1.022c-.008-.547-.012-.78.051-.799.047-.014.13.086.273.261l.03.038z" fill="#37389A"/>
    <path d="M36.114 38.058c-.847 5.93-5.952 10.495-12.114 10.495-6.162 0-11.267-4.565-12.114-10.495A17.963 17.963 0 0 0 24 42.746c4.658 0 8.907-1.775 12.114-4.688z" fill="#37389A"/>
</svg>
