<svg width="48" height="49" viewBox="0 0 48 49" fill="none" xmlns="http://www.w3.org/2000/svg">
    <path fill-rule="evenodd" clip-rule="evenodd" d="M31.622 46.395a.987.987 0 0 0-.985-.986H17.931a.984.984 0 0 0-.984.986v1.172a.986.986 0 0 0 .985.986h12.705a.984.984 0 0 0 .985-.986v-1.172zM24.73 31.546s4.634-5.222 9.027-7.69c5.183-2.911 12.993-2.235 12.993-2.235s-6.212 1.872-9.958 7.364c-3.356 4.92-5.439 15.097-5.439 15.097s-3.135-7.64-6.623-12.536zm4.813 12.427H16.976s-1.75-2.308-2.394-5.485c-.697-3.44-1.833-7.526-3.589-9.777-3.324-4.26-9.743-6.91-9.743-6.91s12.087-2 19.465 7.3c3.579 4.513 8.824 14.863 8.828 14.872z" fill="#002263"/>
    <path fill-rule="evenodd" clip-rule="evenodd" d="M24 15.326c3.32 0 6.015 2.739 6.015 6.113 0 3.374-2.695 6.114-6.015 6.114s-6.015-2.74-6.015-6.114c0-3.374 2.695-6.113 6.015-6.113zm7.13 3.746c2.308-1.371 7.125-4.123 9.724-4.829.219-.059.438-.087.654-.086h.016a2.507 2.507 0 0 1 2.39 1.876c.357 1.35-.434 2.739-1.766 3.1-2.353.64-7.105.746-9.97.748h-.1c-.263 0-.51-.001-.737-.003a7.632 7.632 0 0 0-.212-.806zm-14.471.806c-2.676.018-8.207-.039-10.807-.744-1.332-.362-2.123-1.751-1.766-3.1.357-1.35 1.728-2.152 3.06-1.79 2.6.705 7.415 3.457 9.724 4.828a7.68 7.68 0 0 0-.211.806zm.881-2.31c-2.54-.855-7.756-2.709-9.992-4.223a2.553 2.553 0 0 1-.69-3.51 2.48 2.48 0 0 1 3.466-.699c2.237 1.514 5.921 5.685 7.674 7.736a7.626 7.626 0 0 0-.458.696zm12.418-.756c1.745-2.054 5.425-6.239 7.66-7.76a2.48 2.48 0 0 1 3.467.69 2.553 2.553 0 0 1-.681 3.513c-2.234 1.52-7.445 3.386-9.983 4.247a7.671 7.671 0 0 0-.463-.69zM19.123 15.65c-2.131-1.645-6.465-5.109-8.094-7.275a2.554 2.554 0 0 1 .473-3.547 2.478 2.478 0 0 1 3.501.478c1.63 2.165 3.776 7.313 4.778 9.832-.229.159-.448.33-.658.512zm9.059-.536c.999-2.51 3.157-7.682 4.793-9.853a2.478 2.478 0 0 1 3.502-.477 2.555 2.555 0 0 1 .47 3.548c-1.634 2.17-5.987 5.643-8.114 7.282a7.549 7.549 0 0 0-.651-.5zm-6.974-.75c-1.499-2.255-4.5-6.936-5.357-9.514-.44-1.324.264-2.76 1.571-3.206 1.307-.446 2.726.267 3.165 1.591.857 2.578 1.26 8.143 1.412 10.857-.27.076-.534.167-.79.272zm4.79-.272c.151-2.715.553-8.28 1.41-10.857.44-1.324 1.857-2.038 3.164-1.592 1.307.445 2.011 1.882 1.572 3.206-.856 2.578-3.857 7.26-5.356 9.514a7.38 7.38 0 0 0-.79-.271zm-2.416-.263C22.87 11.207 21.5 5.803 21.5 3.084c0-1.397 1.12-2.531 2.499-2.531 1.38 0 2.499 1.134 2.499 2.531 0 2.72-1.37 8.123-2.081 10.745a7.51 7.51 0 0 0-.835 0z" fill="#0BBBB9"/>
</svg>
