<svg width="48" height="49" viewBox="0 0 48 49" fill="none" xmlns="http://www.w3.org/2000/svg">
    <path fill-rule="evenodd" clip-rule="evenodd" d="M44.842 48.553H24.76V28.91c.269-3.165.745-6.08 1.913-8.162.694.39 1.933 2.113 2.303 5.446.906-1.636 2.01-3.47 4.01-4.633.136 3.61-.08 4.984-1.09 7.497-1.421 3.529-5.33 4.35-5.33 4.35v13.338h16.472c0-10.855.204-21.712-.002-32.566a5.154 5.154 0 0 0-.398-1.849 5.143 5.143 0 0 0-2.656-2.686h-.001c.358-.549.723-1.042 1.085-1.484a6.92 6.92 0 0 1 3.387 3.86 7.02 7.02 0 0 1 .39 2.292v34.239zm-21.601 0H3.157v-34.24a7.02 7.02 0 0 1 .39-2.291 6.92 6.92 0 0 1 3.388-3.86c.361.442.727.935 1.085 1.483l-.002.001a5.143 5.143 0 0 0-2.656 2.687 5.154 5.154 0 0 0-.397 1.848c-.207 10.854-.002 21.71-.002 32.566h16.472V33.409s-3.91-.821-5.33-4.35c-1.011-2.513-1.226-3.887-1.091-7.497 2.002 1.163 3.105 2.997 4.01 4.633.37-3.333 1.61-5.056 2.304-5.446 1.168 2.081 1.644 4.997 1.913 8.162v19.642zM31.589 1.78a6.748 6.748 0 0 1-.221 1.17c-.51 1.84-1.693 3.404-2.978 4.78-.239.255-.482.505-.728.753-.232.234-.466.465-.7.696a34.668 34.668 0 0 0 1.949 4.599 25.62 25.62 0 0 1 3.846-4.638c-.48-.91-.754-1.916-.928-2.926-.253-1.461-.302-2.952-.24-4.434zm-15.179 0a6.748 6.748 0 0 0 .222 1.17c.509 1.84 1.693 3.404 2.978 4.78.238.255.482.505.728.753.232.234.465.465.7.696a34.668 34.668 0 0 1-1.95 4.599 25.62 25.62 0 0 0-3.845-4.638c.479-.91.753-1.916.928-2.926.253-1.461.302-2.952.24-4.434z" fill="#B27D53"/>
    <path fill-rule="evenodd" clip-rule="evenodd" d="M42.982 5.108c-3.173 2.286-6.883 7.282-7.32 12.54-.357 4.282-1.088 6.153-1.635 6.954.242-1.444.24-3.407-.03-4.99-.607.269-1.613.887-2.534 1.803-.115-.375-1.055-2.3-4.152-1.446a21.2 21.2 0 0 1 .497-1.422 22.754 22.754 0 0 1 1.587-3.26 24.282 24.282 0 0 1 4.564-5.62 21.94 21.94 0 0 1 1.856-1.508c1.807-1.31 3.849-2.356 6.036-2.85.374-.085.751-.151 1.13-.201zm-37.963 0c3.172 2.286 6.883 7.282 7.32 12.54.356 4.282 1.088 6.153 1.634 6.954-.242-1.444-.24-3.407.03-4.99.607.269 1.613.887 2.535 1.803.114-.375 1.054-2.3 4.151-1.446a21.2 21.2 0 0 0-.496-1.422 22.754 22.754 0 0 0-1.588-3.26 24.282 24.282 0 0 0-4.564-5.62 21.94 21.94 0 0 0-1.855-1.508c-1.808-1.31-3.85-2.356-6.037-2.85-.374-.085-.75-.151-1.13-.201zm20.899 15.33c-.347-.253-.897-.71-1.93-.706-1.034.003-1.57.462-1.906.707-.258-1.624-1.324-3.572-2.262-5.456.421-.795 1.68-3.561 2.015-4.609.892-2.78 1.67-6.189 2.165-8.027.477 1.843 1.255 5.37 2.165 8.027.357 1.04 1.594 3.814 2.015 4.61-.937 1.883-2.004 3.83-2.262 5.455zM32.931 3.78c.24-1.904 2.391-2.045 3.718-1.6 1.906.638 2.563 2.419 1.032 3.407-.739.478-1.533.867-2.251 1.368-.604.422-1.186.873-1.745 1.35l-.01-.019c-.644-2.073-.878-3.443-.744-4.506zm-17.861 0c-.24-1.904-2.392-2.045-3.718-1.6-1.906.638-2.564 2.419-1.033 3.407.74.478 1.533.867 2.251 1.368.604.422 1.186.873 1.746 1.35l.009-.019c.645-2.073.879-3.443.745-4.506zm10.388-.888c-.22-1.505 1.354-2.486 2.48-2.321.74.108 2.748.62 2.184 2.344a8.21 8.21 0 0 1-.932 1.899c-.673 1.037-1.517 1.945-2.382 2.822l-.256.255a35.163 35.163 0 0 1-1.094-5zm-2.916 0C22.763 1.387 21.19.406 20.062.57c-.74.108-2.748.62-2.184 2.344a8.21 8.21 0 0 0 .933 1.899c.672 1.037 1.516 1.945 2.382 2.822l.255.255a35.163 35.163 0 0 0 1.094-5z" fill="#000"/>
</svg>
