<svg width="48" height="49" viewBox="0 0 48 49" fill="none" xmlns="http://www.w3.org/2000/svg">
    <path d="M11.411 13.356a1.902 1.902 0 1 0 0-3.803 1.902 1.902 0 0 0 0 3.803z" fill="#000"/>
    <path d="M36.135 21.82v9.033c0 1.996 1.48 3.518 3.423 3.518 1.924 0 3.423-1.522 3.423-3.46v-9.092a2.378 2.378 0 0 1 2.378-2.377h2.377v11.22a8.178 8.178 0 0 1-16.356 0v-11.22h2.377a2.377 2.377 0 0 1 2.378 2.377z" fill="#4E91E6"/>
    <path fill-rule="evenodd" clip-rule="evenodd" d="M25.2 12.215h2.377v24.248a2.377 2.377 0 0 1-2.378 2.377h-2.377V14.592a2.377 2.377 0 0 1 2.377-2.377z" fill="#4E91E6"/>
    <path d="M4.755 12.215v9.027c1.504-1.363 3.424-2.18 5.515-2.18 4.832 0 8.748 4.363 8.748 9.746a12.59 12.59 0 0 1 0 .238c0 5.563-4.257 9.794-9.509 9.794-5.159 0-9.358-4.231-9.505-9.509H0V14.592a2.38 2.38 0 0 1 2.377-2.377h2.378zm4.659 11.22c-2.73 0-4.945 2.449-4.945 5.468 0 3.02 2.214 5.468 4.945 5.468 2.731 0 4.945-2.448 4.945-5.468s-2.214-5.467-4.945-5.467z" fill="#4E91E6"/>
</svg>
