<svg width="48" height="49" viewBox="0 0 48 49" fill="none" xmlns="http://www.w3.org/2000/svg">
    <path fill-rule="evenodd" clip-rule="evenodd" d="M25.94 48.553h-3.88V45.61h-1.767V41.98l-7.822-.008.009-9.253h-1.843l-.006-.814H8.355V30.66H6.927v-1.854h1.428v-1.63h2.222l-.64-.986h-3.71c-.516 0-.853.64-.853.64l-.636-.2c.058-.263.14-.52.246-.768.1-.283.327-.838.327-.838l.03-.075c.05-.122.1-.243.16-.361.3-.72.834-1.319 1.514-1.7a2.166 2.166 0 0 1 .814-.213h.165l.015-.037.023-.054c.066-.149.15-.288.252-.415.065-.079.138-.151.216-.217.314-.283.697-.48 1.11-.57l-.018-3.474 1.873.006-.005-2.462 1.833-.011.007-1.641 1.117-.005-1.296-2.243h-1.74l2.9-2.907 4.99.006v-5.5H22.1v-2.6h3.8v2.6h2.824v5.5l4.99-.005 2.905 2.906h-1.74l-1.3 2.245 1.117.005.007 1.64 1.833.012-.008 2.458 1.874-.006-.02 3.475a2.435 2.435 0 0 1 1.338.798c.1.127.186.266.252.415l.023.054.014.037h.165a2.223 2.223 0 0 1 .814.213c.68.381 1.213.98 1.513 1.7.057.119.11.24.16.36l.03.076s.228.556.328.838c.105.248.187.505.246.768l-.636.2s-.337-.64-.853-.64h-3.71l-.64.986h2.222v1.63h1.429v1.836h-1.435v1.244h-2.27l-.005.814h-1.842l.009 9.253-7.822.008v3.63H25.94v2.95z" fill="url(#a)"/>
    <path fill-rule="evenodd" clip-rule="evenodd" d="M25.125 47.752h-2.25V44.81H21.11v-2.839h1.768V43.6h2.243V41.97h1.768v2.84h-1.765v2.941zm9.57-6.58h-21.39v-8.9h21.389v8.9zm-3.523-1.07c.01.05.005.101-.011.149-.02.062-.047.121-.08.178a.66.66 0 0 1-.145.182.159.159 0 0 1-.093.056.258.258 0 0 1-.1-.063 9.968 9.968 0 0 0-.132-.106 1.05 1.05 0 0 1-.1-.087.111.111 0 0 1-.043-.069l.064-.136a8.44 8.44 0 0 1 .107-.22c.043-.067.086-.138.129-.213l.043-.063a.288.288 0 0 0 .043.035l.057.034c.072.052.14.112.2.178a.31.31 0 0 1 .064.145h-.003zm-5.356-.991c.323 0 .644-.03.96-.093.281-.055.557-.13.827-.224.244-.088.474-.209.686-.358.2-.138.38-.303.536-.489a75.4 75.4 0 0 0 .293-.385c.019-.023.024-.018.029-.014a.038.038 0 0 1 .007.027l-.007.076-.032.265a2.977 2.977 0 0 0-.025.359c-.006.178.024.356.089.523a.326.326 0 0 0 .325.206c.1 0 .198-.075.293-.223.113-.196.193-.408.236-.63l.018-.089a.484.484 0 0 0 .01-.082c0-.046-.011-.07-.035-.07-.024 0-.035.022-.046.063l-.032.11c-.052.142-.112.212-.18.212a.39.39 0 0 1-.221-.062.446.446 0 0 1-.157-.391v-.108c0-.082.007-.205.022-.367.016-.181.037-.361.064-.54l.15-.722.02-.106.168-.114.668-.505c.191-.124.382-.248.572-.375.165-.109.327-.222.486-.338.257-.188.45-.33.579-.43.171-.133.293-.229.365-.288.072-.058.142-.122.21-.192.087-.082.17-.167.248-.255.07-.082.135-.168.193-.259a.975.975 0 0 0 .136-.258.106.106 0 0 0 .014-.054c0 .008-.179.159-.536.454-.186.157-.374.312-.565.465-.205.163-.414.32-.63.474-.303.212-.608.422-.914.632a9.34 9.34 0 0 0-.847.677.87.87 0 0 0-.19.227 1.647 1.647 0 0 0-.087.17l-.032.063c-.06.114-.113.23-.157.351l-.1.392c-.05.182-.13.354-.236.51a1.717 1.717 0 0 1-.55.474 4.395 4.395 0 0 1-1.916.542 7.923 7.923 0 0 1-.65.021 1.387 1.387 0 0 1-.936-.206.393.393 0 0 1-.1-.236c-.007-.09-.018-.135-.032-.135-.038 0-.068.079-.09.235-.02.15-.03.302-.031.454a.581.581 0 0 0 .11.389.719.719 0 0 0 .419.181c.165.026.332.038.5.035l.1.01zm-7.344-1.858a1.733 1.733 0 0 1-.036.275c-.024.128-.048.24-.072.337l-.086.337a2.115 2.115 0 0 1-.232.495.51.51 0 0 1-.111.127 1.25 1.25 0 0 1-.193.113l-.257.1c-.055.017-.111.03-.168.04a1.137 1.137 0 0 1-.168.029c-.024 0-.038-.009-.043-.025a.072.072 0 0 1 .014-.058.73.73 0 0 1 .18-.17c.098-.074.195-.145.29-.214.11-.096.19-.172.243-.227.082-.085.154-.18.214-.282a.893.893 0 0 0 .06-.14c.027-.071.069-.187.126-.348l.086-.248c.01-.036.024-.08.043-.133.019-.053.043-.08.072-.08a.15.15 0 0 1 .036.07l.002.002zm5.229.779v.006c.1-.098.16-.158.178-.18a1.05 1.05 0 0 0 .179-.284c.058-.145.1-.295.125-.448.03-.142.047-.287.053-.431v-.379c0-.132.008-.265.025-.4 0-.124.007-.2.007-.233v-.017a.946.946 0 0 0 .056-.034l.21-.145.512-.346c.2-.128.397-.258.592-.39.17-.113.337-.231.5-.353.267-.2.467-.351.6-.453.179-.138.305-.237.38-.3.075-.062.149-.13.222-.206.09-.087.178-.178.26-.272.076-.087.145-.18.208-.279a1.14 1.14 0 0 0 .15-.28.13.13 0 0 0 .017-.061c0 .009-.187.17-.561.48a35.03 35.03 0 0 1-.59.495c-.213.172-.432.338-.655.5-.315.221-.632.442-.95.66a7.167 7.167 0 0 0-.7.53.954.954 0 0 0-.174.2c-.048.074-.09.152-.127.233l-.012.027v.007l-.242.56a.502.502 0 0 0-.036.178 4.57 4.57 0 0 0-.007.27l.007.449a1.04 1.04 0 0 1-.071.427.664.664 0 0 1-.082.13.323.323 0 0 1-.082.078l-.043.02a.21.21 0 0 1-.1-.013 1.732 1.732 0 0 1-.072.1.31.31 0 0 1-.15.106.072.072 0 0 1-.086-.013 2.05 2.05 0 0 0-.093.095.255.255 0 0 1-.172.08c-.065 0-.13-.005-.193-.014-.105.07-.208.142-.308.214a.506.506 0 0 1-.286.08.466.466 0 0 1-.43-.208.643.643 0 0 1-.077-.34c0-.054 0-.14.014-.261.012-.144.029-.286.05-.428l.122-.816.029-.174a.316.316 0 0 0 .007-.107l-.03.013c-.042.084-.099.209-.17.373a4.77 4.77 0 0 0-.114.274c-.033.22-.076.534-.13.947-.052.412-.078.645-.078.7a1.594 1.594 0 0 0 .049.355c.05.207.237.354.45.354a.57.57 0 0 0 .473-.294c.133-.197.24-.294.322-.294l.1.01a.313.313 0 0 0 .082 0 .43.43 0 0 0 .139-.087c.04-.037.084-.07.129-.1a.241.241 0 0 1 .1-.03.193.193 0 0 0 .086-.028.794.794 0 0 1 .179-.13c.026-.011.08-.038.16-.078l.044-.033.005-.012zm-5.915-2.694a.05.05 0 0 0-.007-.046.146.146 0 0 0-.05-.038.813.813 0 0 0-.25.1c-.092.046-.18.1-.265.159-.09.062-.165.117-.222.165-.13.114-.252.238-.365.369-.152.17-.28.36-.38.567-.078.147-.124.309-.135.476a.3.3 0 0 0 .057.193c.044.052.1.093.164.117a.544.544 0 0 0 .1.035c.029.007.076.02.143.04.067.019.1.048.1.087a.434.434 0 0 1-.075.22 1.372 1.372 0 0 1-.218.262 1.419 1.419 0 0 1-.95.366.946.946 0 0 1-.575-.153.487.487 0 0 1-.2-.41c.024-.257.094-.508.207-.74l.086-.18c.057-.121.1-.208.129-.26.052-.1.087-.17.1-.21.013-.041.039-.095.068-.16a.147.147 0 0 0 .014-.07c0-.04-.017-.058-.05-.058-.014 0-.032.017-.054.052l-.061.1-.164.318-.207.407c-.087.17-.16.345-.222.526a1.987 1.987 0 0 0-.115.674c.001.097.015.194.043.287a.83.83 0 0 0 .15.288.783.783 0 0 0 .665.273c.243.005.483-.058.693-.181.106-.062.204-.136.293-.22.085-.08.164-.167.236-.26.141-.2.25-.422.322-.657.075-.216.116-.442.122-.67a.311.311 0 0 0-.114-.285.283.283 0 0 0-.075-.04l-.09-.032-.128-.059a.175.175 0 0 1-.05-.11.388.388 0 0 1 .1-.169c.086-.103.183-.196.289-.279.088-.078.187-.143.293-.194a.601.601 0 0 1 .229-.065c.016.001.032.007.046.017l.054.035c.029 0 .062-.025.1-.078.01-.013.037-.064.082-.151.037-.068.07-.137.1-.207.019-.05.033-.1.043-.152h-.006zm2.985 2.777-.1.255a1.488 1.488 0 0 1-.154.258.688.688 0 0 1-.146.157c-.068.039-.14.07-.214.094l-.15.055c-.077.024-.153.049-.23.076a.99.99 0 0 1-.228.047l-.03-.014c0-.032.087-.1.258-.206l.279-.192a1.778 1.778 0 0 0 .344-.293.576.576 0 0 0 .132-.212c0-.014.003-.028.007-.041l-.186.014a.3.3 0 0 1-.214-.08.193.193 0 0 1-.072-.175.594.594 0 0 1 .036-.13 3.54 3.54 0 0 1 .129-.276c.037-.076.08-.15.129-.22.062-.082.122-.123.179-.123a.33.33 0 0 1 .25.116.4.4 0 0 1 .107.282c0 .056-.005.111-.014.166l-.025.143a2.193 2.193 0 0 1-.032.148.84.84 0 0 1-.05.148l-.005.003zm-1.077-.916a1.744 1.744 0 0 1-.036.275c-.024.128-.048.24-.072.337l-.086.342a2.115 2.115 0 0 1-.232.495.526.526 0 0 1-.111.127c-.061.043-.126.08-.193.113l-.257.1c-.055.017-.111.03-.168.04a1.137 1.137 0 0 1-.168.029c-.024 0-.038-.009-.043-.025a.072.072 0 0 1 .014-.057.723.723 0 0 1 .182-.172c.098-.074.195-.145.29-.213.11-.097.19-.172.243-.228a1.54 1.54 0 0 0 .214-.282.903.903 0 0 0 .06-.14l.126-.347.086-.249c.01-.037.024-.08.043-.133.019-.053.043-.08.072-.08.017.02.03.042.036.068zm11.07.544c0-.056 0-.145.014-.269.012-.147.029-.293.05-.44l.122-.838.029-.18a.323.323 0 0 0 .007-.11l-.03.014c-.042.088-.1.216-.171.386a3.9 3.9 0 0 0-.114.282 45.047 45.047 0 0 0-.208 1.688c-.006.179.024.357.089.523a.326.326 0 0 0 .325.206c.1 0 .198-.074.293-.223.113-.195.193-.407.236-.628l.018-.09a.484.484 0 0 0 .01-.083c0-.046-.011-.069-.035-.069-.024 0-.034.022-.046.063l-.032.11c-.053.142-.112.212-.18.212a.39.39 0 0 1-.221-.061.446.446 0 0 1-.157-.392V37.742zM18.8 35.696c.01.049.005.1-.011.148-.021.061-.047.121-.08.178a.66.66 0 0 1-.145.183.158.158 0 0 1-.093.055.255.255 0 0 1-.1-.063 3.08 3.08 0 0 0-.136-.107 1.035 1.035 0 0 1-.1-.086.111.111 0 0 1-.043-.069c.029-.059.05-.105.064-.137.048-.1.083-.174.107-.22.043-.069.086-.14.129-.213l.043-.062a.295.295 0 0 0 .043.036l.057.034c.072.052.14.112.2.178a.31.31 0 0 1 .065.145zm3.747-.914a.311.311 0 0 0-.064-.144 1.354 1.354 0 0 0-.2-.18l-.057-.033a.282.282 0 0 1-.043-.034l-.043.062a7.137 7.137 0 0 1-.13.212c-.023.047-.059.12-.106.22l-.064.138c.005.027.02.052.043.069.031.03.065.059.1.086.046.034.091.069.136.105a.25.25 0 0 0 .1.063.157.157 0 0 0 .093-.055.665.665 0 0 0 .147-.182c.032-.058.058-.117.079-.18a.29.29 0 0 0 .01-.148h-.001zm.736-.041c.01.049.005.1-.011.148-.02.061-.047.121-.08.178a.654.654 0 0 1-.145.182.157.157 0 0 1-.093.055.258.258 0 0 1-.1-.062 3.08 3.08 0 0 0-.136-.106 1.035 1.035 0 0 1-.1-.087.112.112 0 0 1-.043-.069c.029-.058.05-.105.064-.136.035-.075.07-.148.107-.22a1.65 1.65 0 0 1 .129-.214l.043-.061a.261.261 0 0 0 .043.034l.057.034c.072.053.14.113.2.18a.312.312 0 0 1 .066.143h-.001zm6.567-.051c.009.049.005.1-.011.148-.02.062-.047.121-.08.178a.666.666 0 0 1-.145.183.158.158 0 0 1-.093.055.257.257 0 0 1-.1-.063 3.08 3.08 0 0 0-.136-.107.986.986 0 0 1-.1-.086.111.111 0 0 1-.043-.069c.029-.059.05-.105.064-.137.048-.1.083-.174.107-.22.043-.069.086-.14.129-.213l.043-.062a.295.295 0 0 0 .043.036l.057.034c.072.052.14.112.2.178a.307.307 0 0 1 .065.145zm-6.94-.8a.31.31 0 0 0-.064-.145 1.312 1.312 0 0 0-.2-.178l-.057-.035a.261.261 0 0 1-.043-.033l-.043.061a9.975 9.975 0 0 1-.13.213 5.72 5.72 0 0 0-.106.22 3.785 3.785 0 0 1-.065.137c.005.028.02.053.043.07l.1.09.136.107a.256.256 0 0 0 .1.058.158.158 0 0 0 .093-.055.66.66 0 0 0 .146-.182c.032-.058.058-.118.079-.18a.292.292 0 0 0 .01-.147l.002-.002zM19.545 9.401l1.27 2.2v10.43l2.786 2.026v7.418h-3.243v-6.832l-3.2-3.2v-7.711l-1.87-3.24h-1.708l1.1-1.1 4.865.009zM16.76 22.18l2.8 2.8v6.5h-2.63l-3.96-6.088H6.048c.552-1.438 1.46-2.3 2.6-1.726.012-.913.342-1.483 1.884-1.483l6.23-.003zm-4.224 4.008 3.439 5.288H14.34l-3.431-5.288h1.628zm15.106 5.288H24.4v-7.418l2.785-2.024V11.603l1.27-2.2h4.863l1.1 1.1H32.71l-1.87 3.239v7.71l-3.2 3.2.003 6.823zm7.385-6.088-3.96 6.087h-2.625v-6.5l2.8-2.8h6.227c1.542 0 1.873.57 1.884 1.483 1.143-.578 2.05.288 2.6 1.726l-6.926.003zm-3 6.087 3.439-5.288h1.629l-3.436 5.288h-1.632zm-19.57-1.43h-1.924v-.91h1.333l.59.91zm25.009 0h-1.925l.59-.91h1.334v.91zM25.079 3.953h2.82l.01 4.8-1.524 2.64v10.236L24.4 23.07v-2.373l.712-.519V5.39h-2.224v14.788l.712.518v2.373l-1.985-1.444V11.39L20.09 8.753l.009-4.8h2.82v-2.6h2.16l-.001 2.6zM13.942 21.38h.8v-2.386h-.8v2.386zm1.62 0h.8v-7.427l-1.532-2.654h-.907l1.639 2.838v7.242zm17.7 0h.8v-2.386h-.8v2.386zm-.82 0h-.8v-7.427l1.532-2.654h.907l-1.64 2.838v7.242z" fill="#1F261A"/>
    <defs>
        <linearGradient id="a" x1="43.265" y1=".553" x2="4.738" y2=".553" gradientUnits="userSpaceOnUse">
            <stop stop-color="#D8AC4E"/>
            <stop offset="1" stop-color="#ECE482"/>
        </linearGradient>
    </defs>
</svg>
