<svg width="48" height="49" viewBox="0 0 48 49" fill="none" xmlns="http://www.w3.org/2000/svg">
    <path fill-rule="evenodd" clip-rule="evenodd" d="M0 19.013c7.661-1.48 16.124-1.738 25.88-.61 8.192 8.772 12.104 16.16 14.888 23.441C30.558 30.959 17.756 22.586 0 19.013z" fill="#4DA2E7"/>
    <path fill-rule="evenodd" clip-rule="evenodd" d="M9.718 11.465c7.833-1.08 12.999-.78 20.895.399 4.596 3.958 11.916 11.838 14.7 19.118-10.21-10.884-17.036-16.371-35.595-19.517z" fill="#82BEEE"/>
    <path fill-rule="evenodd" clip-rule="evenodd" d="M14.631 6.553c7.98.173 12.556.715 20.453 1.893 3.73 3.406 7.596 7.228 12.302 13.574C35.178 11.433 33.19 9.698 14.631 6.553z" fill="#A6D0F3"/>
</svg>
