<svg width="48" height="49" viewBox="0 0 48 49" fill="none" xmlns="http://www.w3.org/2000/svg">
<path d="M34.3083 6.52306L35.6347 7.31897L15.1518 19.2671V29.6004L22.4974 33.8709L10.9503 40.807L3.5 36.3743V12.4934L24.0389 0.552734L34.3083 6.52306Z" fill="#243873"/>
<path d="M13.6918 42.5824L12.3653 41.7865L32.8484 29.8383V19.5051L25.5027 15.2346L37.0499 8.29848L44.5 12.7312V36.6122L23.9611 48.5527L13.6918 42.5824Z" fill="#243873"/>
<path fill-rule="evenodd" clip-rule="evenodd" d="M23.9999 31.5527C27.8555 31.5527 31 28.4082 31 24.5527C31 20.6972 27.8555 17.5527 23.9999 17.5527C20.1445 17.5527 17 20.6972 17 24.5527C17 28.4082 20.1445 31.5527 23.9999 31.5527" fill="#DBAF2E"/>
</svg>
