<svg width="48" height="49" viewBox="0 0 48 49" fill="none" xmlns="http://www.w3.org/2000/svg">
    <path fill-rule="evenodd" clip-rule="evenodd" d="M4.31 32.019 12 45.338h5.734l-7.66-13.206 1.461-2.53 9.086 15.736H36l2.87-4.972-15.287.006-9.133-15.819 3.325-5.76h-5.83L4.31 32.02zm36 5.853L48 24.553l-2.867-4.966-7.606 13.237h-2.922l9.085-15.736L36 3.767h-5.741l7.649 13.237-9.133 15.819h-6.65l2.914 5.048H40.31zM25.86 11.234 24.4 8.704l-15.266.03L12 3.77h15.38l7.635 13.225-2.915 5.048-3.325-5.76H10.509L2.87 29.526 0 24.553l7.69-13.319h18.17z" fill="#B11116"/>
    <path fill-rule="evenodd" clip-rule="evenodd" d="M24 18.814a5.832 5.832 0 0 1 5.829 5.828A5.832 5.832 0 0 1 24 30.471a5.832 5.832 0 0 1-5.829-5.829 5.832 5.832 0 0 1 5.83-5.828z" fill="#00A1BF"/>
</svg>
