<svg width="48" height="49" viewBox="0 0 48 49" fill="none" xmlns="http://www.w3.org/2000/svg">
    <path fill-rule="evenodd" clip-rule="evenodd" d="M3 48.553h42v-.443H3v.443zm0-.64h42v-1.054H3v1.054zm25.071-35.81-3.003 19s-.207 3.354 1.526 5.251c.838.918 1.864 1.172 2.817 1.72.841.483 1.799 1.36 1.946 2.4.233 1.637-1.5 1.856-2.42 1.506-.98-.371-1.724-.506-2.703-.465-2.18.092-2.671 1.667-2.664 2.242.025 1.965 1.88 2.69 1.88 2.69s-1.828.01-3.246.022C13.86 46.545 11 40.821 9.935 34.215L6.368 12.103h21.703zm14.34 34.322H27.823s-3.113-.06-3.075-2.28c.031-1.8 2.011-2.38 4.332-1.605.629.21 1.638.214 2.88.376 1.258.164 2.76-.059 4.653.773.148.066.488-.003.89.01.364.01.793.109.89.076.546-.188.825-.478 1.359-.466.207.005.39.18.513.33.155-.128.251-.223.445-.224.453-.002.63.67.912 1.089.77.173 1.337 1.116 1.462 1.605.025.1-.232.237-.311.171-.363-.301-1.846-2.253-2.07-2.252-.1.001.154.522.205.697-.396-.254-1.107-1.242-1.392-.953-.35.357.874 1.218.362 1.393-.277.094-.874-.467-1.595-.697-.597-.191-1.81-.08-1.98-.185-1.373-.845-4.815-.725-7.348-.92-.43-.033-.94-.288-1.565-.342-.843-.073-1.714.225-1.705 1.21.004.488.454 1.42 1.773 1.46 3.25.098 8.741-.045 8.741-.045l-.697-.511s-6.259-.04-7.68-.102c-.66-.029-.832-.748-.762-.963.158-.48.915-.345.915-.345s.812.1 1.228.122c1.3.068 4.875.352 6.536.846.476.142 1.322.085 1.906.191 1.067.195 1.506.432 2.306 1.053l.632-.004s-.097-.567-.014-.698c.084-.13.223-.093.372-.037.15.055.302.26.424.294.121.034.164-.133.299-.106.28.056.5.428.658.679.07.112.089.357.09.36zm-21.345-3.37c-.18.591.06.97.554 1.184l-2.816.822a.706.706 0 0 1-.876-.48.584.584 0 0 1 .397-.725l2.74-.8zm2.47-.707c-.062.521-.149.979-.222 1.396l-1.147.335c-.337-.066-.687-.229-.738-.615-.034-.255.122-.457.323-.608l1.785-.508zm-2.454-.892c-.366.501-.19.96.429 1.22l-2.809.82a.706.706 0 0 1-.876-.48.584.584 0 0 1 .397-.726l2.86-.834zm10.601-17.972c-1.482.692-3.597 2.86-4.457 4.57-.061.12-.2.388-.31.592-.211.393-.605 1.316-.701 1.642-.25.852-.31 1.095-.405 1.645-.283 1.652-.036 2.964.718 3.817.557.63 1.01.891 2.969 1.72.25.105.44.2.864.43 1.555.847 2.197 2.626 1.568 4.223-.101.256-.153.267 1.165.377 1.509.126 2.66.325 3.07.529-.171-2.18-.603-8.06-.749-9.416-.02-.184-.116-.208-.216-.21-.329-.005-.917-.013-1.267-.199.145-.184.289-.309.528-.456l-.653-.026c-.96-.095-1.183-.533-.294-.989 0 0-1.238.15-1.236-.907 0-.202.028-.277.207-.23.168.042.56.035.559-.012-.004-.11-.233-.165-.352-.211-.276-.11-.403-.313-.484-.558-.081-.243.02-.302.377-.464.478-.216.495-.413.077-.413-.868 0-.855-1.346-.05-2.046.403-.35.429-.469.153-.558-.411-.135-.983-.828-.954-1.468.042-.932 2.16-1.421 2.503-.569.091.226.49.27.479-.012-.006-.145.262-.396.57-.526.137-.058-.226-.297-.49-.427-.441-.217-1.387-.285-2.084-.155-.675.125-.81.17-1.105.307zM23.62 40.715c.01.5-.012.95-.052 1.36l-1.452.424c-.762-.089-1.029-.609-.607-1.168l2.111-.616zm.483 1.363s.23-3.9-1.046-6.604c-1.37-2.905-4.493-6.001-6.287-8.046-.184-.21-.443-.794-.405-1.237.164-1.917 2.882-1.473 2.882-1.473s.073.623.188.91c.896 2.244 3.671 5.033 4.984 7.624 1.34 2.643 2.76 7.988 2.76 7.988-1.51-.18-2.549.087-3.076.838zm-3.275-2.148c-.202.711.12 1 .506 1.198l-2.802.817a.706.706 0 0 1-.875-.48.584.584 0 0 1 .396-.725l2.775-.81zm2.657-.775c.07.47.11.904.127 1.308l-1.528.446c-.335-.009-.602-.117-.745-.308-.168-.224-.165-.572.136-.86l2.01-.586zm-2.99-.718c-.31.45-.074.987.5 1.199l-2.867.837a.706.706 0 0 1-.876-.48v-.001a.584.584 0 0 1 .396-.724l2.846-.83zm2.687-.784c.113.449.2.87.266 1.267l-1.854.541c-.74-.064-.909-.512-.66-1.152l2.248-.656zm-3.202-.66c-.223.836.17 1.03.622 1.163l-2.93.855a.706.706 0 0 1-.875-.48.584.584 0 0 1 .396-.725l2.787-.814zm2.77-.81c.145.434.268.846.372 1.237l-2.105.614a.946.946 0 0 1-.64-.6.611.611 0 0 1 .16-.604l2.213-.646zm-3.376-.562c-.246.492-.018 1.019.554 1.136l-2.9.847a.703.703 0 0 1-.87-.478.58.58 0 0 1 .4-.722l2.816-.783zm2.772-.85c.21.388.388.783.527 1.185l-2.242.654c-.292-.032-.639-.168-.725-.62-.04-.176.06-.373.187-.524l2.253-.694zm-3.593-.474c-.187.628.137.973.6 1.091l-2.918.852a.678.678 0 0 1-.84-.454.558.558 0 0 1 .381-.7l2.777-.79zm2.743-.862c.264.364.51.736.727 1.115l-2.345.685c-.524-.045-.897-.491-.69-1.072l2.308-.728zm-3.89-.396c.17.642.371.969.629 1.08l-2.728.797a.668.668 0 0 1-.829-.455.544.544 0 0 1 .37-.675l2.558-.747zm2.902-.846c.286.333.564.674.826 1.022l-2.47.72c-.436-.085-.87-.573-.558-1.1l2.202-.642zm-4.056-.391c.052.025.1.052.136.08.279.215-.09.608.727.945l-2.899.846a.674.674 0 0 1-.836-.458.551.551 0 0 1 .374-.684l2.498-.729zm17.04-3.226c.183-.035.183.24.019.66-.178.453-.771.496-.715.588.245.401 1.024.242 1.233.31.152.05-.081.581-.579.907-.363.24-.243.351.236.386.22.015.53-.203.824-.2.104.001.081.556-.219.783-.702.531-.131.51.748.261.49-.138.402.015.215.373-.114.217-.345.33-.276.397.092.09.828.206 1.376-.488.102-.128.13-.316-.144-.52-.96-.716-1.352-1.574-1.674-2.866-.108-.434-.166-2.166-.078-2.555.054-.241-.008-.234-.615.073-1.465.74-1.715 2.152-.351 1.89zm3.995.974c-2.025.018-2.559 1.362-.998 2.31.245.149.192.194.192.4 0 .292.286.472.526.493.534.046.826-.148.924-.814.048-.325.14-.495.472-.94.157-.212.23-.35.187-.366-.078-.028-.284.019-.447.294-.545.924-1.943.711-2.257.044-.218-.465.17-1.098 1.572-1.103.986-.004 1.023.036 1.114.37.073.265.243.157.6-.383.59-.89.512-1.044-.09-.716-.57.31-1.065.405-1.795.411zm-18.103 1.396c.307.329.616.665.918 1.01l-2.39.697a1.096 1.096 0 0 1-.612-.41c-.138-.183-.129-.477.074-.71l2.01-.587zm-3.682-.495c-.159.593.013.857.593 1.044l-2.91.85a.669.669 0 0 1-.83-.455.548.548 0 0 1 .381-.683l2.766-.756zm2.489-.766c.3.319.614.647.932.985l-2.323.678c-.614-.125-.81-.63-.52-1.073l1.91-.59zm-3.646-.48c-.044.664.391.88.841.96l-2.985.872a.763.763 0 0 1-.94-.495l-.046-.143a.433.433 0 0 1 .316-.558l2.814-.636zm22.476 1.197c.394-.002.739.025 1.106.406.034.036.076-.085.103-.14.06-.127.177-.261.054-.348-.24-.17-.933-.213-1.463-.051-.315.096-.176.136.2.133zm-19.94-1.96c.26.315.55.64.862.977l-2.063.602c-.811-.02-.953-.673-.892-1.044l.282-.174 1.812-.36zm-3.38-.57c.103.487.402.716.718.915l-3.124.78a.571.571 0 0 1-.622-.25l-.281-.447a.456.456 0 0 1 .34-.697l2.969-.3zm23.291.756a2.4 2.4 0 0 1-.491.602c-.168.146 1.748-.016 2.24-.297.344-.198.725-.163.822-.138.143.037.119-.173-.011-.555-.267-.78-.729-1.015-1.37-.793-.415.144-.77.483-1.19 1.18zm-.06-1.634c-.184.169-.44.422-.624.55-.746.52-1.08 1.035-.793 1.32.491.485 1.406-.33 1.42-1.306.005-.411.359-.81 1.336-.926.26-.03.333-.131.046-.126-.292.005-.568.01-.614.026-.297.1-.48.194-.771.462zm-20.692.235c.159.304.375.623.634.955l-2.013.492c-.416-.205-.996-.858-.509-1.288l.001-.004 1.887-.155zm21.74-.203c.269-.035.664-.083.937.02.593.224 1.008.792 1.027 1.2.01.218.143.32.206.072.042-.167.22-.585.228-.988.002-.075-.008-.206-.072-.246-.068-.043-.352-.016-.48-.039-.17-.03-.438-.093-.58-.168-.325-.17-.97-.118-1.324-.016-.08.023-.211.2.058.165zm-24.391.65-3.129.087a.571.571 0 0 1-.579-.475l-.055-.323a.832.832 0 0 1 .91-.968c.956.104 1.74.194 2.22.248.071.74.453 1.235.633 1.43zm21.614-.346c.306.303.879.205 1.106-.088.61-.788 1.101-.992 1.858-.995.256-.001.14-.117-.093-.336-.309-.29-.504-.318-.877-.297-.286.016-.384-.002-.384-.088 0-.349-.605-.564-1.02-.307-.731.451-1.056 1.65-.59 2.11zm2.51-1.326c.025.038-.616.219-.875.402-.108.077-.17.155-.27.209-.022.011-.408.004-.554-.164-.159-.183-.069-.602.225-.597.178.002.075.149.009.315-.037.093-.022.213.037.231.54.165.376-.687.054-.742-.236-.04-.695.135-.722.504-.013.172.007.335.218.498.179.137.397.1.576.085-.237.247-.484.454-.766.439-.375-.02-.422-.697-.18-1.18.143-.285.49-.604.764-.591.375.018.334.265.505.436.099.1.84-.059.98.155zm-21.494.927-2.303.098c-.633-.464-.662-2.284-.345-2.519.66.775 1.596 1.056 2.554 1.204a3.161 3.161 0 0 0-.064.526c-.007.182.007.507.158.692zm18.63-2.002c-.19.177-.257.168-.473-.155-.227-.34-.523-.485-.795-.488-.63-.008-1.164.576-1.208.665-.038.076.074.103.11.24.12.455.583 1.091 1.204 1.126.478.027.888-.142 1.211-.66.317-.506.63-.843.969-.965.477-.17.93.019 1.357.454.067.069.275.1.341.097.13-.005.435.22.588.405.313.378.456.393.38.147-.055-.184-.7-.873-1.062-.991-.328-.107-.688-.684-1.235-.797-.24-.05-.44.11-.64.281-.254.22-.672.573-.746.641zm-21.914 1.01c-.484-.085-1.834-.32-2.794-.474a.693.693 0 0 1-.574-.797l.08-.485a.632.632 0 0 1 .873-.478c.86.372 1.948.858 2.417 1.069-.04.362-.018.893-.002 1.165zm3.25-.453c-.861-.13-1.428-.343-2.36-1.105-.511-.598.631-2.097 1.168-1.69.333 1.13.928 1.554 1.628 2.073a1.683 1.683 0 0 0-.436.722zm.592-.853c-.562-.497-1.127-1.214-1.313-1.86-.041-.145-.058-.384.004-.486.423-.69 1.496-.603 1.877-.549.074.01.119.09.112.143a3.672 3.672 0 0 0 .245 1.89c.013.033.066.492-.006.504-.336.056-.654.164-.919.358zm-3.783-.168-2.52-1.325a.784.784 0 0 1-.327-1.06l.033-.062a.884.884 0 0 1 1.353-.26l1.896 1.608c-.165.278-.34.707-.435 1.099zm5.181-.24c-.323-.44-.413-1.606-.363-2.306.01-.134.105-.179.142-.177.689.03 1.206.22 1.74.708.062.057.076.205.048.244-.33.463-.464.986-.436 1.56-.348-.021-.741-.047-1.13-.028zm-4.602-1.081c-.483-.401-1.855-1.552-1.99-1.77-.2-1.194.917-1.898 1.654-1.628.204.292.931 1.839 1.201 2.419-.414.329-.695.723-.865.979zm5.743-1.59c.394-.47 1.297-1.538 1.676-1.894.275-.258.766-.386.999-.198.213.171.58.55.647.847.095.422-.01.714-.345.93-.393.254-1.609.921-2.12 1.2-.239-.401-.513-.689-.857-.886zm-4.62.418c-.304-.6-1.081-2.14-1.262-2.577-.055-.131-.084-.335.032-.467.426-.486 1.418-.83 1.945-.777.23.023.31.142.318.325.025.65.071 2.319.087 2.897-.398.133-.79.366-1.12.6zm3.05-.774c.244-.65.769-2.039.94-2.465.049-.124.147-.457.324-.552.197-.106.67-.153.992-.073.323.08.675.352.787.566.113.215.054.464-.078.668-.255.394-1.192 1.58-1.61 2.104-.367-.16-.808-.235-1.355-.248zm-1.665.102c-.01-.664-.034-2.536.038-3.058a.634.634 0 0 1 .457-.522c.31-.09 1.14-.093 1.454.013.256.087.473.316.434.584-.074.495-.716 2.186-.984 2.88-.352.003-.744.028-1.184.07a1.88 1.88 0 0 0-.215.033zm12.234-9.466H6.324l-.048-.3h21.885l-.047.3zm.137-.867H6.185l-.103-.635a1.994 1.994 0 0 0 .87-.448c.18-.159.33-.348.457-.552a3.507 3.507 0 0 0 .284-.581v-.614a.39.39 0 0 0-.055.019.491.491 0 0 0-.235.239c-.034.066-.057.138-.084.207l-.04.096c-.032.075-.066.15-.103.223-.093.178-.2.348-.332.499a1.639 1.639 0 0 1-.814.509l-.012.003L4.744 2.04h24.918l-1.255 7.936a1.64 1.64 0 0 1-1.053-.556c-.133-.151-.24-.321-.332-.499a4.835 4.835 0 0 1-.103-.223l-.04-.096c-.027-.07-.05-.14-.084-.207a.491.491 0 0 0-.235-.24.39.39 0 0 0-.055-.018v.614a3.506 3.506 0 0 0 .285.581c.125.204.276.393.456.552a1.994 1.994 0 0 0 1.099.49l-.094.593zm-13.486-.974s.178-.002.229-.005a1.9 1.9 0 0 0 .374-.06 1.64 1.64 0 0 0 .814-.508c.132-.151.239-.321.332-.499.036-.073.07-.148.103-.223l.04-.096c.027-.07.05-.14.083-.207a.492.492 0 0 1 .236-.24.39.39 0 0 1 .055-.018v.614a3.507 3.507 0 0 1-.285.581 2.446 2.446 0 0 1-.456.552c-.19.167-.41.298-.649.383-.2.072-.41.11-.622.125-.063.003-.267.006-.267.006-.066 0-.182-.003-.241-.006a2.366 2.366 0 0 1-.623-.125 1.993 1.993 0 0 1-.648-.383 2.446 2.446 0 0 1-.457-.552 3.507 3.507 0 0 1-.285-.581v-.614a.39.39 0 0 1 .056.019.492.492 0 0 1 .235.239c.034.066.057.138.084.207l.04.096c.032.075.066.15.103.223.092.178.199.348.332.499.216.246.496.425.814.509a1.9 1.9 0 0 0 .374.06c.054.002.174 0 .229.004zm9.337.405s-.195-.003-.254-.006a2.367 2.367 0 0 1-.622-.125 1.994 1.994 0 0 1-.649-.383 2.446 2.446 0 0 1-.456-.552 3.507 3.507 0 0 1-.285-.581v-.614a.39.39 0 0 1 .055.019.491.491 0 0 1 .236.239c.034.066.056.138.084.207.012.033.026.064.039.096.033.075.067.15.103.223.093.178.2.348.332.499.217.246.496.425.814.509.122.032.248.052.374.06.054.002.175 0 .23.004 0 0 .178-.002.228-.005a1.9 1.9 0 0 0 .374-.06 1.64 1.64 0 0 0 .814-.508c.133-.151.24-.321.332-.499.037-.073.07-.148.104-.223l.039-.096c.027-.07.05-.14.084-.207a.491.491 0 0 1 .235-.24.39.39 0 0 1 .056-.018v.614l-.041.105c-.07.165-.15.325-.244.476a2.449 2.449 0 0 1-.457.552c-.19.167-.41.298-.648.383-.201.072-.41.11-.623.125a5.814 5.814 0 0 1-.254.006zm-4.658-.406c.059-.002.168 0 .219-.004a1.9 1.9 0 0 0 .373-.06 1.64 1.64 0 0 0 .815-.508c.132-.151.239-.321.331-.499.037-.073.071-.148.104-.223l.04-.096c.026-.07.05-.14.083-.207a.492.492 0 0 1 .235-.24.39.39 0 0 1 .056-.018v.614l-.041.105c-.07.165-.15.325-.244.476a2.446 2.446 0 0 1-.456.552c-.19.167-.41.298-.65.383-.2.072-.41.11-.622.125a5.814 5.814 0 0 1-.508 0 2.366 2.366 0 0 1-.622-.125 1.993 1.993 0 0 1-.648-.383 2.446 2.446 0 0 1-.457-.552 3.507 3.507 0 0 1-.285-.581v-.614a.386.386 0 0 1 .056.019.491.491 0 0 1 .235.239c.034.066.057.138.084.207.012.033.026.064.039.096.033.075.067.15.104.223.092.178.199.348.331.499.217.246.496.425.815.509.121.032.247.052.373.06.055.002.24.003.24.003zm-9.577-.004c.054.003.407.003.458 0 .126-.007.252-.027.374-.06.318-.083.597-.262.814-.508.133-.151.24-.321.332-.499.037-.073.07-.148.103-.223l.04-.096c.027-.07.05-.14.083-.207a.491.491 0 0 1 .236-.24.386.386 0 0 1 .055-.018v.614a3.507 3.507 0 0 1-.285.581 2.446 2.446 0 0 1-.456.552c-.19.167-.41.298-.649.383-.2.072-.41.11-.622.125-.063.003-.45.003-.508 0a2.366 2.366 0 0 1-.623-.125 1.994 1.994 0 0 1-.648-.383 2.446 2.446 0 0 1-.457-.552 3.495 3.495 0 0 1-.285-.581v-.614a.395.395 0 0 1 .056.019.492.492 0 0 1 .235.239c.034.066.057.138.084.207l.04.096c.032.075.066.15.103.223.093.178.2.348.332.499.216.246.496.425.814.509a1.9 1.9 0 0 0 .374.06zM7.63 7.952l-.159.14a.015.015 0 0 1-.011.004.15.15 0 0 1-.111-.068A.021.021 0 0 1 7.354 8l.369-.325a.06.06 0 0 1 .078 0l.368.325c.008.007.01.018.005.027a.15.15 0 0 1-.11.068.015.015 0 0 1-.012-.004l-.268-.235a.034.034 0 0 0-.045 0l-.109.095zm4.67 0-.16.14a.015.015 0 0 1-.011.004.15.15 0 0 1-.111-.068.021.021 0 0 1 .005-.027l.368-.325a.06.06 0 0 1 .078 0l.369.325c.008.007.01.018.005.027a.15.15 0 0 1-.111.068.015.015 0 0 1-.011-.004l-.268-.235a.034.034 0 0 0-.045 0l-.109.095zm4.668 0c-.068.06-.14.124-.16.14a.015.015 0 0 1-.01.004.15.15 0 0 1-.112-.068.021.021 0 0 1 .006-.027l.368-.325a.06.06 0 0 1 .078 0l.369.325c.008.007.01.018.005.027a.15.15 0 0 1-.111.068.015.015 0 0 1-.011-.004l-.269-.235a.034.034 0 0 0-.044 0l-.109.095zm4.669 0c-.068.06-.14.124-.16.14a.015.015 0 0 1-.01.004.15.15 0 0 1-.112-.068A.021.021 0 0 1 21.36 8l.369-.325a.06.06 0 0 1 .078 0l.369.325c.008.007.01.018.005.027a.15.15 0 0 1-.111.068.015.015 0 0 1-.012-.004l-.268-.235a.034.034 0 0 0-.044 0l-.109.095zm4.669 0c-.068.06-.14.124-.16.14a.015.015 0 0 1-.01.004.15.15 0 0 1-.112-.068.021.021 0 0 1 .005-.027l.369-.325a.059.059 0 0 1 .078 0l.368.325c.008.007.01.018.005.027a.15.15 0 0 1-.11.068.015.015 0 0 1-.012-.004l-.268-.235a.034.034 0 0 0-.044 0l-.11.095zm.13-2.19.66-.612s.797-.788 1.008-.975c.121-.106.248-.1.248-.1s-.794 1.475-.791 2.346c.003.952-.626 1.483-.626 1.483l-.498-.44-.499.44s-.629-.53-.625-1.483c.003-.871-.79-2.347-.79-2.347s.125-.005.246.101c.212.187 1.008.975 1.008.975l.66.613zm-18.674 0 .66-.612s.795-.788 1.007-.975c.121-.106.247-.1.247-.1s-.794 1.475-.79 2.346a2.025 2.025 0 0 1-.626 1.483l-.498-.44-.5.44s-.628-.53-.624-1.483c.003-.871-.791-2.347-.791-2.347s.126-.005.247.101c.212.187 1.008.975 1.008.975l.66.613zm4.668 0 .66-.612s.796-.788 1.008-.975c.12-.106.247-.1.247-.1s-.794 1.475-.79 2.346c.003.952-.626 1.483-.626 1.483l-.499-.44-.498.44s-.63-.53-.626-1.483c.003-.871-.79-2.347-.79-2.347s.126-.005.247.101c.211.187 1.008.975 1.008.975l.66.613zm4.67 0 .659-.612s.796-.788 1.008-.975c.12-.106.247-.1.247-.1s-.794 1.475-.79 2.346c.003.952-.626 1.483-.626 1.483l-.499-.44-.498.44s-.63-.53-.626-1.483c.003-.871-.79-2.347-.79-2.347s.126-.005.247.101c.211.187 1.007.975 1.007.975l.66.613zm4.668 0 .66-.612s.796-.788 1.007-.975c.122-.106.248-.1.248-.1s-.794 1.475-.791 2.346c.003.952-.625 1.483-.625 1.483l-.499-.44-.499.44s-.628-.53-.625-1.483c.003-.871-.79-2.347-.79-2.347s.125-.005.247.101c.211.187 1.007.975 1.007.975l.66.613zm-5.226-.723-.97-.9a.26.26 0 0 1 .01-.39.256.256 0 0 1 .207-.06c.075.012.14.054.18.117l.667 1.033a.57.57 0 0 0-.094.2zm9.337 0-.969-.9a.26.26 0 0 1 .01-.39.256.256 0 0 1 .207-.06c.074.012.14.054.18.117l.667 1.033a.574.574 0 0 0-.095.2zm-14.006 0-.97-.9a.26.26 0 0 1 .01-.39.256.256 0 0 1 .207-.06c.075.012.14.054.18.117l.667 1.033a.572.572 0 0 0-.094.2zm9.338 0-.97-.9a.26.26 0 0 1 .01-.39.256.256 0 0 1 .207-.06c.074.012.14.054.18.117l.667 1.033a.572.572 0 0 0-.094.2zm-14.007 0-.97-.9a.26.26 0 0 1 .01-.39.256.256 0 0 1 .208-.06c.074.012.14.054.18.117l.667 1.033a.574.574 0 0 0-.095.2zm1.02-.2.666-1.032a.26.26 0 0 1 .386-.059.261.261 0 0 1 .011.392l-.969.898a.572.572 0 0 0-.094-.2zm18.675 0c.234-.364.503-.78.667-1.032a.26.26 0 0 1 .385-.059c.06.049.094.12.096.194a.26.26 0 0 1-.084.198l-.97.898a.572.572 0 0 0-.094-.2zm-4.669 0 .667-1.032a.26.26 0 0 1 .386-.059.261.261 0 0 1 .012.392l-.97.898a.572.572 0 0 0-.095-.2zm-4.669 0 .667-1.032a.26.26 0 0 1 .386-.059.261.261 0 0 1 .011.392l-.969.898a.572.572 0 0 0-.095-.2zm-4.668 0 .666-1.032a.26.26 0 0 1 .386-.059.261.261 0 0 1 .011.392l-.969.898a.572.572 0 0 0-.095-.2zm8.472-.068-.547-1.068a.26.26 0 0 1 .142-.363.256.256 0 0 1 .215.014.262.262 0 0 1 .13.172l.255 1.118a.577.577 0 0 0-.195.127zm-4.67 0-.546-1.068a.26.26 0 0 1 .142-.363.256.256 0 0 1 .216.014.261.261 0 0 1 .129.172l.255 1.118a.577.577 0 0 0-.195.127zm-4.668 0-.547-1.068a.26.26 0 0 1 .142-.363.256.256 0 0 1 .216.014.261.261 0 0 1 .13.172l.254 1.118a.575.575 0 0 0-.195.127zm14.007 0c-.194-.379-.414-.806-.547-1.068a.26.26 0 0 1 .142-.363.256.256 0 0 1 .215.014.261.261 0 0 1 .13.172l.255 1.118a.575.575 0 0 0-.195.127zm-18.676 0-.547-1.068a.26.26 0 0 1 .143-.363.256.256 0 0 1 .215.014.261.261 0 0 1 .13.172l.254 1.118a.575.575 0 0 0-.195.127zm5.28-.127.255-1.118a.26.26 0 0 1 .342-.187h.003a.261.261 0 0 1 .142.364l-.547 1.067a.577.577 0 0 0-.195-.126zm14.006 0 .256-1.118a.26.26 0 0 1 .342-.187h.002a.261.261 0 0 1 .143.364l-.548 1.067a.577.577 0 0 0-.195-.126zm-18.675 0 .255-1.118a.26.26 0 0 1 .343-.187h.002a.261.261 0 0 1 .142.364L8.164 4.77a.577.577 0 0 0-.195-.126zm9.337 0 .256-1.118a.26.26 0 0 1 .342-.187h.002a.261.261 0 0 1 .143.364l-.547 1.067a.576.576 0 0 0-.196-.126zm4.67 0c.09-.402.192-.843.255-1.118a.26.26 0 0 1 .342-.187h.002a.261.261 0 0 1 .143.364L22.17 4.77a.576.576 0 0 0-.195-.126zm4.355-.03-.157-1.413a.263.263 0 0 1 .26-.292.264.264 0 0 1 .265.292l-.158 1.414a.572.572 0 0 0-.21 0zm-4.669 0-.157-1.413a.263.263 0 0 1 .261-.292.26.26 0 0 1 .2.086c.05.057.073.131.065.206l-.158 1.414a.572.572 0 0 0-.21 0zm-9.337 0-.158-1.413a.263.263 0 0 1 .261-.292.264.264 0 0 1 .265.292l-.158 1.414a.572.572 0 0 0-.21 0zm-4.67 0-.157-1.413a.263.263 0 0 1 .262-.292.264.264 0 0 1 .265.292l-.159 1.414a.572.572 0 0 0-.21 0zm9.338 0-.157-1.413a.264.264 0 0 1 .261-.292.264.264 0 0 1 .265.292l-.158 1.414a.574.574 0 0 0-.21 0zm12.759-3.142h-25.1l-.147-.92h25.392l-.145.92z" fill="#FECC09"/>
</svg>
