<svg width="38" height="39" viewBox="0 0 38 39" fill="none" xmlns="http://www.w3.org/2000/svg">
    <path opacity=".4" d="M19 35.386c8.745 0 15.833-7.088 15.833-15.833C34.833 10.81 27.745 3.72 19 3.72c-8.744 0-15.833 7.089-15.833 15.833 0 8.745 7.089 15.833 15.833 15.833z" fill="#fff"/>
    <path d="M20.995 26.33c-.3 0-.602-.111-.839-.349l-5.59-5.589c-.458-.459-.458-1.219 0-1.678l5.59-5.59c.46-.459 1.22-.459 1.678 0 .46.46.46 1.22 0 1.679l-4.75 4.75 4.75 4.75c.46.46.46 1.22 0 1.678a1.124 1.124 0 0 1-.839.349z" fill="#fff"/>
</svg>
