<svg width="32" height="33" viewBox="0 0 32 33" fill="none" xmlns="http://www.w3.org/2000/svg">
    <path d="M29.333 10.62c0 .88-.72 1.6-1.6 1.6H4.267c-.88 0-1.6-.72-1.6-1.6v-.014a5.514 5.514 0 0 1 5.52-5.52H23.8a5.537 5.537 0 0 1 5.533 5.533zM2.667 15.82v6.68a5.514 5.514 0 0 0 5.52 5.52H23.8a5.537 5.537 0 0 0 5.533-5.534V15.82c0-.88-.72-1.6-1.6-1.6H4.267c-.88 0-1.6.72-1.6 1.6zm8 7.733H8c-.547 0-1-.453-1-1 0-.547.453-1 1-1h2.667c.546 0 1 .453 1 1 0 .547-.454 1-1 1zm8.666 0H14c-.547 0-1-.453-1-1 0-.547.453-1 1-1h5.333c.547 0 1 .453 1 1 0 .547-.453 1-1 1z" fill="#A8AEC5"/>
</svg>
