<svg width="126" height="127" viewBox="0 0 126 127" fill="none" xmlns="http://www.w3.org/2000/svg">
    <path d="M73.512 123.423H41.697c-18.218 0-25.83-13.02-17.01-28.928l16.38-29.505 15.435-27.72c9.345-16.852 24.675-16.852 34.02 0l15.435 27.773 16.38 29.505c8.82 15.907 1.155 28.927-17.01 28.927H73.512v-.052z" fill="#FFB257" fill-opacity=".19"/>
    <path d="M63 47.803v26.25M63.002 112.956H31.187c-18.218 0-25.83-13.02-17.01-28.928l16.38-29.505 15.435-27.72c9.345-16.852 24.675-16.852 34.02 0l15.435 27.773 16.38 29.505c8.82 15.907 1.155 28.927-17.01 28.927H63.002v-.052zM62.97 89.803h.047" stroke="#FFB257" stroke-width="9" stroke-linecap="round" stroke-linejoin="round"/>
</svg>
