<svg width="27" height="21" viewBox="0 0 27 21" fill="none" xmlns="http://www.w3.org/2000/svg">
    <path fill-rule="evenodd" clip-rule="evenodd" d="M24.361 18.914H8.144l-5.565-8 5.565-8h16.217v16zm1-18H7.622a1 1 0 0 0-.82.43l-6.262 9a1 1 0 0 0 0 1.141l6.261 9a1 1 0 0 0 .821.43h17.74a1 1 0 0 0 1-1v-18a1 1 0 0 0-1-1zM11.154 14.871a.997.997 0 0 0 1.414 0l2.543-2.543 2.543 2.543a.997.997 0 0 0 1.414 0 .999.999 0 0 0 0-1.414l-2.543-2.543 2.543-2.543a.999.999 0 1 0-1.414-1.414L15.111 9.5l-2.543-2.543a.999.999 0 1 0-1.414 1.414l2.543 2.543-2.543 2.543a.999.999 0 0 0 0 1.414z" fill="#fff"/>
</svg>
