<svg width="44" height="45" viewBox="0 0 44 45" fill="none" xmlns="http://www.w3.org/2000/svg">
    <circle cx="22" cy="22.553" r="22" fill="#025EFE"/>
    <path d="m28.672 18.884 1.955 7.296c.749 2.916.15 3.864-2.88 4.676l-9.634 2.581c-3.081.826-4.062.268-4.877-2.772l-1.911-7.133c-.738-2.755-.333-3.815 2.047-4.606.242-.076.505-.157.79-.234l9.633-2.581c3.082-.826 4.063-.268 4.877 2.773z" fill="#fff"/>
    <path opacity=".4" d="m30.763 14.441 1.911 7.133c.739 2.755.334 3.815-2.046 4.606l-1.956-7.296c-.814-3.04-1.795-3.598-4.877-2.773l-9.632 2.581c-.286.077-.549.158-.79.234-.75-2.916-.15-3.864 2.88-4.676l9.633-2.581c3.082-.826 4.062-.269 4.877 2.772z" fill="#fff"/>
    <path d="m18.65 30.625-1.755.47a.798.798 0 0 1-.97-.56.798.798 0 0 1 .56-.97l1.755-.47a.791.791 0 1 1 .41 1.53zM24.355 29.097l-3.51.94a.798.798 0 0 1-.971-.56.798.798 0 0 1 .56-.97l3.51-.94a.791.791 0 1 1 .41 1.53zM29.105 20.496l-17.348 4.649.41 1.53 17.348-4.648-.41-1.53z" fill="#025EFE"/>
</svg>
