<svg width="24" height="25" viewBox="0 0 24 25" fill="none" xmlns="http://www.w3.org/2000/svg">
    <path d="M21.385.553h-1.492c-1.712 0-2.615.903-2.615 2.615V4.66c0 1.712.903 2.615 2.615 2.615h1.492C23.097 7.275 24 6.372 24 4.66V3.168c0-1.712-.903-2.615-2.615-2.615zM12.746.553h-1.492c-1.712 0-2.615.903-2.615 2.615V4.66c0 1.712.903 2.615 2.615 2.615h1.492c1.712 0 2.615-.903 2.615-2.615V3.168c0-1.712-.903-2.615-2.615-2.615zM4.107.553H2.615C.903.553 0 1.456 0 3.168V4.66c0 1.712.903 2.615 2.615 2.615h1.492c1.712 0 2.616-.903 2.616-2.615V3.168c0-1.712-.904-2.615-2.616-2.615zM21.385 9.191h-1.492c-1.712 0-2.615.903-2.615 2.616v1.492c0 1.712.903 2.615 2.615 2.615h1.492c1.712 0 2.615-.903 2.615-2.615v-1.492c0-1.713-.903-2.616-2.615-2.616zM12.746 9.191h-1.492c-1.712 0-2.615.903-2.615 2.616v1.492c0 1.712.903 2.615 2.615 2.615h1.492c1.712 0 2.615-.903 2.615-2.615v-1.492c0-1.713-.903-2.616-2.615-2.616zM4.107 9.191H2.615C.903 9.191 0 10.094 0 11.807v1.492c0 1.712.903 2.615 2.615 2.615h1.492c1.712 0 2.616-.903 2.616-2.615v-1.492c0-1.713-.904-2.616-2.616-2.616zM21.385 17.83h-1.492c-1.712 0-2.615.903-2.615 2.615v1.492c0 1.712.903 2.616 2.615 2.616h1.492c1.712 0 2.615-.904 2.615-2.616v-1.492c0-1.712-.903-2.615-2.615-2.615zM12.746 17.83h-1.492c-1.712 0-2.615.903-2.615 2.615v1.492c0 1.712.903 2.616 2.615 2.616h1.492c1.712 0 2.615-.904 2.615-2.616v-1.492c0-1.712-.903-2.615-2.615-2.615zM4.107 17.83H2.615C.903 17.83 0 18.733 0 20.445v1.492c0 1.712.903 2.616 2.615 2.616h1.492c1.712 0 2.616-.904 2.616-2.616v-1.492c0-1.712-.904-2.615-2.616-2.615z" fill="#FFB257"/>
</svg>
