<svg width="32" height="33" viewBox="0 0 32 33" fill="none" xmlns="http://www.w3.org/2000/svg">
    <g clip-path="url(#a)">
        <path d="M40.574 11.497H-8.909V1.54a.853.853 0 0 1 .853-.853h47.777a.853.853 0 0 1 .853.853v9.957z" fill="#41CA7F"/>
        <path d="M39.721 33.107H-8.056a.853.853 0 0 1-.853-.85V22.3h49.483v9.957a.853.853 0 0 1-.853.85z" fill="#F44D57"/>
        <path d="M40.574 11.494H-8.909V22.3h49.483V11.494zM-3.243 10.922h.011a.134.134 0 0 0 .134-.134v-.29a.134.134 0 0 1 .135-.135h.556a.134.134 0 0 1 .134.134v.291a.134.134 0 0 0 .135.134h1.111a.134.134 0 0 0 .135-.134v-.574a.134.134 0 0 0-.135-.135h-.56a.134.134 0 0 0-.134.135v.015a.134.134 0 0 0 .135.134h.283a.134.134 0 0 1 .135.134v.015a.134.134 0 0 1-.135.134h-.56a.134.134 0 0 1-.134-.134v-.298a.134.134 0 0 0-.134-.135h-1.112a.134.134 0 0 0-.134.135v.574a.134.134 0 0 0 .134.134zm.549 0h.007a.134.134 0 0 0 .134-.134v-.007a.134.134 0 0 0-.134-.135h-.004a.134.134 0 0 0-.134.135v.007a.134.134 0 0 0 .134.134h-.003zm-.549-1.125H.081a.134.134 0 0 0 .134-.134v-.015a.134.134 0 0 0-.134-.134h-3.324a.134.134 0 0 0-.134.134v.015a.134.134 0 0 0 .134.134zm3.324 1.125h-.564a.134.134 0 0 1-.134-.134v-.574a.134.134 0 0 1 .134-.135h.836a.134.134 0 0 0 .134-.134v-.298a.134.134 0 0 1 .135-.134h.01a.134.134 0 0 1 .135.134v.864a.134.134 0 0 0 .135.135h.01a.134.134 0 0 0 .135-.135v-.864a.134.134 0 0 1 .134-.134.134.134 0 0 1 .135.134v.864a.134.134 0 0 0 .134.135h.011a.134.134 0 0 0 .134-.135v-.864a.134.134 0 0 1 .135-.134h.007a.134.134 0 0 1 .135.134v1.14a.134.134 0 0 1-.135.135H.62a.134.134 0 0 1-.134-.135v-.29a.134.134 0 0 0-.135-.135h-.554a.134.134 0 0 0-.134.134v.015a.134.134 0 0 0 .134.135H.08a.134.134 0 0 1 .134.134v.007a.135.135 0 0 1-.133.135zM2.285 10.922h.007a.134.134 0 0 0 .135-.134v-.29a.134.134 0 0 1 .134-.135h.56a.134.134 0 0 1 .134.134v.291a.134.134 0 0 0 .134.134h1.116a.134.134 0 0 0 .134-.134v-.574a.134.134 0 0 0-.134-.135h-.56a.134.134 0 0 0-.134.135v.015a.134.134 0 0 0 .134.134h.284a.134.134 0 0 1 .134.134v.015a.134.134 0 0 1-.134.134h-.564a.134.134 0 0 1-.134-.134v-.298a.134.134 0 0 0-.134-.135H2.285a.134.134 0 0 0-.134.135v.574a.134.134 0 0 0 .134.134zm.548 0h.008a.134.134 0 0 0 .134-.134v-.007a.134.134 0 0 0-.134-.135h-.008a.134.134 0 0 0-.134.135v.007a.134.134 0 0 0 .138.134h-.004zm-.548-1.125h3.327a.134.134 0 0 0 .134-.134v-.015a.134.134 0 0 0-.134-.134H2.285a.134.134 0 0 0-.134.134v.015a.134.134 0 0 0 .134.134zm3.327 1.125h-.563a.134.134 0 0 1-.135-.134v-.574a.134.134 0 0 1 .135-.135h.835a.134.134 0 0 0 .135-.134v-.298a.134.134 0 0 1 .134-.134h.008a.134.134 0 0 1 .134.134v.864a.134.134 0 0 0 .134.135h.011a.134.134 0 0 0 .135-.135v-.864a.134.134 0 0 1 .134-.134h.011a.134.134 0 0 1 .135.134v.864a.134.134 0 0 0 .134.135.134.134 0 0 0 .134-.135v-.864a.134.134 0 0 1 .135-.134h.007a.134.134 0 0 1 .134.134v1.14a.134.134 0 0 1-.134.135H6.151a.135.135 0 0 1-.125-.083.134.134 0 0 1-.01-.052v-.29a.134.134 0 0 0-.134-.135h-.554a.134.134 0 0 0-.135.134v.015a.134.134 0 0 0 .135.135h.287a.134.134 0 0 1 .134.134v.007a.134.134 0 0 1-.137.135zM7.812 10.922h.007a.134.134 0 0 0 .135-.134v-.29a.134.134 0 0 1 .134-.135h.56a.134.134 0 0 1 .134.134v.291a.134.134 0 0 0 .134.134h1.116a.134.134 0 0 0 .134-.134v-.574a.135.135 0 0 0-.134-.135h-.563a.134.134 0 0 0-.135.135v.015a.134.134 0 0 0 .135.134h.283a.134.134 0 0 1 .134.134v.015a.134.134 0 0 1-.134.134h-.56a.134.134 0 0 1-.134-.134v-.298a.134.134 0 0 0-.134-.135H7.812a.134.134 0 0 0-.135.135v.574a.134.134 0 0 0 .135.134zm.548 0h.008a.134.134 0 0 0 .134-.134v-.007a.134.134 0 0 0-.134-.135H8.36a.134.134 0 0 0-.134.135v.007a.134.134 0 0 0 .138.134H8.36zm-.548-1.125h3.323a.134.134 0 0 0 .135-.134v-.015a.134.134 0 0 0-.135-.134H7.812a.134.134 0 0 0-.135.134v.015a.134.134 0 0 0 .135.134zm3.323 1.125h-.563a.134.134 0 0 1-.134-.134v-.574a.135.135 0 0 1 .134-.135h.843a.134.134 0 0 0 .135-.134v-.298a.135.135 0 0 1 .082-.124.134.134 0 0 1 .052-.01h.007a.134.134 0 0 1 .135.134v.864a.134.134 0 0 0 .134.135.134.134 0 0 0 .134-.135v-.864a.134.134 0 0 1 .135-.134h.01a.134.134 0 0 1 .135.134v.864a.134.134 0 0 0 .135.135h.007a.134.134 0 0 0 .134-.135v-.864a.134.134 0 0 1 .135-.134h.007a.134.134 0 0 1 .134.134v1.14a.134.134 0 0 1-.134.135h-1.108a.134.134 0 0 1-.134-.135v-.29a.135.135 0 0 0-.135-.135h-.563a.134.134 0 0 0-.135.134v.015a.134.134 0 0 0 .135.135h.283a.134.134 0 0 1 .135.134v.007a.135.135 0 0 1-.135.135zM13.34 10.922h.007a.134.134 0 0 0 .134-.134v-.29a.135.135 0 0 1 .135-.135h.56a.134.134 0 0 1 .134.134v.291a.134.134 0 0 0 .134.134h1.115a.134.134 0 0 0 .135-.134v-.574a.135.135 0 0 0-.135-.135h-.563a.134.134 0 0 0-.134.135v.015a.134.134 0 0 0 .134.134h.287a.134.134 0 0 1 .135.134v.015a.134.134 0 0 1-.135.134h-.56a.134.134 0 0 1-.134-.134v-.298a.134.134 0 0 0-.134-.135H13.34a.134.134 0 0 0-.135.135v.574a.134.134 0 0 0 .135.134zm.556 0a.134.134 0 0 0 .134-.134v-.007a.134.134 0 0 0-.134-.135.135.135 0 0 0-.135.135v.007a.134.134 0 0 0 .135.134zm-.556-1.125h3.33a.134.134 0 0 0 .134-.134v-.015a.134.134 0 0 0-.135-.134h-3.327a.134.134 0 0 0-.134.134v.015a.134.134 0 0 0 .132.134zm3.327 1.125h-.564a.134.134 0 0 1-.134-.134v-.574a.134.134 0 0 1 .135-.135h.839a.134.134 0 0 0 .134-.134v-.298a.134.134 0 0 1 .135-.134h.007a.134.134 0 0 1 .134.134v.864a.134.134 0 0 0 .135.135h.007a.135.135 0 0 0 .134-.135v-.864a.134.134 0 0 1 .135-.134h.007a.134.134 0 0 1 .134.134v.864a.134.134 0 0 0 .135.135h.007a.135.135 0 0 0 .135-.135v-.864a.134.134 0 0 1 .134-.134h.007a.134.134 0 0 1 .135.134v1.14a.134.134 0 0 1-.135.135h-1.111a.134.134 0 0 1-.135-.135v-.29a.135.135 0 0 0-.134-.135h-.563a.134.134 0 0 0-.135.134v.015a.134.134 0 0 0 .135.135h.287a.134.134 0 0 1 .134.134v.007a.135.135 0 0 1-.132.135h-.002zM18.867 10.922h.008a.134.134 0 0 0 .134-.134v-.29a.134.134 0 0 1 .134-.135h.56a.134.134 0 0 1 .134.134v.291a.134.134 0 0 0 .135.134h1.115a.134.134 0 0 0 .134-.134v-.574a.135.135 0 0 0-.134-.135h-.56a.134.134 0 0 0-.134.135v.015a.134.134 0 0 0 .134.134h.28a.134.134 0 0 1 .135.134v.015a.134.134 0 0 1-.135.134h-.556a.134.134 0 0 1-.134-.134v-.298a.134.134 0 0 0-.134-.135h-1.116a.135.135 0 0 0-.134.135v.574a.134.134 0 0 0 .134.134zm.556 0a.134.134 0 0 0 .135-.134v-.007a.134.134 0 0 0-.135-.135.134.134 0 0 0-.134.135v.007a.134.134 0 0 0 .134.134zm-.556-1.125h3.327a.134.134 0 0 0 .135-.134v-.015a.134.134 0 0 0-.135-.134h-3.327a.134.134 0 0 0-.134.134v.015a.134.134 0 0 0 .134.134zm3.327 1.125h-.56a.134.134 0 0 1-.134-.134v-.574a.135.135 0 0 1 .135-.135h.835a.134.134 0 0 0 .135-.134v-.298a.134.134 0 0 1 .134-.134h.008a.134.134 0 0 1 .134.134v.864a.134.134 0 0 0 .134.135h.008a.134.134 0 0 0 .134-.135v-.864a.134.134 0 0 1 .134-.134h.008a.134.134 0 0 1 .134.134v.864a.134.134 0 0 0 .134.135h.008a.135.135 0 0 0 .134-.135v-.864a.134.134 0 0 1 .135-.134h.007a.134.134 0 0 1 .134.134v1.14a.134.134 0 0 1-.134.135h-1.112a.135.135 0 0 1-.134-.135v-.29a.135.135 0 0 0-.135-.135h-.563a.134.134 0 0 0-.134.134v.015a.134.134 0 0 0 .134.135h.287a.134.134 0 0 1 .135.134v.007a.135.135 0 0 1-.135.135zM24.395 10.922h.007a.134.134 0 0 0 .134-.134v-.29a.134.134 0 0 1 .135-.135h.563a.134.134 0 0 1 .134.134v.291a.134.134 0 0 0 .135.134h1.111a.134.134 0 0 0 .135-.134v-.574a.134.134 0 0 0-.134-.135h-.56a.135.135 0 0 0-.134.135v.015a.134.134 0 0 0 .134.134h.287a.134.134 0 0 1 .135.134v.015a.134.134 0 0 1-.135.134h-.567a.134.134 0 0 1-.134-.134v-.298a.135.135 0 0 0-.135-.135h-1.111a.134.134 0 0 0-.135.135v.574a.134.134 0 0 0 .135.134zm.548 0h.011a.134.134 0 0 0 .135-.134v-.007a.134.134 0 0 0-.135-.135h-.01a.134.134 0 0 0-.135.135v.007a.134.134 0 0 0 .138.134h-.004zm-.548-1.125h3.327a.134.134 0 0 0 .134-.134v-.015a.134.134 0 0 0-.134-.134h-3.327a.134.134 0 0 0-.135.134v.015a.134.134 0 0 0 .135.134zm3.327 1.125h-.56a.134.134 0 0 1-.134-.134v-.574a.134.134 0 0 1 .134-.135h.836a.134.134 0 0 0 .134-.134v-.298a.134.134 0 0 1 .135-.134h.007a.134.134 0 0 1 .134.134v.864a.134.134 0 0 0 .135.135h.007a.134.134 0 0 0 .134-.135v-.864a.134.134 0 0 1 .135-.134h.007a.134.134 0 0 1 .135.134v.864a.134.134 0 0 0 .134.135h.011a.134.134 0 0 0 .134-.135v-.864a.134.134 0 0 1 .135-.134.134.134 0 0 1 .134.134v1.14a.134.134 0 0 1-.134.135h-1.112a.134.134 0 0 1-.134-.135v-.29a.135.135 0 0 0-.135-.135h-.556a.134.134 0 0 0-.134.134v.015a.134.134 0 0 0 .134.135h.28a.134.134 0 0 1 .134.134v.007a.135.135 0 0 1-.13.135zM29.926 10.922a.134.134 0 0 0 .135-.134v-.29a.135.135 0 0 1 .134-.135h.56a.134.134 0 0 1 .134.134v.291a.134.134 0 0 0 .134.134h1.118a.134.134 0 0 0 .134-.134v-.574a.135.135 0 0 0-.134-.135h-.556a.134.134 0 0 0-.135.135v.015a.134.134 0 0 0 .135.134h.283a.135.135 0 0 1 .135.134v.015a.134.134 0 0 1-.135.134h-.563a.134.134 0 0 1-.134-.134v-.298a.134.134 0 0 0-.135-.135h-1.112a.134.134 0 0 0-.134.135v.574a.136.136 0 0 0 .04.096.133.133 0 0 0 .096.038zm.549 0h.007a.134.134 0 0 0 .135-.134v-.007a.134.134 0 0 0-.135-.135h-.007a.135.135 0 0 0-.135.135v.007a.136.136 0 0 0 .086.125c.017.007.035.01.053.01h-.004zm-.549-1.125h3.331a.134.134 0 0 0 .134-.134v-.015a.134.134 0 0 0-.134-.134h-3.33a.135.135 0 0 0-.135.134v.015a.134.134 0 0 0 .134.134zm3.331 1.125h-.567a.134.134 0 0 1-.134-.134v-.574a.134.134 0 0 1 .134-.135h.836a.134.134 0 0 0 .134-.134v-.298a.134.134 0 0 1 .135-.134h.01a.134.134 0 0 1 .135.134v.864a.134.134 0 0 0 .134.135h.008a.135.135 0 0 0 .134-.135v-.864a.134.134 0 0 1 .134-.134.134.134 0 0 1 .135.134v.864a.134.134 0 0 0 .134.135h.011a.134.134 0 0 0 .135-.135v-.864a.134.134 0 0 1 .134-.134h.007a.134.134 0 0 1 .135.134v1.14a.134.134 0 0 1-.135.135h-1.115a.135.135 0 0 1-.134-.135v-.29a.135.135 0 0 0-.135-.135h-.558a.134.134 0 0 0-.135.134v.015a.134.134 0 0 0 .135.135h.29a.134.134 0 0 1 .135.134v.007a.135.135 0 0 1-.132.135z" fill="#F5F5F5"/>
        <path d="M-3.243 11.783h2.216a.134.134 0 0 0 .135-.135v-.298a.134.134 0 0 0-.135-.134h-2.216a.134.134 0 0 0-.134.134v.298a.134.134 0 0 0 .134.135zm2.76 0H1.74a.134.134 0 0 0 .134-.135v-.298a.134.134 0 0 0-.134-.134H-.483a.134.134 0 0 0-.134.134v.298a.134.134 0 0 0 .134.135zM2.285 11.783h2.22a.134.134 0 0 0 .134-.135v-.298a.134.134 0 0 0-.134-.134H2.286a.134.134 0 0 0-.134.134v.298a.134.134 0 0 0 .133.135zm2.764 0h2.219a.134.134 0 0 0 .134-.135v-.298a.134.134 0 0 0-.134-.134H5.049a.134.134 0 0 0-.134.134v.298a.134.134 0 0 0 .134.135zM7.812 11.783h2.219a.134.134 0 0 0 .134-.135v-.298a.134.134 0 0 0-.134-.134H7.81a.134.134 0 0 0-.134.134v.298a.134.134 0 0 0 .135.135zm2.76 0h2.223a.135.135 0 0 0 .134-.135v-.298a.134.134 0 0 0-.134-.134h-2.223a.134.134 0 0 0-.134.134v.298a.134.134 0 0 0 .134.135zM13.34 11.783h2.22a.134.134 0 0 0 .134-.135v-.298a.134.134 0 0 0-.135-.134h-2.22a.134.134 0 0 0-.134.134v.298a.134.134 0 0 0 .135.135zm2.764 0h2.22a.134.134 0 0 0 .134-.135v-.298a.134.134 0 0 0-.135-.134h-2.22a.134.134 0 0 0-.134.134v.298a.134.134 0 0 0 .135.135zM18.867 11.783h2.22a.134.134 0 0 0 .134-.135v-.298a.134.134 0 0 0-.134-.134h-2.22a.135.135 0 0 0-.134.134v.298a.134.134 0 0 0 .134.135zm2.768 0h2.212a.134.134 0 0 0 .135-.135v-.298a.134.134 0 0 0-.135-.134h-2.212a.134.134 0 0 0-.135.134v.298a.134.134 0 0 0 .135.135zM24.395 11.783h2.22a.135.135 0 0 0 .134-.135v-.298a.134.134 0 0 0-.134-.134h-2.22a.134.134 0 0 0-.135.134v.298a.134.134 0 0 0 .135.135zm2.767 0h2.218a.135.135 0 0 0 .135-.135v-.298a.134.134 0 0 0-.135-.134h-2.215a.134.134 0 0 0-.134.134v.298a.135.135 0 0 0 .131.135zM29.926 11.783h2.215a.134.134 0 0 0 .134-.135v-.298a.134.134 0 0 0-.134-.134h-2.217a.134.134 0 0 0-.134.134v.298a.135.135 0 0 0 .084.125c.017.007.035.01.052.01zm2.764 0h2.22a.135.135 0 0 0 .134-.135v-.298a.134.134 0 0 0-.134-.134h-2.22a.135.135 0 0 0-.135.134v.298a.134.134 0 0 0 .134.135h.001zM34.91 22.872h-.012a.134.134 0 0 0-.134.134v.291a.134.134 0 0 1-.135.135h-.555a.134.134 0 0 1-.135-.135v-.29a.134.134 0 0 0-.134-.135H32.69a.134.134 0 0 0-.134.134v.575a.134.134 0 0 0 .134.134h.56a.134.134 0 0 0 .134-.134v-.015a.135.135 0 0 0-.134-.134h-.284a.134.134 0 0 1-.134-.135v-.014a.134.134 0 0 1 .134-.135h.56a.134.134 0 0 1 .134.135v.298a.134.134 0 0 0 .135.134h1.111a.134.134 0 0 0 .135-.134v-.575a.135.135 0 0 0-.132-.134zm-.55 0h-.007a.134.134 0 0 0-.134.134v.008a.135.135 0 0 0 .134.134h.008a.134.134 0 0 0 .134-.134v-.008a.135.135 0 0 0-.138-.134h.004zm.55 1.126h-3.324a.134.134 0 0 0-.135.134v.015a.135.135 0 0 0 .135.134h3.323a.134.134 0 0 0 .135-.134v-.019a.135.135 0 0 0-.135-.13zm-3.324-1.126h.563a.135.135 0 0 1 .134.134v.575a.134.134 0 0 1-.134.134h-.836a.134.134 0 0 0-.134.134v.299a.134.134 0 0 1-.134.134h-.012a.134.134 0 0 1-.134-.134v-.864a.135.135 0 0 0-.134-.135h-.011a.134.134 0 0 0-.135.135v.864a.134.134 0 0 1-.134.134.134.134 0 0 1-.134-.134v-.864a.134.134 0 0 0-.135-.135h-.01a.134.134 0 0 0-.135.135v.864a.134.134 0 0 1-.135.134h-.007a.135.135 0 0 1-.134-.134v-1.14a.134.134 0 0 1 .134-.135h1.116a.134.134 0 0 1 .134.134v.291a.134.134 0 0 0 .134.135h.556a.134.134 0 0 0 .135-.135v-.014a.135.135 0 0 0-.135-.135h-.283a.134.134 0 0 1-.135-.134v-.008a.135.135 0 0 1 .135-.135zM29.381 22.872h-.007a.135.135 0 0 0-.134.134v.291a.134.134 0 0 1-.135.135h-.56a.134.134 0 0 1-.134-.135v-.29a.134.134 0 0 0-.134-.135h-1.115a.134.134 0 0 0-.135.134v.575a.134.134 0 0 0 .135.134h.56a.134.134 0 0 0 .133-.134v-.015a.134.134 0 0 0-.134-.134h-.283a.134.134 0 0 1-.135-.135v-.014a.134.134 0 0 1 .135-.135H28a.134.134 0 0 1 .134.135v.298a.134.134 0 0 0 .135.134h1.111a.134.134 0 0 0 .135-.134v-.575a.134.134 0 0 0-.134-.134zm-.548 0h-.007a.134.134 0 0 0-.135.134v.008a.135.135 0 0 0 .135.134h.007a.134.134 0 0 0 .134-.134v-.008a.135.135 0 0 0-.138-.134h.004zm.549 1.126h-3.328a.134.134 0 0 0-.134.134v.015a.135.135 0 0 0 .134.134h3.328a.134.134 0 0 0 .134-.134v-.019a.135.135 0 0 0-.134-.13zm-3.328-1.126h.564a.134.134 0 0 1 .134.134v.575a.134.134 0 0 1-.134.134h-.832a.134.134 0 0 0-.135.134v.299a.134.134 0 0 1-.134.134h-.008a.135.135 0 0 1-.134-.134v-.864a.135.135 0 0 0-.134-.135h-.011a.134.134 0 0 0-.135.135v.864a.134.134 0 0 1-.134.134h-.011a.134.134 0 0 1-.134-.134v-.864a.134.134 0 0 0-.135-.135.134.134 0 0 0-.134.135v.864a.134.134 0 0 1-.135.134h-.007a.134.134 0 0 1-.134-.134v-1.14a.134.134 0 0 1 .134-.135h1.115a.135.135 0 0 1 .135.134v.291a.134.134 0 0 0 .134.135h.56a.134.134 0 0 0 .134-.135v-.014a.135.135 0 0 0-.134-.135h-.287a.134.134 0 0 1-.135-.134v-.008a.135.135 0 0 1 .127-.135zM23.854 22.872h-.008a.134.134 0 0 0-.134.134v.291a.134.134 0 0 1-.134.135h-.56a.134.134 0 0 1-.134-.135v-.29a.134.134 0 0 0-.135-.135h-1.115a.135.135 0 0 0-.135.134v.575a.134.134 0 0 0 .135.134h.563a.134.134 0 0 0 .134-.134v-.015a.135.135 0 0 0-.134-.134h-.284a.134.134 0 0 1-.134-.135v-.014a.134.134 0 0 1 .134-.135h.56a.134.134 0 0 1 .135.135v.298a.134.134 0 0 0 .134.134h1.112a.134.134 0 0 0 .134-.134v-.575a.134.134 0 0 0-.134-.134zm-.549 0h-.007a.135.135 0 0 0-.135.134v.008a.134.134 0 0 0 .135.134h.007a.134.134 0 0 0 .134-.134v-.008a.135.135 0 0 0-.138-.134h.004zm.549 1.126h-3.327a.135.135 0 0 0-.135.134v.015a.134.134 0 0 0 .135.134h3.323a.134.134 0 0 0 .134-.134v-.019a.135.135 0 0 0-.13-.13zm-3.327-1.126h.563a.134.134 0 0 1 .134.134v.575a.134.134 0 0 1-.134.134h-.838a.134.134 0 0 0-.134.134v.299a.134.134 0 0 1-.134.134h-.006a.135.135 0 0 1-.134-.134v-.864a.135.135 0 0 0-.135-.135.134.134 0 0 0-.134.135v.864a.134.134 0 0 1-.135.134h-.01a.134.134 0 0 1-.135-.134v-.864a.134.134 0 0 0-.134-.135h-.008a.134.134 0 0 0-.134.135v.864a.134.134 0 0 1-.134.134h-.008a.135.135 0 0 1-.134-.134v-1.14a.134.134 0 0 1 .134-.135h1.101a.134.134 0 0 1 .134.134v.291a.134.134 0 0 0 .135.135h.563a.134.134 0 0 0 .134-.135v-.014a.135.135 0 0 0-.134-.135h-.283a.135.135 0 0 1-.135-.134v-.008a.133.133 0 0 1 .083-.125.135.135 0 0 1 .052-.01zM18.326 22.872h-.008a.134.134 0 0 0-.134.134v.291a.134.134 0 0 1-.135.135h-.559a.135.135 0 0 1-.134-.135v-.29a.135.135 0 0 0-.135-.135h-1.115a.134.134 0 0 0-.135.134v.575a.134.134 0 0 0 .135.134h.563a.134.134 0 0 0 .134-.134v-.015a.134.134 0 0 0-.134-.134h-.287a.134.134 0 0 1-.135-.135v-.014a.134.134 0 0 1 .135-.135h.56a.135.135 0 0 1 .134.135v.298a.134.134 0 0 0 .134.134h1.116a.134.134 0 0 0 .134-.134v-.575a.133.133 0 0 0-.083-.124.136.136 0 0 0-.051-.01zm-.556 0a.134.134 0 0 0-.135.134v.008a.134.134 0 0 0 .135.134.134.134 0 0 0 .134-.134v-.008a.135.135 0 0 0-.134-.134zm.556 1.126h-3.327a.134.134 0 0 0-.135.134v.015a.134.134 0 0 0 .135.134h3.327a.135.135 0 0 0 .134-.134v-.019a.134.134 0 0 0-.134-.13zm-3.327-1.126h.563a.134.134 0 0 1 .134.134v.575a.134.134 0 0 1-.134.134h-.84a.134.134 0 0 0-.134.134v.299a.135.135 0 0 1-.134.134h-.01a.135.135 0 0 1-.135-.134v-.864a.134.134 0 0 0-.134-.135h-.006a.134.134 0 0 0-.134.134v.864a.135.135 0 0 1-.135.135h-.005a.134.134 0 0 1-.134-.134v-.864a.134.134 0 0 0-.135-.135h-.005a.134.134 0 0 0-.135.134v.864a.135.135 0 0 1-.134.135h-.006a.134.134 0 0 1-.134-.134v-1.14a.134.134 0 0 1 .134-.135h1.112a.134.134 0 0 1 .135.134v.291a.135.135 0 0 0 .134.135h.563a.135.135 0 0 0 .135-.135v-.014a.134.134 0 0 0-.135-.135h-.287a.134.134 0 0 1-.134-.134v-.008a.135.135 0 0 1 .13-.135zM12.798 22.872h-.007a.134.134 0 0 0-.134.134v.291a.134.134 0 0 1-.135.135h-.56a.134.134 0 0 1-.134-.135v-.29a.135.135 0 0 0-.134-.135h-1.116a.134.134 0 0 0-.134.134v.575a.134.134 0 0 0 .134.134h.56a.134.134 0 0 0 .134-.134v-.015a.134.134 0 0 0-.134-.134h-.28a.134.134 0 0 1-.134-.135v-.014a.134.134 0 0 1 .134-.135h.556a.135.135 0 0 1 .135.135v.298a.134.134 0 0 0 .134.134h1.115a.134.134 0 0 0 .135-.134v-.575a.134.134 0 0 0-.135-.134zm-.556 0a.134.134 0 0 0-.134.134v.008a.134.134 0 0 0 .134.134.134.134 0 0 0 .135-.134v-.008a.134.134 0 0 0-.134-.134zm.556 1.126H9.471a.134.134 0 0 0-.134.134v.015a.134.134 0 0 0 .134.134h3.327a.134.134 0 0 0 .135-.134v-.019a.134.134 0 0 0-.135-.13zm-3.327-1.126h.56a.134.134 0 0 1 .134.134v.575a.134.134 0 0 1-.134.134h-.836a.134.134 0 0 0-.134.134v.299a.135.135 0 0 1-.135.134H8.92a.134.134 0 0 1-.134-.134v-.864a.134.134 0 0 0-.135-.135h-.007a.134.134 0 0 0-.134.134v.864a.135.135 0 0 1-.135.135h-.01a.134.134 0 0 1-.135-.134v-.864a.134.134 0 0 0-.135-.135H8.09a.134.134 0 0 0-.135.134v.864a.135.135 0 0 1-.134.135h-.005a.134.134 0 0 1-.135-.134v-1.14a.134.134 0 0 1 .135-.135h1.111a.134.134 0 0 1 .135.134v.291a.134.134 0 0 0 .134.135h.563a.134.134 0 0 0 .135-.135v-.014a.134.134 0 0 0-.135-.135h-.287a.134.134 0 0 1-.134-.134v-.008a.134.134 0 0 1 .134-.135zM7.27 22.872h-.007a.134.134 0 0 0-.134.134v.291a.134.134 0 0 1-.135.135h-.563a.134.134 0 0 1-.134-.135v-.29a.134.134 0 0 0-.135-.135H5.051a.134.134 0 0 0-.135.134v.575a.134.134 0 0 0 .135.134h.56a.134.134 0 0 0 .134-.134v-.015a.134.134 0 0 0-.135-.134h-.287a.134.134 0 0 1-.134-.135v-.014a.134.134 0 0 1 .134-.135h.567a.134.134 0 0 1 .134.135v.298a.134.134 0 0 0 .135.134H7.27a.134.134 0 0 0 .134-.134v-.575a.134.134 0 0 0-.134-.134zm-.548 0h-.011a.134.134 0 0 0-.134.134v.008a.134.134 0 0 0 .134.134h.011a.134.134 0 0 0 .134-.134v-.008a.134.134 0 0 0-.137-.134h.003zm.549 1.126H3.943a.134.134 0 0 0-.134.134v.015a.134.134 0 0 0 .134.134h3.328a.134.134 0 0 0 .134-.134v-.019a.134.134 0 0 0-.134-.13zm-3.328-1.126h.56a.134.134 0 0 1 .134.134v.575a.134.134 0 0 1-.134.134h-.836a.134.134 0 0 0-.134.134v.299a.135.135 0 0 1-.134.134H3.39a.134.134 0 0 1-.134-.134v-.864a.134.134 0 0 0-.135-.135h-.007a.134.134 0 0 0-.134.134v.864a.134.134 0 0 1-.135.135H2.84a.134.134 0 0 1-.134-.134v-.864a.134.134 0 0 0-.135-.135h-.013a.134.134 0 0 0-.135.134v.864a.134.134 0 0 1-.134.135.134.134 0 0 1-.135-.134v-1.14a.134.134 0 0 1 .135-.135h1.111a.134.134 0 0 1 .135.134v.291a.134.134 0 0 0 .134.135h.556a.134.134 0 0 0 .135-.135v-.014a.134.134 0 0 0-.135-.135h-.28a.135.135 0 0 1-.124-.083.134.134 0 0 1-.01-.051v-.008a.135.135 0 0 1 .133-.135zM1.74 22.872a.134.134 0 0 0-.134.134v.291a.134.134 0 0 1-.135.135h-.56a.134.134 0 0 1-.134-.135v-.29a.134.134 0 0 0-.134-.135h-1.12a.134.134 0 0 0-.135.134v.575a.134.134 0 0 0 .134.134h.556a.134.134 0 0 0 .134-.134v-.015a.134.134 0 0 0-.134-.134h-.282a.134.134 0 0 1-.134-.135v-.014a.134.134 0 0 1 .134-.135H.36a.134.134 0 0 1 .134.135v.298a.134.134 0 0 0 .134.134H1.74a.134.134 0 0 0 .135-.134v-.575a.134.134 0 0 0-.135-.134zm-.548 0h-.008a.134.134 0 0 0-.134.134v.008a.134.134 0 0 0 .134.134h.008a.134.134 0 0 0 .134-.134v-.008a.135.135 0 0 0-.137-.134h.003zm.548 1.126h-3.33a.134.134 0 0 0-.134.134v.015a.134.134 0 0 0 .134.134h3.331a.134.134 0 0 0 .134-.134v-.019a.135.135 0 0 0-.135-.13zm-3.33-1.126h.566a.134.134 0 0 1 .135.134v.575a.134.134 0 0 1-.135.134h-.835a.134.134 0 0 0-.135.134v.299a.134.134 0 0 1-.134.134h-.011a.134.134 0 0 1-.135-.134v-.864a.134.134 0 0 0-.134-.135h-.007a.134.134 0 0 0-.135.134v.864a.134.134 0 0 1-.134.135.134.134 0 0 1-.134-.134v-.864a.134.134 0 0 0-.135-.135h-.01a.134.134 0 0 0-.135.134v.864a.134.134 0 0 1-.135.135h-.007a.134.134 0 0 1-.134-.134v-1.14a.134.134 0 0 1 .134-.135h1.116a.134.134 0 0 1 .135.134v.291a.134.134 0 0 0 .134.135h.554a.134.134 0 0 0 .135-.135v-.014a.134.134 0 0 0-.135-.135h-.29a.134.134 0 0 1-.135-.134v-.008a.134.134 0 0 1 .136-.135zM34.909 22.017h-2.216a.134.134 0 0 0-.135.134v.298a.134.134 0 0 0 .135.134h2.216a.134.134 0 0 0 .134-.134v-.298a.134.134 0 0 0-.134-.134zm-2.76 0h-2.223a.135.135 0 0 0-.134.134v.298a.135.135 0 0 0 .134.134h2.223a.134.134 0 0 0 .134-.134v-.298a.134.134 0 0 0-.134-.134zM29.381 22.017h-2.218a.135.135 0 0 0-.135.134v.298a.134.134 0 0 0 .135.134h2.218a.135.135 0 0 0 .135-.134v-.298a.134.134 0 0 0-.134-.134zm-2.763 0h-2.22a.134.134 0 0 0-.134.134v.298a.134.134 0 0 0 .135.134h2.219a.134.134 0 0 0 .134-.134v-.298a.134.134 0 0 0-.134-.134zM23.854 22.017h-2.22a.134.134 0 0 0-.134.134v.298a.135.135 0 0 0 .135.134h2.219a.134.134 0 0 0 .134-.134v-.298a.134.134 0 0 0-.134-.134zm-2.76 0H18.87a.134.134 0 0 0-.135.134v.298a.135.135 0 0 0 .135.134h2.222a.134.134 0 0 0 .135-.134v-.298a.134.134 0 0 0-.135-.134zM18.326 22.017h-2.22a.134.134 0 0 0-.135.134v.298a.134.134 0 0 0 .135.134h2.22a.134.134 0 0 0 .134-.134v-.298a.135.135 0 0 0-.134-.134zm-2.764 0h-2.216a.134.134 0 0 0-.134.134v.298a.135.135 0 0 0 .134.134h2.22a.134.134 0 0 0 .135-.134v-.298a.135.135 0 0 0-.14-.134zM12.798 22.017h-2.22a.135.135 0 0 0-.134.134v.298a.134.134 0 0 0 .134.134h2.22a.134.134 0 0 0 .135-.134v-.298a.134.134 0 0 0-.135-.134zm-2.767 0H7.815a.134.134 0 0 0-.135.134v.298a.134.134 0 0 0 .135.134h2.216a.134.134 0 0 0 .134-.134v-.298a.135.135 0 0 0-.083-.124.135.135 0 0 0-.051-.01zM7.272 22.017h-2.22a.134.134 0 0 0-.135.134v.298a.134.134 0 0 0 .135.134h2.22a.134.134 0 0 0 .134-.134v-.298a.134.134 0 0 0-.134-.134zm-2.768 0H2.289a.134.134 0 0 0-.135.134v.298a.134.134 0 0 0 .135.134h2.215a.134.134 0 0 0 .134-.134v-.298a.134.134 0 0 0-.134-.134zM1.74 22.017H-.478a.134.134 0 0 0-.135.134v.298a.134.134 0 0 0 .135.134h2.216a.134.134 0 0 0 .135-.134v-.298a.135.135 0 0 0-.133-.134zm-2.764 0h-2.219a.134.134 0 0 0-.134.134v.298a.134.134 0 0 0 .134.134h2.216a.134.134 0 0 0 .135-.134v-.298a.134.134 0 0 0-.135-.134h.003z" fill="#F5F5F5"/>
        <path d="M16.7 20.748a4.603 4.603 0 0 0 .988-7.385.055.055 0 0 0-.083.07 5.005 5.005 0 0 1-1.256 6.6l.099-6.319a.278.278 0 0 0-.103-.22l-.336-.275a.279.279 0 0 0-.352 0l-.33.274a.274.274 0 0 0-.103.22l.091 6.323a5.011 5.011 0 0 1-1.259-6.602.055.055 0 0 0-.047-.083.054.054 0 0 0-.036.013 4.6 4.6 0 0 0 .988 7.384 5.1 5.1 0 0 1-1.798.285.055.055 0 0 0-.016.108c.759.23 1.564.259 2.336.084l.297.574a.055.055 0 0 0 .049.03.055.055 0 0 0 .048-.03l.298-.574a4.583 4.583 0 0 0 2.337-.084.055.055 0 0 0-.015-.108 5.108 5.108 0 0 1-1.798-.285z" fill="#FF4B55"/>
        <path d="M20.391 14.874a3.916 3.916 0 0 0-2.153-1.847.056.056 0 0 0-.056.092 4.993 4.993 0 0 1 .613 7.111 3.95 3.95 0 0 0 1.596-5.356zM12.62 19.916a4.993 4.993 0 0 1 .862-6.794.056.056 0 0 0 .007-.067.056.056 0 0 0-.063-.025 3.957 3.957 0 0 0-.548 7.206c-.094-.1-.18-.208-.258-.32z" fill="#FF4B55"/>
    </g>
    <defs>
        <clipPath id="a">
            <rect y=".691" width="32" height="32" rx="16" fill="#fff"/>
        </clipPath>
    </defs>
</svg>
