<svg width="222" height="128" viewBox="0 0 222 128" fill="none" xmlns="http://www.w3.org/2000/svg">
    <path d="M3.598 116.347c.43 0 .765-.088 1.008-.266.242-.177.364-.401.364-.672v-1.75H3.71c-.448 0-.78.14-.994.42-.215.28-.322.649-.322 1.106 0 .43.098.733.294.91.196.168.5.252.91.252zm2.478-.686c0 .355.07.64.21.854.15.215.401.322.756.322h.28c.112 0 .186.052.224.154.046.094.07.243.07.448 0 .215-.024.374-.07.476-.038.103-.112.154-.224.154h-.28c-.448 0-.826-.084-1.134-.252-.299-.177-.518-.49-.658-.938-.112.14-.248.252-.406.336-.15.084-.308.15-.476.196a3.07 3.07 0 0 1-.518.098c-.178.019-.34.028-.49.028-.672 0-1.186-.186-1.54-.56-.355-.373-.532-.938-.532-1.694 0-.345.046-.681.14-1.008a2.89 2.89 0 0 1 .448-.896c.196-.261.438-.471.728-.63a2.183 2.183 0 0 1 1.036-.238h1.33v-.952h1.106v4.102zm1.811 1.176c.738 0 1.106-.34 1.106-1.022v-1.792h1.148v1.792c0 .187.033.346.098.476.066.131.15.238.252.322.103.075.22.131.35.168.14.038.28.056.42.056.803 0 1.204-.34 1.204-1.022v-1.792h1.148v1.792c0 .383.098.649.294.798.206.15.444.224.714.224.327 0 .58-.088.756-.266.187-.177.28-.429.28-.756v-1.792h1.148v1.792c0 .187.028.346.084.476.066.131.15.238.252.322.103.075.22.131.35.168.131.038.262.056.392.056h.294c.206 0 .308.201.308.602 0 .42-.102.63-.308.63h-.294a2.53 2.53 0 0 1-.966-.182c-.289-.121-.532-.359-.728-.714-.214.355-.466.593-.756.714-.28.122-.55.182-.812.182-.326 0-.63-.06-.91-.182-.28-.121-.518-.359-.714-.714-.214.355-.476.593-.784.714a2.562 2.562 0 0 1-.952.182c-.354 0-.686-.06-.994-.182-.298-.121-.546-.359-.742-.714-.214.355-.466.593-.756.714-.289.122-.597.182-.924.182h-.518c-.12 0-.2-.046-.238-.14-.046-.102-.07-.252-.07-.448 0-.224.024-.387.07-.49.038-.102.117-.154.238-.154h.56zm5.796-6.342h-1.288v-1.162h1.288v1.162zm.924 1.806h-1.274v-1.176h1.274v1.176zm-1.876 0h-1.274v-1.176h1.274v1.176zm6.474 4.536c.728 0 1.092-.34 1.092-1.022v-1.792h1.148v1.792c0 .187.028.346.084.476.065.131.15.238.252.322.103.075.22.131.35.168.14.038.28.056.42.056h.392c.214 0 .322.201.322.602 0 .42-.108.63-.322.63h-.434c-.336 0-.654-.06-.952-.182-.29-.121-.532-.359-.728-.714-.215.355-.462.593-.742.714a2.12 2.12 0 0 1-.882.182h-1.022c-.122 0-.2-.046-.238-.14-.047-.102-.07-.252-.07-.448 0-.224.023-.387.07-.49.037-.102.116-.154.238-.154h1.022zm2.898 4.004H20.87v-1.176h1.232v1.176zm-1.904 0h-1.246v-1.176h1.246v1.176zm2.924-4.004c.709 0 1.064-.298 1.064-.896v-.434c0-.793.205-1.418.616-1.876.42-.466.998-.7 1.736-.7.382 0 .718.066 1.008.196a2.01 2.01 0 0 1 1.162 1.302c.102.308.154.644.154 1.008v.364c0 .392.098.663.294.812.205.15.443.224.714.224h.224c.121 0 .2.052.238.154.046.094.07.243.07.448 0 .215-.024.374-.07.476-.038.103-.117.154-.238.154h-.224c-.14 0-.285-.014-.434-.042a1.584 1.584 0 0 1-.406-.14 1.757 1.757 0 0 1-.378-.294 1.851 1.851 0 0 1-.322-.504c-.252.402-.542.668-.868.798a2.858 2.858 0 0 1-1.008.182c-.374 0-.724-.07-1.05-.21a1.638 1.638 0 0 1-.77-.742c-.084.196-.187.36-.308.49-.122.122-.248.22-.378.294-.131.066-.271.112-.42.14-.14.019-.276.028-.406.028h-.182c-.122 0-.201-.046-.238-.14-.047-.102-.07-.252-.07-.448 0-.224.023-.387.07-.49.037-.102.116-.154.238-.154h.182zm4.62-1.274c0-.41-.094-.746-.28-1.008-.178-.261-.495-.392-.952-.392-.42 0-.733.126-.938.378-.196.252-.294.607-.294 1.064 0 .411.112.719.336.924.233.206.527.308.882.308.42 0 .732-.107.938-.322.205-.224.308-.541.308-.952zm5.89-1.848c-.392 0-.71.131-.952.392-.233.252-.35.565-.35.938 0 .196.037.378.112.546.084.168.191.322.322.462.14.131.29.252.448.364.168.103.336.196.504.28.14-.084.28-.177.42-.28.15-.112.28-.233.392-.364.121-.13.22-.275.294-.434a1.33 1.33 0 0 0 .112-.546c0-.401-.121-.728-.364-.98-.233-.252-.546-.378-.938-.378zm-3.542 4.354c-.121 0-.2-.046-.238-.14-.047-.102-.07-.252-.07-.448 0-.224.023-.387.07-.49.037-.102.117-.154.238-.154h2.366a3.28 3.28 0 0 1-.868-.854 1.967 1.967 0 0 1-.322-1.106c0-.308.056-.602.168-.882.112-.289.27-.541.476-.756.215-.214.476-.387.784-.518a2.64 2.64 0 0 1 1.036-.196c.383 0 .714.066.994.196a2.058 2.058 0 0 1 1.134 1.246c.093.271.14.546.14.826 0 .42-.093.798-.28 1.134-.177.327-.448.63-.812.91h2.24c.299 0 .527-.065.686-.196a.678.678 0 0 0 .238-.532c0-.224-.112-.476-.336-.756l-2.45-2.898.854-.798 2.478 2.954c.261.318.443.612.546.882.103.271.154.537.154.798 0 .252-.047.486-.14.7a1.592 1.592 0 0 1-.406.56 1.8 1.8 0 0 1-.644.378 2.64 2.64 0 0 1-.896.14h-1.54c-.43 0-.812-.014-1.148-.042-.327-.028-.588-.093-.784-.196a2.38 2.38 0 0 1-.49.14 9.634 9.634 0 0 1-.588.07l-.588.028h-2.002zm17.017 2.17c.382 0 .732-.046 1.05-.14.317-.084.592-.205.826-.364.233-.149.41-.331.532-.546a1.25 1.25 0 0 0 .196-.686.86.86 0 0 0-.182-.56c-.122-.149-.355-.224-.7-.224h-2.422v-2.534c0-.354.051-.681.154-.98.112-.298.27-.555.476-.77.205-.214.452-.382.742-.504.298-.121.63-.182.994-.182h1.61l.07 1.232h-1.722c-.318 0-.593.103-.826.308-.234.196-.35.495-.35.896v1.316h1.484c.354 0 .648.047.882.14.233.084.415.206.546.364.14.159.238.35.294.574.056.215.084.453.084.714 0 .448-.094.864-.28 1.246a3.064 3.064 0 0 1-.77.994c-.318.29-.696.514-1.134.672-.43.168-.896.252-1.4.252h-1.204c-1.046 0-1.858-.322-2.436-.966-.579-.644-.868-1.526-.868-2.646v-2.478h1.134v2.436c0 .728.182 1.316.546 1.764.364.448.961.672 1.792.672h.882zm5.359-10.85h1.148v8.68h-1.148v-8.68zM57 117.845c0 .523-.084 1.004-.252 1.442a3.384 3.384 0 0 1-.7 1.148c-.29.327-.64.579-1.05.756-.401.178-.84.266-1.316.266h-.854l-.07-1.218h.644c.448 0 .83-.07 1.148-.21.308-.13.56-.308.756-.532.205-.224.355-.48.448-.77.093-.28.14-.574.14-.882v-3.822h1.148v1.834c0 .308.098.551.294.728.205.168.471.252.798.252h.154c.205 0 .308.201.308.602 0 .42-.103.63-.308.63h-.154c-.205 0-.41-.037-.616-.112a1.084 1.084 0 0 1-.518-.406v.294zm2.556-1.008c.337 0 .598-.088.785-.266.195-.177.294-.429.294-.756v-1.792h1.148v1.848c0 .71-.192 1.256-.575 1.638-.373.374-.895.56-1.567.56h-1.358c-.122 0-.201-.046-.239-.14-.046-.102-.07-.252-.07-.448 0-.224.024-.387.07-.49.038-.102.117-.154.239-.154h1.273zm.645 4.032h-1.373v-1.204H60.2v1.204zm13.82-2.8c-.206 0-.411-.037-.617-.112a1.084 1.084 0 0 1-.517-.406v.252c0 .504-.08.976-.239 1.414a3.356 3.356 0 0 1-.685 1.162c-.29.336-.65.598-1.078.784-.42.196-.897.294-1.428.294h-.854c-1.046 0-1.858-.322-2.436-.966-.58-.644-.868-1.526-.868-2.646v-2.478h1.133v2.436c0 .728.183 1.316.546 1.764.365.448.962.672 1.793.672h.615c.42 0 .78-.065 1.079-.196.307-.13.56-.308.755-.532.197-.224.341-.485.434-.784a3.12 3.12 0 0 0 .14-.938v-3.766h1.135v1.834c0 .308.102.551.308.728.205.168.466.252.784.252h.153c.215 0 .322.201.322.602 0 .42-.107.63-.322.63h-.154zm-4.424-4.312h-1.372v-1.204h1.372v1.204zm5.594 3.08c.728 0 1.092-.34 1.092-1.022v-1.792h1.148v1.792c0 .187.028.346.084.476.066.131.15.238.252.322.103.075.22.131.35.168.14.038.28.056.42.056h.392c.215 0 .322.201.322.602 0 .42-.107.63-.322.63h-.434c-.336 0-.653-.06-.952-.182-.29-.121-.532-.359-.728-.714-.215.355-.462.593-.742.714a2.12 2.12 0 0 1-.882.182H74.17c-.121 0-.2-.046-.238-.14-.046-.102-.07-.252-.07-.448 0-.224.023-.387.07-.49.038-.102.117-.154.238-.154h1.022zm2.786-4.984-2.618 1.316-.308-.644.91-.448a1.023 1.023 0 0 1-.574-.462 1.405 1.405 0 0 1-.168-.658c0-.392.126-.709.378-.952.252-.242.574-.364.966-.364h.658l-.07.728h-.462c-.233 0-.415.066-.546.196a.628.628 0 0 0-.182.462c0 .187.066.341.196.462.13.112.28.168.448.168.121 0 .27-.037.448-.112.187-.084.397-.191.63-.322l.294.63zm1.132 4.984c.71 0 1.064-.298 1.064-.896v-.434c0-.793.205-1.418.616-1.876.42-.466.999-.7 1.736-.7.383 0 .719.066 1.008.196a2.008 2.008 0 0 1 1.162 1.302c.103.308.154.644.154 1.008v.364c0 .392.098.663.294.812.205.15.443.224.714.224h.224c.121 0 .2.052.238.154.047.094.07.243.07.448 0 .215-.023.374-.07.476-.037.103-.117.154-.238.154h-.224c-.14 0-.285-.014-.434-.042a1.585 1.585 0 0 1-.406-.14 1.757 1.757 0 0 1-.378-.294 1.853 1.853 0 0 1-.322-.504c-.252.402-.541.668-.868.798a2.858 2.858 0 0 1-1.008.182c-.373 0-.723-.07-1.05-.21a1.639 1.639 0 0 1-.77-.742c-.084.196-.187.36-.308.49-.121.122-.247.22-.378.294-.13.066-.27.112-.42.14-.14.019-.275.028-.406.028h-.182c-.121 0-.2-.046-.238-.14-.047-.102-.07-.252-.07-.448 0-.224.023-.387.07-.49.037-.102.117-.154.238-.154h.182zm4.62-1.274c0-.41-.093-.746-.28-1.008-.177-.261-.495-.392-.952-.392-.42 0-.733.126-.938.378-.196.252-.294.607-.294 1.064 0 .411.112.719.336.924.233.206.527.308.882.308.42 0 .733-.107.938-.322.205-.224.308-.541.308-.952zm3.636-6.174h1.148v4.088c0 .308-.004.607-.014.896 0 .29-.009.584-.028.882.514-.793 1-1.381 1.456-1.764.458-.382.92-.606 1.386-.672.224-.028.44-.018.644.028.308.047.588.145.84.294.252.15.462.341.63.574.178.234.313.504.406.812.103.299.154.616.154.952 0 .383-.084.728-.252 1.036.178.15.364.243.56.28.206.028.43.042.672.042h.196c.206 0 .308.201.308.602 0 .42-.102.63-.308.63h-.196c-.27 0-.555-.023-.854-.07-.298-.056-.597-.238-.896-.546a2.528 2.528 0 0 1-.756.448c-.28.112-.606.168-.98.168h-5.404c-.12 0-.2-.046-.238-.14-.046-.102-.07-.252-.07-.448 0-.224.024-.387.07-.49.038-.102.117-.154.238-.154h1.288v-7.448zm5.474 6.09a1.61 1.61 0 0 0-.098-.56 1.327 1.327 0 0 0-.714-.77 1.15 1.15 0 0 0-.546-.126c-.214 0-.429.052-.644.154-.205.103-.429.266-.672.49a7.133 7.133 0 0 0-.756.882c-.27.355-.574.784-.91 1.288h3.024c.355 0 .663-.107.924-.322.262-.224.392-.569.392-1.036zm2.512 1.358c.71 0 1.064-.298 1.064-.896v-.434c0-.793.206-1.418.616-1.876.42-.466.999-.7 1.736-.7.383 0 .719.066 1.008.196.29.122.532.294.728.518.196.224.341.495.434.812.103.308.154.649.154 1.022 0 .822-.21 1.461-.63 1.918-.42.448-.998.672-1.736.672-.373 0-.732-.07-1.078-.21a1.626 1.626 0 0 1-.784-.742c-.084.196-.186.36-.308.49-.121.122-.247.22-.378.294-.13.066-.27.112-.42.14-.14.019-.275.028-.406.028h-.182c-.121 0-.2-.046-.238-.14-.046-.102-.07-.252-.07-.448 0-.224.023-.387.07-.49.038-.102.117-.154.238-.154h.182zm4.62-1.274c0-.41-.093-.746-.28-1.008-.177-.261-.495-.392-.952-.392-.42 0-.733.126-.938.378-.196.252-.294.607-.294 1.064 0 .411.112.719.336.924.233.206.528.308.882.308.42 0 .733-.107.938-.322.206-.224.308-.541.308-.952zm9.213 4.676c.438 0 .807-.037 1.106-.112.308-.074.555-.177.742-.308.186-.13.317-.284.392-.462.084-.168.126-.345.126-.532a.864.864 0 0 0-.168-.532c-.103-.149-.29-.224-.56-.224h-2.184l.07-1.232h4.928c.205 0 .308.201.308.602 0 .42-.103.63-.308.63h-1.302a.72.72 0 0 1 .238.378c.046.15.07.322.07.518 0 .252-.056.523-.168.812-.112.29-.299.556-.56.798-.252.252-.588.462-1.008.63-.42.168-.943.252-1.568.252h-1.442c-1.046 0-1.858-.322-2.436-.966-.579-.644-.868-1.526-.868-2.646v-2.478h1.134v2.436c0 .728.182 1.316.546 1.764.364.448.961.672 1.792.672h1.12zm5.478-3.402c.728 0 1.092-.34 1.092-1.022v-1.792h1.148v1.792c0 .187.028.346.084.476a.957.957 0 0 0 .252.322c.103.075.219.131.35.168.14.038.28.056.42.056h.392c.215 0 .322.201.322.602 0 .42-.107.63-.322.63h-.434c-.336 0-.653-.06-.952-.182-.289-.121-.532-.359-.728-.714-.215.355-.462.593-.742.714a2.123 2.123 0 0 1-.882.182h-1.022c-.121 0-.201-.046-.238-.14-.047-.102-.07-.252-.07-.448 0-.224.023-.387.07-.49.037-.102.117-.154.238-.154h1.022zm3.066-4.536h-1.274v-1.176h1.274v1.176zm-1.876 0h-1.274v-1.176h1.274v1.176zm6.578 4.956c-.243.15-.481.276-.714.378a4.47 4.47 0 0 1-.756.252 5.568 5.568 0 0 1-.868.14c-.318.028-.682.042-1.092.042h-.602c-.122 0-.201-.046-.238-.14-.047-.102-.07-.252-.07-.448 0-.224.023-.387.07-.49.037-.102.116-.154.238-.154h.644c.354 0 .667-.009.938-.028.28-.018.536-.051.77-.098.233-.046.452-.107.658-.182.205-.084.415-.186.63-.308l2.086-1.204a3.922 3.922 0 0 0-.224-.434 1.059 1.059 0 0 0-.266-.336 1.134 1.134 0 0 0-.406-.21 2.205 2.205 0 0 0-.602-.07h-3.052l.084-1.232h3.136c.252 0 .504.033.756.098.261.066.504.196.728.392.233.196.448.476.644.84s.359.845.49 1.442l-2.982 1.75zm.154-6.048h-1.372v-1.204h1.372v1.204zm4.408-1.82h1.148v8.68h-1.148v-8.68zm7.907 5.264c.243.28.42.56.532.84.112.271.168.537.168.798 0 .252-.046.486-.14.7a1.578 1.578 0 0 1-.406.56 1.794 1.794 0 0 1-.644.378c-.261.094-.56.14-.896.14h-3.836l-.07-1.232h3.738c.299 0 .528-.065.686-.196a.677.677 0 0 0 .238-.532c0-.242-.107-.48-.322-.714l-2.492-2.842.896-.84 2.548 2.94zm3.832 3.192c0 .523-.084 1.004-.252 1.442a3.395 3.395 0 0 1-.7 1.148c-.29.327-.64.579-1.05.756-.402.178-.84.266-1.316.266h-.854l-.07-1.218h.644c.448 0 .83-.07 1.148-.21.308-.13.56-.308.756-.532.205-.224.354-.48.448-.77.093-.28.14-.574.14-.882v-3.822h1.148v1.834c0 .308.098.551.294.728.205.168.471.252.798.252h.154c.205 0 .308.201.308.602 0 .42-.103.63-.308.63h-.154a1.78 1.78 0 0 1-.616-.112 1.08 1.08 0 0 1-.518-.406v.294zm2.556-1.008c.336 0 .597-.088.784-.266.196-.177.294-.429.294-.756v-1.792h1.148v1.848c0 .71-.191 1.256-.574 1.638-.373.374-.896.56-1.568.56h-1.358c-.121 0-.201-.046-.238-.14-.047-.102-.07-.252-.07-.448 0-.224.023-.387.07-.49.037-.102.117-.154.238-.154h1.274zm1.05 5.81h-1.288v-1.176h1.288v1.176zm.924-1.806h-1.274v-1.176h1.274v1.176zm-1.876 0h-1.274v-1.176h1.274v1.176zm6.61-2.772c-.271 0-.476-.074-.616-.224-.131-.149-.196-.387-.196-.714 0-.485.014-.877.042-1.176.037-.308.107-.55.21-.728a.92.92 0 0 1 .462-.392 3.46 3.46 0 0 1 .812-.196v.714a3.43 3.43 0 0 0-.42.112.429.429 0 0 0-.224.168.638.638 0 0 0-.098.266 5.835 5.835 0 0 0-.014.448c.28 0 .49.066.63.196.14.131.21.355.21.672 0 .57-.266.854-.798.854zm6.921 2.17c.439 0 .807-.037 1.106-.112.308-.074.555-.177.742-.308a1.07 1.07 0 0 0 .392-.462c.084-.168.126-.345.126-.532a.864.864 0 0 0-.168-.532c-.103-.149-.289-.224-.56-.224h-2.184l.07-1.232h4.928c.205 0 .308.201.308.602 0 .42-.103.63-.308.63h-1.302a.714.714 0 0 1 .238.378c.047.15.07.322.07.518 0 .252-.056.523-.168.812-.112.29-.299.556-.56.798-.252.252-.588.462-1.008.63-.42.168-.943.252-1.568.252h-1.442c-1.045 0-1.857-.322-2.436-.966-.579-.644-.868-1.526-.868-2.646v-2.478h1.134v2.436c0 .728.182 1.316.546 1.764.364.448.961.672 1.792.672h1.12zm5.73-3.402c.336 0 .598-.088.784-.266.196-.177.294-.429.294-.756v-1.792h1.148v1.848c0 .71-.191 1.256-.574 1.638-.373.374-.896.56-1.568.56h-1.358c-.121 0-.2-.046-.238-.14a1.132 1.132 0 0 1-.07-.448c0-.224.024-.387.07-.49.038-.102.117-.154.238-.154h1.274zm1.05 5.81h-1.288v-1.176h1.288v1.176zm.924-1.806h-1.274v-1.176h1.274v1.176zm-1.876 0h-1.274v-1.176h1.274v1.176zm14.366-2.772c-.205 0-.41-.037-.616-.112a1.086 1.086 0 0 1-.518-.406v.252c0 .504-.079.976-.238 1.414a3.342 3.342 0 0 1-.686 1.162 2.937 2.937 0 0 1-1.078.784c-.42.196-.896.294-1.428.294h-.854c-1.045 0-1.857-.322-2.436-.966-.578-.644-.868-1.526-.868-2.646v-2.478h1.134v2.436c0 .728.182 1.316.546 1.764.364.448.962.672 1.792.672h.616c.42 0 .78-.065 1.078-.196.308-.13.56-.308.756-.532a2.14 2.14 0 0 0 .434-.784 3.1 3.1 0 0 0 .14-.938v-3.766h1.134v1.834c0 .308.103.551.308.728.206.168.467.252.784.252h.154c.215 0 .322.201.322.602 0 .42-.107.63-.322.63h-.154zm-4.424-4.312h-1.372v-1.204h1.372v1.204zm5.847 3.08c.336 0 .597-.088.784-.266.196-.177.294-.429.294-.756v-1.792h1.148v1.848c0 .71-.191 1.256-.574 1.638-.373.374-.896.56-1.568.56h-1.358c-.121 0-.201-.046-.238-.14-.047-.102-.07-.252-.07-.448 0-.224.023-.387.07-.49.037-.102.117-.154.238-.154h1.274zm1.932 4.004h-1.232v-1.176h1.232v1.176zm-1.904 0h-1.246v-1.176h1.246v1.176zm4.994-.602c.382 0 .718-.06 1.008-.182.289-.112.527-.266.714-.462.196-.196.345-.424.448-.686.102-.261.163-.541.182-.84h-1.19c-.476 0-.868-.051-1.176-.154a1.661 1.661 0 0 1-.728-.448 1.682 1.682 0 0 1-.378-.714 4.35 4.35 0 0 1-.098-.966c0-.354.051-.69.154-1.008.102-.326.252-.611.448-.854.196-.242.438-.434.728-.574a2.29 2.29 0 0 1 1.036-.224c.308 0 .602.052.882.154.289.103.541.266.756.49.214.215.382.5.504.854.13.355.196.784.196 1.288v.924h1.246c.112 0 .186.052.224.154.046.094.07.243.07.448 0 .215-.024.374-.07.476-.038.103-.112.154-.224.154h-1.274a3.824 3.824 0 0 1-.28 1.302c-.159.411-.383.77-.672 1.078-.29.308-.64.551-1.05.728-.411.187-.868.28-1.372.28h-1.456l-.084-1.218h1.456zm-.126-4.522c0 .402.093.691.28.868.196.168.569.252 1.12.252h1.106v-.868c0-.588-.117-1.008-.35-1.26-.224-.261-.542-.392-.952-.392-.383 0-.682.126-.896.378-.206.243-.308.584-.308 1.022zm8.447 1.12c.346 0 .584-.07.714-.21a.728.728 0 0 0 .196-.518c0-.149-.028-.303-.084-.462-.046-.168-.177-.359-.392-.574l-2.856-2.842v-1.274l4.648-1.792.266 1.148-3.78 1.442 2.31 2.324c.224.234.406.444.546.63.15.187.266.369.35.546.084.168.14.336.168.504.038.168.056.341.056.518 0 .318-.051.588-.154.812a1.563 1.563 0 0 1-.42.56c-.177.14-.392.248-.644.322a3.029 3.029 0 0 1-.798.098h-3.71c-.121 0-.2-.046-.238-.14a1.132 1.132 0 0 1-.07-.448c0-.224.024-.387.07-.49.038-.102.117-.154.238-.154h3.584zm16.79-1.022c0 .383.103.649.308.798.206.15.439.224.7.224.327 0 .579-.088.756-.266.187-.177.28-.429.28-.756v-1.792h1.148v1.848c0 .71-.191 1.256-.574 1.638-.373.374-.896.56-1.568.56-.326 0-.634-.06-.924-.182-.289-.121-.532-.359-.728-.714-.214.355-.476.593-.784.714a2.383 2.383 0 0 1-.91.182c-.289 0-.532-.042-.728-.126a1.485 1.485 0 0 1-.49-.364v.266c0 .476-.079.934-.238 1.372a3.363 3.363 0 0 1-.686 1.148 3.089 3.089 0 0 1-1.078.798c-.42.196-.896.294-1.428.294h-.854c-1.045 0-1.857-.322-2.436-.966-.578-.644-.868-1.526-.868-2.646v-2.478h1.134v2.436c0 .728.182 1.316.546 1.764.364.448.962.672 1.792.672h.616c.42 0 .78-.065 1.078-.196.308-.13.56-.308.756-.532a2.14 2.14 0 0 0 .434-.784 3.1 3.1 0 0 0 .14-.938v-3.766h1.134v1.834c0 .308.103.551.308.728.215.168.49.252.826.252.803 0 1.204-.34 1.204-1.022v-1.792h1.134v1.792zm6.441 2.03c0 .523-.089 1.004-.266 1.442a3.395 3.395 0 0 1-.7 1.148 3.079 3.079 0 0 1-1.064.756 3.308 3.308 0 0 1-1.33.266h-.854l-.07-1.218h.644c.448 0 .83-.07 1.148-.21.308-.13.56-.308.756-.532.205-.224.354-.48.448-.77.093-.28.14-.574.14-.882v-3.822h1.148v3.822zm3.617.224a2.66 2.66 0 0 1-.728-.098 1.58 1.58 0 0 1-.616-.364 1.837 1.837 0 0 1-.406-.658c-.103-.28-.154-.625-.154-1.036v-6.524h1.148v6.272c0 .355.075.64.224.854.159.215.406.322.742.322h.28c.205 0 .308.201.308.602 0 .42-.103.63-.308.63h-.49zm1.768-1.232c.336 0 .597-.088.784-.266.196-.177.294-.429.294-.756v-1.792h1.148v1.848c0 .71-.191 1.256-.574 1.638-.373.374-.896.56-1.568.56h-1.358c-.121 0-.201-.046-.238-.14-.047-.102-.07-.252-.07-.448 0-.224.023-.387.07-.49.037-.102.117-.154.238-.154h1.274zm1.05 5.81h-1.288v-1.176h1.288v1.176zm.924-1.806h-1.274v-1.176h1.274v1.176zm-1.876 0h-1.274v-1.176h1.274v1.176zM135.148 26.615c0 1.732.003 3.36-.001 4.987-.004 1.321.003 2.641-.025 3.962-.047 2.128-1.857 3.927-3.981 3.941-3.343.023-6.686.023-10.028.03-5.438.01-10.877.01-16.315.033-.279.001-.584.123-.831.267-.519.306-1.208.25-1.582-.187a1.209 1.209 0 0 1 .017-1.588c.377-.416 1.091-.46 1.589-.143.212.134.481.252.723.252 8.781.007 17.563.002 26.344-.005 1.383 0 2.729-1.275 2.741-2.642.024-2.877.014-5.754.016-8.63 0-.069-.017-.14-.039-.293-1.08 0-2.157.003-3.236 0-2.294-.004-4.589 0-6.884-.02-3.374-.03-6.159-2.71-6.404-6.145-.235-3.296 2.234-6.378 5.577-6.762 1.66-.19 3.354-.105 5.032-.12 1.77-.017 3.541-.004 5.312-.004h.618c.01-.223.025-.4.025-.574-.002-2.641-.029-5.284-.002-7.924.016-1.567-1.46-2.924-2.901-2.89-2.366.056-4.734.004-7.1-.003-.199 0-.398.005-.597-.01-.405-.032-.634-.274-.641-.666-.006-.37.2-.619.589-.648.36-.027.722-.037 1.083-.036 2.313.008 4.625-.02 6.936.044 2.195.062 3.914 1.847 3.94 4.036.031 2.66.019 5.318.026 7.978v.704c.363 0 .664-.005.967.001.452.011.705.222.704.702-.013 3.8-.016 7.598-.038 11.397-.006.88-.093.936-.983.954-.196.005-.39.002-.651.002zm-5.474-1.407h5.752V14.962c-.154-.011-.276-.026-.399-.026-3.667.005-7.335.008-11.003.02-.45.002-.912-.008-1.349.082-2.567.53-4.324 3.027-4.028 5.688.281 2.524 2.515 4.497 5.09 4.5.867.001 1.734.015 2.601.02.643.003 1.285 0 1.929 0V20.34c-.834 0-1.643.017-2.45-.008-.373-.012-.515.107-.618.479-.471 1.707-2.306 2.544-3.87 1.802-1.096-.519-1.718-1.657-1.58-2.894.12-1.089.986-2.075 2.056-2.345 1.188-.3 2.411.167 3.058 1.22.187.303.374.414.724.405.903-.022 1.807-.004 2.711.003.571.005 1.074.328 1.248.861.093.286.121.604.123.907.011 1.464.005 2.928.005 4.438zm-7.198-3.712c.801.02 1.444-.567 1.471-1.343a1.445 1.445 0 0 0-1.382-1.502 1.437 1.437 0 0 0-1.476 1.41 1.41 1.41 0 0 0 1.387 1.435zM85.15 20.173c0-5.029-.007-10.058.003-15.087.005-2.102 1.227-3.66 3.253-4.18.31-.078.642-.102.964-.102C96.542.79 103.714.789 110.886.766c.312-.001.651-.128.93-.283.505-.28 1.159-.225 1.535.2.404.455.407 1.128.007 1.585-.349.4-1.067.463-1.545.199-.28-.154-.616-.29-.926-.291-7.118-.013-14.236.023-21.353-.022-1.823-.01-3.066 1.554-3.058 3.07.053 10.002.027 20.006.028 30.008 0 1.656 1.113 2.837 2.767 2.926.559.03 1.12.026 1.68.04.43.011.687.22.688.663.001.443-.255.667-.686.656-.846-.022-1.712.047-2.532-.116-1.961-.389-3.258-2.033-3.262-4.035-.01-5.066-.003-10.13-.003-15.195l-.006.002zM142.692 79.284v7.21h-1.768V76.18h9.45v10.337c-.465 0-.91.023-1.35-.013-.14-.011-.293-.158-.396-.28-1.858-2.214-3.709-4.435-5.562-6.654-.09-.108-.185-.212-.277-.317l-.097.031zm5.893 4v-5.376h-4.592l4.592 5.376zM43.673 86.496h-1.816V76.177c.144-.01.282-.027.42-.027 1.386-.002 2.771.001 4.157-.002.774-.001 1.523.112 2.224.462 1.57.787 2.195 3.032 1.264 4.528-.39.625-1.019.912-1.707 1.197.31.696.61 1.376.914 2.055l.952 2.124c-.665 0-1.274.013-1.883-.014-.092-.004-.207-.174-.261-.29-.48-1.035-.957-2.07-1.412-3.114-.11-.252-.242-.339-.513-.332-.764.02-1.528.007-2.34.007l.001 3.725zm.014-5.402h1.851c-.437-1.042-.864-2.05-1.279-3.062-.124-.306-.326-.256-.572-.181v3.243zm2.525-3.26 1.306 3.031c.844-.407 1.113-.998.888-1.87-.207-.8-1.035-1.257-2.194-1.16zM64.207 88.072h-1.486v-1.529c-1.135-.136-2.05-.655-2.898-1.328-.228-.181-.31-.33-.136-.603.215-.336.383-.7.586-1.08.738.6 1.469 1.13 2.433 1.329 0-.924.006-1.815-.01-2.706-.002-.087-.122-.213-.216-.25-.32-.13-.653-.228-.982-.336-2.376-.786-2.122-3.613-.751-4.64.55-.412 1.227-.653 1.95-1.026v-1.568h1.494v1.736c1 .175 1.907.507 2.677 1.188l-.752 1.296-1.91-.864v1.847c0 .928 0 .928.852 1.237.068.024.135.05.202.077 1.42.557 2.009 1.385 1.945 2.73-.067 1.397-.882 2.432-2.221 2.822-.778.227-.778.227-.778 1.063l.001.605zm.022-3.152c.784-.181 1.21-.721 1.154-1.42-.048-.619-.468-1.01-1.154-1.056v2.476zm-1.541-7.149c-.713.134-1.118.594-1.105 1.234.012.594.391.956 1.105 1.047v-2.28zM111.747 76.063c3.017-.008 5.306 2.236 5.315 5.212.01 2.979-2.306 5.3-5.293 5.31-3.03.008-5.335-2.253-5.342-5.243-.008-2.968 2.314-5.272 5.32-5.28zm3.427 4.982c-.032-1.091-.562-2.265-1.86-2.95-2.126-1.124-5.021.176-5.011 3.27.007 2.01 1.526 3.575 3.461 3.574 1.934 0 3.402-1.532 3.41-3.894zM20.853 86.481l5.971-10.423 5.988 10.423h-11.96zm8.958-1.724-2.988-5.215-2.984 5.215h5.972zM199.917 86.503h-11.985l5.982-10.446 6.003 10.446zm-3.012-1.742-2.99-5.22-2.987 5.22h5.977zM174.687 82.884v3.602h-1.813V76.132c.849 0 1.682-.014 2.514.005.748.017 1.511-.014 2.24.127 2.161.419 3.3 2.643 2.44 4.679-.402.953-1.164 1.504-2.139 1.729-.584.135-1.196.166-1.798.206-.456.032-.918.006-1.444.006zm.026-1.562c.597 0 1.17.005 1.743-.003.216-.002.436-.014.646-.058.97-.204 1.492-.803 1.491-1.69 0-.935-.491-1.595-1.468-1.75-.786-.125-1.597-.091-2.413-.13l.001 3.631zM7.602 86.502H5.784V76.185c.036-.014.075-.043.114-.043 1.355.005 2.716-.058 4.066.035 2.78.19 3.597 2.429 3.136 4.374-.276 1.169-1.115 1.848-2.24 2.111-.68.16-1.396.166-2.098.217-.37.027-.745.006-1.16.006v3.617zm-.003-5.22c.802 0 1.57.061 2.323-.015.923-.094 1.5-.7 1.562-1.473.076-.981-.313-1.632-1.19-1.918-.881-.287-1.786-.107-2.695-.157v3.563zM212.136 86.497h-1.841v-.523c0-1.1.013-2.198-.011-3.297a1.419 1.419 0 0 0-.218-.717c-1.177-1.784-2.374-3.556-3.564-5.332-.086-.128-.165-.262-.279-.443h9.96c-.099.158-.174.288-.257.412-1.194 1.773-2.394 3.543-3.575 5.324-.126.19-.203.449-.206.676-.019 1.286-.009 2.57-.009 3.9zm.845-8.514h-3.497l1.742 2.607 1.755-2.607zM97.34 77.76l-1.027 1.125c-2.335-1.522-4.152-1.518-5.419-.01-1.177 1.403-1.14 3.637.084 4.984 1.317 1.45 3.22 1.412 5.383-.129l1.054.992c-1.673 2.17-5.208 2.514-7.363.733-2.346-1.938-2.549-5.672-.424-7.845 2.065-2.108 5.796-2.055 7.712.15zM129.349 84.708h1.209v1.781h-4.357v-1.77h1.255v-6.777h-1.26V76.17h4.361v1.743h-1.209l.001 6.795z" fill="#fff"/>
    <path d="M94.901 81.243a1.309 1.309 0 0 1-1.293 1.34 1.328 1.328 0 0 1-1.333-1.308 1.328 1.328 0 0 1 1.3-1.34 1.312 1.312 0 0 1 1.326 1.308zM113.189 81.377c-.5-.506-.999-1.012-1.493-1.51l-1.39 1.445 1.446 1.46 1.437-1.395z" fill="#fff"/>
    <path d="m113.189 81.377-1.437 1.394-1.446-1.459 1.39-1.445c.494.498.993 1.004 1.493 1.51z" fill="#fff"/>
</svg>
