<svg width="126" height="127" viewBox="0 0 126 127" fill="none" xmlns="http://www.w3.org/2000/svg">
    <path d="M72.813 125.553c28.27 0 51.187-22.918 51.187-51.188 0-28.27-22.917-51.187-51.188-51.187-28.27 0-51.187 22.917-51.187 51.187 0 28.27 22.917 51.188 51.188 51.188z" fill="#D8262C" fill-opacity=".19"/>
    <path d="M63 114.74c28.27 0 51.188-22.917 51.188-51.187 0-28.27-22.918-51.188-51.188-51.188-28.27 0-51.188 22.918-51.188 51.188 0 28.27 22.918 51.187 51.188 51.187z" stroke="#D8262C" stroke-width="9" stroke-miterlimit="10" stroke-linecap="round"/>
    <path d="M45.938 87.703c9.397-9.397 24.727-9.397 34.124 0" stroke="#D8262C" stroke-width="9" stroke-miterlimit="10" stroke-linecap="round"/>
</svg>
