<svg width="45" height="45" viewBox="0 0 45 45" fill="none" xmlns="http://www.w3.org/2000/svg">
    <path d="M40.847 11.547v4.437c0 2.897-1.834 4.73-4.73 4.73h-6.27V7.899c0-2.035 1.668-3.703 3.703-3.685a7.37 7.37 0 0 1 5.152 2.145 7.38 7.38 0 0 1 2.145 5.188z" fill="#444B66"/>
    <path opacity=".4" d="M4.18 13.38v25.667c0 1.522 1.724 2.384 2.934 1.467l3.135-2.347a1.847 1.847 0 0 1 2.42.183l3.043 3.062a1.848 1.848 0 0 0 2.604 0l3.08-3.08a1.817 1.817 0 0 1 2.383-.165l3.135 2.347c1.21.898 2.933.036 2.933-1.467V7.881a3.677 3.677 0 0 1 3.667-3.667h-22c-5.5 0-7.333 3.282-7.333 7.333v1.833z" fill="#444B66"/>
    <path d="M22.514 23.023h-5.5c-.752 0-1.375.624-1.375 1.375 0 .752.623 1.375 1.375 1.375h5.5c.751 0 1.375-.623 1.375-1.375 0-.751-.624-1.375-1.375-1.375zM17.014 18.44h5.5c.751 0 1.375-.624 1.375-1.376 0-.751-.624-1.374-1.375-1.374h-5.5c-.752 0-1.375.623-1.375 1.374 0 .752.623 1.375 1.375 1.375zM11.458 15.231a1.827 1.827 0 0 0-1.833 1.834c0 1.008.825 1.833 1.833 1.833a1.839 1.839 0 0 0 1.834-1.833 1.839 1.839 0 0 0-1.834-1.834zM11.458 22.564a1.827 1.827 0 0 0-1.833 1.834c0 1.008.825 1.833 1.833 1.833a1.839 1.839 0 0 0 1.834-1.833 1.839 1.839 0 0 0-1.834-1.834z" fill="#444B66"/>
</svg>
