<svg width="32" height="33" viewBox="0 0 32 33" fill="none" xmlns="http://www.w3.org/2000/svg">
    <path fill-rule="evenodd" clip-rule="evenodd" d="M16.025 2.511c1.63 0 2.951 1.336 2.951 2.983 0 1.648-1.322 2.984-2.95 2.984-1.632 0-2.954-1.336-2.954-2.984 0-1.647 1.322-2.983 2.953-2.983zM22.896.553c1.632 0 2.953 1.336 2.953 2.983 0 1.648-1.321 2.984-2.953 2.984-1.629 0-2.951-1.336-2.951-2.984 0-1.647 1.322-2.983 2.951-2.983zM9.73 5.563c1.63 0 2.952 1.337 2.952 2.985s-1.322 2.984-2.952 2.984-2.953-1.336-2.953-2.984S8.098 5.564 9.73 5.564zm6.278 13.95c.195-.009 2.164-.087 3.374.523.443.223.488.511.488.816 0 1.415-3.824 3.436-4.2 3.628C10.828 26.95 4 27.37 4 27.37l.064 5.183c2.921-.405 8.192-1 14.552-4.447 3.145-1.704 6.55-4.51 5.915-8.526-.614-3.874-4.671-4.965-8.493-4.798l-.045 4.715c-.193.01-2.163.087-3.373-.523-.443-.223-.488-.51-.488-.815 0-1.416 3.823-3.437 4.2-3.628C21.172 12.061 28 11.641 28 11.641l-.064-5.184c-2.922.406-8.192 1.001-14.551 4.447-3.146 1.704-6.55 4.51-5.914 8.526.613 3.875 4.67 4.966 8.49 4.798l.046-4.715z" fill="#D8262C"/>
</svg>
