<svg width="32" height="33" viewBox="0 0 32 33" fill="none" xmlns="http://www.w3.org/2000/svg">
    <path d="M14.333 3.82c.92-.787 2.427-.787 3.36 0L19.8 5.632c.4.346 1.147.626 1.68.626h2.267a2.583 2.583 0 0 1 2.573 2.574V11.1c0 .52.28 1.28.627 1.68l1.813 2.106c.787.92.787 2.427 0 3.36l-1.813 2.107c-.347.4-.627 1.146-.627 1.68v2.266a2.583 2.583 0 0 1-2.573 2.574H21.48c-.52 0-1.28.28-1.68.627l-2.107 1.813c-.92.787-2.426.787-3.36 0L12.227 27.5c-.4-.347-1.147-.627-1.68-.627H8.24a2.583 2.583 0 0 1-2.573-2.574v-2.28c0-.52-.28-1.266-.614-1.666l-1.8-2.12c-.773-.92-.773-2.414 0-3.334l1.8-2.12c.334-.4.614-1.146.614-1.666V8.819A2.583 2.583 0 0 1 8.24 6.246h2.307c.52 0 1.28-.28 1.68-.627l2.106-1.8z" fill="#00A1F1"/>
    <path d="M14.387 20.78a.999.999 0 0 1-.707-.294l-3.227-3.227a1.006 1.006 0 0 1 0-1.413 1.006 1.006 0 0 1 1.414 0l2.52 2.52 5.733-5.733a1.006 1.006 0 0 1 1.413 0 1.006 1.006 0 0 1 0 1.413l-6.44 6.44a.999.999 0 0 1-.706.293z" fill="#fff"/>
</svg>
